<?xml version="1.0" encoding="utf-8"?>
<!-- Generator: Adobe Illustrator 24.1.3, SVG Export Plug-In . SVG Version: 6.00 Build 0)  -->
<svg version="1.1" xmlns="http://www.w3.org/2000/svg" xmlns:xlink="http://www.w3.org/1999/xlink" x="0px" y="0px"
	 viewBox="0 0 612 235.11" style="enable-background:new 0 0 612 235.11;" xml:space="preserve">
<style type="text/css">
	.st0{fill:#FFFFFF;}
</style>
<g id="Layer_2">
</g>
<g id="Text">
</g>
<g id="Layer_1">
	<path d="M439.97,52.25c0.22-0.21,0.43-0.42,0.65-0.63C440.36,51.75,440.14,51.96,439.97,52.25z"/>
	<g>
		<path d="M516.35,124.28c-0.43-0.1-0.85-0.2-1.28-0.29c-3.4,15.16-6.79,30.32-10.16,45.51c0.3-0.02,0.68-0.02,0.71-0.11
			C509.22,154.35,512.79,139.31,516.35,124.28z"/>
		<path d="M415.52,49.12c0.18,0.68,1.26,1.12,1.92,1.68c0.61-0.78,1.63-1.49,1.76-2.34c1.8-11.89,7.28-21.23,20.04-27.31
			C424.65,21.18,412.35,36.86,415.52,49.12z"/>
		<path d="M415.42,34.2c-0.53-0.21-1.05-0.42-1.58-0.63c-1.52,6.29-3.05,12.58-4.57,18.87c0.87,0.23,1.74,0.45,2.61,0.68
			C413.06,46.81,414.24,40.5,415.42,34.2z"/>
		<path d="M424.53,63.12c0.5-5.64-3.21-8.55-7.62-7.9c-2.56,0.38-6.34,4.89-6.28,7.47c0.07,2.9,3.35,7.4,6.1,8.2
			C422.24,72.49,424.22,68.02,424.53,63.12z"/>
		<path d="M421.98,48.69c-0.15,1.94,2.4,4.08,3.69,6.13c1.43-1.11,3.03-2.06,4.25-3.37c1.14-1.22,1.88-2.81,3.46-5.29
			c0.59,2.78,0.89,4.19,1.19,5.59c1.04,0.89,2.09,1.78,3.13,2.68c0.75-0.73,1.5-1.46,2.25-2.19c0.18-0.29,0.4-0.5,0.65-0.63
			c1.35-1.31,2.69-2.61,4.04-3.92c-0.84-0.31-1.68-0.62-2.52-0.92c5.23-0.39,10.46-0.78,15.68-1.17c0.09-0.37,0.19-0.74,0.28-1.11
			c3.09,0.94,6.19,1.88,9.18,2.79c-0.39-1.51-0.77-3.31-1.33-5.05c-0.63-1.96-2.43-4.16-1.97-5.74c1.88-6.42-3.22-10.15-6.64-11.38
			C439.27,18.6,423.51,29.37,421.98,48.69z"/>
		<path d="M439.71,56.79c-9.37-2.83-10.32-2.1-11.79,7.79c-0.31,2.08-0.83,4.8-2.27,5.91c-4.45,3.43-6.78,7.59-7.01,13.17
			c-0.08,1.87-1.83,4.47-1.1,5.44c3.67,4.88,7.51,9.82,12.14,13.73c2.16,1.83,6.48,2.36,9.37,1.65c2.04-0.51,5.06-4.78,4.52-6.17
			c-0.9-2.35-4.31-3.71-6.6-5.56c-2.38-1.92-4.67-3.94-7.01-5.91c0.56-0.51,1.12-1.03,1.68-1.54c7.44,9.06,16.43,9.87,20.2,0.82
			c4.72-11.3,7.43-23.45,11.14-35.64c-5.94,0.71-10.69,0.42-14.66,2.04c-2,0.82-5.83-1.89-7.72-0.89c-0.22,0.21-0.43,0.42-0.65,0.63
			C439.5,53.03,439.35,54.42,439.71,56.79z"/>
		<path d="M437.98,174.11c2.45,3.21,25.1,2.54,27.76-0.53c0.3-0.35,0.43-0.88,0.55-1.36c1.65-6.39,3.35-12.77,4.89-19.18
			c0.58-2.39,0.79-4.86,1.18-7.29c0.47,0.07,0.95,0.13,1.42,0.2c0,2.62,0,5.24,0,8.42c4.24-1.68,7.85-3.12,11.27-4.48
			c-2.76-11.1-5-21.83-8.23-32.25c-1.27-4.09-3.93-9.02-7.39-10.89c-6.83-3.67-14.67-5.46-22.49-8.17
			c-6.08,11.47-13.21,12.64-22.29,3.45c-3.94-3.98-7.24-8.59-10.32-12.29c-4.63,3.39-9.06,6.99-13.85,10.01
			c-3.97,2.51-8.37,4.33-11.96,6.14c5.34,8.05,9.62,15.12,14.49,21.74C414.51,143.25,426.21,158.71,437.98,174.11z"/>
		<path d="M306.96,36.62c18.78,0.08,27.09,15.54,33.94,30.86c0.75-0.12,1.5-0.25,2.25-0.37c-1.31-8.83-2.08-17.78-4.05-26.46
			c-2.85-12.55-14.5-17.53-23.12-25.07c-4.51-3.95-8.9-4-14.14-1.18c-10.33,5.55-17.02,14.5-22.27,24.32
			c-4.81,8.98-6.4,18.97-3.65,29.42C282.09,52.96,288.01,36.54,306.96,36.62z"/>
		<path d="M276.06,95.09c-1.54,8.78,1.12,15.84,4.6,23.74c4.41,10.02,10.44,13.41,21.11,10.28c-1.14-1.23-2.25-2.39-3.33-3.58
			c-3.58-3.94-7.53-7.63-10.52-11.98c-1.19-1.74-0.69-5.08-0.1-7.48c0.49-1.99,3.62-4.12,3.21-5.43
			c-3.69-11.52-7.91-22.88-11.94-34.19C278.15,75.72,277.74,85.52,276.06,95.09z"/>
		<path d="M322.69,99.4c5.52-9.08,8.37-20.09,10.95-30.59c3.21-13.07-11.84-30.07-27.92-30.09c-2.22,0.81-7.29,1.44-10.7,4.15
			c-7.22,5.74-14.42,12.45-11.82,23.12c2.54,10.4,5.12,20.96,9.35,30.74C299.56,112.95,313.56,114.42,322.69,99.4z"/>
		<path d="M311.15,128.06c13.65-10.63,15.98-15.5,12.29-24.23c-11.99,11.08-18.77,11.1-29.8-0.25c-3.89,9.55-0.99,15.94,11.58,24.83
			C306.52,129.34,309.82,129.1,311.15,128.06z"/>
		<path d="M341.78,105.98c0.64-13.21-1.48-26.55-2.39-39.84c-0.46,0.22-0.91,0.44-1.37,0.66c-3.8,10.65-7.71,21.27-11.3,31.99
			c-0.61,1.82-0.69,4.88,0.39,6.04c4.39,4.66,1.72,8.25-1.27,11.68c-3.76,4.33-7.87,8.36-12.08,12.79
			C324.63,130.88,341.2,118.07,341.78,105.98z"/>
		<path d="M209.26,67.04c6.84,1.19,3.96,6.5,4.64,10.09c0.63,3.32,0.6,6.76,0.94,11.27c6.65-10.74,7.29-18.48,3.59-28.57
			c-0.79-2.16-5.02-6.05,1.63-6.89c0.24-0.03,0.65-1.69,0.37-2.32c-1.74-3.86-3.44-7.78-5.65-11.37c-0.52-0.85-3.08-0.97-4.43-0.55
			c-0.71,0.22-1.07,2.33-1.16,3.61c-0.4,5.76-0.79,11.53-0.9,17.3C208.24,62.19,208.51,66.9,209.26,67.04z"/>
		<path d="M199.58,79.81c2.72,4.8,8.09,8.09,12.29,12.05c0.66-0.55,1.32-1.1,1.98-1.65c-2.89-9.02-5.78-18.03-8.8-27.48
			C199.96,67.84,196.05,73.57,199.58,79.81z"/>
		<path d="M156.1,46.26c4.48,0.49,8.95,0.97,13.43,1.46c1.18-0.59,3.08-1.28,3.78-0.65c5.77,5.26,11.31,10.77,16.71,16
			c0.58-1.86,1.68-5.37,3.07-9.79c3.06,3.54,5.58,6.44,8.28,9.57c8.04-8.64,7.51-19.29,2.43-29.46
			c-5.1-10.2-16.05-12.33-26.04-13.89c-4.33-0.67-9.6,2.19-13.87,4.51c-3.36,1.83-5.89,5.24-8.71,8.03
			C150.38,36.81,150.71,43.4,156.1,46.26z"/>
		<path d="M174.12,97.82c5.01-0.27,10.59-1.07,14.69-3.67c3.62-2.29,5.53-7.26,8.82-11.93c0-5.17,0-13.21,0-21.24
			c-0.89-0.31-1.78-0.63-2.67-0.94c-1.24,2.96-3.02,5.82-3.58,8.9c-0.62,3.45-0.14,7.11-0.14,10.67
			c-10.31-25.03-10.31-25.03-16.79-28.57c1.84,2.51,3.27,4.47,5.5,7.53c-6.34-3.03-11.5-4.92-16.01-7.83
			c-2.99-1.93-4.73-3.98-6.31,1c-0.25,0.8-2.14,1.09-4.22,2.05c2.97,8.69,5.56,17.95,9.31,26.71c3.66,8.55,10.69,9.32,17.42,2.75
			c0.74-0.72,1.57-1.33,2.36-1.99c0.46,0.72,0.91,1.43,1.37,2.15c-4.33,2.62-8.66,5.25-14.22,8.61
			C170.83,93.63,172.59,97.9,174.12,97.82z"/>
		<path d="M148.38,133.02c0.65,0.08,1.31,0.16,1.96,0.24c-0.5,4.22-1.71,8.49-1.35,12.64c0.68,7.81,1.63,15.75,4,23.14
			c0.5,1.55,7.62,0.96,11.68,1.39c2.15,0.23,4.33,0.88,6.44,0.68c2.19-0.21,5.16-0.56,6.3-2.01c7.56-9.6,15.02-19.31,21.94-29.37
			c8.6-12.49,16.65-25.36,25.62-39.11c-6.84-3.83-14.96-8.38-24.16-13.53c-2.3,1.79-5.68,3.59-7.94,6.31
			c-8.47,10.22-18.87,10.32-25.59,0.51c-5.25,1.63-10.71,2.44-15.2,4.98c-4.07,2.3-8.97,5.91-10.18,9.94
			c-3.34,11.12-4.94,22.77-7.32,34.66c2.83,1.6,6.91,3.9,11.25,6.35C146.7,144.1,147.54,138.56,148.38,133.02z"/>
		<path d="M143.97,168.63c2.21,0.3,3.9,0.52,6.25,0.84c-0.89-3.07-1.6-5.48-2.76-9.48C145.9,163.86,145.02,166.05,143.97,168.63z"/>
		<path d="M106.62,155.3c1.5,7.84,3,15.68,4.49,23.53c0.5-0.11,0.99-0.22,1.49-0.34C110.6,170.76,108.61,163.03,106.62,155.3z"/>
		<path d="M99.21,119.76c-0.55,0.13-1.1,0.25-1.64,0.38c2.76,10.6,5.52,21.2,8.28,31.81C103.64,141.21,101.42,130.49,99.21,119.76z"
			/>
		<path d="M90.18,115.9c-16.9-1.47-33.83-2.68-50.75-3.92c-6.03-0.44-12.06-0.74-18.56-1.14c0.38,2.51,0.54,4.15,0.9,5.75
			c4.44,20.11,8.94,40.21,13.35,60.33c1.55,7.09,5.3,11.73,12.88,12.65c4.29,0.52,8.55,1.26,12.82,1.91
			c17.23,2.61,34.45,5.21,52.83,7.99c-6.33-27.54-12.36-54.06-18.68-80.51C94.63,117.6,91.91,116.05,90.18,115.9z"/>
		<path d="M139.77,167.69c0.51,0.23,1.64-0.25,2.11-0.75c6.01-6.35,4.24-14.94-3.71-19.05c-2.97-1.53-4.83-1.46-5.9,2.16
			c-2.1,7.07-5.91,12.56-13.88,13.76c-6.44,0.97-7.25,4.45-4.08,10.13c1.44-0.59,2.8-0.88,3.84-1.63
			C124.7,167.6,131.4,163.92,139.77,167.69z"/>
		<path d="M115.88,195.22c-0.3,0.72-0.59,1.44-0.89,2.16c1.57,0.58,3.2,1.79,4.69,1.64c15.19-1.56,30.36-3.31,45.52-5.11
			c1.31-0.16,2.54-0.99,3.81-1.51c-0.14-0.56-0.28-1.11-0.41-1.67C151.02,192.22,133.45,193.72,115.88,195.22z"/>
		<path d="M120.77,192.24c12.74-0.9,25.45-2.05,39.72-3.27c-7.58-4.23-13.51-8.02-21.27-5.55c-2.19,0.7-4.93-0.51-7.35-0.27
			c-4.45,0.43-8.91,1.07-13.23,2.16c-0.75,0.19-1.38,3.09-1.08,4.53C117.76,190.85,119.7,192.31,120.77,192.24z"/>
		<path d="M145.56,171.2c-9.46-1.91-17.95-3.62-26.67,3.13c-3.77,2.92-4.74,4.53-3.64,6.62c9.14,0,16.99,0.91,24.51-0.27
			c6.84-1.08,12.28,0.69,17.84,3.82c2.16,1.22,4.41,2.9,6.71,3.06c1.8,0.12,4.75-1.35,5.4-2.87c1.38-3.22,1.58-6.95,2.36-10.9
			C163.28,173.01,154.25,172.96,145.56,171.2z"/>
		<path d="M229.81,206.51c1.66,2.93,6.78,3.9,10.99,6.12c0-11.53,0-21.25,0-31.22C230.27,190.19,225.75,199.35,229.81,206.51z"/>
		<path d="M249.62,129.88c11.09,0.22,22.19,0.06,35.85,0.06c-12.27-14.01-14.77-28.89-10.46-44.44c-8.84,2.59-16.79,4.58-24.49,7.27
			c-5.81,2.03-11.7,4.34-16.89,7.58c-19.9,12.44-26.74,35.41-41.25,52.26c-4.52,5.25-7.09,12.37-12.08,16.98
			c-7.48,6.9-8.67,15.41-9.07,24.38c-0.44,9.99,2.36,12.51,12.09,13.77c14.81,1.91,29.57,4.26,44.37,6.35
			c1.22,0.17,2.54-0.29,4.48-0.54c-8.52-8.52-6.05-17.06-2.51-24.81c-11.14-6.15-21.85-12.07-32.55-17.98
			c1.69-1.36,2.9-1.52,3.76-1.04c6.72,3.77,13.22,7.96,20.1,11.41c3.79,1.9,10.03,4.89,11.91,3.36c3.89-3.15,7.32-8.8,7.86-13.76
			c1.15-10.7,0.36-21.61,0.36-32.43C241.1,132.62,243.59,129.76,249.62,129.88z"/>
		<path d="M265.06,198.87c-0.08-0.08-0.18-0.14-0.29-0.19c-0.12-0.05-0.25-0.07-0.4-0.07c-0.13,0-0.26,0.02-0.37,0.07
			c-0.11,0.05-0.21,0.12-0.29,0.2c-0.09,0.09-0.16,0.2-0.22,0.32c-0.06,0.12-0.1,0.26-0.13,0.41h1.96v-0.09
			c0-0.13-0.02-0.24-0.07-0.36C265.2,199.05,265.14,198.95,265.06,198.87z"/>
		<path d="M254.47,199.02c-0.08-0.13-0.18-0.23-0.31-0.3c-0.13-0.08-0.28-0.11-0.46-0.11c-0.18,0-0.33,0.04-0.46,0.11
			c-0.13,0.07-0.23,0.18-0.31,0.3c-0.08,0.13-0.14,0.28-0.18,0.45c-0.04,0.17-0.06,0.35-0.06,0.54v0.09c0,0.19,0.02,0.38,0.06,0.55
			c0.04,0.17,0.1,0.32,0.18,0.44c0.08,0.13,0.18,0.23,0.31,0.31c0.13,0.07,0.28,0.11,0.46,0.11c0.17,0,0.32-0.04,0.45-0.11
			c0.13-0.07,0.23-0.18,0.31-0.31c0.08-0.13,0.13-0.27,0.17-0.44c0.04-0.17,0.06-0.35,0.06-0.55v-0.09c0-0.19-0.02-0.37-0.06-0.54
			C254.61,199.3,254.55,199.15,254.47,199.02z"/>
		<path d="M259.73,199.01c-0.08-0.12-0.18-0.22-0.29-0.29c-0.12-0.07-0.26-0.11-0.43-0.11c-0.1,0-0.19,0.01-0.27,0.03
			c-0.08,0.02-0.15,0.05-0.22,0.08c-0.07,0.04-0.14,0.09-0.2,0.15c-0.06,0.06-0.1,0.13-0.14,0.21v1.94c0.04,0.08,0.08,0.14,0.14,0.2
			c0.05,0.06,0.11,0.11,0.18,0.15c0.07,0.04,0.14,0.07,0.23,0.09c0.09,0.02,0.18,0.03,0.29,0.03c0.17,0,0.31-0.04,0.43-0.11
			c0.12-0.07,0.22-0.18,0.29-0.31c0.07-0.13,0.13-0.28,0.16-0.45c0.03-0.17,0.05-0.35,0.05-0.54v-0.09c0-0.2-0.02-0.38-0.05-0.55
			C259.86,199.29,259.8,199.14,259.73,199.01z"/>
		<rect x="299.47" y="153.25" width="14.45" height="14.45"/>
		<path d="M307.34,198.87c-0.08-0.08-0.18-0.14-0.29-0.19c-0.12-0.05-0.25-0.07-0.4-0.07c-0.13,0-0.26,0.02-0.37,0.07
			c-0.11,0.05-0.21,0.12-0.29,0.2c-0.09,0.09-0.16,0.2-0.22,0.32c-0.06,0.12-0.1,0.26-0.13,0.41h1.96v-0.09
			c0-0.13-0.02-0.24-0.07-0.36S307.42,198.95,307.34,198.87z"/>
		<path d="M322.4,198.61c-0.17,0-0.31,0.04-0.43,0.11c-0.12,0.07-0.22,0.17-0.29,0.3c-0.07,0.13-0.13,0.28-0.16,0.45
			c-0.03,0.17-0.05,0.35-0.05,0.55v0.09c0,0.2,0.02,0.38,0.05,0.54c0.03,0.17,0.09,0.31,0.16,0.44c0.07,0.13,0.17,0.23,0.29,0.3
			c0.12,0.07,0.26,0.11,0.43,0.11c0.21,0,0.38-0.04,0.51-0.13c0.14-0.09,0.24-0.21,0.32-0.37v-1.88c-0.08-0.16-0.19-0.28-0.32-0.37
			C322.77,198.66,322.6,198.61,322.4,198.61z"/>
		<path d="M317.92,198.87c-0.08-0.08-0.18-0.14-0.29-0.19c-0.12-0.05-0.25-0.07-0.4-0.07c-0.13,0-0.26,0.02-0.37,0.07
			c-0.11,0.05-0.21,0.12-0.29,0.2c-0.09,0.09-0.16,0.2-0.22,0.32c-0.06,0.12-0.1,0.26-0.13,0.41h1.96v-0.09
			c0-0.13-0.02-0.24-0.07-0.36S318,198.95,317.92,198.87z"/>
		<path d="M286.19,199.02c-0.08-0.13-0.18-0.23-0.31-0.3c-0.13-0.08-0.28-0.11-0.46-0.11c-0.18,0-0.33,0.04-0.46,0.11
			c-0.13,0.07-0.23,0.18-0.31,0.3c-0.08,0.13-0.14,0.28-0.18,0.45c-0.04,0.17-0.06,0.35-0.06,0.54v0.09c0,0.19,0.02,0.38,0.06,0.55
			c0.04,0.17,0.1,0.32,0.18,0.44c0.08,0.13,0.18,0.23,0.31,0.31c0.13,0.07,0.28,0.11,0.46,0.11c0.17,0,0.32-0.04,0.45-0.11
			c0.13-0.07,0.23-0.18,0.31-0.31c0.08-0.13,0.13-0.27,0.17-0.44c0.04-0.17,0.06-0.35,0.06-0.55v-0.09c0-0.19-0.02-0.37-0.06-0.54
			C286.32,199.3,286.27,199.15,286.19,199.02z"/>
		<path d="M363.55,132.05c-18.83,0.17-37.66,0.07-56.5,0.07c0,0.08,0,0.15,0,0.23c-18.83,0-37.66,0.14-56.49-0.09
			c-5.26-0.07-7.27,2.04-7.27,7.01c0.04,22.67,0.04,45.33,0,68c-0.01,4.72,2.22,7.3,6.88,7.3c37.99-0.04,75.99-0.15,113.98-0.26
			c4.28-0.01,6.32-2.14,6.31-6.53c-0.06-23-0.07-46,0.01-69C370.51,133.87,368.48,132,363.55,132.05z M289.84,148.44h28.89v4.81
			h4.82v14.45h-4.82v4.82h-19.26v9.63h-9.63V148.44z M255.9,200.1c0,0.34-0.05,0.66-0.15,0.94c-0.1,0.29-0.24,0.54-0.43,0.75
			c-0.19,0.21-0.42,0.38-0.69,0.5c-0.27,0.12-0.58,0.18-0.93,0.18c-0.35,0-0.66-0.06-0.94-0.18c-0.27-0.12-0.5-0.28-0.69-0.5
			c-0.19-0.21-0.33-0.46-0.43-0.75c-0.1-0.29-0.15-0.6-0.15-0.94v-0.09c0-0.34,0.05-0.65,0.15-0.94c0.1-0.29,0.24-0.54,0.43-0.75
			c0.19-0.21,0.41-0.38,0.69-0.5c0.27-0.12,0.58-0.18,0.93-0.18c0.35,0,0.66,0.06,0.93,0.18c0.27,0.12,0.5,0.29,0.69,0.5
			c0.19,0.21,0.33,0.46,0.43,0.75c0.1,0.29,0.15,0.6,0.15,0.94V200.1z M251.31,177.33v-28.89h9.63v19.26h4.81v-19.26h4.82v19.26
			h4.82v-19.26h9.63v28.89h-4.82v4.82h-4.82v-4.82h-4.82v-4.81h-4.82v4.81h-4.81v4.82h-4.82v-4.82H251.31z M261.14,200.1
			c0,0.34-0.04,0.65-0.12,0.94c-0.08,0.29-0.19,0.54-0.35,0.75c-0.15,0.21-0.35,0.38-0.57,0.5c-0.23,0.12-0.49,0.18-0.78,0.18
			c-0.15,0-0.3-0.02-0.43-0.05c-0.13-0.03-0.25-0.08-0.36-0.14c-0.07-0.04-0.13-0.09-0.19-0.13c-0.06-0.05-0.12-0.1-0.17-0.16v2.19
			h-1.2v-6.44h1.11l0.04,0.46c0.06-0.08,0.13-0.15,0.21-0.21c0.07-0.06,0.15-0.12,0.24-0.16c0.1-0.06,0.22-0.1,0.34-0.13
			c0.12-0.03,0.26-0.04,0.4-0.04c0.3,0,0.56,0.06,0.78,0.17c0.23,0.11,0.42,0.27,0.57,0.48c0.15,0.21,0.27,0.46,0.35,0.75
			s0.12,0.61,0.12,0.97V200.1z M266.49,200.44h-3.16v0.01c0.04,0.19,0.09,0.34,0.16,0.45c0.06,0.11,0.15,0.22,0.25,0.31
			c0.11,0.09,0.23,0.17,0.37,0.22c0.14,0.05,0.29,0.08,0.46,0.08c0.23,0,0.46-0.04,0.68-0.13c0.22-0.09,0.4-0.22,0.54-0.4l0.6,0.64
			c-0.15,0.21-0.39,0.41-0.72,0.58c-0.33,0.17-0.72,0.26-1.17,0.26c-0.36,0-0.68-0.06-0.98-0.18c-0.29-0.12-0.54-0.28-0.75-0.48
			c-0.21-0.2-0.37-0.44-0.48-0.71c-0.11-0.27-0.17-0.57-0.17-0.88v-0.17c0-0.35,0.06-0.68,0.17-0.97c0.11-0.29,0.27-0.55,0.47-0.76
			c0.2-0.21,0.44-0.38,0.71-0.49c0.28-0.12,0.57-0.18,0.9-0.18c0.33,0,0.63,0.06,0.9,0.17c0.26,0.11,0.48,0.27,0.67,0.47
			c0.18,0.2,0.32,0.44,0.41,0.72s0.14,0.59,0.14,0.93V200.44z M271.69,202.38h-1.2v-2.85c0-0.18-0.02-0.33-0.06-0.45
			c-0.04-0.12-0.1-0.21-0.18-0.28c-0.08-0.07-0.17-0.12-0.28-0.14c-0.11-0.03-0.23-0.04-0.37-0.04c-0.12,0-0.22,0.01-0.32,0.04
			c-0.1,0.03-0.18,0.06-0.26,0.12c-0.06,0.04-0.12,0.08-0.16,0.13c-0.05,0.05-0.09,0.11-0.13,0.17v3.31h-1.2v-4.65h1.08l0.07,0.65
			c0.06-0.09,0.13-0.17,0.2-0.24c0.07-0.07,0.15-0.14,0.23-0.19c0.14-0.1,0.29-0.17,0.45-0.22c0.16-0.05,0.34-0.08,0.52-0.08
			c0.24,0,0.45,0.03,0.65,0.1c0.2,0.07,0.36,0.18,0.51,0.33c0.14,0.15,0.25,0.35,0.33,0.58c0.08,0.24,0.12,0.52,0.12,0.86V202.38z
			 M277.01,200.1h-3.58v-0.97h3.58V200.1z M282.12,201.62c-0.1,0.17-0.24,0.32-0.42,0.45c-0.18,0.13-0.4,0.22-0.66,0.29
			c-0.26,0.07-0.55,0.11-0.86,0.11c-0.35,0-0.66-0.05-0.93-0.14c-0.27-0.09-0.49-0.21-0.67-0.36c-0.18-0.15-0.32-0.31-0.41-0.5
			c-0.09-0.19-0.14-0.38-0.14-0.57h1.14c0.01,0.13,0.04,0.23,0.1,0.32c0.06,0.09,0.14,0.16,0.23,0.22c0.09,0.06,0.2,0.1,0.32,0.12
			s0.25,0.04,0.38,0.04c0.15,0,0.29-0.01,0.41-0.04c0.12-0.03,0.21-0.06,0.29-0.11c0.07-0.05,0.13-0.1,0.16-0.16
			c0.04-0.06,0.05-0.13,0.05-0.2c0-0.07-0.02-0.14-0.05-0.19c-0.03-0.05-0.09-0.11-0.17-0.15c-0.09-0.05-0.2-0.09-0.34-0.13
			c-0.14-0.04-0.32-0.08-0.53-0.12c-0.27-0.06-0.52-0.12-0.75-0.2c-0.22-0.08-0.42-0.18-0.58-0.3c-0.16-0.12-0.29-0.25-0.38-0.4
			c-0.09-0.15-0.14-0.33-0.14-0.52c0-0.19,0.05-0.38,0.14-0.55c0.09-0.17,0.22-0.33,0.4-0.46c0.17-0.13,0.38-0.24,0.63-0.32
			c0.25-0.08,0.52-0.12,0.83-0.12c0.32,0,0.62,0.04,0.87,0.11c0.26,0.08,0.48,0.18,0.66,0.31c0.18,0.13,0.31,0.29,0.41,0.48
			c0.09,0.18,0.14,0.38,0.14,0.6h-1.2c0-0.08-0.01-0.15-0.04-0.22c-0.03-0.07-0.06-0.13-0.12-0.18c-0.07-0.07-0.17-0.13-0.29-0.17
			c-0.12-0.04-0.27-0.06-0.44-0.06c-0.15,0-0.27,0.01-0.38,0.04c-0.11,0.03-0.2,0.07-0.27,0.12c-0.06,0.05-0.11,0.1-0.14,0.16
			s-0.05,0.13-0.05,0.2c0,0.07,0.01,0.13,0.04,0.19c0.03,0.06,0.08,0.11,0.16,0.16c0.07,0.05,0.17,0.09,0.3,0.13
			c0.13,0.04,0.29,0.07,0.48,0.1c0.28,0.05,0.54,0.1,0.78,0.18c0.24,0.07,0.45,0.16,0.62,0.27c0.17,0.12,0.31,0.25,0.41,0.42
			c0.1,0.16,0.15,0.35,0.15,0.58C282.27,201.26,282.22,201.45,282.12,201.62z M287.62,200.1c0,0.34-0.05,0.66-0.15,0.94
			c-0.1,0.29-0.24,0.54-0.43,0.75c-0.19,0.21-0.42,0.38-0.69,0.5c-0.27,0.12-0.58,0.18-0.93,0.18c-0.35,0-0.66-0.06-0.94-0.18
			c-0.27-0.12-0.5-0.28-0.69-0.5c-0.19-0.21-0.33-0.46-0.43-0.75c-0.1-0.29-0.15-0.6-0.15-0.94v-0.09c0-0.34,0.05-0.65,0.15-0.94
			c0.1-0.29,0.24-0.54,0.43-0.75c0.19-0.21,0.41-0.38,0.69-0.5c0.27-0.12,0.58-0.18,0.93-0.18c0.35,0,0.66,0.06,0.93,0.18
			c0.27,0.12,0.5,0.29,0.69,0.5c0.19,0.21,0.33,0.46,0.43,0.75c0.1,0.29,0.15,0.6,0.15,0.94V200.1z M292.79,202.38h-1.08l-0.07-0.65
			c-0.16,0.23-0.35,0.41-0.57,0.55c-0.22,0.13-0.46,0.2-0.73,0.2c-0.24,0-0.46-0.04-0.66-0.11c-0.2-0.07-0.37-0.19-0.52-0.36
			c-0.14-0.16-0.25-0.37-0.33-0.62c-0.08-0.25-0.12-0.55-0.12-0.9v-2.75h1.2v2.76c0,0.19,0.01,0.35,0.04,0.48
			c0.03,0.13,0.07,0.23,0.13,0.31c0.06,0.08,0.14,0.14,0.24,0.17c0.1,0.03,0.22,0.05,0.36,0.05c0.13,0,0.24-0.01,0.34-0.04
			c0.1-0.03,0.19-0.06,0.27-0.11c0.07-0.04,0.13-0.09,0.18-0.15c0.05-0.06,0.1-0.13,0.13-0.2v-3.27h1.2V202.38z M298,198.95
			c-0.16-0.04-0.32-0.06-0.48-0.08c-0.16-0.02-0.32-0.03-0.47-0.03c-0.16,0-0.29,0.01-0.42,0.04c-0.13,0.03-0.24,0.07-0.33,0.12
			c-0.12,0.06-0.22,0.14-0.3,0.24c-0.08,0.1-0.15,0.21-0.21,0.34v2.8h-1.2v-4.65h1.11l0.05,0.66l0.01,0.1
			c0.19-0.26,0.42-0.47,0.68-0.62c0.26-0.15,0.55-0.23,0.86-0.23c0.18,0,0.35,0.01,0.5,0.04s0.28,0.05,0.37,0.08L298,198.95z
			 M300.38,200.64c0.03,0.17,0.08,0.32,0.16,0.44c0.07,0.13,0.17,0.23,0.29,0.31c0.12,0.08,0.28,0.12,0.48,0.12
			c0.12,0,0.23-0.02,0.34-0.05c0.11-0.03,0.2-0.08,0.28-0.15s0.14-0.14,0.19-0.23c0.04-0.09,0.06-0.19,0.06-0.3h1.13
			c0.01,0.24-0.04,0.46-0.15,0.67c-0.1,0.21-0.25,0.38-0.43,0.53c-0.18,0.15-0.39,0.27-0.63,0.35c-0.24,0.08-0.49,0.13-0.76,0.13
			c-0.36,0-0.68-0.06-0.95-0.18c-0.27-0.12-0.5-0.29-0.68-0.5c-0.18-0.21-0.32-0.46-0.42-0.75c-0.09-0.29-0.14-0.59-0.14-0.92v-0.13
			c0-0.33,0.05-0.63,0.14-0.92c0.09-0.29,0.23-0.53,0.41-0.75c0.18-0.21,0.41-0.38,0.68-0.5c0.27-0.12,0.59-0.18,0.94-0.18
			c0.29,0,0.55,0.04,0.8,0.13c0.24,0.09,0.45,0.21,0.63,0.36c0.17,0.16,0.31,0.35,0.41,0.57c0.1,0.22,0.14,0.47,0.14,0.75h-1.13
			c0.01-0.12-0.01-0.22-0.05-0.33c-0.04-0.1-0.1-0.19-0.18-0.27c-0.08-0.07-0.17-0.13-0.28-0.18c-0.11-0.04-0.23-0.07-0.36-0.07
			c-0.19,0-0.35,0.04-0.47,0.12c-0.12,0.08-0.22,0.18-0.29,0.31c-0.07,0.13-0.13,0.28-0.16,0.44c-0.03,0.17-0.04,0.34-0.04,0.52
			v0.13C300.34,200.3,300.35,200.48,300.38,200.64z M308.78,200.44h-3.16v0.01c0.04,0.19,0.09,0.34,0.16,0.45
			c0.06,0.11,0.15,0.22,0.25,0.31c0.11,0.09,0.23,0.17,0.37,0.22c0.14,0.05,0.29,0.08,0.46,0.08c0.23,0,0.46-0.04,0.68-0.13
			c0.22-0.09,0.4-0.22,0.54-0.4l0.6,0.64c-0.15,0.21-0.39,0.41-0.72,0.58c-0.33,0.17-0.72,0.26-1.17,0.26
			c-0.36,0-0.68-0.06-0.98-0.18c-0.29-0.12-0.54-0.28-0.75-0.48c-0.21-0.2-0.37-0.44-0.48-0.71c-0.11-0.27-0.17-0.57-0.17-0.88
			v-0.17c0-0.35,0.06-0.68,0.17-0.97c0.11-0.29,0.27-0.55,0.47-0.76c0.2-0.21,0.44-0.38,0.71-0.49c0.27-0.12,0.57-0.18,0.9-0.18
			c0.33,0,0.63,0.06,0.9,0.17c0.26,0.11,0.48,0.27,0.67,0.47c0.18,0.2,0.32,0.44,0.41,0.72c0.09,0.28,0.14,0.59,0.14,0.93V200.44z
			 M319.35,200.44h-3.16v0.01c0.04,0.19,0.09,0.34,0.16,0.45c0.06,0.11,0.15,0.22,0.25,0.31c0.11,0.09,0.23,0.17,0.37,0.22
			c0.14,0.05,0.29,0.08,0.46,0.08c0.23,0,0.46-0.04,0.68-0.13c0.22-0.09,0.4-0.22,0.54-0.4l0.6,0.64c-0.15,0.21-0.39,0.41-0.72,0.58
			c-0.33,0.17-0.72,0.26-1.17,0.26c-0.36,0-0.68-0.06-0.98-0.18c-0.29-0.12-0.54-0.28-0.75-0.48c-0.21-0.2-0.37-0.44-0.48-0.71
			c-0.11-0.27-0.17-0.57-0.17-0.88v-0.17c0-0.35,0.06-0.68,0.17-0.97c0.11-0.29,0.27-0.55,0.47-0.76c0.2-0.21,0.44-0.38,0.71-0.49
			c0.28-0.12,0.57-0.18,0.9-0.18c0.33,0,0.63,0.06,0.9,0.17c0.26,0.11,0.48,0.27,0.67,0.47c0.18,0.2,0.32,0.44,0.41,0.72
			c0.09,0.28,0.14,0.59,0.14,0.93V200.44z M324.43,202.38h-1.08l-0.06-0.49c-0.15,0.18-0.32,0.32-0.52,0.42
			c-0.2,0.1-0.43,0.15-0.69,0.15c-0.28,0-0.54-0.06-0.76-0.18c-0.23-0.12-0.42-0.28-0.57-0.49c-0.16-0.21-0.28-0.46-0.36-0.75
			c-0.08-0.29-0.13-0.6-0.13-0.94v-0.09c0-0.35,0.04-0.68,0.12-0.97c0.08-0.29,0.2-0.54,0.36-0.75c0.16-0.21,0.35-0.37,0.57-0.49
			c0.23-0.12,0.48-0.17,0.77-0.17c0.24,0,0.46,0.04,0.64,0.13c0.18,0.09,0.35,0.21,0.49,0.37v-2.37h1.2V202.38z M329.8,202.38h-1.08
			l-0.07-0.65c-0.16,0.23-0.35,0.41-0.57,0.55c-0.22,0.13-0.46,0.2-0.73,0.2c-0.24,0-0.46-0.04-0.66-0.11
			c-0.2-0.07-0.37-0.19-0.52-0.36c-0.14-0.16-0.25-0.37-0.33-0.62c-0.08-0.25-0.12-0.55-0.12-0.9v-2.75h1.2v2.76
			c0,0.19,0.01,0.35,0.04,0.48c0.03,0.13,0.07,0.23,0.13,0.31c0.06,0.08,0.14,0.14,0.24,0.17c0.1,0.03,0.22,0.05,0.36,0.05
			c0.13,0,0.24-0.01,0.34-0.04c0.1-0.03,0.19-0.06,0.27-0.11c0.07-0.04,0.13-0.09,0.18-0.15c0.05-0.06,0.1-0.13,0.13-0.2v-3.27h1.2
			V202.38z M332.1,200.64c0.03,0.17,0.08,0.32,0.16,0.44c0.07,0.13,0.17,0.23,0.29,0.31c0.12,0.08,0.28,0.12,0.48,0.12
			c0.12,0,0.23-0.02,0.34-0.05c0.11-0.03,0.2-0.08,0.28-0.15c0.08-0.06,0.14-0.14,0.19-0.23c0.04-0.09,0.06-0.19,0.06-0.3h1.13
			c0.01,0.24-0.04,0.46-0.15,0.67c-0.1,0.21-0.25,0.38-0.43,0.53c-0.18,0.15-0.39,0.27-0.63,0.35c-0.24,0.08-0.49,0.13-0.76,0.13
			c-0.36,0-0.68-0.06-0.95-0.18c-0.27-0.12-0.5-0.29-0.68-0.5c-0.18-0.21-0.32-0.46-0.42-0.75c-0.09-0.29-0.14-0.59-0.14-0.92v-0.13
			c0-0.33,0.05-0.63,0.14-0.92c0.09-0.29,0.23-0.53,0.41-0.75c0.18-0.21,0.41-0.38,0.68-0.5s0.59-0.18,0.94-0.18
			c0.29,0,0.55,0.04,0.8,0.13c0.24,0.09,0.45,0.21,0.63,0.36c0.17,0.16,0.31,0.35,0.41,0.57c0.1,0.22,0.14,0.47,0.14,0.75h-1.13
			c0.01-0.12-0.01-0.22-0.05-0.33c-0.04-0.1-0.1-0.19-0.18-0.27c-0.08-0.07-0.17-0.13-0.28-0.18c-0.11-0.04-0.23-0.07-0.36-0.07
			c-0.19,0-0.35,0.04-0.47,0.12c-0.12,0.08-0.22,0.18-0.29,0.31c-0.07,0.13-0.13,0.28-0.16,0.44c-0.03,0.17-0.04,0.34-0.04,0.52
			v0.13C332.05,200.3,332.07,200.48,332.1,200.64z M340.37,202.38h-1.21c-0.03-0.06-0.05-0.12-0.07-0.2
			c-0.02-0.07-0.04-0.15-0.05-0.24c-0.07,0.07-0.14,0.14-0.23,0.2c-0.09,0.06-0.18,0.12-0.28,0.16c-0.11,0.05-0.22,0.09-0.35,0.12
			c-0.13,0.03-0.26,0.04-0.41,0.04c-0.24,0-0.46-0.03-0.66-0.1c-0.2-0.07-0.37-0.17-0.51-0.29c-0.14-0.12-0.26-0.27-0.34-0.44
			c-0.08-0.17-0.12-0.36-0.12-0.56c0-0.26,0.05-0.49,0.15-0.69c0.1-0.2,0.25-0.36,0.45-0.49c0.18-0.12,0.4-0.21,0.67-0.27
			c0.27-0.06,0.57-0.09,0.91-0.09h0.67v-0.27c0-0.11-0.02-0.21-0.05-0.29c-0.03-0.09-0.09-0.16-0.16-0.23
			c-0.07-0.06-0.16-0.12-0.27-0.15c-0.11-0.03-0.23-0.05-0.38-0.05c-0.13,0-0.24,0.02-0.33,0.05c-0.09,0.03-0.17,0.07-0.22,0.13
			c-0.05,0.05-0.09,0.11-0.11,0.17c-0.02,0.07-0.04,0.14-0.04,0.23h-1.2c0-0.2,0.04-0.39,0.13-0.56c0.09-0.18,0.22-0.33,0.39-0.47
			c0.17-0.13,0.37-0.24,0.61-0.32c0.24-0.08,0.52-0.12,0.83-0.12c0.28,0,0.54,0.03,0.78,0.1c0.24,0.07,0.45,0.17,0.63,0.31
			c0.18,0.14,0.32,0.3,0.42,0.51c0.1,0.2,0.15,0.44,0.15,0.71v2c0,0.25,0.02,0.46,0.05,0.62c0.03,0.16,0.08,0.3,0.14,0.42V202.38z
			 M345.37,202.31c-0.11,0.04-0.23,0.06-0.36,0.09c-0.13,0.02-0.26,0.04-0.39,0.05c-0.14,0.01-0.27,0.02-0.4,0.02
			c-0.26,0-0.49-0.03-0.7-0.1c-0.21-0.07-0.38-0.17-0.53-0.32c-0.15-0.14-0.26-0.32-0.34-0.54c-0.08-0.22-0.12-0.48-0.12-0.79v-2.12
			h-1.06v-0.88h1.06v-1.14h1.2v1.14h1.74v0.88h-1.74v2c0,0.17,0.02,0.31,0.06,0.42c0.04,0.11,0.09,0.2,0.17,0.27
			c0.07,0.07,0.16,0.12,0.26,0.15c0.1,0.03,0.22,0.04,0.34,0.04c0.09,0,0.19,0,0.28-0.01c0.1-0.01,0.19-0.02,0.28-0.03
			c0.09-0.01,0.17-0.02,0.24-0.04c0.08-0.02,0.14-0.03,0.2-0.04l0.12,0.82C345.58,202.23,345.48,202.27,345.37,202.31z
			 M350.93,202.38h-3.79v-0.97h1.32v-2.7h-1.32v-0.98h2.53v3.68h1.26V202.38z M348.37,196.53c0-0.09,0.02-0.18,0.05-0.26
			s0.08-0.15,0.14-0.2c0.06-0.05,0.13-0.1,0.22-0.13c0.08-0.03,0.18-0.05,0.28-0.05c0.21,0,0.38,0.06,0.51,0.18
			c0.12,0.12,0.19,0.27,0.19,0.46c0,0.19-0.06,0.34-0.19,0.46c-0.12,0.12-0.29,0.18-0.51,0.18c-0.1,0-0.2-0.02-0.28-0.05
			c-0.08-0.03-0.16-0.08-0.22-0.13c-0.06-0.06-0.11-0.12-0.14-0.2S348.37,196.63,348.37,196.53z M356.33,200.1
			c0,0.34-0.05,0.66-0.15,0.94c-0.1,0.29-0.24,0.54-0.43,0.75c-0.19,0.21-0.42,0.38-0.69,0.5c-0.27,0.12-0.58,0.18-0.93,0.18
			c-0.35,0-0.66-0.06-0.94-0.18c-0.27-0.12-0.5-0.28-0.69-0.5c-0.19-0.21-0.33-0.46-0.43-0.75c-0.1-0.29-0.15-0.6-0.15-0.94v-0.09
			c0-0.34,0.05-0.65,0.15-0.94c0.1-0.29,0.24-0.54,0.43-0.75c0.19-0.21,0.41-0.38,0.69-0.5c0.27-0.12,0.58-0.18,0.93-0.18
			c0.35,0,0.66,0.06,0.93,0.18c0.27,0.12,0.5,0.29,0.69,0.5c0.19,0.21,0.33,0.46,0.43,0.75c0.1,0.29,0.15,0.6,0.15,0.94V200.1z
			 M361.54,202.38h-1.2v-2.85c0-0.18-0.02-0.33-0.06-0.45c-0.04-0.12-0.1-0.21-0.18-0.28c-0.08-0.07-0.17-0.12-0.28-0.14
			c-0.11-0.03-0.23-0.04-0.37-0.04c-0.12,0-0.22,0.01-0.32,0.04c-0.1,0.03-0.18,0.06-0.26,0.12c-0.06,0.04-0.12,0.08-0.16,0.13
			c-0.05,0.05-0.09,0.11-0.13,0.17v3.31h-1.2v-4.65h1.08l0.07,0.65c0.06-0.09,0.13-0.17,0.2-0.24c0.07-0.07,0.15-0.14,0.23-0.19
			c0.14-0.1,0.29-0.17,0.45-0.22c0.16-0.05,0.34-0.08,0.52-0.08c0.24,0,0.45,0.03,0.65,0.1c0.2,0.07,0.36,0.18,0.51,0.33
			c0.14,0.15,0.25,0.35,0.33,0.58c0.08,0.24,0.12,0.52,0.12,0.86V202.38z M362.07,158.07h-9.63v-4.82h-14.45v9.63h19.26v4.81h4.82
			v9.63h-4.82v4.82h-24.08v-4.82h-4.81v-4.81h9.63v4.81h14.45v-9.63h-19.26v-4.81h-4.81v-9.63h4.81v-4.81h24.08v4.81h4.82V158.07z"
			/>
		<path d="M354.9,199.02c-0.08-0.13-0.18-0.23-0.31-0.3c-0.13-0.08-0.28-0.11-0.46-0.11c-0.18,0-0.33,0.04-0.46,0.11
			c-0.13,0.07-0.23,0.18-0.31,0.3c-0.08,0.13-0.14,0.28-0.18,0.45c-0.04,0.17-0.06,0.35-0.06,0.54v0.09c0,0.19,0.02,0.38,0.06,0.55
			c0.04,0.17,0.1,0.32,0.18,0.44c0.08,0.13,0.18,0.23,0.31,0.31c0.13,0.07,0.28,0.11,0.46,0.11c0.17,0,0.32-0.04,0.45-0.11
			c0.13-0.07,0.23-0.18,0.31-0.31c0.08-0.13,0.13-0.27,0.17-0.44c0.04-0.17,0.06-0.35,0.06-0.55v-0.09c0-0.19-0.02-0.37-0.06-0.54
			C355.04,199.3,354.98,199.15,354.9,199.02z"/>
		<path d="M337.9,200.3c-0.13,0.04-0.24,0.09-0.32,0.15c-0.08,0.07-0.14,0.15-0.19,0.23c-0.04,0.09-0.06,0.19-0.06,0.29
			c0,0.08,0.01,0.16,0.04,0.23c0.03,0.07,0.07,0.13,0.13,0.18c0.06,0.05,0.13,0.08,0.21,0.11c0.08,0.03,0.18,0.04,0.29,0.04
			c0.12,0,0.23-0.01,0.33-0.04c0.1-0.03,0.2-0.07,0.28-0.11c0.08-0.05,0.16-0.1,0.22-0.16c0.06-0.06,0.11-0.12,0.14-0.18v-0.8h-0.61
			C338.19,200.25,338.03,200.27,337.9,200.3z"/>
		<path d="M394.19,203.49c4.33-5.17,4.14-14.22-1.27-17.99c-6.08-4.24-12.9-7.43-19.41-11.09c-0.12,0.24-0.37,0.51-0.37,0.78
			c-0.05,5.48,0.37,11-0.2,16.41c-0.59,5.63,1.32,9.1,6.05,12.17C385.75,208.16,390.04,208.45,394.19,203.49z"/>
		<path d="M394.77,119.4c-4.63-7.53-13.12-13.47-21.08-17.96c-7.59-4.28-16.78-5.73-25.26-8.43c-1.15-0.36-2.29-0.74-4.41-1.42
			c4.6,17.05-6.55,26.73-15.69,38.28c12.49,0,24.28,0.18,36.07-0.07c6.11-0.13,8.51,2.91,8.62,8.42c0.12,6.33,0.31,12.68-0.03,18.99
			c-0.44,7.99,0.1,14.34,8.57,19.27c9.03,5.27,16.05,6.82,24.71,0.47c2.58-1.89,4.71-4.38,7.31-6.84
			c-0.35,6.61-8.48,12.37-18.54,13.3c5.9,8.56,6.41,16.95-2.79,26.21c8.58-0.48,14.94-0.73,21.29-1.21
			c7.89-0.6,15.85-0.96,23.6-2.37c2.26-0.41,5.5-3.97,5.6-6.21c0.38-8.65-0.57-17.12-6.74-24.27
			C420.78,157.94,407.01,139.33,394.77,119.4z"/>
		<path d="M478.41,199.26c-10.9-0.92-21.8-1.77-32.7-2.65c-0.19,0.57-0.38,1.14-0.57,1.71c0.8,0.52,1.55,1.41,2.4,1.51
			c15.55,1.77,31.1,3.5,46.66,5.06c1.22,0.12,2.58-1.07,3.87-1.65c-1.25-0.8-2.43-2.13-3.77-2.32
			C489.03,200.16,483.72,199.7,478.41,199.26z"/>
		<path d="M498.02,187.16c-17.1,1.65-33.44,3.22-49.77,4.79c0.04,0.76,0.08,1.52,0.13,2.28c12.68,1.15,25.34,2.61,38.04,3.35
			C497.18,198.21,495.31,200.84,498.02,187.16z"/>
		<path d="M479.48,174.76c-12.19,0.4-24.3,3.36-36.84,5.32c0.29,1.43,0.84,3.09,0.93,4.79c0.29,5.39,2.31,6.24,7.9,5.39
			c13.49-2.05,27.19-2.71,40.8-3.97c1.81-0.17,3.85-0.16,5.29-1.04c0.82-0.5,1.11-3.76,0.87-3.86
			C492.17,178.88,485.74,174.56,479.48,174.76z"/>
		<path d="M496.21,169.95c-6.36-1.1-9.01-5.34-10.35-11.05c-0.44-1.9-1.31-3.69-2.05-5.74c-1.97,0.72-3.63,1.45-5.36,1.95
			c-5.9,1.7-6.78,6.33-6.21,11.33c0.57,5.05,4.18,6,8.74,5.61c1.85-0.16,3.9,0.69,5.69,1.46c4.22,1.81,8.34,3.84,12.59,5.83
			C502.54,173.95,501.49,170.87,496.21,169.95z"/>
		<path d="M504.43,171.58c-1.48,6.3-2.96,12.6-4.44,18.9c0.49,0.09,0.97,0.18,1.46,0.27C502.44,184.36,503.44,177.97,504.43,171.58z
			"/>
		<path d="M591.38,116.84c-22.92,1.56-45.84,3.07-68.74,4.91c-1.57,0.13-3.84,2.62-4.25,4.38c-6.16,26.03-12.07,52.13-18.15,78.7
			c1.45,0,2.28,0.11,3.07-0.02c20.39-3.09,40.79-6.13,61.15-9.36c9.18-1.46,12.5-4.86,14.52-13.93c2.32-10.38,4.67-20.76,6.94-31.15
			c2.4-10.97,4.72-21.96,7.03-32.73C591.94,117.12,591.65,116.83,591.38,116.84z"/>
	</g>
</g>
</svg>
