<?xml version="1.0" encoding="utf-8"?>
<!-- Generator: Adobe Illustrator 24.1.3, SVG Export Plug-In . SVG Version: 6.00 Build 0)  -->
<svg version="1.1" id="Layer_1" xmlns="http://www.w3.org/2000/svg" xmlns:xlink="http://www.w3.org/1999/xlink" x="0px" y="0px"
	 viewBox="0 0 612 235.11" style="enable-background:new 0 0 612 235.11;" xml:space="preserve">
<style type="text/css">
	.st0{fill:#FFFFFF;}
</style>
<g>
	<g>
		<g>
			<g>
				<path d="M373.28,202.92c-0.09,2.01-0.16,3.59-0.23,5.18c-0.24,5.61-3.17,8.69-8.79,8.7c-38.16,0.08-76.31,0.11-114.47,0.03
					c-2.02,0-4.01-1.33-6.06-1.82c-3.64-0.87-7.28-3.95-10.94,0.47c-0.9,1.09-3.42,1.44-5.07,1.22
					c-15.93-2.19-31.83-4.63-47.75-6.89c-5.72-0.81-9.82-3.27-10.44-9.47c-0.38-3.79-2.05-4.25-5.64-3.77
					c-14.84,1.98-29.72,4.43-44.64,4.91c-10.49,0.34-21.1-2.09-31.62-3.55c-14.17-1.98-28.28-4.38-42.46-6.27
					c-6.85-0.91-10.31-5.76-11.63-11.15c-5.19-21.15-9.65-42.47-14.27-63.75c-1.66-7.65-0.81-8.52,6.87-7.99
					c21.6,1.49,43.18,3.2,64.79,4.38c6.8,0.37,10.05,2.91,11.36,9.75c2.59,13.51,6,26.87,9.06,40.27c9.15-1.59,16.7-4.56,18.9-14.51
					c2.92-13.2,6.16-26.32,8.78-39.58c1.08-5.44,7.53-12.14,12.92-13.16c5.11-0.97,10.01-3.07,15.45-4.82
					c-10.9-12.24-13.79-26.39-15.83-40.85c-0.07-0.49-0.01-1-0.05-1.5c-0.31-4.98-2.69-11.32-0.5-14.66
					c4.13-6.3,10.49-11.44,16.74-15.92c2.65-1.9,7.36-1.26,11.12-1.23c10.97,0.09,24.99,9.47,28.71,18.92
					c10.52,0.22,16.27,7.29,14.93,18.09c-0.38,3.05-0.82,6.34-0.09,9.23c2.32,9.23-0.63,17.41-4.28,25.52
					c-1.31,2.92-1.13,4.57,2.28,6.05c2.91,1.27,5.21,3.92,8.35,6.41c7.19-8.38,17.27-10.52,28.1-11.93
					c5.31-0.69,10.29-4.43,15.23-7.13c1.08-0.59,1.92-2.63,1.93-4c0.02-3.31-0.08-6.74-0.9-9.92
					c-5.53-21.25,10.59-47.82,28.94-56.34c3.34-1.55,9.14-2.22,11.63-0.37c10.46,7.79,23.43,13.49,27.44,27.68
					c1.24,4.4,2.76,8.89,2.92,13.38c0.37,10.96-0.08,21.95,0.07,32.92c0.02,1.4,1.38,3.56,2.63,4.04c8.32,3.2,16.8,5.96,25.17,9.01
					c4.84,1.76,9.57,3.79,14.25,5.66c4.66-2.22,10.62-4.13,15.46-7.6c5.41-3.87,10.28-8.77,14.47-13.97
					c2.01-2.49,2.79-6.31-2.64-8.47c-2.85-1.14-6.2-5.75-6.11-8.69c0.31-10.11,0.45-20.75,3.79-30.06
					c2.31-6.45,5.1-15.47,15.02-16.5c1.18-0.12,2.21-1.81,2.46-2.04c2.63,0.78,4.51,1.51,6.46,1.88c9.24,1.78,18.63,2.97,27.7,5.36
					c6.74,1.78,7.74,8.12,8.41,14.2c0.34,3.09,1.16,6.13,1.81,9.44c-0.92,1.37-2.35,3.48-4.04,5.98c-1.07-1.16-2.44-2.66-3.58-3.9
					c-6.75,14.75-3.45,33.49-19.16,46.02c5.2,1.67,9.84,3.74,14.69,4.6c10.52,1.87,16.71,7.28,18.82,18.13
					c1.96,10.06,5.32,19.85,7.79,29.83c0.49,1.99-0.65,4.33-0.39,6.44c1.04,8.48,5.94,13.27,15.13,14.17
					c2.87-12.42,5.86-25.15,8.75-37.9c2.65-11.69,2.62-11.47,14.71-12.26c21.1-1.37,42.19-2.94,63.27-4.69
					c5.24-0.43,6.88,1.7,5.88,6.3c-4.88,22.42-9.52,44.9-15.18,67.12c-1.04,4.08-4.15,8.83-10.58,9.7
					c-22.74,3.07-45.31,7.71-68.11,10c-11.04,1.11-22.48-1.63-33.73-2.73c-6.46-0.63-12.89-1.5-19.35-2.15
					c-1.01-0.1-2.53,0.08-3.05,0.73c-7.5,9.49-18.32,7.43-28.29,8.24c-2.28,0.19-4.68-0.72-6.92-0.41
					C396.75,212.7,384.52,211.22,373.28,202.92z M106.32,153.77c1.59,8.35,3.19,16.7,4.78,25.06c0.5-0.11,0.99-0.22,1.49-0.34
					c-2.12-8.22-4.24-16.43-6.36-24.65c-2.34-11.36-4.68-22.72-7.03-34.08c-0.55,0.13-1.1,0.25-1.64,0.38
					C100.49,131.35,103.41,142.56,106.32,153.77z M504.75,169.5c0.3-0.04,0.85-0.02,0.87-0.13c3.6-15.03,7.16-30.06,10.73-45.1
					c-0.43-0.1-0.85-0.2-1.28-0.29c-3.41,15.21-6.81,30.41-10.19,45.64c-1.63,6.95-3.26,13.9-4.89,20.84
					c0.49,0.09,0.97,0.18,1.46,0.27C502.55,183.67,503.65,176.58,504.75,169.5z M307.05,132.12c0,0.08,0,0.15,0,0.23
					c-18.83,0-37.66,0.14-56.49-0.09c-5.26-0.07-7.27,2.04-7.27,7.01c0.04,22.67,0.04,45.33,0,68c-0.01,4.72,2.22,7.3,6.88,7.3
					c37.99-0.04,75.99-0.15,113.98-0.26c4.28-0.01,6.32-2.14,6.31-6.53c-0.06-23-0.07-46,0.01-69c0.02-4.9-2.01-6.77-6.94-6.72
					C344.72,132.22,325.89,132.12,307.05,132.12z M275.01,85.51c-8.84,2.59-16.79,4.58-24.49,7.27c-5.81,2.03-11.7,4.34-16.89,7.58
					c-19.9,12.44-26.74,35.41-41.25,52.26c-4.52,5.25-7.09,12.37-12.08,16.98c-7.48,6.9-8.67,15.41-9.07,24.38
					c-0.44,9.99,2.36,12.51,12.09,13.77c14.81,1.91,29.57,4.26,44.37,6.35c1.22,0.17,2.54-0.29,4.48-0.54
					c-8.52-8.52-6.05-17.06-2.51-24.81c-11.14-6.15-21.85-12.07-32.55-17.98c1.69-1.36,2.9-1.52,3.76-1.04
					c6.72,3.77,13.22,7.96,20.1,11.41c3.79,1.9,10.03,4.89,11.91,3.36c3.89-3.15,7.32-8.8,7.86-13.76
					c1.15-10.7,0.36-21.61,0.36-32.43c0-5.68,2.5-8.53,8.53-8.41c11.09,0.22,22.19,0.06,35.85,0.06
					C273.21,115.93,270.7,101.06,275.01,85.51z M500.24,204.84c1.45,0,2.28,0.11,3.07-0.02c20.39-3.09,40.79-6.13,61.15-9.36
					c9.18-1.46,12.5-4.86,14.52-13.93c2.32-10.38,4.67-20.76,6.94-31.15c2.4-10.97,4.72-21.96,7.03-32.73
					c-1.01-0.53-1.3-0.83-1.57-0.81c-22.92,1.56-45.84,3.07-68.74,4.91c-1.57,0.13-3.84,2.62-4.25,4.38
					C512.22,152.17,506.32,178.26,500.24,204.84z M113.64,199.47c-6.33-27.54-12.36-54.06-18.68-80.51
					c-0.33-1.36-3.05-2.91-4.78-3.06c-16.9-1.47-33.83-2.68-50.75-3.92c-6.03-0.44-12.06-0.74-18.56-1.14
					c0.38,2.51,0.54,4.15,0.9,5.75c4.44,20.11,8.94,40.21,13.35,60.33c1.55,7.09,5.3,11.73,12.88,12.65
					c4.29,0.52,8.55,1.26,12.82,1.91C78.04,194.09,95.26,196.69,113.64,199.47z M328.33,129.87c12.49,0,24.29,0.18,36.07-0.07
					c6.11-0.13,8.51,2.91,8.62,8.42c0.12,6.33,0.31,12.68-0.03,18.99c-0.44,7.99,0.11,14.34,8.57,19.27
					c9.03,5.27,16.05,6.82,24.71,0.47c2.58-1.89,4.71-4.38,7.31-6.84c-0.35,6.61-8.48,12.37-18.54,13.3
					c5.9,8.56,6.41,16.95-2.79,26.21c8.58-0.48,14.94-0.73,21.29-1.21c7.89-0.6,15.85-0.96,23.6-2.37c2.26-0.41,5.5-3.97,5.6-6.21
					c0.38-8.65-0.57-17.12-6.74-24.27c-15.2-17.63-28.98-36.24-41.21-56.16c-4.63-7.53-13.12-13.47-21.08-17.96
					c-7.59-4.28-16.78-5.73-25.26-8.43c-1.15-0.36-2.29-0.74-4.41-1.42C348.62,108.64,337.47,118.33,328.33,129.87z M446.95,98.58
					c-6.08,11.47-13.21,12.64-22.29,3.45c-3.94-3.98-7.24-8.59-10.32-12.29c-4.63,3.39-9.06,6.99-13.85,10.01
					c-3.97,2.51-8.37,4.33-11.96,6.14c5.34,8.05,9.62,15.12,14.49,21.74c11.49,15.61,23.19,31.07,34.96,46.47
					c2.45,3.21,25.1,2.54,27.76-0.53c0.3-0.35,0.43-0.88,0.55-1.36c1.65-6.39,3.35-12.77,4.89-19.18c0.58-2.39,0.79-4.86,1.18-7.29
					c0.47,0.07,0.95,0.13,1.42,0.2c0,2.62,0,5.24,0,8.42c4.24-1.68,7.85-3.12,11.27-4.48c-2.76-11.1-5-21.83-8.23-32.25
					c-1.27-4.09-3.93-9.02-7.39-10.89C462.61,103.08,454.77,101.29,446.95,98.58z M200.81,87.08c-2.3,1.79-5.68,3.59-7.94,6.31
					c-8.47,10.22-18.87,10.32-25.59,0.51c-5.25,1.63-10.71,2.44-15.2,4.98c-4.07,2.3-8.97,5.91-10.18,9.94
					c-3.34,11.12-4.94,22.77-7.32,34.66c2.83,1.6,6.91,3.9,11.25,6.35c0.87-5.73,1.71-11.27,2.55-16.81
					c0.65,0.08,1.31,0.16,1.96,0.24c-0.5,4.22-1.71,8.49-1.35,12.64c0.68,7.81,1.63,15.75,4,23.14c0.5,1.55,7.62,0.96,11.68,1.39
					c2.15,0.23,4.33,0.88,6.44,0.68c2.19-0.21,5.16-0.56,6.3-2.01c7.56-9.6,15.02-19.31,21.94-29.37
					c8.6-12.49,16.65-25.36,25.62-39.11C218.13,96.78,210.01,92.23,200.81,87.08z M305.72,38.71c-2.22,0.81-7.29,1.44-10.7,4.15
					c-7.22,5.74-14.42,12.45-11.82,23.12c2.54,10.4,5.12,20.96,9.35,30.74c7.01,16.23,21.01,17.7,30.14,2.67
					c5.52-9.08,8.37-20.09,10.95-30.59C336.85,55.73,321.8,38.73,305.72,38.71z M201.36,62.85c8.04-8.64,7.51-19.29,2.43-29.46
					c-5.1-10.2-16.05-12.33-26.04-13.89c-4.33-0.67-9.6,2.19-13.87,4.51c-3.36,1.83-5.89,5.24-8.71,8.03
					c-4.8,4.76-4.46,11.35,0.92,14.21c4.48,0.49,8.95,0.97,13.43,1.46c1.18-0.59,3.08-1.28,3.78-0.65
					c5.77,5.26,11.31,10.77,16.71,16c0.58-1.86,1.68-5.37,3.07-9.79C196.14,56.82,198.65,59.72,201.36,62.85z M429.96,86.83
					c0.56-0.51,1.12-1.03,1.68-1.54c7.44,9.06,16.43,9.87,20.2,0.82c4.72-11.3,7.43-23.45,11.14-35.64
					c-5.94,0.71-10.69,0.42-14.66,2.04c-2.99,1.23-10.11-5.49-8.63,4.28c-9.37-2.83-10.32-2.1-11.79,7.79
					c-0.31,2.08-0.83,4.8-2.27,5.91c-4.45,3.43-6.78,7.59-7.01,13.17c-0.08,1.87-1.83,4.47-1.1,5.44
					c3.67,4.88,7.51,9.82,12.14,13.73c2.16,1.83,6.48,2.36,9.37,1.65c2.04-0.51,5.06-4.78,4.52-6.17c-0.9-2.35-4.31-3.71-6.6-5.56
					C434.6,90.82,432.3,88.8,429.96,86.83z M340.91,67.48c0.75-0.12,1.5-0.25,2.25-0.37c-1.31-8.83-2.08-17.78-4.05-26.46
					c-2.85-12.55-14.5-17.53-23.12-25.07c-4.51-3.95-8.9-4-14.14-1.18c-10.33,5.55-17.02,14.5-22.27,24.32
					c-4.81,8.98-6.4,18.97-3.65,29.42c6.17-15.16,12.08-31.59,31.04-31.51C325.75,36.7,334.05,52.16,340.91,67.48z M197.63,60.99
					c-0.89-0.31-1.78-0.63-2.67-0.94c-1.24,2.96-3.02,5.82-3.58,8.9c-0.62,3.45-0.14,7.11-0.14,10.67
					c-10.31-25.03-10.31-25.03-16.79-28.57c1.84,2.51,3.27,4.47,5.5,7.53c-6.34-3.03-11.5-4.92-16.01-7.83
					c-2.99-1.93-4.73-3.98-6.31,1c-0.25,0.8-2.14,1.09-4.22,2.05c2.97,8.69,5.56,17.95,9.31,26.71c3.66,8.55,10.69,9.32,17.42,2.75
					c0.74-0.72,1.57-1.33,2.36-1.99c0.46,0.72,0.91,1.43,1.37,2.15c-4.33,2.62-8.66,5.25-14.22,8.61c1.16,1.6,2.92,5.88,4.45,5.8
					c5.01-0.27,10.59-1.07,14.69-3.67c3.62-2.29,5.53-7.26,8.82-11.93C197.63,77.06,197.63,69.02,197.63,60.99z M457.82,45.6
					c0.09-0.37,0.19-0.74,0.28-1.11c3.09,0.94,6.19,1.88,9.18,2.79c-0.39-1.51-0.77-3.31-1.33-5.05c-0.63-1.96-2.43-4.16-1.97-5.74
					c1.88-6.42-3.22-10.15-6.64-11.38c-18.07-6.5-33.83,4.27-35.36,23.59c-0.15,1.94,2.4,4.08,3.69,6.13
					c1.43-1.11,3.03-2.06,4.25-3.37c1.14-1.22,1.88-2.81,3.46-5.29c0.59,2.78,0.89,4.19,1.19,5.59c1.04,0.89,2.09,1.78,3.13,2.68
					c2.31-2.25,4.63-4.49,6.94-6.74c-0.84-0.31-1.68-0.62-2.52-0.92C447.37,46.38,452.59,45.99,457.82,45.6z M339.39,66.14
					c-0.46,0.22-0.91,0.44-1.37,0.66c-3.8,10.65-7.71,21.27-11.3,31.99c-0.61,1.82-0.69,4.88,0.39,6.04
					c4.39,4.66,1.72,8.25-1.27,11.68c-3.76,4.33-7.87,8.36-12.08,12.79c10.86,1.59,27.42-11.23,28.01-23.32
					C342.42,92.77,340.3,79.42,339.39,66.14z M301.76,129.11c-1.14-1.23-2.25-2.39-3.33-3.58c-3.58-3.94-7.53-7.63-10.52-11.98
					c-1.19-1.74-0.69-5.08-0.1-7.48c0.49-1.99,3.62-4.12,3.21-5.43c-3.69-11.52-7.91-22.88-11.94-34.19
					c-0.93,9.28-1.34,19.07-3.02,28.65c-1.54,8.78,1.12,15.84,4.6,23.74C285.06,128.85,291.09,132.24,301.76,129.11z M115.25,180.96
					c9.14,0,16.99,0.91,24.51-0.27c6.84-1.08,12.28,0.69,17.84,3.82c2.16,1.22,4.41,2.9,6.71,3.06c1.8,0.12,4.75-1.35,5.4-2.87
					c1.38-3.22,1.58-6.95,2.36-10.9c-8.79-0.79-17.82-0.84-26.51-2.6c-9.46-1.91-17.95-3.62-26.67,3.13
					C115.12,177.25,114.14,178.87,115.25,180.96z M442.63,180.09c0.29,1.43,0.84,3.09,0.93,4.79c0.29,5.39,2.31,6.24,7.9,5.39
					c13.49-2.05,27.19-2.71,40.8-3.97c1.81-0.17,3.85-0.16,5.29-1.04c0.82-0.5,1.11-3.76,0.87-3.86
					c-6.26-2.51-12.69-6.83-18.95-6.63C467.29,175.16,455.18,178.12,442.63,180.09z M373.51,174.41c-0.12,0.24-0.37,0.51-0.37,0.78
					c-0.05,5.48,0.37,11-0.2,16.41c-0.59,5.63,1.32,9.1,6.05,12.17c6.77,4.39,11.05,4.69,15.21-0.28
					c4.33-5.17,4.13-14.22-1.27-17.99C386.84,181.26,380.02,178.07,373.51,174.41z M293.64,103.59
					c-3.89,9.55-0.99,15.94,11.58,24.83c1.3,0.92,4.61,0.69,5.94-0.35c13.65-10.63,15.98-15.5,12.29-24.23
					C311.45,114.92,304.67,114.93,293.64,103.59z M214.84,88.4c6.65-10.74,7.29-18.48,3.59-28.57c-0.79-2.16-5.02-6.05,1.63-6.89
					c0.24-0.03,0.65-1.69,0.37-2.32c-1.74-3.86-3.44-7.78-5.65-11.37c-0.52-0.85-3.08-0.97-4.43-0.55
					c-0.71,0.22-1.07,2.33-1.16,3.61c-0.4,5.76-0.79,11.53-0.9,17.3c-0.05,2.58,0.22,7.3,0.97,7.43c6.84,1.19,3.96,6.5,4.64,10.09
					C214.53,80.44,214.5,83.88,214.84,88.4z M114.32,173.94c1.44-0.59,2.8-0.88,3.84-1.63c6.54-4.71,13.24-8.4,21.62-4.62
					c0.51,0.23,1.64-0.25,2.11-0.75c6.01-6.35,4.24-14.94-3.71-19.05c-2.97-1.53-4.83-1.46-5.9,2.16
					c-2.1,7.07-5.91,12.56-13.88,13.76C111.96,164.79,111.15,168.27,114.32,173.94z M499.26,179.34c3.29-5.38,2.23-8.47-3.05-9.38
					c-6.36-1.1-9.01-5.34-10.35-11.05c-0.44-1.9-1.31-3.69-2.05-5.74c-1.97,0.72-3.63,1.45-5.36,1.95c-5.9,1.7-6.78,6.33-6.21,11.33
					c0.57,5.05,4.18,6,8.74,5.61c1.85-0.16,3.9,0.69,5.69,1.46C490.88,175.32,495,177.35,499.26,179.34z M498.02,187.16
					c-17.1,1.65-33.43,3.22-49.77,4.79c0.04,0.76,0.08,1.52,0.13,2.28c12.68,1.15,25.34,2.61,38.04,3.35
					C497.18,198.21,495.31,200.84,498.02,187.16z M160.49,188.97c-7.58-4.23-13.51-8.02-21.27-5.55c-2.19,0.7-4.93-0.51-7.35-0.27
					c-4.45,0.43-8.91,1.07-13.23,2.16c-0.75,0.19-1.38,3.09-1.08,4.53c0.22,1.02,2.15,2.48,3.22,2.41
					C133.51,191.34,146.22,190.18,160.49,188.97z M240.8,181.4c-10.53,8.78-15.04,17.95-10.99,25.11c1.66,2.93,6.78,3.9,10.99,6.12
					C240.8,201.09,240.8,191.37,240.8,181.4z M205.05,62.74c-5.09,5.1-9,10.83-5.47,17.08c2.72,4.8,8.09,8.09,12.29,12.05
					c0.66-0.55,1.32-1.1,1.98-1.65C210.96,81.2,208.07,72.18,205.05,62.74z M445.71,196.61c-0.19,0.57-0.38,1.14-0.57,1.71
					c0.8,0.52,1.55,1.41,2.4,1.51c15.55,1.77,31.1,3.5,46.66,5.06c1.22,0.12,2.58-1.07,3.87-1.65c-1.25-0.8-2.43-2.13-3.77-2.32
					c-5.27-0.75-10.58-1.2-15.89-1.65C467.51,198.33,456.61,197.49,445.71,196.61z M115.88,195.22c-0.3,0.72-0.59,1.44-0.89,2.16
					c1.57,0.58,3.2,1.79,4.69,1.64c15.19-1.56,30.36-3.31,45.52-5.11c1.31-0.16,2.54-0.99,3.81-1.51c-0.14-0.56-0.28-1.11-0.41-1.67
					C151.02,192.22,133.45,193.72,115.88,195.22z M424.53,63.12c0.5-5.64-3.21-8.55-7.62-7.9c-2.56,0.38-6.34,4.89-6.28,7.47
					c0.07,2.9,3.35,7.4,6.1,8.2C422.24,72.49,424.22,68.02,424.53,63.12z M439.24,21.15c-14.59,0.03-26.89,15.71-23.72,27.97
					c0.18,0.68,1.26,1.12,1.92,1.68c0.61-0.78,1.63-1.49,1.76-2.34C421.01,36.57,426.48,27.23,439.24,21.15z M415.42,34.2
					c-0.53-0.21-1.05-0.42-1.58-0.63c-1.52,6.29-3.05,12.58-4.57,18.87c0.87,0.23,1.74,0.45,2.61,0.68
					C413.06,46.81,414.24,40.5,415.42,34.2z M147.46,159.99c-1.56,3.87-2.45,6.06-3.49,8.64c2.21,0.3,3.9,0.52,6.25,0.84
					C149.33,166.4,148.63,163.99,147.46,159.99z"/>
			</g>
		</g>
		<g>
			<g>
				<path d="M287.58,153.18v24.91h-3.99h-0.25v0.25v3.99h-3.74v-3.99v-0.25h-0.25h-3.99v-3.98v-0.25h-0.25h-4.24h-0.25v0.25v3.98
					h-3.98h-0.25v0.25v3.99h-3.74v-3.99v-0.25h-0.25h-3.99v-24.91h7.97v16.69v0.25h0.25h4.23h0.25v-0.25v-16.69h3.74v16.69v0.25
					h0.25h4.24h0.25v-0.25v-16.69H287.58 M287.83,152.93h-8.47v16.94h-4.24v-16.94h-4.24v16.94h-4.23v-16.94h-8.47v25.41h4.24v4.24
					h4.24v-4.24h4.23v-4.23h4.24v4.23h4.24v4.24h4.24v-4.24h4.24V152.93L287.83,152.93z"/>
			</g>
			<g>
				<path d="M317.23,153.18v3.98v0.25h0.25h3.99v12.21h-3.99h-0.25v0.25v3.99h-16.69h-0.25v0.25v8.22h-7.97v-29.15H317.23
					 M300.29,170.12h0.25h12.71h0.25v-0.25v-12.71v-0.25h-0.25h-12.71h-0.25v0.25v12.71V170.12 M317.48,152.93h-25.41v29.65h8.47
					v-8.47h16.94v-4.24h4.24v-12.71h-4.24V152.93L317.48,152.93z M300.54,169.87v-12.71h12.71v12.71H300.54L300.54,169.87z"/>
			</g>
			<g>
				<path d="M351.11,153.18v3.98v0.25h0.25h3.99v3.74h-7.97v-3.99v-0.25h-0.25h-12.71h-0.25v0.25v8.47v0.25h0.25h16.69v3.98v0.25
					h0.25h3.99v7.97h-3.99h-0.25v0.25v3.99h-20.68v-3.99v-0.25h-0.25h-3.98v-3.73h7.97v3.98v0.25h0.25h12.71h0.25v-0.25v-8.47v-0.25
					h-0.25h-16.69v-3.98v-0.25h-0.25h-3.98v-7.97h3.98h0.25v-0.25v-3.98H351.11 M351.36,152.93h-21.18v4.23h-4.23v8.47h4.23v4.23
					h16.94v8.47h-12.71v-4.23h-8.47v4.23h4.23v4.24h21.18v-4.24h4.24v-8.47h-4.24v-4.23h-16.94v-8.47h12.71v4.24h8.47v-4.24h-4.24
					V152.93L351.36,152.93z"/>
			</g>
		</g>
		<g>
			<path d="M258.84,191.05c0.08-0.25,0.2-0.46,0.35-0.65c0.15-0.19,0.34-0.34,0.56-0.45c0.22-0.12,0.47-0.17,0.76-0.17
				c0.28,0,0.54,0.06,0.76,0.17c0.22,0.11,0.41,0.26,0.56,0.45c0.15,0.19,0.27,0.41,0.35,0.65c0.08,0.25,0.12,0.5,0.12,0.77v0.16
				c0,0.26-0.04,0.52-0.12,0.76c-0.08,0.25-0.19,0.46-0.35,0.65c-0.15,0.19-0.34,0.34-0.56,0.45c-0.22,0.12-0.47,0.17-0.76,0.17
				c-0.28,0-0.54-0.06-0.76-0.17c-0.22-0.11-0.41-0.26-0.56-0.45c-0.15-0.19-0.27-0.41-0.35-0.65c-0.08-0.25-0.12-0.5-0.12-0.77
				v-0.16C258.72,191.55,258.76,191.3,258.84,191.05z M259.03,192.65c0.07,0.22,0.18,0.42,0.31,0.59c0.13,0.17,0.3,0.31,0.5,0.41
				c0.2,0.11,0.42,0.16,0.67,0.16c0.25,0,0.47-0.05,0.67-0.16c0.19-0.1,0.36-0.24,0.5-0.42c0.13-0.17,0.24-0.37,0.31-0.59
				c0.07-0.22,0.11-0.44,0.11-0.68v-0.16c0-0.23-0.04-0.45-0.11-0.67c-0.07-0.22-0.17-0.42-0.31-0.59c-0.14-0.17-0.3-0.31-0.5-0.42
				c-0.2-0.11-0.42-0.16-0.67-0.16c-0.25,0-0.47,0.05-0.67,0.16c-0.2,0.11-0.36,0.24-0.49,0.42c-0.14,0.17-0.24,0.37-0.31,0.59
				c-0.07,0.22-0.11,0.44-0.11,0.67v0.16C258.92,192.2,258.96,192.43,259.03,192.65z"/>
			<path d="M263.66,189.85h0.2v0.68c0.07-0.12,0.15-0.22,0.25-0.31c0.1-0.09,0.2-0.17,0.32-0.24c0.11-0.07,0.23-0.12,0.36-0.15
				c0.13-0.04,0.26-0.05,0.39-0.05c0.27,0,0.5,0.05,0.69,0.15c0.19,0.1,0.35,0.24,0.49,0.41c0.15,0.2,0.26,0.44,0.33,0.71
				c0.07,0.27,0.1,0.54,0.11,0.81v0.08c0,0.24-0.03,0.49-0.09,0.74c-0.06,0.25-0.16,0.48-0.28,0.67c-0.12,0.19-0.29,0.35-0.49,0.48
				c-0.2,0.13-0.45,0.19-0.74,0.19c-0.12,0-0.25-0.02-0.37-0.05c-0.13-0.03-0.25-0.07-0.36-0.13c-0.12-0.06-0.22-0.12-0.33-0.21
				c-0.1-0.08-0.19-0.18-0.26-0.29v2.17h-0.2V189.85z M266.5,191.13c-0.06-0.24-0.16-0.46-0.29-0.65c-0.11-0.15-0.25-0.27-0.42-0.36
				c-0.17-0.09-0.37-0.14-0.61-0.14c-0.15,0-0.29,0.02-0.43,0.07c-0.14,0.05-0.26,0.11-0.38,0.2c-0.12,0.08-0.22,0.19-0.3,0.31
				c-0.09,0.12-0.15,0.25-0.2,0.4v2.02c0.05,0.14,0.12,0.26,0.22,0.36c0.09,0.11,0.2,0.19,0.32,0.26c0.12,0.07,0.25,0.12,0.38,0.16
				c0.14,0.04,0.27,0.05,0.4,0.05c0.26,0,0.47-0.05,0.64-0.16c0.17-0.11,0.31-0.25,0.42-0.41c0.12-0.18,0.2-0.39,0.25-0.62
				c0.05-0.23,0.08-0.46,0.08-0.68v-0.08C266.59,191.62,266.56,191.38,266.5,191.13z"/>
			<path d="M269.2,193.84c-0.23-0.11-0.42-0.26-0.58-0.45c-0.16-0.19-0.29-0.4-0.38-0.65c-0.09-0.24-0.14-0.5-0.14-0.76v-0.17
				c0-0.25,0.05-0.5,0.13-0.75c0.08-0.24,0.2-0.46,0.36-0.65c0.15-0.19,0.34-0.35,0.56-0.46c0.22-0.12,0.47-0.18,0.74-0.18
				c0.25,0,0.47,0.05,0.67,0.14c0.2,0.09,0.37,0.22,0.51,0.38c0.14,0.16,0.25,0.35,0.32,0.56c0.08,0.21,0.11,0.44,0.12,0.67v0.24
				h-3.2v0.22c0,0.23,0.04,0.46,0.12,0.68c0.08,0.22,0.19,0.41,0.34,0.58c0.14,0.17,0.32,0.31,0.52,0.41
				c0.2,0.1,0.43,0.15,0.68,0.16c0.25,0,0.49-0.04,0.7-0.13c0.21-0.09,0.4-0.24,0.56-0.43l0.15,0.1c-0.17,0.23-0.38,0.39-0.63,0.5
				c-0.24,0.11-0.51,0.16-0.79,0.16C269.68,194.01,269.43,193.96,269.2,193.84z M269.27,190.1c-0.18,0.09-0.34,0.2-0.47,0.35
				c-0.13,0.15-0.24,0.31-0.32,0.5c-0.08,0.19-0.14,0.39-0.16,0.59h2.98v-0.05c0-0.2-0.03-0.4-0.1-0.58
				c-0.07-0.18-0.17-0.35-0.29-0.49c-0.12-0.14-0.27-0.25-0.45-0.34c-0.17-0.08-0.37-0.12-0.57-0.12
				C269.66,189.97,269.45,190.02,269.27,190.1z"/>
			<path d="M272.92,189.85h0.21v0.98c0.07-0.15,0.15-0.29,0.25-0.42c0.1-0.13,0.21-0.24,0.35-0.33c0.13-0.09,0.27-0.17,0.43-0.22
				c0.16-0.05,0.32-0.08,0.5-0.08c0.23,0,0.44,0.04,0.61,0.11c0.17,0.07,0.31,0.18,0.42,0.31c0.11,0.14,0.19,0.3,0.25,0.48
				c0.05,0.19,0.08,0.39,0.08,0.61l0,2.65h-0.21v-2.65c0-0.19-0.03-0.37-0.07-0.53c-0.04-0.16-0.11-0.3-0.21-0.42
				c-0.09-0.12-0.21-0.21-0.36-0.27c-0.15-0.07-0.32-0.1-0.53-0.09c-0.18,0-0.36,0.04-0.53,0.11c-0.17,0.07-0.32,0.16-0.45,0.28
				c-0.13,0.12-0.25,0.26-0.34,0.42c-0.09,0.16-0.16,0.33-0.2,0.5v2.65h-0.21V189.85z"/>
			<path d="M285.09,192.54c-0.08-0.11-0.18-0.2-0.3-0.28c-0.14-0.09-0.3-0.16-0.48-0.21c-0.18-0.06-0.34-0.1-0.48-0.13
				c-0.18-0.04-0.35-0.08-0.51-0.12c-0.16-0.04-0.32-0.11-0.48-0.19c-0.14-0.07-0.26-0.18-0.36-0.31c-0.1-0.13-0.15-0.3-0.15-0.5
				c0-0.19,0.05-0.35,0.14-0.48c0.1-0.13,0.22-0.24,0.37-0.33c0.14-0.07,0.29-0.13,0.47-0.17c0.18-0.04,0.34-0.06,0.5-0.06
				c0.19,0,0.38,0.02,0.56,0.06c0.18,0.04,0.35,0.11,0.5,0.2c0.15,0.09,0.27,0.21,0.36,0.36c0.1,0.15,0.15,0.33,0.17,0.54h-0.21
				c0-0.17-0.05-0.32-0.14-0.44c-0.09-0.12-0.2-0.22-0.33-0.3c-0.14-0.07-0.28-0.13-0.44-0.17c-0.16-0.03-0.31-0.05-0.46-0.05
				c-0.13,0-0.26,0.01-0.41,0.04c-0.15,0.03-0.29,0.07-0.41,0.13c-0.13,0.06-0.24,0.15-0.32,0.25c-0.09,0.1-0.13,0.24-0.13,0.4
				c0,0.16,0.04,0.29,0.12,0.4c0.08,0.11,0.19,0.2,0.32,0.27c0.14,0.08,0.29,0.14,0.46,0.18c0.17,0.04,0.32,0.08,0.46,0.11
				c0.16,0.03,0.33,0.08,0.51,0.13c0.18,0.05,0.34,0.12,0.49,0.21c0.15,0.09,0.27,0.2,0.37,0.34s0.14,0.31,0.14,0.51
				c0,0.17-0.04,0.32-0.12,0.45c-0.08,0.13-0.17,0.23-0.29,0.31c-0.17,0.12-0.35,0.2-0.56,0.25c-0.21,0.05-0.41,0.07-0.59,0.07
				c-0.19,0-0.38-0.02-0.57-0.07c-0.2-0.04-0.37-0.11-0.53-0.19c-0.16-0.09-0.29-0.2-0.39-0.34c-0.1-0.14-0.16-0.31-0.17-0.51h0.21
				c0.02,0.18,0.08,0.33,0.18,0.44c0.1,0.12,0.21,0.21,0.35,0.28c0.14,0.07,0.29,0.12,0.45,0.15c0.16,0.03,0.32,0.04,0.48,0.04
				c0.17,0,0.35-0.02,0.53-0.07c0.18-0.04,0.34-0.12,0.5-0.21c0.1-0.07,0.18-0.16,0.24-0.26c0.06-0.1,0.09-0.21,0.09-0.34
				C285.21,192.78,285.16,192.65,285.09,192.54z"/>
			<path d="M286.72,191.05c0.08-0.25,0.2-0.46,0.35-0.65c0.15-0.19,0.34-0.34,0.56-0.45c0.22-0.12,0.47-0.17,0.76-0.17
				c0.28,0,0.54,0.06,0.76,0.17c0.22,0.11,0.41,0.26,0.56,0.45c0.15,0.19,0.27,0.41,0.35,0.65c0.08,0.25,0.12,0.5,0.12,0.77v0.16
				c0,0.26-0.04,0.52-0.12,0.76c-0.08,0.25-0.19,0.46-0.35,0.65c-0.15,0.19-0.34,0.34-0.56,0.45c-0.22,0.12-0.47,0.17-0.76,0.17
				c-0.28,0-0.54-0.06-0.76-0.17c-0.22-0.11-0.41-0.26-0.56-0.45c-0.15-0.19-0.27-0.41-0.35-0.65c-0.08-0.25-0.12-0.5-0.12-0.77
				v-0.16C286.59,191.55,286.64,191.3,286.72,191.05z M286.91,192.65c0.07,0.22,0.18,0.42,0.31,0.59c0.13,0.17,0.3,0.31,0.5,0.41
				c0.2,0.11,0.42,0.16,0.67,0.16c0.25,0,0.47-0.05,0.67-0.16c0.19-0.1,0.36-0.24,0.5-0.42c0.13-0.17,0.24-0.37,0.31-0.59
				c0.07-0.22,0.11-0.44,0.11-0.68v-0.16c0-0.23-0.04-0.45-0.11-0.67c-0.07-0.22-0.17-0.42-0.31-0.59c-0.14-0.17-0.3-0.31-0.5-0.42
				c-0.2-0.11-0.42-0.16-0.67-0.16s-0.47,0.05-0.67,0.16c-0.2,0.11-0.36,0.24-0.49,0.42c-0.14,0.17-0.24,0.37-0.31,0.59
				c-0.07,0.22-0.11,0.44-0.11,0.67v0.16C286.8,192.2,286.84,192.43,286.91,192.65z"/>
			<path d="M294.35,193.21c-0.13,0.25-0.32,0.45-0.56,0.59c-0.24,0.14-0.54,0.21-0.89,0.21c-0.24,0-0.44-0.04-0.61-0.12
				c-0.17-0.08-0.31-0.19-0.43-0.33c-0.11-0.14-0.2-0.3-0.25-0.49c-0.06-0.19-0.08-0.4-0.09-0.62v-2.6h0.2v2.6
				c0,0.19,0.03,0.37,0.07,0.53c0.05,0.16,0.12,0.31,0.21,0.43c0.09,0.12,0.21,0.22,0.36,0.29s0.32,0.11,0.53,0.11
				c0.2,0,0.38-0.02,0.54-0.08c0.16-0.05,0.31-0.13,0.43-0.22c0.12-0.1,0.23-0.21,0.31-0.35c0.08-0.14,0.14-0.3,0.18-0.47l0-2.83
				h0.21v4.09h-0.21L294.35,193.21z"/>
			<path d="M299.16,189.79c0.09,0.01,0.18,0.03,0.26,0.04l-0.02,0.19c-0.07-0.01-0.15-0.02-0.24-0.03
				c-0.09-0.01-0.18-0.02-0.27-0.02c-0.21,0-0.41,0.02-0.61,0.07c-0.2,0.05-0.38,0.12-0.54,0.23c-0.16,0.11-0.31,0.25-0.43,0.42
				c-0.12,0.17-0.21,0.38-0.26,0.63l0.01,2.61h-0.23v-4.09h0.2l0.02,0.71v0.26c0.15-0.34,0.38-0.59,0.7-0.78
				c0.31-0.18,0.69-0.27,1.14-0.27C298.98,189.77,299.07,189.78,299.16,189.79z"/>
			<path d="M302.87,193.73c0.16-0.05,0.29-0.12,0.41-0.21c0.12-0.09,0.22-0.21,0.29-0.35c0.08-0.14,0.12-0.3,0.14-0.48h0.2
				c-0.02,0.2-0.07,0.39-0.16,0.55c-0.09,0.16-0.2,0.3-0.34,0.41c-0.14,0.11-0.3,0.2-0.48,0.26c-0.18,0.06-0.37,0.09-0.57,0.09
				c-0.29,0-0.54-0.06-0.75-0.17c-0.21-0.12-0.39-0.27-0.53-0.46c-0.14-0.19-0.25-0.4-0.32-0.65c-0.07-0.24-0.11-0.5-0.11-0.76
				v-0.16c0-0.26,0.04-0.51,0.11-0.75c0.07-0.25,0.17-0.46,0.32-0.66c0.14-0.19,0.31-0.34,0.53-0.46c0.21-0.12,0.46-0.17,0.75-0.17
				c0.21,0,0.41,0.03,0.6,0.1c0.18,0.07,0.34,0.16,0.48,0.29c0.14,0.13,0.25,0.28,0.33,0.45c0.08,0.17,0.13,0.37,0.15,0.58h-0.2
				c-0.01-0.18-0.06-0.35-0.13-0.5c-0.07-0.15-0.17-0.28-0.29-0.39c-0.12-0.11-0.26-0.19-0.42-0.25c-0.16-0.06-0.33-0.09-0.51-0.09
				c-0.26,0-0.48,0.05-0.67,0.16c-0.19,0.11-0.34,0.24-0.46,0.41c-0.12,0.17-0.21,0.37-0.27,0.59c-0.06,0.22-0.09,0.44-0.09,0.67
				v0.16c0,0.23,0.03,0.46,0.09,0.68c0.06,0.22,0.15,0.41,0.27,0.58c0.12,0.17,0.28,0.31,0.46,0.41c0.19,0.11,0.41,0.16,0.67,0.16
				C302.55,193.81,302.72,193.78,302.87,193.73z"/>
			<path d="M306.37,193.84c-0.23-0.11-0.42-0.26-0.58-0.45c-0.16-0.19-0.29-0.4-0.38-0.65c-0.09-0.24-0.14-0.5-0.14-0.76v-0.17
				c0-0.25,0.05-0.5,0.13-0.75c0.08-0.24,0.2-0.46,0.36-0.65c0.15-0.19,0.34-0.35,0.56-0.46c0.22-0.12,0.47-0.18,0.74-0.18
				c0.25,0,0.47,0.05,0.67,0.14c0.2,0.09,0.37,0.22,0.51,0.38c0.14,0.16,0.25,0.35,0.32,0.56c0.08,0.21,0.11,0.44,0.12,0.67v0.24
				h-3.2v0.22c0,0.23,0.04,0.46,0.12,0.68c0.08,0.22,0.19,0.41,0.34,0.58c0.14,0.17,0.32,0.31,0.52,0.41
				c0.2,0.1,0.43,0.15,0.68,0.16c0.25,0,0.49-0.04,0.7-0.13c0.21-0.09,0.4-0.24,0.56-0.43l0.15,0.1c-0.17,0.23-0.38,0.39-0.63,0.5
				c-0.24,0.11-0.51,0.16-0.79,0.16C306.85,194.01,306.6,193.96,306.37,193.84z M306.44,190.1c-0.18,0.09-0.34,0.2-0.47,0.35
				c-0.13,0.15-0.24,0.31-0.32,0.5c-0.08,0.19-0.14,0.39-0.16,0.59h2.98v-0.05c0-0.2-0.03-0.4-0.1-0.58
				c-0.07-0.18-0.17-0.35-0.29-0.49s-0.27-0.25-0.45-0.34c-0.17-0.08-0.37-0.12-0.57-0.12C306.82,189.97,306.62,190.02,306.44,190.1
				z"/>
			<path d="M315.66,193.84c-0.23-0.11-0.42-0.26-0.58-0.45c-0.16-0.19-0.29-0.4-0.38-0.65c-0.09-0.24-0.14-0.5-0.14-0.76v-0.17
				c0-0.25,0.05-0.5,0.13-0.75c0.08-0.24,0.2-0.46,0.36-0.65c0.15-0.19,0.34-0.35,0.56-0.46c0.22-0.12,0.47-0.18,0.74-0.18
				c0.25,0,0.47,0.05,0.67,0.14c0.2,0.09,0.37,0.22,0.51,0.38c0.14,0.16,0.25,0.35,0.32,0.56c0.08,0.21,0.11,0.44,0.12,0.67v0.24
				h-3.2v0.22c0,0.23,0.04,0.46,0.12,0.68c0.08,0.22,0.19,0.41,0.34,0.58c0.14,0.17,0.32,0.31,0.52,0.41
				c0.2,0.1,0.43,0.15,0.68,0.16c0.25,0,0.49-0.04,0.7-0.13c0.21-0.09,0.4-0.24,0.56-0.43l0.15,0.1c-0.17,0.23-0.38,0.39-0.63,0.5
				c-0.24,0.11-0.51,0.16-0.79,0.16C316.14,194.01,315.89,193.96,315.66,193.84z M315.73,190.1c-0.18,0.09-0.34,0.2-0.47,0.35
				c-0.13,0.15-0.24,0.31-0.32,0.5c-0.08,0.19-0.14,0.39-0.16,0.59h2.98v-0.05c0-0.2-0.03-0.4-0.1-0.58
				c-0.07-0.18-0.17-0.35-0.29-0.49c-0.12-0.14-0.27-0.25-0.45-0.34c-0.17-0.08-0.37-0.12-0.57-0.12
				C316.12,189.97,315.91,190.02,315.73,190.1z"/>
			<path d="M319.33,191.13c0.06-0.24,0.14-0.46,0.26-0.65c0.13-0.21,0.29-0.38,0.5-0.52c0.21-0.13,0.47-0.2,0.78-0.2
				c0.27,0,0.52,0.07,0.75,0.21c0.24,0.14,0.42,0.33,0.56,0.57v-2.42h0.21v5.81h-0.21v-0.61c-0.14,0.22-0.34,0.4-0.58,0.51
				c-0.25,0.12-0.49,0.18-0.73,0.18c-0.3,0-0.54-0.07-0.75-0.2c-0.21-0.13-0.37-0.3-0.5-0.5c-0.12-0.2-0.21-0.42-0.27-0.67
				c-0.06-0.25-0.09-0.49-0.09-0.72v-0.08C319.25,191.62,319.27,191.38,319.33,191.13z M319.53,192.56c0.05,0.22,0.12,0.42,0.22,0.6
				c0.11,0.18,0.25,0.34,0.43,0.46c0.18,0.12,0.4,0.18,0.67,0.18c0.27,0,0.53-0.07,0.78-0.22c0.26-0.15,0.44-0.35,0.54-0.62v-2.02
				c-0.1-0.3-0.26-0.53-0.51-0.71c-0.24-0.18-0.51-0.27-0.81-0.27c-0.27,0-0.5,0.06-0.68,0.18c-0.18,0.12-0.32,0.27-0.43,0.46
				c-0.1,0.18-0.18,0.38-0.22,0.6c-0.05,0.22-0.07,0.43-0.07,0.63v0.08C319.46,192.14,319.48,192.35,319.53,192.56z"/>
			<path d="M326.87,193.21c-0.13,0.25-0.32,0.45-0.56,0.59c-0.24,0.14-0.54,0.21-0.89,0.21c-0.24,0-0.44-0.04-0.61-0.12
				c-0.17-0.08-0.31-0.19-0.43-0.33c-0.11-0.14-0.2-0.3-0.25-0.49c-0.06-0.19-0.08-0.4-0.09-0.62v-2.6h0.2v2.6
				c0,0.19,0.03,0.37,0.07,0.53c0.05,0.16,0.12,0.31,0.21,0.43c0.09,0.12,0.21,0.22,0.36,0.29c0.15,0.07,0.32,0.11,0.53,0.11
				c0.2,0,0.38-0.02,0.54-0.08c0.16-0.05,0.31-0.13,0.44-0.22c0.12-0.1,0.23-0.21,0.31-0.35c0.08-0.14,0.14-0.3,0.18-0.47l0-2.83
				h0.21v4.09h-0.21L326.87,193.21z"/>
			<path d="M330.75,193.73c0.16-0.05,0.29-0.12,0.41-0.21c0.12-0.09,0.21-0.21,0.29-0.35c0.07-0.14,0.12-0.3,0.14-0.48h0.2
				c-0.02,0.2-0.07,0.39-0.16,0.55c-0.09,0.16-0.2,0.3-0.34,0.41c-0.14,0.11-0.3,0.2-0.48,0.26c-0.18,0.06-0.37,0.09-0.57,0.09
				c-0.29,0-0.54-0.06-0.75-0.17c-0.21-0.12-0.39-0.27-0.53-0.46c-0.14-0.19-0.25-0.4-0.32-0.65c-0.07-0.24-0.11-0.5-0.11-0.76
				v-0.16c0-0.26,0.04-0.51,0.11-0.75c0.07-0.25,0.17-0.46,0.32-0.66c0.14-0.19,0.31-0.34,0.53-0.46c0.21-0.12,0.46-0.17,0.75-0.17
				c0.21,0,0.41,0.03,0.59,0.1s0.34,0.16,0.48,0.29c0.14,0.13,0.25,0.28,0.33,0.45c0.08,0.17,0.13,0.37,0.15,0.58h-0.2
				c-0.02-0.18-0.06-0.35-0.13-0.5c-0.07-0.15-0.17-0.28-0.29-0.39c-0.12-0.11-0.26-0.19-0.42-0.25c-0.16-0.06-0.33-0.09-0.51-0.09
				c-0.26,0-0.48,0.05-0.67,0.16c-0.19,0.11-0.34,0.24-0.46,0.41c-0.12,0.17-0.21,0.37-0.27,0.59c-0.06,0.22-0.09,0.44-0.09,0.67
				v0.16c0,0.23,0.03,0.46,0.09,0.68s0.15,0.41,0.27,0.58c0.12,0.17,0.28,0.31,0.46,0.41c0.19,0.11,0.41,0.16,0.68,0.16
				C330.43,193.81,330.59,193.78,330.75,193.73z"/>
			<path d="M336.2,193.55c-0.01-0.13-0.02-0.25-0.02-0.38c-0.09,0.14-0.19,0.26-0.32,0.37c-0.12,0.11-0.26,0.19-0.4,0.26
				c-0.14,0.07-0.3,0.12-0.46,0.16c-0.16,0.04-0.33,0.05-0.49,0.05c-0.16,0-0.32-0.02-0.48-0.07c-0.16-0.05-0.3-0.12-0.42-0.21
				c-0.12-0.09-0.22-0.21-0.29-0.35c-0.07-0.14-0.11-0.3-0.11-0.48c0-0.25,0.06-0.45,0.18-0.61c0.12-0.16,0.27-0.29,0.46-0.38
				c0.19-0.09,0.4-0.16,0.63-0.2c0.23-0.04,0.46-0.06,0.69-0.06h1.01v-0.6c-0.01-0.18-0.04-0.34-0.11-0.48
				c-0.07-0.14-0.16-0.25-0.28-0.34c-0.12-0.09-0.26-0.15-0.41-0.2c-0.15-0.04-0.32-0.07-0.49-0.07c-0.15,0-0.3,0.02-0.46,0.06
				c-0.16,0.04-0.3,0.1-0.43,0.18c-0.13,0.08-0.24,0.19-0.32,0.31s-0.13,0.27-0.14,0.44l-0.2-0.01c0.01-0.2,0.06-0.37,0.16-0.52
				c0.1-0.15,0.22-0.27,0.37-0.37c0.15-0.1,0.31-0.17,0.49-0.22c0.18-0.05,0.36-0.07,0.54-0.07c0.2,0,0.39,0.03,0.57,0.08
				c0.18,0.05,0.34,0.13,0.48,0.24c0.14,0.11,0.24,0.24,0.32,0.41c0.08,0.16,0.12,0.35,0.13,0.56v2.05c0,0.14,0.02,0.27,0.04,0.4
				c0.02,0.13,0.05,0.26,0.07,0.39l0,0.03h-0.24C336.23,193.81,336.21,193.68,336.2,193.55z M335.03,193.75
				c0.17-0.04,0.32-0.1,0.47-0.19c0.14-0.08,0.27-0.19,0.39-0.31c0.12-0.12,0.21-0.27,0.29-0.43v-0.97h-1
				c-0.2,0-0.42,0.02-0.64,0.05c-0.22,0.03-0.42,0.09-0.6,0.19c-0.16,0.08-0.28,0.19-0.38,0.32c-0.1,0.13-0.14,0.29-0.14,0.49
				c0,0.14,0.03,0.27,0.1,0.38c0.07,0.11,0.15,0.21,0.26,0.28c0.1,0.07,0.22,0.13,0.35,0.17c0.13,0.04,0.26,0.06,0.39,0.06
				C334.69,193.81,334.86,193.79,335.03,193.75z"/>
			<path d="M339.33,189.85h1.47v0.21h-1.47v2.9c0.01,0.16,0.03,0.29,0.08,0.4c0.05,0.11,0.12,0.19,0.21,0.26
				c0.09,0.07,0.2,0.12,0.32,0.15c0.12,0.03,0.26,0.04,0.4,0.04c0.07,0,0.13,0,0.2,0c0.07,0,0.13-0.01,0.2-0.01
				c0.03,0,0.07-0.01,0.1-0.01c0.04,0,0.07-0.01,0.1-0.01l0.04,0.19c-0.04,0.01-0.07,0.01-0.11,0.02c-0.03,0.01-0.07,0.01-0.11,0.01
				c-0.07,0.01-0.14,0.01-0.2,0.01c-0.07,0-0.14,0-0.21,0c-0.18,0-0.35-0.02-0.5-0.06c-0.15-0.04-0.28-0.1-0.39-0.18
				c-0.11-0.08-0.2-0.19-0.26-0.32c-0.06-0.13-0.1-0.3-0.1-0.49v-2.9h-1.2v-0.21h1.2v-1.1h0.22L339.33,189.85z"/>
			<path d="M344.42,189.85v3.89h1.45v0.2h-3.16v-0.2h1.5v-3.68h-1.5v-0.21H344.42z M344.05,188.58c0.01-0.03,0.02-0.06,0.04-0.09
				c0.02-0.03,0.05-0.05,0.08-0.06c0.03-0.02,0.08-0.02,0.13-0.02c0.05,0,0.09,0.01,0.13,0.02c0.03,0.02,0.06,0.03,0.09,0.06
				c0.02,0.03,0.03,0.06,0.04,0.09c0.01,0.03,0.01,0.07,0.01,0.1c0,0.07-0.02,0.13-0.06,0.19c-0.04,0.06-0.11,0.08-0.21,0.08
				c-0.1,0-0.17-0.03-0.21-0.08c-0.04-0.06-0.06-0.12-0.06-0.19C344.04,188.65,344.04,188.61,344.05,188.58z"/>
			<path d="M347.11,191.05c0.08-0.25,0.2-0.46,0.35-0.65c0.15-0.19,0.34-0.34,0.56-0.45c0.22-0.12,0.47-0.17,0.76-0.17
				c0.29,0,0.54,0.06,0.76,0.17c0.22,0.11,0.41,0.26,0.56,0.45c0.15,0.19,0.27,0.41,0.35,0.65c0.08,0.25,0.12,0.5,0.12,0.77v0.16
				c0,0.26-0.04,0.52-0.12,0.76c-0.08,0.25-0.19,0.46-0.35,0.65c-0.15,0.19-0.34,0.34-0.56,0.45c-0.22,0.12-0.47,0.17-0.76,0.17
				c-0.29,0-0.54-0.06-0.76-0.17c-0.22-0.11-0.41-0.26-0.56-0.45c-0.15-0.19-0.27-0.41-0.35-0.65c-0.08-0.25-0.12-0.5-0.12-0.77
				v-0.16C346.99,191.55,347.03,191.3,347.11,191.05z M347.3,192.65c0.07,0.22,0.18,0.42,0.31,0.59c0.13,0.17,0.3,0.31,0.49,0.41
				c0.2,0.11,0.42,0.16,0.67,0.16s0.48-0.05,0.67-0.16c0.19-0.1,0.36-0.24,0.49-0.42c0.13-0.17,0.24-0.37,0.31-0.59
				c0.07-0.22,0.11-0.44,0.11-0.68v-0.16c0-0.23-0.04-0.45-0.11-0.67c-0.07-0.22-0.17-0.42-0.31-0.59c-0.14-0.17-0.3-0.31-0.5-0.42
				c-0.2-0.11-0.42-0.16-0.67-0.16s-0.47,0.05-0.67,0.16c-0.2,0.11-0.36,0.24-0.49,0.42c-0.14,0.17-0.24,0.37-0.31,0.59
				c-0.07,0.22-0.11,0.44-0.11,0.67v0.16C347.2,192.2,347.23,192.43,347.3,192.65z"/>
			<path d="M351.9,189.85h0.21v0.98c0.07-0.15,0.15-0.29,0.25-0.42c0.1-0.13,0.21-0.24,0.35-0.33c0.13-0.09,0.27-0.17,0.43-0.22
				c0.16-0.05,0.32-0.08,0.5-0.08c0.23,0,0.44,0.04,0.61,0.11c0.17,0.07,0.31,0.18,0.42,0.31c0.11,0.14,0.19,0.3,0.25,0.48
				c0.05,0.19,0.08,0.39,0.08,0.61l0,2.65h-0.21v-2.65c0-0.19-0.03-0.37-0.07-0.53c-0.04-0.16-0.11-0.3-0.21-0.42
				c-0.09-0.12-0.21-0.21-0.36-0.27c-0.15-0.07-0.32-0.1-0.53-0.09c-0.18,0-0.36,0.04-0.53,0.11c-0.17,0.07-0.32,0.16-0.45,0.28
				c-0.13,0.12-0.25,0.26-0.34,0.42c-0.09,0.16-0.16,0.33-0.2,0.5v2.65h-0.21V189.85z"/>
		</g>
	</g>
</g>
</svg>
