<svg xmlns="http://www.w3.org/2000/svg" viewBox="0 0 612 235.11"><g id="Layer_1" data-name="Layer 1"><path d="M589.05,114.15q-31.6,2.63-63.26,4.68c-12.09.79-12.06.57-14.71,12.26-2.89,12.75-5.88,25.48-8.75,37.9-9.19-.9-14.1-5.69-15.14-14.17-.25-2.1.88-4.45.39-6.44-2.46-10-5.83-19.76-7.79-29.82-2.1-10.85-8.29-16.26-18.81-18.13-4.85-.86-9.49-2.93-14.69-4.6,15.71-12.54,12.41-31.28,19.16-46L469,53.7c1.69-2.49,3.12-4.61,4-6-.65-3.31-1.47-6.35-1.81-9.44-.68-6.08-1.67-12.42-8.42-14.2-9.07-2.39-18.46-3.57-27.69-5.36-1.95-.37-3.84-1.1-6.46-1.88-.26.23-1.28,1.91-2.47,2-9.92,1-12.71,10.05-15,16.49-3.34,9.32-3.47,20-3.79,30.07-.09,2.94,3.26,7.55,6.11,8.68,5.43,2.16,4.65,6,2.64,8.47a75.14,75.14,0,0,1-14.48,14c-4.84,3.46-10.79,5.37-15.46,7.59-4.67-1.87-9.41-3.9-14.25-5.66-8.37-3-16.85-5.81-25.17-9a5.36,5.36,0,0,1-2.62-4c-.16-11,.29-22-.08-32.92-.15-4.49-1.67-9-2.91-13.38-4-14.19-17-19.89-27.45-27.68-2.49-1.85-8.29-1.18-11.63.37-18.35,8.51-34.47,35.09-28.94,56.34a38.62,38.62,0,0,1,.91,9.91c0,1.38-.85,3.41-1.93,4-4.95,2.7-9.92,6.44-15.23,7.13-10.82,1.42-20.91,3.55-28.1,11.94-3.14-2.5-5.45-5.15-8.35-6.41-3.41-1.49-3.59-3.14-2.28-6.06,3.65-8.11,6.6-16.28,4.28-25.52-.73-2.89-.29-6.18.09-9.23,1.34-10.8-4.41-17.87-14.93-18.09-3.72-9.45-17.75-18.83-28.72-18.92-3.76,0-8.47-.67-11.12,1.23-6.25,4.49-12.61,9.62-16.74,15.92-2.19,3.35.19,9.68.5,14.66,0,.5,0,1,0,1.5,2,14.46,4.93,28.6,15.84,40.85C162,92.83,157.09,94.93,152,95.9c-5.4,1-11.85,7.72-12.93,13.16-2.61,13.25-5.86,26.38-8.78,39.58-2.2,10-9.75,12.92-18.9,14.5-3.06-13.4-6.47-26.75-9.05-40.27C101,116,97.76,113.5,91,113.13c-21.61-1.18-43.2-2.9-64.79-4.38-7.69-.53-8.54.34-6.88,8C23.9,138,28.37,159.35,33.55,180.5c1.33,5.39,4.79,10.23,11.63,11.15,14.18,1.89,28.29,4.29,42.46,6.27,10.52,1.47,21.12,3.89,31.62,3.55,14.92-.47,29.79-2.93,44.64-4.91,3.59-.48,5.26,0,5.64,3.78.61,6.19,4.72,8.65,10.44,9.46,15.92,2.26,31.82,4.7,47.75,6.89,1.64.23,4.16-.13,5.06-1.22,3.66-4.42,7.3-1.33,10.94-.46,2.05.48,4,1.81,6.06,1.82q57.24.12,114.47,0c5.62,0,8.55-3.09,8.79-8.7.07-1.59.14-3.18.23-5.18,11.24,8.3,23.47,9.78,36.45,8,2.24-.3,4.63.6,6.92.42,10-.81,20.79,1.25,28.28-8.24.52-.66,2-.83,3.05-.73,6.46.64,12.89,1.51,19.35,2.14,11.25,1.1,22.69,3.84,33.73,2.73,22.81-2.29,45.37-6.92,68.11-10a12.46,12.46,0,0,0,10.58-9.7c5.66-22.22,10.3-44.7,15.18-67.12C595.93,115.84,594.3,113.71,589.05,114.15Zm-74,9.83,1.27.3q-5.34,22.54-10.73,45.1c0,.09-.4.09-.7.11Q510,146.71,515.08,124ZM439.24,21.15c-12.76,6.08-18.23,15.42-20,27.31-.13.85-1.15,1.56-1.76,2.34-.66-.56-1.74-1-1.92-1.68C412.35,36.86,424.65,21.18,439.24,21.15ZM413.85,33.57l1.57.63-3.54,18.91-2.6-.68Q411.56,43,413.85,33.57Zm2.88,37.32c-2.76-.81-6-5.31-6.1-8.2-.06-2.58,3.71-7.1,6.28-7.47,4.41-.65,8.12,2.26,7.62,7.9C424.22,68,422.24,72.49,416.73,70.89Zm1.91,12.77a16.56,16.56,0,0,1,7-13.17c1.44-1.11,2-3.84,2.27-5.91,1.48-9.89,2.42-10.62,11.79-7.79-.36-2.37-.21-3.76.26-4.54l-2.26,2.19-3.12-2.68c-.3-1.4-.6-2.81-1.2-5.59-1.58,2.47-2.32,4.07-3.46,5.28a34.2,34.2,0,0,1-4.25,3.37c-1.3-2-3.85-4.2-3.7-6.13,1.53-19.32,17.29-30.09,35.36-23.59,3.43,1.23,8.53,5,6.64,11.38-.46,1.58,1.34,3.79,2,5.74.56,1.74.94,3.54,1.33,5.06l-9.18-2.79-.28,1.11-15.68,1.17,2.52.93-4,3.91c1.89-1,5.72,1.72,7.72.9,4-1.63,8.72-1.34,14.65-2-3.7,12.2-6.42,24.34-11.14,35.65-3.78,9-12.76,8.23-20.2-.82L430,86.83c2.34,2,4.64,4,7,5.91s5.7,3.22,6.6,5.57c.53,1.4-2.49,5.66-4.52,6.17-2.89.72-7.21.18-9.37-1.65-4.63-3.91-8.47-8.84-12.14-13.73C416.81,88.13,418.57,85.53,418.64,83.66Zm-18.15,16.1c4.79-3,9.21-6.63,13.85-10,3.07,3.7,6.37,8.31,10.31,12.3,9.09,9.18,16.21,8,22.3-3.46,7.82,2.71,15.66,4.5,22.49,8.17,3.46,1.87,6.12,6.8,7.39,10.89,3.23,10.42,5.47,21.14,8.23,32.25l-11.28,4.48v-8.43l-1.42-.2c-.38,2.44-.6,4.91-1.18,7.3-1.54,6.41-3.24,12.79-4.89,19.18a3.42,3.42,0,0,1-.55,1.36c-2.66,3.07-25.31,3.74-27.76.53-11.77-15.4-23.47-30.86-35-46.47-4.87-6.63-9.15-13.69-14.49-21.75C392.12,104.09,396.52,102.26,400.49,99.76Zm-120.92-61c5.26-9.81,11.95-18.77,22.28-24.32,5.24-2.81,9.63-2.76,14.14,1.19,8.62,7.54,20.27,12.52,23.12,25.07,2,8.68,2.74,17.63,4.05,26.46l-2.25.37c-6.86-15.32-15.16-30.78-34-30.86-18.95-.08-24.87,16.34-31,31.51A39.56,39.56,0,0,1,279.57,38.71ZM322.69,99.4c-9.13,15-23.13,13.55-30.14-2.68C288.32,87,285.74,76.39,283.2,66,280.59,55.31,287.79,48.6,295,42.87c3.41-2.72,8.48-3.35,10.7-4.16,16.08,0,31.13,17,27.92,30.1C331.06,79.31,328.21,90.31,322.69,99.4Zm-11.54,28.66c-1.33,1-4.63,1.28-5.94.35-12.56-8.88-15.46-15.28-11.57-24.82,11,11.34,17.81,11.33,29.8.24C327.14,112.56,324.8,117.43,311.15,128.06ZM291,100.64c.42,1.3-2.72,3.43-3.2,5.42-.59,2.41-1.1,5.74.1,7.49,3,4.35,6.94,8,10.51,12,1.08,1.19,2.19,2.35,3.33,3.58-10.67,3.13-16.7-.26-21.11-10.28-3.47-7.89-6.13-15-4.59-23.74,1.68-9.57,2.09-19.37,3-28.64C283.11,77.76,287.33,89.11,291,100.64Zm-1.18,47.8h28.89v4.81h4.81V167.7h-4.81v4.82H299.47v9.63h-9.63Zm23.93-19.14c4.21-4.43,8.32-8.46,12.08-12.79,3-3.44,5.66-7,1.27-11.68-1.09-1.16-1-4.21-.39-6,3.59-10.72,7.49-21.33,11.29-32l1.37-.66c.91,13.28,3,26.63,2.39,39.84C341.2,118.07,324.63,130.88,313.77,129.3ZM208.29,59.6c.1-5.77.49-11.53.9-17.29.09-1.29.45-3.39,1.16-3.61,1.35-.43,3.91-.3,4.43.55a97.66,97.66,0,0,1,5.65,11.36,3.07,3.07,0,0,1-.37,2.32c-6.64.85-2.42,4.74-1.62,6.9,3.7,10.09,3.05,17.82-3.6,28.57-.34-4.52-.31-8-.93-11.27-.69-3.59,2.19-8.9-4.65-10.09C208.51,66.9,208.24,62.19,208.29,59.6Zm5.56,30.61-2,1.65c-4.19-4-9.57-7.25-12.29-12-3.53-6.24.38-12,5.47-17.07C208.07,72.18,211,81.2,213.85,90.21ZM155.18,32.05c2.81-2.79,5.34-6.2,8.7-8,4.27-2.32,9.55-5.19,13.88-4.51,10,1.55,20.94,3.68,26,13.88s5.61,20.82-2.43,29.46l-8.28-9.58c-1.39,4.43-2.49,7.93-3.07,9.79-5.4-5.22-10.94-10.73-16.71-16-.69-.63-2.6.07-3.78.65L156.1,46.26C150.71,43.4,150.38,36.81,155.18,32.05Zm7.55,48.46c-3.75-8.76-6.34-18-9.31-26.71,2.08-1,4-1.25,4.21-2,1.58-5,3.33-2.93,6.32-1,4.5,2.91,9.66,4.8,16,7.83l-5.5-7.53c6.48,3.54,6.48,3.54,16.79,28.57,0-3.57-.48-7.22.14-10.67.56-3.08,2.34-5.94,3.58-8.9l2.67.94V82.23c-3.29,4.66-5.21,9.63-8.82,11.92-4.1,2.6-9.68,3.41-14.69,3.67-1.53.08-3.29-4.19-4.45-5.79l14.22-8.62-1.38-2.14c-.79.66-1.62,1.27-2.36,2C173.41,89.83,166.39,89.06,162.73,80.51ZM141.9,108.82c1.21-4,6.11-7.64,10.18-9.94,4.49-2.53,9.95-3.34,15.2-5,6.73,9.8,17.12,9.7,25.59-.52,2.26-2.72,5.64-4.52,7.94-6.31L225,100.61c-9,13.75-17,26.62-25.61,39.11-6.93,10.06-14.38,19.77-21.94,29.37-1.15,1.45-4.12,1.79-6.31,2s-4.28-.45-6.43-.68c-4.07-.42-11.19.16-11.68-1.39-2.37-7.39-3.32-15.33-4-23.14-.36-4.14.85-8.42,1.35-12.63l-2-.24-2.55,16.82-11.25-6.36C137,131.59,138.56,119.94,141.9,108.82Zm8.32,60.65-6.25-.84c1.05-2.58,1.93-4.77,3.49-8.64C148.63,164,149.33,166.4,150.22,169.47Zm-37.62,9-1.49.34q-2.25-11.78-4.49-23.53Q109.6,166.9,112.6,178.49ZM99.21,119.76q3.32,16.08,6.64,32.18l-8.28-31.8Zm-38.4,71.72c-4.27-.65-8.53-1.39-12.81-1.91-7.59-.92-11.33-5.56-12.89-12.65C30.7,156.8,26.2,136.7,21.76,116.59c-.35-1.6-.51-3.24-.89-5.75,6.5.4,12.54.7,18.56,1.14,16.92,1.24,33.85,2.45,50.75,3.92,1.73.15,4.45,1.7,4.78,3.06,6.32,26.45,12.35,53,18.68,80.51Zm57.59-27.66c8-1.2,11.78-6.7,13.87-13.77,1.08-3.61,2.93-3.69,5.9-2.15,8,4.1,9.73,12.69,3.72,19a2.52,2.52,0,0,1-2.12.75c-8.37-3.77-15.07-.09-21.61,4.62a19.11,19.11,0,0,1-3.84,1.63C111.15,168.27,112,164.79,118.4,163.82Zm46.8,30.09c-15.17,1.79-30.34,3.55-45.53,5.11-1.49.15-3.12-1.06-4.69-1.64l.9-2.16,52.71-4.49.42,1.66A16.12,16.12,0,0,1,165.2,193.91Zm-46.58-8.61a90.88,90.88,0,0,1,13.24-2.15c2.43-.24,5.16,1,7.35.27,7.77-2.48,13.7,1.32,21.28,5.55-14.27,1.21-27,2.37-39.72,3.27a4.15,4.15,0,0,1-3.22-2.41C117.24,188.39,117.87,185.49,118.62,185.3Zm45.69,2.27c-2.3-.16-4.55-1.84-6.71-3.06-5.56-3.13-11-4.9-17.84-3.82-7.52,1.18-15.38.27-24.51.27-1.11-2.09-.13-3.71,3.64-6.63,8.71-6.74,17.21-5,26.67-3.13,8.69,1.76,17.72,1.81,26.51,2.6-.78,4-1,7.68-2.36,10.9C169.06,186.23,166.11,187.7,164.31,187.57Zm76.49,25.05c-4.21-2.21-9.33-3.18-11-6.11-4.06-7.16.46-16.32,11-25.11Zm8.82-82.74c-6-.12-8.52,2.74-8.53,8.41,0,10.83.79,21.74-.36,32.44-.53,5-4,10.6-7.86,13.75C231,186,224.76,183,221,181.12c-6.88-3.44-13.38-7.63-20.1-11.41-.86-.48-2.07-.32-3.76,1l32.55,18c-3.55,7.75-6,16.29,2.51,24.81-1.94.25-3.26.71-4.48.54-14.79-2.08-29.55-4.43-44.37-6.35-9.74-1.25-12.53-3.77-12.09-13.77.39-9,1.59-17.47,9.07-24.37,5-4.61,7.56-11.74,12.08-17,14.51-16.84,21.35-39.81,41.25-52.25a83.87,83.87,0,0,1,16.89-7.59c7.7-2.68,15.65-4.68,24.49-7.26-4.31,15.55-1.8,30.42,10.46,44.43C271.82,129.94,260.72,130.1,249.62,129.88Zm6.28,70.22a3.09,3.09,0,0,1-.14.94,2.27,2.27,0,0,1-.43.76,2,2,0,0,1-.69.49,2.49,2.49,0,0,1-1.86,0,1.84,1.84,0,0,1-.69-.49,2.11,2.11,0,0,1-.43-.76,2.81,2.81,0,0,1-.15-.94V200a2.85,2.85,0,0,1,.15-.94,2,2,0,0,1,.43-.75,1.91,1.91,0,0,1,.68-.5,2.27,2.27,0,0,1,.93-.18,2.35,2.35,0,0,1,.94.18,2,2,0,0,1,.69.5,2.13,2.13,0,0,1,.43.75,3.14,3.14,0,0,1,.14.94Zm-4.59-22.77V148.44h9.63V167.7h4.82V148.44h4.81V167.7h4.82V148.44H285v28.89h-4.81v4.82h-4.82v-4.82h-4.82v-4.81h-4.81v4.81h-4.82v4.82h-4.81v-4.82Zm9.83,22.77a3.51,3.51,0,0,1-.12.94,2.35,2.35,0,0,1-.34.75,1.74,1.74,0,0,1-.58.5,1.59,1.59,0,0,1-.77.18,1.88,1.88,0,0,1-.43-.05,1.69,1.69,0,0,1-.37-.15l-.18-.13a1.41,1.41,0,0,1-.18-.17v2.2H257v-6.44h1.1l.05.45a1.34,1.34,0,0,1,.2-.21l.24-.16.34-.13a2,2,0,0,1,1.19.13,1.47,1.47,0,0,1,.57.48,2.16,2.16,0,0,1,.35.75,3.63,3.63,0,0,1,.12,1Zm5.35.34h-3.16a1.66,1.66,0,0,0,.16.45,1.07,1.07,0,0,0,.25.31,1.3,1.3,0,0,0,.38.22,1.34,1.34,0,0,0,.46.08,1.8,1.8,0,0,0,.68-.14,1.28,1.28,0,0,0,.54-.4l.6.65a2.12,2.12,0,0,1-.73.58,2.41,2.41,0,0,1-1.17.27,2.54,2.54,0,0,1-1-.18,2.35,2.35,0,0,1-.76-.48,2.17,2.17,0,0,1-.48-.71,2.38,2.38,0,0,1-.17-.88V200a2.74,2.74,0,0,1,.17-1,2.27,2.27,0,0,1,.47-.76,2.06,2.06,0,0,1,.71-.49,2.26,2.26,0,0,1,.9-.18,2.33,2.33,0,0,1,.9.17,2,2,0,0,1,.67.46,2.16,2.16,0,0,1,.41.73,3,3,0,0,1,.14.93Zm5.2,1.94h-1.2v-2.85a1.44,1.44,0,0,0-.06-.45.62.62,0,0,0-.18-.28.69.69,0,0,0-.28-.15,2,2,0,0,0-.37,0,1.65,1.65,0,0,0-.32,0,1,1,0,0,0-.25.12.7.7,0,0,0-.17.13l-.13.17v3.31h-1.2v-4.65h1.09l.07.64a1.43,1.43,0,0,1,.2-.23,1.37,1.37,0,0,1,.22-.2,1.5,1.5,0,0,1,.46-.22,1.72,1.72,0,0,1,.52-.08,2.15,2.15,0,0,1,.64.1,1.25,1.25,0,0,1,.51.33,1.63,1.63,0,0,1,.33.58,2.77,2.77,0,0,1,.12.87ZM277,200.1h-3.59v-1H277Zm5.11,1.52a1.49,1.49,0,0,1-.42.45,2.2,2.2,0,0,1-.66.29,3,3,0,0,1-.87.11,2.82,2.82,0,0,1-.92-.14,2.09,2.09,0,0,1-.68-.36,1.39,1.39,0,0,1-.41-.5,1.33,1.33,0,0,1-.14-.57h1.14a.68.68,0,0,0,.1.33.73.73,0,0,0,.24.22,1,1,0,0,0,.32.12,1.92,1.92,0,0,0,.78,0,.88.88,0,0,0,.29-.11.49.49,0,0,0,.16-.16.35.35,0,0,0,.05-.2.41.41,0,0,0,0-.19.71.71,0,0,0-.18-.15,1.42,1.42,0,0,0-.34-.13l-.53-.12a5.1,5.1,0,0,1-.75-.21,2.62,2.62,0,0,1-.58-.29,1.39,1.39,0,0,1-.37-.4,1,1,0,0,1-.14-.53,1.21,1.21,0,0,1,.14-.55,1.33,1.33,0,0,1,.4-.46,1.9,1.9,0,0,1,.62-.31,2.75,2.75,0,0,1,.84-.12,3.34,3.34,0,0,1,.87.11,2,2,0,0,1,.66.32,1.41,1.41,0,0,1,.41.47,1.39,1.39,0,0,1,.14.6h-1.2a.54.54,0,0,0,0-.22.58.58,0,0,0-.11-.18.74.74,0,0,0-.29-.17,1.4,1.4,0,0,0-.44-.07,1.35,1.35,0,0,0-.38.05.85.85,0,0,0-.27.12.46.46,0,0,0-.15.16.45.45,0,0,0-.05.19.46.46,0,0,0,.05.2.36.36,0,0,0,.15.15,1.05,1.05,0,0,0,.3.14l.48.1a5.62,5.62,0,0,1,.78.17,2.27,2.27,0,0,1,.63.28,1.34,1.34,0,0,1,.41.41,1.18,1.18,0,0,1,0,1.15Zm5.5-1.52a2.81,2.81,0,0,1-.15.94,2.44,2.44,0,0,1-.42.76,2,2,0,0,1-.69.49,2.52,2.52,0,0,1-1.87,0,2,2,0,0,1-.69-.49,2.27,2.27,0,0,1-.43-.76,2.81,2.81,0,0,1-.14-.94V200a2.85,2.85,0,0,1,.14-.94,2.13,2.13,0,0,1,.43-.75,2,2,0,0,1,.69-.5,2.49,2.49,0,0,1,1.86,0,2,2,0,0,1,.7.5,2.28,2.28,0,0,1,.42.75,2.85,2.85,0,0,1,.15.94Zm5.17,2.28h-1.08l-.07-.65a1.83,1.83,0,0,1-.57.54,1.4,1.4,0,0,1-.73.2,2,2,0,0,1-.66-.11,1.32,1.32,0,0,1-.52-.36,1.74,1.74,0,0,1-.33-.62,3,3,0,0,1-.12-.9v-2.75h1.2v2.76a2.05,2.05,0,0,0,0,.47.86.86,0,0,0,.13.32.53.53,0,0,0,.24.17,1.13,1.13,0,0,0,.35.05,1.87,1.87,0,0,0,.35,0,.89.89,0,0,0,.26-.11.93.93,0,0,0,.18-.16.69.69,0,0,0,.13-.2v-3.26h1.2ZM298,199a3.86,3.86,0,0,0-.49-.09,3.77,3.77,0,0,0-.47,0,1.73,1.73,0,0,0-.41,0,1.14,1.14,0,0,0-.34.12.89.89,0,0,0-.3.24,1.63,1.63,0,0,0-.21.34v2.8h-1.19v-4.65h1.11l.05.65v.11a2,2,0,0,1,.68-.62,1.7,1.7,0,0,1,.86-.23,2.6,2.6,0,0,1,.5,0,2.25,2.25,0,0,1,.38.08Zm2.38,1.69a1.27,1.27,0,0,0,.16.45.83.83,0,0,0,.29.3.88.88,0,0,0,.48.12,1.2,1.2,0,0,0,.33,0,.84.84,0,0,0,.28-.15.79.79,0,0,0,.19-.22.73.73,0,0,0,.06-.3h1.12a1.39,1.39,0,0,1-.14.67,1.7,1.7,0,0,1-.43.53,1.93,1.93,0,0,1-.63.35,2.13,2.13,0,0,1-.76.13,2.33,2.33,0,0,1-.95-.18,1.83,1.83,0,0,1-.68-.5,2.21,2.21,0,0,1-.42-.75,3.06,3.06,0,0,1-.14-.92V200a3.1,3.1,0,0,1,.14-.92,2.14,2.14,0,0,1,.41-.74,2,2,0,0,1,.69-.5,2.13,2.13,0,0,1,.94-.19,2.32,2.32,0,0,1,.8.13,2.16,2.16,0,0,1,.63.36,1.63,1.63,0,0,1,.54,1.32h-1.12a.88.88,0,0,0-.05-.33.8.8,0,0,0-.18-.27,1.12,1.12,0,0,0-.28-.18,1,1,0,0,0-.36-.06,1,1,0,0,0-.47.11.86.86,0,0,0-.29.31,1.5,1.5,0,0,0-.16.45,2.85,2.85,0,0,0,0,.51v.13A2.89,2.89,0,0,0,300.38,200.64Zm8.4-.2h-3.16a1.68,1.68,0,0,0,.15.45,1.1,1.1,0,0,0,.26.31,1.25,1.25,0,0,0,.37.22,1.39,1.39,0,0,0,.46.08,1.81,1.81,0,0,0,.69-.14,1.19,1.19,0,0,0,.53-.4l.6.65a2,2,0,0,1-.72.58,2.41,2.41,0,0,1-1.17.27,2.59,2.59,0,0,1-1-.18,2.41,2.41,0,0,1-.75-.48,2,2,0,0,1-.48-.71,2.19,2.19,0,0,1-.17-.88V200a2.74,2.74,0,0,1,.16-1,2.44,2.44,0,0,1,.47-.76,2,2,0,0,1,.72-.49,2.19,2.19,0,0,1,.9-.18,2.28,2.28,0,0,1,.89.17,1.78,1.78,0,0,1,.67.46,2,2,0,0,1,.41.73,2.75,2.75,0,0,1,.15.93Zm10.57,0h-3.16a1.38,1.38,0,0,0,.16.45.93.93,0,0,0,.25.31,1.19,1.19,0,0,0,.38.22,1.34,1.34,0,0,0,.46.08,1.8,1.8,0,0,0,.68-.14,1.28,1.28,0,0,0,.54-.4l.59.65a2,2,0,0,1-.72.58,2.41,2.41,0,0,1-1.17.27,2.5,2.5,0,0,1-1-.18,2.35,2.35,0,0,1-.76-.48,2,2,0,0,1-.48-.71,2.38,2.38,0,0,1-.17-.88V200a2.54,2.54,0,0,1,.17-1,2.12,2.12,0,0,1,.47-.76,2,2,0,0,1,.71-.49,2.19,2.19,0,0,1,.9-.18,2.37,2.37,0,0,1,.9.17,1.83,1.83,0,0,1,.66.46,2,2,0,0,1,.42.73,3,3,0,0,1,.14.93Zm5.08,1.94h-1.08l-.06-.49a1.78,1.78,0,0,1-.52.43,1.52,1.52,0,0,1-.69.15,1.61,1.61,0,0,1-.76-.18,1.69,1.69,0,0,1-.57-.49,2.18,2.18,0,0,1-.36-.75,3.5,3.5,0,0,1-.13-.94V200a3.67,3.67,0,0,1,.13-1,2.18,2.18,0,0,1,.36-.75,1.59,1.59,0,0,1,.57-.49,1.74,1.74,0,0,1,.77-.17,1.48,1.48,0,0,1,.65.13,1.71,1.71,0,0,1,.49.37v-2.37h1.2Zm5.37,0h-1.09l-.07-.65a1.83,1.83,0,0,1-.57.54,1.4,1.4,0,0,1-.73.2,2,2,0,0,1-.66-.11,1.22,1.22,0,0,1-.51-.36,1.61,1.61,0,0,1-.34-.62,3,3,0,0,1-.12-.9v-2.75h1.2v2.76a2.05,2.05,0,0,0,0,.47.86.86,0,0,0,.13.32.53.53,0,0,0,.24.17,1.18,1.18,0,0,0,.35.05,1.78,1.78,0,0,0,.35,0,1.09,1.09,0,0,0,.27-.11,1.29,1.29,0,0,0,.17-.16,1,1,0,0,0,.14-.2v-3.26h1.2Zm2.3-1.74a1.26,1.26,0,0,0,.15.45.79.79,0,0,0,.3.3.84.84,0,0,0,.47.12,1.27,1.27,0,0,0,.34,0,.94.94,0,0,0,.28-.15.63.63,0,0,0,.18-.22.51.51,0,0,0,.06-.3H335a1.53,1.53,0,0,1-.15.67,1.7,1.7,0,0,1-.43.53,1.93,1.93,0,0,1-.63.35,2.13,2.13,0,0,1-.76.13,2.33,2.33,0,0,1-1-.18,1.91,1.91,0,0,1-.68-.5A2.18,2.18,0,0,1,331,201a2.77,2.77,0,0,1-.14-.92V200a3.1,3.1,0,0,1,.13-.92,2.16,2.16,0,0,1,.42-.74,1.91,1.91,0,0,1,.68-.5,2.13,2.13,0,0,1,.94-.19,2.28,2.28,0,0,1,.8.13,2.16,2.16,0,0,1,.63.36,1.66,1.66,0,0,1,.41.57,1.79,1.79,0,0,1,.14.75h-1.13a.72.72,0,0,0-.05-.33.8.8,0,0,0-.18-.27,1,1,0,0,0-.28-.18,1,1,0,0,0-.35-.06.93.93,0,0,0-.47.11.89.89,0,0,0-.3.31,1.49,1.49,0,0,0-.15.45,2.84,2.84,0,0,0-.05.51v.13A2.87,2.87,0,0,0,332.1,200.64Zm8.27,1.74h-1.22c0-.06,0-.12-.07-.2a1.44,1.44,0,0,1-.05-.24,1.15,1.15,0,0,1-.23.21,1.87,1.87,0,0,1-.28.16,2.06,2.06,0,0,1-.35.12,2.59,2.59,0,0,1-.41,0,2,2,0,0,1-.66-.11,1.42,1.42,0,0,1-.51-.29,1.48,1.48,0,0,1-.34-.44,1.42,1.42,0,0,1-.11-.55,1.4,1.4,0,0,1,.15-.69,1.24,1.24,0,0,1,.45-.49,2,2,0,0,1,.67-.27,4.12,4.12,0,0,1,.91-.09H339v-.28a.65.65,0,0,0-.06-.29.51.51,0,0,0-.15-.23.7.7,0,0,0-.27-.15,1.06,1.06,0,0,0-.37-.06,1,1,0,0,0-.33.05.58.58,0,0,0-.23.13.34.34,0,0,0-.11.17.85.85,0,0,0,0,.23h-1.19a1.21,1.21,0,0,1,.13-.56,1.43,1.43,0,0,1,.38-.47,1.82,1.82,0,0,1,.62-.32,2.64,2.64,0,0,1,.83-.12,3.2,3.2,0,0,1,.78.1,1.69,1.69,0,0,1,.63.31,1.31,1.31,0,0,1,.42.51,1.58,1.58,0,0,1,.15.71v2a3.61,3.61,0,0,0,.05.62,1.59,1.59,0,0,0,.14.42Zm5-.07a3.58,3.58,0,0,1-.35.09l-.4,0-.4,0a2.13,2.13,0,0,1-.69-.1,1.34,1.34,0,0,1-.54-.32,1.47,1.47,0,0,1-.34-.54,2.3,2.3,0,0,1-.12-.79v-2.11h-1.06v-.88h1.06v-1.14h1.2v1.14h1.73v.88h-1.73v2a1.61,1.61,0,0,0,0,.42.73.73,0,0,0,.17.27.61.61,0,0,0,.26.15,1.22,1.22,0,0,0,.34,0h.28l.28,0,.24,0,.2,0,.12.82A2.08,2.08,0,0,1,345.37,202.31Zm5.56.07h-3.79v-1h1.32V198.7h-1.32v-1h2.53v3.68h1.26Zm-2.56-5.85a.7.7,0,0,1,.05-.25.53.53,0,0,1,.36-.33.66.66,0,0,1,.28,0,.71.71,0,0,1,.51.18.62.62,0,0,1,.19.45.63.63,0,0,1-.19.46.71.71,0,0,1-.51.18.66.66,0,0,1-.28,0,.61.61,0,0,1-.22-.13.6.6,0,0,1-.14-.2A.71.71,0,0,1,348.37,196.53Zm8,3.57a3.09,3.09,0,0,1-.14.94,2.27,2.27,0,0,1-.43.76,2,2,0,0,1-.69.49,2.49,2.49,0,0,1-1.86,0,1.84,1.84,0,0,1-.69-.49,2.11,2.11,0,0,1-.43-.76,2.81,2.81,0,0,1-.15-.94V200a2.85,2.85,0,0,1,.15-.94,2,2,0,0,1,.43-.75,1.91,1.91,0,0,1,.68-.5,2.27,2.27,0,0,1,.93-.18,2.35,2.35,0,0,1,.94.18,2,2,0,0,1,.69.5,2.13,2.13,0,0,1,.43.75,3.14,3.14,0,0,1,.14.94Zm5.21,2.28h-1.19v-2.85a1.44,1.44,0,0,0-.06-.45.85.85,0,0,0-.18-.28.69.69,0,0,0-.28-.15,2,2,0,0,0-.37,0,1.55,1.55,0,0,0-.32,0,1,1,0,0,0-.25.12.7.7,0,0,0-.17.13,1.09,1.09,0,0,0-.13.17v3.31h-1.2v-4.65h1.08l.08.64a2.11,2.11,0,0,1,.19-.23,2.05,2.05,0,0,1,.23-.2,1.57,1.57,0,0,1,.45-.22,1.82,1.82,0,0,1,.52-.08,2.21,2.21,0,0,1,.65.1,1.4,1.4,0,0,1,.51.33,1.63,1.63,0,0,1,.33.58,3.12,3.12,0,0,1,.11.87Zm.53-44.31h-9.63v-4.82H338v9.63h19.26v4.82h4.82v9.63h-4.82v4.82H333.18v-4.82h-4.82v-4.81H338v4.81h14.45V167.7H333.18v-4.82h-4.82v-9.63h4.82v-4.81h24.07v4.81h4.82ZM379,203.77c-4.72-3.07-6.64-6.54-6.05-12.17.58-5.41.16-10.93.21-16.41,0-.27.25-.54.37-.78,6.51,3.66,13.33,6.85,19.41,11.09,5.41,3.77,5.6,12.82,1.27,18C390,208.45,385.75,208.16,379,203.77Zm63.74-3.93c-.09,2.23-3.33,5.8-5.59,6.21-7.76,1.4-15.71,1.77-23.61,2.37-6.34.48-12.71.73-21.29,1.21,9.2-9.26,8.69-17.65,2.79-26.21,10.07-.93,18.19-6.69,18.54-13.3-2.59,2.46-4.73,4.95-7.3,6.84-8.66,6.35-15.68,4.8-24.71-.47-8.46-4.94-9-11.28-8.57-19.27.35-6.32.16-12.67,0-19-.11-5.51-2.51-8.55-8.62-8.42-11.79.25-23.58.07-36.07.07,9.14-11.54,20.29-21.23,15.69-38.27L348.43,93c8.49,2.69,17.67,4.15,25.26,8.43,8,4.49,16.46,10.42,21.08,18A431.59,431.59,0,0,0,436,175.57C442.15,182.72,443.1,191.19,442.72,199.84Zm51.48,5c-15.56-1.55-31.11-3.28-46.66-5-.85-.1-1.6-1-2.4-1.51l.57-1.71c10.9.88,21.8,1.72,32.7,2.65,5.31.44,10.62.9,15.89,1.65,1.34.19,2.52,1.51,3.77,2.32C496.78,203.81,495.43,205,494.2,204.88ZM448.25,192,498,187.16c-2.71,13.68-.84,11.05-11.6,10.42-12.71-.74-25.37-2.2-38.05-3.35Zm49.31-6.7c-1.45.88-3.49.87-5.3,1-13.61,1.26-27.31,1.91-40.8,4-5.58.85-7.6,0-7.9-5.39a31.9,31.9,0,0,0-.93-4.78c12.55-2,24.66-4.93,36.85-5.33,6.26-.2,12.69,4.12,18.94,6.63C498.67,181.49,498.38,184.75,497.56,185.25Zm-10.89-11.74c-1.8-.77-3.85-1.62-5.69-1.46-4.57.39-8.17-.55-8.75-5.61s.31-9.63,6.21-11.33c1.73-.49,3.39-1.22,5.36-1.94a50.58,50.58,0,0,1,2.05,5.74c1.34,5.71,4,9.94,10.36,11,5.28.92,6.33,4,3.05,9.39C495,177.35,490.88,175.32,486.67,173.51Zm17.76-1.93q-1.49,9.58-3,19.17l-1.46-.28Zm81.49-21.2c-2.27,10.39-4.62,20.77-6.94,31.15-2,9.07-5.34,12.47-14.52,13.93-20.36,3.23-40.76,6.27-61.15,9.36a24.71,24.71,0,0,1-3.07,0c6.08-26.58,12-52.67,18.15-78.7.41-1.76,2.68-4.26,4.25-4.38,22.9-1.85,45.82-3.35,68.74-4.92.27,0,.56.28,1.57.81C590.64,128.42,588.32,139.41,585.92,150.38Z"/><rect x="299.47" y="153.25" width="14.45" height="14.45"/><path d="M254.47,199a.89.89,0,0,0-.31-.3,1,1,0,0,0-.91,0,.89.89,0,0,0-.31.3,1.51,1.51,0,0,0-.18.45,3.1,3.1,0,0,0,0,.54v.09a3.21,3.21,0,0,0,0,.55,1.35,1.35,0,0,0,.18.44.84.84,0,0,0,.31.31,1,1,0,0,0,.46.11.88.88,0,0,0,.45-.11.84.84,0,0,0,.31-.31,1.35,1.35,0,0,0,.18-.44,3.21,3.21,0,0,0,0-.55V200a3.1,3.1,0,0,0,0-.54A1.51,1.51,0,0,0,254.47,199Z"/><path d="M259.73,199a.92.92,0,0,0-.3-.29.83.83,0,0,0-.43-.11,1.12,1.12,0,0,0-.27,0l-.22.08a.7.7,0,0,0-.19.15.8.8,0,0,0-.15.21V201a1.1,1.1,0,0,0,.14.21.65.65,0,0,0,.18.15l.23.1a1.29,1.29,0,0,0,.29,0,.75.75,0,0,0,.43-.12.76.76,0,0,0,.29-.3,1.5,1.5,0,0,0,.16-.45,2.36,2.36,0,0,0,.05-.54V200a2.39,2.39,0,0,0-.05-.55A1.5,1.5,0,0,0,259.73,199Z"/><path d="M286.19,199a.89.89,0,0,0-.31-.3,1,1,0,0,0-.92,0,1,1,0,0,0-.31.3,1.28,1.28,0,0,0-.17.45,2.35,2.35,0,0,0-.06.54v.09a2.44,2.44,0,0,0,.06.55,1.16,1.16,0,0,0,.17.44.86.86,0,0,0,.32.31.92.92,0,0,0,.46.11.94.94,0,0,0,.45-.11.84.84,0,0,0,.31-.31,1.35,1.35,0,0,0,.17-.44,2.44,2.44,0,0,0,.06-.55V200a2.35,2.35,0,0,0-.06-.54A1.5,1.5,0,0,0,286.19,199Z"/><path d="M307.34,198.87a.86.86,0,0,0-.29-.19,1,1,0,0,0-.4-.07.87.87,0,0,0-.37.07.84.84,0,0,0-.29.2,1.21,1.21,0,0,0-.22.32,1.79,1.79,0,0,0-.13.41h2v-.09a.89.89,0,0,0-.07-.36A.81.81,0,0,0,307.34,198.87Z"/><path d="M322.4,198.61a.81.81,0,0,0-.43.11,1,1,0,0,0-.3.3,1.83,1.83,0,0,0-.16.45,3.12,3.12,0,0,0-.05.55v.09a3,3,0,0,0,.05.54,1.34,1.34,0,0,0,.16.44.93.93,0,0,0,.29.3.83.83,0,0,0,.43.1.88.88,0,0,0,.51-.13.91.91,0,0,0,.33-.37v-1.88a.91.91,0,0,0-.33-.37A1,1,0,0,0,322.4,198.61Z"/><path d="M337.9,200.3a1.06,1.06,0,0,0-.32.15.61.61,0,0,0-.19.24.72.72,0,0,0-.06.29.56.56,0,0,0,.05.23.46.46,0,0,0,.13.18.52.52,0,0,0,.21.11.85.85,0,0,0,.29,0,1.18,1.18,0,0,0,.34,0l.28-.11a1.16,1.16,0,0,0,.21-.16,1.19,1.19,0,0,0,.15-.18v-.8h-.61A2.14,2.14,0,0,0,337.9,200.3Z"/><path d="M354.9,199a.89.89,0,0,0-.31-.3.83.83,0,0,0-.46-.11.81.81,0,0,0-.45.11.89.89,0,0,0-.31.3,1.51,1.51,0,0,0-.18.45,2.36,2.36,0,0,0-.05.54v.09a2.45,2.45,0,0,0,.05.55,1.35,1.35,0,0,0,.18.44.84.84,0,0,0,.31.31,1,1,0,0,0,.46.11.88.88,0,0,0,.45-.11.84.84,0,0,0,.31-.31,1.35,1.35,0,0,0,.18-.44,3.21,3.21,0,0,0,.05-.55V200a3.1,3.1,0,0,0-.05-.54A1.51,1.51,0,0,0,354.9,199Z"/><path d="M317.92,198.87a.91.91,0,0,0-.3-.19,1,1,0,0,0-.4-.07.9.9,0,0,0-.37.07.84.84,0,0,0-.29.2,1.21,1.21,0,0,0-.22.32,2.46,2.46,0,0,0-.13.41h2v-.09a1.09,1.09,0,0,0-.06-.36A1,1,0,0,0,317.92,198.87Z"/><path d="M265.06,198.87a.91.91,0,0,0-.3-.19,1,1,0,0,0-.4-.07.9.9,0,0,0-.37.07.84.84,0,0,0-.29.2,1.21,1.21,0,0,0-.22.32,1.77,1.77,0,0,0-.12.41h2v-.09a1.1,1.1,0,0,0-.07-.36A1,1,0,0,0,265.06,198.87Z"/></g></svg>