<?xml version="1.0" encoding="UTF-8" standalone="no"?>
<svg
        xmlns:dc="http://purl.org/dc/elements/1.1/"
        xmlns:cc="http://creativecommons.org/ns#"
        xmlns:rdf="http://www.w3.org/1999/02/22-rdf-syntax-ns#"
        xmlns="http://www.w3.org/2000/svg"
        xmlns:sodipodi="http://sodipodi.sourceforge.net/DTD/sodipodi-0.dtd"
        xmlns:inkscape="http://www.inkscape.org/namespaces/inkscape"
        version="1.1"
        id="svg2"
        xml:space="preserve"
        width="4946.6665"
        height="4946.6665"
        viewBox="0 0 4946.6665 4946.6665"
        sodipodi:docname="20943790.eps"><metadata
     id="metadata8"><rdf:RDF><cc:Work
         rdf:about=""><dc:format>image/svg+xml</dc:format><dc:type
        rdf:resource="http://purl.org/dc/dcmitype/StillImage"/></cc:Work></rdf:RDF></metadata>
    <defs
            id="defs6"><clipPath
       clipPathUnits="userSpaceOnUse"
       id="clipPath22"><path
         d="m 16471,5440.2 c -424.6,0 -842.8,17.1 -1253.3,51 -1545.9,128 -4656.1,385.4 -7084.62,2682 -498.99,471.9 -936.28,998.6 -1314.06,1570.1 4071.48,-98.5 14368.18,-284.9 20547.58,-327 C 24297.1,6729.4 20160.7,5440.2 16471,5440.2 m 14454.1,19666.6 c -9.7,0.5 -19.4,0.9 -29,1.2 -960.5,30.7 -2747.1,78.2 -4953.5,130.6 l 3,3501.2 c 0,347.1 -281.4,628.6 -628.5,628.6 H 10833.4 c 1842,1490.5 4744.8,3181.6 8451.6,3181.6 41.1,0 82.1,-0.2 123.4,-0.6 4540.4,-45.9 7727.3,-2610.8 8114.9,-2930.3 489.5,-403.7 1569.2,-1362.9 2542.3,-2884.6 329.6,-515.5 616,-1060.6 859.5,-1627.7 m -21236.43,420.9 c -741.48,5.8 -1423.14,9 -2027.94,9 -70.89,0 -140.92,0 -209.65,-0.1 363.55,595.6 764.26,1162.5 1201.07,1693.5 142.47,173.2 493.9,591 1036.52,1120.6 v -2823"
         id="path20" /></clipPath>
        <linearGradient
                x1="0"
                y1="0"
                x2="1"
                y2="0"
                gradientUnits="userSpaceOnUse"
                gradientTransform="matrix(-19921.7,21502.8,21502.8,19921.7,33618.6,1915.6)"
                spreadMethod="pad"
                id="linearGradient28"><stop
         style="stop-opacity:1;stop-color:#dae3fe"
         offset="0"
         id="stop24" />
            <stop
                    style="stop-opacity:1;stop-color:#e9effd"
                    offset="1"
                    id="stop26"/></linearGradient>
        <clipPath
                clipPathUnits="userSpaceOnUse"
                id="clipPath38"><path
         d="m 16319.9,10704 -608.2,-4197.4 h 7056.5 l -919.1,4197.4 z"
         id="path36" /></clipPath>
        <linearGradient
                x1="0"
                y1="0"
                x2="1"
                y2="0"
                gradientUnits="userSpaceOnUse"
                gradientTransform="matrix(136.144,-9666.6,-9666.6,-136.144,19168.3,11592)"
                spreadMethod="pad"
                id="linearGradient44"><stop
         style="stop-opacity:1;stop-color:#09005d"
         offset="0"
         id="stop40" />
            <stop
                    style="stop-opacity:1;stop-color:#1a0f91"
                    offset="1"
                    id="stop42"/></linearGradient>
        <clipPath
                clipPathUnits="userSpaceOnUse"
                id="clipPath54"><path
         d="m 29572,9407.7 c -647.7,0 -1391,3.1 -2205.4,8.6 -6179.4,42.1 -16476.1,228.5 -20547.58,327 -181.67,4.4 -350.57,8.6 -506.54,12.6 -1027.38,26.5 -1846.35,866.9 -1846.35,1894.7 v 12493.1 c 0,749 597.91,1360.7 1346.71,1377.5 430.89,9.7 984.71,14.5 1638.24,15.4 68.73,0.1 138.76,0.1 209.65,0.1 604.8,0 1286.46,-3.2 2027.94,-9 V 24979 l -3571.22,72.1 c -6.99,0.2 -14.06,0.3 -21.02,0.3 -466.11,0 -846.39,-378.1 -846.39,-846.9 V 12335.2 c 0,-600.1 481.66,-1089 1081.64,-1098 l 9193.52,-113.5 9884.1,-139.3 v 2.8 l 521,-7.2 v 15.1 L 30554,10938 c 5.4,-0.1 10.9,-0.1 16.3,-0.1 587.4,0 1066.1,475.2 1068.3,1064.7 l 36.6,10626.4 299.6,1886.4 c 2.3,14.7 3.8,29.3 4.5,43.8 147.9,-188.4 250,-415.5 288.9,-665.8 503.4,-3240.2 367.4,-10219.3 283.6,-13121.6 -21.5,-746.4 -626.3,-1343.8 -1372.9,-1354.8 -429.5,-6.4 -972.5,-9.3 -1606.9,-9.3 m -922.4,15188.2 -2707.5,54.7 0.5,588 c 2206.4,-52.4 3993,-99.9 4953.5,-130.6 9.6,-0.3 19.3,-0.7 29,-1.2 192.9,-10 376.5,-58.3 542.7,-137.6 l -2818.2,-373.3"
         id="path52" /></clipPath>
        <linearGradient
                x1="0"
                y1="0"
                x2="1"
                y2="0"
                gradientUnits="userSpaceOnUse"
                gradientTransform="matrix(-2450.71,-20558.6,-20558.6,2450.71,20483.7,34040.6)"
                spreadMethod="pad"
                id="linearGradient60"><stop
         style="stop-opacity:1;stop-color:#09005d"
         offset="0"
         id="stop56" />
            <stop
                    style="stop-opacity:1;stop-color:#1a0f91"
                    offset="1"
                    id="stop58"/></linearGradient>
        <clipPath
                clipPathUnits="userSpaceOnUse"
                id="clipPath70"><path
         d="m 30570.3,10937.9 c -5.4,0 -10.9,0 -16.3,0.1 l -4623.7,57.1 11.8,13655.5 2707.5,-54.7 -720.8,-95.5 c -190.3,-25.2 -336.2,-181.5 -348.3,-373 l -210.1,-3328.3 c -14.4,-228.9 165.2,-423.4 394.4,-427.2 l 3194,-52.5 c 2.2,-0.1 4.4,-0.1 6.7,-0.1 197.2,0 365.8,143.4 396.8,338.8 l 312.9,1970.9 -36.6,-10626.4 c -2.2,-589.5 -480.9,-1064.7 -1068.3,-1064.7 m -15045.1,185.8 -9193.52,113.5 c -599.98,9 -1081.64,497.9 -1081.64,1098 v 11869.3 c 0,468.8 380.28,846.9 846.39,846.9 6.96,0 14.03,-0.1 21.02,-0.3 L 9688.67,24979 V 11205.9 l 480.43,-6.6 v -0.2 l 5356.1,-75.4"
         id="path68" /></clipPath>
        <linearGradient
                x1="0"
                y1="0"
                x2="1"
                y2="0"
                gradientUnits="userSpaceOnUse"
                gradientTransform="matrix(-26208.8,14363.8,14363.8,26208.8,32386.7,10328.2)"
                spreadMethod="pad"
                id="linearGradient76"><stop
         style="stop-opacity:1;stop-color:#fe7062"
         offset="0"
         id="stop72" />
            <stop
                    style="stop-opacity:1;stop-color:#ff928e"
                    offset="1"
                    id="stop74"/></linearGradient>
        <clipPath
                clipPathUnits="userSpaceOnUse"
                id="clipPath90"><path
         d="M 24288.2,5390.5 H 13960.5 c -280.6,0 -491.3,199.8 -437.1,414.3 l 132.6,524.1 c 39.8,157.7 213.2,273.4 419.2,279.8 l 9956.3,310.7 c 215.2,6.7 405.7,-107.5 452.6,-271.3 l 238.9,-834.8 c 62,-216.9 -149.7,-422.8 -434.8,-422.8 z"
         id="path88" /></clipPath>
        <linearGradient
                x1="0"
                y1="0"
                x2="1"
                y2="0"
                gradientUnits="userSpaceOnUse"
                gradientTransform="matrix(612.675,-7760.53,-7760.53,-612.675,18654.6,11686.9)"
                spreadMethod="pad"
                id="linearGradient96"><stop
         style="stop-opacity:1;stop-color:#09005d"
         offset="0"
         id="stop92" />
            <stop
                    style="stop-opacity:1;stop-color:#1a0f91"
                    offset="1"
                    id="stop94"/></linearGradient>
        <clipPath
                clipPathUnits="userSpaceOnUse"
                id="clipPath122"><path
         d="m 6077.79,17536.5 c 0,0 1742.75,-4596.2 2293.35,-5552.4 639.14,-1109.9 2505.76,-402.6 2412.86,526.3 -92.9,928.8 -2273.73,4768.1 -2273.73,4768.1 z"
         id="path120" /></clipPath>
        <linearGradient
                x1="0"
                y1="0"
                x2="1"
                y2="0"
                gradientUnits="userSpaceOnUse"
                gradientTransform="matrix(3607.94,-7760.48,-7760.48,-3607.94,5793.33,20515)"
                spreadMethod="pad"
                id="linearGradient128"><stop
         style="stop-opacity:1;stop-color:#09005d"
         offset="0"
         id="stop124" />
            <stop
                    style="stop-opacity:1;stop-color:#1a0f91"
                    offset="1"
                    id="stop126"/></linearGradient>
        <clipPath
                clipPathUnits="userSpaceOnUse"
                id="clipPath138"><path
         d="M 8432.57,20884.6 19264.4,24640.2 19150.7,14477 8136.55,16934.5 Z"
         id="path136" /></clipPath>
        <linearGradient
                x1="0"
                y1="0"
                x2="1"
                y2="0"
                gradientUnits="userSpaceOnUse"
                gradientTransform="matrix(6931.63,-12345.4,-12345.4,-6931.63,12131.3,23582.2)"
                spreadMethod="pad"
                id="linearGradient144"><stop
         style="stop-opacity:1;stop-color:#4042e2"
         offset="0"
         id="stop140" />
            <stop
                    style="stop-opacity:1;stop-color:#4f52ff"
                    offset="1"
                    id="stop142"/></linearGradient>
        <clipPath
                clipPathUnits="userSpaceOnUse"
                id="clipPath156"><path
         d="m 19355.4,14663.3 c -96.2,97.8 -305.7,475.2 -485.3,1451 -173.7,943.1 -269.3,2166.3 -269.3,3444.3 0,1278 95.6,2501.1 269.3,3444.2 179.6,975.8 389.1,1353.2 485.3,1451 96.2,-97.8 305.7,-475.2 485.4,-1451 173.6,-943.1 269.2,-2166.2 269.2,-3444.2 0,-1278 -95.6,-2501.2 -269.2,-3444.3 -179.7,-975.8 -389.2,-1353.2 -485.4,-1451 z"
         id="path154" /></clipPath>
        <linearGradient
                x1="0"
                y1="0"
                x2="1"
                y2="0"
                gradientUnits="userSpaceOnUse"
                gradientTransform="matrix(4629.08,4901.38,4901.38,-4629.08,19212.8,19407.6)"
                spreadMethod="pad"
                id="linearGradient162"><stop
         style="stop-opacity:1;stop-color:#4042e2"
         offset="0"
         id="stop158" />
            <stop
                    style="stop-opacity:1;stop-color:#4f52ff"
                    offset="1"
                    id="stop160"/></linearGradient>
        <clipPath
                clipPathUnits="userSpaceOnUse"
                id="clipPath172"><path
         d="m 19355.4,14663.3 c -96.2,97.8 -305.7,475.2 -485.3,1451.1 -173.7,943 -269.3,2166.2 -269.3,3444.2 0,1278 95.6,2501.1 269.3,3444.2 179.6,975.8 389.1,1353.2 485.3,1451 96.2,-97.8 305.7,-475.2 485.4,-1451 173.6,-943.1 1543.6,-2166.2 1543.6,-3444.2 0,-1278 -1370,-2501.2 -1543.6,-3444.2 -179.7,-975.9 -389.2,-1353.3 -485.4,-1451.1"
         id="path170" /></clipPath>
        <clipPath
                clipPathUnits="userSpaceOnUse"
                id="clipPath178"><path
         d="m 20719.4,19597.5 c 0,-887.5 -478,-1606.9 -1424.2,-1606.9 -946.2,0 -1713.3,719.4 -1713.3,1606.9 0,887.4 767.1,1606.8 1713.3,1606.8 946.2,0 1424.2,-719.4 1424.2,-1606.8 z"
         id="path176" /></clipPath>
        <linearGradient
                x1="0"
                y1="0"
                x2="1"
                y2="0"
                gradientUnits="userSpaceOnUse"
                gradientTransform="matrix(-5632.83,-3289.57,-3289.57,5632.83,21795.4,21078.7)"
                spreadMethod="pad"
                id="linearGradient184"><stop
         style="stop-opacity:1;stop-color:#09005d"
         offset="0"
         id="stop180" />
            <stop
                    style="stop-opacity:1;stop-color:#1a0f91"
                    offset="1"
                    id="stop182"/></linearGradient>
        <clipPath
                clipPathUnits="userSpaceOnUse"
                id="clipPath194"><path
         d="m 6685.56,21103.1 c 509.54,59.1 1240.23,80.4 2030.26,-100.5 -260.29,-1359.7 -221.01,-2776.8 80.02,-4244.3 H 6567.55 c -355.26,0 -658.2,258.1 -713.6,609 -111.06,703.4 -246.82,1885.6 -102.06,2835.2 72.65,476.5 454.85,845 933.67,900.6 z"
         id="path192" /></clipPath>
        <linearGradient
                x1="0"
                y1="0"
                x2="1"
                y2="0"
                gradientUnits="userSpaceOnUse"
                gradientTransform="matrix(-2042.24,-3948.33,-3948.33,2042.24,12467.5,28582.8)"
                spreadMethod="pad"
                id="linearGradient200"><stop
         style="stop-opacity:1;stop-color:#09005d"
         offset="0"
         id="stop196" />
            <stop
                    style="stop-opacity:1;stop-color:#1a0f91"
                    offset="1"
                    id="stop198"/></linearGradient>
        <clipPath
                clipPathUnits="userSpaceOnUse"
                id="clipPath228"><path
         d="m 15254,26715.8 v -617.6 h 206.9 c 85.5,0 149.2,26.2 191,78.5 41.8,52.3 62.7,133.4 62.7,243.1 0,197.3 -86.6,296 -259.8,296 z m 0,342.8 h 188.8 c 86.5,0 147.4,23.1 182.7,69.4 35.2,46.3 52.8,115.3 52.8,206.9 0,91.6 -20.1,157.3 -60.4,197 -40.2,39.8 -103.7,59.7 -190.2,59.7 H 15254 Z m -386.6,887.8 h 563.3 c 229.5,0 396.6,-44.5 501.3,-133.6 104.7,-89.1 157,-230.8 157,-425.1 0,-127.8 -27.6,-234.8 -83,-320.8 -55.4,-86.1 -130.9,-138.2 -226.5,-156.3 v -15.1 c 124.8,-31.2 214.9,-89.6 270.3,-175.2 55.3,-85.5 83,-199.3 83,-341.2 0,-200.4 -53.6,-357.2 -160.8,-470.4 -107.2,-113.3 -253.9,-169.9 -440.2,-169.9 h -664.4 z"
         id="path226" /></clipPath>
        <linearGradient
                x1="0"
                y1="0"
                x2="1"
                y2="0"
                gradientUnits="userSpaceOnUse"
                gradientTransform="matrix(1293.42,10551.6,10551.6,-1293.42,15563.8,27651)"
                spreadMethod="pad"
                id="linearGradient234"><stop
         style="stop-opacity:1;stop-color:#4042e2"
         offset="0"
         id="stop230" />
            <stop
                    style="stop-opacity:1;stop-color:#4f52ff"
                    offset="1"
                    id="stop232"/></linearGradient>
        <clipPath
                clipPathUnits="userSpaceOnUse"
                id="clipPath244"><path
         d="m 16434.8,25738.8 v 2207.6 h 410.8 v -1848.2 h 569.2 v -359.4 z"
         id="path242" /></clipPath>
        <linearGradient
                x1="0"
                y1="0"
                x2="1"
                y2="0"
                gradientUnits="userSpaceOnUse"
                gradientTransform="matrix(1293.42,10551.6,10551.6,-1293.42,17002.3,27474.7)"
                spreadMethod="pad"
                id="linearGradient250"><stop
         style="stop-opacity:1;stop-color:#4042e2"
         offset="0"
         id="stop246" />
            <stop
                    style="stop-opacity:1;stop-color:#4f52ff"
                    offset="1"
                    id="stop248"/></linearGradient>
        <clipPath
                clipPathUnits="userSpaceOnUse"
                id="clipPath260"><path
         d="m 18029.4,26845.7 c 0,-251.7 31.7,-443.5 95.2,-575.4 63.4,-131.9 156.5,-197.8 279.3,-197.8 247.7,0 371.5,257.7 371.5,773.2 0,515.4 -122.9,773.1 -368.5,773.1 -124.8,0 -218.9,-65.7 -282.3,-197.1 -63.5,-131.3 -95.2,-323.4 -95.2,-576 z m 1167.3,0 c 0,-365.5 -68.5,-646.3 -205.4,-842.6 -136.9,-196.3 -332.7,-294.5 -587.4,-294.5 -255.7,0 -452,97.9 -588.9,293.7 -136.9,195.8 -205.4,477.9 -205.4,846.4 0,365.4 68.5,645.5 205.4,840.3 136.9,194.8 334.2,292.2 591.9,292.2 254.7,0 450,-97.9 585.9,-293.7 135.9,-195.8 203.9,-476.4 203.9,-841.8 z"
         id="path258" /></clipPath>
        <linearGradient
                x1="0"
                y1="0"
                x2="1"
                y2="0"
                gradientUnits="userSpaceOnUse"
                gradientTransform="matrix(1293.42,10551.6,10551.6,-1293.42,18458.2,27296.2)"
                spreadMethod="pad"
                id="linearGradient266"><stop
         style="stop-opacity:1;stop-color:#4042e2"
         offset="0"
         id="stop262" />
            <stop
                    style="stop-opacity:1;stop-color:#4f52ff"
                    offset="1"
                    id="stop264"/></linearGradient>
        <clipPath
                clipPathUnits="userSpaceOnUse"
                id="clipPath276"><path
         d="m 20185.7,26963.4 h 675 v -1132.5 c -191.3,-81.5 -394.6,-122.3 -610,-122.3 -256.8,0 -454.3,97.6 -592.7,293 -138.4,195.2 -207.7,476.6 -207.7,844.1 0,354.3 79.3,631.6 237.9,832 158.5,200.3 380.2,300.5 665.1,300.5 176.2,0 344.3,-45.3 504.4,-135.9 l -129.9,-335.3 c -124.8,72.5 -241.6,108.8 -350.3,108.8 -156.1,0 -279.6,-69.8 -370.7,-209.2 -91.1,-139.4 -136.7,-329.4 -136.7,-570 0,-247.7 33,-437.4 98.9,-569.3 66,-131.9 161.8,-197.8 287.7,-197.8 66.4,0 133.9,8.5 202.3,25.7 v 505.8 h -273.3 z"
         id="path274" /></clipPath>
        <linearGradient
                x1="0"
                y1="0"
                x2="1"
                y2="0"
                gradientUnits="userSpaceOnUse"
                gradientTransform="matrix(1293.42,10551.6,10551.6,-1293.42,20238.2,27078)"
                spreadMethod="pad"
                id="linearGradient282"><stop
         style="stop-opacity:1;stop-color:#4042e2"
         offset="0"
         id="stop278" />
            <stop
                    style="stop-opacity:1;stop-color:#4f52ff"
                    offset="1"
                    id="stop280"/></linearGradient>
        <clipPath
                clipPathUnits="userSpaceOnUse"
                id="clipPath318"><path
         d="m 28975.8,5347.8 c 0,0 50.9,-272.4 77.1,-542.4 10.2,-105.5 -70.3,-197.9 -176.2,-203.4 -359.6,-18.4 -1129,-54.9 -1405.2,-45.2 -41.6,1.5 -69.1,43.7 -54.1,82.5 12.5,32.5 37.1,58.9 68.6,73.7 l 1265.7,596.4 z"
         id="path316" /></clipPath>
        <linearGradient
                x1="0"
                y1="0"
                x2="1"
                y2="0"
                gradientUnits="userSpaceOnUse"
                gradientTransform="matrix(4703.19,-5019.21,5019.21,4703.19,27500.8,5711)"
                spreadMethod="pad"
                id="linearGradient324"><stop
         style="stop-opacity:1;stop-color:#09005d"
         offset="0"
         id="stop320" />
            <stop
                    style="stop-opacity:1;stop-color:#1a0f91"
                    offset="1"
                    id="stop322"/></linearGradient>
        <clipPath
                clipPathUnits="userSpaceOnUse"
                id="clipPath334"><path
         d="m 29013.8,5508.6 -35.6,-326.8 c 0,0 -221.7,-105.8 -374.9,9.4 l 88.7,364.7 z"
         id="path332" /></clipPath>
        <linearGradient
                x1="0"
                y1="0"
                x2="1"
                y2="0"
                gradientUnits="userSpaceOnUse"
                gradientTransform="matrix(-413.486,-3.92812,3.92812,-413.486,29015.3,5349.3)"
                spreadMethod="pad"
                id="linearGradient340"><stop
         style="stop-opacity:1;stop-color:#febbba"
         offset="0"
         id="stop336" />
            <stop
                    style="stop-opacity:1;stop-color:#ff928e"
                    offset="1"
                    id="stop338"/></linearGradient>
        <clipPath
                clipPathUnits="userSpaceOnUse"
                id="clipPath350"><path
         d="m 28926.1,11645.9 c 17.6,-85.1 130.4,-4253.5 -297.4,-6126.1 -7,-30.5 8.8,-61.8 37.9,-73.4 68.6,-27.3 203,-66.4 363.7,-70.3 49.7,-1.2 94,31.6 107.6,79.4 123.2,434.7 712.9,2612.4 772.7,4687.9 66.9,2319.1 -0.7,78.9 -0.7,78.9 l -65.9,1432.5 z"
         id="path348" /></clipPath>
        <linearGradient
                x1="0"
                y1="0"
                x2="1"
                y2="0"
                gradientUnits="userSpaceOnUse"
                gradientTransform="matrix(-3744.12,4629.1,-4629.1,-3744.12,-110697,181577)"
                spreadMethod="pad"
                id="linearGradient356"><stop
         style="stop-opacity:1;stop-color:#09005d"
         offset="0"
         id="stop352" />
            <stop
                    style="stop-opacity:1;stop-color:#1a0f91"
                    offset="1"
                    id="stop354"/></linearGradient>
        <clipPath
                clipPathUnits="userSpaceOnUse"
                id="clipPath366"><path
         d="m 30439.6,5219.4 c 0,0 78,-137 155.8,-502.5 14,-66 -31.6,-129.7 -98.6,-136.9 -118.7,-12.8 -301.5,-29.6 -448,-30 -67.5,-0.2 -120.8,58.1 -113.3,125.2 14.9,133.8 63.4,353.6 218,526 z"
         id="path364" /></clipPath>
        <linearGradient
                x1="0"
                y1="0"
                x2="1"
                y2="0"
                gradientUnits="userSpaceOnUse"
                gradientTransform="matrix(4703.39,-5019.43,5019.43,4703.39,28535.9,6681.2)"
                spreadMethod="pad"
                id="linearGradient372"><stop
         style="stop-opacity:1;stop-color:#09005d"
         offset="0"
         id="stop368" />
            <stop
                    style="stop-opacity:1;stop-color:#1a0f91"
                    offset="1"
                    id="stop370"/></linearGradient>
        <clipPath
                clipPathUnits="userSpaceOnUse"
                id="clipPath382"><path
         d="m 30502.9,5640 -85.8,-494.6 c 0,0 -88.8,-67.4 -266.3,-20.9 l 38.1,531.6 z"
         id="path380" /></clipPath>
        <linearGradient
                x1="0"
                y1="0"
                x2="1"
                y2="0"
                gradientUnits="userSpaceOnUse"
                gradientTransform="matrix(-357.005,-3.39155,3.39155,-357.005,30505.4,5384.8)"
                spreadMethod="pad"
                id="linearGradient388"><stop
         style="stop-opacity:1;stop-color:#febbba"
         offset="0"
         id="stop384" />
            <stop
                    style="stop-opacity:1;stop-color:#ff928e"
                    offset="1"
                    id="stop386"/></linearGradient>
        <clipPath
                clipPathUnits="userSpaceOnUse"
                id="clipPath398"><path
         d="m 30691.2,11534.8 c 385.5,-2196.2 -27.2,-5437.4 -170.7,-6072.4 -8.8,-38.9 -39.8,-68.9 -79.1,-75.8 -66.6,-11.7 -176.5,-21.7 -285.2,8.7 -37.4,10.5 -64,43.9 -65.8,82.8 -25,512 -18.9,3656.8 -370.3,4896.3 -17.9,62.8 -56.8,117.3 -110.4,154.7 l -663.6,462.3 -57.8,757 z"
         id="path396" /></clipPath>
        <linearGradient
                x1="0"
                y1="0"
                x2="1"
                y2="0"
                gradientUnits="userSpaceOnUse"
                gradientTransform="matrix(-3744.1,4629.07,-4629.07,-3744.1,-110036,182112)"
                spreadMethod="pad"
                id="linearGradient404"><stop
         style="stop-opacity:1;stop-color:#09005d"
         offset="0"
         id="stop400" />
            <stop
                    style="stop-opacity:1;stop-color:#1a0f91"
                    offset="1"
                    id="stop402"/></linearGradient>
        <clipPath
                clipPathUnits="userSpaceOnUse"
                id="clipPath414"><path
         d="m 28329,15680.6 c 1092.1,28.4 2300.2,-264.9 2300.2,-264.9 343.7,-1896.7 96,-4090.5 96,-4090.5 -843.5,-229.8 -1800.8,118.4 -1800.8,118.4 -148.1,792.7 -825.2,3021.2 -825.2,3021.2 -534.3,61.2 -975.4,210.9 -1339.4,411.1 273.1,322.7 399.4,731.3 453.6,972.6 387.4,-116.3 778.8,-176.7 1115.6,-167.9 z"
         id="path412" /></clipPath>
        <linearGradient
                x1="0"
                y1="0"
                x2="1"
                y2="0"
                gradientUnits="userSpaceOnUse"
                gradientTransform="matrix(4842.59,-9944.59,9944.59,4842.59,25577.7,21546.2)"
                spreadMethod="pad"
                id="linearGradient420"><stop
         style="stop-opacity:1;stop-color:#4042e2"
         offset="0"
         id="stop416" />
            <stop
                    style="stop-opacity:1;stop-color:#4f52ff"
                    offset="1"
                    id="stop418"/></linearGradient>
        <clipPath
                clipPathUnits="userSpaceOnUse"
                id="clipPath430"><path
         d="m 25087.3,17258.6 c 106,130.7 242.4,70.7 242.4,70.7 167.2,-677.5 1015.3,-1220 1883.7,-1480.8 -54.2,-241.3 -180.5,-649.9 -453.6,-972.6 -1444.7,794.2 -1672.5,2382.7 -1672.5,2382.7 z"
         id="path428" /></clipPath>
        <linearGradient
                x1="0"
                y1="0"
                x2="1"
                y2="0"
                gradientUnits="userSpaceOnUse"
                gradientTransform="matrix(-2112.57,-20.0694,20.0694,-2112.57,27210.8,16120.9)"
                spreadMethod="pad"
                id="linearGradient436"><stop
         style="stop-opacity:1;stop-color:#febbba"
         offset="0"
         id="stop432" />
            <stop
                    style="stop-opacity:1;stop-color:#ff928e"
                    offset="1"
                    id="stop434"/></linearGradient>
        <clipPath
                clipPathUnits="userSpaceOnUse"
                id="clipPath446"><path
         d="m 25113.6,17225.9 c -10.9,-35.8 119.7,-88.9 194.8,57.8 2,70 41.7,370.2 -0.6,426.8 -225.6,301.4 -660.9,677.8 -660.9,677.8 -72.3,-72.7 -11.5,-142.9 -11.5,-142.9 l 211.5,-216.1 c -43,-79.6 -95.8,-146.9 -119.9,-242.9 -18.3,-72.7 -6,-150 31.3,-215.7 37.4,-65.8 88.3,-151.5 136.4,-218.4 91,-126.6 218.9,-126.4 218.9,-126.4 z"
         id="path444" /></clipPath>
        <linearGradient
                x1="0"
                y1="0"
                x2="1"
                y2="0"
                gradientUnits="userSpaceOnUse"
                gradientTransform="matrix(-782.863,1599.76,1599.76,782.863,25510,16666.2)"
                spreadMethod="pad"
                id="linearGradient452"><stop
         style="stop-opacity:1;stop-color:#febbba"
         offset="0"
         id="stop448" />
            <stop
                    style="stop-opacity:1;stop-color:#ff928e"
                    offset="1"
                    id="stop450"/></linearGradient>
        <clipPath
                clipPathUnits="userSpaceOnUse"
                id="clipPath462"><path
         d="m 24939.9,17888.6 192.3,-159.9 61.5,-160.5 -168.3,-190.4 c 0,0 -60.3,319 -103.5,387.8 -43.2,68.8 -21.4,102.4 18,123 z"
         id="path460" /></clipPath>
        <linearGradient
                x1="0"
                y1="0"
                x2="1"
                y2="0"
                gradientUnits="userSpaceOnUse"
                gradientTransform="matrix(-600.136,903.807,-903.807,-600.136,25094.8,17529.1)"
                spreadMethod="pad"
                id="linearGradient468"><stop
         style="stop-opacity:1;stop-color:#febbba"
         offset="0"
         id="stop464" />
            <stop
                    style="stop-opacity:1;stop-color:#ff928e"
                    offset="1"
                    id="stop466"/></linearGradient>
        <clipPath
                clipPathUnits="userSpaceOnUse"
                id="clipPath478"><path
         d="m 30220.4,14354 408.8,1061.7 c 0,0 1026.9,-683.5 1203,-1560.8 -192.6,-16 -542.9,-69.5 -884.6,-246.2 -79.4,414.3 -727.2,745.3 -727.2,745.3 z"
         id="path476" /></clipPath>
        <linearGradient
                x1="0"
                y1="0"
                x2="1"
                y2="0"
                gradientUnits="userSpaceOnUse"
                gradientTransform="matrix(4842.58,-9944.57,9944.57,4842.58,27074.8,22275.2)"
                spreadMethod="pad"
                id="linearGradient484"><stop
         style="stop-opacity:1;stop-color:#4042e2"
         offset="0"
         id="stop480" />
            <stop
                    style="stop-opacity:1;stop-color:#4f52ff"
                    offset="1"
                    id="stop482"/></linearGradient>
        <clipPath
                clipPathUnits="userSpaceOnUse"
                id="clipPath494"><path
         d="m 29338.3,13350.3 c 0,0 1151.6,-636.4 1532.9,-79.9 79.1,115.5 97.2,229.8 76.4,338.3 341.7,176.7 692,230.2 884.6,246.2 53.2,-264.5 29.1,-546.6 -123.9,-832.9 -665.2,-1244.9 -2518.9,44.5 -2518.9,44.5 z"
         id="path492" /></clipPath>
        <linearGradient
                x1="0"
                y1="0"
                x2="1"
                y2="0"
                gradientUnits="userSpaceOnUse"
                gradientTransform="matrix(-2673.4,-25.3973,25.3973,-2673.4,31862,13172.7)"
                spreadMethod="pad"
                id="linearGradient500"><stop
         style="stop-opacity:1;stop-color:#febbba"
         offset="0"
         id="stop496" />
            <stop
                    style="stop-opacity:1;stop-color:#ff928e"
                    offset="1"
                    id="stop498"/></linearGradient>
        <clipPath
                clipPathUnits="userSpaceOnUse"
                id="clipPath510"><path
         d="m 29426.9,16577.9 357.2,-1001.8 c 5.9,-16.6 -0.8,-35.1 -16.1,-43.8 -94.3,-53.2 -434.1,-207.9 -848,49 -43.1,26.7 -72.7,70.8 -79.6,121 l -120.9,868.8 z"
         id="path508" /></clipPath>
        <linearGradient
                x1="0"
                y1="0"
                x2="1"
                y2="0"
                gradientUnits="userSpaceOnUse"
                gradientTransform="matrix(-1021.12,2008.2,2008.2,1021.12,29937.5,14549.2)"
                spreadMethod="pad"
                id="linearGradient516"><stop
         style="stop-opacity:1;stop-color:#febbba"
         offset="0"
         id="stop512" />
            <stop
                    style="stop-opacity:1;stop-color:#ff928e"
                    offset="1"
                    id="stop514"/></linearGradient>
        <clipPath
                clipPathUnits="userSpaceOnUse"
                id="clipPath526"><path
         d="m 28661.8,17501.4 c 0,0 -374.7,-722 -323.1,-1011.8 51.7,-289.7 524.5,-264.4 935.3,-24.7 l 281.2,778.4 z"
         id="path524" /></clipPath>
        <linearGradient
                x1="0"
                y1="0"
                x2="1"
                y2="0"
                gradientUnits="userSpaceOnUse"
                gradientTransform="matrix(324.139,1842.57,-1842.57,324.139,49104.3,131522)"
                spreadMethod="pad"
                id="linearGradient532"><stop
         style="stop-opacity:1;stop-color:#febbba"
         offset="0"
         id="stop528" />
            <stop
                    style="stop-opacity:1;stop-color:#ff928e"
                    offset="1"
                    id="stop530"/></linearGradient>
        <clipPath
                clipPathUnits="userSpaceOnUse"
                id="clipPath542"><path
         d="m 29252.1,16845.6 c -16.9,7.3 -23.2,27.8 -13.3,43.3 30.1,47 86.5,142.8 104,226.4 0,0 68.2,44.6 -175.6,100.5 -243.8,55.9 -607.4,142.8 -685.6,349.1 -76.2,201.1 114.2,710.6 429.7,309.1 12,-15.2 35.2,-15.4 46.9,0.2 50.4,66.9 183.4,206.2 370.6,124.3 175.3,-76.6 196.1,-204.3 194.4,-268.7 -0.6,-19 16.5,-33.6 35.1,-29.8 88.1,17.6 299.6,34.1 400.5,-182.1 83.1,-178.1 31.2,-279.9 -16.5,-329.8 -15.5,-16.2 -8.4,-42.6 13.1,-48.9 58.1,-17.2 133.4,-65.7 127.2,-201.6 -8.5,-187.9 -218.6,-173.3 -278.5,-165.3 -9.8,1.3 -19.6,-2.2 -26.2,-9.6 -50.7,-57.2 -279.3,-300.2 -529,-331.6 -21.6,-2.7 -38.6,18.5 -31.7,39.1 l 105.2,315.5 c 4.9,14.6 -2.3,30.6 -16.4,36.7 z"
         id="path540" /></clipPath>
        <linearGradient
                x1="0"
                y1="0"
                x2="1"
                y2="0"
                gradientUnits="userSpaceOnUse"
                gradientTransform="matrix(-1490.09,-1200.06,1200.06,-1490.09,30230.6,18144)"
                spreadMethod="pad"
                id="linearGradient548"><stop
         style="stop-opacity:1;stop-color:#09005d"
         offset="0"
         id="stop544" />
            <stop
                    style="stop-opacity:1;stop-color:#1a0f91"
                    offset="1"
                    id="stop546"/></linearGradient>
        <clipPath
                clipPathUnits="userSpaceOnUse"
                id="clipPath558"><path
         d="m 29209.1,16800.6 c 0,0 269.9,189 291.3,32.2 21.3,-156.8 -242.6,-229.7 -374.2,-172.4 z"
         id="path556" /></clipPath>
        <linearGradient
                x1="0"
                y1="0"
                x2="1"
                y2="0"
                gradientUnits="userSpaceOnUse"
                gradientTransform="matrix(324.14,1842.57,-1842.57,324.14,49495.2,131453)"
                spreadMethod="pad"
                id="linearGradient564"><stop
         style="stop-opacity:1;stop-color:#febbba"
         offset="0"
         id="stop560" />
            <stop
                    style="stop-opacity:1;stop-color:#ff928e"
                    offset="1"
                    id="stop562"/></linearGradient>
        <clipPath
                clipPathUnits="userSpaceOnUse"
                id="clipPath574"><path
         d="m 29573.6,12344.5 -627.3,2190.9 c -7.1,24.8 -28.4,43 -54.1,46 -113.6,13.2 -443,50.5 -823.3,82.6 -458,38.8 -990,70.2 -1307.8,43.5 -45.2,-3.8 -72.5,-51.6 -52.4,-92.3 180.7,-365.7 924.3,-1853.3 1296.6,-2340.6 12.3,-16.1 31.4,-25.6 51.7,-25.4 l 1455.6,13.6 c 42.4,0.4 72.7,41 61,81.7 z"
         id="path572" /></clipPath>
        <linearGradient
                x1="0"
                y1="0"
                x2="1"
                y2="0"
                gradientUnits="userSpaceOnUse"
                gradientTransform="matrix(-1475.17,-6146.57,6146.57,-1475.17,28471.7,14871.4)"
                spreadMethod="pad"
                id="linearGradient580"><stop
         style="stop-opacity:1;stop-color:#09005d"
         offset="0"
         id="stop576" />
            <stop
                    style="stop-opacity:1;stop-color:#1a0f91"
                    offset="1"
                    id="stop578"/></linearGradient>
        <clipPath
                clipPathUnits="userSpaceOnUse"
                id="clipPath590"><path
         d="m 29422.1,12873.8 c 0,0 87.4,359.4 52.1,486.9 -35.3,127.4 -103.6,291.4 -331.2,254.9 -227.7,-36.4 -496.2,-132.3 -496.2,-132.3 0,0 13.5,-166.1 186.6,-112.5 l -107.3,-83 c 0,0 15.3,-133 161.4,-61.9 l -99.7,-110.1 c 0,0 62.7,-109.2 170.3,-39.2 107.5,70.1 159,-246.1 464,-202.8 z"
         id="path588" /></clipPath>
        <linearGradient
                x1="0"
                y1="0"
                x2="1"
                y2="0"
                gradientUnits="userSpaceOnUse"
                gradientTransform="matrix(-835.8,0,0,-835.8,29482.6,13245.3)"
                spreadMethod="pad"
                id="linearGradient596"><stop
         style="stop-opacity:1;stop-color:#febbba"
         offset="0"
         id="stop592" />
            <stop
                    style="stop-opacity:1;stop-color:#ff928e"
                    offset="1"
                    id="stop594"/></linearGradient></defs>
    <sodipodi:namedview
            pagecolor="#ffffff"
            bordercolor="#666666"
            borderopacity="1"
            objecttolerance="10"
            gridtolerance="10"
            guidetolerance="10"
            inkscape:pageopacity="0"
            inkscape:pageshadow="2"
            inkscape:window-width="640"
            inkscape:window-height="480"
            id="namedview4"/>
    <g
            id="g10"
            inkscape:groupmode="layer"
            inkscape:label="ink_ext_XXXXXX"
            transform="matrix(1.3333333,0,0,-1.3333333,0,4946.6667)"><g
       id="g12"
       transform="scale(0.1)"><path
         d="M 0,0 H 37100 V 37100 H 0 Z"
         style="fill:#ffffff;fill-opacity:1;fill-rule:nonzero;stroke:none"
         id="path14" /><g
            id="g16"><g
           id="g18"
           clip-path="url(#clipPath22)"><path
             d="m 16471,5440.2 c -424.6,0 -842.8,17.1 -1253.3,51 -1545.9,128 -4656.1,385.4 -7084.62,2682 -498.99,471.9 -936.28,998.6 -1314.06,1570.1 4071.48,-98.5 14368.18,-284.9 20547.58,-327 C 24297.1,6729.4 20160.7,5440.2 16471,5440.2 m 14454.1,19666.6 c -9.7,0.5 -19.4,0.9 -29,1.2 -960.5,30.7 -2747.1,78.2 -4953.5,130.6 l 3,3501.2 c 0,347.1 -281.4,628.6 -628.5,628.6 H 10833.4 c 1842,1490.5 4744.8,3181.6 8451.6,3181.6 41.1,0 82.1,-0.2 123.4,-0.6 4540.4,-45.9 7727.3,-2610.8 8114.9,-2930.3 489.5,-403.7 1569.2,-1362.9 2542.3,-2884.6 329.6,-515.5 616,-1060.6 859.5,-1627.7 m -21236.43,420.9 c -741.48,5.8 -1423.14,9 -2027.94,9 -70.89,0 -140.92,0 -209.65,-0.1 363.55,595.6 764.26,1162.5 1201.07,1693.5 142.47,173.2 493.9,591 1036.52,1120.6 v -2823"
             style="fill:url(#linearGradient28);fill-opacity:1;fill-rule:nonzero;stroke:none"
             id="path30" /></g></g><g
            id="g32"><g
           id="g34"
           clip-path="url(#clipPath38)"><path
             d="m 16319.9,10704 -608.2,-4197.4 h 7056.5 l -919.1,4197.4 h -5529.2"
             style="fill:url(#linearGradient44);fill-opacity:1;fill-rule:nonzero;stroke:none"
             id="path46" /></g></g><g
            id="g48"><g
           id="g50"
           clip-path="url(#clipPath54)"><path
             d="m 29572,9407.7 c -647.7,0 -1391,3.1 -2205.4,8.6 -6179.4,42.1 -16476.1,228.5 -20547.58,327 -181.67,4.4 -350.57,8.6 -506.54,12.6 -1027.38,26.5 -1846.35,866.9 -1846.35,1894.7 v 12493.1 c 0,749 597.91,1360.7 1346.71,1377.5 430.89,9.7 984.71,14.5 1638.24,15.4 68.73,0.1 138.76,0.1 209.65,0.1 604.8,0 1286.46,-3.2 2027.94,-9 V 24979 l -3571.22,72.1 c -6.99,0.2 -14.06,0.3 -21.02,0.3 -466.11,0 -846.39,-378.1 -846.39,-846.9 V 12335.2 c 0,-600.1 481.66,-1089 1081.64,-1098 l 9193.52,-113.5 9884.1,-139.3 v 2.8 l 521,-7.2 v 15.1 L 30554,10938 c 5.4,-0.1 10.9,-0.1 16.3,-0.1 587.4,0 1066.1,475.2 1068.3,1064.7 l 36.6,10626.4 299.6,1886.4 c 2.3,14.7 3.8,29.3 4.5,43.8 147.9,-188.4 250,-415.5 288.9,-665.8 503.4,-3240.2 367.4,-10219.3 283.6,-13121.6 -21.5,-746.4 -626.3,-1343.8 -1372.9,-1354.8 -429.5,-6.4 -972.5,-9.3 -1606.9,-9.3 m -922.4,15188.2 -2707.5,54.7 0.5,588 c 2206.4,-52.4 3993,-99.9 4953.5,-130.6 9.6,-0.3 19.3,-0.7 29,-1.2 192.9,-10 376.5,-58.3 542.7,-137.6 l -2818.2,-373.3"
             style="fill:url(#linearGradient60);fill-opacity:1;fill-rule:nonzero;stroke:none"
             id="path62" /></g></g><g
            id="g64"><g
           id="g66"
           clip-path="url(#clipPath70)"><path
             d="m 30570.3,10937.9 c -5.4,0 -10.9,0 -16.3,0.1 l -4623.7,57.1 11.8,13655.5 2707.5,-54.7 -720.8,-95.5 c -190.3,-25.2 -336.2,-181.5 -348.3,-373 l -210.1,-3328.3 c -14.4,-228.9 165.2,-423.4 394.4,-427.2 l 3194,-52.5 c 2.2,-0.1 4.4,-0.1 6.7,-0.1 197.2,0 365.8,143.4 396.8,338.8 l 312.9,1970.9 -36.6,-10626.4 c -2.2,-589.5 -480.9,-1064.7 -1068.3,-1064.7 m -15045.1,185.8 -9193.52,113.5 c -599.98,9 -1081.64,497.9 -1081.64,1098 v 11869.3 c 0,468.8 380.28,846.9 846.39,846.9 6.96,0 14.03,-0.1 21.02,-0.3 L 9688.67,24979 V 11205.9 l 480.43,-6.6 v -0.2 l 5356.1,-75.4"
             style="fill:url(#linearGradient76);fill-opacity:1;fill-rule:nonzero;stroke:none"
             id="path78" /></g></g><path
            d="m 31821,10451.5 h -0.6 l -26570.94,452.8 c -18.55,0.3 -33.33,15.6 -33.01,34.1 0.31,18.6 15.81,32.7 34.16,33 l 26570.89,-452.7 c 18.6,-0.3 33.4,-15.6 33.1,-34.1 -0.4,-18.4 -15.3,-33.1 -33.6,-33.1"
            style="fill:#91b3fa;fill-opacity:1;fill-rule:nonzero;stroke:none"
            id="path80"/><path
            d="m 18797.6,10451.5 c -133.9,0 -242.9,-108.9 -242.9,-242.9 0,-133.9 109,-242.8 242.9,-242.8 133.9,0 242.9,108.9 242.9,242.8 0,134 -109,242.9 -242.9,242.9 z m 0,-552.9 c -170.9,0 -310,139.1 -310,310 0,171 139.1,310.1 310,310.1 171,0 310.1,-139.1 310.1,-310.1 0,-170.9 -139.1,-310 -310.1,-310"
            style="fill:#91b3fa;fill-opacity:1;fill-rule:nonzero;stroke:none"
            id="path82"/><g
            id="g84"><g
           id="g86"
           clip-path="url(#clipPath90)"><path
             d="M 24288.2,5390.5 H 13960.5 c -280.6,0 -491.3,199.8 -437.1,414.3 l 132.6,524.1 c 39.8,157.7 213.2,273.4 419.2,279.8 l 9956.3,310.7 c 215.2,6.7 405.7,-107.5 452.6,-271.3 l 238.9,-834.8 c 62,-216.9 -149.7,-422.8 -434.8,-422.8"
             style="fill:url(#linearGradient96);fill-opacity:1;fill-rule:nonzero;stroke:none"
             id="path98" /></g></g><path
            d="m 19520.1,6466.8 c -18.3,0 -33.3,14.7 -33.6,33.1 -0.3,18.6 14.5,33.8 33.1,34.1 l 426.6,6.2 c 17.9,-0.1 33.8,-14.6 34.1,-33.1 0.3,-18.6 -14.5,-33.8 -33.1,-34.1 l -426.6,-6.2 h -0.5"
            style="fill:#91b3fa;fill-opacity:1;fill-rule:nonzero;stroke:none"
            id="path100"/><path
            d="m 13905.8,5679.6 c -1.8,0 -3.6,0.1 -5.4,0.4 -18.3,2.9 -30.7,20.1 -27.8,38.4 l 60.9,381.2 c 32.6,204.8 206.9,355.7 414.3,358.7 l 4525.2,66.2 h 0.5 c 18.3,0 33.3,-14.7 33.6,-33.1 0.2,-18.5 -14.6,-33.8 -33.1,-34 l -4525.2,-66.2 c -174.7,-2.6 -321.5,-129.6 -349,-302.1 l -60.9,-381.2 c -2.6,-16.6 -16.9,-28.3 -33.1,-28.3"
            style="fill:#91b3fa;fill-opacity:1;fill-rule:nonzero;stroke:none"
            id="path102"/><path
            d="m 25930.3,10980 -16241.63,225.9 v 17490.7 c 0,371 300.74,671.8 671.73,671.8 h 14956.7 c 347.1,0 628.5,-281.5 628.5,-628.6 L 25930.3,10980"
            style="fill:#91b3fa;fill-opacity:1;fill-rule:nonzero;stroke:none"
            id="path104"/><path
            d="m 25409.3,10984.4 -15240.2,214.7 v 17034.1 c 0,367.7 294.4,665.7 657.5,665.7 h 13967.3 c 339.9,0 615.4,-278.9 615.4,-623 V 10984.4"
            style="fill:#bdd0fb;fill-opacity:1;fill-rule:nonzero;stroke:none"
            id="path106"/><path
            d="M 24075.1,18049.5 H 11832.8 c -48.5,0 -87.8,39.3 -87.8,87.8 v 5830.9 c 0,48.5 39.3,87.8 87.8,87.8 h 12242.3 c 48.5,0 87.8,-39.3 87.8,-87.8 v -5830.9 c 0,-48.5 -39.3,-87.8 -87.8,-87.8"
            style="fill:#e2ebfd;fill-opacity:1;fill-rule:nonzero;stroke:none"
            id="path108"/><path
            d="M 24700.7,15639 H 10982.2 c -24.1,0 -43.7,19.6 -43.7,43.7 v 1242.4 c 0,24.1 19.6,43.7 43.7,43.7 h 13718.5 c 24.1,0 43.7,-19.6 43.7,-43.7 v -1242.4 c 0,-24.1 -19.6,-43.7 -43.7,-43.7"
            style="fill:#e2ebfd;fill-opacity:1;fill-rule:nonzero;stroke:none"
            id="path110"/><path
            d="M 24647.6,13435.5 H 10981.2 c -38.5,0 -69.7,31.2 -69.7,69.7 v 1190.2 c 0,38.6 31.2,69.8 69.7,69.8 h 13666.4 c 38.5,0 69.7,-31.2 69.7,-69.8 v -1190.2 c 0,-38.5 -31.2,-69.7 -69.7,-69.7"
            style="fill:#e2ebfd;fill-opacity:1;fill-rule:nonzero;stroke:none"
            id="path112"/><path
            d="M 24668.6,11379.8 H 11022.2 c -44,0 -79.7,35.7 -79.7,79.8 v 1170.2 c 0,44 35.7,79.7 79.7,79.7 h 13646.4 c 44,0 79.7,-35.7 79.7,-79.7 v -1170.2 c 0,-44.1 -35.7,-79.8 -79.7,-79.8"
            style="fill:#e2ebfd;fill-opacity:1;fill-rule:nonzero;stroke:none"
            id="path114"/><g
            id="g116"><g
           id="g118"
           clip-path="url(#clipPath122)"><path
             d="m 6077.79,17536.5 c 0,0 1742.75,-4596.2 2293.35,-5552.4 639.14,-1109.9 2505.76,-402.6 2412.86,526.3 -92.9,928.8 -2273.73,4768.1 -2273.73,4768.1 l -2432.48,258"
             style="fill:url(#linearGradient128);fill-opacity:1;fill-rule:nonzero;stroke:none"
             id="path130" /></g></g><g
            id="g132"><g
           id="g134"
           clip-path="url(#clipPath138)"><path
             d="M 8432.57,20884.6 19264.4,24640.2 19150.7,14477 8136.55,16934.5 l 296.02,3950.1"
             style="fill:url(#linearGradient144);fill-opacity:1;fill-rule:nonzero;stroke:none"
             id="path146" /></g></g><path
            d="m 20338.8,19529.1 c 0,-2884.6 -476.4,-5223 -1064.2,-5223 -587.7,0 -1064.1,2338.4 -1064.1,5223 0,2884.5 476.4,5222.9 1064.1,5222.9 587.8,0 1064.2,-2338.4 1064.2,-5222.9"
            style="fill:#7d97f4;fill-opacity:1;fill-rule:nonzero;stroke:none"
            id="path148"/><g
            id="g150"><g
           id="g152"
           clip-path="url(#clipPath156)"><path
             d="m 19355.4,14663.3 c -96.2,97.8 -305.7,475.2 -485.3,1451 -173.7,943.1 -269.3,2166.3 -269.3,3444.3 0,1278 95.6,2501.1 269.3,3444.2 179.6,975.8 389.1,1353.2 485.3,1451 96.2,-97.8 305.7,-475.2 485.4,-1451 173.6,-943.1 269.2,-2166.2 269.2,-3444.2 0,-1278 -95.6,-2501.2 -269.2,-3444.3 -179.7,-975.8 -389.2,-1353.2 -485.4,-1451"
             style="fill:url(#linearGradient162);fill-opacity:1;fill-rule:nonzero;stroke:none"
             id="path164" /></g></g><g
            id="g166"><g
           id="g168"
           clip-path="url(#clipPath172)"><g
             id="g174"
             clip-path="url(#clipPath178)"><path
               d="m 19258,17990 v 1 h -32 v 1 h -25 v 1 h -16 v 1 h -17 v 1 h -14 v 1 h -12 v 1 h -12 v 1 h -11 v 1 h -10 v 1 h -9 v 1 h -9 v 1 h -10 v 1 h -8 v 1 h -8 v 1 h -7 v 1 h -8 v 1 h -8 v 1 h -7 v 1 h -7 v 1 h -6 v 1 h -7 v 1 h -6 v 1 h -7 v 1 h -6 v 1 h -6 v 1 h -6 v 1 h -5 v 1 h -6 v 1 h -6 v 1 h -5 v 1 h -6 v 1 h -5 v 1 h -5 v 1 h -5 v 1 h -5 v 1 h -5 v 1 h -5 v 1 h -5 v 1 h -5 v 1 h -5 v 1 h -4 v 1 h -5 v 1 h -4 v 1 h -4 v 1 h -5 v 1 h -4 v 1 h -5 v 1 h -4 v 1 h -4 v 1 h -5 v 1 h -4 v 1 h -4 v 1 h -4 v 1 h -3 v 1 h -4 v 1 h -4 v 1 h -4 v 1 h -4 v 1 h -4 v 1 h -4 v 1 h -4 v 1 h -3 v 1 h -4 v 1 h -4 v 1 h -3 v 1 h -4 v 1 h -3 v 1 h -4 v 1 h -4 v 1 h -3 v 1 h -4 v 1 h -3 v 1 h -4 v 1 h -3 v 1 h -3 v 1 h -3 v 1 h -4 v 1 h -3 v 1 h -3 v 1 h -4 v 1 h -3 v 1 h -3 v 1 h -3 v 1 h -4 v 1 h -3 v 1 h -3 v 1 h -3 v 1 h -3 v 1 h -3 v 1 h -3 v 1 h -3 v 1 h -3 v 1 h -3 v 1 h -3 v 1 h -3 v 1 h -3 v 1 h -3 v 1 h -3 v 1 h -3 v 1 h -2 v 1 h -3 v 1 h -3 v 1 h -3 v 1 h -3 v 1 h -3 v 1 h -2 v 1 h -3 v 1 h -3 v 1 h -3 v 1 h -3 v 1 h -2 v 1 h -3 v 1 h -3 v 1 h -2 v 1 h -3 v 1 h -2 v 1 h -3 v 1 h -3 v 1 h -2 v 1 h -3 v 1 h -1 v 15 h -1 v 16 h -1 v 17 h -1 v 18 h -1 v 19 h -1 v 18 h -1 v 18 h -1 v 18 h -1 v 18 h -1 v 20 h -1 v 20 h -1 v 20 h -1 v 20 h -1 v 20 h -1 v 21 h -1 v 22 h -1 v 22 h -1 v 23 h -1 v 22 h -1 v 22 h -1 v 25 h -1 v 25 h -1 v 25 h -1 v 25 h -1 v 26 h -1 v 28 h -1 v 29 h -1 v 28 h -1 v 30 h -1 v 33 h -1 v 32 h -1 v 33 h -1 v 37 h -1 v 39 h -1 v 39 h -1 v 45 h -1 v 47 h -1 v 51 h -1 v 61 h -1 v 69 h -1 v 85 h -1 v 153 h -1 v 187 h 1 v 153 h 1 v 86 h 1 v 68 h 1 v 61 h 1 v 51 h 1 v 47 h 1 v 45 h 1 v 39 h 1 v 39 h 1 v 37 h 1 v 33 h 1 v 33 h 1 v 32 h 1 v 30 h 1 v 28 h 1 v 29 h 1 v 28 h 1 v 26 h 1 v 25 h 1 v 25 h 1 v 25 h 1 v 25 h 1 v 22 h 1 v 23 h 1 v 22 h 1 v 22 h 1 v 22 h 1 v 21 h 1 v 20 h 1 v 20 h 1 v 20 h 1 v 20 h 1 v 20 h 1 v 18 h 1 v 18 h 1 v 18 h 1 v 19 h 1 v 18 h 1 v 18 h 1 v 17 h 1 v 17 h 1 v 16 h 1 v 17 h 1 v 17 h 1 v 16 h 1 v 17 h 1 v 11 h 2 v 1 h 2 v 1 h 3 v 1 h 2 v 1 h 3 v 1 h 3 v 1 h 2 v 1 h 3 v 1 h 3 v 1 h 3 v 1 h 2 v 1 h 3 v 1 h 3 v 1 h 3 v 1 h 3 v 1 h 2 v 1 h 3 v 1 h 3 v 1 h 3 v 1 h 3 v 1 h 2 v 1 h 3 v 1 h 3 v 1 h 3 v 1 h 3 v 1 h 3 v 1 h 3 v 1 h 3 v 1 h 3 v 1 h 3 v 1 h 3 v 1 h 4 v 1 h 3 v 1 h 3 v 1 h 3 v 1 h 3 v 1 h 3 v 1 h 3 v 1 h 4 v 1 h 3 v 1 h 3 v 1 h 4 v 1 h 3 v 1 h 3 v 1 h 3 v 1 h 4 v 1 h 3 v 1 h 4 v 1 h 3 v 1 h 4 v 1 h 3 v 1 h 4 v 1 h 4 v 1 h 3 v 1 h 4 v 1 h 3 v 1 h 4 v 1 h 3 v 1 h 4 v 1 h 4 v 1 h 4 v 1 h 4 v 1 h 4 v 1 h 4 v 1 h 4 v 1 h 4 v 1 h 4 v 1 h 4 v 1 h 4 v 1 h 4 v 1 h 5 v 1 h 4 v 1 h 4 v 1 h 5 v 1 h 4 v 1 h 4 v 1 h 5 v 1 h 4 v 1 h 5 v 1 h 5 v 1 h 5 v 1 h 5 v 1 h 5 v 1 h 4 v 1 h 5 v 1 h 5 v 1 h 5 v 1 h 6 v 1 h 5 v 1 h 6 v 1 h 6 v 1 h 5 v 1 h 6 v 1 h 5 v 1 h 7 v 1 h 6 v 1 h 6 v 1 h 7 v 1 h 6 v 1 h 7 v 1 h 6 v 1 h 8 v 1 h 8 v 1 h 7 v 1 h 8 v 1 h 8 v 1 h 8 v 1 h 10 v 1 h 9 v 1 h 9 v 1 h 9 v 1 h 12 v 1 h 13 v 1 h 12 v 1 h 13 v 1 h 17 v 1 h 17 v 1 h 26 v 1 h 36 v 1 h 62 v -1 h 31 v -1 h 28 v -1 h 13 v -1 h 14 v -1 h 14 v -1 h 13 v -1 h 14 v -1 h 14 v -1 h 8 v -1 h 8 v -1 h 8 v -1 h 8 v -1 h 8 v -1 h 8 v -1 h 8 v -1 h 8 v -1 h 8 v -1 h 8 v -1 h 6 v -1 h 5 v -1 h 6 v -1 h 6 v -1 h 5 v -1 h 6 v -1 h 5 v -1 h 6 v -1 h 6 v -1 h 5 v -1 h 6 v -1 h 5 v -1 h 6 v -1 h 6 v -1 h 4 v -1 h 5 v -1 h 4 v -1 h 4 v -1 h 4 v -1 h 5 v -1 h 4 v -1 h 4 v -1 h 4 v -1 h 5 v -1 h 4 v -1 h 4 v -1 h 4 v -1 h 5 v -1 h 4 v -1 h 4 v -1 h 4 v -1 h 5 v -1 h 3 v -1 h 4 v -1 h 3 v -1 h 4 v -1 h 3 v -1 h 3 v -1 h 4 v -1 h 3 v -1 h 4 v -1 h 3 v -1 h 3 v -1 h 4 v -1 h 3 v -1 h 4 v -1 h 3 v -1 h 3 v -1 h 4 v -1 h 3 v -1 h 3 v -1 h 4 v -1 h 3 v -1 h 4 v -1 h 2 v -1 h 3 v -1 h 3 v -1 h 3 v -1 h 3 v -1 h 2 v -1 h 3 v -1 h 3 v -1 h 3 v -1 h 3 v -1 h 2 v -1 h 3 v -1 h 3 v -1 h 3 v -1 h 3 v -1 h 3 v -1 h 2 v -1 h 3 v -1 h 3 v -1 h 3 v -1 h 3 v -1 h 2 v -1 h 3 v -1 h 3 v -1 h 3 v -1 h 2 v -1 h 3 v -1 h 2 v -1 h 2 v -1 h 3 v -1 h 2 v -1 h 2 v -1 h 3 v -1 h 2 v -1 h 3 v -1 h 2 v -1 h 2 v -1 h 3 v -1 h 2 v -1 h 2 v -1 h 3 v -1 h 2 v -1 h 2 v -1 h 3 v -1 h 2 v -1 h 3 v -1 h 2 v -1 h 2 v -1 h 3 v -1 h 2 v -1 h 2 v -1 h 3 v -1 h 2 v -1 h 2 v -1 h 2 v -1 h 3 v -1 h 2 v -1 h 2 v -1 h 2 v -1 h 2 v -1 h 2 v -1 h 2 v -1 h 2 v -1 h 2 v -1 h 2 v -1 h 2 v -1 h 2 v -1 h 2 v -1 h 2 v -1 h 2 v -1 h 2 v -1 h 2 v -1 h 2 v -1 h 2 v -1 h 2 v -1 h 2 v -1 h 2 v -1 h 2 v -1 h 2 v -1 h 2 v -1 h 2 v -1 h 2 v -1 h 2 v -1 h 2 v -1 h 2 v -1 h 2 v -1 h 2 v -1 h 2 v -1 h 2 v -1 h 2 v -1 h 1 v -1 h 2 v -1 h 2 v -1 h 2 v -1 h 1 v -1 h 2 v -1 h 2 v -1 h 2 v -1 h 1 v -1 h 2 v -1 h 2 v -1 h 2 v -1 h 1 v -1 h 2 v -1 h 2 v -1 h 2 v -1 h 1 v -1 h 2 v -1 h 2 v -1 h 2 v -1 h 2 v -1 h 1 v -1 h 2 v -1 h 2 v -1 h 2 v -1 h 1 v -1 h 2 v -1 h 2 v -1 h 2 v -1 h 1 v -1 h 2 v -1 h 2 v -1 h 1 v -1 h 2 v -1 h 1 v -1 h 2 v -1 h 2 v -1 h 1 v -1 h 2 v -1 h 1 v -1 h 2 v -1 h 1 v -1 h 2 v -1 h 1 v -1 h 2 v -1 h 1 v -1 h 2 v -1 h 2 v -1 h 1 v -1 h 2 v -1 h 1 v -1 h 2 v -1 h 1 v -1 h 2 v -1 h 1 v -1 h 2 v -1 h 2 v -1 h 1 v -1 h 2 v -1 h 1 v -1 h 2 v -1 h 1 v -1 h 2 v -1 h 1 v -1 h 2 v -1 h 1 v -1 h 2 v -1 h 2 v -1 h 1 v -1 h 2 v -1 h 1 v -1 h 1 v -1 h 2 v -1 h 1 v -1 h 1 v -1 h 2 v -1 h 1 v -1 h 2 v -1 h 1 v -1 h 1 v -1 h 2 v -1 h 1 v -1 h 1 v -1 h 2 v -1 h 1 v -1 h 1 v -1 h 2 v -1 h 1 v -1 h 2 v -1 h 1 v -1 h 1 v -1 h 2 v -1 h 1 v -1 h 1 v -1 h 2 v -1 h 1 v -1 h 2 v -1 h 1 v -1 h 1 v -1 h 2 v -1 h 1 v -1 h 1 v -1 h 2 v -1 h 1 v -1 h 1 v -1 h 2 v -1 h 1 v -1 h 2 v -1 h 1 v -1 h 1 v -1 h 2 v -1 h 1 v -1 h 1 v -1 h 1 v -1 h 2 v -1 h 1 v -1 h 1 v -1 h 1 v -1 h 1 v -1 h 2 v -1 h 1 v -1 h 1 v -1 h 1 v -1 h 2 v -1 h 1 v -1 h 1 v -1 h 1 v -1 h 1 v -1 h 2 v -1 h 1 v -1 h 1 v -1 h 1 v -1 h 1 v -1 h 2 v -1 h 1 v -1 h 1 v -1 h 1 v -1 h 1 v -1 h 2 v -1 h 1 v -1 h 1 v -1 h 1 v -1 h 2 v -1 h 1 v -1 h 1 v -1 h 1 v -1 h 1 v -1 h 2 v -1 h 1 v -1 h 1 v -1 h 1 v -1 h 1 v -1 h 2 v -1 h 1 v -1 h 1 v -1 h 1 v -1 h 1 v -1 h 2 v -1 h 1 v -1 h 1 v -1 h 1 v -1 h 1 v -1 h 1 v -1 h 1 v -1 h 1 v -1 h 1 v -1 h 1 v -1 h 1 v -1 h 1 v -1 h 2 v -1 h 1 v -1 h 1 v -1 h 1 v -1 h 1 v -1 h 1 v -1 h 1 v -1 h 1 v -1 h 1 v -1 h 1 v -1 h 1 v -1 h 1 v -1 h 1 v -1 h 2 v -1 h 1 v -1 h 1 v -1 h 1 v -1 h 1 v -1 h 1 v -1 h 1 v -1 h 1 v -1 h 1 v -1 h 1 v -1 h 1 v -1 h 1 v -1 h 2 v -1 h 1 v -1 h 1 v -1 h 1 v -1 h 1 v -1 h 1 v -1 h 1 v -1 h 1 v -1 h 1 v -1 h 1 v -1 h 1 v -1 h 1 v -1 h 1 v -1 h 1 v -1 h 1 v -1 h 1 v -1 h 1 v -1 h 1 v -1 h 1 v -1 h 1 v -1 h 1 v -1 h 1 v -1 h 1 v -1 h 1 v -1 h 1 v -1 h 1 v -1 h 1 v -1 h 1 v -1 h 1 v -1 h 1 v -1 h 1 v -1 h 1 v -1 h 1 v -2 h 1 v -1 h 1 v -1 h 1 v -1 h 1 v -1 h 1 v -1 h 1 v -1 h 1 v -1 h 1 v -1 h 1 v -1 h 1 v -1 h 1 v -1 h 1 v -1 h 1 v -1 h 1 v -1 h 1 v -1 h 1 v -1 h 1 v -1 h 1 v -1 h 1 v -1 h 1 v -1 h 1 v -1 h 1 v -1 h 1 v -1 h 1 v -1 h 1 v -1 h 1 v -1 h 1 v -2 h 1 v -1 h 1 v -1 h 1 v -1 h 1 v -1 h 1 v -1 h 1 v -2 h 1 v -1 h 1 v -1 h 1 v -1 h 1 v -1 h 1 v -1 h 1 v -1 h 1 v -2 h 1 v -1 h 1 v -1 h 1 v -1 h 1 v -1 h 1 v -1 h 1 v -2 h 1 v -1 h 1 v -1 h 1 v -1 h 1 v -1 h 1 v -1 h 1 v -2 h 1 v -1 h 1 v -1 h 1 v -1 h 1 v -1 h 1 v -1 h 1 v -1 h 1 v -2 h 1 v -1 h 1 v -1 h 1 v -1 h 1 v -1 h 1 v -1 h 1 v -2 h 1 v -1 h 1 v -1 h 1 v -1 h 1 v -1 h 1 v -1 h 1 v -2 h 1 v -1 h 1 v -1 h 1 v -1 h 1 v -2 h 1 v -1 h 1 v -1 h 1 v -1 h 1 v -2 h 1 v -1 h 1 v -1 h 1 v -2 h 1 v -1 h 1 v -1 h 1 v -1 h 1 v -2 h 1 v -1 h 1 v -1 h 1 v -2 h 1 v -1 h 1 v -1 h 1 v -2 h 1 v -1 h 1 v -1 h 1 v -1 h 1 v -2 h 1 v -1 h 1 v -1 h 1 v -2 h 1 v -1 h 1 v -1 h 1 v -1 h 1 v -2 h 1 v -1 h 1 v -1 h 1 v -2 h 1 v -1 h 1 v -1 h 1 v -1 h 1 v -2 h 1 v -1 h 1 v -1 h 1 v -2 h 1 v -1 h 1 v -1 h 1 v -2 h 1 v -1 h 1 v -1 h 1 v -2 h 1 v -1 h 1 v -2 h 1 v -1 h 1 v -2 h 1 v -1 h 1 v -2 h 1 v -1 h 1 v -1 h 1 v -2 h 1 v -1 h 1 v -2 h 1 v -1 h 1 v -2 h 1 v -1 h 1 v -2 h 1 v -1 h 1 v -1 h 1 v -2 h 1 v -1 h 1 v -2 h 1 v -1 h 1 v -2 h 1 v -1 h 1 v -2 h 1 v -1 h 1 v -1 h 1 v -2 h 1 v -1 h 1 v -2 h 1 v -1 h 1 v -2 h 1 v -1 h 1 v -2 h 1 v -1 h 1 v -1 h 1 v -2 h 1 v -1 h 1 v -2 h 1 v -2 h 1 v -1 h 1 v -2 h 1 v -1 h 1 v -2 h 1 v -2 h 1 v -1 h 1 v -2 h 1 v -1 h 1 v -2 h 1 v -2 h 1 v -1 h 1 v -2 h 1 v -2 h 1 v -1 h 1 v -2 h 1 v -1 h 1 v -2 h 1 v -2 h 1 v -1 h 1 v -2 h 1 v -1 h 1 v -2 h 1 v -2 h 1 v -1 h 1 v -2 h 1 v -1 h 1 v -2 h 1 v -2 h 1 v -1 h 1 v -2 h 1 v -2 h 1 v -1 h 1 v -2 h 1 v -1 h 1 v -2 h 1 v -2 h 1 v -2 h 1 v -1 h 1 v -2 h 1 v -2 h 1 v -2 h 1 v -2 h 1 v -1 h 1 v -2 h 1 v -2 h 1 v -2 h 1 v -2 h 1 v -1 h 1 v -2 h 1 v -2 h 1 v -2 h 1 v -2 h 1 v -1 h 1 v -2 h 1 v -2 h 1 v -2 h 1 v -2 h 1 v -1 h 1 v -2 h 1 v -2 h 1 v -2 h 1 v -2 h 1 v -2 h 1 v -1 h 1 v -2 h 1 v -2 h 1 v -2 h 1 v -2 h 1 v -1 h 1 v -2 h 1 v -2 h 1 v -2 h 1 v -2 h 1 v -2 h 1 v -2 h 1 v -2 h 1 v -2 h 1 v -2 h 1 v -2 h 1 v -2 h 1 v -2 h 1 v -2 h 1 v -3 h 1 v -2 h 1 v -2 h 1 v -2 h 1 v -2 h 1 v -2 h 1 v -2 h 1 v -2 h 1 v -2 h 1 v -2 h 1 v -2 h 1 v -2 h 1 v -2 h 1 v -2 h 1 v -2 h 1 v -2 h 1 v -2 h 1 v -2 h 1 v -2 h 1 v -2 h 1 v -2 h 1 v -3 h 1 v -2 h 1 v -2 h 1 v -3 h 1 v -2 h 1 v -2 h 1 v -2 h 1 v -3 h 1 v -2 h 1 v -2 h 1 v -3 h 1 v -2 h 1 v -2 h 1 v -2 h 1 v -3 h 1 v -2 h 1 v -2 h 1 v -3 h 1 v -2 h 1 v -2 h 1 v -3 h 1 v -2 h 1 v -2 h 1 v -2 h 1 v -3 h 1 v -2 h 1 v -2 h 1 v -3 h 1 v -2 h 1 v -3 h 1 v -2 h 1 v -3 h 1 v -2 h 1 v -3 h 1 v -3 h 1 v -2 h 1 v -3 h 1 v -3 h 1 v -2 h 1 v -3 h 1 v -2 h 1 v -3 h 1 v -3 h 1 v -2 h 1 v -3 h 1 v -2 h 1 v -3 h 1 v -3 h 1 v -2 h 1 v -3 h 1 v -2 h 1 v -3 h 1 v -3 h 1 v -2 h 1 v -3 h 1 v -3 h 1 v -3 h 1 v -3 h 1 v -3 h 1 v -3 h 1 v -3 h 1 v -3 h 1 v -3 h 1 v -3 h 1 v -3 h 1 v -3 h 1 v -3 h 1 v -3 h 1 v -3 h 1 v -3 h 1 v -3 h 1 v -3 h 1 v -3 h 1 v -3 h 1 v -3 h 1 v -3 h 1 v -3 h 1 v -3 h 1 v -3 h 1 v -3 h 1 v -4 h 1 v -3 h 1 v -4 h 1 v -3 h 1 v -4 h 1 v -3 h 1 v -4 h 1 v -3 h 1 v -4 h 1 v -3 h 1 v -4 h 1 v -3 h 1 v -4 h 1 v -3 h 1 v -4 h 1 v -3 h 1 v -4 h 1 v -3 h 1 v -3 h 1 v -4 h 1 v -4 h 1 v -4 h 1 v -4 h 1 v -4 h 1 v -5 h 1 v -4 h 1 v -4 h 1 v -4 h 1 v -4 h 1 v -4 h 1 v -4 h 1 v -4 h 1 v -4 h 1 v -5 h 1 v -4 h 1 v -4 h 1 v -4 h 1 v -4 h 1 v -5 h 1 v -5 h 1 v -5 h 1 v -5 h 1 v -5 h 1 v -5 h 1 v -5 h 1 v -5 h 1 v -5 h 1 v -5 h 1 v -5 h 1 v -4 h 1 v -5 h 1 v -5 h 1 v -5 h 1 v -6 h 1 v -6 h 1 v -6 h 1 v -7 h 1 v -6 h 1 v -6 h 1 v -6 h 1 v -6 h 1 v -6 h 1 v -7 h 1 v -6 h 1 v -6 h 1 v -6 h 1 v -8 h 1 v -8 h 1 v -8 h 1 v -8 h 1 v -9 h 1 v -8 h 1 v -8 h 1 v -8 h 1 v -8 h 1 v -9 h 1 v -11 h 1 v -12 h 1 v -11 h 1 v -12 h 1 v -11 h 1 v -12 h 1 v -13 h 1 v -19 h 1 v -20 h 1 v -19 h 1 v -20 h 1 v -44 h 1 v -77 h -1 v -44 h -1 v -20 h -1 v -20 h -1 v -19 h -1 v -19 h -1 v -13 h -1 v -12 h -1 v -11 h -1 v -12 h -1 v -11 h -1 v -12 h -1 v -11 h -1 v -9 h -1 v -8 h -1 v -8 h -1 v -8 h -1 v -8 h -1 v -9 h -1 v -8 h -1 v -8 h -1 v -8 h -1 v -8 h -1 v -6 h -1 v -6 h -1 v -6 h -1 v -7 h -1 v -6 h -1 v -6 h -1 v -6 h -1 v -6 h -1 v -7 h -1 v -6 h -1 v -6 h -1 v -6 h -1 v -6 h -1 v -5 h -1 v -5 h -1 v -5 h -1 v -5 h -1 v -4 h -1 v -5 h -1 v -5 h -1 v -5 h -1 v -5 h -1 v -5 h -1 v -5 h -1 v -5 h -1 v -5 h -1 v -5 h -1 v -5 h -1 v -4 h -1 v -4 h -1 v -4 h -1 v -4 h -1 v -5 h -1 v -4 h -1 v -4 h -1 v -4 h -1 v -4 h -1 v -4 h -1 v -4 h -1 v -4 h -1 v -4 h -1 v -5 h -1 v -4 h -1 v -4 h -1 v -4 h -1 v -4 h -1 v -4 h -1 v -3 h -1 v -4 h -1 v -3 h -1 v -4 h -1 v -3 h -1 v -3 h -1 v -4 h -1 v -3 h -1 v -4 h -1 v -3 h -1 v -4 h -1 v -3 h -1 v -4 h -1 v -3 h -1 v -4 h -1 v -3 h -1 v -4 h -1 v -3 h -1 v -4 h -1 v -3 h -1 v -3 h -1 v -3 h -1 v -3 h -1 v -3 h -1 v -3 h -1 v -3 h -1 v -3 h -1 v -3 h -1 v -3 h -1 v -3 h -1 v -3 h -1 v -3 h -1 v -3 h -1 v -3 h -1 v -3 h -1 v -3 h -1 v -3 h -1 v -3 h -1 v -3 h -1 v -3 h -1 v -3 h -1 v -3 h -1 v -3 h -1 v -3 h -1 v -3 h -1 v -2 h -1 v -3 h -1 v -3 h -1 v -2 h -1 v -3 h -1 v -2 h -1 v -3 h -1 v -3 h -1 v -2 h -1 v -3 h -1 v -2 h -1 v -3 h -1 v -3 h -1 v -2 h -1 v -3 h -1 v -3 h -1 v -2 h -1 v -3 h -1 v -2 h -1 v -3 h -1 v -3 h -1 v -2 h -1 v -3 h -1 v -2 h -1 v -3 h -1 v -2 h -1 v -3 h -1 v -2 h -1 v -2 h -1 v -3 h -1 v -2 h -1 v -2 h -1 v -3 h -1 v -2 h -1 v -2 h -1 v -2 h -1 v -3 h -1 v -2 h -1 v -2 h -1 v -3 h -1 v -2 h -1 v -2 h -1 v -2 h -1 v -3 h -1 v -2 h -1 v -2 h -1 v -3 h -1 v -2 h -1 v -2 h -1 v -3 h -1 v -2 h -1 v -2 h -1 v -2 h -1 v -3 h -1 v -2 h -1 v -2 h -1 v -2 h -1 v -2 h -1 v -2 h -1 v -2 h -1 v -2 h -1 v -2 h -1 v -2 h -1 v -2 h -1 v -2 h -1 v -2 h -1 v -2 h -1 v -2 h -1 v -2 h -1 v -2 h -1 v -2 h -1 v -2 h -1 v -3 h -1 v -2 h -1 v -2 h -1 v -2 h -1 v -2 h -1 v -2 h -1 v -2 h -1 v -2 h -1 v -2 h -1 v -2 h -1 v -2 h -1 v -2 h -1 v -2 h -1 v -2 h -1 v -2 h -1 v -2 h -1 v -2 h -1 v -1 h -1 v -2 h -1 v -2 h -1 v -2 h -1 v -2 h -1 v -1 h -1 v -2 h -1 v -2 h -1 v -2 h -1 v -2 h -1 v -1 h -1 v -2 h -1 v -2 h -1 v -2 h -1 v -2 h -1 v -1 h -1 v -2 h -1 v -2 h -1 v -2 h -1 v -2 h -1 v -1 h -1 v -2 h -1 v -2 h -1 v -2 h -1 v -2 h -1 v -2 h -1 v -1 h -1 v -2 h -1 v -2 h -1 v -2 h -1 v -2 h -1 v -1 h -1 v -2 h -1 v -2 h -1 v -1 h -1 v -2 h -1 v -2 h -1 v -1 h -1 v -2 h -1 v -1 h -1 v -2 h -1 v -2 h -1 v -1 h -1 v -2 h -1 v -1 h -1 v -2 h -1 v -2 h -1 v -1 h -1 v -2 h -1 v -1 h -1 v -2 h -1 v -2 h -1 v -1 h -1 v -2 h -1 v -2 h -1 v -1 h -1 v -2 h -1 v -1 h -1 v -2 h -1 v -2 h -1 v -1 h -1 v -2 h -1 v -1 h -1 v -2 h -1 v -2 h -1 v -1 h -1 v -2 h -1 v -2 h -1 v -1 h -1 v -2 h -1 v -1 h -1 v -2 h -1 v -1 h -1 v -2 h -1 v -1 h -1 v -1 h -1 v -2 h -1 v -1 h -1 v -2 h -1 v -1 h -1 v -2 h -1 v -1 h -1 v -2 h -1 v -1 h -1 v -1 h -1 v -2 h -1 v -1 h -1 v -2 h -1 v -1 h -1 v -2 h -1 v -1 h -1 v -2 h -1 v -1 h -1 v -1 h -1 v -2 h -1 v -1 h -1 v -2 h -1 v -1 h -1 v -2 h -1 v -1 h -1 v -1 h -1 v -2 h -1 v -1 h -1 v -2 h -1 v -1 h -1 v -2 h -1 v -1 h -1 v -2 h -1 v -1 h -1 v -1 h -1 v -2 h -1 v -1 h -1 v -1 h -1 v -2 h -1 v -1 h -1 v -1 h -1 v -2 h -1 v -1 h -1 v -1 h -1 v -1 h -1 v -2 h -1 v -1 h -1 v -1 h -1 v -2 h -1 v -1 h -1 v -1 h -1 v -2 h -1 v -1 h -1 v -1 h -1 v -1 h -1 v -2 h -1 v -1 h -1 v -1 h -1 v -2 h -1 v -1 h -1 v -1 h -1 v -1 h -1 v -2 h -1 v -1 h -1 v -1 h -1 v -2 h -1 v -1 h -1 v -1 h -1 v -2 h -1 v -1 h -1 v -1 h -1 v -1 h -1 v -2 h -1 v -1 h -1 v -1 h -1 v -2 h -1 v -1 h -1 v -1 h -1 v -1 h -1 v -2 h -1 v -1 h -1 v -1 h -1 v -1 h -1 v -1 h -1 v -1 h -1 v -2 h -1 v -1 h -1 v -1 h -1 v -1 h -1 v -1 h -1 v -1 h -1 v -1 h -1 v -2 h -1 v -1 h -1 v -1 h -1 v -1 h -1 v -1 h -1 v -1 h -1 v -2 h -1 v -1 h -1 v -1 h -1 v -1 h -1 v -1 h -1 v -1 h -1 v -1 h -1 v -2 h -1 v -1 h -1 v -1 h -1 v -1 h -1 v -1 h -1 v -1 h -1 v -2 h -1 v -1 h -1 v -1 h -1 v -1 h -1 v -1 h -1 v -1 h -1 v -2 h -1 v -1 h -1 v -1 h -1 v -1 h -1 v -1 h -1 v -1 h -1 v -1 h -1 v -2 h -1 v -1 h -1 v -1 h -1 v -1 h -1 v -1 h -1 v -1 h -1 v -1 h -1 v -1 h -1 v -1 h -1 v -1 h -1 v -1 h -1 v -1 h -1 v -1 h -1 v -1 h -1 v -1 h -1 v -1 h -1 v -1 h -1 v -1 h -1 v -1 h -1 v -1 h -1 v -1 h -1 v -1 h -1 v -1 h -1 v -1 h -1 v -1 h -1 v -2 h -1 v -1 h -1 v -1 h -1 v -1 h -1 v -1 h -1 v -1 h -1 v -1 h -1 v -1 h -1 v -1 h -1 v -1 h -1 v -1 h -1 v -1 h -1 v -1 h -1 v -1 h -1 v -1 h -1 v -1 h -1 v -1 h -1 v -1 h -1 v -1 h -1 v -1 h -1 v -1 h -1 v -1 h -1 v -1 h -1 v -1 h -1 v -1 h -1 v -1 h -1 v -1 h -1 v -1 h -1 v -1 h -1 v -1 h -1 v -1 h -1 v -1 h -1 v -1 h -1 v -1 h -1 v -1 h -1 v -1 h -2 v -1 h -1 v -1 h -1 v -1 h -1 v -1 h -1 v -1 h -1 v -1 h -1 v -1 h -1 v -1 h -1 v -1 h -1 v -1 h -1 v -1 h -1 v -1 h -1 v -1 h -2 v -1 h -1 v -1 h -1 v -1 h -1 v -1 h -1 v -1 h -1 v -1 h -1 v -1 h -1 v -1 h -1 v -1 h -1 v -1 h -1 v -1 h -1 v -1 h -2 v -1 h -1 v -1 h -1 v -1 h -1 v -1 h -1 v -1 h -1 v -1 h -1 v -1 h -1 v -1 h -1 v -1 h -1 v -1 h -1 v -1 h -1 v -1 h -2 v -1 h -1 v -1 h -1 v -1 h -1 v -1 h -1 v -1 h -2 v -1 h -1 v -1 h -1 v -1 h -1 v -1 h -1 v -1 h -2 v -1 h -1 v -1 h -1 v -1 h -1 v -1 h -2 v -1 h -1 v -1 h -1 v -1 h -1 v -1 h -1 v -1 h -2 v -1 h -1 v -1 h -1 v -1 h -1 v -1 h -1 v -1 h -2 v -1 h -1 v -1 h -1 v -1 h -1 v -1 h -2 v -1 h -1 v -1 h -1 v -1 h -1 v -1 h -1 v -1 h -2 v -1 h -1 v -1 h -1 v -1 h -1 v -1 h -1 v -1 h -2 v -1 h -1 v -1 h -1 v -1 h -1 v -1 h -1 v -1 h -2 v -1 h -1 v -1 h -1 v -1 h -2 v -1 h -1 v -1 h -1 v -1 h -2 v -1 h -1 v -1 h -1 v -1 h -2 v -1 h -1 v -1 h -2 v -1 h -1 v -1 h -1 v -1 h -2 v -1 h -1 v -1 h -1 v -1 h -2 v -1 h -1 v -1 h -1 v -1 h -2 v -1 h -1 v -1 h -2 v -1 h -1 v -1 h -1 v -1 h -2 v -1 h -1 v -1 h -1 v -1 h -2 v -1 h -1 v -1 h -1 v -1 h -2 v -1 h -1 v -1 h -2 v -1 h -1 v -1 h -1 v -1 h -2 v -1 h -1 v -1 h -1 v -1 h -2 v -1 h -1 v -1 h -1 v -1 h -2 v -1 h -1 v -1 h -2 v -1 h -1 v -1 h -2 v -1 h -1 v -1 h -2 v -1 h -2 v -1 h -1 v -1 h -2 v -1 h -1 v -1 h -2 v -1 h -1 v -1 h -2 v -1 h -1 v -1 h -2 v -1 h -1 v -1 h -2 v -1 h -2 v -1 h -1 v -1 h -2 v -1 h -1 v -1 h -2 v -1 h -1 v -1 h -2 v -1 h -1 v -1 h -2 v -1 h -1 v -1 h -2 v -1 h -2 v -1 h -1 v -1 h -2 v -1 h -1 v -1 h -2 v -1 h -1 v -1 h -2 v -1 h -1 v -1 h -2 v -1 h -1 v -1 h -2 v -1 h -2 v -1 h -1 v -1 h -2 v -1 h -2 v -1 h -2 v -1 h -1 v -1 h -2 v -1 h -2 v -1 h -2 v -1 h -2 v -1 h -1 v -1 h -2 v -1 h -2 v -1 h -2 v -1 h -1 v -1 h -2 v -1 h -2 v -1 h -2 v -1 h -1 v -1 h -2 v -1 h -2 v -1 h -2 v -1 h -1 v -1 h -2 v -1 h -2 v -1 h -2 v -1 h -2 v -1 h -1 v -1 h -2 v -1 h -2 v -1 h -2 v -1 h -1 v -1 h -2 v -1 h -2 v -1 h -2 v -1 h -1 v -1 h -2 v -1 h -2 v -1 h -2 v -1 h -3 v -1 h -2 v -1 h -2 v -1 h -2 v -1 h -2 v -1 h -2 v -1 h -2 v -1 h -2 v -1 h -2 v -1 h -2 v -1 h -2 v -1 h -2 v -1 h -2 v -1 h -2 v -1 h -2 v -1 h -2 v -1 h -2 v -1 h -2 v -1 h -2 v -1 h -2 v -1 h -2 v -1 h -2 v -1 h -2 v -1 h -2 v -1 h -2 v -1 h -2 v -1 h -2 v -1 h -2 v -1 h -2 v -1 h -3 v -1 h -2 v -1 h -2 v -1 h -3 v -1 h -2 v -1 h -2 v -1 h -3 v -1 h -2 v -1 h -3 v -1 h -2 v -1 h -2 v -1 h -3 v -1 h -2 v -1 h -2 v -1 h -3 v -1 h -2 v -1 h -3 v -1 h -2 v -1 h -2 v -1 h -3 v -1 h -2 v -1 h -2 v -1 h -3 v -1 h -2 v -1 h -2 v -1 h -3 v -1 h -2 v -1 h -3 v -1 h -2 v -1 h -3 v -1 h -3 v -1 h -2 v -1 h -3 v -1 h -3 v -1 h -3 v -1 h -3 v -1 h -2 v -1 h -3 v -1 h -3 v -1 h -3 v -1 h -3 v -1 h -2 v -1 h -3 v -1 h -3 v -1 h -3 v -1 h -3 v -1 h -2 v -1 h -3 v -1 h -3 v -1 h -3 v -1 h -3 v -1 h -2 v -1 h -3 v -1 h -3 v -1 h -3 v -1 h -4 v -1 h -3 v -1 h -4 v -1 h -3 v -1 h -3 v -1 h -4 v -1 h -3 v -1 h -4 v -1 h -3 v -1 h -3 v -1 h -4 v -1 h -3 v -1 h -4 v -1 h -3 v -1 h -3 v -1 h -4 v -1 h -3 v -1 h -4 v -1 h -3 v -1 h -3 v -1 h -4 v -1 h -4 v -1 h -4 v -1 h -5 v -1 h -4 v -1 h -4 v -1 h -4 v -1 h -5 v -1 h -4 v -1 h -4 v -1 h -4 v -1 h -5 v -1 h -4 v -1 h -4 v -1 h -4 v -1 h -5 v -1 h -4 v -1 h -4 v -1 h -5 v -1 h -5 v -1 h -6 v -1 h -6 v -1 h -5 v -1 h -6 v -1 h -5 v -1 h -6 v -1 h -6 v -1 h -5 v -1 h -6 v -1 h -5 v -1 h -6 v -1 h -6 v -1 h -5 v -1 h -8 v -1 h -8 v -1 h -9 v -1 h -8 v -1 h -7 v -1 h -8 v -1 h -9 v -1 h -8 v -1 h -8 v -1 h -8 v -1 h -13 v -1 h -13 v -1 h -14 v -1 h -13 v -1 h -14 v -1 h -14 v -1 h -26 v -1 h -31 v -1"
               style="fill:url(#linearGradient184);fill-opacity:1;fill-rule:nonzero;stroke:none"
               id="path186" /></g></g></g><g
            id="g188"><g
           id="g190"
           clip-path="url(#clipPath194)"><path
             d="m 6685.56,21103.1 c 509.54,59.1 1240.23,80.4 2030.26,-100.5 -260.29,-1359.7 -221.01,-2776.8 80.02,-4244.3 H 6567.55 c -355.26,0 -658.2,258.1 -713.6,609 -111.06,703.4 -246.82,1885.6 -102.06,2835.2 72.65,476.5 454.85,845 933.67,900.6"
             style="fill:url(#linearGradient200);fill-opacity:1;fill-rule:nonzero;stroke:none"
             id="path202" /></g></g><path
            d="M 8022.87,20061.7 H 6286.76 c -58.93,0 -110.93,30.9 -139.09,82.7 -28.14,51.7 -25.85,112.2 6.16,161.7 13.4,20.7 41.04,26.5 61.74,13.2 20.69,-13.4 26.62,-41.1 13.22,-61.8 -13.95,-21.5 -14.95,-47.9 -2.69,-70.5 12.28,-22.5 34.96,-36 60.66,-36 h 1736.11 c 38.07,0 69.03,31 69.03,69 v 123.6 c 0,38.1 -30.96,69 -69.03,69 H 6273.88 c -24.66,0 -44.64,20 -44.64,44.7 0,24.6 19.98,44.6 44.64,44.6 h 1748.99 c 87.3,0 158.32,-71 158.32,-158.3 V 20220 c 0,-87.2 -71.02,-158.3 -158.32,-158.3"
            style="fill:#91b3fa;fill-opacity:1;fill-rule:nonzero;stroke:none"
            id="path204"/><path
            d="M 7868.06,19292.8 H 6131.95 c -58.93,0 -110.92,30.9 -139.09,82.7 -28.15,51.8 -25.85,112.2 6.16,161.7 13.41,20.6 41.06,26.5 61.74,13.2 20.69,-13.4 26.62,-41 13.22,-61.8 -13.95,-21.5 -14.95,-47.9 -2.69,-70.4 12.28,-22.6 34.96,-36.1 60.66,-36.1 h 1736.11 c 38.07,0 69.04,31 69.04,69 v 123.6 c 0,38 -30.97,69 -69.04,69 H 6119.08 c -24.67,0 -44.65,20 -44.65,44.7 0,24.6 19.98,44.6 44.65,44.6 h 1748.98 c 87.3,0 158.32,-71 158.32,-158.3 v -123.6 c 0,-87.2 -71.02,-158.3 -158.32,-158.3"
            style="fill:#91b3fa;fill-opacity:1;fill-rule:nonzero;stroke:none"
            id="path206"/><path
            d="m 10006.5,21159.7 c -18.91,0 -36.47,12.1 -42.51,31.1 -7.49,23.5 5.51,48.6 28.99,56.1 l 8203.92,2610.6 c 23.5,7.5 48.6,-5.5 56.1,-29 7.5,-23.5 -5.5,-48.6 -29,-56.1 l -8203.9,-2610.6 c -4.5,-1.5 -9.1,-2.1 -13.6,-2.1"
            style="fill:#bdd0fb;fill-opacity:1;fill-rule:nonzero;stroke:none"
            id="path208"/><path
            d="m 8897.11,20706.2 c -17.6,0 -34.27,10.4 -41.34,27.7 -9.33,22.8 1.61,48.9 24.44,58.2 l 422.23,172.6 c 22.8,9.4 48.88,-1.6 58.21,-24.4 9.33,-22.8 -1.61,-48.9 -24.44,-58.2 l -422.23,-172.6 c -5.52,-2.3 -11.25,-3.3 -16.87,-3.3"
            style="fill:#bdd0fb;fill-opacity:1;fill-rule:nonzero;stroke:none"
            id="path210"/><path
            d="M 8022.87,18392.3 H 6286.76 c -58.93,0 -110.91,30.9 -139.07,82.7 -28.16,51.8 -25.87,112.2 6.14,161.7 13.4,20.7 41.04,26.6 61.74,13.2 20.69,-13.4 26.62,-41 13.22,-61.7 -13.97,-21.6 -14.97,-48 -2.68,-70.5 12.28,-22.6 34.95,-36.1 60.65,-36.1 h 1736.11 c 38.07,0 69.03,31 69.03,69.1 v 123.5 c 0,38.1 -30.96,69 -69.03,69 H 6273.88 c -24.66,0 -44.64,20 -44.64,44.7 0,24.6 19.98,44.6 44.64,44.6 h 1748.99 c 87.3,0 158.32,-71 158.32,-158.3 v -123.5 c 0,-87.3 -71.02,-158.4 -158.32,-158.4"
            style="fill:#91b3fa;fill-opacity:1;fill-rule:nonzero;stroke:none"
            id="path212"/><path
            d="M 8185.42,17392.8 H 6449.31 c -58.92,0 -110.9,30.9 -139.07,82.7 -28.16,51.8 -25.86,112.2 6.15,161.7 13.41,20.7 41.05,26.5 61.73,13.2 20.69,-13.4 26.63,-41 13.22,-61.7 -13.96,-21.6 -14.96,-48 -2.67,-70.5 12.28,-22.6 34.95,-36.1 60.64,-36.1 h 1736.11 c 38.07,0 69.04,31 69.04,69.1 v 123.5 c 0,38.1 -30.97,69 -69.04,69 H 6436.44 c -24.66,0 -44.64,20 -44.64,44.7 0,24.6 19.98,44.6 44.64,44.6 h 1748.98 c 87.31,0 158.33,-71 158.33,-158.3 v -123.5 c 0,-87.3 -71.02,-158.4 -158.33,-158.4"
            style="fill:#91b3fa;fill-opacity:1;fill-rule:nonzero;stroke:none"
            id="path214"/><path
            d="m 9735.98,11958.5 c -80,0 -160.85,8.6 -241.52,26.2 -352.97,76.9 -640.32,309.7 -788.37,638.6 l -1387.05,3081.5 c -10.13,22.4 -0.1,48.9 22.38,59 22.48,10.1 48.91,0.1 59.02,-22.4 L 8787.5,12659.9 c 136.32,-302.8 400.93,-517.1 725.97,-587.9 319.45,-69.7 642.73,13 886.93,226.7 13.1,11.5 26.2,23.3 39.5,35.3 18.1,16.6 46.4,15.4 63,-2.8 16.7,-18.2 15.4,-46.5 -2.8,-63.1 -13.7,-12.5 -27.3,-24.7 -40.9,-36.6 -204,-178.5 -458.7,-273 -723.22,-273"
            style="fill:#91b3fa;fill-opacity:1;fill-rule:nonzero;stroke:none"
            id="path216"/><path
            d="m 7154.68,16134.1 c -17.03,0 -33.29,9.8 -40.73,26.3 l -154.74,343.8 c -10.13,22.4 -0.1,48.8 22.38,59 22.47,10.1 48.92,0 59.03,-22.4 l 154.74,-343.7 c 10.12,-22.5 0.1,-49 -22.38,-59.1 -5.94,-2.7 -12.18,-3.9 -18.3,-3.9"
            style="fill:#91b3fa;fill-opacity:1;fill-rule:nonzero;stroke:none"
            id="path218"/><path
            d="m 20465.8,19643.7 c -23.2,0 -42.8,18 -44.5,41.5 -30.8,434.8 -181.6,759 -447.9,963.5 -460.7,353.7 -1118,232.2 -1124.6,230.9 -24.4,-4.7 -47.6,11.1 -52.3,35.3 -4.7,24.2 11.2,47.7 35.4,52.3 28.5,5.5 703.7,130.2 1195.8,-247.6 287.6,-220.8 449.9,-566.7 482.7,-1028.1 1.7,-24.6 -16.8,-45.9 -41.4,-47.7 -1.1,0 -2.2,-0.1 -3.2,-0.1"
            style="fill:#bdd0fb;fill-opacity:1;fill-rule:nonzero;stroke:none"
            id="path220"/><g
            id="g222"><g
           id="g224"
           clip-path="url(#clipPath228)"><path
             d="m 15254,26715.8 v -617.6 h 206.9 c 85.5,0 149.2,26.2 191,78.5 41.8,52.3 62.7,133.4 62.7,243.1 0,197.3 -86.6,296 -259.8,296 z m 0,342.8 h 188.8 c 86.5,0 147.4,23.1 182.7,69.4 35.2,46.3 52.8,115.3 52.8,206.9 0,91.6 -20.1,157.3 -60.4,197 -40.2,39.8 -103.7,59.7 -190.2,59.7 H 15254 Z m -386.6,887.8 h 563.3 c 229.5,0 396.6,-44.5 501.3,-133.6 104.7,-89.1 157,-230.8 157,-425.1 0,-127.8 -27.6,-234.8 -83,-320.8 -55.4,-86.1 -130.9,-138.2 -226.5,-156.3 v -15.1 c 124.8,-31.2 214.9,-89.6 270.3,-175.2 55.3,-85.5 83,-199.3 83,-341.2 0,-200.4 -53.6,-357.2 -160.8,-470.4 -107.2,-113.3 -253.9,-169.9 -440.2,-169.9 h -664.4 v 2207.6"
             style="fill:url(#linearGradient234);fill-opacity:1;fill-rule:nonzero;stroke:none"
             id="path236" /></g></g><g
            id="g238"><g
           id="g240"
           clip-path="url(#clipPath244)"><path
             d="m 16434.8,25738.8 v 2207.6 h 410.8 v -1848.2 h 569.2 v -359.4 h -980"
             style="fill:url(#linearGradient250);fill-opacity:1;fill-rule:nonzero;stroke:none"
             id="path252" /></g></g><g
            id="g254"><g
           id="g256"
           clip-path="url(#clipPath260)"><path
             d="m 18029.4,26845.7 c 0,-251.7 31.7,-443.5 95.2,-575.4 63.4,-131.9 156.5,-197.8 279.3,-197.8 247.7,0 371.5,257.7 371.5,773.2 0,515.4 -122.9,773.1 -368.5,773.1 -124.8,0 -218.9,-65.7 -282.3,-197.1 -63.5,-131.3 -95.2,-323.4 -95.2,-576 z m 1167.3,0 c 0,-365.5 -68.5,-646.3 -205.4,-842.6 -136.9,-196.3 -332.7,-294.5 -587.4,-294.5 -255.7,0 -452,97.9 -588.9,293.7 -136.9,195.8 -205.4,477.9 -205.4,846.4 0,365.4 68.5,645.5 205.4,840.3 136.9,194.8 334.2,292.2 591.9,292.2 254.7,0 450,-97.9 585.9,-293.7 135.9,-195.8 203.9,-476.4 203.9,-841.8"
             style="fill:url(#linearGradient266);fill-opacity:1;fill-rule:nonzero;stroke:none"
             id="path268" /></g></g><g
            id="g270"><g
           id="g272"
           clip-path="url(#clipPath276)"><path
             d="m 20185.7,26963.4 h 675 v -1132.5 c -191.3,-81.5 -394.6,-122.3 -610,-122.3 -256.8,0 -454.3,97.6 -592.7,293 -138.4,195.2 -207.7,476.6 -207.7,844.1 0,354.3 79.3,631.6 237.9,832 158.5,200.3 380.2,300.5 665.1,300.5 176.2,0 344.3,-45.3 504.4,-135.9 l -129.9,-335.3 c -124.8,72.5 -241.6,108.8 -350.3,108.8 -156.1,0 -279.6,-69.8 -370.7,-209.2 -91.1,-139.4 -136.7,-329.4 -136.7,-570 0,-247.7 33,-437.4 98.9,-569.3 66,-131.9 161.8,-197.8 287.7,-197.8 66.4,0 133.9,8.5 202.3,25.7 v 505.8 h -273.3 v 362.4"
             style="fill:url(#linearGradient282);fill-opacity:1;fill-rule:nonzero;stroke:none"
             id="path284" /></g></g><path
            d="m 24841.4,22286.9 -2618.8,-148.7 c -219.2,-12.4 -407.8,153.4 -423.5,372.4 l -218.5,3037.9 c -16.7,232.7 167.6,430.7 400.8,430.7 h 2837.2 c 222,0 401.9,-179.9 401.9,-401.8 v -2889.3 c 0,-213.1 -166.4,-389.1 -379.1,-401.2"
            style="fill:#7d97f4;fill-opacity:1;fill-rule:nonzero;stroke:none"
            id="path286"/><path
            d="m 23400,25467 c -561.2,0 -1017.7,-416.2 -1017.7,-927.6 0,-265.7 300.6,-914.8 824.8,-1780.8 41.2,-68.1 113.3,-108.8 192.9,-108.8 79.6,0 151.7,40.7 192.9,108.8 524.2,866 824.9,1515.1 824.9,1780.8 0,511.4 -456.6,927.6 -1017.8,927.6 z m 0,-2966.5 v 0 c -132.3,0 -252.1,67.5 -320.7,180.7 -386.1,638 -846.4,1478.2 -846.4,1858.2 0,593.8 523.6,1076.9 1167.1,1076.9 643.6,0 1167.1,-483.1 1167.1,-1076.9 0,-380 -460.3,-1220.2 -846.4,-1858.2 -68.5,-113.2 -188.4,-180.7 -320.7,-180.7"
            style="fill:#ffffff;fill-opacity:1;fill-rule:nonzero;stroke:none"
            id="path288"/><path
            d="m 23309.6,23787.5 c -399,0 -723.6,324.6 -723.6,723.6 0,41.3 33.4,74.7 74.6,74.7 41.3,0 74.7,-33.4 74.7,-74.7 0,-316.7 257.6,-574.3 574.3,-574.3 316.6,0 574.3,257.6 574.3,574.3 0,316.7 -257.7,574.3 -574.3,574.3 -183.1,0 -351,-84.3 -460.7,-231.3 -24.6,-33.1 -71.4,-39.9 -104.5,-15.2 -33,24.6 -39.8,71.4 -15.2,104.5 136.1,182.4 353.1,291.3 580.4,291.3 399,0 723.6,-324.6 723.6,-723.6 0,-399 -324.6,-723.6 -723.6,-723.6"
            style="fill:#ffffff;fill-opacity:1;fill-rule:nonzero;stroke:none"
            id="path290"/><path
            d="m 30958.8,20319.4 -3194,52.5 c -229.2,3.8 -408.8,198.3 -394.4,427.2 l 210.1,3328.3 c 12.1,191.5 158,347.8 348.3,373 l 3596.3,476.4 c 266.5,35.3 491.8,-195.9 449.7,-461.4 l -612.5,-3857.3 c -31.4,-197.6 -203.4,-342 -403.5,-338.7"
            style="fill:#7d97f4;fill-opacity:1;fill-rule:nonzero;stroke:none"
            id="path292"/><path
            d="m 29501.5,21207.8 c -692.7,0 -1256.2,563.5 -1256.2,1256.1 0,692.7 563.5,1256.2 1256.2,1256.2 692.6,0 1256.1,-563.5 1256.1,-1256.2 0,-692.6 -563.5,-1256.1 -1256.1,-1256.1 m 0,2301.8 c -576.6,0 -1045.7,-469.1 -1045.7,-1045.7 0,-576.6 469.1,-1045.6 1045.7,-1045.6 576.6,0 1045.6,469 1045.6,1045.6 0,576.6 -469,1045.7 -1045.6,1045.7"
            style="fill:#f2f4fe;fill-opacity:1;fill-rule:nonzero;stroke:none"
            id="path294"/><path
            d="m 29232.7,21855.5 c -65,0 -124.7,51.9 -124.7,124.7 v 903 c 0,72.8 59.7,124.7 124.7,124.7 21.2,0 42.9,-5.5 63.3,-17.6 l 761,-451.5 c 81.3,-48.3 81.3,-165.9 0,-214.2 l -761,-451.5 c -20.4,-12.1 -42.1,-17.6 -63.3,-17.6"
            style="fill:#f2f4fe;fill-opacity:1;fill-rule:nonzero;stroke:none"
            id="path296"/><path
            d="m 23383.6,15528.8 -1918.4,-202.1 c -237.3,-25 -444,161.1 -444,399.6 v 2214.4 c 0,199.8 146.8,369.2 344.6,397.7 l 1918.4,276.2 c 242.2,34.9 459.1,-153 459.1,-397.7 v -2288.5 c 0,-205.6 -155.2,-378.1 -359.7,-399.6"
            style="fill:#7d97f4;fill-opacity:1;fill-rule:nonzero;stroke:none"
            id="path298"/><path
            d="m 22227.7,16263.2 c -215.8,0 -440.1,93.3 -506.5,232.2 -76,159 75.4,272.2 123.6,303.1 146.3,93.8 276.4,126 386.6,95.7 114.7,-31.5 161.3,-118.7 166.2,-128.5 l -148.9,-74.6 0.9,-1.7 c -0.8,1.3 -19.6,33.7 -65.5,45 -43,10.7 -121.2,6.1 -249.4,-76.1 -54.2,-34.8 -75.5,-65.4 -63.2,-91 42.9,-89.8 307.2,-181 502.2,-116 64.8,21.6 121.2,210.7 66.6,672.4 -39.9,337.5 -120.4,665.9 -121.2,669.1 -7.5,30.4 2.7,62.5 26.4,82.9 23.7,20.5 56.8,26 85.8,14.2 19.8,-8 485.8,-200.9 612.5,-565.1 57.5,-165.4 36.8,-337.2 -61.6,-510.8 -22.6,-40.1 -73.5,-54.1 -113.5,-31.4 -40,22.6 -54.1,73.5 -31.4,113.5 74.7,131.7 90.8,253.9 49.4,373.5 -61.5,177.3 -236.8,310.1 -366.6,387.7 27.2,-130.7 62.5,-319.3 85.6,-514 61.4,-518.6 4.4,-788.7 -179.4,-850 -61.7,-20.6 -129.7,-30.1 -198.6,-30.1"
            style="fill:#ffffff;fill-opacity:1;fill-rule:nonzero;stroke:none"
            id="path300"/><path
            d="m 29510.3,25473.6 h -2901.9 c -221.9,0 -401.8,180 -401.8,401.9 v 2909.7 c 0,209.4 160.7,383.7 369.4,400.6 l 3091.8,250.2 c 243.6,19.7 448.2,-180.7 433.6,-424.6 l -189.9,-3160 c -12.8,-212.2 -188.6,-377.8 -401.2,-377.8"
            style="fill:#7d97f4;fill-opacity:1;fill-rule:nonzero;stroke:none"
            id="path302"/><path
            d="m 28825.9,28155 c -211.9,208.2 -542.3,145.6 -769.8,-45.4 -32.6,-27.4 -79.8,-27.7 -112.9,-0.9 -230.5,187 -560.6,243.9 -768.8,32.1 -226.1,-230 -222.9,-599.7 7.1,-825.8 l 769.5,-756.5 c 35,-34.3 91.2,-33.8 125.6,1.1 l 756.4,769.6 c 226.1,230 222.9,599.7 -7.1,825.8"
            style="fill:#ffffff;fill-opacity:1;fill-rule:nonzero;stroke:none"
            id="path304"/><path
            d="m 27191.7,20319.3 c 0,-827.4 -670.8,-1498.2 -1498.2,-1498.2 -827.4,0 -1498.2,670.8 -1498.2,1498.2 0,827.4 670.8,1498.2 1498.2,1498.2 827.4,0 1498.2,-670.8 1498.2,-1498.2"
            style="fill:#7d97f4;fill-opacity:1;fill-rule:nonzero;stroke:none"
            id="path306"/><path
            d="m 25330.2,20817.1 c 0,38.6 -31.3,69.9 -69.9,69.9 h -253.7 c -38.7,0 -69.9,-31.3 -69.9,-69.9 v -1106.4 c 0,-38.6 31.2,-70 69.9,-70 h 253.7 c 38.6,0 69.9,31.4 69.9,70 v 1106.4"
            style="fill:#ffffff;fill-opacity:1;fill-rule:nonzero;stroke:none"
            id="path308"/><path
            d="m 26189.1,20887 h -246.7 v 298.4 c 0,96.9 -57.2,160.7 -154.1,160.7 h -6.2 c -97,0 -175.6,-71.2 -175.6,-168.1 l -86.7,-299.2 c -38.6,0 -102.1,-27.6 -102.1,-66.2 v -1146.9 c 0,-38.6 95.8,-90.5 134.4,-90.5 h 54.4 582.6 c 145,0 256.2,138.2 256.2,283.2 v 761.4 c 0,145.1 -111.2,267.2 -256.2,267.2"
            style="fill:#ffffff;fill-opacity:1;fill-rule:nonzero;stroke:none"
            id="path310"/><g
            id="g312"><g
           id="g314"
           clip-path="url(#clipPath318)"><path
             d="m 28975.8,5347.8 c 0,0 50.9,-272.4 77.1,-542.4 10.2,-105.5 -70.3,-197.9 -176.2,-203.4 -359.6,-18.4 -1129,-54.9 -1405.2,-45.2 -41.6,1.5 -69.1,43.7 -54.1,82.5 12.5,32.5 37.1,58.9 68.6,73.7 l 1265.7,596.4 224.1,38.4"
             style="fill:url(#linearGradient324);fill-opacity:1;fill-rule:nonzero;stroke:none"
             id="path326" /></g></g><g
            id="g328"><g
           id="g330"
           clip-path="url(#clipPath334)"><path
             d="m 29013.8,5508.6 -35.6,-326.8 c 0,0 -221.7,-105.8 -374.9,9.4 l 88.7,364.7 321.8,-47.3"
             style="fill:url(#linearGradient340);fill-opacity:1;fill-rule:nonzero;stroke:none"
             id="path342" /></g></g><g
            id="g344"><g
           id="g346"
           clip-path="url(#clipPath350)"><path
             d="m 28926.1,11645.9 c 17.6,-85.1 130.4,-4253.5 -297.4,-6126.1 -7,-30.5 8.8,-61.8 37.9,-73.4 68.6,-27.3 203,-66.4 363.7,-70.3 49.7,-1.2 94,31.6 107.6,79.4 123.2,434.7 712.9,2612.4 772.7,4687.9 66.9,2319.1 -0.7,78.9 -0.7,78.9 l -65.9,1432.5 -917.9,-8.9"
             style="fill:url(#linearGradient356);fill-opacity:1;fill-rule:nonzero;stroke:none"
             id="path358" /></g></g><g
            id="g360"><g
           id="g362"
           clip-path="url(#clipPath366)"><path
             d="m 30439.6,5219.4 c 0,0 78,-137 155.8,-502.5 14,-66 -31.6,-129.7 -98.6,-136.9 -118.7,-12.8 -301.5,-29.6 -448,-30 -67.5,-0.2 -120.8,58.1 -113.3,125.2 14.9,133.8 63.4,353.6 218,526 l 286.1,18.2"
             style="fill:url(#linearGradient372);fill-opacity:1;fill-rule:nonzero;stroke:none"
             id="path374" /></g></g><g
            id="g376"><g
           id="g378"
           clip-path="url(#clipPath382)"><path
             d="m 30502.9,5640 -85.8,-494.6 c 0,0 -88.8,-67.4 -266.3,-20.9 l 38.1,531.6 314,-16.1"
             style="fill:url(#linearGradient388);fill-opacity:1;fill-rule:nonzero;stroke:none"
             id="path390" /></g></g><g
            id="g392"><g
           id="g394"
           clip-path="url(#clipPath398)"><path
             d="m 30691.2,11534.8 c 385.5,-2196.2 -27.2,-5437.4 -170.7,-6072.4 -8.8,-38.9 -39.8,-68.9 -79.1,-75.8 -66.6,-11.7 -176.5,-21.7 -285.2,8.7 -37.4,10.5 -64,43.9 -65.8,82.8 -25,512 -18.9,3656.8 -370.3,4896.3 -17.9,62.8 -56.8,117.3 -110.4,154.7 l -663.6,462.3 -57.8,757 1802.9,-213.6"
             style="fill:url(#linearGradient404);fill-opacity:1;fill-rule:nonzero;stroke:none"
             id="path406" /></g></g><g
            id="g408"><g
           id="g410"
           clip-path="url(#clipPath414)"><path
             d="m 28329,15680.6 c 1092.1,28.4 2300.2,-264.9 2300.2,-264.9 343.7,-1896.7 96,-4090.5 96,-4090.5 -843.5,-229.8 -1800.8,118.4 -1800.8,118.4 -148.1,792.7 -825.2,3021.2 -825.2,3021.2 -534.3,61.2 -975.4,210.9 -1339.4,411.1 273.1,322.7 399.4,731.3 453.6,972.6 387.4,-116.3 778.8,-176.7 1115.6,-167.9"
             style="fill:url(#linearGradient420);fill-opacity:1;fill-rule:nonzero;stroke:none"
             id="path422" /></g></g><g
            id="g424"><g
           id="g426"
           clip-path="url(#clipPath430)"><path
             d="m 25087.3,17258.6 c 106,130.7 242.4,70.7 242.4,70.7 167.2,-677.5 1015.3,-1220 1883.7,-1480.8 -54.2,-241.3 -180.5,-649.9 -453.6,-972.6 -1444.7,794.2 -1672.5,2382.7 -1672.5,2382.7"
             style="fill:url(#linearGradient436);fill-opacity:1;fill-rule:nonzero;stroke:none"
             id="path438" /></g></g><g
            id="g440"><g
           id="g442"
           clip-path="url(#clipPath446)"><path
             d="m 25113.6,17225.9 c -10.9,-35.8 119.7,-88.9 194.8,57.8 2,70 41.7,370.2 -0.6,426.8 -225.6,301.4 -660.9,677.8 -660.9,677.8 -72.3,-72.7 -11.5,-142.9 -11.5,-142.9 l 211.5,-216.1 c -43,-79.6 -95.8,-146.9 -119.9,-242.9 -18.3,-72.7 -6,-150 31.3,-215.7 37.4,-65.8 88.3,-151.5 136.4,-218.4 91,-126.6 218.9,-126.4 218.9,-126.4"
             style="fill:url(#linearGradient452);fill-opacity:1;fill-rule:nonzero;stroke:none"
             id="path454" /></g></g><g
            id="g456"><g
           id="g458"
           clip-path="url(#clipPath462)"><path
             d="m 24939.9,17888.6 192.3,-159.9 61.5,-160.5 -168.3,-190.4 c 0,0 -60.3,319 -103.5,387.8 -43.2,68.8 -21.4,102.4 18,123"
             style="fill:url(#linearGradient468);fill-opacity:1;fill-rule:nonzero;stroke:none"
             id="path470" /></g></g><g
            id="g472"><g
           id="g474"
           clip-path="url(#clipPath478)"><path
             d="m 30220.4,14354 408.8,1061.7 c 0,0 1026.9,-683.5 1203,-1560.8 -192.6,-16 -542.9,-69.5 -884.6,-246.2 -79.4,414.3 -727.2,745.3 -727.2,745.3"
             style="fill:url(#linearGradient484);fill-opacity:1;fill-rule:nonzero;stroke:none"
             id="path486" /></g></g><g
            id="g488"><g
           id="g490"
           clip-path="url(#clipPath494)"><path
             d="m 29338.3,13350.3 c 0,0 1151.6,-636.4 1532.9,-79.9 79.1,115.5 97.2,229.8 76.4,338.3 341.7,176.7 692,230.2 884.6,246.2 53.2,-264.5 29.1,-546.6 -123.9,-832.9 -665.2,-1244.9 -2518.9,44.5 -2518.9,44.5 l 148.9,283.8"
             style="fill:url(#linearGradient500);fill-opacity:1;fill-rule:nonzero;stroke:none"
             id="path502" /></g></g><g
            id="g504"><g
           id="g506"
           clip-path="url(#clipPath510)"><path
             d="m 29426.9,16577.9 357.2,-1001.8 c 5.9,-16.6 -0.8,-35.1 -16.1,-43.8 -94.3,-53.2 -434.1,-207.9 -848,49 -43.1,26.7 -72.7,70.8 -79.6,121 l -120.9,868.8 707.4,6.8"
             style="fill:url(#linearGradient516);fill-opacity:1;fill-rule:nonzero;stroke:none"
             id="path518" /></g></g><g
            id="g520"><g
           id="g522"
           clip-path="url(#clipPath526)"><path
             d="m 28661.8,17501.4 c 0,0 -374.7,-722 -323.1,-1011.8 51.7,-289.7 524.5,-264.4 935.3,-24.7 l 281.2,778.4 -893.4,258.1"
             style="fill:url(#linearGradient532);fill-opacity:1;fill-rule:nonzero;stroke:none"
             id="path534" /></g></g><g
            id="g536"><g
           id="g538"
           clip-path="url(#clipPath542)"><path
             d="m 29252.1,16845.6 c -16.9,7.3 -23.2,27.8 -13.3,43.3 30.1,47 86.5,142.8 104,226.4 0,0 68.2,44.6 -175.6,100.5 -243.8,55.9 -607.4,142.8 -685.6,349.1 -76.2,201.1 114.2,710.6 429.7,309.1 12,-15.2 35.2,-15.4 46.9,0.2 50.4,66.9 183.4,206.2 370.6,124.3 175.3,-76.6 196.1,-204.3 194.4,-268.7 -0.6,-19 16.5,-33.6 35.1,-29.8 88.1,17.6 299.6,34.1 400.5,-182.1 83.1,-178.1 31.2,-279.9 -16.5,-329.8 -15.5,-16.2 -8.4,-42.6 13.1,-48.9 58.1,-17.2 133.4,-65.7 127.2,-201.6 -8.5,-187.9 -218.6,-173.3 -278.5,-165.3 -9.8,1.3 -19.6,-2.2 -26.2,-9.6 -50.7,-57.2 -279.3,-300.2 -529,-331.6 -21.6,-2.7 -38.6,18.5 -31.7,39.1 l 105.2,315.5 c 4.9,14.6 -2.3,30.6 -16.4,36.7 l -53.9,23.2"
             style="fill:url(#linearGradient548);fill-opacity:1;fill-rule:nonzero;stroke:none"
             id="path550" /></g></g><g
            id="g552"><g
           id="g554"
           clip-path="url(#clipPath558)"><path
             d="m 29209.1,16800.6 c 0,0 269.9,189 291.3,32.2 21.3,-156.8 -242.6,-229.7 -374.2,-172.4 l 82.9,140.2"
             style="fill:url(#linearGradient564);fill-opacity:1;fill-rule:nonzero;stroke:none"
             id="path566" /></g></g><g
            id="g568"><g
           id="g570"
           clip-path="url(#clipPath574)"><path
             d="m 29573.6,12344.5 -627.3,2190.9 c -7.1,24.8 -28.4,43 -54.1,46 -113.6,13.2 -443,50.5 -823.3,82.6 -458,38.8 -990,70.2 -1307.8,43.5 -45.2,-3.8 -72.5,-51.6 -52.4,-92.3 180.7,-365.7 924.3,-1853.3 1296.6,-2340.6 12.3,-16.1 31.4,-25.6 51.7,-25.4 l 1455.6,13.6 c 42.4,0.4 72.7,41 61,81.7"
             style="fill:url(#linearGradient580);fill-opacity:1;fill-rule:nonzero;stroke:none"
             id="path582" /></g></g><g
            id="g584"><g
           id="g586"
           clip-path="url(#clipPath590)"><path
             d="m 29422.1,12873.8 c 0,0 87.4,359.4 52.1,486.9 -35.3,127.4 -103.6,291.4 -331.2,254.9 -227.7,-36.4 -496.2,-132.3 -496.2,-132.3 0,0 13.5,-166.1 186.6,-112.5 l -107.3,-83 c 0,0 15.3,-133 161.4,-61.9 l -99.7,-110.1 c 0,0 62.7,-109.2 170.3,-39.2 107.5,70.1 159,-246.1 464,-202.8"
             style="fill:url(#linearGradient596);fill-opacity:1;fill-rule:nonzero;stroke:none"
             id="path598" /></g></g><path
            d="m 28110.8,14010 c 0,-101.7 -82.5,-184.1 -184.2,-184.1 -101.7,0 -184.1,82.4 -184.1,184.1 0,101.7 82.4,184.2 184.1,184.2 101.7,0 184.2,-82.5 184.2,-184.2"
            style="fill:#7d97f4;fill-opacity:1;fill-rule:nonzero;stroke:none"
            id="path600"/><path
            d="m 28875.5,13888.7 46.6,13.7 -127.8,433.3 c -20.7,70.5 -77.6,123.5 -148.4,138.2 -404.9,84.5 -1471.2,101.8 -1516.4,102.5 l -0.7,-48.6 c 11,-0.2 1106.8,-17.9 1507.1,-101.5 53.3,-11.1 96.1,-51.1 111.8,-104.4 l 127.8,-433.2"
            style="fill:#91b3fa;fill-opacity:1;fill-rule:nonzero;stroke:none"
            id="path602"/></g></g></svg>
