<?xml version="1.0" encoding="utf-8"?>
<!-- Generator: Adobe Illustrator 24.1.3, SVG Export Plug-In . SVG Version: 6.00 Build 0)  -->
<svg version="1.1" xmlns="http://www.w3.org/2000/svg" xmlns:xlink="http://www.w3.org/1999/xlink" x="0px" y="0px"
	 viewBox="0 0 2859.91 2779.2" style="enable-background:new 0 0 2859.91 2779.2;" xml:space="preserve">
<style type="text/css">
	.st0{fill:url(#SVGID_1_);}
	.st1{fill:#6BCDDA;}
	.st2{fill:#D8E3E7;}
	.st3{fill:url(#SVGID_2_);}
	.st4{fill:url(#SVGID_3_);}
	.st5{fill:url(#SVGID_4_);}
	.st6{opacity:0.6;}
	.st7{fill:#FFFFFF;}
	.st8{fill:url(#SVGID_5_);}
	.st9{fill:url(#SVGID_6_);}
	.st10{opacity:0.78;fill:#FFFFFF;}
	.st11{opacity:0.78;}
	.st12{fill:url(#SVGID_7_);}
	.st13{fill:url(#SVGID_8_);}
	.st14{fill:url(#SVGID_9_);}
	.st15{fill:url(#SVGID_10_);}
	.st16{fill:url(#SVGID_11_);}
	.st17{fill:url(#SVGID_12_);}
	.st18{fill:url(#SVGID_13_);}
	.st19{fill:url(#SVGID_14_);}
	.st20{fill:url(#SVGID_15_);}
	.st21{fill:url(#SVGID_16_);}
	.st22{fill:url(#SVGID_17_);}
	.st23{fill:url(#SVGID_18_);}
	.st24{fill:url(#SVGID_19_);}
	.st25{fill:url(#SVGID_20_);}
	.st26{fill:url(#SVGID_21_);}
	.st27{fill:url(#SVGID_22_);}
	.st28{fill:url(#SVGID_23_);}
	.st29{fill:url(#SVGID_24_);}
	.st30{fill:url(#SVGID_25_);}
	.st31{fill:url(#SVGID_26_);}
	.st32{fill:url(#SVGID_27_);}
	.st33{fill:url(#SVGID_28_);}
	.st34{fill:url(#SVGID_29_);}
	.st35{fill:url(#SVGID_30_);}
</style>
<g id="Background">
</g>
<g id="Illustration">
	<g>
		<linearGradient id="SVGID_1_" gradientUnits="userSpaceOnUse" x1="3244.853" y1="3090.3" x2="1044.323" y2="1116.2935">
			<stop  offset="0" style="stop-color:#DCE6E9"/>
			<stop  offset="1" style="stop-color:#EAF0F2"/>
		</linearGradient>
		<path class="st0" d="M2511.57,2407c-74.15,76.44-89.7,87.45-140.5,121.37c-495.44,330.81-1212.33,250.85-1387.43,218.26
			c-282.5-52.58-421.24-71.14-626.13-256.25C-108.06,2069.76-85.42,1192.3,270.34,648.76c42.18-64.45,391.19-564.51,958.76-638.71
			c13.88-1.81,671.42-88.64,1115.07,283.05c63.51,53.21,165.71,149.18,260.48,295.55C2951.18,1123.84,2952.28,1952.74,2511.57,2407z
			"/>
		<g>
			<path class="st1" d="M2633.18,286.39c3.53-12.32,20.92-12.68,25.16-0.59c43.06,122.77,122.2,464.52-143.2,851.85
				c-332.98,485.96-323.34,731.48-248.85,916.9c0,0-156.52-150.37-172.87-402.91C2053.26,1031.6,2570.37,505.37,2633.18,286.39z"/>
			<path class="st2" d="M2612.96,481.74c-19.5,63.23-40.25,126.05-63.25,188.01c-22.68,62.08-47.23,123.44-73.66,183.94
				c-26.66,60.4-54.44,120.29-84.73,178.91c-30.02,58.75-62.54,116.15-95.38,173.67c-32.51,57.67-65.58,115.57-92.83,177.04
				c-27.25,61.32-47.61,126.87-55.39,194.2c-1.92,16.79-3.55,33.68-4.16,50.5c-0.93,16.81-1.11,33.67-0.99,50.53
				c0.41,33.72,3.06,67.46,8.19,100.86c10.45,66.78,31.06,131.91,59.45,192.72c2.99,6.4,10.6,9.17,17,6.18
				c6.29-2.93,9.07-10.33,6.33-16.65l-0.02-0.04c-6.49-14.99-12.79-30.03-18.41-45.3c-2.93-7.59-5.52-15.3-8.25-22.95
				c-2.44-7.75-5.18-15.41-7.37-23.22c-9.31-31.11-16.42-62.83-21.16-94.92c-9.77-64.07-10.02-129.93-2.69-194.26
				c4.03-32.14,10.41-63.92,19.22-95.1c8.83-31.18,20.08-61.73,33.07-91.66c26-59.89,58.27-117.48,90.36-175.38
				c32.02-57.95,63.8-116.4,93.13-176.08c14.74-29.79,28.95-59.85,42.6-90.14c6.92-15.11,13.54-30.34,20.19-45.57
				c6.5-15.29,12.92-30.61,19.21-45.98c25.05-61.53,48.22-123.79,69.38-186.7c20.86-63.01,40.05-126.55,56.75-190.73
				c0.48-1.84-0.62-3.71-2.46-4.19C2615.32,478.97,2613.5,480,2612.96,481.74z"/>
		</g>
		<g>
			<g>
				<path class="st2" d="M2031.65,1603.28c-16.38,17-44.8,11.74-54.3-9.87c-52.42-119.25-170.12-469.81,35.23-869.85
					C2186,385.74,2247.92,186.08,2269.76,93.49c4.62-19.58,31.54-21.88,39.46-3.39C2396.51,294.14,2625.3,987.38,2031.65,1603.28z"
					/>
				<linearGradient id="SVGID_2_" gradientUnits="userSpaceOnUse" x1="1991.6355" y1="1051.6635" x2="2246.9727" y2="1051.6635">
					<stop  offset="0" style="stop-color:#DCE6E9"/>
					<stop  offset="1" style="stop-color:#EAF0F2"/>
				</linearGradient>
				<path class="st3" d="M2002.39,1590.44c-0.58,0.1-1.17,0.14-1.78,0.12c-5.09-0.13-9.1-4.37-8.97-9.46
					c0.15-5.77,17.83-582.34,237.73-1062.95c2.12-4.62,7.59-6.66,12.22-4.55c4.63,2.12,6.66,7.59,4.55,12.22
					c-218.3,477.11-235.92,1050.04-236.07,1055.77C2009.95,1586.07,2006.65,1589.72,2002.39,1590.44z"/>
			</g>
		</g>
		<g>
			
				<linearGradient id="SVGID_3_" gradientUnits="userSpaceOnUse" x1="-1370.4269" y1="2409.2629" x2="-797.508" y2="690.5012" gradientTransform="matrix(-1 0 0 1 305.6874 0)">
				<stop  offset="0" style="stop-color:#132C33"/>
				<stop  offset="1" style="stop-color:#132C33"/>
			</linearGradient>
			<path class="st4" d="M196.79,2471.61c0,24.65,20.19,44.82,44.86,44.82h2425.79c24.67,0,44.86-20.17,44.86-44.82l20.19-1394.03
				c0-24.65-29.04-72.77-82.26-69.15L279.47,947.08c-30.96-0.8-60.89,11.11-82.81,32.96s-33.92,51.73-33.18,82.65L196.79,2471.61z"
				/>
			<linearGradient id="SVGID_4_" gradientUnits="userSpaceOnUse" x1="170.4295" y1="2426.2837" x2="2725.2117" y2="1039.8488">
				<stop  offset="0" style="stop-color:#DBB148"/>
				<stop  offset="1" style="stop-color:#D0970D"/>
			</linearGradient>
			<path class="st5" d="M241.08,2428.62c0,23.34,19.1,42.44,42.44,42.44h2325.42c23.34,0,42.44-19.1,42.44-42.44l19.05-1265.52
				c-2.24-76.16-69.01-103.53-109.48-101.91L288.8,1000.23c-21.75-0.58-42.78,7.8-58.18,23.16c-15.4,15.36-23.88,36.39-23.33,58.14
				L241.08,2428.62z"/>
			<g class="st6">
				<path class="st7" d="M2626.25,1827.41c-0.03,0-0.06,0-0.09,0c-3.44-0.05-6.18-2.87-6.13-6.31l1.51-102.63
					c0.05-3.4,2.82-6.13,6.21-6.13c0.03,0,0.06,0,0.09,0c3.44,0.05,6.18,2.87,6.13,6.31l-1.51,102.63
					C2632.42,1824.68,2629.64,1827.41,2626.25,1827.41z"/>
				<path class="st7" d="M2629.95,1575.91c-0.03,0-0.06,0-0.09,0c-3.44-0.05-6.18-2.88-6.13-6.31l5.77-393.08
					c-0.11-23.35-7.2-41.99-21.07-55.28c-25.89-24.81-67-23.54-68.74-23.46l-726.23-19.47c-3.43-0.09-6.14-2.95-6.05-6.38
					c0.09-3.43,2.73-6.36,6.39-6.05l725.8,19.47c4.52-0.27,48.29-1.02,77.44,26.91c16.4,15.71,24.78,37.36,24.9,64.33l-5.77,393.2
					C2636.11,1573.18,2633.34,1575.91,2629.95,1575.91z"/>
			</g>
			
				<linearGradient id="SVGID_5_" gradientUnits="userSpaceOnUse" x1="-36.8746" y1="2306.4089" x2="-2589.1509" y2="2927.2324" gradientTransform="matrix(-1 0 0 1 305.6874 0)">
				<stop  offset="0" style="stop-color:#132C33"/>
				<stop  offset="1" style="stop-color:#132C33"/>
			</linearGradient>
			<path class="st8" d="M5.65,2632.15h2848.6c3.11,0,5.65-2.54,5.65-5.65v-111.18c0-3.11-2.54-5.65-5.65-5.65H5.65
				c-3.11,0-5.65,2.54-5.65,5.65v111.18C0,2629.61,2.54,2632.15,5.65,2632.15z"/>
		</g>
		<g>
			<path class="st1" d="M1790.11,343.27l-1439.4-8.81c-47.3-0.29-85.14,39.22-82.8,86.47l99.03,2045.04h1601.78l88.94-1827.13
				L1790.11,343.27z"/>
			<linearGradient id="SVGID_6_" gradientUnits="userSpaceOnUse" x1="2187.2178" y1="206.052" x2="2789.5645" y2="-443.0287">
				<stop  offset="0" style="stop-color:#277B8D"/>
				<stop  offset="1" style="stop-color:#126E82"/>
			</linearGradient>
			<path class="st9" d="M1849.96,630.07c-46.89-1.65-82.94-42.06-79.24-88.83l15.43-195.28l271.79,291.67L1849.96,630.07z"/>
			<g>
				<g>
					<path class="st10" d="M1027.35,733.63c129.21-0.2,625.26-1.78,750.52-2.19c15.8-0.05,28.34,15.03,27.71,33.28l0,0
						c-0.6,17.38-12.97,31.23-28.02,31.36l-750.18,6.39c-14.45,0.12-26.49-12.5-27.78-29.12l-0.33-4.2
						C997.81,750.14,1010.83,733.65,1027.35,733.63z"/>
				</g>
				<g>
					<path class="st10" d="M1021.46,877.07c129.21-0.2,625.26-1.78,750.52-2.19c15.8-0.05,28.34,15.03,27.71,33.28l0,0
						c-0.6,17.38-12.97,31.23-28.02,31.36l-750.18,6.39c-14.45,0.12-26.49-12.5-27.78-29.12l-0.33-4.2
						C991.92,893.59,1004.94,877.1,1021.46,877.07z"/>
				</g>
				<g>
					<path class="st10" d="M573.37,1081.5c199.56,0.14,965.63-0.13,1159.08-0.2c24.4-0.01,44.21,15.11,43.77,33.37l0,0
						c-0.42,17.38-19.13,31.21-42.35,31.3l-1158.43,4.41c-22.31,0.09-41.28-12.57-43.75-29.2l-0.63-4.21
						C528.23,1097.94,547.85,1081.48,573.37,1081.5z"/>
				</g>
				<g>
					<path class="st10" d="M564.15,1232.04c155.34-0.67,751.65-4.07,902.23-4.93c18.99-0.11,34.31,14.93,33.84,33.19l0,0
						c-0.44,17.38-15.11,31.28-33.18,31.47l-901.75,9.14c-17.37,0.18-32.04-12.4-33.85-29.02l-0.46-4.2
						C528.9,1248.67,544.29,1232.13,564.15,1232.04z"/>
				</g>
				<g>
					<path class="st10" d="M571.41,1429.16c199.56,0.14,965.63-0.13,1159.08-0.2c24.4-0.01,44.21,15.11,43.77,33.37l0,0
						c-0.42,17.38-19.13,31.21-42.35,31.3l-1158.43,4.41c-22.31,0.08-41.28-12.57-43.75-29.2l-0.63-4.21
						C526.27,1445.6,545.89,1429.14,571.41,1429.16z"/>
				</g>
				<g>
					<path class="st10" d="M554.05,1582.21c156.07,0.28,755.2,0.57,906.5,0.63c19.08,0.01,34.38,15.14,33.8,33.39l0,0
						c-0.55,17.38-15.36,31.19-33.53,31.26l-906.04,3.57c-17.45,0.07-32.12-12.6-33.84-29.23l-0.44-4.21
						C518.53,1598.62,534.09,1582.18,554.05,1582.21z"/>
				</g>
				<g>
					<path class="st10" d="M561.57,1783.91c199.56,0.14,965.63-0.13,1159.08-0.2c24.4-0.01,44.21,15.11,43.77,33.37l0,0
						c-0.42,17.38-19.13,31.21-42.35,31.3l-1158.43,4.41c-22.31,0.08-41.28-12.57-43.75-29.2l-0.63-4.21
						C516.43,1800.36,536.05,1783.9,561.57,1783.91z"/>
				</g>
				<g>
					<path class="st10" d="M549.52,1935.16c156.07,0.28,755.2,0.57,906.5,0.63c19.08,0.01,34.38,15.14,33.8,33.39l0,0
						c-0.55,17.38-15.36,31.19-33.53,31.26l-906.04,3.57c-17.45,0.07-32.12-12.6-33.84-29.23l-0.44-4.21
						C514,1951.57,529.56,1935.12,549.52,1935.16z"/>
				</g>
				<path class="st10" d="M573.37,2134.55c199.56,0.14,965.63-0.13,1159.08-0.2c24.4-0.01,44.21,15.11,43.77,33.37l0,0
					c-0.42,17.38-19.13,31.21-42.35,31.3l-1158.43,4.41c-22.31,0.08-41.28-12.57-43.75-29.2l-0.63-4.21
					C528.23,2150.99,547.85,2134.53,573.37,2134.55z"/>
				<path class="st10" d="M562.08,2302.17c154.1,0.01,745.66-0.77,895.05-0.97c18.84-0.03,33.96,15.08,33.41,33.33l0,0
					c-0.52,17.38-15.14,31.22-33.07,31.32l-894.6,5.18c-17.23,0.1-31.73-12.54-33.44-29.17l-0.43-4.21
					C527.03,2318.65,542.38,2302.17,562.08,2302.17z"/>
			</g>
			<g class="st11">
				<path class="st7" d="M716.93,642.56l-81.11,298.6l-21.94-0.37L470.77,574.46c-6.55-17.29-13.22-27.62-20-30.99
					c-6.79-3.36-25.29-5.6-55.6-6.68v-5.63l222.58,8.05v5.57c-26.3-0.94-44.55-0.25-54.71,2.08c-10.18,2.33-15.27,7.44-15.27,15.32
					c0,4.15,1.3,9.19,3.9,15.08l101.54,262.89L711.79,627l-13.63-44.56c-5.18-16.75-11.43-26.91-18.77-30.49
					c-7.34-3.58-26.15-5.91-56.49-7v-5.57l218.82,7.91v5.51c-25.63-0.92-43.43-0.23-53.34,2.09c-9.92,2.31-14.88,7.78-14.88,16.4
					c0,4.51,0.84,9.06,2.54,13.63l81.72,260.26l69.26-188.5c7.04-19.72,10.56-35.9,10.56-48.53c0-34.6-25.07-52.8-75.4-54.6v-5.5
					l161.43,5.84v5.46c-29.43-1.06-51.25,12.99-65.39,42.16c-2.09,4.4-9.8,24.07-23.14,59.04L831.86,944.45l-20.89-0.35
					L716.93,642.56z"/>
			</g>
		</g>
		<g>
			<g>
				<g>
					
						<linearGradient id="SVGID_7_" gradientUnits="userSpaceOnUse" x1="-2969.8911" y1="2466.4937" x2="-2803.2922" y2="2466.4937" gradientTransform="matrix(-1 0 0 1 -767.0786 0)">
						<stop  offset="0" style="stop-color:#277B8D"/>
						<stop  offset="1" style="stop-color:#126E82"/>
					</linearGradient>
					<path class="st12" d="M2040.92,2458.44c28.54,2.47,78.07,6.47,117.12,8.19c23.47,1.03,36.99-1.27,44.77-4.38
						c-0.01,0.88-0.04,1.71-0.07,2.48c-0.18,4.11-3.52,7.4-7.67,7.63c-73.79,4.12-132.47,1.43-153.36,0.15
						c-4.32-0.26-6.89-4.96-4.68-8.64C2038.13,2462.02,2039.46,2460.22,2040.92,2458.44z"/>
					
						<linearGradient id="SVGID_8_" gradientUnits="userSpaceOnUse" x1="-2969.9006" y1="2433.8423" x2="-2807.9968" y2="2433.8423" gradientTransform="matrix(-1 0 0 1 -767.0786 0)">
						<stop  offset="0" style="stop-color:#132C33"/>
						<stop  offset="1" style="stop-color:#132C33"/>
					</linearGradient>
					<path class="st13" d="M2158.04,2466.63c-39.05-1.72-88.58-5.73-117.12-8.19c28.06-34.43,117.12-57.63,117.12-57.63h25.15
						c17.3,24.94,19.81,48.68,19.62,61.44C2195.03,2465.36,2181.52,2467.66,2158.04,2466.63z"/>
					<linearGradient id="SVGID_9_" gradientUnits="userSpaceOnUse" x1="2209.4543" y1="2350.0955" x2="2515.8354" y2="2118.1458">
						<stop  offset="0" style="stop-color:#D8E3E7"/>
						<stop  offset="1" style="stop-color:#DBB148"/>
					</linearGradient>
					<path class="st14" d="M2187.43,2359.74l-2.35,46.58c-0.25,5.04-4.03,9.28-9.08,10.01c-5.03,0.72-11.76,0.81-18.9-1.57
						c-4.39-1.46-7.65-5.16-8.46-9.68l-8.13-45.35H2187.43z"/>
				</g>
				<g>
					<g>
						
							<linearGradient id="SVGID_10_" gradientUnits="userSpaceOnUse" x1="-3302.0203" y1="2462.9006" x2="-3238.1768" y2="2462.9006" gradientTransform="matrix(-1 0 0 1 -767.0786 0)">
							<stop  offset="0" style="stop-color:#277B8D"/>
							<stop  offset="1" style="stop-color:#126E82"/>
						</linearGradient>
						<path class="st15" d="M2514.15,2466.28c12.38-1.73,17.98-8.16,20.32-15.03c0.02,0.06,0.03,0.12,0.05,0.18
							c1.82,7.25-2.4,14.77-10.84,18.34c-10.2,4.32-21.35,5.06-30.01,4.7c-9.29-0.38-17.82-4.23-22.5-10.38l-0.07-0.09
							C2480.42,2468.61,2493.51,2469.16,2514.15,2466.28z"/>
						
							<linearGradient id="SVGID_11_" gradientUnits="userSpaceOnUse" x1="-3301.5557" y1="2413.7429" x2="-3207.8459" y2="2413.7429" gradientTransform="matrix(-1 0 0 1 -767.0786 0)">
							<stop  offset="0" style="stop-color:#132C33"/>
							<stop  offset="1" style="stop-color:#132C33"/>
						</linearGradient>
						<path class="st16" d="M2455.8,2359.44h20.74c31.6-0.65,51.44,66,57.93,91.81c-2.35,6.87-7.95,13.3-20.32,15.03
							c-20.64,2.88-33.73,2.34-43.05-2.28c-17.07-22.46-25.53-55.36-29.6-74.57C2436.87,2367.6,2455.8,2359.44,2455.8,2359.44z"/>
					</g>
					<linearGradient id="SVGID_12_" gradientUnits="userSpaceOnUse" x1="2482.1714" y1="2331.2039" x2="2757.3948" y2="2130.4119">
						<stop  offset="0" style="stop-color:#D8E3E7"/>
						<stop  offset="1" style="stop-color:#DBB148"/>
					</linearGradient>
					<path class="st17" d="M2473.88,2316.21l11.52,45.81c1.41,5.62-1.28,11.43-6.47,14.09c-6.44,3.31-15.52,6.78-23.85,5.78
						c-3.92-0.47-7.18-3.23-8.47-6.93l-16.91-48.2L2473.88,2316.21z"/>
				</g>
				<linearGradient id="SVGID_13_" gradientUnits="userSpaceOnUse" x1="2786.6833" y1="1035.1741" x2="2355.6958" y2="1860.8018">
					<stop  offset="0" style="stop-color:#277B8D"/>
					<stop  offset="1" style="stop-color:#126E82"/>
				</linearGradient>
				<path class="st18" d="M2487.62,2329.45c-14.33,12.71-60.95,14.39-60.95,14.39c-167.91-403.01-236.6-460.27-236.6-460.27
					c24.25,152.11,3.91,488.88,3.91,488.88c-27.71,12.23-63.43,0-63.43,0c-2.25-249.03-40.53-466.21-85.75-637.43
					c113.49-2.55,173.84-41.39,193.55-56.97C2332.95,1830.56,2487.62,2329.45,2487.62,2329.45z"/>
				
					<linearGradient id="SVGID_14_" gradientUnits="userSpaceOnUse" x1="-2547.5574" y1="1178.3966" x2="-3833.2429" y2="2296.6172" gradientTransform="matrix(-1 0 0 1 -767.0786 0)">
					<stop  offset="0" style="stop-color:#277B8D"/>
					<stop  offset="1" style="stop-color:#126E82"/>
				</linearGradient>
				<path class="st19" d="M2209.52,1214.58c21.48,107.15,13.78,298.92,8.73,386.4c-1.42,24.59,15.74,58.67,29.61,81.92
					c2.18,3.65,0.83,8.32-2.95,10.26c-23.23,11.94-101.91,48.93-193.1,53.54c-6.08,0.31-11.51-3.83-13.09-9.72
					c-67.65-252.58-146.21-413.98-146.21-413.98C1979.26,1184.48,2209.52,1214.58,2209.52,1214.58z"/>
				
					<linearGradient id="SVGID_15_" gradientUnits="userSpaceOnUse" x1="-3063.854" y1="2141.4429" x2="-3036.9802" y2="2087.6958" gradientTransform="matrix(-1 0 0 1 -767.0786 0)">
					<stop  offset="0" style="stop-color:#72CFDB"/>
					<stop  offset="1" style="stop-color:#126E82"/>
				</linearGradient>
				<path class="st20" d="M2178.61,1874.03c0.95,0,1.92-0.26,2.79-0.79c2.53-1.55,3.34-4.85,1.8-7.38
					c-0.9-1.49-22.62-36.59-66.58-57.8c-2.67-1.28-5.89-0.17-7.18,2.51c-1.29,2.67-0.17,5.89,2.51,7.18
					c40.98,19.77,61.86,53.37,62.07,53.71C2175.03,1873.11,2176.8,1874.03,2178.61,1874.03z"/>
				<g>
					
						<linearGradient id="SVGID_16_" gradientUnits="userSpaceOnUse" x1="-3174.5088" y1="1689.8108" x2="-3374.1553" y2="1866.6021" gradientTransform="matrix(-1 0 0 1 -767.0786 0)">
						<stop  offset="0" style="stop-color:#D8E3E7"/>
						<stop  offset="1" style="stop-color:#DBB148"/>
					</linearGradient>
					<path class="st21" d="M2344.26,1522.1c-6.9,49.92-27.29,104.36-68.07,162.19l-15.5-12.64c0,0,17.9-72.61,7.72-155.01
						C2293.57,1511.73,2323.28,1516.79,2344.26,1522.1z"/>
					
						<linearGradient id="SVGID_17_" gradientUnits="userSpaceOnUse" x1="-2654.7419" y1="1059.8966" x2="-3934.6287" y2="2173.0735" gradientTransform="matrix(-1 0 0 1 -767.0786 0)">
						<stop  offset="0" style="stop-color:#277B8D"/>
						<stop  offset="1" style="stop-color:#126E82"/>
					</linearGradient>
					<path class="st22" d="M2185.53,1346.79l23.99-132.21c0,0,160.31,122.54,134.74,307.51c-20.98-5.31-50.69-10.37-75.85-5.46
						C2261.09,1457.28,2239.19,1392.84,2185.53,1346.79z"/>
				</g>
				<g>
					
						<linearGradient id="SVGID_18_" gradientUnits="userSpaceOnUse" x1="-2453.5447" y1="1291.2241" x2="-3733.4331" y2="2404.4023" gradientTransform="matrix(-1 0 0 1 -767.0786 0)">
						<stop  offset="0" style="stop-color:#277B8D"/>
						<stop  offset="1" style="stop-color:#126E82"/>
					</linearGradient>
					<path class="st23" d="M1892.52,1323.01l61.88,133.27c-10.01,80.46-53.23,115.24-99.83,128.59
						c-2.91-36.67-12.18-66.29-20.78-86.78C1893.33,1436.6,1892.52,1323.01,1892.52,1323.01z"/>
					
						<linearGradient id="SVGID_19_" gradientUnits="userSpaceOnUse" x1="-2621.6445" y1="1548.3751" x2="-2464.415" y2="1548.3751" gradientTransform="matrix(-1 0 0 1 -767.0786 0)">
						<stop  offset="0" style="stop-color:#D8E3E7"/>
						<stop  offset="1" style="stop-color:#DBB148"/>
					</linearGradient>
					<path class="st24" d="M1833.78,1498.07c8.6,20.49,17.88,50.12,20.78,86.78c-124.33,48.24-157.23-45.32-157.23-45.32l22.98-4.05
						C1772.21,1540.96,1808.45,1524.23,1833.78,1498.07z"/>
				</g>
				
					<linearGradient id="SVGID_20_" gradientUnits="userSpaceOnUse" x1="-2774.4756" y1="1128.2007" x2="-2776.1929" y2="1421.8154" gradientTransform="matrix(-1 0 0 1 -767.0786 0)">
					<stop  offset="0" style="stop-color:#D8E3E7"/>
					<stop  offset="1" style="stop-color:#DBB148"/>
				</linearGradient>
				<path class="st25" d="M1949.53,1158.48l29.87,109.82c3.36,12.34,16.7,18.96,28.57,14.22c12.81-5.12,29.06-12.11,43.06-19.67
					c14.94-8.06,19.61-27.28,10.15-41.37l-62.11-92.61L1949.53,1158.48z"/>
			</g>
			<g>
				
					<linearGradient id="SVGID_21_" gradientUnits="userSpaceOnUse" x1="-2952.2527" y1="2227.823" x2="-3096.7832" y2="2419.0251" gradientTransform="matrix(-0.9897 -0.1428 -0.1428 0.9897 -691.5895 -1546.5374)">
					<stop  offset="0" style="stop-color:#D8E3E7"/>
					<stop  offset="1" style="stop-color:#DBB148"/>
				</linearGradient>
				<path class="st26" d="M1884.17,1075.04c-0.27,1.89,24.92,125.32,24.92,125.32l70.17-15.88l-6.49-120.54
					C1972.77,1063.95,1888.73,1043.47,1884.17,1075.04z"/>
				
					<linearGradient id="SVGID_22_" gradientUnits="userSpaceOnUse" x1="-3062.6331" y1="2273.9456" x2="-2889.9893" y2="2273.9456" gradientTransform="matrix(-0.9897 -0.1428 -0.1428 0.9897 -691.5895 -1546.5374)">
					<stop  offset="0" style="stop-color:#132C33"/>
					<stop  offset="1" style="stop-color:#132C33"/>
				</linearGradient>
				<path class="st27" d="M1956.98,1090.81l8.39,63.18c0.11,0.81,0.11,1.61-0.01,2.42c-0.71,4.95-4.39,21.81-21.41,16.99
					c-15.44-4.38-29.6-8.14-39.39-5.15c-4.39,1.34-7.04,5.79-6.12,10.29c2.29,11.21,7.92,36.39,16.15,57.51
					c1.67,4.29,6.36,6.54,10.78,5.25c13.31-3.88,41.15-12.85,61.86-25.31c2.81-1.69,4.48-4.74,4.34-8.01
					c-0.67-15.95-2.54-64.44-0.97-78.03c1.47-12.76,17.13-20.4,23.93-23.14c2.23-0.9,3.98-2.66,4.87-4.89
					c3.15-7.89,7.49-26.16-15.53-33.65c-4.82-1.57-7.36-6.76-5.64-11.53c3.41-9.49,4.85-23.98-12.96-31.96
					c-18.1-8.11-31.62,1.54-38.92,9.38c-2.95,3.17-7.69,3.65-11.35,1.34c-2.08-1.32-4.77-1.75-8.02,0.27
					c-4.37,2.72-10.16,0.87-12.42-3.76c-4.34-8.9-13.17-18.43-30.89-15.39c-31.45,5.39-35.01,40.23-26.71,60.65
					c8.3,20.42,42.06,12.64,58.99,2.35c12.88-7.83,29.58,0.38,36.85,4.76C1955.11,1085.78,1956.63,1088.14,1956.98,1090.81z"/>
				
					<linearGradient id="SVGID_23_" gradientUnits="userSpaceOnUse" x1="-3163.9331" y1="2379.24" x2="-3048.0078" y2="2260.304" gradientTransform="matrix(-0.9897 -0.1428 -0.1428 0.9897 -691.5895 -1546.5374)">
					<stop  offset="0" style="stop-color:#D8E3E7"/>
					<stop  offset="1" style="stop-color:#DBB148"/>
				</linearGradient>
				<path class="st28" d="M1993.42,1153c0,0-12.93-36.2,0.35-45.07s32.95-4.26,28.62,21.96
					C2017.01,1162.51,1993.42,1153,1993.42,1153z"/>
			</g>
			
				<linearGradient id="SVGID_24_" gradientUnits="userSpaceOnUse" x1="-2481.1191" y1="1529.9095" x2="-2424.814" y2="1529.9095" gradientTransform="matrix(-1 0 0 1 -767.0786 0)">
				<stop  offset="0" style="stop-color:#D8E3E7"/>
				<stop  offset="1" style="stop-color:#DBB148"/>
			</linearGradient>
			<path class="st29" d="M1706.55,1556.66c-6.26,4.89-27.7-5.32-40.82-12.38c-6.39-3.44-9.49-10.92-7.3-17.84
				c3.16-9.96,8.42-22.81,14.9-24.43C1684.09,1499.33,1732.34,1536.51,1706.55,1556.66z"/>
			<g>
				<g>
					
						<linearGradient id="SVGID_25_" gradientUnits="userSpaceOnUse" x1="-1853.6534" y1="1092.9225" x2="-4228.4854" y2="2825.3208" gradientTransform="matrix(-1 0 0 1 -767.0786 0)">
						<stop  offset="0" style="stop-color:#132C33"/>
						<stop  offset="1" style="stop-color:#132C33"/>
					</linearGradient>
					<path class="st30" d="M2762.27,1859.05l-1637.29-582.31l-86.62,240.62l1636.73,598.57c34.76,12.71,73.56-1.39,92.19-33.37
						c19.13-32.86,37.42-84.19,38.52-161.09C2806.19,1893.53,2788.62,1868.42,2762.27,1859.05z"/>
					<g>
						
							<linearGradient id="SVGID_26_" gradientUnits="userSpaceOnUse" x1="-1770.396" y1="1478.465" x2="-1457.5862" y2="1206.5608" gradientTransform="matrix(-1 0 0 1 -767.0786 0)">
							<stop  offset="0" style="stop-color:#132C33"/>
							<stop  offset="1" style="stop-color:#132C33"/>
						</linearGradient>
						<path class="st31" d="M618.45,1214.55l226.17,27.77c-0.24,31.13-10.43,71.4-44.93,117.6l-188.88-124.59
							C600.78,1228.71,606.53,1213.09,618.45,1214.55z"/>
						
							<linearGradient id="SVGID_27_" gradientUnits="userSpaceOnUse" x1="-1496.9045" y1="1079.3876" x2="-2655.1016" y2="2269.6682" gradientTransform="matrix(-1 0 0 1 -767.0786 0)">
							<stop  offset="0" style="stop-color:#DBB148"/>
							<stop  offset="1" style="stop-color:#D0970D"/>
						</linearGradient>
						<path class="st32" d="M1124.98,1276.75c10.36,150.8-86.62,240.62-86.62,240.62l-238.67-157.45
							c34.5-46.2,44.7-86.47,44.93-117.6L1124.98,1276.75z"/>
					</g>
				</g>
				
					<linearGradient id="SVGID_28_" gradientUnits="userSpaceOnUse" x1="-2203.1968" y1="1114.1334" x2="-3248.436" y2="2188.3274" gradientTransform="matrix(-1 0 0 1 -767.0786 0)">
					<stop  offset="0" style="stop-color:#277B8D"/>
					<stop  offset="1" style="stop-color:#126E82"/>
				</linearGradient>
				<path class="st33" d="M2741.96,1932.84c1.98,0,3.84-1.23,4.54-3.21c0.89-2.5-0.43-5.25-2.93-6.14l-1566.45-553.6
					c-2.51-0.88-5.26,0.43-6.14,2.93c-0.89,2.5,0.43,5.25,2.93,6.14l1566.45,553.6C2740.89,1932.75,2741.43,1932.84,2741.96,1932.84
					z"/>
				
					<linearGradient id="SVGID_29_" gradientUnits="userSpaceOnUse" x1="-2176.1726" y1="1208.532" x2="-3221.4141" y2="2282.7283" gradientTransform="matrix(-1 0 0 1 -767.0786 0)">
					<stop  offset="0" style="stop-color:#277B8D"/>
					<stop  offset="1" style="stop-color:#126E82"/>
				</linearGradient>
				<path class="st34" d="M2714.94,2027.24c1.98,0,3.84-1.23,4.54-3.21c0.89-2.5-0.43-5.25-2.93-6.14l-1566.45-553.6
					c-2.51-0.88-5.25,0.42-6.14,2.93c-0.89,2.5,0.43,5.25,2.93,6.14l1566.45,553.6C2713.87,2027.15,2714.41,2027.24,2714.94,2027.24
					z"/>
			</g>
			
				<linearGradient id="SVGID_30_" gradientUnits="userSpaceOnUse" x1="-2917.064" y1="1620.6857" x2="-3116.7102" y2="1797.4767" gradientTransform="matrix(-1 0 0 1 -767.0786 0)">
				<stop  offset="0" style="stop-color:#D8E3E7"/>
				<stop  offset="1" style="stop-color:#DBB148"/>
			</linearGradient>
			<path class="st35" d="M2267.09,1669.45l-72.36-5.9l-31.34,28.89c0,0,7.41,10.25,30.59,4.36s54.93-7.34,54.93-7.34
				s32,14.43,32.39-12.57L2267.09,1669.45z"/>
		</g>
	</g>
</g>
</svg>
