<?xml version="1.0" encoding="utf-8"?>
<!-- Generator: Adobe Illustrator 24.1.3, SVG Export Plug-In . SVG Version: 6.00 Build 0)  -->
<svg version="1.1" id="Layer_1" xmlns="http://www.w3.org/2000/svg" x="0px"
     y="0px"
     viewBox="0 0 75.56 90.27" style="enable-background:new 0 0 75.56 90.27;" xml:space="preserve">
<style type="text/css">
	.st0{fill:#D8E3E7;}
	.st1{fill:#CF9508;}
	.st2{fill:#126E82;}
	.st3{fill:#51C4D3;}
	.st4{fill:#132C33;}
	.st5{fill:#825F0C;}
	.st6{fill:#17191A;}
	.st7{opacity:0.3;fill:#CF9508;}
	.st8{opacity:0.2;fill:#132C33;}
	.st9{opacity:0.3;fill:#D8E3E7;}
	.st10{opacity:0.2;fill:#D8E3E7;}
	.st11{fill:#FEFEFE;}
	.st12{opacity:0.1;fill:#D8E3E7;}
	.st13{opacity:0.3;}
	.st14{opacity:0.1;fill:#825F0C;}
	.st15{opacity:0.2;fill:#CF9508;}
	.st16{opacity:0.3;fill:#FFFFFF;}
	.st17{opacity:0.3;fill:#825F0C;}
	.st18{opacity:0.4;fill:#825F0C;}
	.st19{fill:#FFFFFF;}
	.st20{opacity:0.2;}
	.st21{opacity:0.4;}
	.st22{fill:#FEFFFF;}
	.st23{opacity:0.2;fill:#825F0C;}
	.st24{opacity:0.5;fill:#D8E3E7;}
	.st25{opacity:0.3;fill:#132C33;}
	.st26{opacity:0.4;fill:#D8E3E7;}
	.st27{fill:#18181B;}
	.st28{opacity:0.6;}
	.st29{fill:#120700;}
	.st30{opacity:0.4;fill:#132C33;}
	.st31{fill:#FEFFFC;}
	.st32{opacity:0.4;fill:#51C4D3;}
	.st33{opacity:0.4;fill:#CF9508;}
	.st34{fill:#10171D;}
</style>
    <g>
	<g>
		<g>
			<g>
				<path class="st4" d="M0.1,4.61C0.1,2.07,2.28,0,4.94,0l28.59,0.03l15.7,0.03c2.66,0,4.83,2.09,4.83,4.62l-0.11,64.97
					c0,2.54-2.18,4.61-4.84,4.61l-15.69-0.03L4.82,74.2C2.17,74.19-0.01,72.12,0,69.58L0.1,4.61z"/>
                <path class="st4" d="M3.68,4.61C3.69,2.07,5.86,0,8.52,0l28.59,0.03l15.7,0.03c2.66,0,4.83,2.09,4.83,4.62l-0.1,64.97
					c0,2.54-2.19,4.61-4.84,4.61l-15.69-0.03L8.41,74.2c-2.66-0.01-4.83-2.08-4.82-4.62L3.68,4.61z"/>
                <path class="st0" d="M55.69,9.28l-0.01,5.8l-0.07,45.85c0,0.76-0.49,1.41-1.18,1.69c-0.23,0.1-0.48,0.15-0.75,0.15l-16.66-0.03
					L8.05,62.72H7.46c-1.06,0-1.93-0.84-1.93-1.85l0.03-16.14l0.01-9.51L5.59,26L5.61,9.23c0-1.02,0.87-1.85,1.93-1.85l16.65,0.02
					l9.2,0.01l3.71,0l5.77,0.01l10.9,0.02C54.83,7.43,55.7,8.27,55.69,9.28z"/>
                <path class="st0" d="M26.45,66.67c0.52-0.49,1.21-0.76,1.94-0.76l2.23,0h2.23c0.36,0,0.71,0.07,1.04,0.2
					c1.03,0.41,1.7,1.36,1.7,2.42c0,1.44-1.24,2.61-2.75,2.61l-2.23,0l-2.22,0c-0.36,0-0.71-0.07-1.04-0.2
					c-1.03-0.4-1.7-1.35-1.7-2.42C25.64,67.82,25.93,67.16,26.45,66.67z"/>
                <path class="st0" d="M26.04,3.11l4.57,0.01l4.57,0.01c0.59,0,1.07,0.46,1.07,1.03c0,0.56-0.48,1.03-1.08,1.02L30.6,5.16l-4.57,0
					c-0.59,0-1.07-0.46-1.07-1.03C24.97,3.57,25.45,3.11,26.04,3.11z"/>
			</g>
            <g>
				<g>
					<polygon class="st3" points="7.44,48.84 54.13,48.38 54.55,15.82 7.1,16.06 					"/>
				</g>
                <g>
					<g>
						<g>
							<path class="st5" d="M23.55,47.61c0.03,0.06,0.08,0.12,0.15,0.17c0.48,0.36,1.8,0.48,2.72,0.5c0.08,0,0.16,0,0.23,0
								c1.13,0,3.17-0.17,3.17-0.82h-6.3C23.52,47.52,23.53,47.56,23.55,47.61z"/>
                            <path class="st1"
                                  d="M23.49,46.82v0.65c0,0.33,1.03,0.6,2.42,0.68v-1.36c-0.13,0.01-0.26,0.01-0.38,0.03H23.49z"/>
                            <path class="st1" d="M25.91,46.79v1.36c0.24,0.01,0.49,0.02,0.75,0.02c0.25,0,0.5-0.01,0.73-0.02v-1.36
								c-0.24-0.01-0.48-0.02-0.73-0.02C26.4,46.77,26.15,46.78,25.91,46.79z"/>
                            <path class="st1" d="M28.87,47.97c0.59-0.13,0.95-0.3,0.95-0.5v-0.65h-0.95V47.97z"/>
                            <path class="st1"
                                  d="M27.39,46.79v1.36c0.57-0.03,1.08-0.09,1.48-0.18v-1.15h-1.09C27.65,46.8,27.52,46.8,27.39,46.79z"/>
                            <ellipse class="st1" cx="26.66" cy="46.82" rx="3.16" ry="0.7"/>
                            <path class="st1" d="M26.66,46.21c-1.51,0-2.74,0.23-2.74,0.51c0,0.28,1.23,0.51,2.74,0.51c1.51,0,2.74-0.23,2.74-0.51
								C29.39,46.44,28.17,46.21,26.66,46.21z"/>
						</g>
                        <g>
							<path class="st5"
                                  d="M26.67,47.2c1.13,0,3.17-0.17,3.17-0.82h-6.3C23.53,47.03,25.54,47.2,26.67,47.2z"/>
                            <path class="st1"
                                  d="M23.5,45.73v0.65c0,0.33,1.03,0.6,2.42,0.68v-1.36c-0.13,0.01-0.26,0.01-0.38,0.03H23.5z"/>
                            <path class="st1" d="M25.92,45.71v1.36c0.24,0.01,0.49,0.02,0.75,0.02c0.25,0,0.5-0.01,0.73-0.02v-1.36
								c-0.24-0.01-0.48-0.02-0.73-0.02C26.41,45.69,26.16,45.69,25.92,45.71z"/>
                            <path class="st1" d="M28.88,46.88c0.59-0.13,0.95-0.3,0.95-0.5v-0.65h-0.95V46.88z"/>
                            <path class="st1"
                                  d="M27.4,45.71v1.36c0.57-0.03,1.08-0.09,1.48-0.18v-1.15h-1.09C27.67,45.72,27.54,45.71,27.4,45.71z"/>
                            <ellipse class="st1" cx="26.67" cy="45.73" rx="3.16" ry="0.7"/>
                            <path class="st1" d="M26.67,45.13c-1.51,0-2.74,0.23-2.74,0.51c0,0.28,1.23,0.51,2.74,0.51c1.51,0,2.74-0.23,2.74-0.51
								C29.41,45.36,28.18,45.13,26.67,45.13z"/>
						</g>
                        <g>
							<path class="st5"
                                  d="M26.92,46.12c1.13,0,3.16-0.17,3.16-0.82h-6.3C23.78,45.95,25.79,46.12,26.92,46.12z"/>
                            <path class="st1"
                                  d="M23.76,44.65v0.65c0,0.33,1.03,0.6,2.42,0.68v-1.36c-0.13,0.01-0.26,0.01-0.38,0.03H23.76z"/>
                            <path class="st1" d="M26.18,44.62v1.36c0.24,0.01,0.49,0.02,0.75,0.02c0.25,0,0.5-0.01,0.73-0.02v-1.36
								c-0.24-0.01-0.48-0.02-0.73-0.02C26.67,44.6,26.42,44.61,26.18,44.62z"/>
                            <path class="st1" d="M29.13,45.8c0.59-0.13,0.95-0.3,0.95-0.5v-0.65h-0.95V45.8z"/>
                            <path class="st1"
                                  d="M27.66,44.62v1.36c0.57-0.03,1.08-0.09,1.48-0.18v-1.15h-1.09C27.92,44.64,27.79,44.63,27.66,44.62z"/>
                            <ellipse class="st1" cx="26.92" cy="44.65" rx="3.16" ry="0.7"/>
                            <path class="st1" d="M26.92,44.04c-1.51,0-2.74,0.23-2.74,0.51c0,0.28,1.23,0.51,2.74,0.51c1.51,0,2.74-0.23,2.74-0.51
								C29.66,44.27,28.44,44.04,26.92,44.04z"/>
						</g>
                        <g>
							<path class="st5"
                                  d="M26.53,45.03c1.13,0,3.17-0.17,3.17-0.82h-6.3C23.39,44.86,25.39,45.03,26.53,45.03z"/>
                            <path class="st1"
                                  d="M23.36,43.56v0.65c0,0.33,1.03,0.6,2.42,0.68v-1.36c-0.13,0.01-0.26,0.01-0.38,0.03H23.36z"/>
                            <path class="st1" d="M25.78,43.54v1.36c0.24,0.01,0.49,0.02,0.75,0.02c0.25,0,0.5-0.01,0.73-0.02v-1.36
								c-0.24-0.01-0.48-0.02-0.73-0.02C26.27,43.52,26.02,43.52,25.78,43.54z"/>
                            <path class="st1" d="M28.74,44.71c0.59-0.13,0.95-0.3,0.95-0.5v-0.65h-0.95V44.71z"/>
                            <path class="st1"
                                  d="M27.26,43.54v1.36c0.57-0.03,1.08-0.09,1.48-0.18v-1.15h-1.09C27.52,43.55,27.39,43.54,27.26,43.54z"/>
                            <path class="st1" d="M26.53,42.86c-1.75,0-3.16,0.31-3.16,0.7c0,0.39,1.42,0.7,3.16,0.7c1.75,0,3.17-0.31,3.17-0.7
								C29.69,43.18,28.27,42.86,26.53,42.86z"/>
                            <path class="st1" d="M26.53,42.96c-1.51,0-2.74,0.23-2.74,0.51s1.23,0.51,2.74,0.51c1.51,0,2.74-0.23,2.74-0.51
								S28.04,42.96,26.53,42.96z"/>
						</g>
                        <g>
							<path class="st5"
                                  d="M26.78,43.95c1.13,0,3.16-0.17,3.16-0.82h-6.3C23.64,43.78,25.65,43.95,26.78,43.95z"/>
                            <path class="st1"
                                  d="M23.61,42.48v0.65c0,0.33,1.03,0.6,2.42,0.68v-1.36c-0.13,0.01-0.26,0.01-0.38,0.03H23.61z"/>
                            <path class="st1" d="M26.03,42.45v1.36c0.24,0.01,0.49,0.02,0.75,0.02c0.25,0,0.5-0.01,0.73-0.02v-1.36
								c-0.24-0.01-0.48-0.02-0.73-0.02C26.52,42.43,26.27,42.44,26.03,42.45z"/>
                            <path class="st1" d="M28.99,43.63c0.59-0.13,0.95-0.3,0.95-0.5v-0.65h-0.95V43.63z"/>
                            <path class="st1"
                                  d="M27.51,42.45v1.36c0.57-0.03,1.07-0.09,1.48-0.18v-1.15H27.9C27.78,42.47,27.65,42.46,27.51,42.45z"/>
                            <path class="st1" d="M26.78,41.78c-1.75,0-3.16,0.31-3.16,0.7s1.42,0.7,3.16,0.7c1.75,0,3.17-0.31,3.17-0.7
								S28.53,41.78,26.78,41.78z"/>
                            <path class="st1" d="M26.78,41.87c-1.51,0-2.74,0.23-2.74,0.51c0,0.28,1.23,0.51,2.74,0.51c1.51,0,2.74-0.23,2.74-0.51
								C29.52,42.1,28.29,41.87,26.78,41.87z"/>
						</g>
                        <g>
							<path class="st5"
                                  d="M26.59,42.65c1.13,0,3.16-0.17,3.16-0.82h-6.3C23.45,42.48,25.45,42.65,26.59,42.65z"/>
                            <path class="st1"
                                  d="M23.42,41.18v0.65c0,0.33,1.03,0.6,2.42,0.68v-1.36c-0.13,0.01-0.26,0.01-0.38,0.03H23.42z"/>
                            <path class="st1" d="M25.84,41.16v1.36c0.24,0.01,0.49,0.02,0.75,0.02c0.25,0,0.5-0.01,0.73-0.02v-1.36
								c-0.24-0.01-0.48-0.02-0.73-0.02C26.33,41.14,26.08,41.14,25.84,41.16z"/>
                            <path class="st1" d="M28.8,42.33c0.59-0.13,0.95-0.3,0.95-0.5v-0.65H28.8V42.33z"/>
                            <path class="st1"
                                  d="M27.32,41.16v1.36c0.57-0.03,1.07-0.09,1.48-0.18v-1.15h-1.09C27.58,41.17,27.45,41.16,27.32,41.16z"/>
                            <path class="st1" d="M26.59,40.48c-1.75,0-3.17,0.31-3.17,0.7c0,0.39,1.42,0.7,3.17,0.7c1.75,0,3.16-0.31,3.16-0.7
								C29.75,40.8,28.33,40.48,26.59,40.48z"/>
                            <ellipse class="st1" cx="26.59" cy="41.09" rx="2.74" ry="0.51"/>
						</g>
                        <g>
							<path class="st5"
                                  d="M27.16,41.43c1.13,0,3.16-0.17,3.16-0.82h-6.3C24.03,41.25,26.03,41.43,27.16,41.43z"/>
                            <path class="st1"
                                  d="M24,39.96v0.65c0,0.33,1.03,0.6,2.42,0.68v-1.36c-0.13,0.01-0.26,0.01-0.38,0.03H24z"/>
                            <path class="st1" d="M26.42,39.93v1.36c0.24,0.01,0.49,0.02,0.75,0.02c0.25,0,0.5-0.01,0.73-0.02v-1.36
								c-0.24-0.01-0.48-0.02-0.73-0.02C26.91,39.91,26.66,39.92,26.42,39.93z"/>
                            <path class="st1" d="M29.38,41.11c0.59-0.13,0.95-0.3,0.95-0.5v-0.65h-0.95V41.11z"/>
                            <path class="st1"
                                  d="M27.9,39.93v1.36c0.57-0.03,1.08-0.09,1.48-0.18v-1.15h-1.09C28.16,39.94,28.03,39.94,27.9,39.93z"/>
                            <path class="st1" d="M27.16,39.26c-1.75,0-3.16,0.31-3.16,0.7s1.42,0.7,3.16,0.7c1.75,0,3.17-0.31,3.17-0.7
								S28.91,39.26,27.16,39.26z"/>
                            <path class="st1" d="M27.16,39.35c-1.51,0-2.74,0.23-2.74,0.51c0,0.28,1.23,0.51,2.74,0.51c1.51,0,2.74-0.23,2.74-0.51
								C29.9,39.58,28.68,39.35,27.16,39.35z"/>
						</g>
                        <g>
							<path class="st5"
                                  d="M26.09,40.34c1.13,0,3.16-0.17,3.16-0.82h-6.3C22.96,40.17,24.96,40.34,26.09,40.34z"/>
                            <path class="st1"
                                  d="M22.93,38.87v0.65c0,0.33,1.03,0.6,2.42,0.68v-1.36c-0.13,0.01-0.26,0.01-0.38,0.03H22.93z"/>
                            <path class="st1" d="M25.35,38.85v1.36c0.24,0.01,0.49,0.02,0.75,0.02c0.25,0,0.5-0.01,0.73-0.02v-1.36
								c-0.24-0.01-0.48-0.02-0.73-0.02C25.84,38.83,25.59,38.83,25.35,38.85z"/>
                            <path class="st1" d="M28.3,40.02c0.59-0.13,0.95-0.3,0.95-0.5v-0.65H28.3V40.02z"/>
                            <path class="st1"
                                  d="M26.83,38.85v1.36c0.57-0.03,1.08-0.09,1.48-0.18v-1.15h-1.09C27.09,38.86,26.96,38.85,26.83,38.85z"/>
                            <path class="st1" d="M26.09,38.17c-1.75,0-3.16,0.31-3.16,0.7c0,0.39,1.42,0.7,3.16,0.7c1.75,0,3.17-0.31,3.17-0.7
								C29.26,38.49,27.84,38.17,26.09,38.17z"/>
                            <ellipse class="st1" cx="26.09" cy="38.78" rx="2.74" ry="0.51"/>
						</g>
                        <g>
							<path class="st5"
                                  d="M26.47,38.94c1.13,0,3.16-0.17,3.16-0.82h-6.3C23.33,38.77,25.34,38.94,26.47,38.94z"/>
                            <path class="st1"
                                  d="M23.3,37.47v0.65c0,0.33,1.03,0.6,2.42,0.68v-1.36c-0.13,0.01-0.26,0.01-0.38,0.03H23.3z"/>
                            <path class="st1" d="M25.72,37.45v1.36c0.24,0.01,0.49,0.02,0.75,0.02c0.25,0,0.5-0.01,0.73-0.02v-1.36
								c-0.24-0.01-0.48-0.02-0.73-0.02C26.21,37.43,25.96,37.44,25.72,37.45z"/>
                            <path class="st1" d="M28.68,38.63c0.59-0.13,0.95-0.3,0.95-0.5v-0.65h-0.95V38.63z"/>
                            <path class="st1"
                                  d="M27.2,37.45v1.36c0.57-0.03,1.07-0.09,1.48-0.18v-1.15h-1.09C27.47,37.46,27.33,37.45,27.2,37.45z"/>
                            <path class="st1" d="M26.47,36.78c-1.75,0-3.16,0.31-3.16,0.7s1.42,0.7,3.16,0.7c1.75,0,3.16-0.31,3.16-0.7
								S28.22,36.78,26.47,36.78z"/>
                            <path class="st1" d="M26.47,36.87c-1.51,0-2.74,0.23-2.74,0.51c0,0.28,1.23,0.51,2.74,0.51c1.51,0,2.74-0.23,2.74-0.51
								C29.21,37.1,27.98,36.87,26.47,36.87z"/>
						</g>
					</g>
                    <g>
						<g>
							<path class="st5" d="M16.91,47.61c0.03,0.06,0.08,0.12,0.15,0.17c0.48,0.36,1.8,0.48,2.72,0.5c0.08,0,0.16,0,0.23,0
								c1.13,0,3.17-0.17,3.17-0.82h-6.3C16.87,47.52,16.89,47.56,16.91,47.61z"/>
                            <path class="st1"
                                  d="M16.85,46.82v0.65c0,0.33,1.03,0.6,2.42,0.68v-1.36c-0.13,0.01-0.26,0.01-0.38,0.03H16.85z"/>
                            <path class="st1" d="M19.27,46.79v1.36c0.24,0.01,0.49,0.02,0.75,0.02c0.25,0,0.5-0.01,0.73-0.02v-1.36
								c-0.24-0.01-0.48-0.02-0.73-0.02C19.76,46.77,19.51,46.78,19.27,46.79z"/>
                            <path class="st1" d="M22.22,47.97c0.59-0.13,0.95-0.3,0.95-0.5v-0.65h-0.95V47.97z"/>
                            <path class="st1"
                                  d="M20.75,46.79v1.36c0.57-0.03,1.07-0.09,1.48-0.18v-1.15h-1.09C21.01,46.8,20.88,46.8,20.75,46.79z"/>
                            <path class="st1" d="M20.01,46.12c-1.75,0-3.16,0.31-3.16,0.7s1.42,0.7,3.16,0.7c1.75,0,3.16-0.31,3.16-0.7
								S21.76,46.12,20.01,46.12z"/>
                            <path class="st1" d="M20.01,46.21c-1.51,0-2.74,0.23-2.74,0.51c0,0.28,1.23,0.51,2.74,0.51c1.51,0,2.74-0.23,2.74-0.51
								C22.75,46.44,21.53,46.21,20.01,46.21z"/>
						</g>
                        <g>
							<path class="st5"
                                  d="M20.03,47.2c1.13,0,3.17-0.17,3.17-0.82h-6.3C16.89,47.03,18.89,47.2,20.03,47.2z"/>
                            <path class="st1"
                                  d="M16.86,45.73v0.65c0,0.33,1.03,0.6,2.42,0.68v-1.36c-0.13,0.01-0.26,0.01-0.38,0.03H16.86z"/>
                            <path class="st1" d="M19.28,45.71v1.36c0.24,0.01,0.49,0.02,0.75,0.02c0.25,0,0.5-0.01,0.73-0.02v-1.36
								c-0.24-0.01-0.48-0.02-0.73-0.02C19.77,45.69,19.52,45.69,19.28,45.71z"/>
                            <path class="st1" d="M22.24,46.88c0.59-0.13,0.95-0.3,0.95-0.5v-0.65h-0.95V46.88z"/>
                            <path class="st1"
                                  d="M20.76,45.71v1.36c0.57-0.03,1.07-0.09,1.48-0.18v-1.15h-1.09C21.02,45.72,20.89,45.71,20.76,45.71z"/>
                            <path class="st1" d="M20.03,45.03c-1.75,0-3.16,0.31-3.16,0.7s1.42,0.7,3.16,0.7c1.75,0,3.17-0.31,3.17-0.7
								S21.77,45.03,20.03,45.03z"/>
                            <path class="st1" d="M20.03,45.13c-1.51,0-2.74,0.23-2.74,0.51c0,0.28,1.23,0.51,2.74,0.51c1.51,0,2.74-0.23,2.74-0.51
								C22.77,45.36,21.54,45.13,20.03,45.13z"/>
						</g>
                        <g>
							<path class="st5"
                                  d="M20.28,46.12c1.13,0,3.17-0.17,3.17-0.82h-6.3C17.14,45.95,19.15,46.12,20.28,46.12z"/>
                            <path class="st1"
                                  d="M17.11,44.65v0.65c0,0.33,1.03,0.6,2.42,0.68v-1.36c-0.13,0.01-0.26,0.01-0.38,0.03H17.11z"/>
                            <path class="st1" d="M19.53,44.62v1.36c0.24,0.01,0.49,0.02,0.75,0.02c0.25,0,0.5-0.01,0.73-0.02v-1.36
								c-0.24-0.01-0.48-0.02-0.73-0.02C20.02,44.6,19.77,44.61,19.53,44.62z"/>
                            <path class="st1" d="M22.49,45.8c0.59-0.13,0.95-0.3,0.95-0.5v-0.65h-0.95V45.8z"/>
                            <path class="st1"
                                  d="M21.01,44.62v1.36c0.57-0.03,1.07-0.09,1.48-0.18v-1.15H21.4C21.28,44.64,21.15,44.63,21.01,44.62z"/>
                            <ellipse class="st1" cx="20.28" cy="44.65" rx="3.16" ry="0.7"/>
                            <path class="st1" d="M20.28,44.04c-1.51,0-2.74,0.23-2.74,0.51c0,0.28,1.23,0.51,2.74,0.51s2.74-0.23,2.74-0.51
								C23.02,44.27,21.79,44.04,20.28,44.04z"/>
						</g>
                        <g>
							<path class="st5"
                                  d="M19.88,45.03c1.13,0,3.16-0.17,3.16-0.82h-6.3C16.74,44.86,18.75,45.03,19.88,45.03z"/>
                            <path class="st1"
                                  d="M16.72,43.56v0.65c0,0.33,1.03,0.6,2.42,0.68v-1.36c-0.13,0.01-0.26,0.01-0.38,0.03H16.72z"/>
                            <path class="st1" d="M19.14,43.54v1.36c0.24,0.01,0.49,0.02,0.75,0.02c0.25,0,0.5-0.01,0.73-0.02v-1.36
								c-0.24-0.01-0.48-0.02-0.73-0.02C19.63,43.52,19.38,43.52,19.14,43.54z"/>
                            <path class="st1" d="M22.09,44.71c0.59-0.13,0.95-0.3,0.95-0.5v-0.65h-0.95V44.71z"/>
                            <path class="st1"
                                  d="M20.62,43.54v1.36c0.57-0.03,1.07-0.09,1.48-0.18v-1.15h-1.09C20.88,43.55,20.75,43.54,20.62,43.54z"/>
                            <path class="st1" d="M19.88,42.86c-1.75,0-3.16,0.31-3.16,0.7c0,0.39,1.42,0.7,3.16,0.7c1.75,0,3.17-0.31,3.17-0.7
								C23.05,43.18,21.63,42.86,19.88,42.86z"/>
                            <ellipse class="st1" cx="19.88" cy="43.47" rx="2.74" ry="0.51"/>
						</g>
                        <g>
							<path class="st5"
                                  d="M20.14,43.95c1.13,0,3.16-0.17,3.16-0.82H17C17,43.78,19,43.95,20.14,43.95z"/>
                            <path class="st1"
                                  d="M16.97,42.48v0.65c0,0.33,1.03,0.6,2.42,0.68v-1.36c-0.13,0.01-0.26,0.01-0.38,0.03H16.97z"/>
                            <path class="st1" d="M19.39,42.45v1.36c0.24,0.01,0.49,0.02,0.75,0.02c0.25,0,0.5-0.01,0.73-0.02v-1.36
								c-0.24-0.01-0.48-0.02-0.73-0.02C19.88,42.43,19.63,42.44,19.39,42.45z"/>
                            <path class="st1" d="M22.35,43.63c0.59-0.13,0.95-0.3,0.95-0.5v-0.65h-0.95V43.63z"/>
                            <path class="st1"
                                  d="M20.87,42.45v1.36c0.57-0.03,1.07-0.09,1.48-0.18v-1.15h-1.09C21.13,42.47,21,42.46,20.87,42.45z"/>
                            <path class="st1" d="M20.14,41.78c-1.75,0-3.16,0.31-3.16,0.7s1.42,0.7,3.16,0.7c1.75,0,3.16-0.31,3.16-0.7
								S21.88,41.78,20.14,41.78z"/>
                            <path class="st1" d="M20.14,41.87c-1.51,0-2.74,0.23-2.74,0.51c0,0.28,1.23,0.51,2.74,0.51c1.51,0,2.74-0.23,2.74-0.51
								C22.88,42.1,21.65,41.87,20.14,41.87z"/>
						</g>
                        <g>
							<path class="st5"
                                  d="M19.94,42.65c1.13,0,3.16-0.17,3.16-0.82h-6.3C16.8,42.48,18.81,42.65,19.94,42.65z"/>
                            <path class="st1"
                                  d="M16.78,41.18v0.65c0,0.33,1.03,0.6,2.42,0.68v-1.36c-0.13,0.01-0.26,0.01-0.38,0.03H16.78z"/>
                            <path class="st1" d="M19.2,41.16v1.36c0.24,0.01,0.49,0.02,0.75,0.02c0.25,0,0.5-0.01,0.73-0.02v-1.36
								c-0.24-0.01-0.48-0.02-0.73-0.02C19.69,41.14,19.44,41.14,19.2,41.16z"/>
                            <path class="st1" d="M22.15,42.33c0.59-0.13,0.95-0.3,0.95-0.5v-0.65h-0.95V42.33z"/>
                            <path class="st1"
                                  d="M20.68,41.16v1.36c0.57-0.03,1.08-0.09,1.48-0.18v-1.15h-1.09C20.94,41.17,20.81,41.16,20.68,41.16z"/>
                            <path class="st1" d="M19.94,40.48c-1.75,0-3.17,0.31-3.17,0.7c0,0.39,1.42,0.7,3.17,0.7c1.75,0,3.16-0.31,3.16-0.7
								C23.11,40.8,21.69,40.48,19.94,40.48z"/>
                            <path class="st1" d="M19.94,40.58c-1.51,0-2.74,0.23-2.74,0.51c0,0.28,1.23,0.51,2.74,0.51c1.51,0,2.74-0.23,2.74-0.51
								C22.68,40.81,21.46,40.58,19.94,40.58z"/>
						</g>
					</g>
                    <g>
						<g>
							<path class="st5" d="M10.34,47.61c0.03,0.06,0.08,0.12,0.15,0.17c0.48,0.36,1.8,0.48,2.72,0.5c0.08,0,0.16,0,0.23,0
								c1.13,0,3.17-0.17,3.17-0.82h-6.3C10.3,47.52,10.32,47.56,10.34,47.61z"/>
                            <path class="st1"
                                  d="M10.28,46.82v0.65c0,0.33,1.03,0.6,2.42,0.68v-1.36c-0.13,0.01-0.26,0.01-0.38,0.03H10.28z"/>
                            <path class="st1" d="M12.7,46.79v1.36c0.24,0.01,0.49,0.02,0.75,0.02c0.25,0,0.5-0.01,0.73-0.02v-1.36
								c-0.24-0.01-0.48-0.02-0.73-0.02C13.19,46.77,12.94,46.78,12.7,46.79z"/>
                            <path class="st1" d="M15.65,47.97c0.59-0.13,0.95-0.3,0.95-0.5v-0.65h-0.95V47.97z"/>
                            <path class="st1"
                                  d="M14.18,46.79v1.36c0.57-0.03,1.07-0.09,1.48-0.18v-1.15h-1.09C14.44,46.8,14.31,46.8,14.18,46.79z"/>
                            <ellipse class="st1" cx="13.44" cy="46.82" rx="3.16" ry="0.7"/>
                            <path class="st1" d="M13.44,46.21c-1.51,0-2.74,0.23-2.74,0.51c0,0.28,1.23,0.51,2.74,0.51s2.74-0.23,2.74-0.51
								C16.18,46.44,14.96,46.21,13.44,46.21z"/>
						</g>
                        <g>
							<path class="st5"
                                  d="M13.46,47.2c1.13,0,3.16-0.17,3.16-0.82h-6.3C10.32,47.03,12.32,47.2,13.46,47.2z"/>
                            <path class="st1"
                                  d="M10.29,45.73v0.65c0,0.33,1.03,0.6,2.42,0.68v-1.36c-0.13,0.01-0.26,0.01-0.38,0.03H10.29z"/>
                            <path class="st1" d="M12.71,45.71v1.36c0.24,0.01,0.49,0.02,0.75,0.02c0.25,0,0.5-0.01,0.73-0.02v-1.36
								c-0.24-0.01-0.48-0.02-0.73-0.02C13.2,45.69,12.95,45.69,12.71,45.71z"/>
                            <path class="st1" d="M15.67,46.88c0.59-0.13,0.95-0.3,0.95-0.5v-0.65h-0.95V46.88z"/>
                            <path class="st1"
                                  d="M14.19,45.71v1.36c0.57-0.03,1.07-0.09,1.48-0.18v-1.15h-1.09C14.45,45.72,14.32,45.71,14.19,45.71z"/>
                            <ellipse class="st1" cx="13.46" cy="45.73" rx="3.16" ry="0.7"/>
                            <path class="st1" d="M13.46,45.13c-1.51,0-2.74,0.23-2.74,0.51c0,0.28,1.23,0.51,2.74,0.51c1.51,0,2.74-0.23,2.74-0.51
								C16.2,45.36,14.97,45.13,13.46,45.13z"/>
						</g>
                        <g>
							<path class="st5"
                                  d="M13.71,46.12c1.13,0,3.16-0.17,3.16-0.82h-6.3C10.57,45.95,12.58,46.12,13.71,46.12z"/>
                            <path class="st1"
                                  d="M10.55,44.65v0.65c0,0.33,1.03,0.6,2.42,0.68v-1.36c-0.13,0.01-0.26,0.01-0.38,0.03H10.55z"/>
                            <path class="st1" d="M12.96,44.62v1.36C13.2,45.99,13.45,46,13.71,46c0.25,0,0.5-0.01,0.73-0.02v-1.36
								c-0.24-0.01-0.48-0.02-0.73-0.02C13.45,44.6,13.2,44.61,12.96,44.62z"/>
                            <path class="st1" d="M15.92,45.8c0.59-0.13,0.95-0.3,0.95-0.5v-0.65h-0.95V45.8z"/>
                            <path class="st1"
                                  d="M14.44,44.62v1.36c0.57-0.03,1.07-0.09,1.48-0.18v-1.15h-1.09C14.71,44.64,14.58,44.63,14.44,44.62z"/>
                            <ellipse class="st1" cx="13.71" cy="44.65" rx="3.16" ry="0.7"/>
                            <path class="st1" d="M13.71,44.04c-1.51,0-2.74,0.23-2.74,0.51c0,0.28,1.23,0.51,2.74,0.51s2.74-0.23,2.74-0.51
								C16.45,44.27,15.22,44.04,13.71,44.04z"/>
						</g>
                        <g>
							<path class="st5"
                                  d="M13.31,45.03c1.13,0,3.17-0.17,3.17-0.82h-6.3C10.17,44.86,12.18,45.03,13.31,45.03z"/>
                            <path class="st1"
                                  d="M10.15,43.56v0.65c0,0.33,1.03,0.6,2.42,0.68v-1.36c-0.13,0.01-0.26,0.01-0.38,0.03H10.15z"/>
                            <path class="st1" d="M12.57,43.54v1.36c0.24,0.01,0.49,0.02,0.75,0.02c0.25,0,0.5-0.01,0.73-0.02v-1.36
								c-0.24-0.01-0.48-0.02-0.73-0.02C13.06,43.52,12.81,43.52,12.57,43.54z"/>
                            <path class="st1" d="M15.52,44.71c0.59-0.13,0.95-0.3,0.95-0.5v-0.65h-0.95V44.71z"/>
                            <path class="st1"
                                  d="M14.05,43.54v1.36c0.57-0.03,1.07-0.09,1.48-0.18v-1.15h-1.09C14.31,43.55,14.18,43.54,14.05,43.54z"/>
                            <path class="st1" d="M13.31,42.86c-1.75,0-3.16,0.31-3.16,0.7c0,0.39,1.42,0.7,3.16,0.7c1.75,0,3.17-0.31,3.17-0.7
								C16.48,43.18,15.06,42.86,13.31,42.86z"/>
                            <path class="st1" d="M13.31,42.96c-1.51,0-2.74,0.23-2.74,0.51s1.23,0.51,2.74,0.51c1.51,0,2.74-0.23,2.74-0.51
								S14.83,42.96,13.31,42.96z"/>
						</g>
					</g>
                    <g>
						<g>
							<g id="Legs_58_">
								<path class="st4" d="M15.45,30.84v-0.53c0-0.99-0.81-1.81-1.81-1.81h-0.03c-0.99,0-1.81,0.81-1.81,1.81l-0.01,1.04
									L15.45,30.84z"/>
							</g>
                            <g>
								<g>
									<g>
										
											<rect x="11.83" y="41.01"
                                                  transform="matrix(0.3246 -0.9459 0.9459 0.3246 -30.9282 39.3853)"
                                                  class="st1" width="0.56" height="0.67"/>
                                        <polygon class="st0"
                                                 points="12.21,42.33 11.47,42.07 11.72,41.33 12.46,41.65 										"/>
									</g>
                                    <g>
										<g>
											<g>
												<path class="st4" d="M11.19,42.37c-0.03,0.07,0,0.16,0.08,0.19c0.25,0.11,0.8,0.33,0.8,0.33l1.25,0.52l0.07-0.18
													l-2.18-0.91L11.19,42.37z"/>
                                                <path class="st4" d="M13.06,42.62l-0.26-0.11c-0.03-0.01-0.06-0.03-0.08-0.04c-0.01-0.01-0.02-0.01-0.03-0.01
													c-0.05-0.03-0.08-0.06-0.09-0.09c0-0.01-0.01-0.02-0.01-0.03c-0.01-0.03,0-0.07,0.01-0.1l0.01-0.01l0,0l0,0l0-0.01
													c0.06-0.15-0.01-0.32-0.16-0.38c-0.14-0.06-0.3,0-0.37,0.13l0,0l-0.01,0.02c-0.06,0.14-0.22,0.21-0.36,0.15
													c-0.14-0.06-0.21-0.22-0.15-0.36l0.01-0.02c-0.07-0.01-0.14,0.02-0.17,0.09l-0.11,0.27l-0.09,0.21l2.18,0.91
													C13.5,42.96,13.33,42.74,13.06,42.62z"/>
											</g>
										</g>
									</g>
								</g>
                                <g>
									<g>
										<g>
											<path class="st4" d="M15.45,30.84c-0.43,3.6-1.44,7.46-2.72,10.85c-0.41-0.14-1-0.44-1.4-0.58
												c0.96-3.26,2.03-6.84,2.36-10.27H15.45z"/>
										</g>
									</g>
                                    <g class="st13">
										<g>
											<path class="st4" d="M13.9,33.91c0.12-0.37,0.62,0.09,0.94,0.63c0.26-1.25,0.48-2.49,0.62-3.7H13.7
												c-0.33,3.44-1.4,7.02-2.36,10.27c0.41,0.14,1,0.44,1.4,0.58c0.02-0.04,0.03-0.08,0.05-0.13
												C11.08,39.7,13.33,36.32,13.9,33.91z"/>
										</g>
									</g>
								</g>
							</g>
						</g>
                        <g>
							<g>
								
									<rect x="19.3" y="39.54"
                                          transform="matrix(1 -2.484325e-03 2.484325e-03 1 -0.099 0.049)" class="st0"
                                          width="0.76" height="0.64"/>

                                <rect x="19.23" y="39.96"
                                      transform="matrix(1 -2.557252e-03 2.557252e-03 1 -0.1033 0.0505)" class="st0"
                                      width="0.9" height="0.93"/>
                                <g>
									<g>
										<g>
											<path class="st4" d="M19.08,41.17c0,0.09,0.07,0.17,0.16,0.17c0.31,0.01,0.98,0.02,0.98,0.02l1.54,0.03l0-0.22
												l-2.69-0.06L19.08,41.17z"/>
                                            <path class="st4" d="M21.17,40.66l-0.33-0.01c-0.04,0-0.07,0-0.1-0.01c-0.01,0-0.02,0-0.03-0.01
												c-0.06-0.01-0.11-0.03-0.14-0.06c-0.01-0.01-0.02-0.02-0.02-0.03c-0.02-0.03-0.03-0.07-0.03-0.11l0-0.03
												c0-0.18-0.14-0.33-0.32-0.34c-0.17,0-0.32,0.12-0.34,0.29l0,0l0,0.02c0,0.17-0.15,0.31-0.32,0.31
												c-0.17,0-0.31-0.15-0.31-0.32l0-0.02c-0.08,0.01-0.14,0.08-0.14,0.16l-0.01,0.34l0,0l-0.01,0.26l2.69,0.06
												C21.78,40.84,21.51,40.67,21.17,40.66z"/>
										</g>
									</g>
								</g>
							</g>
                            <path class="st2" d="M20.35,37.62c-0.17-0.97-0.55-2.04-1.07-3.02c-0.96-1.81-3.47-3.24-5.46-3.76c0,0-0.01,0-0.01-0.01
								h-2.02v0.79c0,0.09,0.02,0.18,0.05,0.26h0c0.11,0.28,0.37,0.49,0.69,0.52c1.77,0.14,4.57,1.53,5.32,2.95
								c0.44,0.82,0.77,1.75,0.9,2.55c0.12,0.69,0.22,1.33,0.21,1.99h1.62C20.59,38.98,20.45,38.17,20.35,37.62z"/>
						</g>
					</g>
                    <g>
						<g>
							<g id="Front_Hand_48_">
								<g>
									<g>
										<g>
											<g>
												<path class="st0" d="M20.21,30.79c-0.04-0.05-0.11-0.06-0.16-0.02l0,0c-0.05,0.04-0.06,0.11-0.02,0.16l0.41,0.52
													c0.04,0.05,0.11,0.06,0.16,0.02l0,0c0.05-0.04,0.06-0.11,0.02-0.16L20.21,30.79z"/>
                                                <path class="st0" d="M20.58,30.42c-0.05-0.04-0.12-0.04-0.16,0.01l0,0c-0.04,0.05-0.04,0.12,0.01,0.16l0.49,0.44
													c0.05,0.04,0.12,0.04,0.16-0.01l0,0c0.04-0.05,0.04-0.12-0.01-0.16L20.58,30.42z"/>
                                                <path class="st0" d="M20.88,30.22c0.01,0.07-0.03,0.13-0.1,0.14l-0.53,0.09c-0.04-0.05-0.08-0.1-0.09-0.16
													c-0.01-0.03,0.06-0.11,0.06-0.11l0.52-0.06C20.81,30.11,20.87,30.15,20.88,30.22z"/>
                                                <path class="st0" d="M20.47,30.67c-0.04-0.04-0.11-0.05-0.16,0l0,0c-0.04,0.04-0.05,0.11,0,0.16l0.46,0.48
													c0.04,0.04,0.11,0.05,0.16,0l0,0c0.04-0.04,0.05-0.11,0-0.16L20.47,30.67z"/>
                                                <path class="st0" d="M20.42,30.24c-0.08-0.09-0.22-0.09-0.31-0.01l-0.23,0.22c-0.09,0.08-0.09,0.22-0.01,0.31l0.22,0.23
													c0.08,0.09,0.22,0.09,0.31,0.01l0.23-0.22c0.09-0.08,0.09-0.22,0.01-0.31L20.42,30.24z"/>
											</g>
										</g>
                                        <path class="st0" d="M19.52,29.56c-0.07-0.08-0.2-0.08-0.28-0.01l0,0c-0.08,0.07-0.08,0.2-0.01,0.28l0.81,0.85
											c0.07,0.08,0.2,0.08,0.28,0.01l0,0c0.08-0.07,0.08-0.2,0.01-0.28L19.52,29.56z"/>
									</g>
                                    <g>
										<g>
											<path class="st19" d="M19.12,28.74h-1.1c0.48,0.62,1.01,1.22,1.58,1.8c0.28-0.27,0.32-0.32,0.6-0.59
												C19.82,29.55,19.46,29.15,19.12,28.74z"/>
										</g>
									</g>
								</g>
							</g>
                            <g>
								<path class="st4" d="M20.15,29.76c-2.01-2.06-3.39-4.43-4.14-7.22c-0.07-0.27-0.32-0.44-0.59-0.39
									c-0.26,0.05-0.43,0.32-0.36,0.61c0.8,2.99,2.28,5.54,4.45,7.74C19.71,30.25,19.93,30.05,20.15,29.76z"/>
							</g>
						</g>
                        <g>
							<g>
								<g>
									<g>
										<g id="Body_67_">
											<path class="st0" d="M15.9,22.47v7.69c0,0.04,0,0.07-0.02,0.1c-0.01,0.03-0.02,0.06-0.04,0.08v0
												c-0.04,0.06-0.11,0.1-0.18,0.11c-0.02,0.01-0.04,0.01-0.05,0.01h-3.57c-0.02,0-0.03,0-0.05,0
												c-0.03-0.01-0.06-0.02-0.08-0.03c-0.09-0.05-0.16-0.15-0.16-0.27v-7.69c0-0.02,0-0.04,0.01-0.06
												c0.01-0.07,0.05-0.13,0.1-0.18c0.05-0.04,0.11-0.07,0.18-0.07l0.15-0.03l1.14-0.21l0.09-0.02l0.5-0.09l0.01,0l0.72,0.14
												l0.11,0.02l0.33,0.06l0.39,0.07l0.15,0.03c0.06,0.02,0.11,0.04,0.15,0.07c0.06,0.05,0.11,0.11,0.12,0.19
												C15.9,22.42,15.9,22.44,15.9,22.47z"/>
										</g>
                                        <g id="Head_50_">
											<g>
												<g>
													<path class="st1" d="M14.65,22.01c0,0.34-0.27,0.61-0.61,0.61l0,0c-0.34,0-0.61-0.27-0.61-0.61v-2.02
														c0-0.34,0.27-0.61,0.61-0.61l0,0c0.34,0,0.61,0.27,0.61,0.61V22.01z"/>
                                                    <path class="st7" d="M13.97,21.86c0.17-0.1,0.45,0.18,0.68,0.14v-2.02c0-0.34-0.27-0.61-0.61-0.61
														c-0.34,0-0.61,0.27-0.61,0.61v2.02c0,0.22,0.12,0.42,0.3,0.53C13.64,22.13,13.59,22.1,13.97,21.86z"/>
												</g>
                                                <g>
													<path class="st0" d="M15.58,20c0,0.71-0.57,1.28-1.28,1.28l0,0c-0.71,0-1.28-0.57-1.28-1.28v-1.34
														c0-0.71,0.57-1.28,1.28-1.28l0,0c0.71,0,1.28,0.57,1.28,1.28V20z"/>
                                                    <path class="st0" d="M13.63,19.74c-0.25-0.42-0.42-1.21,0.04-1.46c0.46-0.29,1.05,0,1.59-0.17
														c0.08,0,0.16,0.04,0.23,0.07c-0.19-0.47-0.65-0.8-1.19-0.8c-0.71,0-1.28,0.57-1.28,1.28V20c0,0.71,0.57,1.28,1.28,1.28
														c0.23,0,0.45-0.06,0.64-0.17C14.41,20.76,13.96,20.32,13.63,19.74z"/>
                                                    <path class="st5" d="M15.58,18.56c0,0,0.22-1.81-1.54-1.69c-0.95-0.01-0.95,0.57-0.95,0.57s-0.63-0.02-0.82,0.4
														c-0.13,0.29-0.2,0.77-0.2,1.11c0,0.81,0.47,1.49,1.07,1.6c-0.07-0.16-0.11-0.34-0.11-0.53l-0.01-0.68
														c0.04,0.04,0.14,0.26,0.16,0.32c0.11,0.26,0.14,0.37,0.14,0.24c0,0-0.36-1.9,0.19-1.92c0.45-0.02,0.28,0.17,0.91,0.19
														c0.35,0.01,0.61-0.27,0.8-0.22C15.56,18.02,15.58,18.56,15.58,18.56z"/>
                                                    <path class="st5" d="M13.22,18.94c0,0,0.02,1.22,0.54,1.31c0.38,0.06,0.91,0.06,1.16,0.03
														c0.34-0.04,0.65-0.17,0.65-0.17s0.35,1.5,0.09,1.65c-0.58,0.32-1.77,0.13-2.23-0.53c-0.14-0.21-0.59-1.02-0.59-1.86
														l-0.49-0.33L13.22,18.94z"/>
                                                    <path class="st5" d="M15.6,21.43c-0.96,0.42-2.05-0.13-2.51-1.09c-0.04-0.13-0.42-0.25-0.54-0.42
														c-0.54-0.54-0.29-1.46-0.13-2.17c0.03-0.09,0.13-0.17,0.25-0.24c-0.16,0.05-0.32,0.15-0.4,0.33
														c-0.13,0.29-0.2,0.77-0.2,1.11c0,0.78,0.43,1.44,1.01,1.58c0.13,0.33,0.28,0.59,0.35,0.69
														c0.46,0.66,1.65,0.86,2.23,0.53c0.08-0.05,0.1-0.22,0.1-0.44C15.71,21.36,15.66,21.4,15.6,21.43z"/>
                                                    <g>
														<path class="st0" d="M13.06,19.84c-0.14,0.06-0.32-0.07-0.4-0.28c-0.09-0.21-0.05-0.43,0.09-0.49
															c0.14-0.06,0.32,0.07,0.41,0.28C13.23,19.57,13.19,19.79,13.06,19.84z"/>
                                                        <path class="st1" d="M12.98,19.64c-0.05,0.03-0.13-0.02-0.18-0.1c-0.04-0.08-0.04-0.18,0.02-0.2
															c0.05-0.03,0.13,0.02,0.18,0.1C13.04,19.52,13.04,19.61,12.98,19.64z"/>
													</g>
												</g>
											</g>
                                            <g>
												<g>
													<path class="st4" d="M14.26,19.38c0,0.11-0.07,0.2-0.16,0.2c-0.09,0-0.16-0.09-0.16-0.2c0-0.11,0.07-0.2,0.16-0.2
														C14.19,19.18,14.26,19.27,14.26,19.38z"/>
                                                    <path class="st11" d="M14.1,19.3c0,0.04-0.03,0.08-0.06,0.08c-0.04,0-0.06-0.04-0.06-0.08c0-0.04,0.03-0.08,0.06-0.08
														C14.07,19.22,14.1,19.25,14.1,19.3z"/>
												</g>
                                                <g>
													<g>
														<path class="st1" d="M14.65,20.26L14.65,20.26c-0.1,0-0.21-0.08-0.21-0.19c0-0.18,0.04-0.27,0.05-0.45
															c0-0.1,0.06-0.19,0.16-0.19l0,0c0.1,0,0.16,0.08,0.16,0.19c0,0.18,0.04,0.27,0.05,0.45
															C14.87,20.17,14.76,20.26,14.65,20.26z"/>
													</g>
                                                    <path class="st9" d="M14.82,20.02c0,0.06-0.03,0.11-0.07,0.11c-0.04,0-0.07-0.05-0.07-0.11c0-0.06,0.03-0.11,0.07-0.11
														C14.79,19.91,14.82,19.96,14.82,20.02z"/>
												</g>
                                                <g>
													<path class="st4" d="M15.35,19.38c0,0.11-0.07,0.2-0.16,0.2c-0.09,0-0.16-0.09-0.16-0.2c0-0.11,0.07-0.2,0.16-0.2
														C15.28,19.18,15.35,19.27,15.35,19.38z"/>
                                                    <path class="st11" d="M15.2,19.3c0,0.04-0.03,0.08-0.06,0.08c-0.04,0-0.06-0.04-0.06-0.08c0-0.04,0.03-0.08,0.06-0.08
														C15.17,19.22,15.2,19.25,15.2,19.3z"/>
												</g>
                                                <path class="st12" d="M14.1,20.13c-0.02,0.08-0.15,0.12-0.28,0.08c-0.13-0.04-0.22-0.13-0.2-0.21
													c0.02-0.08,0.15-0.12,0.28-0.08C14.03,19.95,14.12,20.05,14.1,20.13z"/>
                                                <path class="st12" d="M15,20.13c0.02,0.08,0.15,0.12,0.28,0.08c0.13-0.04,0.22-0.13,0.2-0.21
													c-0.02-0.08-0.15-0.12-0.28-0.08C15.07,19.95,14.98,20.05,15,20.13z"/>
                                                <g>
													<path class="st4" d="M15.23,20.42c0,0.03,0,0.14,0,0.17c-0.04,0.15-0.23,0.26-0.45,0.28
														c-0.23,0.01-0.42-0.08-0.48-0.22c-0.01-0.02-0.02-0.14-0.02-0.17L15.23,20.42z"/>
                                                    <path class="st11" d="M15.19,20.42c0,0.01,0,0.02-0.01,0.03c-0.04,0.07-0.21,0.13-0.42,0.14
														c-0.21,0.01-0.39-0.03-0.44-0.09c0,0-0.01-0.02-0.01-0.03L15.19,20.42z"/>
												</g>
                                                <g>
													<path class="st5" d="M14.35,19.11c-0.18-0.02-0.27-0.02-0.46,0c-0.07,0.01-0.14-0.04-0.16-0.11l0,0
														c-0.01-0.07,0.04-0.14,0.12-0.15c0.21-0.03,0.31-0.03,0.52,0c0.08,0.01,0.14,0.08,0.12,0.15l0,0
														C14.49,19.08,14.42,19.12,14.35,19.11z"/>
												</g>
                                                <g>
													<path class="st5" d="M15.42,19.11c-0.18-0.02-0.27-0.02-0.46,0c-0.07,0.01-0.14-0.04-0.16-0.11l0,0
														c-0.01-0.07,0.04-0.14,0.12-0.15c0.21-0.03,0.31-0.03,0.52,0c0.08,0.01,0.14,0.08,0.12,0.15l0,0
														C15.56,19.08,15.49,19.12,15.42,19.11z"/>
												</g>
											</g>
										</g>
                                        <rect x="13.42" y="22.44" class="st0" width="1.16" height="0.59"/>
                                        <polygon class="st1"
                                                 points="13.84,22.66 13.66,25.15 14,27.54 14.41,25.15 14.22,22.66 										"/>
                                        <path class="st5" d="M14.42,22.66c0,0.12-0.1,0.22-0.22,0.22h-0.33c-0.12,0-0.22-0.1-0.22-0.22l0,0
											c0-0.12,0.1-0.22,0.22-0.22h0.33C14.32,22.44,14.42,22.54,14.42,22.66L14.42,22.66z"/>
                                        <path class="st4" d="M15.9,22.47v7.69c0,0.04,0,0.07-0.02,0.1c-0.01,0.03-0.02,0.06-0.04,0.08v0
											c-0.04,0.06-0.11,0.1-0.18,0.11c-0.02,0.01-0.04,0.01-0.05,0.01h-3.57c-0.02,0-0.03,0-0.05,0
											c-0.03-0.01-0.06-0.02-0.08-0.03c-0.09-0.05-0.16-0.15-0.16-0.27v-7.69c0-0.02,0-0.04,0.01-0.06
											c0.01-0.07,0.05-0.13,0.1-0.18c0.05-0.04,0.11-0.07,0.18-0.07l0.15-0.03l1.14-0.21l0.69,4.16l0.73-4.1l0.33,0.06
											l0.39,0.07l0.15,0.03c0.06,0.02,0.11,0.04,0.15,0.07c0.06,0.05,0.11,0.11,0.12,0.19C15.9,22.42,15.9,22.44,15.9,22.47z"/>
                                        <path class="st4" d="M11.86,22.22c0.05-0.04,0.11-0.07,0.18-0.07l0.04-0.01c0.12,0.07,0.2,0.15,0.2,0.19
											c0.4,2.59-0.16,5.09,0.57,7.6c0.08,0.24,0.48,0.32,0.73,0.32c0.72,0.04,1.47,0.06,2.22,0.14
											c-0.04,0.03-0.08,0.05-0.12,0.06c-0.02,0.01-0.04,0.01-0.05,0.01h-3.57c-0.02,0-0.03,0-0.05,0
											c-0.03-0.01-0.06-0.02-0.08-0.03c-0.09-0.05-0.16-0.15-0.16-0.27v-7.69c0-0.02,0-0.04,0.01-0.06
											C11.77,22.33,11.81,22.27,11.86,22.22z"/>
                                        <path class="st2"
                                              d="M13.42,21.91c-0.04,0.01-0.44,0.08-0.44,0.08l-0.4,1.61l0.85,0.57l-0.15,1.02l0.76,0.9L13.42,21.91z"
                                        />
                                        <path class="st2" d="M14.65,21.96c0.04,0.01,0.35,0.07,0.35,0.07l0.34,1.57l-0.77,0.57l0.22,1.05l-0.77,0.86L14.65,21.96z
											"/>
                                        <circle class="st34" cx="13.98" cy="26.93" r="0.23"/>
                                        <circle class="st34" cx="13.98" cy="29.28" r="0.23"/>
                                        <path class="st34" d="M14.21,28.11c0-0.13-0.1-0.23-0.23-0.23c-0.13,0-0.23,0.1-0.23,0.23c0,0.13,0.1,0.23,0.23,0.23
											C14.11,28.34,14.21,28.23,14.21,28.11z"/>
									</g>
                                    <g>
										<g>
											<path class="st19" d="M14.03,22.44c0,0-0.15,0.17-0.3,0.3c-0.18,0.15-0.36,0.3-0.36,0.3l-0.27-1.07l0.32-0.06
												C13.58,22.42,14.03,22.44,14.03,22.44z"/>
                                            <path class="st19"
                                                  d="M14.03,22.44l0.67,0.65l0.26-1.07l-0.32-0.06C14.5,22.45,14.03,22.44,14.03,22.44z"/>
										</g>
									</g>
								</g>
                                <g>
									<g>
										<path class="st0" d="M11.72,32c-0.04,0.05-0.11,0.06-0.17,0.03l-0.43-0.31c0-0.06,0.02-0.13,0.05-0.17
											c0.02-0.03,0.12-0.03,0.12-0.03l0.4,0.33C11.75,31.87,11.76,31.94,11.72,32z"/>
                                        <polygon class="st4" points="11.98,31.74 11.98,32.74 11.76,32.74 11.76,31.97 10.35,31.97 10.35,32.74 10.12,32.74
											10.12,31.74 										"/>
                                        <g>
											
												<rect x="10.6" y="30.94"
                                                      transform="matrix(0.9162 -0.4008 0.4008 0.9162 -11.6444 6.9594)"
                                                      class="st0" width="0.43" height="0.74"/>
                                            <g>
												<path class="st0" d="M11.37,31.62c-0.04-0.12-0.17-0.19-0.29-0.15l-0.31,0.1c-0.12,0.04-0.18,0.17-0.15,0.29l0.1,0.31
													c0.04,0.12,0.17,0.19,0.29,0.15l0.31-0.1c0.12-0.04,0.19-0.17,0.15-0.29L11.37,31.62z"/>
											</g>
										</g>
									</g>
                                    <path class="st4" d="M13.53,35.61c0,0.16-0.13,0.29-0.29,0.29H8.94c-0.16,0-0.29-0.13-0.29-0.29v-2.85
										c0-0.16,0.13-0.29,0.29-0.29h4.31c0.16,0,0.29,0.13,0.29,0.29V35.61z"/>
                                    <path class="st4" d="M13.32,32.44h-0.22h-4H8.87c-0.16,0-0.3,0.13-0.3,0.3v0.22v0.68v0.08c0,0.12,0.07,0.29,0.16,0.38
										l0.36,0.33c0.09,0.08,0.27,0.15,0.39,0.15h3.23c0.12,0,0.3-0.07,0.39-0.15l0.35-0.32c0.09-0.08,0.17-0.25,0.17-0.38v-0.09
										v-0.68v-0.22C13.62,32.58,13.48,32.44,13.32,32.44z"/>
                                    <path class="st1" d="M10.13,34.75c0,0.04-0.03,0.07-0.07,0.07h-0.4c-0.04,0-0.07-0.03-0.07-0.07v-0.49
										c0-0.04,0.03-0.07,0.07-0.07h0.4c0.04,0,0.07,0.03,0.07,0.07V34.75z"/>
                                    <path class="st1" d="M12.59,34.75c0,0.04-0.03,0.07-0.07,0.07h-0.4c-0.04,0-0.07-0.03-0.07-0.07v-0.49
										c0-0.04,0.03-0.07,0.07-0.07h0.4c0.04,0,0.07,0.03,0.07,0.07V34.75z"/>
								</g>
                                <g>
									<g id="Front_Hand_47_">
										<g>
											<g>
												<g>
													<path class="st19" d="M11.26,31.38c-0.36,0.05-0.14,0.02-0.84,0.1c-0.37-3.14-0.02-6.11,1.22-9.01
														c0.12-0.27,0.42-0.38,0.67-0.26l0,0c0.24,0.12,0.34,0.42,0.23,0.67C11.37,25.62,10.91,28.42,11.26,31.38z"/>
												</g>
											</g>
										</g>
									</g>
                                    <g>
										<path class="st2" d="M11.33,31.2c-0.32-2.89,0.07-5.63,1.21-8.32c0.11-0.25,0.02-0.55-0.23-0.67
											c-0.24-0.12-0.54-0.01-0.67,0.26c-1.23,2.88-1.65,5.75-1.3,8.85L11.33,31.2z"/>
									</g>
								</g>
							</g>
						</g>
					</g>
				</g>
                <g>
					<g>
						<polygon class="st1"
                                 points="17.82,45.88 17.82,46.98 7.36,46.98 7.34,45.88 						"/>
					</g>
                    <g>
						<rect x="17.58" y="45.88" class="st0" width="19.99" height="1.1"/>
					</g>
                    <g>
						<polygon class="st19"
                                 points="54.16,45.88 54.11,46.98 35.17,46.98 35.17,45.88 						"/>
					</g>
                    <g>
						<path class="st1" d="M18.89,46.43c0-0.73-0.59-1.31-1.31-1.31c-0.72,0-1.31,0.59-1.31,1.31c0,0.72,0.59,1.31,1.31,1.31
							C18.31,47.74,18.89,47.15,18.89,46.43z"/>
					</g>
				</g>
                <g>
					<g>
						<polygon class="st0"
                                 points="40.7,43.66 52.21,43.48 52.41,32.71 35.5,33.23 34.94,43.83 						"/>
					</g>

                    <rect x="48.11" y="33.63" transform="matrix(1 5.504630e-03 -5.504630e-03 1 0.192 -0.2723)"
                          class="st1" width="2.91" height="2.23"/>

                    <rect x="48.14" y="37.01" transform="matrix(1 5.470227e-03 -5.470227e-03 1 0.2093 -0.2707)"
                          class="st1" width="2.91" height="2.23"/>

                    <rect x="48.09" y="40.46" transform="matrix(1 5.470242e-03 -5.470242e-03 1 0.2282 -0.2704)"
                          class="st3" width="2.91" height="2.23"/>
                    <g>
						<g>
							<rect x="36.73" y="40.29" class="st1" width="2.94" height="2.66"/>
						</g>
                        <g>
							<rect x="40.25" y="38.4" class="st1" width="2.94" height="4.55"/>
						</g>
                        <g>
							<rect x="43.76" y="36.34" class="st3" width="2.94" height="6.61"/>
						</g>
					</g>
                    <g>
						<g>
							<polygon class="st1" points="36.85,38.48 36.61,38.22 39.83,35.22 41.86,36.83 45.34,33.61 45.59,33.87 41.88,37.3 
								39.85,35.69 							"/>
						</g>
                        <g>
							<g>
								<polygon class="st1"
                                         points="45.79,34.4 46.21,33.04 44.83,33.36 								"/>
							</g>
						</g>
					</g>
				</g>
                <g>
					<polygon class="st0" points="33.85,17.64 34.67,30.48 53.07,30.66 53.07,16.52 					"/>
                    <g>
						<g>
							<path class="st1" d="M39.98,23.77l1.13-5.01c-0.36-0.08-0.74-0.12-1.13-0.12c-1.16,0-2.23,0.38-3.1,1.02L39.98,23.77
								L39.98,23.77z"/>
                            <path class="st3"
                                  d="M38.82,28.94c0.37,0.09,0.76,0.13,1.16,0.13c1.19,0,2.3-0.4,3.17-1.08l-3.17-4.22L38.82,28.94z"/>
                            <path class="st1" d="M39.98,23.77l-4.66-2.26c-0.36,0.7-0.56,1.5-0.56,2.34c0,1.73,0.85,3.27,2.15,4.22L39.98,23.77
								L39.98,23.77z"/>
                            <path class="st4"
                                  d="M39.98,23.77l-3.07,4.3c0.56,0.41,1.2,0.71,1.9,0.87L39.98,23.77L39.98,23.77z"/>
                            <path class="st1"
                                  d="M39.98,23.77l2.99-4.19c-0.55-0.39-1.18-0.67-1.86-0.82L39.98,23.77L39.98,23.77z"/>
                            <path class="st3"
                                  d="M39.98,23.77L39.98,23.77l3.17,4.22c0.66-0.51,1.19-1.17,1.55-1.93L39.98,23.77L39.98,23.77z"/>
                            <path class="st1" d="M36.89,19.66c-0.66,0.48-1.19,1.12-1.56,1.85l4.66,2.26L36.89,19.66z"/>
                            <path class="st1"
                                  d="M42.97,19.58l-2.99,4.19l4.72,2.29c0.31-0.67,0.49-1.42,0.49-2.21C45.2,22.09,44.32,20.52,42.97,19.58z"
                            />
						</g>
                        <g>
							
								<rect x="46.18" y="19.47"
                                      transform="matrix(0.9994 -0.0351 0.0351 0.9994 -0.6796 1.7357)" class="st1"
                                      width="5.74" height="1.47"/>

                            <rect x="46.36" y="21.69" transform="matrix(0.9994 -0.0351 0.0351 0.9994 -0.7573 1.7434)"
                                  class="st1" width="5.74" height="1.47"/>

                            <rect x="46.38" y="23.96" transform="matrix(0.9994 -0.0351 0.0351 0.9994 -0.8372 1.7453)"
                                  class="st3" width="5.74" height="1.47"/>

                            <rect x="46.39" y="26.13" transform="matrix(0.9994 -0.0351 0.0351 0.9994 -0.9128 1.7462)"
                                  class="st4" width="5.74" height="1.47"/>
						</g>
					</g>
				</g>
                <g>
					
						<rect x="8.22" y="49.75" transform="matrix(-1 -1.224647e-16 1.224647e-16 -1 62.2802 102.079)"
                              class="st3" width="45.83" height="2.58"/>

                    <rect x="7.1" y="8.67" transform="matrix(-1 -1.224647e-16 1.224647e-16 -1 61.3818 23.1155)"
                          class="st3" width="47.19" height="5.77"/>
                    <g>
						<path class="st11" d="M16.22,10.22c0.54,0,0.99,0.33,0.99,0.77c0,0.38-0.25,0.62-0.55,0.78c0.3,0.12,0.51,0.31,0.51,0.69
							c0,0.49-0.64,0.92-1.16,0.92c-0.06,0-0.11,0-0.15-0.01l-0.6-0.05c0.04-0.54,0.06-1.15,0.06-1.66c0-0.46-0.02-0.86-0.04-1.28
							C15.59,10.29,15.93,10.22,16.22,10.22z M15.91,12.05c0,0.26-0.01,0.52-0.02,0.78c0.05,0.01,0.11,0.01,0.19,0.01
							c0.23,0,0.51-0.18,0.51-0.38C16.59,12.24,16.31,12.08,15.91,12.05z M15.9,10.79c0.01,0.26,0.02,0.54,0.02,0.8
							c0.23-0.02,0.71-0.26,0.71-0.54c0-0.18-0.2-0.31-0.44-0.31C16.09,10.74,16,10.76,15.9,10.79z"/>
                        <path class="st11" d="M18.21,10.35c-0.07,0.66-0.1,1.24-0.1,1.93c0,0.29,0.14,0.59,0.36,0.59c0.35,0,0.39-0.8,0.39-1.16
							c0-0.49-0.03-1.01-0.06-1.5l0.6,0.06c0.03,0.45,0.06,0.98,0.06,1.43c0,0.52-0.11,1.68-0.99,1.68c-0.58,0-0.96-0.58-0.96-1.11
							c0-0.71,0.04-1.3,0.1-1.99L18.21,10.35z"/>
                        <path class="st11" d="M20.98,11.38c0.04-0.13,0.06-0.25,0.06-0.34c0-0.23-0.13-0.35-0.27-0.35c-0.19,0-0.3,0.21-0.3,0.41
							c0,0.22,0.14,0.4,0.35,0.53c0.49,0.3,0.79,0.5,0.79,0.96c0,0.56-0.46,0.87-0.87,0.87c-0.56,0-0.86-0.56-1.02-0.94l0.43-0.21
							c0.12,0.32,0.33,0.63,0.58,0.63c0.12,0,0.29-0.07,0.29-0.28c0-0.23-0.21-0.39-0.41-0.53c-0.38-0.26-0.74-0.52-0.74-1.03
							c0-0.56,0.44-0.93,0.9-0.93c0.54,0,0.89,0.5,0.89,0.9c0,0.11-0.03,0.33-0.11,0.5L20.98,11.38z"/>
                        <path class="st11" d="M22.77,10.26c-0.03,0.46-0.04,0.98-0.04,1.5c0,0.58,0.02,1.16,0.06,1.66l-0.6-0.05
							c-0.04-0.62-0.06-1.16-0.06-1.68c0-0.48,0.01-0.94,0.04-1.48L22.77,10.26z"/>
                        <path class="st11" d="M23.26,13.39c-0.01-0.18-0.01-0.35-0.01-0.53c0-0.85,0.06-1.75,0.12-2.49l0.59,0.06
							c0.24,0.66,0.48,1.28,0.79,1.83c-0.01-0.71-0.03-1.46-0.06-2.1l0.55,0.05c0,0.64,0,1.34,0,2.05c0,0.33-0.02,0.8-0.04,1.09
							L24.7,13.3c-0.29-0.62-0.6-1.34-0.93-1.94c0,0.65,0,1.34,0,2.08L23.26,13.39z"/>
                        <path class="st11" d="M27.31,13.22c-0.2,0.09-0.48,0.17-0.89,0.17l-0.68-0.06c-0.01-0.35-0.02-0.7-0.02-1.12
							c0-0.52,0.04-1.32,0.07-1.82c0.61-0.09,1.1-0.11,1.47-0.11v0.54c-0.29,0-0.62,0.01-0.93,0.03c-0.01,0.25-0.02,0.51-0.02,0.76
							c0.26-0.04,0.51-0.05,0.79-0.06l0.08,0.49c-0.26,0-0.63,0.04-0.89,0.07c0,0.31,0,0.53,0,0.76c0.34-0.03,0.67-0.08,0.92-0.13
							L27.31,13.22z"/>
                        <path class="st11" d="M28.72,11.38c0.04-0.13,0.06-0.25,0.06-0.34c0-0.23-0.13-0.35-0.27-0.35c-0.19,0-0.3,0.21-0.3,0.41
							c0,0.22,0.14,0.4,0.35,0.53c0.49,0.3,0.79,0.5,0.79,0.96c0,0.56-0.46,0.87-0.87,0.87c-0.56,0-0.86-0.56-1.02-0.94l0.43-0.21
							c0.12,0.32,0.33,0.63,0.58,0.63c0.12,0,0.29-0.07,0.29-0.28c0-0.23-0.21-0.39-0.41-0.53c-0.38-0.26-0.74-0.52-0.74-1.03
							c0-0.56,0.44-0.93,0.9-0.93c0.54,0,0.89,0.5,0.89,0.9c0,0.11-0.03,0.33-0.11,0.5L28.72,11.38z"/>
                        <path class="st11" d="M30.82,11.38c0.04-0.13,0.06-0.25,0.06-0.34c0-0.23-0.13-0.35-0.27-0.35c-0.19,0-0.3,0.21-0.3,0.41
							c0,0.22,0.14,0.4,0.35,0.53c0.49,0.3,0.79,0.5,0.79,0.96c0,0.56-0.46,0.87-0.87,0.87c-0.56,0-0.86-0.56-1.02-0.94l0.43-0.21
							c0.12,0.32,0.33,0.63,0.58,0.63c0.12,0,0.29-0.07,0.29-0.28c0-0.23-0.21-0.39-0.41-0.53c-0.38-0.26-0.74-0.52-0.74-1.03
							c0-0.56,0.44-0.93,0.9-0.93c0.54,0,0.89,0.5,0.89,0.9c0,0.11-0.03,0.33-0.11,0.5L30.82,11.38z"/>
                        <path class="st11" d="M34.07,11.57c0-0.32-0.01-0.79-0.23-0.79c-0.29,0-0.49,0.91-0.49,1.35c0,0.45,0.12,0.75,0.41,0.75
							c0.24,0,0.34-0.31,0.41-0.6l0.56,0.04c-0.14,0.67-0.41,1.12-0.98,1.12c-0.66,0-0.99-0.57-0.99-1.28
							c0-0.76,0.31-1.96,1.11-1.96c0.71,0,0.75,0.79,0.76,1.41L34.07,11.57z"/>
                        <path class="st11" d="M35.99,10.2c0.52,0,0.99,0.44,0.99,1.52c0,1.07-0.53,1.75-1.05,1.75c-0.53,0-1.01-0.44-1.01-1.52
							C34.92,10.88,35.43,10.2,35.99,10.2z M35.93,12.94c0.23,0,0.46-0.48,0.46-1.23c0-0.71-0.19-0.99-0.41-0.99
							c-0.25,0-0.48,0.48-0.48,1.22C35.51,12.65,35.71,12.94,35.93,12.94z"/>
                        <path class="st11" d="M38.01,10.35c-0.07,0.66-0.1,1.24-0.1,1.93c0,0.29,0.14,0.59,0.36,0.59c0.35,0,0.39-0.8,0.39-1.16
							c0-0.49-0.03-1.01-0.06-1.5l0.6,0.06c0.03,0.45,0.06,0.98,0.06,1.43c0,0.52-0.11,1.68-0.99,1.68c-0.58,0-0.96-0.58-0.96-1.11
							c0-0.71,0.04-1.3,0.1-1.99L38.01,10.35z"/>
                        <path class="st11" d="M39.72,13.35c0.04-0.73,0.06-1.46,0.06-2.2c0-0.26,0-0.52,0-0.78c0.32-0.15,0.69-0.23,1.01-0.23
							c0.49,0,0.91,0.32,0.91,0.94c0,0.4-0.34,0.75-0.74,1c0.28,0.35,0.56,0.73,0.82,1.11l-0.42,0.31c-0.26-0.4-0.61-0.86-1-1.37
							c-0.01,0.41-0.02,0.86-0.04,1.28L39.72,13.35z M40.38,11.84c0.44-0.21,0.79-0.56,0.79-0.78c0-0.29-0.18-0.41-0.38-0.41
							c-0.12,0-0.26,0.02-0.41,0.07C40.38,11.1,40.38,11.48,40.38,11.84z"/>
                        <path class="st11" d="M43.1,11.38c0.04-0.13,0.06-0.25,0.06-0.34c0-0.23-0.13-0.35-0.27-0.35c-0.19,0-0.3,0.21-0.3,0.41
							c0,0.22,0.14,0.4,0.35,0.53c0.49,0.3,0.79,0.5,0.79,0.96c0,0.56-0.46,0.87-0.87,0.87c-0.56,0-0.86-0.56-1.02-0.94l0.43-0.21
							c0.12,0.32,0.33,0.63,0.58,0.63c0.12,0,0.29-0.07,0.29-0.28c0-0.23-0.21-0.39-0.41-0.53c-0.38-0.26-0.74-0.52-0.74-1.03
							c0-0.56,0.44-0.93,0.9-0.93c0.54,0,0.89,0.5,0.89,0.9c0,0.11-0.03,0.33-0.11,0.5L43.1,11.38z"/>
                        <path class="st11" d="M45.76,13.22c-0.2,0.09-0.48,0.17-0.89,0.17l-0.68-0.06c-0.01-0.35-0.02-0.7-0.02-1.12
							c0-0.52,0.04-1.32,0.07-1.82c0.61-0.09,1.1-0.11,1.47-0.11v0.54c-0.29,0-0.62,0.01-0.93,0.03c-0.01,0.25-0.02,0.51-0.02,0.76
							c0.26-0.04,0.51-0.05,0.79-0.06l0.08,0.49c-0.26,0-0.63,0.04-0.89,0.07c0,0.31,0,0.53,0,0.76c0.34-0.03,0.67-0.08,0.92-0.13
							L45.76,13.22z"/>
					</g>

                    <rect x="8.22" y="53.85" transform="matrix(-1 -1.224647e-16 1.224647e-16 -1 62.2802 110.2808)"
                          class="st3" width="45.83" height="2.58"/>
                    <rect x="13.63" y="58.61" class="st3" width="7.8" height="2.11"/>
                    <path class="st3" d="M12.59,59.67c0-1.21-0.98-2.18-2.18-2.18s-2.18,0.98-2.18,2.18s0.98,2.18,2.18,2.18
						S12.59,60.88,12.59,59.67z"/>
                    <rect x="29.95" y="58.61" class="st3" width="7.8" height="2.11"/>
                    <path class="st3" d="M28.9,59.67c0-1.21-0.98-2.18-2.18-2.18c-1.21,0-2.18,0.98-2.18,2.18s0.98,2.18,2.18,2.18
						C27.92,61.85,28.9,60.88,28.9,59.67z"/>
                    <rect x="46.05" y="58.61" class="st3" width="7.8" height="2.11"/>
                    <path class="st3" d="M45.01,59.67c0-1.21-0.98-2.18-2.18-2.18c-1.21,0-2.18,0.98-2.18,2.18s0.98,2.18,2.18,2.18
						C44.03,61.85,45.01,60.88,45.01,59.67z"/>
				</g>
			</g>
		</g>
        <polygon class="st9" points="33.39,7.4 5.57,35.22 5.59,26 24.19,7.39 		"/>
        <path class="st9" d="M55.69,9.28l-0.01,5.8L8.05,62.72H7.46c-1.06,0-1.93-0.84-1.93-1.85l0.03-16.14L42.87,7.41l10.9,0.02
			C54.83,7.43,55.7,8.27,55.69,9.28z"/>
	</g>
        <g>
		<g id="Surgery_2_4_">
			<g id="Front_Hand_7_">
				<g>
					<g>
						<g>
							<path class="st1" d="M55.46,61.8c0.02-0.16,0.16-0.27,0.31-0.25l0,0c0.16,0.02,0.27,0.16,0.25,0.31l-0.18,1.7
								c-0.02,0.16-0.16,0.27-0.31,0.25l0,0c-0.16-0.02-0.27-0.16-0.25-0.31L55.46,61.8z"/>
                            <path class="st1" d="M54.15,61.49c0.04-0.15,0.2-0.24,0.35-0.2l0,0c0.15,0.04,0.24,0.2,0.2,0.35l-0.46,1.65
								c-0.04,0.15-0.2,0.24-0.35,0.2l0,0c-0.15-0.04-0.24-0.2-0.2-0.35L54.15,61.49z"/>
                            <path class="st1" d="M53.21,61.48c0.07,0.16,0.25,0.23,0.41,0.16l1.27-0.55c0.02-0.16,0.03-0.33-0.02-0.47
								c-0.03-0.09-0.29-0.15-0.29-0.15l-1.21,0.59C53.21,61.14,53.14,61.32,53.21,61.48z"/>
                            <path class="st1" d="M54.74,61.89c0.03-0.16,0.18-0.25,0.33-0.22l0,0c0.15,0.03,0.26,0.18,0.22,0.34l-0.33,1.68
								c-0.03,0.15-0.18,0.25-0.34,0.22l0,0c-0.15-0.03-0.25-0.18-0.22-0.34L54.74,61.89z"/>
                            <path class="st1" d="M54.24,60.89c0.06-0.31,0.36-0.51,0.67-0.44l0.79,0.16c0.31,0.06,0.5,0.36,0.44,0.66l-0.16,0.79
								c-0.06,0.31-0.36,0.5-0.66,0.44l-0.79-0.16c-0.31-0.06-0.5-0.36-0.44-0.66L54.24,60.89z"/>
						</g>
					</g>
                    <path class="st1" d="M55.26,58.17c0.05-0.27,0.32-0.45,0.59-0.39l0,0c0.27,0.05,0.45,0.32,0.4,0.59l-0.59,2.96
						c-0.05,0.27-0.32,0.45-0.59,0.4l0,0c-0.27-0.05-0.45-0.32-0.4-0.59L55.26,58.17z"/>
				</g>
                <g>
					<path class="st4" d="M53.15,38.06c2.03,6.45,2.46,12.85,1.39,19.41c-0.13,0.8-0.29,1.61-0.46,2.42
						c0.98,0.22,1.47,0.33,2.46,0.53c1.62-7.43,1.44-14.66-0.63-21.91c-0.12-0.43-0.25-0.85-0.38-1.28
						c-0.24-0.71-0.98-1.07-1.63-0.82c-0.51,0.2-0.81,0.69-0.81,1.21C53.08,37.77,53.1,37.91,53.15,38.06z"/>
				</g>
			</g>
            <g>
				<g id="Legs_10_">
					<path class="st4"
                          d="M44.88,56.7v1.37h9.39l-0.03-1.37c0-2.55-2.09-4.64-4.64-4.64h-0.08C46.97,52.06,44.88,54.15,44.88,56.7z"
                    />
                    <g>
						<g>
							
								<rect x="50.94" y="86.03"
                                      transform="matrix(0.0236 -0.9997 0.9997 0.0236 -36.4268 136.5066)" class="st1"
                                      width="1.46" height="1.73"/>

                            <rect x="50.58" y="87.15"
                                  transform="matrix(4.419521e-03 -1 1 4.419521e-03 -36.7528 139.4168)" class="st0"
                                  width="2.11" height="2.04"/>
                            <g>
								<g>
									<g>
										<path class="st4" d="M50.49,87.38c0.42,0,0.75,0.33,0.75,0.75l0,0.69c0,0.42-0.34,0.75-0.75,0.75l0,0
											c-0.42,0-0.75-0.34-0.75-0.75l0-0.69C49.74,87.71,50.07,87.37,50.49,87.38L50.49,87.38z"/>
                                        <path class="st4"
                                              d="M52.97,89.89c0,0.21-0.17,0.38-0.38,0.38c-0.71,0-2.23,0-2.23,0l-4.1,0v-0.5l6.7,0.01V89.89z"/>
                                        <path class="st4" d="M46.27,89.78l6.7,0.01V89.2l0,0l0-0.77c0-0.19-0.14-0.34-0.31-0.37v0.04c0,0.4-0.32,0.71-0.71,0.71
											c-0.39,0-0.71-0.32-0.71-0.71v-0.05l-1.51,0.1l0,0.03c0,0.09-0.02,0.18-0.07,0.25c-0.02,0.02-0.03,0.03-0.05,0.05
											c-0.07,0.06-0.17,0.1-0.32,0.13c-0.03,0-0.05,0-0.08,0.01c-0.07,0.01-0.14,0.01-0.23,0.01l-1.33,0
											C46.89,88.64,46.27,89.02,46.27,89.78z"/>
									</g>
								</g>
							</g>
						</g>
                        <g>
							
								<rect x="46.77" y="86.04"
                                      transform="matrix(0.0236 -0.9997 0.9997 0.0236 -40.4995 132.3351)" class="st1"
                                      width="1.46" height="1.73"/>

                            <rect x="46.41" y="87.15"
                                  transform="matrix(4.415618e-03 -1 1 4.415618e-03 -40.9049 135.2464)" class="st0"
                                  width="2.11" height="2.04"/>
                            <g>
								<g>
									<g>
										<path class="st4" d="M46.32,87.38c0.41,0,0.75,0.33,0.75,0.75v0.69c0,0.42-0.34,0.75-0.75,0.75l0,0
											c-0.41,0-0.75-0.34-0.75-0.75v-0.69C45.56,87.71,45.9,87.37,46.32,87.38L46.32,87.38z"/>
                                        <path class="st4"
                                              d="M48.8,89.89c0,0.21-0.17,0.38-0.38,0.38c-0.71,0-2.23,0-2.23,0l-4.1,0v-0.5l6.71,0.01V89.89z"/>
                                        <path class="st4" d="M42.1,89.78l6.71,0.01V89.2l0,0v-0.77c0-0.19-0.13-0.34-0.31-0.37v0.04c0,0.4-0.32,0.71-0.72,0.71
											c-0.39,0-0.71-0.32-0.71-0.71v-0.05l-1.5,0.1v0.03c0,0.09-0.02,0.18-0.07,0.25c-0.01,0.02-0.03,0.03-0.05,0.05
											c-0.07,0.06-0.17,0.1-0.32,0.13c-0.02,0-0.05,0-0.08,0.01c-0.07,0.01-0.14,0.01-0.23,0.01l-1.33,0
											C42.72,88.64,42.1,89.02,42.1,89.78z"/>
									</g>
								</g>
							</g>
						</g>
                        <g>
							<polygon class="st4"
                                     points="49.97,58.07 49.97,86.4 53.46,86.4 53.49,85.43 54.25,58.65 54.27,58.07 							"/>
						</g>
                        <g>
							<polygon class="st4"
                                     points="44.88,58.07 44.97,61.22 45.69,86.4 49.18,86.4 49.18,58.07 							"/>
						</g>
					</g>
				</g>
                <polygon class="st4" points="44.88,58.07 44.97,61.22 52.04,61.22 52.04,58.07 				"/>
                <path class="st8" d="M44.88,58.07l0.09,3.14l0.72,25.18h3.49v-1.17c-0.05-0.01-0.1-0.01-0.15-0.01
					c-1.24-0.05-2.2-1.19-2.51-2.39c-0.31-1.2-0.12-2.46-0.01-3.69c0.52-5.9-0.76-11.85-0.11-17.74c0.01-0.06,0.01-0.12,0.02-0.18
					c0.08-0.63,0.23-1.28,0.67-1.71c0.53-0.52,1.34-0.59,2.09-0.62c0.02,0,0.04,0,0.06,0c0.24-0.01,0.48-0.02,0.72-0.03
					c0.69-0.03,1.38-0.06,2.08-0.09c0.6-0.03,1.19-0.05,1.79-0.08c0.14-0.01,0.28-0.01,0.42-0.03l0.02-0.58l-0.03-1.37
					c0-2.55-2.09-4.64-4.64-4.64h-0.08c-2.55,0-4.64,2.09-4.64,4.64L44.88,58.07L44.88,58.07z"/>
			</g>
            <g>
				<path class="st1" d="M47.51,36.29c0,0.85,0.69,1.54,1.54,1.54l0,0c0.85,0,1.54-0.69,1.54-1.54v-5.07c0-0.85-0.69-1.54-1.54-1.54
					l0,0c-0.85,0-1.54,0.69-1.54,1.54V36.29z"/>
                <path class="st7" d="M49.1,35.07c-0.42-0.25-1.01-0.28-1.58-0.39v-3.46c0-0.85,0.69-1.54,1.54-1.54c0.85,0,1.54,0.69,1.54,1.54
					v5.07c0,0.56-0.3,1.06-0.75,1.32C50.06,36.59,50.07,35.65,49.1,35.07z"/>
                <path class="st0" d="M45.17,31.25c0,1.77,1.44,3.21,3.21,3.21l0,0c1.78,0,3.21-1.44,3.21-3.21v-3.37c0-1.77-1.44-3.21-3.21-3.21
					l0,0c-1.73,0-3.14,1.37-3.21,3.09c0,0.04,0,0.08,0,0.12V31.25z"/>
                <path class="st0" d="M50,27.91c1.47,1.47,1.47,5.05-0.63,5.99c-0.7,0.33-1.44,0.4-2.18,0.33c-1.19-0.47-2.02-1.63-2.02-2.99
					v-3.37c0-0.01,0-0.01,0-0.02C46.81,27.43,48.79,26.81,50,27.91z"/>
                <path class="st1" d="M45.18,27.63c0,0-0.56-4.37,3.87-4.24c1.37,0.04,3.18-0.28,4.93,2.37c0.44,0.66,0.63,1.9,0.57,2.76
					c-0.57,7.67-8.11,6.84-8.02,4.05c0.01-0.44,0.5-2.25,0.5-2.72c0,0-0.71,1.54-1.18,0.47c-0.25-0.56,0.53-3.4,0.29-3.97
					c-0.23,0.18-0.2,0.81-0.39,1.06C45.46,27.77,45.18,27.63,45.18,27.63z"/>
                <path class="st1" d="M50.06,33.51c1.58-0.21,1.79-2,1.05-3.15c0.95,0.21,2.1,0.32,2.63-0.74c0.56-1.12,0.63-2.41,0.34-3.65
					c0.35,0.69,0.51,1.78,0.45,2.55c-0.52,7.02-6.88,6.92-7.89,4.71C47.72,33.58,48.89,33.68,50.06,33.51z"/>
                <g>
					<path class="st0" d="M46.64,31.35c0.33,0.16,0.81-0.13,1.06-0.65c0.25-0.52,0.18-1.07-0.15-1.23
						c-0.33-0.16-0.81,0.13-1.06,0.65C46.24,30.64,46.31,31.19,46.64,31.35z"/>
                    <path class="st1" d="M46.85,30.77c0.13,0.09,0.34,0,0.47-0.2c0.14-0.2,0.14-0.43,0.02-0.51c-0.13-0.09-0.34,0-0.47,0.2
						C46.73,30.45,46.72,30.68,46.85,30.77z"/>
				</g>
			</g>
            <g>
				<path class="st4" d="M44.28,37.08v19.61c0,0.43,0.33,0.78,0.74,0.78h9.11c0.41,0,0.74-0.35,0.74-0.78V37.08
					c0-0.43-0.33-0.78-0.74-0.78l-4.81-0.86l-4.33,0.83c-0.41,0.12-0.69,0.37-0.7,0.78C44.28,37.06,44.28,37.07,44.28,37.08z"/>
                <path class="st8" d="M44.15,37.69c0,0.06,0.01,0.13,0.02,0.19c0.04,0.25,0.07,0.5,0.11,0.75c0.09,0.65,0.16,1.3,0.22,1.95
					c0.14,1.57,0.2,3.12,0.17,4.66c-0.03,1.64-0.16,3.26-0.39,4.87v6.57c0,0.43,0.33,0.78,0.74,0.78h0.17
					c0.03-0.09,0.06-0.18,0.08-0.27v0c1.96-6.45,2.43-12.99,1.36-19.79c-0.13-0.74-0.81-1.21-1.49-1.06
					c-0.3,0.07-0.55,0.24-0.73,0.47c-0.05,0.07-0.1,0.15-0.14,0.22C44.19,37.24,44.14,37.46,44.15,37.69z"/>
			</g>
            <g id="Distant_hand_3_">
				<g>
					<g>
						<g>
							<path class="st1" d="M41.49,61.58c0.04-0.15,0.2-0.24,0.36-0.19l0,0c0.15,0.04,0.24,0.2,0.19,0.35l-0.49,1.64
								c-0.05,0.15-0.2,0.24-0.36,0.19l0,0c-0.15-0.05-0.24-0.2-0.19-0.35L41.49,61.58z"/>
                            <path class="st1" d="M40.26,61.03c0.07-0.14,0.24-0.2,0.38-0.13l0,0c0.14,0.07,0.2,0.24,0.13,0.38l-0.76,1.53
								c-0.07,0.14-0.24,0.2-0.38,0.13l0,0c-0.14-0.07-0.2-0.24-0.13-0.38L40.26,61.03z"/>
                            <path class="st1" d="M39.35,60.85c0.04,0.17,0.2,0.27,0.37,0.24l1.35-0.3c0.05-0.15,0.09-0.32,0.07-0.47
								c-0.01-0.09-0.25-0.2-0.25-0.2l-1.3,0.36C39.41,60.52,39.31,60.69,39.35,60.85z"/>
                            <path class="st1" d="M40.77,61.54c0.06-0.15,0.22-0.22,0.37-0.16l0,0c0.15,0.06,0.22,0.23,0.16,0.37l-0.64,1.59
								c-0.06,0.15-0.23,0.22-0.37,0.16l0,0c-0.15-0.06-0.22-0.23-0.16-0.37L40.77,61.54z"/>
                            <path class="st1" d="M40.47,60.47c0.12-0.29,0.45-0.43,0.74-0.31l0.75,0.3c0.29,0.12,0.43,0.45,0.31,0.74l-0.3,0.75
								c-0.12,0.29-0.45,0.43-0.73,0.31l-0.75-0.3c-0.29-0.12-0.43-0.45-0.31-0.74L40.47,60.47z"/>
						</g>
					</g>
                    <path class="st1" d="M41.97,57.98c0.1-0.26,0.4-0.38,0.66-0.28l0,0c0.26,0.1,0.38,0.4,0.28,0.66l-1.13,2.8
						c-0.1,0.26-0.4,0.38-0.66,0.28l0,0c-0.26-0.1-0.38-0.4-0.28-0.66L41.97,57.98z"/>
				</g>
                <g>
					<path class="st4" d="M40.5,59.45c0.92,0.4,1.38,0.59,2.31,0.98c0.46-1.08,0.87-2.16,1.25-3.24v0
						c2.19-6.38,2.89-12.9,2.08-19.73c-0.11-0.74-0.77-1.24-1.45-1.11c-0.3,0.06-0.56,0.22-0.75,0.45c-0.19,0.23-0.3,0.53-0.3,0.85
						c0,0.06,0.01,0.13,0.01,0.19c0.11,0.91,0.19,1.82,0.24,2.72c0.09,1.57,0.09,3.13,0,4.67C43.62,50.08,42.48,54.79,40.5,59.45z"
                    />
				</g>
			</g>
		</g>
            <g>
			<g>
				<g>
					<g>
						<g>
							<path class="st1" d="M27.57,37.92c0,0.83,0.67,1.5,1.5,1.5l0,0c0.83,0,1.5-0.67,1.5-1.5v-4.94c0-0.83-0.67-1.5-1.5-1.5l0,0
								c-0.83,0-1.5,0.67-1.5,1.5V37.92z"/>
                            <path class="st7"
                                  d="M27.57,36.35v-3.38c0-0.83,0.67-1.5,1.5-1.5c0.83,0,1.5,0.67,1.5,1.5v3.89L27.57,36.35z"/>
						</g>
                        <path class="st5" d="M25.89,29.84c0,0.2,0.68,0.35,0.7,0.54c0.02,0.16-0.54,0.35-0.5,0.51c0.46,1.87,2.11,3.26,4.07,3.26
							c0.52,0,1.02-0.1,1.49-0.28h0c1.51-0.59,2.6-2.05,2.7-3.78c0.01-0.09,0.01-0.18,0.01-0.27c0-1.92-1.22-3.55-2.9-4.12
							c-0.41-0.14-0.85-0.21-1.3-0.21c-0.36,0-0.72,0.05-1.05,0.14c-0.13,0.03-0.25,0.07-0.37,0.12c-0.35,0.13-0.67,0.3-0.97,0.51
							C26.69,27.04,25.89,28.37,25.89,29.84z"/>
                        <g>
							<g>
								<path class="st0" d="M31.76,29.74v3c0,0.79-0.32,1.5-0.84,2.02c-0.11,0.11-0.22,0.2-0.34,0.29
									c-0.47,0.34-1.05,0.55-1.68,0.55c-0.51,0-0.98-0.13-1.39-0.36c-0.67-0.37-1.17-1.01-1.37-1.77
									c-0.06-0.23-0.09-0.48-0.09-0.73v-3c0-0.04,0-0.07,0-0.11c0.03-0.76,0.36-1.45,0.87-1.94c0.52-0.5,1.22-0.8,1.98-0.8
									C30.48,26.88,31.76,28.16,31.76,29.74z"/>
							</g>
						</g>
                        <path class="st5" d="M27.15,30.43c0.01-0.83-0.01-1.7-0.08-2.53c-0.1-1.17,0.65-2.2,3.72-2.08c1.68,0.06,3.61,2.68,3.81,4.67
							c0.23,2.33-2.15,4.58-3.83,4.57C29.08,35.04,27.12,32.42,27.15,30.43z"/>
                        <path class="st17" d="M28.76,31.33c-0.37,1.11,1.28,1.74,1.65,1.74c2.36,0.34,3.79-1.77,3.76-4.11
							c0.23,0.51,0.38,1.03,0.43,1.52c0.23,2.33-2.15,4.58-3.83,4.57c-1.21-0.01-2.57-1.38-3.22-2.88
							C28.05,31.94,28.1,31.22,28.76,31.33z"/>
                        <path class="st5" d="M29.73,27.47c0,1.66,1.35,3.01,3.02,3.01c0.23,0,0.45-0.03,0.66-0.07c0.17-0.04,0.33-0.09,0.48-0.15
							c1.1-0.45,1.88-1.53,1.88-2.79c0-1.66-1.35-3.01-3.01-3.01c-0.93,0-1.76,0.42-2.32,1.08c-0.06,0.08-0.12,0.16-0.18,0.24
							C29.92,26.26,29.73,26.84,29.73,27.47z"/>
                        <path class="st17" d="M30.09,26.05c0.07,1.64,1.49,3.03,2.92,3.31c2.47,0.31,2.62-2.22,1.96-3.93
							c0.49,0.54,0.79,1.25,0.79,2.03c0,1.26-0.78,2.34-1.88,2.79c-0.15,0.06-0.31,0.11-0.48,0.15c-0.21,0.05-0.43,0.07-0.66,0.07
							c-1.66,0-3.02-1.35-3.02-3.01C29.73,26.95,29.86,26.48,30.09,26.05z"/>
                        <path class="st1" d="M29.73,27.47c0,1.67,1.35,3.01,3.02,3.01c0.23,0,0.45-0.03,0.66-0.07c0.17-0.04,0.33-0.09,0.48-0.15
							c0.13-0.05,0.26-0.12,0.39-0.19c-0.01,0.01-0.03,0.01-0.05,0.01c-0.24,0.05-0.48,0.08-0.73,0.08c-1.85,0-3.35-1.5-3.35-3.35
							c0-0.42,0.08-0.83,0.22-1.2c-0.04,0.05-0.08,0.1-0.11,0.16C29.92,26.26,29.73,26.84,29.73,27.47z"/>
					</g>
                    <path class="st5" d="M25.75,29.92c0.91,0.93,2.17,1.51,2.74,1.07c0.67-0.51,0.43-1.97-0.55-3.26
						c-0.21-0.27-0.62-0.66-0.85-0.87C26.34,27.59,25.7,28.76,25.75,29.92z"/>
                    <path class="st0" d="M27.14,32.49c0.29,0.27,0.86,0.13,1.28-0.31c0.42-0.44,0.53-1.03,0.25-1.3c-0.29-0.27-0.86-0.13-1.28,0.32
						C26.97,31.64,26.86,32.22,27.14,32.49z"/>
                    <path class="st1" d="M27.64,32.03c0.11,0.1,0.32,0.06,0.47-0.09c0.15-0.16,0.18-0.37,0.07-0.47c-0.11-0.1-0.32-0.06-0.47,0.09
						C27.56,31.71,27.53,31.92,27.64,32.03z"/>
				</g>
                <g>
					<g>
						<g>
							<g>
								<path class="st0" d="M38.12,61.16c-0.05-0.15,0.03-0.31,0.19-0.37l0,0c0.15-0.05,0.31,0.03,0.37,0.18l0.54,1.65
									c0.05,0.15-0.03,0.32-0.18,0.37l0,0c-0.15,0.05-0.32-0.03-0.37-0.19L38.12,61.16z"/>
                                <path class="st0" d="M36.78,61.41c-0.02-0.16,0.08-0.31,0.24-0.33l0,0c0.16-0.02,0.31,0.08,0.33,0.24l0.26,1.72
									c0.02,0.16-0.08,0.31-0.24,0.33l0,0c-0.16,0.02-0.31-0.08-0.33-0.24L36.78,61.41z"/>
                                <path class="st0" d="M35.91,61.8c0.13,0.12,0.33,0.11,0.44-0.02l0.95-1.03c-0.04-0.16-0.11-0.32-0.21-0.43
									c-0.06-0.07-0.33-0.02-0.33-0.02l-0.88,1.05C35.77,61.48,35.78,61.68,35.91,61.8z"/>
                                <path class="st0" d="M37.49,61.54c-0.04-0.16,0.06-0.31,0.22-0.35l0,0c0.16-0.04,0.31,0.06,0.35,0.22l0.39,1.69
									c0.04,0.16-0.06,0.31-0.22,0.35l0,0c-0.16,0.04-0.31-0.06-0.35-0.22L37.49,61.54z"/>
                                <path class="st0" d="M36.62,60.82c-0.07-0.31,0.12-0.62,0.43-0.69l0.8-0.18c0.31-0.07,0.62,0.12,0.69,0.43l0.18,0.8
									c0.07,0.31-0.12,0.62-0.43,0.69l-0.8,0.18c-0.31,0.07-0.62-0.12-0.69-0.43L36.62,60.82z"/>
							</g>
						</g>
                        <path class="st0" d="M36.43,57.88c-0.06-0.28,0.11-0.55,0.39-0.61l0,0c0.28-0.06,0.55,0.11,0.61,0.38l0.68,2.99
							c0.06,0.27-0.11,0.55-0.39,0.61l0,0c-0.28,0.06-0.55-0.11-0.61-0.39L36.43,57.88z"/>
					</g>
                    <path class="st5" d="M35.92,59.65l2.5-0.51l-4.26-21.09c-0.14-0.69-0.81-1.14-1.5-1l0,0c-0.69,0.14-1.14,0.81-1,1.5
						L35.92,59.65z"/>
				</g>
                <g>
					<g>
						<path class="st1" d="M22.77,41.95c0-1.81,1.35-3.28,3.02-3.28c1.67,0,3.02,1.47,3.02,3.28c0,1.81-1.35,3.28-3.02,3.28
							C24.12,45.23,22.77,43.77,22.77,41.95z"/>
                        <g>
							<g>
								<path class="st0" d="M33.58,86.15c0.23,1.16,0.69,1.54,1.14,1.45c0.45-0.09,0.79-0.65,0.56-1.82l-0.15-1.01l-1.63,0.94
									L33.58,86.15z"/>
                                <g>
									<polygon class="st0" points="27.54,56.55 30.03,68.73 33.49,85.72 35.19,85.37 33.29,68.31 32.74,63.29 32.62,62.21 
										31.89,55.67 									"/>
								</g>
                                <path class="st4" d="M33.63,87.95c0.27,1.35,1,2.34,1.64,2.21c0.63-0.13,0.93-1.32,0.66-2.67c-0.12-0.58-0.32-1.1-0.56-1.49
									c-0.32-0.51-0.71-0.8-1.07-0.72c-0.39,0.08-0.65,0.55-0.74,1.2C33.51,86.91,33.53,87.42,33.63,87.95z"/>
							</g>
                            <g>
								<g>
									<g>
										<path class="st0" d="M26.32,87.38l-2.49-24.25c0-1.13,2.7-2.88,3.83-2.88c1.13,0-0.12,1.8-0.12,2.94L28.17,87L26.32,87.38
											z"/>
									</g>
								</g>
                                <path class="st4" d="M23.38,90.17c-0.23-0.12-0.19-0.02-0.2-0.36c-0.01-0.51,2.44-2.15,2.72-2.37c2.02-1.57,2.2-1,2.21-0.98
									c0.64,0.38,0.8,1.19,0.61,1.76c-0.32,0.93-1.47,0.14-1.96,0.96C26.02,90.41,24.01,90.36,23.38,90.17z"/>
                                <polygon class="st4"
                                         points="28.08,90.27 28.5,90.27 28.68,88.31 27.98,88.31 								"/>
                                <polygon class="st4"
                                         points="34.86,90.27 35.36,90.27 34.91,87.03 34.21,87.03 								"/>
                                <path class="st0" d="M26.3,87.15c0,0-1.87,1.24-1.82,1.7c0.04,0.38,3.1-1.01,3.42-1.25c0.38-0.28,0.44-0.7,0.29-1.09
									c-0.1-0.27-0.86-0.68-1.42-0.35C26.31,86.44,26.3,87.15,26.3,87.15z"/>
							</g>
						</g>
                        <path class="st1" d="M24.29,42.91c-0.01-0.11-0.02-0.21-0.03-0.31v-4.82c0-0.21,0.08-0.38,0.21-0.5
							c0.06-0.06,0.13-0.11,0.21-0.15c0.07-0.03,0.14-0.06,0.22-0.09c0,0,2.92-0.75,3.92-0.75c1.1-0.01,4.35,0.78,4.35,0.78
							c0.37,0,0.67,0.32,0.67,0.71c0,0-1.66,8.52-1.49,10.03c0.36,3.11,1.11,7.13,1.35,8.87c0.07,0.48,0.11,0.77,0.11,0.77h-3.75
							h-2.01h-3.75c0,0,0.04-0.29,0.11-0.77c0.24-1.74,0.79-5.97,0.75-7.62C25.11,47.53,24.29,42.91,24.29,42.91z"/>
                        <path class="st5"
                              d="M32.61,49.86c0.11,0.79,0.24,1.6,0.37,2.37h-8.04c0.09-0.87,0.16-1.7,0.2-2.37H32.61z"/>
                        <path class="st1" d="M22.28,69.16c-1.78-8.69,2.7-17.48,2.7-17.48h7.9c0,0,1.99,4,2.34,5.76c0.52,2.59,0.11,9.24-0.66,11.81
							C34.22,70.4,22.53,70.35,22.28,69.16z"/>
                        <path class="st4" d="M33.57,86.48c0.09,0.61,0.6,1.29,1.11,1.22c0.51-0.07,0.83-0.87,0.75-1.49
							c-0.01-0.08-0.03-0.15-0.05-0.22c-0.32-0.51-0.71-0.8-1.07-0.72C33.92,85.36,33.65,85.83,33.57,86.48z"/>
					</g>
				</g>
			</g>
                <g id="Front_Hand_17_">
				<g>
					<g>
						<g>
							<g>
								<path class="st0" d="M16.89,62.83c0.08-0.15,0.26-0.21,0.41-0.13l0,0c0.15,0.08,0.21,0.26,0.13,0.41l-0.83,1.62
									c-0.08,0.15-0.26,0.21-0.41,0.13l0,0c-0.15-0.08-0.21-0.26-0.13-0.41L16.89,62.83z"/>
                                <path class="st0" d="M15.71,62.01c0.1-0.14,0.29-0.16,0.43-0.06l0,0c0.13,0.1,0.16,0.29,0.06,0.42l-1.09,1.46
									c-0.1,0.14-0.29,0.16-0.42,0.06l0,0c-0.13-0.1-0.16-0.29-0.06-0.43L15.71,62.01z"/>
                                <path class="st0" d="M14.78,61.65c0.01,0.18,0.16,0.32,0.34,0.32l1.47-0.05c0.08-0.15,0.16-0.32,0.16-0.47
									c0-0.1-0.23-0.26-0.23-0.26l-1.43,0.13C14.92,61.31,14.77,61.47,14.78,61.65z"/>
                                <path class="st0" d="M16.14,62.65c0.09-0.14,0.28-0.18,0.42-0.09l0,0c0.14,0.09,0.18,0.28,0.09,0.42l-0.98,1.54
									c-0.09,0.14-0.28,0.18-0.42,0.09l0,0c-0.14-0.09-0.18-0.28-0.09-0.42L16.14,62.65z"/>
                                <path class="st0" d="M16.03,61.46c0.18-0.28,0.55-0.36,0.83-0.19l0.73,0.46c0.28,0.18,0.36,0.55,0.19,0.83l-0.46,0.73
									c-0.18,0.28-0.55,0.36-0.83,0.19l-0.73-0.46c-0.28-0.18-0.36-0.55-0.19-0.83L16.03,61.46z"/>
							</g>
						</g>
                        <path class="st0" d="M18.09,59.14c0.16-0.25,0.49-0.32,0.74-0.16l0,0c0.25,0.16,0.32,0.49,0.17,0.74l-1.72,2.72
							c-0.16,0.25-0.49,0.32-0.74,0.17l0,0c-0.25-0.16-0.32-0.49-0.17-0.74L18.09,59.14z"/>
					</g>
                    <g>
						<path class="st5" d="M16.26,60.4c0.89,0.59,1.34,0.89,2.24,1.47c4.72-7.16,7.36-14.89,7.89-23.45c0.03-0.8-0.57-1.44-1.3-1.44
							l0,0c-0.74,0-1.34,0.61-1.37,1.36C23.2,46.41,20.71,53.65,16.26,60.4z"/>
					</g>
				</g>
			</g>
		</g>
            <g id="Paramedic_2_1_">
			<g>
				<path class="st4" d="M69.58,33.03c-0.21,0.33-0.1,1.36-0.15,1.62c-0.08,0.46-0.14,0.94-0.55,1.08c-1.8,0.61-3.42,0.43-5.74,0.51
					c-0.43,0.01-0.76-1.24-0.56-2.35L69.58,33.03z"/>
                <path class="st1" d="M65.68,36.53c0,0.86,0.69,1.55,1.55,1.55l0,0c0.86,0,1.55-0.69,1.55-1.55v-5.09c0-0.85-0.69-1.55-1.55-1.55
					l0,0c-0.85,0-1.55,0.69-1.55,1.55V36.53z"/>
                <path class="st0" d="M63.32,28.08v3.38c0,1.48,0.99,2.73,2.35,3.11c0.28,0.08,0.57,0.12,0.87,0.12c0.86,0,1.65-0.34,2.23-0.89
					c0.02-0.02,0.04-0.04,0.06-0.05c0.58-0.58,0.94-1.39,0.94-2.28v-3.38c0-1.78-1.44-3.22-3.23-3.22c-0.89,0-1.7,0.36-2.28,0.94
					C63.68,26.38,63.32,27.19,63.32,28.08z"/>
                <path class="st1" d="M65.68,31.44v3.13c0.28,0.08,0.57,0.12,0.87,0.12c0.86,0,1.65-0.34,2.23-0.89v-2.36
					c0-0.85-0.69-1.55-1.55-1.55c-0.43,0-0.81,0.17-1.09,0.45C65.85,30.62,65.68,31.01,65.68,31.44z"/>
                <path class="st7" d="M65.68,36.53c0,0.86,0.69,1.55,1.55,1.55l0,0c0.86,0,1.55-0.69,1.55-1.55v-5.09c0-0.85-0.69-1.55-1.55-1.55
					l0,0c-0.85,0-1.55,0.69-1.55,1.55V36.53z"/>
                <path class="st12" d="M67.08,31.78c0.06,0.2,0.38,0.29,0.71,0.2c0.34-0.09,0.57-0.34,0.51-0.54c-0.06-0.2-0.38-0.29-0.71-0.2
					C67.25,31.34,67.02,31.58,67.08,31.78z"/>
                <g>
					<g>
						<g>
							<path class="st5" d="M62.69,36.2c1.98,0.29,2.93-1.27,3.34-2.24c0.24,0.41,0.62,0.77,1.31,0.83
								c0.26,0.02,0.95,0.02,1.32,0.08c1.57,0.26,4.27-2.58,4.05-6c-0.26-4.1-3.16-3.78-3.16-3.78s0-1.45-2.45-1.43
								c-3.7-0.25-3.76,4.04-3.76,4.04s0.26-1.29,0.67-1.36c0.18-0.03,0.37,0.03,0.6,0.11c0.51,0.18,0.23,2.64,0.22,3.52
								c-0.01,0.65,0.15,2.22-0.96,2.22c-0.29,0-0.38-0.11-0.5-0.11C62.92,32.1,61.76,36.06,62.69,36.2z"/>
						</g>
                        <g>
							<path class="st4" d="M62.89,32.87c-0.14,0.87-0.56,1.71-0.02,2.33c1.16,1.27,2.85-1.06,3.17-2.32
								c1.06,0.95,2.53,0.63,3.8,0.21c0.95-0.42,1.48-1.27,1.58-2.22c0.29-1.81,0.66-4.49-0.99-5.69c0.88,0.24,2.13,1.06,2.3,3.68
								c0.22,3.42-2.48,6.26-4.05,6c-0.37-0.06-1.06-0.06-1.32-0.08c-0.69-0.06-1.07-0.42-1.31-0.83c-0.41,0.97-1.36,2.53-3.34,2.24
								C62.02,36.1,62.43,34.03,62.89,32.87z"/>
						</g>
                        <path class="st0" d="M65.53,31.97c0.36,0.11,0.78-0.26,0.95-0.81c0.17-0.55,0.01-1.09-0.34-1.2c-0.36-0.1-0.78,0.26-0.95,0.81
							C65.03,31.33,65.18,31.87,65.53,31.97z"/>
                        <path class="st5" d="M65.26,33.7c0.01,0,0.01,0.01,0,0.01C65.26,33.71,65.25,33.7,65.26,33.7z"/>
					</g>
				</g>
			</g>
                <g id="Front_Hand_6_">
				<g>
					<path class="st0" d="M72.44,60.98c0.97,0.22,0.26,0.25,1.23,0.46c1.69-7.77,1.97-15.97-0.43-23.55
						c-0.24-0.7-0.97-1.06-1.61-0.81l0,0c-0.64,0.25-0.95,0.97-0.73,1.64C73.15,45.86,74.03,53.66,72.44,60.98z"/>
				</g>
                    <g>
					<g>
						<g>
							<path class="st0" d="M73.18,62.15c0.01-0.16,0.15-0.27,0.31-0.25l0,0c0.15,0.02,0.27,0.15,0.25,0.31l-0.17,1.68
								c-0.02,0.15-0.15,0.27-0.31,0.25l0,0c-0.15-0.02-0.27-0.15-0.25-0.31L73.18,62.15z"/>
                            <path class="st0" d="M71.88,61.85c0.04-0.15,0.2-0.24,0.35-0.2l0,0c0.15,0.04,0.24,0.2,0.2,0.35l-0.45,1.63
								c-0.04,0.15-0.2,0.24-0.35,0.2l0,0c-0.15-0.04-0.24-0.2-0.2-0.35L71.88,61.85z"/>
                            <path class="st0" d="M70.96,61.84c0.07,0.16,0.25,0.23,0.4,0.16l1.25-0.54c0.02-0.16,0.03-0.33-0.02-0.46
								c-0.03-0.08-0.28-0.15-0.28-0.15l-1.19,0.59C70.97,61.5,70.89,61.68,70.96,61.84z"/>
                            <path class="st0" d="M72.47,62.24c0.03-0.15,0.18-0.25,0.33-0.22l0,0c0.15,0.03,0.25,0.18,0.22,0.33l-0.33,1.66
								c-0.03,0.15-0.18,0.25-0.33,0.22l0,0c-0.15-0.03-0.25-0.18-0.22-0.33L72.47,62.24z"/>
                            <path class="st0" d="M71.98,61.26c0.06-0.3,0.35-0.5,0.66-0.44l0.78,0.15c0.3,0.06,0.5,0.35,0.44,0.66l-0.16,0.78
								c-0.06,0.3-0.35,0.5-0.66,0.44l-0.78-0.16c-0.3-0.06-0.5-0.35-0.44-0.66L71.98,61.26z"/>
						</g>
					</g>
				</g>
                    <g>
					<path class="st5" d="M70.91,38.71c0.83,2.64,1.39,5.27,1.68,7.91c0.04,0.33,0.07,0.67,0.1,1h2.49
						c-0.03-0.42-0.07-0.84-0.12-1.25c-0.32-2.83-0.92-5.65-1.81-8.48c-0.24-0.7-0.97-1.06-1.61-0.81
						C71,37.33,70.68,38.05,70.91,38.71z"/>
				</g>
                    <path class="st5" d="M72.59,46.62c0.04,0.33,0.07,0.67,0.1,1h2.49c-0.03-0.42-0.07-0.84-0.12-1.25l-2.45,0.25
					C72.6,46.62,72.59,46.62,72.59,46.62z"/>
                    <path class="st5" d="M72.56,48.1h2.64c0.2,0,0.36-0.16,0.36-0.36v-0.64c0-0.2-0.16-0.36-0.36-0.36h-2.64
					c-0.2,0-0.36,0.16-0.36,0.36v0.64C72.2,47.93,72.36,48.1,72.56,48.1z"/>
                    <path class="st4" d="M74.76,47.46c0-0.16,0.13-0.3,0.3-0.3c0.16,0,0.3,0.13,0.3,0.3c0,0.16-0.13,0.3-0.3,0.3
					C74.89,47.76,74.76,47.63,74.76,47.46z"/>
			</g>
                <g id="Legs_9_">
				<path class="st4" d="M63.09,57.12v1.35h9.27l-0.02-1.35c0-1.35-0.59-2.56-1.52-3.4c-0.81-0.74-1.89-1.19-3.07-1.19h-0.08
					c-1.24,0-2.36,0.5-3.19,1.3C63.62,54.67,63.09,55.84,63.09,57.12z"/>
                    <g>
					<g>
						
							<rect x="69.07" y="86.09" transform="matrix(0.0236 -0.9997 0.9997 0.0236 -18.7737 154.6652)"
                                  class="st1" width="1.44" height="1.71"/>

                        <rect x="68.72" y="87.19" transform="matrix(4.376326e-03 -1 1 4.376326e-03 -18.7328 157.5702)"
                              class="st0" width="2.09" height="2.01"/>
                        <g>
							<g>
								<g>
									<path class="st4"
                                          d="M71.08,89.9c0,0.21-0.17,0.38-0.37,0.38c-0.7,0-2.2,0-2.2,0l-4.05,0v-0.5l6.62,0.01V89.9z"/>
                                    <path class="st4" d="M64.46,89.79c0-0.75,0.62-1.12,1.37-1.12l1.31,0c0.08,0,0.16-0.01,0.22-0.01
										c0.03-0.01,0.05-0.01,0.08-0.01c0.14-0.03,0.24-0.07,0.31-0.13c0.02-0.02,0.03-0.04,0.05-0.05
										c0.05-0.07,0.07-0.16,0.07-0.25v-0.01l0-0.03l0,0l0-0.03c0-0.41,0.33-0.74,0.74-0.73c0.39,0,0.7,0.29,0.74,0.67l0,0v0.05
										c0,0.39,0.31,0.7,0.7,0.7c0.39,0,0.7-0.31,0.7-0.7v-0.04c0.18,0.03,0.31,0.18,0.31,0.37l0,0.76v0.58L64.46,89.79z"/>
								</g>
							</g>
						</g>
					</g>
                        <g>
						
							<rect x="64.95" y="86.09" transform="matrix(0.0236 -0.9997 0.9997 0.0236 -22.7961 150.5459)"
                                  class="st1" width="1.44" height="1.71"/>

                            <rect x="64.6" y="87.19" transform="matrix(4.372194e-03 -1 1 4.372194e-03 -22.8332 153.452)"
                                  class="st0" width="2.09" height="2.01"/>
                            <g>
							<g>
								<g>
									<path class="st4"
                                          d="M66.96,89.9c0,0.21-0.17,0.38-0.37,0.38c-0.7,0-2.2,0-2.2,0l-4.05,0v-0.5l6.62,0.01V89.9z"/>
                                    <path class="st4" d="M61.71,88.66l1.32,0c0.08,0,0.16-0.01,0.22-0.01c0.03-0.01,0.05-0.01,0.07-0.01
										c0.15-0.03,0.25-0.07,0.31-0.13c0.02-0.02,0.04-0.04,0.05-0.05c0.05-0.08,0.07-0.16,0.07-0.25v-0.03v-0.03
										c0-0.41,0.33-0.74,0.74-0.73c0.38,0,0.7,0.29,0.74,0.67l0,0v0.05c0,0.39,0.32,0.7,0.7,0.7c0.39,0,0.71-0.31,0.71-0.7v-0.04
										c0.17,0.03,0.3,0.18,0.3,0.37v0.76v0.58l-6.62-0.01C60.34,89.03,60.96,88.66,61.71,88.66z"/>
								</g>
							</g>
						</g>
					</g>
                        <g>
						<polygon class="st4"
                                 points="68.11,58.48 68.11,86.45 71.56,86.45 71.59,85.44 72.36,58.48 						"/>
					</g>
                        <path class="st8" d="M68.11,61.41v25.03h3.45l0.03-1.01c-0.13-0.02-0.26-0.04-0.39-0.04c-0.45-0.01-0.92,0.07-1.32-0.12
						c-0.21-0.1-0.38-0.27-0.52-0.45c-0.75-0.95-0.85-2.24-0.88-3.44c-0.16-5.85,0.66-11.67,1.03-17.51
						c0.04-0.6,0.06-1.22-0.21-1.75C69.11,61.76,68.57,61.32,68.11,61.41z"/>
                        <g>
						<polygon class="st4"
                                 points="63.09,58.48 63.17,61.58 63.89,86.45 67.34,86.45 67.34,58.48 						"/>
					</g>
                        <polygon class="st4"
                                 points="63.09,58.48 63.17,61.58 70.16,61.58 70.16,58.48 					"/>
                        <path class="st8" d="M63.09,57.12v1.35l0.09,3.1l0.71,24.87h3.45v-1.33c-0.11-0.16-1.89-0.36-2.29-0.89
						c-0.17-0.22-0.18-0.53-0.19-0.81c-0.11-5.34-0.23-10.67-0.34-16.01c-0.04-1.95-0.08-3.89-0.12-5.84
						c-0.01-0.2-0.01-0.4-0.01-0.6c-0.02-0.69,0.03-1.5,0.61-1.88c0.37-0.25,0.86-0.22,1.3-0.19c0.35,0.03,0.7,0.05,1.05,0.08
						c0.26,0.02,0.51,0.04,0.77,0.06c0.58,0.04,1.95,0.14,2.05,0.15c0.44,0.03,2.2-0.71,2.2-0.71l-0.02-1.35
						c0-1.35-0.59-2.56-1.52-3.4c-2.05-0.33-4.22-0.16-6.33,0.11C63.62,54.67,63.09,55.84,63.09,57.12z"/>
				</g>
			</g>
                <g id="Body_9_">
				<path class="st1" d="M62.49,57.11c0,0.43,0.33,0.77,0.73,0.77h8.99c0.4,0,0.73-0.35,0.73-0.77V37.75c0-0.43-0.33-0.77-0.73-0.77
					c0,0-3.54-0.86-4.75-0.85c-1.09,0.01-4.28,0.82-4.28,0.82c-0.41,0.12-0.7,0.37-0.7,0.8V57.11z"/>
			</g>
                <g id="Distant_hand_2_">
				<g>
					<path class="st0" d="M59.08,60.79c0.91,0.39,0.13-0.05,1.05,0.33c1.85-4.05,4.84-16.26,4.03-23c-0.11-0.74-0.76-1.22-1.43-1.1
						c-0.3,0.06-0.56,0.22-0.74,0.44c-0.19,0.23-0.3,0.52-0.3,0.84c0,0.06,0.01,0.13,0.01,0.19c0.11,0.9,0.18,1.79,0.23,2.68
						c0.09,1.55,0.09,3.09,0,4.61C61.67,50.58,61.04,56.19,59.08,60.79z"/>
				</g>
                    <g>
					<path class="st1" d="M61.94,41.17c0.09,1.55,0.09,3.09,0,4.61c-0.01,0.26-0.03,0.53-0.05,0.79c-0.02,0.22-0.03,0.43-0.05,0.64
						c-0.01,0.14-0.03,0.27-0.04,0.41h2.49c0.04-0.43,0.08-0.87,0.1-1.31c0.18-2.69,0.1-5.42-0.23-8.2
						c-0.11-0.73-0.76-1.22-1.43-1.1c-0.3,0.06-0.56,0.22-0.74,0.44c-0.19,0.23-0.3,0.52-0.3,0.84c0,0.06,0,0.13,0.01,0.19
						C61.81,39.39,61.89,40.28,61.94,41.17z"/>
				</g>
                    <path class="st5" d="M61.83,47.21c0.01,0.13,0.03,0.27,0.04,0.41h2.41c0.04-0.43,0.08-0.87,0.1-1.31l-2.5,0.26
					C61.87,46.79,61.85,47,61.83,47.21z"/>
                    <path class="st1" d="M61.69,48.1h2.64c0.2,0,0.36-0.16,0.36-0.36v-0.64c0-0.2-0.16-0.36-0.36-0.36h-2.64
					c-0.2,0-0.36,0.16-0.36,0.36v0.64C61.33,47.93,61.49,48.1,61.69,48.1z"/>
                    <path class="st4"
                          d="M63.7,47.46c0-0.16,0.13-0.3,0.3-0.3s0.3,0.13,0.3,0.3c0,0.16-0.13,0.3-0.3,0.3S63.7,47.63,63.7,47.46z"/>
                    <g>
					<g>
						<g>
							<g>
								<path class="st0" d="M59.57,61.94c0.04-0.15,0.2-0.23,0.35-0.19l0,0c0.15,0.04,0.23,0.2,0.19,0.35l-0.48,1.62
									c-0.04,0.15-0.2,0.23-0.35,0.19l0,0c-0.15-0.04-0.23-0.2-0.19-0.35L59.57,61.94z"/>
                                <path class="st0" d="M58.36,61.4c0.07-0.14,0.24-0.2,0.38-0.13l0,0c0.14,0.07,0.2,0.24,0.13,0.38l-0.75,1.52
									c-0.07,0.14-0.24,0.2-0.38,0.13l0,0c-0.14-0.07-0.2-0.24-0.13-0.38L58.36,61.4z"/>
                                <path class="st0" d="M57.45,61.22c0.04,0.17,0.2,0.27,0.36,0.23l1.33-0.3c0.05-0.15,0.09-0.32,0.07-0.46
									c-0.01-0.09-0.25-0.2-0.25-0.2l-1.28,0.35C57.52,60.89,57.42,61.06,57.45,61.22z"/>
                                <path class="st0" d="M58.86,61.9c0.06-0.14,0.22-0.21,0.37-0.16l0,0c0.14,0.06,0.21,0.22,0.16,0.37l-0.63,1.57
									c-0.06,0.14-0.22,0.21-0.37,0.16l0,0c-0.14-0.06-0.21-0.22-0.16-0.37L58.86,61.9z"/>
                                <path class="st0" d="M58.56,60.84c0.12-0.29,0.44-0.42,0.73-0.31l0.74,0.3c0.29,0.12,0.42,0.44,0.31,0.73l-0.3,0.74
									c-0.12,0.29-0.44,0.42-0.73,0.31l-0.74-0.3c-0.29-0.12-0.42-0.44-0.31-0.73L58.56,60.84z"/>
							</g>
						</g>
					</g>
				</g>
			</g>
		</g>
	</g>
</g>
</svg>
