<?xml version="1.0" encoding="utf-8"?>
<!-- Generator: Adobe Illustrator 24.1.3, SVG Export Plug-In . SVG Version: 6.00 Build 0)  -->
<svg version="1.1" id="Layer_1" xmlns="http://www.w3.org/2000/svg" xmlns:xlink="http://www.w3.org/1999/xlink" x="0px" y="0px"
	 viewBox="0 0 106.49 82" style="enable-background:new 0 0 106.49 82;" xml:space="preserve">
<style type="text/css">
	.st0{fill:#D8E3E7;}
	.st1{fill:#CF9508;}
	.st2{fill:#132C33;}
	.st3{fill:#51C4D3;}
	.st4{fill:#825F0C;}
	.st5{opacity:0.32;fill:#D8E3E7;}
	.st6{opacity:0.32;fill:#126E82;}
	.st7{opacity:0.65;fill:#51C4D3;}
</style>
<g>
	<g>
		<path class="st3" d="M42.92,62.66c-3.89-4.39-15.37-10.35-12.35-17.19c2.57-5.82,14.88-5.1,13.4-12.12
			c-0.88-4.15-2.01-7.69,0.66-12.41c2.92-5.14,11.64-2.34,14.66-7.11c2.6-4.1-0.78-10.43,4.59-13.17
			c4.76-2.43,10.52,2.32,11.38,6.53c1.07,5.26-4.14,7.74-4.81,12.32c-0.43,2.92,2.23,3.93,3.75,5.97c1.46,1.95,2.77,4.77,2.86,7.19
			c0.29,7.28-7.69,8.22-11.47,12.84c-3.5,4.28,2.96,7.05,1.99,11.71c-1.04,5.03-8.2,7.77-13.24,7.7
			C50.85,64.86,45.33,65.38,42.92,62.66z"/>
		<g>
			<path class="st0" d="M48,65.06c-0.03-0.01-0.06-0.01-0.09-0.03c-0.16-0.08-0.22-0.25-0.12-0.4c0.07-0.1,7.19-10.81,7.6-24.27
				c0.27-8.97,4-14.71,7.06-19.42c1.85-2.84,3.46-5.32,3.7-7.81c0.02-0.2,0.21-0.36,0.42-0.35c0.22,0.01,0.36,0.18,0.34,0.38
				c-0.27,2.66-1.93,5.21-3.83,8.13c-3.01,4.63-6.69,10.27-6.97,19.06c-0.44,13.62-7.66,24.45-7.73,24.55
				C48.3,65.03,48.14,65.08,48,65.06z"/>
		</g>
		<g>
			<path class="st0" d="M55.99,40.4c-0.17-0.03-0.29-0.18-0.27-0.34c0.02-0.18,0.2-0.32,0.4-0.31c3.02,0.18,7.04-1.58,8.26-4.52
				c0.15-0.35,0.29-0.74,0.45-1.16c0.74-1.97,1.66-4.45,3.6-5.34c0.95-0.44,2.05-0.44,3.25-0.02c0.19,0.07,0.27,0.26,0.19,0.44
				c-0.08,0.18-0.29,0.26-0.48,0.21c-1.03-0.36-1.9-0.36-2.66-0.01c-1.64,0.76-2.51,3.07-3.2,4.92c-0.16,0.42-0.31,0.82-0.46,1.18
				c-1.39,3.33-5.75,5.17-9.02,4.97C56.03,40.41,56.01,40.4,55.99,40.4z"/>
		</g>
		<g>
			<path class="st0" d="M53.85,40.06c-1.4-0.32-2.46-0.93-3.17-1.84c-1.12-1.44-1.3-3.61-0.49-6.28c0.08-0.27,0.18-0.57,0.29-0.91
				c0.63-1.91,1.59-4.83,0.64-6.46c-0.31-0.54-0.81-0.89-1.53-1.07c-0.2-0.05-0.32-0.25-0.26-0.43c0.06-0.19,0.26-0.3,0.46-0.25
				c0,0,0,0,0,0c0.91,0.23,1.57,0.7,1.98,1.4c1.09,1.88,0.07,4.97-0.6,6.99c-0.11,0.33-0.21,0.63-0.29,0.89
				c-0.74,2.48-0.61,4.45,0.38,5.73c0.85,1.09,2.33,1.69,4.39,1.8c0.21,0.01,0.34,0.17,0.33,0.35c-0.02,0.18-0.2,0.32-0.4,0.31
				C54.97,40.26,54.39,40.18,53.85,40.06z"/>
		</g>
		<g>
			<path class="st0" d="M52.14,60.82c-0.42-0.08-0.81-0.21-1.16-0.42c-0.15-0.09-0.19-0.28-0.07-0.42c0.11-0.14,0.33-0.18,0.48-0.08
				c1.81,1.09,5.48-0.33,7.04-1.43c0.65-0.46,1.24-1.26,1.86-2.11c1.11-1.52,2.27-3.09,4.09-3.15c0.2-0.01,0.35,0.13,0.34,0.3
				c-0.01,0.17-0.17,0.31-0.36,0.32c-1.44,0.04-2.48,1.47-3.49,2.84c-0.65,0.89-1.27,1.73-2.02,2.26
				C57.44,59.92,54.38,61.23,52.14,60.82z"/>
		</g>
		<g>
			<path class="st0" d="M49.18,60.16c-0.43-0.08-0.84-0.23-1.25-0.44c-2.27-1.21-3.62-4.31-3.97-6.11c-0.19-0.97,0.1-2.25,0.41-3.61
				c0.49-2.18,1.01-4.45-0.41-5.48c-0.15-0.11-0.17-0.32-0.04-0.46c0.13-0.14,0.36-0.16,0.51-0.05c1.74,1.28,1.16,3.85,0.64,6.1
				c-0.3,1.3-0.58,2.53-0.41,3.38c0.32,1.63,1.59,4.61,3.65,5.71c0.8,0.43,1.66,0.53,2.53,0.3c0.18-0.05,0.37,0.04,0.42,0.2
				c0.05,0.16-0.06,0.33-0.25,0.37C50.39,60.24,49.78,60.27,49.18,60.16z"/>
		</g>
	</g>
	<g>
		<path class="st0" d="M70.78,77.43c-6.67-1.65-11.95-3.14-12.1-10.2c-0.07-3.66,1.56-6.18,5.41-8.21c3.12-1.64,4.72-2.2,5.44-5.44
			c1.15-5.18-1.35-10.29,1.91-15.29c3.64-5.59,11.85-3.04,15.64-8.11c3.4-4.55,5.27-10.44,12.45-10.35
			c6.05,0.07,8.52,6.39,5.93,10.77c-1.46,2.47-4.01,4.2-5.04,6.85c-0.99,2.52,0.1,4.58,1.07,6.88c2.14,5.09,2.67,10.33-3.17,13.69
			c-3.49,2.01-6.18,3.77-4.92,7.54c1.32,3.96,1.91,6.22-2.89,9.2c-3.59,2.23-6.87,2.05-10.99,2.22c-3.87,0.16-9.03,1.22-12.68-0.45
			L70.78,77.43z"/>
		<g>
			<path class="st0" d="M72.94,73.77c-0.56-0.64-0.94-1.3-1.13-1.99c-0.81-2.96,2.01-5.93,4.57-8.62c1.29-1.35,2.52-2.65,3.09-3.75
				c1.57-3.01,2.04-5.69,1.71-9.9c-0.4-4.99,0.94-7.03,5.02-10.33c3.43-2.79,6.83-5.85,7.78-8.89c0.07-0.24,0.38-0.36,0.67-0.29
				c0.3,0.08,0.48,0.33,0.41,0.57c-1.02,3.23-4.54,6.4-8.08,9.25c-3.94,3.18-5.17,5.02-4.8,9.77c0.28,3.59,0.07,6.69-1.8,10.25
				c-0.62,1.18-1.88,2.5-3.2,3.88c-2.47,2.58-5.2,5.44-4.48,8.09c0.28,1.02,1.05,1.96,2.35,2.87c0.21,0.15,0.29,0.39,0.15,0.53
				c-0.14,0.14-0.42,0.14-0.64-0.02C73.92,74.73,73.37,74.26,72.94,73.77z"/>
		</g>
		<g>
			<path class="st0" d="M81.38,54.22c-0.07-0.08-0.11-0.16-0.12-0.26c-0.01-0.22,0.21-0.38,0.48-0.35c2.41,0.26,4.19-1.62,6.12-3.65
				c1.7-1.8,3.49-3.68,5.93-4.2c0.28-0.06,0.6,0.08,0.7,0.31c0.11,0.23-0.02,0.46-0.3,0.52c-2.14,0.45-3.85,2.23-5.47,3.93
				c-1.99,2.09-4.01,4.21-6.94,3.89C81.62,54.4,81.48,54.32,81.38,54.22z"/>
		</g>
		<g>
			<path class="st0" d="M79.45,60.36c-0.04-0.04-0.07-0.09-0.09-0.14c-0.24-0.6-0.33-1.11-0.43-1.6c-0.15-0.8-0.29-1.49-0.99-2.36
				c-0.37-0.46-0.79-0.87-1.19-1.26c-0.84-0.83-1.72-1.67-2.11-3.03c-0.56-1.94-0.53-4.35,0.11-7.19c0.09-0.4,0.29-0.95,0.51-1.54
				c0.31-0.85,0.9-2.44,0.71-2.8c-0.12-0.21-0.04-0.46,0.2-0.53c0.23-0.08,0.52,0.01,0.65,0.21c0.4,0.61,0.03,1.72-0.62,3.46
				c-0.21,0.57-0.41,1.11-0.49,1.46c-0.43,1.89-0.8,4.59-0.14,6.87c0.33,1.14,1.04,1.83,1.87,2.63c0.43,0.41,0.87,0.84,1.28,1.36
				c0.85,1.05,1.01,1.91,1.17,2.74c0.09,0.46,0.18,0.94,0.39,1.47c0.09,0.22-0.05,0.42-0.31,0.44
				C79.79,60.59,79.58,60.5,79.45,60.36z"/>
		</g>
	</g>
	<g>
		<path class="st0" d="M30.68,76.48c-7.38-1.34-14.3-0.77-17.29-8.86c-2.37-6.4,3.15-12.42-2.4-16.82
			c-3.34-2.65-8.61-4.23-9.77-8.75c-1.21-4.71,4.81-7.7,3.73-12.22c-0.9-3.74-6.08-3.98-4.73-8.85c1.2-4.32,5-5.4,8.01-4.54
			c4.03,1.15,4.37,4.84,7.05,7.41c1.79,1.71,4.32-0.01,6.94-0.32c2.61-0.31,5.96-0.08,8.17,1.07c7.18,3.74,1.43,11.67,2.73,18.12
			c1.26,6.24,10.04,2.47,14.58,7.15c5.3,5.47,1.3,14.93-3.92,19.4C40.31,72.24,35.67,77.39,30.68,76.48z"/>
		<g>
			<path class="st0" d="M37.81,74.85c-0.04,0.02-0.08,0.04-0.12,0.05c-0.24,0.06-0.49-0.09-0.55-0.31
				c-0.05-0.17-4.85-16.23-16.55-26.8c-6.59-5.95-8.15-12.1-9.38-16.91c-0.71-2.8-1.32-5.19-2.72-6.48c-0.11-0.1-0.1-0.31,0.03-0.47
				c0.13-0.16,0.33-0.2,0.44-0.1c1.51,1.38,2.14,3.84,2.88,6.73c1.22,4.74,2.77,10.81,9.27,16.64C33.04,57.9,37.95,74.21,38,74.38
				C38.05,74.57,37.97,74.76,37.81,74.85z"/>
		</g>
		<g>
			<path class="st0" d="M21.05,47.32c-0.15,0.11-0.35,0.11-0.47-0.02c-0.13-0.14-0.11-0.38,0.04-0.53c2.37-2.33,3.91-6.83,2.36-9.66
				c-0.18-0.33-0.39-0.69-0.62-1.06c-1.05-1.76-2.33-3.9-1.66-5.99c0.33-1.02,1.1-1.95,2.29-2.76c0.19-0.13,0.4-0.1,0.49,0.07
				c0.08,0.16,0,0.38-0.18,0.52c-1.02,0.69-1.64,1.42-1.91,2.25c-0.57,1.78,0.64,3.8,1.63,5.44c0.23,0.38,0.45,0.74,0.63,1.08
				c1.77,3.23,0.03,8.08-2.56,10.62C21.08,47.29,21.07,47.31,21.05,47.32z"/>
		</g>
		<g>
			<path class="st0" d="M19.23,48.8c-1.24,0.89-2.46,1.29-3.63,1.22c-1.81-0.11-3.46-1.4-4.78-3.7c-0.13-0.22-0.27-0.49-0.43-0.78
				c-0.87-1.62-2.17-4.03-3.76-4.25c-0.52-0.07-1.02,0.1-1.55,0.51c-0.15,0.12-0.33,0.09-0.41-0.06c-0.08-0.15-0.03-0.36,0.12-0.47
				c0,0,0,0,0,0c0.66-0.53,1.34-0.75,2.02-0.66c1.84,0.25,3.22,2.8,4.15,4.51c0.15,0.28,0.29,0.54,0.42,0.76
				c1.23,2.12,2.72,3.31,4.33,3.41c1.4,0.08,2.91-0.67,4.48-2.23c0.16-0.16,0.38-0.16,0.51-0.03c0.13,0.14,0.11,0.38-0.04,0.53
				C20.2,48.04,19.71,48.45,19.23,48.8z"/>
		</g>
		<g>
			<path class="st0" d="M37.01,67.09c-0.47,0.28-0.97,0.48-1.51,0.57c-0.24,0.04-0.46-0.11-0.5-0.34c-0.04-0.23,0.11-0.44,0.35-0.48
				c2.83-0.49,4.69-5.02,4.93-7.42c0.1-0.99-0.24-2.22-0.6-3.52c-0.63-2.29-1.28-4.62,0.33-6.32c0.17-0.19,0.46-0.21,0.64-0.07
				c0.18,0.14,0.19,0.41,0.02,0.58c-1.28,1.34-0.68,3.47-0.1,5.55c0.38,1.37,0.75,2.67,0.63,3.82
				C40.98,61.63,39.55,65.56,37.01,67.09z"/>
		</g>
		<g>
			<path class="st0" d="M33.64,68.94c-0.46,0.28-0.98,0.48-1.55,0.6c-3.15,0.68-7.14-1.12-9.02-2.45c-0.98-0.7-1.85-2.02-2.76-3.4
				c-1.41-2.15-2.84-4.33-4.65-4.05c-0.19,0.03-0.36-0.11-0.38-0.31c-0.02-0.2,0.13-0.39,0.32-0.42c2.22-0.35,3.85,2.12,5.32,4.34
				c0.87,1.32,1.71,2.58,2.58,3.2c1.71,1.2,5.53,2.92,8.39,2.29c1.14-0.25,2-0.86,2.54-1.81c0.12-0.2,0.38-0.27,0.59-0.16
				c0.21,0.11,0.29,0.36,0.17,0.57C34.81,68.01,34.28,68.55,33.64,68.94z"/>
		</g>
	</g>
	<g>
		<g>
			<path class="st2" d="M86.52,82H20.75c-0.88,0-1.6-0.72-1.6-1.6V37.35c0-0.88,0.72-1.6,1.6-1.6h65.77c0.88,0,1.6,0.72,1.6,1.6
				V80.4C88.12,81.28,87.4,82,86.52,82z"/>
			<rect x="22.32" y="38.82" class="st0" width="59.46" height="39.64"/>
			<path class="st0" d="M85.97,58.87c0,0.69-0.56,1.25-1.25,1.25s-1.25-0.56-1.25-1.25c0-0.69,0.56-1.25,1.25-1.25
				S85.97,58.19,85.97,58.87z"/>
		</g>
		<g>
			<g>
				<path class="st0" d="M68.43,71.06H35.69c-0.9,0-1.64-0.73-1.64-1.64V48.33c0-0.9,0.73-1.64,1.64-1.64h32.74
					c0.9,0,1.64,0.73,1.64,1.64v21.09C70.07,70.32,69.34,71.06,68.43,71.06z"/>
				<rect x="35.69" y="48.63" class="st3" width="32.74" height="20.48"/>
			</g>
			<polygon class="st1" points="45.98,52.42 45.98,65.89 59.1,59.15 			"/>
		</g>
	</g>
	<g>
		<g>
			<path class="st2" d="M52.58,35.5c0,0-8.32-0.05-11.24-1.99c-2.92-1.95-3.43-9.69,0.81-12.86c4.24-3.17,5.12-4.14,5.31-6.23
				c0.19-2.09,0.14-6.82,5.64-6.84c5.39-0.02,4.93,4.4,5.34,7.21c0.29,1.96,2.98,4.85,5.33,6.65C66.79,23.74,70.18,37.44,52.58,35.5
				z"/>
			<path class="st1" d="M51.62,13.02l1.81,0.06l1.81,0.06c0,0,0.37,4.95,1.29,5.56c0,0,0.98,5.86-3.46,5.72
				c-5.37-0.17-3.09-5.93-3.09-5.93C50.94,17.93,51.62,13.02,51.62,13.02z"/>
			<path class="st1" d="M45.57,35.72h14.6l1.23-4.73c0.19-4.8,0.26-9.69,0.26-9.69c-2.09-1.69-5.44-2.9-5.44-2.9
				c-1.76,1.33-4.44,1.45-6.12,0c0,0-3.32,1.36-5.5,2.9c0,0-0.44,2.03-0.22,5.23C44.59,29.61,45,32.69,45.57,35.72z"/>
			<path class="st1" d="M66.85,35.72c-1.12-5.62-2.15-9.19-3.07-11.3c-1.2-2.76-2.12-3.12-2.12-3.12c-1.07-0.1-1.87,8.85-3.7,14.42
				H66.85z"/>
			<path class="st4" d="M60.11,27.6c-0.29,0.79-0.8,1.43-1.3,2.14c-0.45,0.64-1.69,4.2-6.55,3.86c-2.01-0.14-3.87-2.12-4.69-4.14
				c-0.34-0.83-0.5-1.63-0.68-2.5c-0.13-0.63-0.17-1.44-0.49-1.99c-0.61,0.15-0.67,1.06-0.89,1.59c-0.13,0.32-1.01,1.54-1.08,0.63
				c0.22,2.87,0.6,5.72,1.14,8.53h15.69C60.96,32.43,60.09,28.6,60.11,27.6z"/>
			<path class="st1" d="M57.45,13.9c-0.52-0.56-1.09,0.34-1.09,0.34s0.22-1,0.27-2.13c-1.2-0.66-2.41-1.44-3.55-1.79V10.3
				c0,0-0.01,0-0.01,0c0,0-0.01,0-0.01,0v0.01c-1.14,0.35-2.35,1.12-3.55,1.79c0.05,1.13,0.27,2.13,0.27,2.13s-0.57-0.9-1.09-0.34
				c-0.52,0.56,0.76,2.06,1.06,2.24c0,0,1.06,2.58,2.39,3.43c0.35,0.22,1.4,0.28,1.92-0.05c1.33-0.86,2.33-3.38,2.33-3.38
				C56.69,15.95,57.97,14.46,57.45,13.9z"/>
			<g>
				<path class="st2" d="M56.62,11.18c0,0-1.82,3.22-6.34,2.92c0,0,0.22,0.38-0.05,1.07c0,0-0.32-1.27-1.02-0.87
					c-0.37,0.21-0.37,0.73,0.01,1.29c0.17,0.25-1.11-0.21-1.11-0.21s-0.53-4.91,2.72-6.02C54.09,8.24,56.62,11.18,56.62,11.18z"/>
				<path class="st2" d="M55.12,9.49c-0.04,0.24-0.07,0.47-0.07,0.7c0.01,0.5-0.71,0.86-0.73,1.35c0.1,0.11,0.2,0.23,0.3,0.35
					c0.61,0.76,0.87,1.2,1.09,2.14c0.06,0.26-0.09,0.45,0.32,1.17c0,0,0.31-1.28,1.09-1.09c0.15,0.04,0.46,0.27,0.19,0.9
					c-0.1,0.23,0.81-0.95,0.81-0.95S58.08,9.39,55.12,9.49z"/>
			</g>
		</g>
		<path class="st1" d="M48.8,57.33c0.17,0.39,1.07,1,0.75,1.53c-0.16,0.27-0.97-0.3-1.15-0.53c-0.25-0.33-2-3.04-2.27-3.82
			c-0.21-0.61-0.42-1.21-0.66-1.77c0.63-0.38,1.22-0.86,1.75-1.4c0.89,0.41,1.84,0.98,2.72,1.37c0.47,0.21,0.99,0.35,1.47,0.53
			c0.3,0.11,0.95,0.28,0.97,0.68c0.03,0.44-0.62,0.31-0.87,0.26c-0.37-0.07-1.05-0.43-1.31,0c-0.38,0.61,0.77,1.33,1.16,1.75
			c0.36,0.39,1.67,1.59,0.71,1.68c-0.2,0.02-1.57-1.15-1.78-1.31c0.04,0.06,0.92,0.9,0.96,0.96c0.23,0.3,0.88,0.94,0.69,1.25
			c-0.42,0.67-1.86-1.1-2.08-1.33c0,0,0.55,0.7,0.55,0.7c0.47,0.53,0.76,0.98,0.37,1.14C50.27,59.22,49.24,57.77,48.8,57.33z"/>
		<path class="st1" d="M48.61,51.91l-2.98,1.99c0,0-9.4-12.17-8.38-16.77c1.21-5.44,4.36-11.52,6.1-14.35
			c0.67-1.09,1.25-1.49,1.25-1.49c1.79,1.72,2.82,4.13,2.59,6.29c-0.1,0.97-0.57,1.59-1.09,2.58c-1.59,3.01-3.53,8.23-3.46,8.76
			C42.74,39.77,48.61,51.91,48.61,51.91z"/>
	</g>
</g>
</svg>
