<?xml version="1.0" encoding="utf-8"?>
<!-- Generator: Adobe Illustrator 24.1.3, SVG Export Plug-In . SVG Version: 6.00 Build 0)  -->
<svg version="1.1" xmlns="http://www.w3.org/2000/svg" xmlns:xlink="http://www.w3.org/1999/xlink" x="0px" y="0px"
	 viewBox="0 0 2839.4 2912.3" style="enable-background:new 0 0 2839.4 2912.3;" xml:space="preserve">
<style type="text/css">
	.st0{fill:#51C4D3;}
	.st1{fill:#132C33;}
	.st2{opacity:0.3;fill:#132C33;}
	.st3{fill:#126E82;}
	.st4{opacity:0.3;fill:url(#SVGID_1_);}
	.st5{fill:#D8DEE8;}
	.st6{clip-path:url(#SVGID_3_);fill:#CF9508;}
	.st7{opacity:0.3;clip-path:url(#SVGID_3_);fill:#CF9508;}
	.st8{fill:#CF9508;}
	.st9{fill:#FFFFFF;}
	.st10{opacity:0.3;}
</style>
<g id="Background">
</g>
<g id="Illustration">
	<g>
		<path class="st0" d="M1093.1,499.8c-129.5,15.1-173.2-231.1-393.5-286.5c-149-37.5-279.3,37.4-304.7,52.7
			c-104.2,62.9-197.1,182.7-205.3,317.7c-12.4,203.6,174.9,323.2,118.1,421c-43.9,75.7-174.3,35.9-210,117
			c-29.4,66.9,32,155.9,69.2,209.8C268.7,1478.9,355.4,1466.9,387,1544c61.7,150.6-232.9,284.8-301.6,580.5
			c-52.6,226.2,33.7,517.5,240.2,672.2c247.3,185.3,593.6,119.5,793.1,0c216.3-129.5,182.1-275.4,356.2-321.7
			c210-55.8,315.1,141.7,708.8,163.1c128.6,7,266.4,12.6,339.9-75.5c103.5-124.1,12-352.8-2.5-389.1
			c-109.3-273.3-359.6-362.6-323.4-465.1c22.7-64.4,140.3-82.2,156.3-84.6c118.7-18,175.2,56.6,260.7,25.2
			c50.2-18.4,103.3-70.7,111.6-128.3c23.9-166.6-345.3-259.6-338.8-436.5c4-109.2,146.4-118,272.2-289
			c124.1-168.7,211.2-466.8,83.1-642c-141-192.9-510.8-193.4-737.6-58.4c-269.9,160.6-312.2,498.4-440.7,481.4
			c-111.7-14.8-132-276.8-241.7-279.5C1228.4,294.4,1205.5,486.7,1093.1,499.8z"/>
		<path class="st0" d="M2536.9,1749.9c-38.4-12.8-195.1-65.1-220.1-22.9c-28,47.4,106.2,218.9,282.4,258c89.5,19.9,209.4,9.9,222-33
			C2837.4,1897.1,2674.6,1795.9,2536.9,1749.9z"/>
		<path class="st0" d="M1172.6,294.3c-4.9,48.3-47.4,103.7-103.5,103.5c-58.4-0.2-94.3-60.5-103.5-103.5
			c-12.1-56.2,11.9-126.2,56.6-141.2C1082.4,132.9,1180.9,212.3,1172.6,294.3z"/>
		<path class="st0" d="M1605.8,153.2c-54.6,17.1-137.7,43.1-154.8,113.3c-16.1,65.8,30.8,149.8,86.9,162.4
			c109.5,24.7,272.3-218.9,230.4-279.5C1741.4,110.7,1630.4,145.4,1605.8,153.2z"/>
		<g>
			<g>
				<g>
					<path class="st1" d="M1052.6,2758.7c-68.9,11-145.6-11-193.7-59.7l-647.2-654.4c-56.1-56.8-52.5-144.3,9-197.2
						c63.2-54.3,194.4-64.4,255-5.7l700.9,678.5c69.6,67.4,58.1,161.3-24.3,207.8C1132.3,2739.3,1075.6,2755,1052.6,2758.7z"/>
					<path class="st2" d="M220.7,1847.4c63.2-54.3,194.4-64.4,255-5.7l638.2,617.8c-67.6,2.3-139.7,21.7-228.2-11.8
						c-144.2-54.7-132.5-177-256.3-247.3c-55.7-31.6-144-55.2-288.6-25.3l-129.1-130.5C155.6,1987.8,159.2,1900.4,220.7,1847.4z"/>
					
						<ellipse transform="matrix(0.9408 -0.3389 0.3389 0.9408 -661.1435 188.2697)" class="st1" cx="208.5" cy="1987" rx="207.5" ry="214.9"/>
					<path class="st3" d="M126.2,1793.9c3.1,150.4,50.3,281.4,143.7,399l1304.4,92L1082.4,873.6L126.2,1793.9z"/>
					
						<linearGradient id="SVGID_1_" gradientUnits="userSpaceOnUse" x1="-3328.9058" y1="658.6373" x2="-2944.0029" y2="2787.6233" gradientTransform="matrix(0.9408 -0.3389 0.3389 0.9408 3224.5122 -553.2844)">
						<stop  offset="0" style="stop-color:#AA80F9"/>
						<stop  offset="0.9964" style="stop-color:#6165D7"/>
					</linearGradient>
					<path class="st4" d="M1063.9,1985.8c-133.6-10.6-233.3-178.7-360.8-138.9c-95.7,29.8-85.8,144-178.1,163.2
						c-91.1,18.9-145.5-87.4-251.7-91.3c-46.9-1.7-87.4,17.7-122,47.4c23.1,80.7,62.3,155.9,118.7,226.8l1304.4,92l-254.9-449.6
						C1214.8,1958,1130.8,1991.1,1063.9,1985.8z"/>
					
						<ellipse transform="matrix(0.9408 -0.3389 0.3389 0.9408 -455.1788 545.9449)" class="st5" cx="1335.5" cy="1576.2" rx="562.7" ry="746.8"/>
					<path class="st1" d="M1580,2254.9c62.1-22.4,117.1-60.9,163.5-114.6c47.3-54.6,83.5-122,107.8-200.4
						c50.9-164.7,42.4-356.9-23.9-541c-66.4-184.2-182.4-337.6-326.6-432c-68.6-44.9-139.6-73.7-210.8-85.6
						c-70-11.7-136.9-6.3-199,16.1c-62.1,22.4-117.1,60.9-163.5,114.6c-47.3,54.6-83.5,122-107.8,200.4
						c-21.3,68.9-32.2,142.5-32.8,218.4c-0.9,105.6,133.7,167,172.3,274.1c41.1,114-14.5,264.6,59.5,348.3
						c45.6,51.6,96.5,96.1,151.5,132.1c68.6,44.9,139.6,73.7,210.8,85.6C1451,2282.7,1517.9,2277.3,1580,2254.9z"/>
					<g>
						<defs>
							<path id="SVGID_2_" d="M1580,2254.9c62.1-22.4,117.1-60.9,163.5-114.6c47.3-54.6,83.5-122,107.8-200.4
								c50.9-164.7,42.4-356.9-23.9-541c-66.4-184.2-182.4-337.6-326.6-432c-68.6-44.9-139.6-73.7-210.8-85.6
								c-70-11.7-136.9-6.3-199,16.1c-62.1,22.4-117.1,60.9-163.5,114.6c-47.3,54.6-83.5,122-107.8,200.4
								c-50.9,164.7-42.4,356.9,23.9,541c66.4,184.2,182.4,337.6,326.6,432c68.6,44.9,139.6,73.7,210.8,85.6
								C1451,2282.7,1517.9,2277.3,1580,2254.9z"/>
						</defs>
						<clipPath id="SVGID_3_">
							<use xlink:href="#SVGID_2_"  style="overflow:visible;"/>
						</clipPath>
						<path class="st6" d="M1382.4,1569.7c64.1,178-36.9,374.1-223,437c-183.2,62-380.2-28.7-442.5-201.8
							c-62.3-173,32.2-366.8,213.6-433.7C1114.7,1303.3,1318.2,1391.7,1382.4,1569.7z"/>
						<path class="st7" d="M1352.1,1577.3c47.6,132.2,11.4,263.8-79.6,293.6c-89.6,29.3-198.7-51.4-245-179.9
							c-46.3-128.5-13.3-259,75-292C1192.2,1365.5,1304.5,1445.1,1352.1,1577.3z"/>
					</g>
				</g>
			</g>
			<g>
				<path class="st1" d="M1513.4,1410.9c0,0,88.2-70.3,132.8-169.3c-95.6-86.2-158.9-198.5-173.7-324.4
					c-35.4-301.8,219.4-588.5,584.6-642.6c373.5-55.3,721.6,151.2,775.2,466.6c0,0.1,0,0.2,0.1,0.3c0.7,3.9,1.3,7.9,1.9,11.8
					c0.1,0.6,0.2,1.2,0.2,1.7c0.5,3.9,1.1,7.8,1.5,11.7c2.1,18,3.2,36,3.4,53.7c0.1,7.6,0,15.2-0.3,22.8
					c-0.6,15.1-1.8,30.1-3.8,44.9c-1,7.4-2.1,14.8-3.4,22.2c-0.9,4.9-1.8,9.8-2.8,14.6c-23.8,114.2-87.4,218.3-178.6,301.1
					c-1.9,1.8-3.9,3.5-5.9,5.3c-31.5,27.9-66.1,53.3-103.4,75.7c-2.3,1.4-4.7,2.8-7,4.2c-16.5,9.7-33.5,18.8-50.9,27.2
					c-7.5,3.6-15.1,7.2-22.7,10.6c-5.1,2.3-10.2,4.5-15.4,6.7c-7.8,3.3-15.6,6.4-23.5,9.4c-5.3,2-10.6,4-15.9,5.9
					c-66.9,23.9-139,39.4-214.5,44.9c-5.6,0.4-11.2,0.8-16.7,1c-1.6,0.1-3.2,0.1-4.8,0.2c-4,0.2-7.9,0.4-11.9,0.5
					c-1.8,0.1-3.5,0.1-5.3,0.1c-3.8,0.1-7.7,0.2-11.5,0.2c-1.6,0-3.3,0-4.9,0c-4,0-8,0-11.9,0c-1.4,0-2.8,0-4.2-0.1
					c-4.3-0.1-8.5-0.1-12.7-0.3c-1.1,0-2.2-0.1-3.2-0.1c-4.7-0.2-9.3-0.3-13.9-0.6c-0.6,0-1.3-0.1-1.9-0.1c-5.2-0.3-10.4-0.6-15.6-1
					c0,0-0.1,0-0.1,0c-43.8-3.2-86.3-9.8-127.1-19.7c0-0.1,0.1-0.1,0.1-0.2c-24.1-5.9-47.7-12.9-70.6-20.9
					C1827.3,1422.5,1702.3,1513.7,1513.4,1410.9z"/>
				<g>
					<path class="st8" d="M1423.5,920.9c35.4,301.8,350.1,525.7,718.5,498.8c386.9-28.2,683.6-319.4,644.9-649.2
						c-38.7-329.8-395.3-549-778.8-492.2C1642.8,332.4,1388.1,619.1,1423.5,920.9z"/>
					<path class="st9" d="M1423.5,920.9c35.4,301.8,350.1,525.7,718.5,498.8c386.9-28.2,683.6-319.4,644.9-649.2
						c-38.7-329.8-395.3-549-778.8-492.2C1642.8,332.4,1388.1,619.1,1423.5,920.9z"/>
					<path class="st9" d="M1847.1,1354.7c0,0-137.6,193.2-382.7,59.8c0,0,167.9-133.7,157.5-292.1L1847.1,1354.7z"/>
					<g>
						<path class="st8" d="M2021.8,1145.9c-0.9-25.8,7.3-47.3,24.6-64.5c17.3-17.2,39.3-26.2,66-27.1c26.7-0.9,49.3,6.6,67.7,22.5
							c18.4,15.9,28.1,36.8,29,62.6c0.9,25.8-7.3,47.3-24.6,64.5c-17.3,17.2-39.3,26.2-66,27.1c-26.7,0.9-49.3-6.6-67.7-22.5
							C2032.3,1192.6,2022.7,1171.7,2021.8,1145.9z M2179.5,978.2l-136.7,4.7l-39.4-519.6l179.8-6.2L2179.5,978.2z"/>
					</g>
					<g class="st10">
						<path class="st8" d="M1960.9,1287.9c61.4-174.3-38.7-322.5,58-442.4c99.7-123.6,260.8-36.9,413.6-147.4
							c59.9-43.3,123.8-120.8,160.9-269.7c106,87.6,177.4,205.9,193.4,342.2c38.7,329.8-258.1,621-644.9,649.2
							c-86,6.3-168.9-1.1-245.8-19.7C1928.4,1361.9,1948.4,1323.5,1960.9,1287.9z"/>
					</g>
				</g>
			</g>
		</g>
		<path class="st9" d="M1009.9,840.9c-37.1-111.3-91.2-239-150.4-236.3c-44.2,2-54.8,74.9-102.1,80.6
			c-103.1,12.4-187.9-318.5-257.8-306.2c-40.1,7.1-65.2,125.1-43,225.6c41.1,186.4,246.9,321.4,327.7,279.3
			c60.1-31.3,35.4-152.6,85.9-166.5C909.4,706.6,962.4,768.9,1009.9,840.9z"/>
		<path class="st9" d="M1197.9,776.4c20.7-114.9,10.3-148.8-5.4-155.8c-22.2-9.9-47.1,38-91.3,37.6
			c-75.6-0.7-130.2-141.7-134.3-139.7c-16.1,8.1,47.3,239.9,107.4,236.3c21.5-1.3,30.9-32.2,59.1-32.2
			C1159.6,722.6,1181.7,749.3,1197.9,776.4z"/>
		<path class="st9" d="M1917.7,1904.4c1.5-22.5,232.8-46.8,252.5,10.7c9.5,27.8-40,47.1-43,91.3c-7.6,111.6,293.6,192.2,284.7,225.6
			c-10.2,38.4-422.8-6.7-435.1-112.8c-6.1-52.8,90.2-93.1,75.2-145C2036.1,1919.5,1916.6,1920.6,1917.7,1904.4z"/>
		<path class="st9" d="M1976.7,1694.9c6.3-31.3,126.1-57.3,155.8-10.7c14.9,23.4,6.7,64.7-16.1,80.6
			C2071.1,1796.3,1970.5,1726.3,1976.7,1694.9z"/>
	</g>
</g>
</svg>
