<?xml version="1.0" encoding="utf-8"?>
<!-- Generator: Adobe Illustrator 24.1.3, SVG Export Plug-In . SVG Version: 6.00 Build 0)  -->
<svg version="1.1" id="Layer_1" xmlns="http://www.w3.org/2000/svg" x="0px"
     y="0px"
     viewBox="0 0 345.64 352.44" style="enable-background:new 0 0 345.64 352.44;" xml:space="preserve">
<style type="text/css">
	.st0{opacity:0.5;fill:#D8E3E7;}
	.st1{fill:#D8E3E7;}
	.st2{fill:#F1E0B7;}
	.st3{fill:url(#SVGID_1_);}
	.st4{fill:#F4E7C6;}
	.st5{fill:url(#SVGID_2_);}
	.st6{fill:#132C33;}
	.st7{fill:url(#SVGID_3_);}
	.st8{fill:url(#SVGID_4_);}
	.st9{fill:#FFFFFF;}
	.st10{fill:url(#SVGID_5_);}
	.st11{opacity:0.5;fill:url(#SVGID_6_);}
	.st12{opacity:0.5;fill:url(#SVGID_7_);}
	.st13{opacity:0.5;fill:url(#SVGID_8_);}
	.st14{fill:#CDE1E5;}
	.st15{fill:#F6F9FA;}
	.st16{fill:url(#SVGID_9_);}
	.st17{fill:url(#SVGID_10_);}
	.st18{fill:url(#SVGID_11_);}
	.st19{fill:url(#SVGID_12_);}
	.st20{fill:url(#SVGID_13_);}
	.st21{fill:url(#SVGID_14_);}
	.st22{fill:url(#SVGID_15_);}
	.st23{fill:url(#SVGID_16_);}
	.st24{fill:url(#SVGID_17_);}
	.st25{fill:url(#SVGID_18_);}
	.st26{fill:url(#SVGID_19_);}
	.st27{fill:url(#SVGID_20_);}
	.st28{fill:#E1BD66;}
	.st29{fill:#E5EFF1;}
	.st30{fill:url(#SVGID_21_);}
	.st31{fill:url(#SVGID_22_);}
	.st32{fill:url(#SVGID_23_);}
	.st33{fill:#825F0C;}
	.st34{fill:#51C4D3;}
	.st35{fill:url(#SVGID_24_);}
	.st36{fill:#CF9508;}
	.st37{fill:#126E82;}
	.st38{fill:url(#SVGID_25_);}
	.st39{fill:url(#SVGID_26_);}
	.st40{fill:url(#SVGID_27_);}
	.st41{fill:url(#SVGID_28_);}
	.st42{fill:url(#SVGID_29_);}
	.st43{fill:#EEDAA9;}
	.st44{fill:url(#SVGID_30_);}
	.st45{fill:url(#SVGID_31_);}
	.st46{fill:url(#SVGID_32_);}
	.st47{fill:url(#SVGID_33_);}
	.st48{fill:url(#SVGID_34_);}
	.st49{fill:url(#SVGID_35_);}
	.st50{fill:url(#SVGID_36_);}
	.st51{fill:url(#SVGID_37_);}
	.st52{fill:#E2BE68;}
	.st53{fill:#D4A021;}
	.st54{fill:url(#SVGID_38_);}
	.st55{fill:url(#SVGID_39_);}
	.st56{fill:url(#SVGID_40_);}
	.st57{fill:url(#SVGID_41_);}
	.st58{fill:url(#SVGID_42_);}
	.st59{fill:url(#SVGID_43_);}
	.st60{fill:url(#SVGID_44_);}
	.st61{fill:url(#SVGID_45_);}
	.st62{fill:url(#SVGID_46_);}
	.st63{fill:url(#SVGID_47_);}
	.st64{fill:url(#SVGID_48_);}
	.st65{fill:#B1CFD6;}
	.st66{fill:url(#SVGID_49_);}
	.st67{fill:#9E8241;}
	.st68{fill:url(#SVGID_50_);}
	.st69{fill:url(#SVGID_51_);}
	.st70{fill:url(#SVGID_52_);}
	.st71{fill:url(#SVGID_53_);}
	.st72{fill:url(#SVGID_54_);}
	.st73{fill:url(#SVGID_55_);}
	.st74{fill:url(#SVGID_56_);}
	.st75{fill:url(#SVGID_57_);}
	.st76{fill:url(#SVGID_58_);}
	.st77{fill:url(#SVGID_59_);}
	.st78{fill:url(#SVGID_60_);}
	.st79{fill:url(#SVGID_61_);}
	.st80{fill:url(#SVGID_62_);}
	.st81{fill:url(#SVGID_63_);}
	.st82{fill:url(#SVGID_64_);}
	.st83{fill:url(#SVGID_65_);}
	.st84{fill:url(#SVGID_66_);}
	.st85{fill:url(#SVGID_67_);}
	.st86{fill:url(#SVGID_68_);}
	.st87{fill:url(#SVGID_69_);}
	.st88{fill:url(#SVGID_70_);}
	.st89{fill:url(#SVGID_71_);}
	.st90{fill:url(#SVGID_72_);}
	.st91{fill:url(#SVGID_73_);}
	.st92{fill:url(#SVGID_74_);}
	.st93{fill:url(#SVGID_75_);}
	.st94{fill:url(#SVGID_76_);}
	.st95{fill:url(#SVGID_77_);}
	.st96{fill:url(#SVGID_78_);}
	.st97{fill:url(#SVGID_79_);}
	.st98{fill:url(#SVGID_80_);}
	.st99{fill:url(#SVGID_81_);}
	.st100{fill:url(#SVGID_82_);}
</style>
    <g>
	<g>
		<path class="st0" d="M263.62,326.1c-3.44-0.89-8.46,0.92-11.85,2.65c-3.39,1.73-8.65,2.96-12.69,6.53
			c-3.41,3.01-6.13,6.52-1.8,10.07c4.33,3.55,10.35,11.52,21.58,3.92c11.23-7.59,18.05-10.81,16.47-15.05
			C273.74,329.98,269.75,327.69,263.62,326.1z"/>
        <path class="st0" d="M310.21,313.43c-3.16-0.82-7.77,0.85-10.88,2.43c-3.11,1.59-7.94,2.72-11.65,6
			c-3.13,2.76-5.63,5.99-1.66,9.24c3.97,3.26,9.5,10.57,19.81,3.6c10.31-6.97,16.57-9.92,15.12-13.82
			C319.49,316.99,315.83,314.9,310.21,313.43z"/>
        <path class="st0" d="M259.9,219.15c-2.79,1.65-8.13,4.95-1.59,9.91c7.48,5.67,16.59,12.19,23.78,8.71s9.44-7.37,3.1-11.01
			c-6.34-3.64-10.52-5.6-13.15-7.04C269.42,218.27,264.2,216.61,259.9,219.15z"/>
        <path class="st0" d="M317.58,246.62c-2.79,1.65-9.68,6.07-3.33,9.26c8.38,4.21,19.39,11.79,26.3,7.76
			c3.25-1.89,8.37-9.37,2.21-13.31c-5.81-3.71-12.13-2.36-14.76-3.8C325.36,245.09,321.88,244.09,317.58,246.62z"/>
        <path class="st0" d="M201.53,219.25c-2.68,2.99,0.42,5.33-2.55,7.65c-2.39,1.86-3.97,5.28,1.31,7.48
			c3.32,1.38,6.95,0.82,10.43,1.53c3.96,0.81,7.82,1.59,11.43,4.95c5.06,4.7,7.64,2.63,12.24,2.1c4.59-0.54,9.01,0.25,11.75-5.2
			c1.7-3.38-1.1-8.21-8.1-11.58C231.03,222.82,207.14,212.99,201.53,219.25z"/>
        <path class="st0" d="M120,295.63c0,0-17.3,7.64-22.07,12.91c-4.93,5.45,1.14,8.65,7.72,11.46s21.08,6.65,29.06,3.39
			c7.98-3.26,19.01-12.87,14.09-17.1c-4.92-4.22-10.83-7.09-10.83-7.09S127.8,292.09,120,295.63z"/>
        <path class="st0" d="M192.62,290.49c-4.69,1.63-10.2,6.09-15.39,9.7c-5.64,3.92,0.89,9.11,6.74,11.61
			c5.85,2.5,16.72,7.53,23.81,4.64c7.09-2.9,15.06-9.4,9.76-14.12C213.23,298.48,201.57,287.38,192.62,290.49z"/>
        <path class="st0" d="M161.45,253.84c-4.69,1.63-10.2,6.09-15.39,9.7c-5.64,3.92,0.89,9.11,6.74,11.61
			c5.85,2.5,16.72,7.53,23.81,4.64c7.09-2.9,15.06-9.4,9.76-14.12C182.07,261.83,170.41,250.73,161.45,253.84z"/>
        <polygon class="st0" points="151.49,221.34 54.38,277.23 47.56,273.28 144.66,217.39 		"/>
	</g>
        <g>
		<path class="st1" d="M268.52,140.02c-2.73,2.02-3.89,10.14-5.57,13.4c-0.4,0.77-0.82,1.48-1.2,2.17
			c-1.04,0.24-4.81,1.14-5.92,1.66c-1.3,0.6-1.76,2.32-1.36,3.8c0.4,1.48,4.29,2.4,6.5,1.41c0.84-0.38,1.65-1.11,2.17-2.01
			c1.6,0.22,3.36-0.15,4.74-0.87c0.62-0.32,6.47-22.15,6.47-22.15S271.25,138,268.52,140.02z"/>
            <g>
			<path class="st2" d="M275.05,175.57c0.53-1.42-8.72-3.36-8.72-3.36s-0.88,7.99-1.9,11.61c-1.19,4.23-2.1,8.34-0.84,14.21
				c0.56,2.6,1.26,12.47,1.07,15.94c-0.28,5.09-2.62,7.49-3.42,8.75c-0.79,1.26,2.23,2.45,4.15,0.61c1.92-1.83,2.12-2.19,3.2-2.77
				c1.08-0.57,0.72-1.95,0.64-4.82c-0.06-2.22,0.9-9.62,1.27-14.37c0.52-6.73-0.42-7.89,0.67-11.12
				C273.35,183.81,274.7,176.49,275.05,175.57z"/>
                <linearGradient id="SVGID_1_" gradientUnits="userSpaceOnUse" x1="258.8143" y1="221.3331" x2="270.2184"
                                y2="221.3331">
				<stop offset="0" style="stop-color:#D4A123"/>
                    <stop offset="1" style="stop-color:#D7A630"/>
			</linearGradient>
                <path class="st3" d="M270.12,217.22c0-0.01-0.01-0.02-0.01-0.04c-0.03-0.12-0.06-0.18-0.06-0.18l0,0
				c-0.25-0.68-0.81-1.26-0.81-1.26s-0.45,4.07-2.85,5.75c-2.67,1.88-3.87,2.16-5.14,1.22c0,0-0.64,0.95-2.12,2.59
				c-0.79,0.88-0.13,1.76,2.2,1.59c1.23-0.09,2.99-0.72,3.97-1.96c1.02-1.31,1.81-2.72,2.77-3.57c0.15-0.13,0.28-0.25,0.41-0.37
				c0,0,0,0,0,0c0.07,1.08,0.04,1.77,0.09,2.55c0.22,0.36,0.57,0.27,0.84,0c0.16-0.86-0.05-1.65,0.44-3.24
				C270.36,218.63,270.23,217.62,270.12,217.22z"/>
		</g>
            <path class="st4" d="M284.47,184.62c0.53-1.42-8.32-0.54-8.32-0.54s0,7.59,0,11.37c0,4.39,0.58,5.94,1.84,11.81
			c0.56,2.6,2.57,12.36,2.38,15.83c-0.28,5.09-2.62,7.49-3.42,8.75c-0.79,1.26,2.23,2.44,4.15,0.61c1.92-1.83,2.12-2.19,3.2-2.77
			c1.08-0.57,0.72-1.95,0.64-4.82c-0.06-2.22,0.12-10.23,0.49-14.98c0.52-6.73-1.45-7.34-1.35-10.75
			C284.29,192.74,284.13,185.55,284.47,184.62z"/>
            <g>
			<linearGradient id="SVGID_2_" gradientUnits="userSpaceOnUse" x1="274.4985" y1="230.3468" x2="285.9027"
                            y2="230.3468">
				<stop offset="0" style="stop-color:#D4A123"/>
                <stop offset="1" style="stop-color:#D7A630"/>
			</linearGradient>
                <path class="st5" d="M285.81,226.23c0-0.01-0.01-0.02-0.01-0.04c-0.03-0.12-0.06-0.18-0.06-0.18l0,0
				c-0.25-0.68-0.81-1.26-0.81-1.26s-0.45,4.07-2.85,5.75c-2.67,1.88-3.87,2.16-5.14,1.22c0,0-0.64,0.95-2.12,2.59
				c-0.79,0.88-0.13,1.76,2.2,1.59c1.23-0.09,2.99-0.72,3.97-1.96c1.02-1.31,1.81-2.72,2.77-3.57c0.15-0.13,0.28-0.25,0.41-0.37
				c0,0,0,0,0,0c0.07,1.08,0.04,1.77,0.09,2.55c0.22,0.36,0.57,0.27,0.84,0c0.16-0.86-0.05-1.65,0.44-3.24
				C286.04,227.64,285.91,226.64,285.81,226.23z"/>
		</g>
            <path class="st6" d="M280.01,131.69c0,0,2.16,2.42,2.88,8.03c0.72,5.61,0.51,7.16,0.51,7.16s-4.81,0.6-5.89-1.86
			C276.42,142.55,280.01,131.69,280.01,131.69z"/>
            <linearGradient id="SVGID_3_" gradientUnits="userSpaceOnUse" x1="260.9615" y1="179.4305" x2="288.7009"
                            y2="179.4305">
			<stop offset="0" style="stop-color:#D4A123"/>
                <stop offset="1" style="stop-color:#D7A630"/>
		</linearGradient>
            <path class="st7" d="M266.44,165.43c-0.96,1.81-1.92,1.93-2.39,7.83c-0.46,5.8-3.08,16.12-3.08,16.12s1.41,3.87,4.95,4.32
			c0,2.03,1.63,3.45,4.03,4c1.51,0.34,4.01-0.07,5.73-1c3.93,1.55,6.96,0.7,8.89-0.79c3.17,0.09,4.14-2.64,4.14-2.64
			s-2.31-7.82-2.31-12.98c0-5.43-0.11-8.17-2.24-13.5C280.81,158.42,269.16,160.32,266.44,165.43z"/>
            <path class="st6" d="M285.53,146.02c-0.45-3.13-7.13-6.07-7.13-6.07l-3.78-1.9c0,0-0.43-0.11-1.06-0.22
			c-0.94,1.04-2.8,3.82-3.8,4.97c-0.97,1.11-3.83,4.95-2.95,8.59c0.74,3.1,0.67,6.26,0.59,7.79c-0.09,1.76-1.82,7.65-1.82,7.65
			s2.15,4.76,8.94,5.38c5.91,0.54,10.45-3.23,10.45-3.23s-3.03-8.36-2.6-11.56C282.89,153.45,286.41,152.13,285.53,146.02z"/>
            <linearGradient id="SVGID_4_" gradientUnits="userSpaceOnUse" x1="271.4619" y1="146.2032" x2="279.7834"
                            y2="146.2032">
			<stop offset="0" style="stop-color:#126E82"/>
                <stop offset="1" style="stop-color:#E5C67A"/>
		</linearGradient>
            <path class="st8" d="M273.1,141.58c0,0-1.2,2.47-1.53,4.57c-0.33,2.1,0.2,4.68,0.2,4.68s4.34-1.71,6.37-5.28
			c2.02-3.57,1.62-3.33,1.62-3.33L273.1,141.58z"/>
            <path class="st2" d="M274.29,138.47c0,0-0.25,3.35-0.81,5.02c0,0.32,0.19,0.36,1.03,0.51c0.83,0.15,2.27,0.69,2.79,0.28
			c2.35-1.88,2.7-2.86,2.7-2.86s-0.48-2.19-0.54-2.98c-0.09-1.32,0.01-5.63,0.01-5.63L274.29,138.47z"/>
            <path class="st9" d="M273.55,140.33c0,0-0.73,0.52-1.27,3.08c-0.36,1.68,0.33,2.74,0.33,2.74l1.91-2.15c0,0-0.76-1.44-0.28-3.66
			C274.43,139.47,273.55,140.33,273.55,140.33z"/>
            <path class="st4" d="M278.5,127.34c-1.96-1.66-6.76-2.41-8.79,2.49c-2.12,5.14,2.28,11.92,4.86,10.94
			c1.45-0.55,4.38-1.89,5.36-4.6C281.04,133.12,280.03,128.63,278.5,127.34z"/>
            <path class="st9" d="M275.23,147.42c-0.49-1.27-0.72-3.42-0.72-3.42s3.5-2.87,5.07-4.68c0.69,0.57,1.25,1.56,1.25,2.34
			C280.1,143.5,277,146.77,275.23,147.42z"/>
            <path class="st6" d="M273.45,131.07c0,0,3.33,3.85,6.86,4.71c1.67-3.76,1.99-4.79,1.2-7.17c-0.92-2.76-3.77-2.69-3.77-2.69
			s-2.88-3.22-6.96-0.29c-5.92,4.25-1.39,9.28-1.39,9.28S269.61,132.44,273.45,131.07z"/>
            <path class="st4" d="M277.33,135.25c0,0,0.38-0.55,0.82-0.89c0.37-0.28,1.07-0.37,1.27,0.7c0.27,1.46-0.89,2-0.89,2L277.33,135.25
			z"/>
            <linearGradient id="SVGID_5_" gradientUnits="userSpaceOnUse" x1="268.0965" y1="154.843" x2="278.4"
                            y2="154.843">
			<stop offset="0" style="stop-color:#126E82"/>
                <stop offset="1" style="stop-color:#E5C67A"/>
		</linearGradient>
            <path class="st10" d="M268.1,152.75c0,0,2.14,3.45,5.25,4.09c2.19,0.46,5.05-0.79,5.05-0.79s-3.7,0.01-5.05-0.52
			C271.99,155,268.1,152.75,268.1,152.75z"/>
            <linearGradient id="SVGID_6_" gradientUnits="userSpaceOnUse" x1="266.1299" y1="193.7183" x2="266.1299"
                            y2="174.1521">
			<stop offset="0" style="stop-color:#126E82"/>
                <stop offset="1" style="stop-color:#CF9508"/>
		</linearGradient>
            <path class="st11" d="M267.74,174.15c0,0-1.34,3.43-2.17,7.92c-0.83,4.49-1.06,11.24-1.06,11.24s0.76,0.53,1.39,0.38
			c0.22-0.92,0.36-6.32,0.75-10.17C267.06,179.68,267.74,174.15,267.74,174.15z"/>
            <linearGradient id="SVGID_7_" gradientUnits="userSpaceOnUse" x1="275.4734" y1="195.675" x2="275.4734"
                            y2="177.7398">
			<stop offset="0" style="stop-color:#126E82"/>
                <stop offset="1" style="stop-color:#CF9508"/>
		</linearGradient>
            <path class="st12" d="M275.62,177.74c-0.17,0.23-0.72,6.44-0.85,9.88c-0.12,3.43,0.85,8.06,0.85,8.06s0.71-4.99,0.53-8.97
			C275.98,182.73,275.62,177.74,275.62,177.74z"/>
            <linearGradient id="SVGID_8_" gradientUnits="userSpaceOnUse" x1="284.3736" y1="195.8953" x2="284.3736"
                            y2="172.2067">
			<stop offset="0" style="stop-color:#126E82"/>
                <stop offset="1" style="stop-color:#CF9508"/>
		</linearGradient>
            <path class="st13" d="M282.84,172.21c0,0,0.48,4.1,0.58,8.67c0.09,4.49,0.35,9.25,0.48,10.96c0.13,1.72,0.66,4.05,0.66,4.05
			s0.6-0.01,1.34-0.22c-0.37-1.96-0.94-6.15-1.08-11.86C284.69,178.11,284.17,173.4,282.84,172.21z"/>
            <g>
			<polygon class="st14" points="270.41,159.15 270.07,160.53 270.61,164.18 270.91,162.56 			"/>
                <path class="st15" d="M253.89,154.15c0,0,3.9,1.98,5.18,2.92c1.29,0.94,1.61,2.15,1.61,2.15s0.89-1.01,3.26-0.96
				c2.37,0.05,6.47,0.89,6.47,0.89l-0.35,1.37l-10.67,1.1l-6.97-6.78L253.89,154.15z"/>
                <g>
				<linearGradient id="SVGID_9_" gradientUnits="userSpaceOnUse" x1="251.9864" y1="162.9832" x2="262.025"
                                y2="162.9832">
					<stop offset="0" style="stop-color:#A5C8D0"/>
                    <stop offset="0.5246" style="stop-color:#90BBC5"/>
                    <stop offset="1" style="stop-color:#81B2BD"/>
				</linearGradient>
                    <polygon class="st16"
                             points="251.99,154.24 259.9,160.44 262.03,171.73 254.11,165.52 				"/>
                    <linearGradient id="SVGID_10_" gradientUnits="userSpaceOnUse" x1="259.9011" y1="165.8747"
                                    x2="273.0327" y2="165.8747">
					<stop offset="0" style="stop-color:#A5C8D0"/>
                        <stop offset="0.5246" style="stop-color:#90BBC5"/>
                        <stop offset="1" style="stop-color:#81B2BD"/>
				</linearGradient>
                    <polygon class="st17"
                             points="259.9,160.44 262.03,171.73 273.03,171.3 270.91,160.02 				"/>
                    <linearGradient id="SVGID_11_" gradientUnits="userSpaceOnUse" x1="251.9864" y1="157.2134"
                                    x2="271.0738" y2="157.2134">
					<stop offset="0" style="stop-color:#ACCCD3"/>
                        <stop offset="0.3132" style="stop-color:#B1CFD5"/>
                        <stop offset="0.6672" style="stop-color:#BED7DD"/>
                        <stop offset="1" style="stop-color:#D2E3E7"/>
				</linearGradient>
                    <polygon class="st18"
                             points="260.33,160.19 252.41,153.98 251.99,154.24 259.9,160.44 270.91,160.02 271.07,159.76 				"/>
                    <linearGradient id="SVGID_12_" gradientUnits="userSpaceOnUse" x1="270.9089" y1="165.5346"
                                    x2="273.1976" y2="165.5346">
					<stop offset="0" style="stop-color:#8BB8C2"/>
                        <stop offset="0.5426" style="stop-color:#74AAB6"/>
                        <stop offset="0.9948" style="stop-color:#65A1AE"/>
				</linearGradient>
                    <polygon class="st19"
                             points="271.07,159.76 270.91,160.02 273.03,171.3 273.2,171.05 				"/>
			</g>
                <path class="st14" d="M255.09,155.35c0,0,1.81,1.16,2.74,1.87c0.92,0.7,2.07,1.94,2.07,1.94s-0.53-1.21-1.88-2.21
				C256.67,155.94,255.09,155.35,255.09,155.35z"/>
                <path class="st14" d="M260.96,159.4c0,0,1.35-0.76,3.13-0.59c1.78,0.16,4.11,0.59,4.11,0.59s-2.99-0.2-4.27-0.25
				C262.64,159.1,260.96,159.4,260.96,159.4z"/>
		</g>
            <path class="st4" d="M252.67,157.89c-0.8,0.39-0.69,3.16,0.93,4.24c1.36,0.91,2.34,0,1.32-1.93
			C253.9,158.27,252.67,157.89,252.67,157.89z"/>
            <path class="st4" d="M274.77,163.04c-0.81,0.03-2.31-0.8-3.18-0.55c0.03,0.18,0.24,1.3,0.24,1.3s-1.17,0.52-2.68,0.72
			c-1.51,0.2-2.04,1.03-1.71,2.17c0.31,1.08,4.73,2.29,7.62,0.51c2.9-1.78,3.64-2.16,3.64-2.16l-0.72-2.58
			C277.99,162.46,276.19,162.99,274.77,163.04z"/>
            <path class="st1" d="M283.83,143.37c-1.9,1.06-2.55,4.86-1.9,7.83c0.65,2.97,2.97,6.71,3.11,7.59c-2,0.7-2.69,0.53-5.57,2.27
			c-0.86,0.52-2.07,1.93-2.07,1.93l0.28,2.55c0,0,2.16,1.61,6.13,1.33c3.19-0.23,6.63-1.09,8.5-3.51c0.45-0.58,0.67-1.65,0.69-2.3
			c0.05-1.75-0.78-3.39-1.93-7.07C289.49,148.92,286.17,143.94,283.83,143.37z"/>
            <linearGradient id="SVGID_13_" gradientUnits="userSpaceOnUse" x1="262.9076" y1="156.085" x2="266.8671"
                            y2="156.085">
			<stop offset="0" style="stop-color:#ECD69F"/>
                <stop offset="0.157" style="stop-color:#EDD8A4"/>
                <stop offset="1" style="stop-color:#F2E1BA"/>
		</linearGradient>
            <path class="st20" d="M262.91,155.41c0,0,1.36-0.5,2.55,0.18c1.18,0.68,1.41,1.36,1.41,1.36s-1.22-0.68-2.09-0.91
			C263.92,155.79,262.91,155.41,262.91,155.41z"/>
            <linearGradient id="SVGID_14_" gradientUnits="userSpaceOnUse" x1="263.452" y1="157.0266" x2="265.574"
                            y2="157.0266">
			<stop offset="0" style="stop-color:#ECD69F"/>
                <stop offset="0.157" style="stop-color:#EDD8A4"/>
                <stop offset="1" style="stop-color:#F2E1BA"/>
		</linearGradient>
            <path class="st21" d="M263.45,156.16c0,0,0.49,0.73,1.02,1.12c0.53,0.39,1.1,0.6,1.1,0.6s-0.27-0.76-0.87-1.18
			C264.1,156.29,263.45,156.16,263.45,156.16z"/>
            <linearGradient id="SVGID_15_" gradientUnits="userSpaceOnUse" x1="286.3797" y1="159.6121" x2="289.9879"
                            y2="159.6121">
			<stop offset="0" style="stop-color:#ECD69F"/>
                <stop offset="0.157" style="stop-color:#EDD8A4"/>
                <stop offset="1" style="stop-color:#F2E1BA"/>
		</linearGradient>
            <path class="st22" d="M286.38,158.78c0,0,1.48-0.07,2.32,0.42c0.84,0.49,1.29,1.24,1.29,1.24s-0.64-0.42-1.8-0.83
			C287.02,159.2,286.38,158.78,286.38,158.78z"/>
            <linearGradient id="SVGID_16_" gradientUnits="userSpaceOnUse" x1="286.1325" y1="161.0506" x2="289.4442"
                            y2="161.0506">
			<stop offset="0" style="stop-color:#ECD69F"/>
                <stop offset="0.157" style="stop-color:#EDD8A4"/>
                <stop offset="1" style="stop-color:#F2E1BA"/>
		</linearGradient>
            <path class="st23" d="M286.13,159.61c0,0,1.09,0.92,1.73,1.76c0.64,0.84,1.58,1.11,1.58,1.11s-0.4-0.82-1.26-1.66
			C287.32,159.99,286.13,159.61,286.13,159.61z"/>
            <linearGradient id="SVGID_17_" gradientUnits="userSpaceOnUse" x1="278.0495" y1="166.2936" x2="278.0495"
                            y2="161.9228">
			<stop offset="0" style="stop-color:#ECD69F"/>
                <stop offset="0.157" style="stop-color:#EDD8A4"/>
                <stop offset="1" style="stop-color:#F2E1BA"/>
		</linearGradient>
            <path class="st24" d="M278.4,161.92l-1.95,0.9c0,0,0.2,0.72,0.3,1.61c0.09,0.89,0.19,1.62,0.19,1.62s0.98,0.26,2.02,0.23
			C279.51,165.97,280.43,163.26,278.4,161.92z"/>
	</g>
        <g>
		<path class="st2" d="M317.58,171.17c0,0-1.67,3.25-3.18,7.14c-0.42,1.09-1.11,3.02-1.51,5.55c-0.46,2.95-0.52,4.7-0.52,4.7
			l3.14,2.13c0,0,1.63-3.09,3.02-8.32c0.69-2.59,4.63-8.45,4.63-8.45L317.58,171.17z"/>
            <path class="st1" d="M315.33,172.33c0,0,1.42,2.3,4.01,3.27c2.58,0.96,4.23,1.57,4.23,1.57s2.18-3.52,4.61-10.12
			c1.37-3.73-3.5-5.77-6.15-3.61C318.53,166.27,315.33,172.33,315.33,172.33z"/>
            <linearGradient id="SVGID_18_" gradientUnits="userSpaceOnUse" x1="321.1028" y1="243.4311" x2="321.1028"
                            y2="253.8153">
			<stop offset="5.181350e-03" style="stop-color:#9E8241"/>
                <stop offset="1" style="stop-color:#825F0C"/>
		</linearGradient>
            <path class="st25" d="M317.7,248.89c1.7-1.65,2.97-3.04,2.97-3.04l6.89-2.42l0.84,4.65c0,0-0.23,1.06-1.44,1.82
			c-1.2,0.76-3.55,2.06-4.84,2.52c-1.81,0.65-5.04,1.34-6.46,1.4c-1.62,0.06-2.32-0.7-1.47-1.53
			C315.64,250.86,316.13,250.42,317.7,248.89z"/>
            <path class="st6" d="M335.63,250.12l6.97-0.78c0,0,0.97,4.43-0.66,9c-1.63,4.57-4.49,4.61-5.5,4.25
			c-1.01-0.36-1.47-3.27-1.29-6.55C335.34,252.73,335.63,250.12,335.63,250.12z"/>
            <path class="st6" d="M345.3,247.55c0,0-1.98-14.92-6.3-24.65c-0.36-7.39,2.4-15.86,0.71-23.18c-2.1-9.15-5.39-8.9-5.39-8.9
			c0.2-1.54-3.17-1.28-6.69-0.61c0,1.85,0.01,3.71,0.01,5.56c-0.48-1.71-0.9-3.66-1.11-6.33c-3.21,0.95-6.17,2.11-6.17,2.11
			s-2.03,15-2.65,24.01c-0.71,10.25,1.6,30.45,1.6,30.45s0.36,2.19,4.13,1.88c2.89-0.24,5.1-2.78,5.1-2.78l-1.59-23.31l1.33-5.79
			c0.37,3.69,0.94,7.96,1.81,11.04c2.48,8.76,4.23,23.99,4.23,23.99s4.91,1.75,8.28,0.07C345.96,249.43,345.3,247.55,345.3,247.55z"
            />
            <linearGradient id="SVGID_19_" gradientUnits="userSpaceOnUse" x1="319.6066" y1="181.8721" x2="341.8702"
                            y2="181.8721">
			<stop offset="0" style="stop-color:#F7EDD5"/>
                <stop offset="0.0432" style="stop-color:#F6EDD7"/>
                <stop offset="0.622" style="stop-color:#EDF1EC"/>
                <stop offset="1" style="stop-color:#EAF2F4"/>
		</linearGradient>
            <path class="st26" d="M325.36,165.03c0.65,0.27,0.98,0.92,0.98,0.92l7.73,0.14c0,0,6.29,1.3,7.77,6.17
			c0.11,1.53-0.07,5.09-0.32,6.69c-0.23,0.14-1.7-0.1-1.8,0.22c-1.97,5.72-1.7,12.72-1.29,18.47c-0.72,1.46-15.83,1.48-18.82-0.19
			C321.25,186.17,316.42,173.17,325.36,165.03z"/>
            <linearGradient id="SVGID_20_" gradientUnits="userSpaceOnUse" x1="325.5799" y1="181.9933" x2="325.5799"
                            y2="170.7431">
			<stop offset="0" style="stop-color:#D4A123"/>
                <stop offset="1" style="stop-color:#D7A630"/>
		</linearGradient>
            <path class="st27" d="M326.58,173.86c0.06-0.02,0.13-0.02,0.18-0.06c0.57-0.39,1.23-2.34,1.23-2.34s-0.33-0.1-0.92-0.31
			c-0.84-0.3-1.34-0.41-1.34-0.41s-0.62,1.82-0.37,2.55c-0.63,1.27-2.19,5.05-2.19,5.05l1.56,3.66l2.82-3.25
			c0,0-0.08-0.24-0.34-1.02C327.02,177.13,326.72,174.92,326.58,173.86z"/>
            <path class="st6" d="M319.61,176.38c0.99-8.81,5.49-12.78,5.49-12.78l2.11,1.25c0,0-2.5,5.52-2.74,8
			c-0.41,4.18,0.73,7.99,0.73,7.99s2.98-7.76,6.18-11.01c2.95-3,3.52-3.79,3.52-3.79l2.87,1.51c0,0-3.92,5.69-3.36,12.06
			c0.49,5.51,4.22,5.58,4.22,5.58l1.93,15.16c0,0-4.71,3.14-8.57,3.41c-1.02,0.07-4.62,0.1-5.77-0.1c0-1.48-0.85-4.58-0.85-4.58
			s-1.05,2.47-1.05,4.1c-4.3-0.76-5.77-4.1-5.77-4.1s1.07-7.32,1.07-11.27C319.61,181.69,319.42,178,319.61,176.38z"/>
            <g>
			<path class="st2" d="M327.21,164.85l5.87-4.27l1.24,6.9c0,0-1.19,1.43-2.95,2.35c-1.47,0.77-3.25,1.48-4.86,1.98
				c-0.67-1.21,0-2.91,0-2.91L327.21,164.85z"/>
                <path class="st4" d="M333.77,152.99c1.3,1.66,1.7,5.8-0.09,8.72c-1.59,2.59-5.21,4.06-6.83,4.32c-2.88,0.46-5.98-7.48-2.7-12.34
				C327.29,149.07,332.1,150.86,333.77,152.99z"/>
                <path class="st6" d="M331.01,149.48c1.65,0.27,2.9,1.28,3.78,2.51c2.93,0.62,2.63,4.84,1.9,6.44c-1.4,3.08-3.01,3.29-3.01,3.29
				s0.42-1.68,0.05-2.41c-0.32-0.62-1.31-0.73-1.65,0.38c-0.37,0.11-0.81,0.08-0.81,0.08l0.34-2.22c0,0-1.69,0.86-3.61-0.25
				c-1.78-1.03-3.51-0.43-4.13,0.15c-0.38-0.94-0.34-1.49-0.29-2.26c-1.14-0.8-2.22-1.52-2.06-2.06c0.87,0.26,1.88,0.28,2.73-0.26
				c-0.72-0.57-1.07-1.08-1.49-1.7C324.75,151.43,329.08,149.16,331.01,149.48z"/>
		</g>
            <path class="st1" d="M327.02,165.95c-0.38,2.19-0.38,5.22-0.38,5.22l-3.47-1.63l1.9-4.23
			C325.24,165.51,326.2,166.26,327.02,165.95z"/>
            <path class="st1" d="M333.74,164.24c0,0,1.03,1.21,1.15,1.79c0.36,1.85-1.39,4.36-2.88,6.29c-1.55-0.81-5.5-0.89-5.5-0.89
			s2.22-2.15,3.52-3.18C333.09,165.84,333.74,164.24,333.74,164.24z"/>
            <g>
			<path class="st28" d="M322.59,188.1c0,0,1.06-2.93,1.49-4.23c0.31,0.13,0.44,0.17,0.78,0.35c-0.6,1.49-1.69,4.16-1.69,4.16
				L322.59,188.1z"/>
                <path class="st14" d="M324.4,182.91l-0.32,0.96c-0.04,0.1,0.09,0.26,0.31,0.36c0.22,0.1,0.43,0.09,0.47-0.01l0.39-0.94
				L324.4,182.91z"/>
                <path class="st9" d="M325.25,183.27c-0.05,0.12-0.28,0.13-0.51,0.03c-0.23-0.1-0.38-0.28-0.33-0.4c0.05-0.12,0.28-0.13,0.51-0.03
				C325.15,182.98,325.3,183.16,325.25,183.27z"/>
		</g>
            <path class="st4" d="M339.51,168.78c-1.08,0.66-2.6,3.59-3.01,6.58c-0.34,2.45,0.69,4.01,0.69,7.36c0,2.38,0.73,4.2,0.73,4.2
			s-7.24,1.62-9.09,1.64c-1.85,0.02-2.91-2.21-4.9-2.21c-1.99,0-2.69,0.98-3.21,2.04c-0.52,1.06,0.25,1.7,0.79,2.73
			c0.53,1.04,1.71,0.75,2.43,0.84c0.72,0.1,1.88,1.84,4.07,1.29c1.2-0.3,1.98-0.71,3.24-0.71c1.26,0,7.1,0.28,9.32-0.13
			c1.91-0.35,2.24-1.81,2.78-2.97c1.16-2.52,0.1-8.73,0.19-13.27C343.62,171.63,342.12,170.38,339.51,168.78z"/>
            <path class="st1" d="M338.94,168.32c0,0-1.43,0.8-2.44,4.86c-1.01,4.07-0.32,9.53-0.32,9.53s2.35,1.18,4.93,0.89
			c2.7-0.3,2.77-0.89,3.39-1.74c0,0-0.14-7.44-0.61-9.54C343.23,169.45,338.94,168.32,338.94,168.32z"/>
            <g>
			<polygon class="st29" points="309.27,182.62 310.13,182.04 317.58,187.88 316.72,188.46 			"/>
                <polygon class="st14" points="322.75,199.81 321.95,200.33 316.72,188.46 317.58,187.88 			"/>
                <linearGradient id="SVGID_21_" gradientUnits="userSpaceOnUse" x1="308.5956" y1="191.6218" x2="321.7321"
                                y2="191.6218">
				<stop offset="0" style="stop-color:#A5C8D0"/>
                    <stop offset="0.5246" style="stop-color:#90BBC5"/>
                    <stop offset="1" style="stop-color:#81B2BD"/>
			</linearGradient>
                <polygon class="st30" points="308.6,182.37 316.35,188.45 321.73,200.87 313.98,194.79 			"/>
                <linearGradient id="SVGID_22_" gradientUnits="userSpaceOnUse" x1="308.5956" y1="185.2437" x2="316.7839"
                                y2="185.2437">
				<stop offset="0" style="stop-color:#ACCCD3"/>
                    <stop offset="0.3132" style="stop-color:#B1CFD5"/>
                    <stop offset="0.6672" style="stop-color:#BED7DD"/>
                    <stop offset="1" style="stop-color:#D2E3E7"/>
			</linearGradient>
                <polygon class="st31" points="308.6,182.37 309.03,182.04 316.78,188.12 316.35,188.45 			"/>
                <linearGradient id="SVGID_23_" gradientUnits="userSpaceOnUse" x1="316.3482" y1="194.4966" x2="322.1679"
                                y2="194.4966">
				<stop offset="0" style="stop-color:#8BB8C2"/>
                    <stop offset="0.5426" style="stop-color:#74AAB6"/>
                    <stop offset="0.9948" style="stop-color:#65A1AE"/>
			</linearGradient>
                <polygon class="st32" points="322.17,200.54 321.73,200.87 316.35,188.45 316.78,188.12 			"/>
		</g>
            <path class="st2" d="M311.02,187.88c0,0-0.54,1.39,0.22,3.01c0.53,1.11,1.92,2.7,3.37,2.61c1.66-0.1,0.77-1.5-0.55-2.81
			C312.73,189.37,311.02,187.88,311.02,187.88z"/>
	</g>
        <g>
		<g>
			<path class="st33" d="M146.17,18.32l-5.99-3.41c-0.03-0.01-0.05-0.03-0.08-0.04l-0.21-0.12l-0.02,0.01
				c-2.84-1.53-6.45-1.52-9.77,0.39l-70,40.41c-6.84,3.95-12.43,14.64-12.43,23.76v153.66c0,3.93,1.56,6.64,3.88,8.15l0,0.01
				l0.04,0.03c0.1,0.07,0.21,0.12,0.32,0.18l5.95,3.4l5.05-3.98l69.71-40.24c6.84-3.95,12.44-14.64,12.44-23.76V24.43
				c0-1.35-0.2-2.58-0.52-3.71l0.52,0.32L146.17,18.32z"/>
            <path class="st6" d="M138.55,203.89l-69.71,40.24c-6.84,3.95-15.24,1.34-15.24-7.78V82.69c0-9.12,5.6-19.81,12.44-23.76l70-40.41
				c6.84-3.95,14.95,0.16,14.95,9.28v152.33C150.99,189.25,145.39,199.94,138.55,203.89z"/>
            <path class="st34" d="M136.37,202.19l-68.15,39.35c-6.8,3.92-12.36,0.41-12.36-8.65V83.72c0-9.06,5.56-19.68,12.36-23.61
				l68.15-39.35c6.8-3.92,12.36,0.28,12.36,9.34v149.16C148.72,188.33,143.16,198.27,136.37,202.19z"/>
            <polygon class="st9" points="143.85,185 60.74,232.98 60.74,77.83 143.85,29.84 			"/>
            <path class="st9" d="M97.8,49.57c0,1.13-0.69,2.44-1.53,2.93c-0.85,0.49-1.53-0.03-1.53-1.16c0-1.13,0.69-2.44,1.53-2.93
				C97.12,47.92,97.8,48.44,97.8,49.57z"/>
            <path class="st9" d="M113.09,42.79l-10.07,5.82c-0.84,0.49-1.53-0.03-1.53-1.16l0,0c0-1.12,0.69-2.44,1.53-2.93l10.07-5.82
				c0.84-0.49,1.53,0.03,1.53,1.16l0,0C114.62,40.98,113.93,42.3,113.09,42.79z"/>
            <path class="st9" d="M112.3,207.31l-10.56,6.1c-0.9,0.52-1.64,1.93-1.64,3.13c0,1.2,0.74,1.76,1.64,1.24l10.56-6.1
				c0.9-0.52,1.64-1.93,1.64-3.13C113.94,207.35,113.2,206.79,112.3,207.31z"/>
		</g>
            <g>
			<path class="st34" d="M216.17,2.5l-2.68-1.5c-0.24-0.16-0.5-0.3-0.76-0.43l-0.02-0.01l0,0c-1.65-0.77-3.65-0.8-5.45,0.24
				l-71.3,41.17c-7.73,4.46-12.49,12.71-12.49,21.63v8.64c0,2.01,0.95,3.68,2.35,4.74v0l0.01,0c0.36,0.27,0.76,0.5,1.18,0.69
				l2.56,1.49l2.82-1.77l3.95-2.28v17.12l3.09,1.76l2.72-10.73l-1.33,0.4l8.35-15.96l54.51-31.47c7.73-4.46,12.49-12.71,12.49-21.63
				V5.95c0-0.78-0.15-1.51-0.42-2.18L216.17,2.5z"/>
                <linearGradient id="SVGID_24_" gradientUnits="userSpaceOnUse" x1="126.5658" y1="47.8654" x2="219.266"
                                y2="47.8654">
				<stop offset="0" style="stop-color:#C4DBE0"/>
                    <stop offset="0.544" style="stop-color:#C9DEE2"/>
                    <stop offset="1" style="stop-color:#D2E3E7"/>
			</linearGradient>
                <path class="st35" d="M210.35,2.56l-71.3,41.17c-7.73,4.46-12.49,12.71-12.49,21.63v8.64c0,4.57,4.95,7.43,8.91,5.15l3.95-2.28
				v17.12l12.84-24.54l54.51-31.47c7.73-4.46,12.49-12.71,12.49-21.63V7.7C219.27,3.13,214.31,0.27,210.35,2.56z"/>
                <g>
				<path class="st9" d="M141.24,60.58c0.56-0.32,0.98,0.02,0.98,0.79c0,0.76-0.42,1.59-0.98,1.91c-0.56,0.32-0.98-0.02-0.98-0.78
					C140.26,61.72,140.68,60.9,141.24,60.58z"/>
                    <path class="st9" d="M144.53,58.68c0.56-0.32,0.98,0.02,0.98,0.79c0,0.76-0.42,1.59-0.98,1.91c-0.56,0.32-0.98-0.02-0.98-0.78
					C143.55,59.82,143.97,59,144.53,58.68z"/>
                    <path class="st9" d="M147.81,56.78c0.56-0.32,0.98,0.02,0.98,0.79c0,0.76-0.42,1.59-0.98,1.91c-0.56,0.32-0.98-0.02-0.98-0.78
					C146.84,57.93,147.25,57.1,147.81,56.78z"/>
                    <path class="st9" d="M151.1,54.88c0.56-0.32,0.98,0.02,0.98,0.79c0,0.76-0.42,1.59-0.98,1.91c-0.56,0.32-0.98-0.02-0.98-0.78
					C150.12,56.03,150.54,55.21,151.1,54.88z"/>
                    <path class="st9" d="M154.38,52.99c0.56-0.32,0.98,0.02,0.98,0.79c0,0.76-0.42,1.59-0.98,1.91c-0.56,0.32-0.98-0.02-0.98-0.78
					C153.41,54.13,153.83,53.31,154.38,52.99z"/>
                    <path class="st9" d="M157.67,51.09c0.56-0.32,0.98,0.02,0.98,0.79c0,0.76-0.42,1.59-0.98,1.91c-0.56,0.32-0.98-0.02-0.98-0.78
					C156.7,52.23,157.11,51.41,157.67,51.09z"/>
                    <path class="st9" d="M160.96,49.19c0.56-0.32,0.98,0.02,0.98,0.79c0,0.76-0.42,1.59-0.98,1.91c-0.56,0.32-0.98-0.02-0.98-0.78
					C159.98,50.34,160.4,49.51,160.96,49.19z"/>
                    <path class="st9" d="M164.24,47.29c0.56-0.32,0.97,0.02,0.97,0.79c0,0.76-0.41,1.59-0.97,1.91c-0.56,0.32-0.98-0.02-0.98-0.78
					C163.27,48.44,163.68,47.62,164.24,47.29z"/>
                    <path class="st9" d="M167.53,45.4c0.56-0.32,0.98,0.02,0.98,0.79c0,0.76-0.41,1.59-0.98,1.91c-0.56,0.32-0.97-0.02-0.97-0.78
					C166.55,46.54,166.97,45.72,167.53,45.4z"/>
                    <path class="st9" d="M170.81,43.5c0.56-0.32,0.98,0.02,0.98,0.79c0,0.76-0.42,1.59-0.98,1.91c-0.56,0.32-0.98-0.02-0.98-0.78
					C169.84,44.64,170.25,43.82,170.81,43.5z"/>
                    <path class="st9" d="M174.1,41.6c0.56-0.32,0.98,0.02,0.98,0.79c0,0.76-0.42,1.59-0.98,1.91c-0.56,0.32-0.98-0.02-0.98-0.78
					C173.12,42.75,173.54,41.93,174.1,41.6z"/>
                    <path class="st9" d="M177.39,39.7c0.56-0.32,0.98,0.02,0.98,0.79c0,0.76-0.42,1.59-0.98,1.91c-0.56,0.32-0.98-0.02-0.98-0.78
					C176.41,40.85,176.83,40.03,177.39,39.7z"/>
                    <path class="st9" d="M180.67,37.81c0.56-0.32,0.98,0.02,0.98,0.79c0,0.76-0.42,1.59-0.98,1.91c-0.56,0.32-0.98-0.02-0.98-0.78
					C179.7,38.95,180.11,38.13,180.67,37.81z"/>
                    <path class="st9" d="M183.96,35.91c0.56-0.32,0.98,0.02,0.98,0.79c0,0.76-0.42,1.59-0.98,1.91c-0.56,0.32-0.98-0.02-0.98-0.78
					C182.98,37.06,183.4,36.23,183.96,35.91z"/>
                    <path class="st9" d="M187.25,34.01c0.56-0.32,0.98,0.02,0.98,0.79c0,0.76-0.42,1.59-0.98,1.91c-0.56,0.32-0.98-0.02-0.98-0.78
					C186.27,35.16,186.69,34.34,187.25,34.01z"/>
                    <path class="st9" d="M190.53,32.11c0.56-0.32,0.98,0.02,0.98,0.79c0,0.76-0.42,1.59-0.98,1.91c-0.56,0.32-0.98-0.02-0.98-0.78
					C189.56,33.26,189.97,32.44,190.53,32.11z"/>
                    <path class="st9" d="M193.82,30.22c0.56-0.32,0.98,0.02,0.98,0.79c0,0.76-0.42,1.59-0.98,1.91c-0.56,0.32-0.98-0.02-0.98-0.78
					C192.84,31.36,193.26,30.54,193.82,30.22z"/>
                    <path class="st9" d="M197.1,28.32c0.56-0.32,0.98,0.02,0.98,0.79c0,0.76-0.42,1.59-0.98,1.91c-0.56,0.32-0.98-0.02-0.98-0.78
					C196.13,29.47,196.55,28.64,197.1,28.32z"/>
                    <path class="st9" d="M200.39,26.42c0.56-0.32,0.98,0.02,0.98,0.79c0,0.76-0.42,1.59-0.98,1.91c-0.56,0.32-0.98-0.02-0.98-0.78
					C199.42,27.57,199.83,26.75,200.39,26.42z"/>
                    <path class="st9" d="M203.68,24.53c0.56-0.32,0.98,0.02,0.98,0.79c0,0.76-0.42,1.59-0.98,1.91c-0.56,0.32-0.98-0.02-0.98-0.78
					C202.7,25.67,203.12,24.85,203.68,24.53z"/>
                    <path class="st9" d="M206.96,22.63c0.56-0.32,0.97,0.02,0.97,0.79c0,0.76-0.41,1.59-0.97,1.91c-0.56,0.32-0.98-0.02-0.98-0.78
					C205.99,23.77,206.4,22.95,206.96,22.63z"/>
                    <path class="st9" d="M210.25,20.73c0.56-0.32,0.98,0.02,0.98,0.79c0,0.76-0.41,1.59-0.98,1.91c-0.56,0.32-0.97-0.02-0.97-0.78
					C209.27,21.88,209.69,21.06,210.25,20.73z"/>
			</g>
		</g>
            <g>
			<g>
				<path class="st36" d="M110.32,68.82l1.25-0.71L107,65.46l-0.01,0.01c-2.07-0.95-4.65-0.75-7.46,0.87l-87.34,50.43
					C5.49,120.63,0,131.12,0,140.06v84.9c0,4.8,1.59,8.27,4.09,9.81l0,0l3.45,1.94l2.01-1.39c0.85-0.24,1.74-0.6,2.65-1.13
					l87.34-50.43c6.71-3.87,12.19-14.36,12.19-23.3v-84.9C111.73,72.83,111.22,70.56,110.32,68.82z"/>
                <path class="st37" d="M103.01,185.75l-87.35,50.43c-6.71,3.87-12.19-0.28-12.19-9.22v-84.9c0-8.94,5.49-19.43,12.19-23.3
					l87.35-50.43c6.71-3.87,12.19,0.28,12.19,9.22v84.9C115.2,171.39,109.71,181.87,103.01,185.75z"/>
			</g>
                <linearGradient id="SVGID_25_" gradientUnits="userSpaceOnUse" x1="87.6247" y1="142.2048" x2="87.6247"
                                y2="71.9567">
				<stop offset="0" style="stop-color:#D4A123"/>
                    <stop offset="0.5668" style="stop-color:#D5A328"/>
                    <stop offset="1" style="stop-color:#D7A630"/>
			</linearGradient>
                <polygon class="st38" points="106.67,120.22 68.58,142.2 68.58,93.94 106.67,71.96 			"/>
                <linearGradient id="SVGID_26_" gradientUnits="userSpaceOnUse" x1="87.6247" y1="199.3374" x2="87.6247"
                                y2="129.0893">
				<stop offset="0" style="stop-color:#D4A123"/>
                    <stop offset="1" style="stop-color:#D7A630"/>
			</linearGradient>
                <polygon class="st39" points="106.67,177.35 68.58,199.34 68.58,151.08 106.67,129.09 			"/>
		</g>
            <g>
			<g>
				<linearGradient id="SVGID_27_" gradientUnits="userSpaceOnUse" x1="120.6016" y1="137.6599" x2="149.7973"
                                y2="137.6599">
					<stop offset="0" style="stop-color:#F7EDD5"/>
                    <stop offset="0.157" style="stop-color:#F6EBD0"/>
                    <stop offset="1" style="stop-color:#F2E1BA"/>
				</linearGradient>
                <path class="st40" d="M134.74,120.66c6.15,11.5,16.54,27.16,14.88,37.85c-6.59-2.1-7.26-2.72-10.96,2.53
					c-4.83-5.25-14.88-20.51-14.88-20.51l-3.17-25.07C120.6,115.46,129.36,110.59,134.74,120.66z"/>
                <linearGradient id="SVGID_28_" gradientUnits="userSpaceOnUse" x1="108.29" y1="172.6168" x2="108.29"
                                y2="219.8419">
					<stop offset="5.181350e-03" style="stop-color:#9E8241"/>
                    <stop offset="0.6569" style="stop-color:#8A691B"/>
                    <stop offset="1" style="stop-color:#825F0C"/>
				</linearGradient>
                <path class="st41" d="M83.5,219.84c26.45-15.36,33.53-18.92,49.58-28.62c-0.34-8.07-1.86-12.95-1.86-12.95
					s-34.5-10.41-33.53-2.97c0,0-12.24,12.62-13.16,34.03C84.42,211.95,83.69,215.81,83.5,219.84z"/>
                <linearGradient id="SVGID_29_" gradientUnits="userSpaceOnUse" x1="86.8406" y1="190.3726" x2="127.822"
                                y2="119.3907">
					<stop offset="0" style="stop-color:#F7EDD5"/>
                    <stop offset="0.3505" style="stop-color:#F5EEDA"/>
                    <stop offset="0.7468" style="stop-color:#EFF0E7"/>
                    <stop offset="1" style="stop-color:#EAF2F4"/>
				</linearGradient>
                <path class="st42" d="M85.16,175.51c2.25-11.13-4.72-25.97-3.8-38.91c1.13-3.73-1.17-6.39,1.47-9.14
					c5.16-5.39,16.02-9.27,16.02-9.27l17.5-0.32c0,0,2.6-5.3,8.12,0c11.67,11.2,10.43,35.09,9.76,47.13
					c-0.61,10.95,2.39,9.89-1.7,16.33c-2.37,3.73-25.82,16.82-40.19,11.97C82.74,190.05,84.76,177.51,85.16,175.51z"/>
                <g>
					<path class="st43" d="M114.39,115.37l1.57,9.17c0,0,1.05,3.37-0.48,6.11c-3.63-1.13-7.18-2.25-10.51-4
						c-3.99-2.09-6.69-5.32-6.69-5.32l2.81-15.62L114.39,115.37z"/>
                    <path class="st4" d="M99.54,88.55c3.78-4.82,14.66-8.88,21.75,1.6c7.43,11,0.41,28.97-6.1,27.92
						c-3.65-0.59-11.85-3.91-15.45-9.78C95.69,101.68,96.6,92.29,99.54,88.55z"/>
				</g>
                <linearGradient id="SVGID_30_" gradientUnits="userSpaceOnUse" x1="85.45" y1="182.4737" x2="85.45"
                                y2="127.2034">
					<stop offset="0" style="stop-color:#F7EDD5"/>
                    <stop offset="0.157" style="stop-color:#F6EBD0"/>
                    <stop offset="1" style="stop-color:#F2E1BA"/>
				</linearGradient>
                <path class="st44" d="M94.41,176.59c-0.55,1.32-2.51,3.93-5.65,5.23c-3.46,1.83-3.17-0.72-7.49-1.34
					c-2.64-1.72-6.25-11.89-6.97-22.66c-1.01-15.16-0.57-26.36,8.52-30.37c4.98-2.2,9.31,10.32,10.76,16.81
					c1.05,4.71,3.77,18.31,3.33,26.84C96.76,174.09,95.14,174.85,94.41,176.59z"/>
                <linearGradient id="SVGID_31_" gradientUnits="userSpaceOnUse" x1="122.4106" y1="171.4566" x2="122.4106"
                                y2="187.919">
					<stop offset="0" style="stop-color:#F7EDD5"/>
                    <stop offset="0.157" style="stop-color:#F6EBD0"/>
                    <stop offset="1" style="stop-color:#F2E1BA"/>
				</linearGradient>
                <path class="st45" d="M122.79,173.45c0,0,1.07,3.57,1.61,6.82c0.54,3.25,0.42,6.58,0.42,6.58l-2.03,1.06
					c0,0-0.34-4.91-1.22-9.02c-0.97-4.51-1.58-7.45-1.58-7.45L122.79,173.45z"/>
                <linearGradient id="SVGID_32_" gradientUnits="userSpaceOnUse" x1="119.1764" y1="129.5191" x2="119.1764"
                                y2="116.8755">
					<stop offset="0" style="stop-color:#F7EDD5"/>
                    <stop offset="0.157" style="stop-color:#F6EBD0"/>
                    <stop offset="1" style="stop-color:#F2E1BA"/>
				</linearGradient>
                <path class="st46"
                      d="M118.74,116.88l4.79,6.99l-8.05,5.66c0,0,0.2-6.7-0.67-11.65C116.68,118.57,118.35,117.32,118.74,116.88z"
                />
                <linearGradient id="SVGID_33_" gradientUnits="userSpaceOnUse" x1="106.5008" y1="132.5395" x2="106.5008"
                                y2="115.6454">
					<stop offset="0" style="stop-color:#F7EDD5"/>
                    <stop offset="0.157" style="stop-color:#F6EBD0"/>
                    <stop offset="1" style="stop-color:#F2E1BA"/>
				</linearGradient>
                <path class="st47" d="M99.31,115.65c0,0,5.73,5.11,8.68,7.45c2.95,2.34,6.03,4.4,7.5,6.42c-5.74,1.34-11.33,3.02-11.33,3.02
					s-6.69-11.67-6.63-13.01C97.58,118.18,99.31,115.65,99.31,115.65z"/>
                <linearGradient id="SVGID_34_" gradientUnits="userSpaceOnUse" x1="79.508" y1="176.4065" x2="101.2205"
                                y2="176.4065">
					<stop offset="0" style="stop-color:#F9F2E1"/>
                    <stop offset="0.4596" style="stop-color:#F5F2E6"/>
                    <stop offset="0.9794" style="stop-color:#EBF2F3"/>
                    <stop offset="1" style="stop-color:#EAF2F4"/>
				</linearGradient>
                <path class="st48" d="M79.65,178.95c-1.26-6.33,5.94-16.07,15.34-11.06c11.53,6.14,4.08,14.94,1.17,16.55
					C86.86,189.59,80.44,182.9,79.65,178.95z"/>
                <linearGradient id="SVGID_35_" gradientUnits="userSpaceOnUse" x1="135.3388" y1="155.0728" x2="150.5928"
                                y2="155.0728">
					<stop offset="0" style="stop-color:#F9F2E1"/>
                    <stop offset="0.4596" style="stop-color:#F5F2E6"/>
                    <stop offset="0.9794" style="stop-color:#EBF2F3"/>
                    <stop offset="1" style="stop-color:#EAF2F4"/>
				</linearGradient>
                <path class="st49" d="M147.93,145.39c-0.41-0.27-6.42-0.83-9.75,1.89c-3.33,2.72-4.31,13.76,0.28,16.54
					c4.75,2.88,10.64-0.12,11.76-2.78C151.79,157.28,147.93,145.39,147.93,145.39z"/>
                <path class="st6" d="M113.45,99.74c6.11-0.56,8.65-2.86,10.08-5.35c4.41-10.81-9.04-15.22-17.74-13.79
					c-8.7,1.42-12.47,11.92-12.3,16.69c0.27,7.66,6.24,11.02,6.24,11.02s-0.95-3.8-0.11-5.46c0.72-1.41,2.98-1.66,3.74,0.86
					c0,0,1.42,13.32,10.51,15.23c9.09,1.91,8.91-7.97,8.91-7.97s-2.56,4.39-6.82,4.56c-3.51,0.13-5.84-1.65-7.88-4.56
					c-0.83-1.18-2.88-7.08-2.88-7.08l-0.76-5.02C104.44,98.85,108.46,100.19,113.45,99.74z"/>
                <path class="st33" d="M132.54,181.33l0.2,4.38c0,0-12.76,11.64-27.52,11.1c-14.76-0.54-18.32-1.59-18.32-1.59l0.98-4.85
					c0,0,4.47,2.92,20.2,1.61C123.79,190.66,132.54,181.33,132.54,181.33z"/>
                <linearGradient id="SVGID_36_" gradientUnits="userSpaceOnUse" x1="97.5171" y1="145.1555" x2="108.513"
                                y2="145.1555">
					<stop offset="0" style="stop-color:#F2E1BA"/>
                    <stop offset="1" style="stop-color:#F2E1BA"/>
				</linearGradient>
                <polygon class="st50" points="107.9,142.55 108.51,145.15 97.99,147.76 97.52,145.15 				"/>
			</g>
                <path class="st4" d="M141.5,148.72c1.87-5.91,9.57-15.59,10.51-18.42c0.49-1.47,1.63-4.43,2.17-6.03c0.73-2.18,3.59-3.41,7.1-5.1
				c3.51-1.69,4.01-0.7,2.77,1.34c-0.9,1.49-3.18,1.95-2.77,2.33c1.46,1.39,2.98,1.97,7.22,1.53c3.5-0.36,5.43-2.88,8.33-1.98
				c2.9,0.89-1.3,7.95-5.41,9.28c-4.11,1.33-9.09,0.56-9.82,1.04c-0.26,0.17-0.77,1.39-1.01,1.89c-2.32,7.48-4.32,16.73-8.77,23.63
				c-5.24,8.12-11.63,5.16-12.78,1.84C137.88,156.72,140.41,152.14,141.5,148.72z"/>
                <path class="st4" d="M127.14,190.22c-2.28-0.38-4.22-0.39-5.91-0.31c0.46-0.36,1.06-0.73,2.06-1.27c2.4-1.29,1.82-2.84-0.51-2.48
				c-2.33,0.36-2.86,0.33-6.28,2.16c-1.1,0.59-1.92,1.08-2.57,1.49c-0.64-0.25-1.24-0.63-1.82-1.21c-3.34-3.3-9.99-12.3-13.48-14.48
				c-3.49-2.18-6.56-2.7-9.44-1.47c-1.78,0.76-5.78,2.03-4.38,7.55c1.51,5.96,7.83,8.82,19.57,15.4c11.74,6.58,23.29,8.4,28.42,4.9
				C137.94,197,135,191.53,127.14,190.22z"/>
                <linearGradient id="SVGID_37_" gradientUnits="userSpaceOnUse" x1="118.4636" y1="180.2759" x2="118.4636"
                                y2="127.9878">
				<stop offset="0" style="stop-color:#D4A123"/>
                    <stop offset="1" style="stop-color:#D7A630"/>
			</linearGradient>
                <path class="st51" d="M120.6,140.88c-1.22-3.88-2.11-6.23-2.72-7.65c0.09-0.49,0.15-1.02,0.17-1.57
				c0.07-1.45-0.39-3.67-0.39-3.67s-1.35,0.95-2.18,1.53c-1.85,0-3.92,1.06-3.92,1.06s0.31,1.28,1.51,2.89
				c0.61,0.82,1.24,1.43,1.84,1.77c0.26,2.35,0.66,5.97,1.13,9.92c0.8,6.76-0.84,30.72-0.84,30.72l5.4,4.4c0,0,2.93-3.87,4.76-8.27
				C125.36,169.99,122.89,148.17,120.6,140.88z"/>
		</g>
            <g>
			<polygon class="st1" points="208.9,83.26 160.42,111.25 160.42,76.92 208.9,48.93 			"/>
                <polygon class="st34" points="160.42,76.92 157.41,75.16 157.41,109.5 160.42,111.25 			"/>
                <polygon class="st34" points="208.9,48.93 205.89,47.17 157.41,75.16 160.42,76.92 			"/>
                <g>
				<path class="st37" d="M203.53,59.03l-39.14,22.6c-0.5,0.29-0.91-0.02-0.91-0.69l0,0c0-0.67,0.41-1.45,0.91-1.74l39.14-22.6
					c0.5-0.29,0.91,0.02,0.91,0.69l0,0C204.44,57.96,204.03,58.74,203.53,59.03z"/>
                    <path class="st37" d="M190.94,71.38l-26.55,15.33c-0.5,0.29-0.91-0.02-0.91-0.69l0,0c0-0.67,0.41-1.45,0.91-1.74l26.55-15.33
					c0.5-0.29,0.91,0.02,0.91,0.69l0,0C191.85,70.31,191.44,71.09,190.94,71.38z"/>
                    <polygon class="st52"
                             points="169.14,103.62 165.93,105.48 165.93,93.61 169.14,91.75 				"/>
                    <polygon class="st53"
                             points="175.64,99.87 172.43,101.73 172.43,87.02 175.64,85.17 				"/>
                    <polygon class="st52"
                             points="182.14,96.12 178.93,97.98 178.93,89.11 182.14,87.26 				"/>
                    <polygon class="st52"
                             points="188.69,92.34 185.48,94.19 185.48,78.25 188.69,76.39 				"/>
                    <polygon class="st52"
                             points="195.19,88.59 191.98,90.44 191.98,78.57 195.19,76.71 				"/>
                    <polygon class="st52"
                             points="201.69,84.84 198.48,86.69 198.48,77.85 201.69,75.99 				"/>
			</g>
		</g>
            <g>
			<polygon class="st9" points="62.36,202.31 14.14,230.45 14.14,126.12 62.36,97.98 			"/>
                <polygon class="st1" points="41.15,143.63 19.19,156.44 19.19,222.27 41.15,209.45 			"/>
                <polygon class="st1" points="45.77,140.96 45.77,150.91 58.37,143.55 58.37,133.61 			"/>
                <polygon class="st1" points="45.77,155.11 45.77,165.05 58.37,157.7 58.37,147.76 			"/>
                <polygon class="st1" points="45.77,169.22 45.77,179.17 58.37,171.81 58.37,161.87 			"/>
                <polygon class="st1" points="45.77,183.37 45.77,193.31 58.37,185.96 58.37,176.02 			"/>
                <polygon class="st1" points="45.77,197.48 45.77,207.42 58.37,200.07 58.37,190.13 			"/>
                <path class="st37" d="M57.58,110.03l-38.66,22.32c-0.83,0.48-1.51-0.03-1.51-1.14l0,0c0-1.11,0.68-2.4,1.51-2.88l38.66-22.32
				c0.83-0.48,1.51,0.03,1.51,1.14l0,0C59.09,108.25,58.41,109.55,57.58,110.03z"/>
                <path class="st37" d="M57.58,119.71l-38.66,22.32c-0.83,0.48-1.51-0.03-1.51-1.14l0,0c0-1.11,0.68-2.4,1.51-2.88l38.66-22.32
				c0.83-0.48,1.51,0.03,1.51,1.14l0,0C59.09,117.94,58.41,119.23,57.58,119.71z"/>
                <path class="st37" d="M57.58,128.92l-38.66,22.32c-0.83,0.48-1.51-0.03-1.51-1.14l0,0c0-1.11,0.68-2.4,1.51-2.88l38.66-22.32
				c0.83-0.48,1.51,0.03,1.51,1.14l0,0C59.09,127.14,58.41,128.44,57.58,128.92z"/>
                <polygon class="st1" points="14.14,230.45 12.52,229.3 12.52,124.97 14.14,126.12 			"/>
                <polygon class="st1" points="62.36,97.98 60.74,96.82 12.52,124.97 14.14,126.12 			"/>
		</g>
	</g>
        <g>
		<g>
			<linearGradient id="SVGID_38_" gradientUnits="userSpaceOnUse" x1="229.7798" y1="272.1037" x2="247.323"
                            y2="272.1037">
				<stop offset="0" style="stop-color:#126E82"/>
                <stop offset="1" style="stop-color:#D4A123"/>
			</linearGradient>
            <path class="st54" d="M230.51,265.85l6.89-3.91c1.87-1.08,2.4,0.17,3.1,1.5l6.11,11.66c0.7,1.33,1.27,2.27-0.26,3.22l-6.66,3.84
				c-1.06,0.72-1.77,0.8-2.53-0.62l-6.35-12.11C230.11,268.11,229.06,266.76,230.51,265.85z"/>
            <linearGradient id="SVGID_39_" gradientUnits="userSpaceOnUse" x1="230.3116" y1="271.7832" x2="247.8549"
                            y2="271.7832">
				<stop offset="0" style="stop-color:#D4A123"/>
                <stop offset="1" style="stop-color:#D7A630"/>
			</linearGradient>
            <path class="st55" d="M231.04,265.53l6.89-3.91c1.87-1.08,2.4,0.17,3.1,1.5l6.11,11.66c0.7,1.33,1.27,2.27-0.26,3.22l-6.66,3.84
				c-1.06,0.72-1.77,0.8-2.53-0.62l-6.35-12.11C230.64,267.79,229.59,266.44,231.04,265.53z"/>
            <polygon class="st9" points="246.61,275.67 238.37,280.33 231.1,266.74 239.33,262.04 			"/>
            <polygon class="st9" points="244.28,278.55 242.36,279.66 241.97,278.96 243.89,277.86 			"/>
		</g>
            <path class="st4" d="M246.56,262.46c0,0-3.33,0.87-5.75,1.07c-2.42,0.2-3.53,0.28-3.53,0.54c0,0.73,0.91,0.7,1.23,0.76
			c0.71,0.14,2.26,0.03,2.26,0.03s-0.2,0.42,0.29,1.15c0.32,0.47,0.41,1.01,0.86,1.44c1.7,1.63,6.89-0.4,6.89-0.4L246.56,262.46z"/>
            <linearGradient id="SVGID_40_" gradientUnits="userSpaceOnUse" x1="253.6352" y1="257.8307" x2="270.7931"
                            y2="257.8307">
			<stop offset="0" style="stop-color:#A5C8D0"/>
                <stop offset="0.5246" style="stop-color:#90BBC5"/>
                <stop offset="1" style="stop-color:#81B2BD"/>
		</linearGradient>
            <path class="st56" d="M261.45,245.15c0,0,2.94-2,5.71-0.19c2.06,1.34,4.32,5.06,3.44,10.69c-1.53,9.78-16.96,15.82-16.96,15.82
			L261.45,245.15z"/>
            <linearGradient id="SVGID_41_" gradientUnits="userSpaceOnUse" x1="243.9386" y1="263.8625" x2="251.7711"
                            y2="263.8625">
			<stop offset="0" style="stop-color:#A5C8D0"/>
                <stop offset="0.5246" style="stop-color:#90BBC5"/>
                <stop offset="1" style="stop-color:#81B2BD"/>
		</linearGradient>
            <path class="st57" d="M251.28,260.08c0,0-5.58,2-6.6,2.56c-1.02,0.56-0.95,3.3,0,4.47c0.95,1.17,7.09,0.08,7.09,0.08
			L251.28,260.08z"/>
            <path class="st33" d="M238.93,338.63c1.06-0.66,7.9,1.24,7.9,1.24l7.38,2.48l-0.56,5.56c0,0-2.62,2.81-6.26,0.36
			c-2.17-1.46-6.36-3.34-7.93-5.61C238.31,341.01,237.87,339.29,238.93,338.63z"/>
            <path class="st33" d="M257.18,327.86c1.06-0.66,7.9,1.24,7.9,1.24l7.38,2.48l-0.56,5.56c0,0-2.62,2.81-6.26,0.36
			c-2.17-1.46-6.36-3.34-7.93-5.61C256.56,330.23,256.12,328.52,257.18,327.86z"/>
            <path class="st6" d="M266.62,277.03c0,0,3.39,3.33,3.92,10.32c0.24,3.15-1.44,16.56-1.44,16.56s2.58,6.94,3.22,11.41
			c0.76,5.31,0.57,15.68,0.57,15.68c-0.44,1.38-1.88,2.69-4.75,2.48c-2.96-0.22-5.04-4.01-5.04-4.01s-1.02-8.6-1.98-14.3
			c-0.55-3.24-1.17-5.39-1.48-8.09c-0.12-3.1-0.44-10.64-0.44-10.64s-3.55,14.1-4.67,18.41c2.19,7.18,0.24,26.73,0.04,28.28
			c-4.38,3.45-7.08,0.19-8.89-2.64c0.11-4.35-0.59-12.01-0.75-18.09c-0.13-4.79-0.05-6.8-0.13-8.41
			c-0.15-3.13,1.27-12.54,1.99-19.74c0.84-8.4,1.01-14.47,1.01-14.47L266.62,277.03z"/>
            <path class="st37" d="M248.28,255.7c0.07,4.83,0.13,11.03,0.04,13.63c-0.17,4.55-2.77,9.27-1.7,11.01
			c1.48,2.4,4.61,5.99,13.83,4.98c3.83-0.42,6.48-0.69,9.12-4.19c1.22-1.62,1.22-3.36,0.41-8.79c-0.94-6.25-0.38-11.74-0.24-16.46
			c0.1-3.3-1.67-7.84-3.01-9.21c-1.46-1.5-2.19-1.9-4.69-1.21c-2.01,0.19-6.53,2.74-8.01,3.58
			C248.81,251.88,248.26,254.28,248.28,255.7z"/>
            <linearGradient id="SVGID_42_" gradientUnits="userSpaceOnUse" x1="254.0175" y1="248.0989" x2="265.0576"
                            y2="248.0989">
			<stop offset="0" style="stop-color:#A5C8D0"/>
                <stop offset="0.5246" style="stop-color:#90BBC5"/>
                <stop offset="1" style="stop-color:#81B2BD"/>
		</linearGradient>
            <path class="st58" d="M254.02,249.03c0,0,3.82,1.54,7.53,1.18c3.71-0.36,3.89-2.27,3.18-3.33c-0.71-1.06-2.17-0.95-2.17-0.95
			S256.87,247.4,254.02,249.03z"/>
            <path class="st2"
                  d="M263.58,247.24l-0.81-3.82l-6.27,1.48c0,0,0.24,1.64-0.53,3.62C260.51,250,264.01,249.32,263.58,247.24z"/>
            <path class="st4" d="M265.05,233.95c-1.29-2.73-6.07-5.88-10.62-1.62c-4.78,4.47-2.9,13.46,0.62,14.08
			c1.79,0.32,5.36-0.56,7.73-2.99C265.45,240.69,266.05,236.08,265.05,233.95z"/>
            <path class="st6" d="M251.11,231.95c0,0,0.17,2.08,1.56,3.3c1.39,1.23,4.11,2.23,4.11,2.23s-0.02,0.89-0.27,2.02
			c-0.25,1.13,0.41,1.57,0.41,1.57s1.41-2.23,2.36-0.44c0.95,1.79-0.74,2.79-0.74,2.79s0.55,1.36,1.52,2.27
			c0.71,0.66,1.97,1.56,1.97,1.56s1.04-2.83,2.83-5.38c1.79-2.55,2.31-4.62,2.31-5.66c0.01-1.51-0.52-3.98-3.58-5.32
			c-2.8-2.61-5.97-1.03-6.79-0.74c-0.82,0.29-2.57,0.73-4.03-0.21c0.15,1.47,0.85,2.5,0.85,2.5S252.43,232.31,251.11,231.95z"/>
            <path class="st4" d="M234.5,274.1c0,0-0.48-1-0.65-1.89c-0.1-0.54,0.29-1.24,0.92-0.26c0.63,0.98,1.85,2.09,1.85,2.09l2.37,4.17
			c0,0-2.67,2.77-5.35,1.08c-2.68-1.69-1.05-4.64-0.69-4.93C233.32,274.07,234.5,274.1,234.5,274.1z"/>
            <linearGradient id="SVGID_43_" gradientUnits="userSpaceOnUse" x1="234.7744" y1="265.3638" x2="254.7161"
                            y2="265.3638">
			<stop offset="0" style="stop-color:#A5C8D0"/>
                <stop offset="0.5246" style="stop-color:#90BBC5"/>
                <stop offset="1" style="stop-color:#81B2BD"/>
		</linearGradient>
            <path class="st59" d="M243.99,268.77c0.63-3.7,1.23-6.45,1.79-9.98c0.85-5.38,3.58-7.7,5.77-8.06c0,0,2.97,2.9,3.13,7.25
			c0.16,4.34-0.23,8.07-2.68,12.31c-0.85,1.47-3.37,4.97-5.74,6.13c-2.23,1.09-8.27,3.55-9.53,3.57c-1.81-1.12-3.1-3.95-0.48-6.72
			C237.79,272.48,242.18,269.61,243.99,268.77z"/>
	</g>
        <g>
		<linearGradient id="SVGID_44_" gradientUnits="userSpaceOnUse" x1="130.0722" y1="272.336" x2="139.3347"
                        y2="272.336">
			<stop offset="0" style="stop-color:#A5C8D0"/>
            <stop offset="0.5246" style="stop-color:#90BBC5"/>
            <stop offset="1" style="stop-color:#81B2BD"/>
		</linearGradient>
            <path class="st60" d="M132.05,267.29c0,0,6.85-1.19,7.27,6.61c0.42,7.8-9.25,0.26-9.25,0.26L132.05,267.29z"/>
            <g>
			<linearGradient id="SVGID_45_" gradientUnits="userSpaceOnUse" x1="103.1929" y1="283.6165" x2="114.1953"
                            y2="283.6165">
				<stop offset="0" style="stop-color:#ACCCD3"/>
                <stop offset="0.3132" style="stop-color:#B1CFD5"/>
                <stop offset="0.6672" style="stop-color:#BED7DD"/>
                <stop offset="1" style="stop-color:#D2E3E7"/>
			</linearGradient>
                <path class="st61" d="M113.2,275.58c0,0-0.71-2.27-2.02-1.87c-1.78,0.55-6.89,3.26-7.98,4.04c0.27,0.54,8.33,15.81,8.33,15.81
				l2.67-1.69L113.2,275.58z"/>
                <linearGradient id="SVGID_46_" gradientUnits="userSpaceOnUse" x1="107.4334" y1="293.5686" x2="107.4334"
                                y2="277.6632">
				<stop offset="0" style="stop-color:#A5C8D0"/>
                    <stop offset="0.5246" style="stop-color:#90BBC5"/>
                    <stop offset="1" style="stop-color:#81B2BD"/>
			</linearGradient>
                <path class="st62" d="M105.07,279.65c0,0-0.43-1.35-1.22-1.85c-0.78-0.51-1.16,0.53-0.77,1.28c0.37,0.7,1.45,1.77,2.29,3.38
				c1.45,2.82,6.16,11.11,6.16,11.11l0.42-0.26L105.07,279.65z"/>
                <polygon class="st14" points="120,289.77 111.87,293.85 104.53,280.2 112.66,276.12 			"/>
                <linearGradient id="SVGID_47_" gradientUnits="userSpaceOnUse" x1="105.0695" y1="284.441" x2="120.5316"
                                y2="284.441">
				<stop offset="0" style="stop-color:#F9F2E1"/>
                    <stop offset="0.4596" style="stop-color:#F5F2E6"/>
                    <stop offset="0.9794" style="stop-color:#EBF2F3"/>
                    <stop offset="1" style="stop-color:#EAF2F4"/>
			</linearGradient>
                <polygon class="st63" points="120.53,289.23 112.4,293.3 105.07,279.65 113.2,275.58 			"/>
                <linearGradient id="SVGID_48_" gradientUnits="userSpaceOnUse" x1="104.5329" y1="286.75" x2="112.4041"
                                y2="286.75">
				<stop offset="0" style="stop-color:#F7EDD5"/>
                    <stop offset="0.157" style="stop-color:#F6EBD0"/>
                    <stop offset="1" style="stop-color:#F2E1BA"/>
			</linearGradient>
                <polygon class="st64" points="105.07,279.65 104.53,280.2 111.87,293.85 112.4,293.3 			"/>
                <polygon class="st65" points="120,289.77 120.53,289.23 112.4,293.3 111.87,293.85 			"/>
		</g>
            <path class="st33" d="M103.85,305.31c0,0,11.09-5.99,13.42-6.03c4.88-7.12,9.18-10.07,9.73-9.75c3.11,1.8,0.49,19.01,0.49,19.01
			S106.01,308.87,103.85,305.31z"/>
            <g>
			<linearGradient id="SVGID_49_" gradientUnits="userSpaceOnUse" x1="113.5943" y1="277.345" x2="115.4911"
                            y2="277.345">
				<stop offset="5.181350e-03" style="stop-color:#9E8241"/>
                <stop offset="0.409" style="stop-color:#92732A"/>
                <stop offset="1" style="stop-color:#825F0C"/>
			</linearGradient>
                <polygon class="st66"
                         points="114.58,275.86 113.88,277.54 113.59,278.83 114.49,277.86 115.49,276.04 			"/>
                <path class="st4" d="M124.52,284.28c0.94-1.35,1.93-2.66,2.86-4.02c-1.93-2.73-6.35-5.44-7.6-6.92
				c-1.42-1.69-2.83-1.17-4.11,0.26c-1.29,1.43-1.95,1.94-1.95,1.94c0.17,0.46,0.26,0.34,0.86,0.32c-0.18,0.31-0.06,0.44,0.18,0.41
				c0.77-0.1,1.17-0.1,1.75,0.2c0.37,0.19,1.73,0.2,2.82,0.53c0.74,0.22,1.93,1.91,4.36,6.18
				C123.87,283.49,124.19,283.89,124.52,284.28z"/>
                <path class="st2" d="M115.73,275.2c0,0,1.03-0.08,1.54-0.47c0.51-0.39,0.27-0.88-0.26-0.95c-0.54-0.08-1.08,0.2-1.08,0.2
				L115.73,275.2z"/>
                <path class="st6"
                      d="M115.73,275.2l1.46-2.99l-0.75-0.28c0,0-1.28,2.78-1.78,3.79C114.9,275.39,115.33,275.17,115.73,275.2z"/>
                <path class="st67" d="M117.2,272.22c-0.05,0.13-0.25,0.16-0.46,0.09c-0.21-0.08-0.34-0.24-0.29-0.37
				c0.05-0.13,0.25-0.16,0.46-0.09C117.12,271.92,117.25,272.09,117.2,272.22z"/>
		</g>
            <path class="st1" d="M116.19,305.06c0,0,0-2.88,1.08-4.81c0.75-1.34,0.93-3.09-0.29-4.58c-2.31-2.82-2.73-3.74-3.62-1.6
			c-0.89,2.15,0.28,2.71-1.2,5.11c-1.48,2.4-3.48,6.36-3.48,6.36S116.27,307.55,116.19,305.06z"/>
            <path class="st36" d="M141.58,296.64c0,0,4.43,7.88,2.89,13.16c-0.49,1.68-2.28,3.07-4.99,5.03c-3.12,2.24-3.7,4.43-10.27,5.1
			c-6.23,0.63-22.77-2.19-26.51-7.27c-3.21-4.36-0.21-9.24,3.99-9.24c5.88,0,15.73-0.14,15.62-0.21L141.58,296.64z"/>
            <linearGradient id="SVGID_50_" gradientUnits="userSpaceOnUse" x1="119.2518" y1="288.3645" x2="142.9092"
                            y2="288.3645">
			<stop offset="0" style="stop-color:#ACCCD3"/>
                <stop offset="0.3132" style="stop-color:#B1CFD5"/>
                <stop offset="0.6672" style="stop-color:#BED7DD"/>
                <stop offset="1" style="stop-color:#D2E3E7"/>
		</linearGradient>
            <path class="st68" d="M132.14,268.19c0,0,3.16-0.02,4.35,1.02c2.5,2.2,3.49,6.12,3.99,10.25c0.5,4.13-0.44,7.16-0.44,10.98
			c0,3.82,2.88,6.3,2.88,9.16c0.01,5.37-5.86,7.92-9.97,8.69c-5.93,1.11-10.64-1.66-12.21-4.31c-0.29-1.22-0.26-2.97,0.82-4.54
			c0.75-1.09-2.23-9.17-2.24-13.33c-0.01-3.93-0.58-8.39,2.07-10.86c1.24-1.16,2.96-1.96,4.3-2.48
			C129.12,271.44,132.14,268.19,132.14,268.19z"/>
            <path class="st2" d="M132.94,263.42c0,0-0.39,5.33,0.61,6.5c1,1.17,0,2.27-2.47,2.66c-2.83,0.45-4.9,0.87-6.23,0.03
			c0.39-0.84,0.84-6.54,0.84-6.54L132.94,263.42z"/>
            <path class="st4" d="M135.33,256.5c-1.26-2.67-5.93-5.75-10.39-1.59c-4.67,4.37-2.83,13.16,0.61,13.77
			c1.75,0.31,5.24-0.55,7.56-2.92C135.73,263.08,136.31,258.57,135.33,256.5z"/>
            <path class="st6" d="M122.3,253.88c0,0,0.83,3.51,4.11,4.89c0.34,1.14,0.16,1.75-0.47,3.03c0.11,0.36,0.7,0.57,0.7,0.57
			c0.77-1.09,2.21-1.71,2.74-0.48c0.48,1.1-0.19,1.89-1.15,3.05c-0.71,3.26,3.87,5.23,3.87,5.23s2.12-3.24,4.07-5.38
			c1.95-2.14,2.62-6.84-0.26-8.99c-0.74-3.43-3.94-5.43-7.29-4.16c-1.53,0.58-2.41,1.19-3.44,1.62
			C123.52,253.96,122.3,253.88,122.3,253.88z"/>
            <path class="st4" d="M113.59,297.49c1.25,0.17,1.28,0.01,2.3-0.96c4.43-4.21,8.02-10.91,8.95-12.91c1.11-2.37-6.12-2.62-6.12-2.62
			s-5.23,9.18-7.34,12.79C110.98,294.5,112.52,297.35,113.59,297.49z"/>
            <linearGradient id="SVGID_51_" gradientUnits="userSpaceOnUse" x1="114.1953" y1="283.0744" x2="126.868"
                            y2="283.0744">
			<stop offset="0" style="stop-color:#A5C8D0"/>
                <stop offset="0.5246" style="stop-color:#90BBC5"/>
                <stop offset="1" style="stop-color:#81B2BD"/>
		</linearGradient>
            <path class="st69" d="M122.13,291.46c-3.36-0.93-5.83-1.91-7.94-4.78c2.94-6.66,6.24-13.09,9.1-11.84
			c3.33,1.46,4.77,6.2,2.39,11.06C124.9,287.51,123.74,289.95,122.13,291.46z"/>
            <linearGradient id="SVGID_52_" gradientUnits="userSpaceOnUse" x1="133.5495" y1="301.2006" x2="123.7416"
                            y2="301.2006">
			<stop offset="0" style="stop-color:#A5C8D0"/>
                <stop offset="0.5246" style="stop-color:#90BBC5"/>
                <stop offset="1" style="stop-color:#81B2BD"/>
		</linearGradient>
            <path class="st70" d="M123.74,300.09c0,0,3.01,0.92,5.22,0.85c2.21-0.07,4.59-0.42,4.59-0.42s-1.59,1.9-4.59,1.79
			C125.96,302.2,123.74,300.09,123.74,300.09z"/>
            <linearGradient id="SVGID_53_" gradientUnits="userSpaceOnUse" x1="132.0512" y1="297.491" x2="123.7416"
                            y2="297.491">
			<stop offset="0" style="stop-color:#A5C8D0"/>
                <stop offset="0.5246" style="stop-color:#90BBC5"/>
                <stop offset="1" style="stop-color:#81B2BD"/>
		</linearGradient>
            <path class="st71" d="M132.05,296.64c0,0-1.66,1.01-3.99,1.45c-2.33,0.44-4.32,0.48-4.32,0.48s1.88-1.39,4.15-1.93
			C130.17,296.1,132.05,296.64,132.05,296.64z"/>
            <linearGradient id="SVGID_54_" gradientUnits="userSpaceOnUse" x1="123.1143" y1="271.4836" x2="134.5223"
                            y2="271.4836">
			<stop offset="0" style="stop-color:#A5C8D0"/>
                <stop offset="0.5246" style="stop-color:#90BBC5"/>
                <stop offset="1" style="stop-color:#81B2BD"/>
		</linearGradient>
            <path class="st72" d="M133.07,268.74c0,0,1.08,0.85,1.42,2.2c0.33,1.35-1.85,3.01-4.42,3.23c-2.56,0.22-6.96-0.18-6.96-0.18
			s0.29-2.16,2.95-2.48c2.66-0.33,5.1-0.27,6.15-1.03C133.27,269.7,133.07,268.74,133.07,268.74z"/>
            <path class="st4" d="M113.62,292.46c0,0-3.39-4.74-3.99-5.84c-0.59-1.1-0.55-1.98-0.7-3.26c-0.15-1.28,0.94-3.06,0.42-3.4
			c-1.32-0.87-1.43,1.68-1.92,2.34c-0.49,0.66-1.62,0.43-1.62,0.43s-0.77-0.96-1.35-1.74c-0.58-0.78-1.01-1.34-1.01-1.34
			s-0.27,1.5,0.4,3.42c0.51,1.49,1.82,3.41,2.63,4.43c0.81,1.02,1.75,4,3.17,6.35c1.43,2.35,1.57,3.58,3.61,3.64
			c2.04,0.06,2.52-0.62,2.59-1.77C115.93,294.56,113.62,292.46,113.62,292.46z"/>
	</g>
        <g>
		<g>
			<linearGradient id="SVGID_55_" gradientUnits="userSpaceOnUse" x1="148.6414" y1="241.5314" x2="159.6437"
                            y2="241.5314">
				<stop offset="0" style="stop-color:#ACCCD3"/>
                <stop offset="0.3132" style="stop-color:#B1CFD5"/>
                <stop offset="0.6672" style="stop-color:#BED7DD"/>
                <stop offset="1" style="stop-color:#D2E3E7"/>
			</linearGradient>
            <path class="st73" d="M158.65,233.49c0,0-0.71-2.27-2.02-1.87c-1.78,0.55-6.89,3.26-7.98,4.04c0.27,0.54,8.33,15.81,8.33,15.81
				l2.67-1.69L158.65,233.49z"/>
            <linearGradient id="SVGID_56_" gradientUnits="userSpaceOnUse" x1="152.8819" y1="251.4835" x2="152.8819"
                            y2="235.5782">
				<stop offset="0" style="stop-color:#A5C8D0"/>
                <stop offset="0.5246" style="stop-color:#90BBC5"/>
                <stop offset="1" style="stop-color:#81B2BD"/>
			</linearGradient>
            <path class="st74" d="M150.52,237.57c0,0-0.43-1.35-1.22-1.85c-0.78-0.51-1.16,0.53-0.77,1.28c0.37,0.7,1.45,1.77,2.29,3.38
				c1.45,2.82,6.16,11.11,6.16,11.11l0.42-0.26L150.52,237.57z"/>
            <polygon class="st14" points="165.44,247.69 157.32,251.76 149.98,238.11 158.11,234.04 			"/>
            <linearGradient id="SVGID_57_" gradientUnits="userSpaceOnUse" x1="150.5179" y1="242.356" x2="165.9801"
                            y2="242.356">
				<stop offset="0" style="stop-color:#F9F2E1"/>
                <stop offset="0.4596" style="stop-color:#F5F2E6"/>
                <stop offset="0.9794" style="stop-color:#EBF2F3"/>
                <stop offset="1" style="stop-color:#EAF2F4"/>
			</linearGradient>
            <polygon class="st75" points="165.98,247.14 157.85,251.22 150.52,237.57 158.65,233.49 			"/>
            <linearGradient id="SVGID_58_" gradientUnits="userSpaceOnUse" x1="149.9815" y1="244.6651" x2="157.8527"
                            y2="244.6651">
				<stop offset="0" style="stop-color:#F7EDD5"/>
                <stop offset="0.157" style="stop-color:#F6EBD0"/>
                <stop offset="1" style="stop-color:#F2E1BA"/>
			</linearGradient>
            <polygon class="st76" points="150.52,237.57 149.98,238.11 157.32,251.76 157.85,251.22 			"/>
            <polygon class="st65" points="165.44,247.69 165.98,247.14 157.85,251.22 157.32,251.76 			"/>
		</g>
            <path class="st4" d="M159.99,250.15c0,0-4.32-4.51-4.91-5.61c-0.59-1.1-0.55-1.98-0.7-3.26c-0.15-1.28,0.94-3.06,0.42-3.4
			c-1.32-0.87-1.43,1.68-1.92,2.34c-0.49,0.66-1.62,0.43-1.62,0.43s-0.77-0.96-1.35-1.74s-1.01-1.34-1.01-1.34s-0.26,1.5,0.4,3.42
			c0.51,1.49,1.82,3.41,2.63,4.43c0.82,1.02,1.75,4,3.17,6.35c1.43,2.35,1.57,3.58,3.61,3.64c0.92-0.21,2.79-1.91,2.86-3.07
			C161.65,251.18,159.99,250.15,159.99,250.15z"/>
            <g>
			<linearGradient id="SVGID_59_" gradientUnits="userSpaceOnUse" x1="159.0428" y1="235.2599" x2="160.9398"
                            y2="235.2599">
				<stop offset="5.181350e-03" style="stop-color:#9E8241"/>
                <stop offset="0.409" style="stop-color:#92732A"/>
                <stop offset="1" style="stop-color:#825F0C"/>
			</linearGradient>
                <polygon class="st77"
                         points="160.03,233.78 159.33,235.45 159.04,236.74 159.94,235.78 160.94,233.96 			"/>
                <path class="st4" d="M169.97,242.2c0.94-1.35,1.93-2.66,2.86-4.02c-1.93-2.73-6.35-5.44-7.6-6.92c-1.42-1.69-2.83-1.17-4.11,0.26
				c-1.29,1.43-1.95,1.94-1.95,1.94c0.17,0.46,0.26,0.34,0.86,0.32c-0.18,0.31-0.06,0.44,0.18,0.41c0.77-0.1,1.17-0.1,1.75,0.2
				c0.37,0.19,1.73,0.2,2.82,0.53c0.74,0.22,1.93,1.91,4.36,6.18C169.32,241.4,169.64,241.8,169.97,242.2z"/>
                <path class="st2" d="M161.18,233.12c0,0,1.03-0.08,1.54-0.47c0.51-0.39,0.27-0.88-0.26-0.95c-0.54-0.08-1.08,0.2-1.08,0.2
				L161.18,233.12z"/>
                <path class="st6"
                      d="M161.18,233.12l1.46-2.99l-0.75-0.28c0,0-1.28,2.78-1.78,3.79C160.35,233.3,160.78,233.09,161.18,233.12z"/>
                <path class="st67" d="M162.65,230.13c-0.05,0.13-0.25,0.16-0.46,0.09c-0.21-0.08-0.34-0.24-0.29-0.37
				c0.05-0.13,0.25-0.16,0.46-0.09C162.56,229.84,162.69,230,162.65,230.13z"/>
		</g>
            <linearGradient id="SVGID_60_" gradientUnits="userSpaceOnUse" x1="175.6171" y1="233.3642" x2="185.1413"
                            y2="233.3642">
			<stop offset="0" style="stop-color:#EAD092"/>
                <stop offset="0.6184" style="stop-color:#E4C374"/>
                <stop offset="1" style="stop-color:#E1BD66"/>
		</linearGradient>
            <path class="st78" d="M183.44,229.89c2.89,2.47,1.23,7.72,1.23,7.72s-8.4,0.9-8.88-1.33c-0.48-2.23,0.24-5.7,0.24-5.7
			S180.54,227.42,183.44,229.89z"/>
            <path class="st33" d="M170.26,252.34c0,0-5.14,2.27-9.66,4.4c-4.46,1.01-6.02,5.09-6.02,5.09l5,2.96c0,0,10.36-1.91,11.44-5.5
			C172.11,255.7,170.26,252.34,170.26,252.34z"/>
            <path class="st1" d="M163.38,259.29c0,0,0.82-2.4-2.78-2.55c-3.6-0.15-5.38,0.55-7.61-0.55c-2.23-1.1-2.91-0.14-3.59,1.42
			c-0.68,1.56,0.19,5.36,2.47,5.36C154.15,262.97,163.51,262.4,163.38,259.29z"/>
            <path class="st36" d="M154.59,258.01c2.24,0.03,7,0.25,10.27,0.55c1.49,0.14,4.74,0.21,4.74,0.21s5,1.95,3.35,4.19
			c-1.65,2.24-5.59,5.16-8.98,4.79c-3.4-0.37-12.09-4.79-12.09-4.79l-3.94-2.31C147.93,260.66,152.15,257.97,154.59,258.01z"/>
            <path class="st33" d="M155.53,259.29c0,0,4.05-0.02,5.96,0.45c2.29,0.56,6.14,0.76,6.14,0.76l-1.37,2.95c0,0-0.54,0.95-4.48,0
			C157.84,262.49,155.53,259.29,155.53,259.29z"/>
            <path class="st36" d="M155.53,259.29c2.62,0.73,6.57,1.69,10.12,2.54c3.19-9.49,15.41-8.77,15.41-8.77s1.6,6.12,2.9,10.01
			c2.38,7.09-0.96,10.1-4.45,12.04c-1.94,1.07-3.71,3.35-10.56,2.31c-6.84-1.04-17.32-5.85-19.39-8.31
			c-2.41-2.86-4.5-6.68-1.63-8.45c0.47-0.29,0.99-0.57,1.55-0.82C151.15,259.09,153.22,258.65,155.53,259.29z"/>
            <g>
			<path class="st4" d="M174.26,216.21c1.8-1.25,5.25-0.86,6.75,2.31c0.83,1.75-0.34,6.47-0.53,9.78c-0.15,2.67,0.75,4.21,0.75,4.21
				s0,0-2.29,0.94c-2.29,0.94-4.68,0-4.68,0l0.07-4.07c0,0-1.93,0.01-2.47-0.22c-0.98-0.41-2.04-1.66-1.43-6.49
				C171.13,217.23,173.6,216.67,174.26,216.21z"/>
                <path class="st6" d="M178.43,214.47c2.27,0.75,5.01,1.34,5,6.66c-0.01,4.05-2.4,5.39-3.86,8.97c-3.79-1.8-5.63-4.81-6.23-5.44
				c-1.37-1.43-2.9-1.98-3.07-3.85C169.9,216.97,173.44,212.82,178.43,214.47z"/>
                <path class="st4"
                      d="M173.91,223.48c0.57,2.28-1.41,3.04-1.41,3.04l-0.63-3.04C171.87,223.48,173.3,221.03,173.91,223.48z"/>
                <linearGradient id="SVGID_61_" gradientUnits="userSpaceOnUse" x1="178.3078" y1="215.393" x2="180.8658"
                                y2="219.8237">
				<stop offset="0" style="stop-color:#EAD092"/>
                    <stop offset="0.2888" style="stop-color:#E9CE8D"/>
                    <stop offset="0.6158" style="stop-color:#E6C880"/>
                    <stop offset="0.9603" style="stop-color:#E2BE69"/>
                    <stop offset="1" style="stop-color:#E1BD66"/>
			</linearGradient>
                <path class="st79"
                      d="M179.56,214.76l1.5,4.95c0,0-2.92-0.22-3-2.47C177.99,214.99,179.56,214.76,179.56,214.76z"/>
                <path class="st6" d="M185.99,213.28c1.82,3.63-1.48,4.44,0.25,7.37c1.15,1.95,3.95,2.11,3.95,2.11s-1.5,3.23-5.49,1.36
				c-3.66-1.72-6.13-5.94-5.42-9.54C179.98,210.97,184.76,210.84,185.99,213.28z"/>
		</g>
            <linearGradient id="SVGID_62_" gradientUnits="userSpaceOnUse" x1="176.0224" y1="231.1603" x2="176.0224"
                            y2="260.622">
			<stop offset="0" style="stop-color:#EAD092"/>
                <stop offset="0.2888" style="stop-color:#E9CE8D"/>
                <stop offset="0.6158" style="stop-color:#E6C880"/>
                <stop offset="0.9603" style="stop-color:#E2BE69"/>
                <stop offset="1" style="stop-color:#E1BD66"/>
		</linearGradient>
            <path class="st80" d="M174.69,232.21c2.07-0.58,5.31-0.35,6.05-1.05c1.66,0.77,2.46,1.94,3.44,3.82
			c0.98,1.88,0.73,5.01-0.74,10.68c-1.2,4.61-1.52,7.11-1.5,9.79c0,0.32,0.43,2.14,0.48,2.53c-3.06,3.34-10.51,3.57-14.63,0.34
			c0-1.8,1.1-8.82-0.08-12.44c-1.96-5.98,3.51-11.61,3.51-11.61S172.36,232.86,174.69,232.21z"/>
            <path class="st9" d="M175.36,231.55c3.65,0,5.94-1.45,5.94-1.45l0.33,1.7c0,0-2.23,1.88-4.8,1.76c-2.58-0.11-4.26-0.42-4.26-0.42
			S173.33,231.55,175.36,231.55z"/>
            <path class="st4" d="M162.97,243.16l-5.59,6.29c0,0-0.66,5.95,1.33,5.95c1.48,0,3.66-1.92,5.49-4.19c1.83-2.27,3.6-4.07,3.6-4.07
			L162.97,243.16z"/>
            <g>
			<linearGradient id="SVGID_63_" gradientUnits="userSpaceOnUse" x1="162.7309" y1="240.8858" x2="174.0162"
                            y2="240.8858">
				<stop offset="0" style="stop-color:#EAD092"/>
                <stop offset="0.1483" style="stop-color:#E8CC8A"/>
                <stop offset="0.6814" style="stop-color:#E3C170"/>
                <stop offset="1" style="stop-color:#E1BD66"/>
			</linearGradient>
                <path class="st81" d="M166.15,235.99c2.08-2.09,4.93-2.08,6.39-0.14c1.82,2.41,1.78,5.55,0.78,6.73
				c-2.55,3.03-5.91,4.79-5.91,4.79l-4.69-3.08C162.73,244.29,164.13,238.01,166.15,235.99z"/>
                <path class="st9" d="M161.99,244.27l1.06-1.71c0,0,0.74,1.67,2.05,2.65c1.31,0.98,3.14,1.82,3.14,1.82l-1.47,1.22
				c0,0-2.21-0.84-3.23-2.02C162.33,244.83,161.99,244.27,161.99,244.27z"/>
		</g>
	</g>
        <g>
		<g>
			<linearGradient id="SVGID_64_" gradientUnits="userSpaceOnUse" x1="177.5257" y1="274.5677" x2="188.5281"
                            y2="274.5677">
				<stop offset="0" style="stop-color:#ACCCD3"/>
                <stop offset="0.3132" style="stop-color:#B1CFD5"/>
                <stop offset="0.6672" style="stop-color:#BED7DD"/>
                <stop offset="1" style="stop-color:#D2E3E7"/>
			</linearGradient>
            <path class="st82" d="M187.53,266.53c0,0-0.71-2.27-2.02-1.87c-1.78,0.55-6.89,3.26-7.98,4.04c0.27,0.54,8.33,15.81,8.33,15.81
				l2.67-1.69L187.53,266.53z"/>
            <linearGradient id="SVGID_65_" gradientUnits="userSpaceOnUse" x1="181.7663" y1="284.5198" x2="181.7663"
                            y2="268.6144">
				<stop offset="0" style="stop-color:#A5C8D0"/>
                <stop offset="0.5246" style="stop-color:#90BBC5"/>
                <stop offset="1" style="stop-color:#81B2BD"/>
			</linearGradient>
            <path class="st83" d="M179.4,270.6c0,0-0.43-1.35-1.22-1.85c-0.78-0.51-1.16,0.53-0.77,1.28c0.37,0.7,1.45,1.77,2.29,3.38
				c1.45,2.82,6.16,11.11,6.16,11.11l0.42-0.26L179.4,270.6z"/>
            <polygon class="st14" points="194.33,280.72 186.2,284.8 178.87,271.15 186.99,267.07 			"/>
            <linearGradient id="SVGID_66_" gradientUnits="userSpaceOnUse" x1="179.4023" y1="275.3922" x2="194.8644"
                            y2="275.3922">
				<stop offset="0" style="stop-color:#F9F2E1"/>
                <stop offset="0.4596" style="stop-color:#F5F2E6"/>
                <stop offset="0.9794" style="stop-color:#EBF2F3"/>
                <stop offset="1" style="stop-color:#EAF2F4"/>
			</linearGradient>
            <polygon class="st84" points="194.86,280.18 186.74,284.25 179.4,270.6 187.53,266.53 			"/>
            <linearGradient id="SVGID_67_" gradientUnits="userSpaceOnUse" x1="178.8659" y1="277.7013" x2="186.7369"
                            y2="277.7013">
				<stop offset="0" style="stop-color:#F7EDD5"/>
                <stop offset="0.157" style="stop-color:#F6EBD0"/>
                <stop offset="1" style="stop-color:#F2E1BA"/>
			</linearGradient>
            <polygon class="st85" points="179.4,270.6 178.87,271.15 186.2,284.8 186.74,284.25 			"/>
            <polygon class="st65" points="194.33,280.72 194.86,280.18 186.74,284.25 186.2,284.8 			"/>
		</g>
            <g>
			<linearGradient id="SVGID_68_" gradientUnits="userSpaceOnUse" x1="187.9271" y1="268.2962" x2="189.824"
                            y2="268.2962">
				<stop offset="5.181350e-03" style="stop-color:#9E8241"/>
                <stop offset="0.409" style="stop-color:#92732A"/>
                <stop offset="1" style="stop-color:#825F0C"/>
			</linearGradient>
                <polygon class="st86"
                         points="188.91,266.81 188.21,268.49 187.93,269.78 188.82,268.82 189.82,266.99 			"/>
                <path class="st4" d="M198.85,275.23c0.94-1.35,1.93-2.66,2.86-4.02c-1.93-2.73-6.35-5.44-7.6-6.92
				c-1.42-1.69-2.83-1.17-4.11,0.26c-1.29,1.43-1.95,1.94-1.95,1.94c0.17,0.46,0.26,0.34,0.86,0.32c-0.18,0.31-0.06,0.44,0.18,0.41
				c0.77-0.1,1.17-0.1,1.75,0.2c0.37,0.19,1.73,0.2,2.82,0.53c0.74,0.22,1.93,1.91,4.36,6.18
				C198.2,274.44,198.52,274.84,198.85,275.23z"/>
                <path class="st2"
                      d="M190.07,266.15c0,0,1.03-0.08,1.54-0.47c0.51-0.39,0.27-0.88-0.26-0.95s-1.08,0.2-1.08,0.2L190.07,266.15z"
                />
                <path class="st6"
                      d="M190.07,266.15l1.46-2.99l-0.75-0.28c0,0-1.28,2.78-1.78,3.79C189.23,266.34,189.67,266.12,190.07,266.15z"
                />
                <path class="st67" d="M191.53,263.17c-0.05,0.13-0.25,0.16-0.46,0.09c-0.21-0.08-0.34-0.24-0.29-0.37
				c0.05-0.13,0.25-0.16,0.46-0.09C191.45,262.88,191.58,263.04,191.53,263.17z"/>
		</g>
            <path class="st33" d="M199.14,288.66c0,0-5.49,3.78-9.26,6.36c-3.78,2.58-5,3.14-5,3.14l5,2.96c0,0,10.36-1.91,11.44-5.5
			C202.4,292.02,199.14,288.66,199.14,288.66z"/>
            <path class="st36" d="M184.88,294.33c2.24,0.03,7,0.25,10.27,0.55c1.49,0.14,4.74,0.21,4.74,0.21s5,1.95,3.35,4.19
			c-1.65,2.24-5.59,5.16-8.98,4.79c-3.4-0.37-12.09-4.79-12.09-4.79l-3.94-2.31C178.22,296.98,182.44,294.29,184.88,294.33z"/>
            <path class="st37" d="M213.52,267.79c2.45,2.31,3.71,8.4-0.28,11.88c-3.99,3.48-5.46-11.28-5.46-11.28
			C209.29,267.67,210.56,265.02,213.52,267.79z"/>
            <path class="st4" d="M202.42,251.21c1.88-1.31,5.5-0.9,7.07,2.42c0.87,1.84-0.36,6.78-0.55,10.24c-0.16,2.8,0.78,4.41,0.78,4.41
			s0,0-2.4,0.99c-2.4,0.99-4.9,0-4.9,0l0.08-4.27c0,0-1.77-0.07-2.23-0.49c-1.09-1-2.36-2.71-1.86-6.53
			C199.17,252.29,201.73,251.69,202.42,251.21z"/>
            <path class="st33" d="M185.83,295.61c0,0,4.05-0.02,5.96,0.45c2.29,0.56,6.14,0.76,6.14,0.76l-1.37,2.95c0,0-0.54,0.95-4.48,0
			C188.14,298.81,185.83,295.61,185.83,295.61z"/>
            <path class="st36" d="M185.83,295.61c5.83,1.62,18.23,4.42,18.23,4.42s8.9-4.54,10.2-0.65c2.38,7.09-0.96,10.1-4.45,12.04
			c-1.94,1.07-3.71,3.35-10.56,2.31c-6.84-1.04-17.32-5.85-19.39-8.3c-2.41-2.86-4.5-6.68-1.63-8.45c0.47-0.29,0.99-0.57,1.55-0.82
			C181.45,295.4,183.51,294.97,185.83,295.61z"/>
            <path class="st6" d="M195.95,281.82c-1.42-3.02-0.43-8.24,0.47-10.21c0.9-1.97,6.01-3.44,6.01-3.44l7.38-0.87
			c0,0,4.43,1.43,4.43,8.06c0,4-0.66,7.12-1.29,12.15c-0.17,1.4-0.68,4.7,1.68,10.75c0.13,0.33,0.24,0.79,0.34,1.34
			c-1.2,3.35-7.81,6.71-10.91,6.66c-2.07-0.03-4.62-0.47-6.44-1.77c-1.82-1.29-2.54-2.02-1.71-5.48
			C196.17,297.92,198.84,288,195.95,281.82z"/>
            <path class="st37" d="M202.47,266.96c0,0,2.19,0.88,4.65,0c2.46-0.88,2.46-0.88,2.46-0.88l0.82,1.75c0,0-0.37,1.2-2.81,1.98
			c-2.44,0.78-4.64,0.63-7.04-0.56C200.53,267.66,202.47,266.96,202.47,266.96z"/>
            <path class="st6" d="M205.86,248.54c3.37,0,6.35,2.44,6.35,9.78c0,1.5-1.39,4.04-2.68,5.37c-0.64,0.66-1.4,1.36-1.56,2.29
			c-2.61-0.31-5.08-4.42-6.51-5.92c-1.43-1.5-3.15-2.57-4.12-4.24c-0.14-1.46-0.02-4.47,2.58-4.59
			C200.97,249.95,201.88,248.54,205.86,248.54z"/>
            <path class="st4"
                  d="M202.06,258.83c0.6,2.38-1.48,3.19-1.48,3.19l-0.66-3.19C199.92,258.83,201.42,256.26,202.06,258.83z"/>
            <path class="st4" d="M197.79,273.23c0,0-2.09-0.3-3.55,1.3c-1.32,1.45-6.54,7.67-7.51,8.83c-0.06,1.47,1.13,3.67,2.14,4.99
			c2.93-0.31,6.68-4.85,8.19-7.04C198.87,278.69,201.84,276.54,197.79,273.23z"/>
            <path class="st37" d="M195.53,285.15c2.2-2.7,4.64-5.41,5.39-8.69c0.89-3.89-0.48-5.24-0.48-5.24c-2.29-1.66-5.22-1.31-7.84,2.76
			c-0.88,1.37-2.04,3.14-3.12,4.89C190.26,281.79,192.77,284.04,195.53,285.15z"/>
            <path class="st6" d="M214.72,273.4c-1.05-2.87-5.07-5.22-5.2-8.24c-0.01-0.31,0.08-0.62,0.22-0.94c-1.05,0.47-2.17,0.82-3.3,1.09
			c1.05,1.28,0.87,7.63,3.09,12.21c2.47,5.09,1.03,6.02,1.03,6.02S217.6,281.26,214.72,273.4z"/>
            <path class="st37" d="M210.17,262.98c0,0,0.07,2.31-0.3,2.7c-0.49,0.53-2.32,1.12-2.99,0.86c-0.58-0.22-1.42-1.39-1.5-1.97
			C207.75,264.37,210.17,262.98,210.17,262.98z"/>
            <path class="st4" d="M188.88,283.18c0,0-4.32-4.51-4.91-5.61c-0.59-1.1-0.55-1.98-0.7-3.26c-0.15-1.28,0.94-3.06,0.42-3.4
			c-1.32-0.87-1.43,1.68-1.92,2.34c-0.49,0.66-1.62,0.43-1.62,0.43s-0.77-0.96-1.35-1.74c-0.58-0.78-1.01-1.34-1.01-1.34
			s-0.27,1.5,0.4,3.42c0.51,1.49,1.82,3.41,2.63,4.43c0.81,1.02,1.75,4,3.17,6.35c1.43,2.35,1.57,3.58,3.61,3.64
			c2.04,0.06,2.52-0.62,2.59-1.77C190.26,285.51,188.88,283.18,188.88,283.18z"/>
	</g>
        <g>
		<path class="st6" d="M225.87,232.18c0,0,2.86,2.91,3.55,3.92c0.69,1.01,0.45,2.33-1.2,3.83c-1.65,1.5-2.68,0.42-4.02-1.04
			c-1.34-1.47-4.89-4.24-5.58-5.4C217.92,232.33,225.87,232.18,225.87,232.18z"/>
            <linearGradient id="SVGID_69_" gradientUnits="userSpaceOnUse" x1="203.5929" y1="226.7473" x2="244.1939"
                            y2="226.7473">
			<stop offset="5.181350e-03" style="stop-color:#9E8241"/>
                <stop offset="0.6569" style="stop-color:#8A691B"/>
                <stop offset="1" style="stop-color:#825F0C"/>
		</linearGradient>
            <path class="st87" d="M237.34,218.38c0,0,4.58,4.17,6.18,9.75c0.47,1.63,1.26,4.21-0.05,8.1c-0.4,1.21-3.03,3.22-6.35,3.22
			c-4.21-0.4-2.8-2.68-5.34-4.15c-3.33-1.92-5.52-5.1-7.77-6.12c-2.01-0.91-4.39,1.51-7.71,1.28c-2.7-0.19-6.69-2.42-8.12-3.56
			c-1.65-1.33-2.5-2.53-3.41-4.4c-0.78-1.59-1.57-2.86-1.01-4.29c0.61-1.58,1.25-2.81,3.17-3.22c7.42-1.59,16.94-0.69,16.94-0.69
			S235.91,217.46,237.34,218.38z"/>
            <path class="st37" d="M217.72,205.49c2.99-6.45,3.62-16.17,3.62-16.17l-0.79-1.23c0,0-3.27-0.37-6.15,5.48
			c-1.7,3.44-2.79,7.25-4.42,9.67c-2.44,3.63-5.46,4.92-8.23,7.33c1.19,0.64,0.97,4.95,4.91,3.54
			C213.36,211.71,216.93,209.33,217.72,205.49z"/>
            <path class="st33" d="M234.89,227.12c0,0-4.83,0.32-7.51,0.39c-2.68,0.07-4.88,0.01-4.88,0.01s-3.88-3.74-5.83-5.49
			c-1.96-1.75-3.85-3.1-3.85-3.1s5.21,1.45,6.18,2.21c0.69-1.57,1.85-3.82,1.85-3.82l9.28,2.7c0,0-2.59,1.52-3.35,2.19
			c-1.1,0.98-0.61,1.76-0.61,1.76S232.46,225.55,234.89,227.12z"/>
            <path class="st6" d="M220.55,188.09c0,0-2.01,0.78-4.26,8.74c-0.73,2.6,0.45,10.64,0.48,16.57c-1.38,0.8-1.73,1.5-1.73,1.5
			s3.45,7.49,13.56,6.05c5.93-0.84,10.71-0.27,10.71-0.27s0.3-1.09-1.01-2.9c-1.06-1.46,0.51-1.69,0.4-2.43
			c-0.15-0.99-0.74-1.21-1.14-2.76c-1.5-5.87-0.56-14.61-1.85-17.74c-1.02-2.48-6.26-4.38-6.26-4.38S224.99,186.34,220.55,188.09z"
            />
            <g>
			<path class="st2"
                  d="M222.44,188.73l-0.29,4.17c0,0,0.55,0.82,1.96,2.02c1.51-0.47,5-3.71,5-3.71l-1.16-6.47L222.44,188.73z"/>
                <path class="st4" d="M229.75,178.85c-1.08-2.3-5.1-4.94-8.93-1.36c-4.02,3.75-2.44,11.31,0.52,11.83
				c1.51,0.27,4.51-0.47,6.5-2.51C230.09,184.51,230.59,180.63,229.75,178.85z"/>
		</g>
            <path class="st15" d="M222.33,190.35l0.37,3.38l-2.75,1.12C219.95,194.84,219.64,191.24,222.33,190.35z"/>
            <path class="st15" d="M228.87,189.87c0,0-0.85,1.59-2.82,2.7c-1.01,0.57-3.35,1.15-3.35,1.15l1.03,3.1c0,0,3.27-1.32,4.87-2.6
			C228.61,194.23,230.74,191.7,228.87,189.87z"/>
            <g>
			<polygon class="st14" points="217.1,211.77 216.77,213.07 217.29,216.53 217.57,215 			"/>
                <path class="st15" d="M201.45,207.03c0,0,3.69,1.88,4.91,2.77c1.22,0.89,1.52,2.04,1.52,2.04s0.84-0.96,3.09-0.91
				c2.25,0.05,6.13,0.84,6.13,0.84l-0.33,1.3l-10.11,1.04l-6.61-6.42L201.45,207.03z"/>
                <g>
				<linearGradient id="SVGID_70_" gradientUnits="userSpaceOnUse" x1="199.6438" y1="215.3964" x2="209.1525"
                                y2="215.3964">
					<stop offset="0" style="stop-color:#A5C8D0"/>
                    <stop offset="0.5246" style="stop-color:#90BBC5"/>
                    <stop offset="1" style="stop-color:#81B2BD"/>
				</linearGradient>
                    <polygon class="st88"
                             points="199.64,207.11 207.14,212.99 209.15,223.68 201.66,217.8 				"/>
                    <linearGradient id="SVGID_71_" gradientUnits="userSpaceOnUse" x1="207.1407" y1="218.1353"
                                    x2="219.5791" y2="218.1353">
					<stop offset="0" style="stop-color:#A5C8D0"/>
                        <stop offset="0.5246" style="stop-color:#90BBC5"/>
                        <stop offset="1" style="stop-color:#81B2BD"/>
				</linearGradient>
                    <polygon class="st89"
                             points="207.14,212.99 209.15,223.68 219.58,223.28 217.57,212.59 				"/>
                    <linearGradient id="SVGID_72_" gradientUnits="userSpaceOnUse" x1="199.6438" y1="209.9313"
                                    x2="217.7234" y2="209.9313">
					<stop offset="0" style="stop-color:#ACCCD3"/>
                        <stop offset="0.3132" style="stop-color:#B1CFD5"/>
                        <stop offset="0.6672" style="stop-color:#BED7DD"/>
                        <stop offset="1" style="stop-color:#D2E3E7"/>
				</linearGradient>
                    <polygon class="st90"
                             points="207.55,212.75 200.05,206.87 199.64,207.11 207.14,212.99 217.57,212.59 217.72,212.35 				"/>
                    <linearGradient id="SVGID_73_" gradientUnits="userSpaceOnUse" x1="218.6514" y1="212.3481"
                                    x2="218.6514" y2="223.2784">
					<stop offset="0" style="stop-color:#8BB8C2"/>
                        <stop offset="0.5426" style="stop-color:#74AAB6"/>
                        <stop offset="0.9948" style="stop-color:#65A1AE"/>
				</linearGradient>
                    <polygon class="st91"
                             points="217.72,212.35 217.57,212.59 219.58,223.28 219.74,223.04 				"/>
			</g>
                <path class="st14" d="M202.59,208.16c0,0,1.72,1.1,2.59,1.77c0.87,0.67,1.96,1.84,1.96,1.84s-0.5-1.15-1.78-2.1
				C204.08,208.73,202.59,208.16,202.59,208.16z"/>
                <path class="st14" d="M208.15,212c0,0,1.28-0.72,2.96-0.56C212.79,211.6,215,212,215,212s-2.83-0.19-4.05-0.23
				C209.73,211.72,208.15,212,208.15,212z"/>
		</g>
            <path class="st4" d="M200.29,210.57c-0.76,0.37-0.65,3,0.88,4.02c1.29,0.86,2.22,0,1.25-1.83
			C201.45,210.93,200.29,210.57,200.29,210.57z"/>
            <path class="st4" d="M220.95,216.63c-0.5-0.58-1.73-1.47-2.74-1.7c0.03,0.17,0.3,1.6,0.3,1.6s-1.86,0.12-3.51,0.6
			c-1.38,0.4-3.31,0.75-1.37,2.94c0.71,0.8,3.08,1.24,6.3,1.37c1.44,0.06,5.3-0.38,5.3-0.38v-3.45
			C225.23,217.61,221.86,217.69,220.95,216.63z"/>
            <path class="st37" d="M223.73,217.55c0.97-0.13,0.81,1.79,0.81,3.59c4.85,0.85,11.37-0.53,14.08-3.82
			c1.02-1.24,2.13-1.53,2.27-3.26c0.37-4.8-0.94-10.78-1.54-13.42c-1.45-6.37-3.13-7.12-5.72-8.03c-1.37,0.45-4.42,2.12-3.49,7.25
			c1.17,6.41,1.55,8.41,2.71,11.57c-2.31,0.99-5.41,2.16-6.51,3.07C224.66,215.86,223.73,216.58,223.73,217.55z"/>
            <path class="st6" d="M228.63,176.08c-1.87-3.71-6.23-3.35-8.44-0.71c-2.13,2.54-2.04,2.55-3.66,3.49c3.59,3.78,8.2,1.89,9.83,1.31
			c-0.78,2.28,0.21,4.45,0.52,4.42c0.5-0.96,0.99-1.09,1.39-0.55c0.45,0.61-0.06,2.46-0.06,2.46s2.54-1.35,3.23-4.41
			C231.87,180.17,232.08,177.16,228.63,176.08z"/>
            <path class="st6" d="M215.17,227.03c0,0-3.23-0.98-4.79-1.57c-0.9-0.34-1.94-0.43-3.4,0.28c-1.3,0.14-3.67,0.42-4.93,0.83
			c-1.82,0.59-2.47,1.62-2.91,3.73c-0.4,1.9,4.36,2.2,6.88,1.99c2.52-0.21,5.62,1.08,7.32,0.43
			C215.04,232.06,215.17,227.03,215.17,227.03z"/>
            <linearGradient id="SVGID_74_" gradientUnits="userSpaceOnUse" x1="210.7174" y1="232.3401" x2="243.404"
                            y2="232.3401">
			<stop offset="5.181350e-03" style="stop-color:#9E8241"/>
                <stop offset="0.6569" style="stop-color:#8A691B"/>
                <stop offset="1" style="stop-color:#825F0C"/>
		</linearGradient>
            <path class="st92" d="M242.13,231.52c0,0-10.7-2.87-15.03-3.64c-4.33-0.77-10.3-2.55-12.55-2.67c-1.61,0.83-3,2.34-3.68,4.57
			c-0.56,1.85,0.68,4.49,0.68,4.49s9.25,0.61,12.77,1.9c3.52,1.29,10.33,3.57,12.82,3.28C247.19,238.62,242.13,231.52,242.13,231.52
			z"/>
            <path class="st15" d="M222.7,217.37l2.09-1.58c0,0,1.08,0.48,1.38,2.4c0.3,1.92,0,3.26,0,3.26h-3.07
			C223.1,221.44,223.43,220.07,222.7,217.37z"/>
	</g>
        <g>
		<g>
			<linearGradient id="SVGID_75_" gradientUnits="userSpaceOnUse" x1="276.1876" y1="245.6992" x2="286.8998"
                            y2="245.6992">
				<stop offset="0" style="stop-color:#ACCCD3"/>
                <stop offset="0.3132" style="stop-color:#B1CFD5"/>
                <stop offset="0.6672" style="stop-color:#BED7DD"/>
                <stop offset="1" style="stop-color:#D2E3E7"/>
			</linearGradient>
            <path class="st93" d="M285.93,237.87c0,0-0.69-2.21-1.97-1.82c-1.73,0.54-6.71,3.17-7.77,3.93c0.26,0.53,8.11,15.4,8.11,15.4
				l2.6-1.64L285.93,237.87z"/>
            <linearGradient id="SVGID_76_" gradientUnits="userSpaceOnUse" x1="280.3163" y1="255.3889" x2="280.3163"
                            y2="239.903">
				<stop offset="0" style="stop-color:#A5C8D0"/>
                <stop offset="0.5246" style="stop-color:#90BBC5"/>
                <stop offset="1" style="stop-color:#81B2BD"/>
			</linearGradient>
            <path class="st94" d="M278.01,241.84c0,0-0.42-1.31-1.18-1.81c-0.76-0.5-1.13,0.52-0.75,1.25c0.36,0.68,1.41,1.72,2.23,3.29
				c1.42,2.75,5.99,10.82,5.99,10.82l0.41-0.26L278.01,241.84z"/>
            <polygon class="st14" points="292.55,251.69 284.63,255.66 277.49,242.37 285.41,238.4 			"/>
            <linearGradient id="SVGID_77_" gradientUnits="userSpaceOnUse" x1="278.0147" y1="246.5021" x2="293.0691"
                            y2="246.5021">
				<stop offset="0" style="stop-color:#F9F2E1"/>
                <stop offset="0.4596" style="stop-color:#F5F2E6"/>
                <stop offset="0.9794" style="stop-color:#EBF2F3"/>
                <stop offset="1" style="stop-color:#EAF2F4"/>
			</linearGradient>
            <polygon class="st95" points="293.07,251.16 285.16,255.13 278.01,241.84 285.93,237.87 			"/>
            <linearGradient id="SVGID_78_" gradientUnits="userSpaceOnUse" x1="277.4925" y1="248.7502" x2="285.1558"
                            y2="248.7502">
				<stop offset="0" style="stop-color:#F7EDD5"/>
                <stop offset="0.157" style="stop-color:#F6EBD0"/>
                <stop offset="1" style="stop-color:#F2E1BA"/>
			</linearGradient>
            <polygon class="st96" points="278.01,241.84 277.49,242.37 284.63,255.66 285.16,255.13 			"/>
            <polygon class="st65" points="292.55,251.69 293.07,251.16 285.16,255.13 284.63,255.66 			"/>
		</g>
            <path class="st4" d="M276.45,241.84c0,0,0.42,0.55,0.98,1.31c0.56,0.76,1.31,1.69,1.31,1.69s1.1,0.23,1.58-0.42
			c0.48-0.65,0.58-3.12,1.87-2.28c0.5,0.33-0.56,2.06-0.41,3.31c0.15,1.24,0.1,2.1,0.68,3.17c0.58,1.07,4.78,5.47,4.78,5.47
			s0.02,0.02,0.04,0.03c1.78-1.9,9.4-9.92,11.21-9.69c1.41,0.18,1.58,2.91,0.72,6.02c-0.66,2.4-4.09,6.17-7.26,8.7l0,0
			c0,0-1.94,1.4-3.36,1.67c-1.52,0.29-3.05-0.52-4.2-2.14c0,0,0,0,0,0c-0.65-0.57-1.03-1.57-1.9-3.01c-1.39-2.28-2.3-5.19-3.09-6.18
			c-0.79-0.99-2.06-2.86-2.56-4.31C276.19,243.3,276.45,241.84,276.45,241.84z"/>
            <g>
			<linearGradient id="SVGID_79_" gradientUnits="userSpaceOnUse" x1="286.3147" y1="239.5931" x2="288.1615"
                            y2="239.5931">
				<stop offset="5.181350e-03" style="stop-color:#9E8241"/>
                <stop offset="0.409" style="stop-color:#92732A"/>
                <stop offset="1" style="stop-color:#825F0C"/>
			</linearGradient>
                <polygon class="st97"
                         points="287.28,238.15 286.59,239.78 286.31,241.04 287.19,240.1 288.16,238.33 			"/>
                <path class="st4" d="M296.95,246.35c0.92-1.31,1.88-2.59,2.78-3.92c-1.88-2.65-6.18-5.29-7.4-6.74
				c-1.38-1.65-2.75-1.14-4.01,0.25c-1.25,1.39-1.9,1.89-1.9,1.89c0.17,0.45,0.26,0.33,0.84,0.31c-0.17,0.3-0.06,0.43,0.18,0.4
				c0.75-0.1,1.14-0.1,1.7,0.19c0.36,0.19,1.69,0.19,2.74,0.51c0.72,0.22,1.88,1.86,4.25,6.02
				C296.32,245.58,296.63,245.96,296.95,246.35z"/>
                <path class="st2" d="M288.4,237.51c0,0,1-0.08,1.5-0.46c0.49-0.38,0.27-0.85-0.26-0.93c-0.52-0.08-1.05,0.2-1.05,0.2
				L288.4,237.51z"/>
                <path class="st6"
                      d="M288.4,237.51l1.43-2.91l-0.73-0.28c0,0-1.24,2.71-1.74,3.69C287.58,237.69,288.01,237.48,288.4,237.51z"/>
                <path class="st67" d="M289.82,234.6c-0.05,0.12-0.25,0.16-0.45,0.08c-0.2-0.08-0.33-0.24-0.28-0.36
				c0.05-0.12,0.25-0.16,0.45-0.08C289.74,234.32,289.87,234.48,289.82,234.6z"/>
		</g>
            <g>
			<path class="st33" d="M312.59,279.43c0,0-0.6-0.36-1.21-0.75c-0.78-0.5-2.12,0.44-1.36,0.94c0.75,0.49,1.13,0.74,1.13,0.74
				L312.59,279.43z"/>
		</g>
            <path class="st33" d="M304.21,316.2c0.99-0.62,6.02,2.31,6.02,2.31l6.48,2.18l0,4.64c0,0-2.54,3.38-5.96,1.08
			c-2.04-1.37-5.61-3.51-6.75-5.85C302.86,318.22,303.22,316.82,304.21,316.2z"/>
            <path class="st33" d="M288.75,323.83c0.99-0.62,6.02,2.31,6.02,2.31l6.94,2.33l-0.53,5.22c0,0-2.47,2.64-5.89,0.34
			c-2.04-1.37-5.61-3.51-6.75-5.85C287.4,325.84,287.76,324.45,288.75,323.83z"/>
            <path class="st6" d="M313.15,265.98c0,0,2.8,5.49,3.29,12.11c0.22,2.98-1.41,19.74-1.41,19.74s0.76,2.19,1.37,6.42
			c0.76,5.33,1.29,18.67,1.3,18.17c0,0-1.72,2.35-4.04,2.39c-2.81,0.05-5-3.36-5-3.36s-3.1-18.41-3.29-23.1
			c-0.12-2.94,0.26-13.51,0.26-13.51s-3.01,14.02-2.78,17.59c0.23,3.58-0.46,24.64-0.65,26.11c-0.6,2.14-2.34,2.75-4.22,3.16
			c-2.37,0.53-5.48-3.87-5.48-3.87s0.18-23.91,0-27.67c-0.31-6.42,2.82-31.57,2.82-31.57L313.15,265.98z"/>
            <linearGradient id="SVGID_80_" gradientUnits="userSpaceOnUse" x1="307.6626" y1="241.8067" x2="314.3705"
                            y2="241.8067">
			<stop offset="0" style="stop-color:#EAD092"/>
                <stop offset="0.1483" style="stop-color:#E8CC8A"/>
                <stop offset="0.6814" style="stop-color:#E3C170"/>
                <stop offset="1" style="stop-color:#E1BD66"/>
		</linearGradient>
            <path class="st98" d="M307.71,247.6c-0.3-0.24,0.95-4.21,0.95-4.21l-0.99-8.96c0,0,4.85,0.22,6.19,3.76
			c0.5,1.31,1.13,7.1-0.72,10.85C311.16,249.52,309.29,248.85,307.71,247.6z"/>
            <path class="st4" d="M302.18,221.79c1.89-1.31,5.52-0.9,7.1,2.43c0.87,1.84-0.36,6.8-0.56,10.28c-0.16,2.81,0.78,4.43,0.78,4.43
			s0,0-2.41,0.99c-2.41,0.99-4.92,0-4.92,0l0.08-4.28c0,0-2.59-0.38-3.05-0.8c-1.09-1-1.67-3.98-1.16-7.82
			C298.8,221.3,301.49,222.28,302.18,221.79z"/>
            <path class="st37" d="M295.67,254.23c-1.35-3.14,0.55-8.68,1.47-10.71c0.92-2.02,5.17-3.29,5.17-3.29l8.85-2.67
			c0,0,5.32,4.15,4.56,12.24c-0.27,2.86-0.26,13.72,0.06,21.65c-0.77,3.08-10.36,5.14-14.39,4.06c-1.25-0.33-5.33-0.84-6.63-3.31
			c-0.38-1.69,0.6-3.1,1.06-6.26C296.41,261.95,296.5,256.16,295.67,254.23z"/>
            <linearGradient id="SVGID_81_" gradientUnits="userSpaceOnUse" x1="300.7142" y1="239.3693" x2="311.8643"
                            y2="239.3693">
			<stop offset="0" style="stop-color:#EAD092"/>
                <stop offset="0.1483" style="stop-color:#E8CC8A"/>
                <stop offset="0.6814" style="stop-color:#E3C170"/>
                <stop offset="1" style="stop-color:#E1BD66"/>
		</linearGradient>
            <path class="st99" d="M302.61,239.04c0,0,4.65-1.22,6.98-2.42c1.42-0.73,2.28,2.42,2.28,2.42s-1.67,2.07-4.12,2.85
			c-2.45,0.78-4.63,0.12-7.03-1.07C300.7,239.24,302.61,239.04,302.61,239.04z"/>
            <linearGradient id="SVGID_82_" gradientUnits="userSpaceOnUse" x1="289.0815" y1="249.2394" x2="301.3581"
                            y2="249.2394">
			<stop offset="0" style="stop-color:#EAD092"/>
                <stop offset="0.1483" style="stop-color:#E8CC8A"/>
                <stop offset="0.6814" style="stop-color:#E3C170"/>
                <stop offset="1" style="stop-color:#E1BD66"/>
		</linearGradient>
            <path class="st100" d="M289.08,250.09c2.77-3.31,5.88-7.49,9.3-8.25c2.3-0.51,3.81,3.89,2.46,7.32c-0.85,2.16-2.56,5.4-4.69,7.51
			C293.28,255.93,289.82,253.03,289.08,250.09z"/>
            <path class="st6" d="M308.07,219.45c0.88-0.55,2,0.18,2.14,1.16c0.81-0.35,1.65,0.64,1.38,1.34c1.11-0.12,1.47,1.2,0.8,2.07
			c1.33,0.52,1.12,1.54,0.41,2.43c0.96,0.8,0.96,1.87-0.26,2.27c0.97,0.79,0.19,1.81-0.36,1.81c0.66,0.86,0.02,1.84-0.74,1.79
			c0.77,1.06,0,2.18-0.72,2.3c0.2,0.91-0.36,1.66-1.12,1.51c-0.4,1.76-2.24,1.02-2.39,0.38c-0.61,0.39-1.65,0.39-1.81-0.59
			c-0.99,0.52-2.21-1.2-1.66-2.1c-1.19-0.68-1.56-1.17-0.84-2.12c-1.47-0.11-1.8-0.93-1.27-2.02c-0.84,0.36-1.43,0.16-1.77-1.15
			c-0.94,0.15-1.87-1.09-1.06-2.2c-1.12-0.4-1.03-1.54-0.32-1.91c-0.84-0.24-1.16-2.11,0.24-2.2c-0.64-1.5,0.16-2.06,1.21-1.84
			c0.02-1.22,0.78-1.78,2.06-1.05c0.63-1.17,2.89-1.84,3.26-0.41C305.9,217.84,307.75,218.04,308.07,219.45z"/>
	</g>
</g>
</svg>
