<?xml version="1.0" encoding="utf-8"?>
<!-- Generator: Adobe Illustrator 24.1.3, SVG Export Plug-In . SVG Version: 6.00 Build 0)  -->
<svg version="1.1"
	 id="svg2" xmlns:cc="http://creativecommons.org/ns#" xmlns:dc="http://purl.org/dc/elements/1.1/" xmlns:inkscape="http://www.inkscape.org/namespaces/inkscape" xmlns:rdf="http://www.w3.org/1999/02/22-rdf-syntax-ns#" xmlns:sodipodi="http://sodipodi.sourceforge.net/DTD/sodipodi-0.dtd" xmlns:svg="http://www.w3.org/2000/svg"
	 xmlns="http://www.w3.org/2000/svg" xmlns:xlink="http://www.w3.org/1999/xlink" x="0px" y="0px" viewBox="0 0 3755.7 3733.3"
	 style="enable-background:new 0 0 3755.7 3733.3;" xml:space="preserve">
<style type="text/css">
	.st0{clip-path:url(#SVGID_2_);}
	.st1{fill:url(#path30_1_);}
	.st2{clip-path:url(#SVGID_4_);}
	.st3{fill:url(#path46_1_);}
	.st4{clip-path:url(#SVGID_6_);}
	.st5{fill:url(#path62_1_);}
	.st6{clip-path:url(#SVGID_8_);}
	.st7{fill:url(#path78_1_);}
	.st8{fill:#79D2DD;}
	.st9{clip-path:url(#SVGID_10_);}
	.st10{fill:url(#path98_1_);}
	.st11{fill:#D8E3E7;}
	.st12{fill:#EEF3F5;}
	.st13{clip-path:url(#SVGID_12_);}
	.st14{fill:url(#path130_1_);}
	.st15{clip-path:url(#SVGID_14_);}
	.st16{fill:url(#path146_1_);}
	.st17{fill:#51C4D3;}
	.st18{clip-path:url(#SVGID_16_);}
	.st19{fill:url(#path164_1_);}
	.st20{clip-path:url(#SVGID_18_);}
	.st21{clip-path:url(#SVGID_20_);}
	.st22{fill:url(#path186_1_);}
	.st23{clip-path:url(#SVGID_22_);}
	.st24{fill:url(#path202_1_);}
	.st25{clip-path:url(#SVGID_24_);}
	.st26{fill:url(#path236_1_);}
	.st27{clip-path:url(#SVGID_26_);}
	.st28{fill:url(#path252_1_);}
	.st29{clip-path:url(#SVGID_28_);}
	.st30{fill:url(#path268_1_);}
	.st31{clip-path:url(#SVGID_30_);}
	.st32{fill:url(#path284_1_);}
	.st33{fill:#FFFFFF;}
	.st34{fill:#F6F9FA;}
	.st35{clip-path:url(#SVGID_32_);}
	.st36{fill:url(#path326_1_);}
	.st37{clip-path:url(#SVGID_34_);}
	.st38{fill:url(#path342_1_);}
	.st39{clip-path:url(#SVGID_36_);}
	.st40{fill:url(#path358_1_);}
	.st41{clip-path:url(#SVGID_38_);}
	.st42{fill:url(#path374_1_);}
	.st43{clip-path:url(#SVGID_40_);}
	.st44{fill:url(#path390_1_);}
	.st45{clip-path:url(#SVGID_42_);}
	.st46{fill:url(#path406_1_);}
	.st47{clip-path:url(#SVGID_44_);}
	.st48{fill:url(#path422_1_);}
	.st49{clip-path:url(#SVGID_46_);}
	.st50{fill:url(#path438_1_);}
	.st51{clip-path:url(#SVGID_48_);}
	.st52{fill:url(#path454_1_);}
	.st53{clip-path:url(#SVGID_50_);}
	.st54{fill:url(#path470_1_);}
	.st55{clip-path:url(#SVGID_52_);}
	.st56{fill:url(#path486_1_);}
	.st57{clip-path:url(#SVGID_54_);}
	.st58{fill:url(#path502_1_);}
	.st59{clip-path:url(#SVGID_56_);}
	.st60{fill:url(#path518_1_);}
	.st61{clip-path:url(#SVGID_58_);}
	.st62{fill:url(#path534_1_);}
	.st63{clip-path:url(#SVGID_60_);}
	.st64{fill:url(#path550_1_);}
	.st65{clip-path:url(#SVGID_62_);}
	.st66{fill:url(#path566_1_);}
	.st67{clip-path:url(#SVGID_64_);}
	.st68{fill:url(#path582_1_);}
	.st69{clip-path:url(#SVGID_66_);}
	.st70{fill:url(#path598_1_);}
</style>
<g id="g10" transform="matrix(1.3333333,0,0,-1.3333333,0,4946.6667)" inkscape:groupmode="layer" inkscape:label="ink_ext_XXXXXX">
	<g id="g12" transform="scale(0.1)">
		<g id="g16">
			<g>
				<defs>
					<path id="SVGID_1_" d="M12004.9,9990.2c-424.6,0-842.8,17.1-1253.3,51c-1545.9,128-4656.1,385.4-7084.6,2682
						c-499,471.9-936.3,998.6-1314.1,1570.1c4071.5-98.5,14368.2-284.9,20547.6-327C19831,11279.4,15694.6,9990.2,12004.9,9990.2
						 M26459,29656.8c-9.7,0.5-19.4,0.9-29,1.2c-960.5,30.7-2747.1,78.2-4953.5,130.6l3,3501.2c0,347.1-281.4,628.6-628.5,628.6
						H6367.3c1842,1490.5,4744.8,3181.6,8451.6,3181.6c41.1,0,82.1-0.2,123.4-0.6c4540.4-45.9,7727.3-2610.8,8114.9-2930.3
						c489.5-403.7,1569.2-1362.9,2542.3-2884.6C25929.1,30769,26215.5,30223.9,26459,29656.8 M5222.5,30077.7
						c-741.5,5.8-1423.1,9-2027.9,9c-70.9,0-140.9,0-209.6-0.1c363.5,595.6,764.3,1162.5,1201.1,1693.5
						c142.5,173.2,493.9,591,1036.5,1120.6V30077.7"/>
				</defs>
				<clipPath id="SVGID_2_">
					<use xlink:href="#SVGID_1_"  style="overflow:visible;"/>
				</clipPath>
				<g id="g18" class="st0">
					
						<linearGradient id="path30_1_" gradientUnits="userSpaceOnUse" x1="11792.124" y1="20132.1641" x2="11793.124" y2="20132.1641" gradientTransform="matrix(-2656.2266 2867.04 2867.04 2656.2266 -26368016 -87277608)">
						<stop  offset="0" style="stop-color:#E8EFF1"/>
						<stop  offset="1" style="stop-color:#F2F5F7"/>
					</linearGradient>
					<path id="path30" class="st1" d="M12004.9,9990.2c-424.6,0-842.8,17.1-1253.3,51c-1545.9,128-4656.1,385.4-7084.6,2682
						c-499,471.9-936.3,998.6-1314.1,1570.1c4071.5-98.5,14368.2-284.9,20547.6-327C19831,11279.4,15694.6,9990.2,12004.9,9990.2
						 M26459,29656.8c-9.7,0.5-19.4,0.9-29,1.2c-960.5,30.7-2747.1,78.2-4953.5,130.6l3,3501.2c0,347.1-281.4,628.6-628.5,628.6
						H6367.3c1842,1490.5,4744.8,3181.6,8451.6,3181.6c41.1,0,82.1-0.2,123.4-0.6c4540.4-45.9,7727.3-2610.8,8114.9-2930.3
						c489.5-403.7,1569.2-1362.9,2542.3-2884.6C25929.1,30769,26215.5,30223.9,26459,29656.8 M5222.5,30077.7
						c-741.5,5.8-1423.1,9-2027.9,9c-70.9,0-140.9,0-209.6-0.1c363.5,595.6,764.3,1162.5,1201.1,1693.5
						c142.5,173.2,493.9,591,1036.5,1120.6V30077.7"/>
				</g>
			</g>
		</g>
		<g id="g32">
			<g>
				<defs>
					<polygon id="SVGID_3_" points="11853.8,15254 11245.6,11056.6 18302.1,11056.6 17383,15254 					"/>
				</defs>
				<clipPath id="SVGID_4_">
					<use xlink:href="#SVGID_3_"  style="overflow:visible;"/>
				</clipPath>
				<g id="g34" class="st2">
					
						<linearGradient id="path46_1_" gradientUnits="userSpaceOnUse" x1="11774.1123" y1="20144.9434" x2="11775.1123" y2="20144.9434" gradientTransform="matrix(18.1525 -1288.8799 -1288.8799 -18.1525 25765384 15557241)">
						<stop  offset="0" style="stop-color:#132C33"/>
						<stop  offset="1" style="stop-color:#263D43"/>
					</linearGradient>
					<path id="path46" class="st3" d="M11853.8,15254l-608.2-4197.4h7056.5L17383,15254H11853.8"/>
				</g>
			</g>
		</g>
		<g id="g48">
			<g>
				<defs>
					<path id="SVGID_5_" d="M25105.9,13957.7c-647.7,0-1391,3.1-2205.4,8.6c-6179.4,42.1-16476.1,228.5-20547.6,327
						c-181.7,4.4-350.6,8.6-506.5,12.6C819,14332.4,0,15172.8,0,16200.6v12493.1c0,749,597.9,1360.7,1346.7,1377.5
						c430.9,9.7,984.7,14.5,1638.2,15.4c68.7,0.1,138.8,0.1,209.6,0.1c604.8,0,1286.5-3.2,2027.9-9V29529l-3571.2,72.1
						c-7,0.2-14.1,0.3-21,0.3c-466.1,0-846.4-378.1-846.4-846.9V16885.2c0-600.1,481.7-1089,1081.6-1098l9193.5-113.5l9884.1-139.3
						v2.8l521-7.2v15.1l4623.7-57.1c5.4-0.1,10.9-0.1,16.3-0.1c587.4,0,1066.1,475.2,1068.3,1064.7l36.6,10626.4l299.6,1886.4
						c2.3,14.7,3.8,29.3,4.5,43.8c147.9-188.4,250-415.5,288.9-665.8c503.4-3240.2,367.4-10219.3,283.6-13121.6
						c-21.5-746.4-626.3-1343.8-1372.9-1354.8C26283.3,13960.6,25740.3,13957.7,25105.9,13957.7 M24183.5,29145.9l-2707.5,54.7
						l0.5,588c2206.4-52.4,3993-99.9,4953.5-130.6c9.6-0.3,19.3-0.7,29-1.2c192.9-10,376.5-58.3,542.7-137.6L24183.5,29145.9"/>
				</defs>
				<clipPath id="SVGID_6_">
					<use xlink:href="#SVGID_5_"  style="overflow:visible;"/>
				</clipPath>
				<g id="g50" class="st4">
					
						<linearGradient id="path62_1_" gradientUnits="userSpaceOnUse" x1="11781.4678" y1="20139.0195" x2="11782.4678" y2="20139.0195" gradientTransform="matrix(-326.7613 -2741.1465 -2741.1465 326.7613 59069748 25752666)">
						<stop  offset="0" style="stop-color:#132C33"/>
						<stop  offset="1" style="stop-color:#263D43"/>
					</linearGradient>
					<path id="path62" class="st5" d="M25105.9,13957.7c-647.7,0-1391,3.1-2205.4,8.6c-6179.4,42.1-16476.1,228.5-20547.6,327
						c-181.7,4.4-350.6,8.6-506.5,12.6C819,14332.4,0,15172.8,0,16200.6v12493.1c0,749,597.9,1360.7,1346.7,1377.5
						c430.9,9.7,984.7,14.5,1638.2,15.4c68.7,0.1,138.8,0.1,209.6,0.1c604.8,0,1286.5-3.2,2027.9-9V29529l-3571.2,72.1
						c-7,0.2-14.1,0.3-21,0.3c-466.1,0-846.4-378.1-846.4-846.9V16885.2c0-600.1,481.7-1089,1081.6-1098l9193.5-113.5l9884.1-139.3
						v2.8l521-7.2v15.1l4623.7-57.1c5.4-0.1,10.9-0.1,16.3-0.1c587.4,0,1066.1,475.2,1068.3,1064.7l36.6,10626.4l299.6,1886.4
						c2.3,14.7,3.8,29.3,4.5,43.8c147.9-188.4,250-415.5,288.9-665.8c503.4-3240.2,367.4-10219.3,283.6-13121.6
						c-21.5-746.4-626.3-1343.8-1372.9-1354.8C26283.3,13960.6,25740.3,13957.7,25105.9,13957.7 M24183.5,29145.9l-2707.5,54.7
						l0.5,588c2206.4-52.4,3993-99.9,4953.5-130.6c9.6-0.3,19.3-0.7,29-1.2c192.9-10,376.5-58.3,542.7-137.6L24183.5,29145.9"/>
				</g>
			</g>
		</g>
		<g id="g64">
			<g>
				<defs>
					<path id="SVGID_7_" d="M26104.2,15487.9c-5.4,0-10.9,0-16.3,0.1l-4623.7,57.1l11.8,13655.5l2707.5-54.7l-720.8-95.5
						c-190.3-25.2-336.2-181.5-348.3-373l-210.1-3328.3c-14.4-228.9,165.2-423.4,394.4-427.2l3194-52.5c2.2-0.1,4.4-0.1,6.7-0.1
						c197.2,0,365.8,143.4,396.8,338.8l312.9,1970.9l-36.6-10626.4C27170.3,15963.1,26691.6,15487.9,26104.2,15487.9
						 M11059.1,15673.7l-9193.5,113.5c-600,9-1081.6,497.9-1081.6,1098v11869.3c0,468.8,380.3,846.9,846.4,846.9c7,0,14-0.1,21-0.3
						l3571.2-72.1V15755.9l480.4-6.6v-0.2L11059.1,15673.7"/>
				</defs>
				<clipPath id="SVGID_8_">
					<use xlink:href="#SVGID_7_"  style="overflow:visible;"/>
				</clipPath>
				<g id="g66" class="st6">
					
						<linearGradient id="path78_1_" gradientUnits="userSpaceOnUse" x1="11791.8291" y1="20133.832" x2="11792.8291" y2="20133.832" gradientTransform="matrix(-3494.5066 1915.1732 1915.1732 3494.5066 2674497.75 -92926824)">
						<stop  offset="0" style="stop-color:#CF9508"/>
						<stop  offset="1" style="stop-color:#CF9508"/>
					</linearGradient>
					<path id="path78" class="st7" d="M26104.2,15487.9c-5.4,0-10.9,0-16.3,0.1l-4623.7,57.1l11.8,13655.5l2707.5-54.7l-720.8-95.5
						c-190.3-25.2-336.2-181.5-348.3-373l-210.1-3328.3c-14.4-228.9,165.2-423.4,394.4-427.2l3194-52.5c2.2-0.1,4.4-0.1,6.7-0.1
						c197.2,0,365.8,143.4,396.8,338.8l312.9,1970.9l-36.6-10626.4C27170.3,15963.1,26691.6,15487.9,26104.2,15487.9
						 M11059.1,15673.7l-9193.5,113.5c-600,9-1081.6,497.9-1081.6,1098v11869.3c0,468.8,380.3,846.9,846.4,846.9c7,0,14-0.1,21-0.3
						l3571.2-72.1V15755.9l480.4-6.6v-0.2L11059.1,15673.7"/>
				</g>
			</g>
		</g>
		<path id="path80" class="st8" d="M27354.9,15001.5h-0.6L783.3,15454.3c-18.5,0.3-33.3,15.6-33,34.1c0.3,18.6,15.8,32.7,34.2,33
			l26570.9-452.7c18.6-0.3,33.4-15.6,33.1-34.1C27388.1,15016.2,27373.2,15001.5,27354.9,15001.5"/>
		<path id="path82" class="st8" d="M14331.5,15001.5c-133.9,0-242.9-108.9-242.9-242.9c0-133.9,109-242.8,242.9-242.8
			c133.9,0,242.9,108.9,242.9,242.8C14574.4,14892.6,14465.4,15001.5,14331.5,15001.5z M14331.5,14448.6c-170.9,0-310,139.1-310,310
			c0,171,139.1,310.1,310,310.1c171,0,310.1-139.1,310.1-310.1C14641.6,14587.7,14502.5,14448.6,14331.5,14448.6"/>
		<g id="g84">
			<g>
				<defs>
					<path id="SVGID_9_" d="M19822.1,9940.5H9494.4c-280.6,0-491.3,199.8-437.1,414.3l132.6,524.1
						c39.8,157.7,213.2,273.4,419.2,279.8l9956.3,310.7c215.2,6.7,405.7-107.5,452.6-271.3l238.9-834.8
						C20318.9,10146.4,20107.2,9940.5,19822.1,9940.5L19822.1,9940.5z"/>
				</defs>
				<clipPath id="SVGID_10_">
					<use xlink:href="#SVGID_9_"  style="overflow:visible;"/>
				</clipPath>
				<g id="g86" class="st9">
					
						<linearGradient id="path98_1_" gradientUnits="userSpaceOnUse" x1="11770.1797" y1="20146.9336" x2="11771.1797" y2="20146.9336" gradientTransform="matrix(81.69 -1034.7373 -1034.7373 -81.69 19899466 13841084)">
						<stop  offset="0" style="stop-color:#132C33"/>
						<stop  offset="1" style="stop-color:#263D43"/>
					</linearGradient>
					<path id="path98" class="st10" d="M19822.1,9940.5H9494.4c-280.6,0-491.3,199.8-437.1,414.3l132.6,524.1
						c39.8,157.7,213.2,273.4,419.2,279.8l9956.3,310.7c215.2,6.7,405.7-107.5,452.6-271.3l238.9-834.8
						C20318.9,10146.4,20107.2,9940.5,19822.1,9940.5"/>
				</g>
			</g>
		</g>
		<path id="path100" class="st8" d="M15054,11016.8c-18.3,0-33.3,14.7-33.6,33.1c-0.3,18.6,14.5,33.8,33.1,34.1l426.6,6.2
			c17.9-0.1,33.8-14.6,34.1-33.1c0.3-18.6-14.5-33.8-33.1-34.1l-426.6-6.2H15054"/>
		<path id="path102" class="st8" d="M9439.7,10229.6c-1.8,0-3.6,0.1-5.4,0.4c-18.3,2.9-30.7,20.1-27.8,38.4l60.9,381.2
			c32.6,204.8,206.9,355.7,414.3,358.7l4525.2,66.2h0.5c18.3,0,33.3-14.7,33.6-33.1c0.2-18.5-14.6-33.8-33.1-34l-4525.2-66.2
			c-174.7-2.6-321.5-129.6-349-302.1l-60.9-381.2C9470.2,10241.3,9455.9,10229.6,9439.7,10229.6"/>
		<path id="path104" class="st8" d="M21464.2,15530l-16241.6,225.9v17490.7c0,371,300.7,671.8,671.7,671.8H20851
			c347.1,0,628.5-281.5,628.5-628.6L21464.2,15530"/>
		<path id="path106" class="st11" d="M20943.2,15534.4L5703,15749.1v17034.1c0,367.7,294.4,665.7,657.5,665.7h13967.3
			c339.9,0,615.4-278.9,615.4-623V15534.4"/>
		<path id="path108" class="st12" d="M19609,22599.5H7366.7c-48.5,0-87.8,39.3-87.8,87.8v5830.9c0,48.5,39.3,87.8,87.8,87.8H19609
			c48.5,0,87.8-39.3,87.8-87.8v-5830.9C19696.8,22638.8,19657.5,22599.5,19609,22599.5"/>
		<path id="path110" class="st12" d="M20234.6,20189H6516.1c-24.1,0-43.7,19.6-43.7,43.7v1242.4c0,24.1,19.6,43.7,43.7,43.7h13718.5
			c24.1,0,43.7-19.6,43.7-43.7v-1242.4C20278.3,20208.6,20258.7,20189,20234.6,20189"/>
		<path id="path112" class="st12" d="M20181.5,17985.5H6515.1c-38.5,0-69.7,31.2-69.7,69.7v1190.2c0,38.6,31.2,69.8,69.7,69.8
			h13666.4c38.5,0,69.7-31.2,69.7-69.8v-1190.2C20251.2,18016.7,20220,17985.5,20181.5,17985.5"/>
		<path id="path114" class="st12" d="M20202.5,15929.8H6556.1c-44,0-79.7,35.7-79.7,79.8v1170.2c0,44,35.7,79.7,79.7,79.7h13646.4
			c44,0,79.7-35.7,79.7-79.7v-1170.2C20282.2,15965.5,20246.5,15929.8,20202.5,15929.8"/>
		<g id="g116">
			<g>
				<defs>
					<path id="SVGID_11_" d="M1611.7,22086.5c0,0,1742.8-4596.2,2293.4-5552.4c639.1-1109.9,2505.8-402.6,2412.9,526.3
						c-92.9,928.8-2273.7,4768.1-2273.7,4768.1L1611.7,22086.5z"/>
				</defs>
				<clipPath id="SVGID_12_">
					<use xlink:href="#SVGID_11_"  style="overflow:visible;"/>
				</clipPath>
				<g id="g118" class="st13">
					
						<linearGradient id="path130_1_" gradientUnits="userSpaceOnUse" x1="11767.9902" y1="20139.666" x2="11768.9902" y2="20139.666" gradientTransform="matrix(481.0586 -1034.7306 -1034.7306 -481.0586 15179363 21890126)">
						<stop  offset="0" style="stop-color:#132C33"/>
						<stop  offset="1" style="stop-color:#263D43"/>
					</linearGradient>
					<path id="path130" class="st14" d="M1611.7,22086.5c0,0,1742.8-4596.2,2293.4-5552.4c639.1-1109.9,2505.8-402.6,2412.9,526.3
						c-92.9,928.8-2273.7,4768.1-2273.7,4768.1L1611.7,22086.5"/>
				</g>
			</g>
		</g>
		<g id="g132">
			<g>
				<defs>
					<polygon id="SVGID_13_" points="3966.4,25434.6 14798.3,29190.2 14684.6,19027 3670.4,21484.5 					"/>
				</defs>
				<clipPath id="SVGID_14_">
					<use xlink:href="#SVGID_13_"  style="overflow:visible;"/>
				</clipPath>
				<g id="g134" class="st15">
					
						<linearGradient id="path146_1_" gradientUnits="userSpaceOnUse" x1="11774.9639" y1="20135.9727" x2="11775.9639" y2="20135.9727" gradientTransform="matrix(924.2173 -1646.0533 -1646.0533 -924.2173 22269926 38020364)">
						<stop  offset="0" style="stop-color:#126E82"/>
						<stop  offset="1" style="stop-color:#2A7D8F"/>
					</linearGradient>
					<path id="path146" class="st16" d="M3966.4,25434.6l10831.8,3755.6L14684.6,19027L3670.4,21484.5L3966.4,25434.6"/>
				</g>
			</g>
		</g>
		<path id="path148" class="st17" d="M15872.7,24079.1c0-2884.6-476.4-5223-1064.2-5223c-587.7,0-1064.1,2338.4-1064.1,5223
			c0,2884.5,476.4,5222.9,1064.1,5222.9C15396.3,29302,15872.7,26963.6,15872.7,24079.1"/>
		<g id="g150">
			<g>
				<defs>
					<path id="SVGID_15_" d="M14889.3,19213.3c-96.2,97.8-305.7,475.2-485.3,1451c-173.7,943.1-269.3,2166.3-269.3,3444.3
						s95.6,2501.1,269.3,3444.2c179.6,975.8,389.1,1353.2,485.3,1451c96.2-97.8,305.7-475.2,485.4-1451
						c173.6-943.1,269.2-2166.2,269.2-3444.2s-95.6-2501.2-269.2-3444.3C15195,19688.5,14985.5,19311.1,14889.3,19213.3z"/>
				</defs>
				<clipPath id="SVGID_16_">
					<use xlink:href="#SVGID_15_"  style="overflow:visible;"/>
				</clipPath>
				<g id="g152" class="st18">
					
						<linearGradient id="path164_1_" gradientUnits="userSpaceOnUse" x1="11786.5576" y1="20107.4629" x2="11787.5576" y2="20107.4629" gradientTransform="matrix(617.2106 653.5173 653.5173 -617.2106 -20400616 4731778)">
						<stop  offset="0" style="stop-color:#126E82"/>
						<stop  offset="1" style="stop-color:#2A7D8F"/>
					</linearGradient>
					<path id="path164" class="st19" d="M14889.3,19213.3c-96.2,97.8-305.7,475.2-485.3,1451
						c-173.7,943.1-269.3,2166.3-269.3,3444.3s95.6,2501.1,269.3,3444.2c179.6,975.8,389.1,1353.2,485.3,1451
						c96.2-97.8,305.7-475.2,485.4-1451c173.6-943.1,269.2-2166.2,269.2-3444.2s-95.6-2501.2-269.2-3444.3
						C15195,19688.5,14985.5,19311.1,14889.3,19213.3"/>
				</g>
			</g>
		</g>
		<g id="g166">
			<g>
				<defs>
					<path id="SVGID_17_" d="M14889.3,19213.3c-96.2,97.8-305.7,475.2-485.3,1451.1c-173.7,943-269.3,2166.2-269.3,3444.2
						s95.6,2501.1,269.3,3444.2c179.6,975.8,389.1,1353.2,485.3,1451c96.2-97.8,305.7-475.2,485.4-1451
						c173.6-943.1,1543.6-2166.2,1543.6-3444.2s-1370-2501.2-1543.6-3444.2C15195,19688.5,14985.5,19311.1,14889.3,19213.3"/>
				</defs>
				<clipPath id="SVGID_18_">
					<use xlink:href="#SVGID_17_"  style="overflow:visible;"/>
				</clipPath>
				<g id="g168" class="st20">
					<g>
						<defs>
							<path id="SVGID_19_" d="M16253.3,24147.5c0-887.5-478-1606.9-1424.2-1606.9c-946.2,0-1713.3,719.4-1713.3,1606.9
								c0,887.4,767.1,1606.8,1713.3,1606.8C15775.3,25754.3,16253.3,25034.9,16253.3,24147.5z"/>
						</defs>
						<clipPath id="SVGID_20_">
							<use xlink:href="#SVGID_19_"  style="overflow:visible;"/>
						</clipPath>
						<g id="g174" class="st21">
							
								<linearGradient id="path186_1_" gradientUnits="userSpaceOnUse" x1="11793.4775" y1="20157.3828" x2="11794.4775" y2="20157.3828" gradientTransform="matrix(-751.044 -438.6093 -438.6093 751.044 17715972 -9940733)">
								<stop  offset="0" style="stop-color:#132C33"/>
								<stop  offset="1" style="stop-color:#263D43"/>
							</linearGradient>
							<path id="path186" class="st22" d="M14791.9,22540v1h-32v1h-25v1h-16v1h-17v1h-14v1h-12v1h-12v1h-11v1h-10v1h-9v1h-9v1h-10v1
								h-8v1h-8v1h-7v1h-8v1h-8v1h-7v1h-7v1h-6v1h-7v1h-6v1h-7v1h-6v1h-6v1h-6v1h-5v1h-6v1h-6v1h-5v1h-6v1h-5v1h-5v1h-5v1h-5v1h-5v1
								h-5v1h-5v1h-5v1h-5v1h-4v1h-5v1h-4v1h-4v1h-5v1h-4v1h-5v1h-4v1h-4v1h-5v1h-4v1h-4v1h-4v1h-3v1h-4v1h-4v1h-4v1h-4v1h-4v1h-4v1
								h-4v1h-3v1h-4v1h-4v1h-3v1h-4v1h-3v1h-4v1h-4v1h-3v1h-4v1h-3v1h-4v1h-3v1h-3v1h-3v1h-4v1h-3v1h-3v1h-4v1h-3v1h-3v1h-3v1h-4v1
								h-3v1h-3v1h-3v1h-3v1h-3v1h-3v1h-3v1h-3v1h-3v1h-3v1h-3v1h-3v1h-3v1h-3v1h-3v1h-2v1h-3v1h-3v1h-3v1h-3v1h-3v1h-2v1h-3v1h-3v1
								h-3v1h-3v1h-2v1h-3v1h-3v1h-2v1h-3v1h-2v1h-3v1h-3v1h-2v1h-3v1h-1v15h-1v16h-1v17h-1v18h-1v19h-1v18h-1v18h-1v18h-1v18h-1v20
								h-1v20h-1v20h-1v20h-1v20h-1v21h-1v22h-1v22h-1v23h-1v22h-1v22h-1v25h-1v25h-1v25h-1v25h-1v26h-1v28h-1v29h-1v28h-1v30h-1v33
								h-1v32h-1v33h-1v37h-1v39h-1v39h-1v45h-1v47h-1v51h-1v61h-1v69h-1v85h-1v153h-1v187h1v153h1v86h1v68h1v61h1v51h1v47h1v45h1
								v39h1v39h1v37h1v33h1v33h1v32h1v30h1v28h1v29h1v28h1v26h1v25h1v25h1v25h1v25h1v22h1v23h1v22h1v22h1v22h1v21h1v20h1v20h1v20h1
								v20h1v20h1v18h1v18h1v18h1v19h1v18h1v18h1v17h1v17h1v16h1v17h1v17h1v16h1v17h1v11h2v1h2v1h3v1h2v1h3v1h3v1h2v1h3v1h3v1h3v1h2
								v1h3v1h3v1h3v1h3v1h2v1h3v1h3v1h3v1h3v1h2v1h3v1h3v1h3v1h3v1h3v1h3v1h3v1h3v1h3v1h3v1h4v1h3v1h3v1h3v1h3v1h3v1h3v1h4v1h3v1h3
								v1h4v1h3v1h3v1h3v1h4v1h3v1h4v1h3v1h4v1h3v1h4v1h4v1h3v1h4v1h3v1h4v1h3v1h4v1h4v1h4v1h4v1h4v1h4v1h4v1h4v1h4v1h4v1h4v1h4v1h5
								v1h4v1h4v1h5v1h4v1h4v1h5v1h4v1h5v1h5v1h5v1h5v1h5v1h4v1h5v1h5v1h5v1h6v1h5v1h6v1h6v1h5v1h6v1h5v1h7v1h6v1h6v1h7v1h6v1h7v1h6
								v1h8v1h8v1h7v1h8v1h8v1h8v1h10v1h9v1h9v1h9v1h12v1h13v1h12v1h13v1h17v1h17v1h26v1h36v1h62v-1h31v-1h28v-1h13v-1h14v-1h14v-1
								h13v-1h14v-1h14v-1h8v-1h8v-1h8v-1h8v-1h8v-1h8v-1h8v-1h8v-1h8v-1h8v-1h6v-1h5v-1h6v-1h6v-1h5v-1h6v-1h5v-1h6v-1h6v-1h5v-1h6
								v-1h5v-1h6v-1h6v-1h4v-1h5v-1h4v-1h4v-1h4v-1h5v-1h4v-1h4v-1h4v-1h5v-1h4v-1h4v-1h4v-1h5v-1h4v-1h4v-1h4v-1h5v-1h3v-1h4v-1h3
								v-1h4v-1h3v-1h3v-1h4v-1h3v-1h4v-1h3v-1h3v-1h4v-1h3v-1h4v-1h3v-1h3v-1h4v-1h3v-1h3v-1h4v-1h3v-1h4v-1h2v-1h3v-1h3v-1h3v-1h3
								v-1h2v-1h3v-1h3v-1h3v-1h3v-1h2v-1h3v-1h3v-1h3v-1h3v-1h3v-1h2v-1h3v-1h3v-1h3v-1h3v-1h2v-1h3v-1h3v-1h3v-1h2v-1h3v-1h2v-1h2
								v-1h3v-1h2v-1h2v-1h3v-1h2v-1h3v-1h2v-1h2v-1h3v-1h2v-1h2v-1h3v-1h2v-1h2v-1h3v-1h2v-1h3v-1h2v-1h2v-1h3v-1h2v-1h2v-1h3v-1h2
								v-1h2v-1h2v-1h3v-1h2v-1h2v-1h2v-1h2v-1h2v-1h2v-1h2v-1h2v-1h2v-1h2v-1h2v-1h2v-1h2v-1h2v-1h2v-1h2v-1h2v-1h2v-1h2v-1h2v-1h2
								v-1h2v-1h2v-1h2v-1h2v-1h2v-1h2v-1h2v-1h2v-1h2v-1h2v-1h2v-1h2v-1h2v-1h1v-1h2v-1h2v-1h2v-1h1v-1h2v-1h2v-1h2v-1h1v-1h2v-1h2
								v-1h2v-1h1v-1h2v-1h2v-1h2v-1h1v-1h2v-1h2v-1h2v-1h2v-1h1v-1h2v-1h2v-1h2v-1h1v-1h2v-1h2v-1h2v-1h1v-1h2v-1h2v-1h1v-1h2v-1h1
								v-1h2v-1h2v-1h1v-1h2v-1h1v-1h2v-1h1v-1h2v-1h1v-1h2v-1h1v-1h2v-1h2v-1h1v-1h2v-1h1v-1h2v-1h1v-1h2v-1h1v-1h2v-1h2v-1h1v-1h2
								v-1h1v-1h2v-1h1v-1h2v-1h1v-1h2v-1h1v-1h2v-1h2v-1h1v-1h2v-1h1v-1h1v-1h2v-1h1v-1h1v-1h2v-1h1v-1h2v-1h1v-1h1v-1h2v-1h1v-1h1
								v-1h2v-1h1v-1h1v-1h2v-1h1v-1h2v-1h1v-1h1v-1h2v-1h1v-1h1v-1h2v-1h1v-1h2v-1h1v-1h1v-1h2v-1h1v-1h1v-1h2v-1h1v-1h1v-1h2v-1h1
								v-1h2v-1h1v-1h1v-1h2v-1h1v-1h1v-1h1v-1h2v-1h1v-1h1v-1h1v-1h1v-1h2v-1h1v-1h1v-1h1v-1h2v-1h1v-1h1v-1h1v-1h1v-1h2v-1h1v-1h1
								v-1h1v-1h1v-1h2v-1h1v-1h1v-1h1v-1h1v-1h2v-1h1v-1h1v-1h1v-1h2v-1h1v-1h1v-1h1v-1h1v-1h2v-1h1v-1h1v-1h1v-1h1v-1h2v-1h1v-1h1
								v-1h1v-1h1v-1h2v-1h1v-1h1v-1h1v-1h1v-1h1v-1h1v-1h1v-1h1v-1h1v-1h1v-1h1v-1h2v-1h1v-1h1v-1h1v-1h1v-1h1v-1h1v-1h1v-1h1v-1h1
								v-1h1v-1h1v-1h1v-1h2v-1h1v-1h1v-1h1v-1h1v-1h1v-1h1v-1h1v-1h1v-1h1v-1h1v-1h1v-1h2v-1h1v-1h1v-1h1v-1h1v-1h1v-1h1v-1h1v-1h1
								v-1h1v-1h1v-1h1v-1h1v-1h1v-1h1v-1h1v-1h1v-1h1v-1h1v-1h1v-1h1v-1h1v-1h1v-1h1v-1h1v-1h1v-1h1v-1h1v-1h1v-1h1v-1h1v-1h1v-1h1
								v-2h1v-1h1v-1h1v-1h1v-1h1v-1h1v-1h1v-1h1v-1h1v-1h1v-1h1v-1h1v-1h1v-1h1v-1h1v-1h1v-1h1v-1h1v-1h1v-1h1v-1h1v-1h1v-1h1v-1h1
								v-1h1v-1h1v-1h1v-2h1v-1h1v-1h1v-1h1v-1h1v-1h1v-2h1v-1h1v-1h1v-1h1v-1h1v-1h1v-1h1v-2h1v-1h1v-1h1v-1h1v-1h1v-1h1v-2h1v-1h1
								v-1h1v-1h1v-1h1v-1h1v-2h1v-1h1v-1h1v-1h1v-1h1v-1h1v-1h1v-2h1v-1h1v-1h1v-1h1v-1h1v-1h1v-2h1v-1h1v-1h1v-1h1v-1h1v-1h1v-2h1
								v-1h1v-1h1v-1h1v-2h1v-1h1v-1h1v-1h1v-2h1v-1h1v-1h1v-2h1v-1h1v-1h1v-1h1v-2h1v-1h1v-1h1v-2h1v-1h1v-1h1v-2h1v-1h1v-1h1v-1h1
								v-2h1v-1h1v-1h1v-2h1v-1h1v-1h1v-1h1v-2h1v-1h1v-1h1v-2h1v-1h1v-1h1v-1h1v-2h1v-1h1v-1h1v-2h1v-1h1v-1h1v-2h1v-1h1v-1h1v-2h1
								v-1h1v-2h1v-1h1v-2h1v-1h1v-2h1v-1h1v-1h1v-2h1v-1h1v-2h1v-1h1v-2h1v-1h1v-2h1v-1h1v-1h1v-2h1v-1h1v-2h1v-1h1v-2h1v-1h1v-2h1
								v-1h1v-1h1v-2h1v-1h1v-2h1v-1h1v-2h1v-1h1v-2h1v-1h1v-1h1v-2h1v-1h1v-2h1v-2h1v-1h1v-2h1v-1h1v-2h1v-2h1v-1h1v-2h1v-1h1v-2h1
								v-2h1v-1h1v-2h1v-2h1v-1h1v-2h1v-1h1v-2h1v-2h1v-1h1v-2h1v-1h1v-2h1v-2h1v-1h1v-2h1v-1h1v-2h1v-2h1v-1h1v-2h1v-2h1v-1h1v-2h1
								v-1h1v-2h1v-2h1v-2h1v-1h1v-2h1v-2h1v-2h1v-2h1v-1h1v-2h1v-2h1v-2h1v-2h1v-1h1v-2h1v-2h1v-2h1v-2h1v-1h1v-2h1v-2h1v-2h1v-2h1
								v-1h1v-2h1v-2h1v-2h1v-2h1v-2h1v-1h1v-2h1v-2h1v-2h1v-2h1v-1h1v-2h1v-2h1v-2h1v-2h1v-2h1v-2h1v-2h1v-2h1v-2h1v-2h1v-2h1v-2h1
								v-2h1v-3h1v-2h1v-2h1v-2h1v-2h1v-2h1v-2h1v-2h1v-2h1v-2h1v-2h1v-2h1v-2h1v-2h1v-2h1v-2h1v-2h1v-2h1v-2h1v-2h1v-2h1v-3h1v-2h1
								v-2h1v-3h1v-2h1v-2h1v-2h1v-3h1v-2h1v-2h1v-3h1v-2h1v-2h1v-2h1v-3h1v-2h1v-2h1v-3h1v-2h1v-2h1v-3h1v-2h1v-2h1v-2h1v-3h1v-2h1
								v-2h1v-3h1v-2h1v-3h1v-2h1v-3h1v-2h1v-3h1v-3h1v-2h1v-3h1v-3h1v-2h1v-3h1v-2h1v-3h1v-3h1v-2h1v-3h1v-2h1v-3h1v-3h1v-2h1v-3h1
								v-2h1v-3h1v-3h1v-2h1v-3h1v-3h1v-3h1v-3h1v-3h1v-3h1v-3h1v-3h1v-3h1v-3h1v-3h1v-3h1v-3h1v-3h1v-3h1v-3h1v-3h1v-3h1v-3h1v-3h1
								v-3h1v-3h1v-3h1v-3h1v-3h1v-3h1v-4h1v-3h1v-4h1v-3h1v-4h1v-3h1v-4h1v-3h1v-4h1v-3h1v-4h1v-3h1v-4h1v-3h1v-4h1v-3h1v-4h1v-3h1
								v-3h1v-4h1v-4h1v-4h1v-4h1v-4h1v-5h1v-4h1v-4h1v-4h1v-4h1v-4h1v-4h1v-4h1v-4h1v-5h1v-4h1v-4h1v-4h1v-4h1v-5h1v-5h1v-5h1v-5h1
								v-5h1v-5h1v-5h1v-5h1v-5h1v-5h1v-5h1v-4h1v-5h1v-5h1v-5h1v-6h1v-6h1v-6h1v-7h1v-6h1v-6h1v-6h1v-6h1v-6h1v-7h1v-6h1v-6h1v-6h1
								v-8h1v-8h1v-8h1v-8h1v-9h1v-8h1v-8h1v-8h1v-8h1v-9h1v-11h1v-12h1v-11h1v-12h1v-11h1v-12h1v-13h1v-19h1v-20h1v-19h1v-20h1v-44
								h1v-77h-1v-44h-1v-20h-1v-20h-1v-19h-1v-19h-1v-13h-1v-12h-1v-11h-1v-12h-1v-11h-1v-12h-1v-11h-1v-9h-1v-8h-1v-8h-1v-8h-1v-8
								h-1v-9h-1v-8h-1v-8h-1v-8h-1v-8h-1v-6h-1v-6h-1v-6h-1v-7h-1v-6h-1v-6h-1v-6h-1v-6h-1v-7h-1v-6h-1v-6h-1v-6h-1v-6h-1v-5h-1v-5
								h-1v-5h-1v-5h-1v-4h-1v-5h-1v-5h-1v-5h-1v-5h-1v-5h-1v-5h-1v-5h-1v-5h-1v-5h-1v-5h-1v-4h-1v-4h-1v-4h-1v-4h-1v-5h-1v-4h-1v-4
								h-1v-4h-1v-4h-1v-4h-1v-4h-1v-4h-1v-4h-1v-5h-1v-4h-1v-4h-1v-4h-1v-4h-1v-4h-1v-3h-1v-4h-1v-3h-1v-4h-1v-3h-1v-3h-1v-4h-1v-3
								h-1v-4h-1v-3h-1v-4h-1v-3h-1v-4h-1v-3h-1v-4h-1v-3h-1v-4h-1v-3h-1v-4h-1v-3h-1v-3h-1v-3h-1v-3h-1v-3h-1v-3h-1v-3h-1v-3h-1v-3
								h-1v-3h-1v-3h-1v-3h-1v-3h-1v-3h-1v-3h-1v-3h-1v-3h-1v-3h-1v-3h-1v-3h-1v-3h-1v-3h-1v-3h-1v-3h-1v-3h-1v-3h-1v-2h-1v-3h-1v-3
								h-1v-2h-1v-3h-1v-2h-1v-3h-1v-3h-1v-2h-1v-3h-1v-2h-1v-3h-1v-3h-1v-2h-1v-3h-1v-3h-1v-2h-1v-3h-1v-2h-1v-3h-1v-3h-1v-2h-1v-3
								h-1v-2h-1v-3h-1v-2h-1v-3h-1v-2h-1v-2h-1v-3h-1v-2h-1v-2h-1v-3h-1v-2h-1v-2h-1v-2h-1v-3h-1v-2h-1v-2h-1v-3h-1v-2h-1v-2h-1v-2
								h-1v-3h-1v-2h-1v-2h-1v-3h-1v-2h-1v-2h-1v-3h-1v-2h-1v-2h-1v-2h-1v-3h-1v-2h-1v-2h-1v-2h-1v-2h-1v-2h-1v-2h-1v-2h-1v-2h-1v-2
								h-1v-2h-1v-2h-1v-2h-1v-2h-1v-2h-1v-2h-1v-2h-1v-2h-1v-2h-1v-3h-1v-2h-1v-2h-1v-2h-1v-2h-1v-2h-1v-2h-1v-2h-1v-2h-1v-2h-1v-2
								h-1v-2h-1v-2h-1v-2h-1v-2h-1v-2h-1v-2h-1v-1h-1v-2h-1v-2h-1v-2h-1v-2h-1v-1h-1v-2h-1v-2h-1v-2h-1v-2h-1v-1h-1v-2h-1v-2h-1v-2
								h-1v-2h-1v-1h-1v-2h-1v-2h-1v-2h-1v-2h-1v-1h-1v-2h-1v-2h-1v-2h-1v-2h-1v-2h-1v-1h-1v-2h-1v-2h-1v-2h-1v-2h-1v-1h-1v-2h-1v-2
								h-1v-1h-1v-2h-1v-2h-1v-1h-1v-2h-1v-1h-1v-2h-1v-2h-1v-1h-1v-2h-1v-1h-1v-2h-1v-2h-1v-1h-1v-2h-1v-1h-1v-2h-1v-2h-1v-1h-1v-2
								h-1v-2h-1v-1h-1v-2h-1v-1h-1v-2h-1v-2h-1v-1h-1v-2h-1v-1h-1v-2h-1v-2h-1v-1h-1v-2h-1v-2h-1v-1h-1v-2h-1v-1h-1v-2h-1v-1h-1v-2
								h-1v-1h-1v-1h-1v-2h-1v-1h-1v-2h-1v-1h-1v-2h-1v-1h-1v-2h-1v-1h-1v-1h-1v-2h-1v-1h-1v-2h-1v-1h-1v-2h-1v-1h-1v-2h-1v-1h-1v-1
								h-1v-2h-1v-1h-1v-2h-1v-1h-1v-2h-1v-1h-1v-1h-1v-2h-1v-1h-1v-2h-1v-1h-1v-2h-1v-1h-1v-2h-1v-1h-1v-1h-1v-2h-1v-1h-1v-1h-1v-2
								h-1v-1h-1v-1h-1v-2h-1v-1h-1v-1h-1v-1h-1v-2h-1v-1h-1v-1h-1v-2h-1v-1h-1v-1h-1v-2h-1v-1h-1v-1h-1v-1h-1v-2h-1v-1h-1v-1h-1v-2
								h-1v-1h-1v-1h-1v-1h-1v-2h-1v-1h-1v-1h-1v-2h-1v-1h-1v-1h-1v-2h-1v-1h-1v-1h-1v-1h-1v-2h-1v-1h-1v-1h-1v-2h-1v-1h-1v-1h-1v-1
								h-1v-2h-1v-1h-1v-1h-1v-1h-1v-1h-1v-1h-1v-2h-1v-1h-1v-1h-1v-1h-1v-1h-1v-1h-1v-1h-1v-2h-1v-1h-1v-1h-1v-1h-1v-1h-1v-1h-1v-2
								h-1v-1h-1v-1h-1v-1h-1v-1h-1v-1h-1v-1h-1v-2h-1v-1h-1v-1h-1v-1h-1v-1h-1v-1h-1v-2h-1v-1h-1v-1h-1v-1h-1v-1h-1v-1h-1v-2h-1v-1
								h-1v-1h-1v-1h-1v-1h-1v-1h-1v-1h-1v-2h-1v-1h-1v-1h-1v-1h-1v-1h-1v-1h-1v-1h-1v-1h-1v-1h-1v-1h-1v-1h-1v-1h-1v-1h-1v-1h-1v-1
								h-1v-1h-1v-1h-1v-1h-1v-1h-1v-1h-1v-1h-1v-1h-1v-1h-1v-1h-1v-1h-1v-2h-1v-1h-1v-1h-1v-1h-1v-1h-1v-1h-1v-1h-1v-1h-1v-1h-1v-1
								h-1v-1h-1v-1h-1v-1h-1v-1h-1v-1h-1v-1h-1v-1h-1v-1h-1v-1h-1v-1h-1v-1h-1v-1h-1v-1h-1v-1h-1v-1h-1v-1h-1v-1h-1v-1h-1v-1h-1v-1
								h-1v-1h-1v-1h-1v-1h-1v-1h-1v-1h-1v-1h-2v-1h-1v-1h-1v-1h-1v-1h-1v-1h-1v-1h-1v-1h-1v-1h-1v-1h-1v-1h-1v-1h-1v-1h-1v-1h-2v-1
								h-1v-1h-1v-1h-1v-1h-1v-1h-1v-1h-1v-1h-1v-1h-1v-1h-1v-1h-1v-1h-1v-1h-2v-1h-1v-1h-1v-1h-1v-1h-1v-1h-1v-1h-1v-1h-1v-1h-1v-1
								h-1v-1h-1v-1h-1v-1h-2v-1h-1v-1h-1v-1h-1v-1h-1v-1h-2v-1h-1v-1h-1v-1h-1v-1h-1v-1h-2v-1h-1v-1h-1v-1h-1v-1h-2v-1h-1v-1h-1v-1
								h-1v-1h-1v-1h-2v-1h-1v-1h-1v-1h-1v-1h-1v-1h-2v-1h-1v-1h-1v-1h-1v-1h-2v-1h-1v-1h-1v-1h-1v-1h-1v-1h-2v-1h-1v-1h-1v-1h-1v-1
								h-1v-1h-2v-1h-1v-1h-1v-1h-1v-1h-1v-1h-2v-1h-1v-1h-1v-1h-2v-1h-1v-1h-1v-1h-2v-1h-1v-1h-1v-1h-2v-1h-1v-1h-2v-1h-1v-1h-1v-1
								h-2v-1h-1v-1h-1v-1h-2v-1h-1v-1h-1v-1h-2v-1h-1v-1h-2v-1h-1v-1h-1v-1h-2v-1h-1v-1h-1v-1h-2v-1h-1v-1h-1v-1h-2v-1h-1v-1h-2v-1
								h-1v-1h-1v-1h-2v-1h-1v-1h-1v-1h-2v-1h-1v-1h-1v-1h-2v-1h-1v-1h-2v-1h-1v-1h-2v-1h-1v-1h-2v-1h-2v-1h-1v-1h-2v-1h-1v-1h-2v-1
								h-1v-1h-2v-1h-1v-1h-2v-1h-1v-1h-2v-1h-2v-1h-1v-1h-2v-1h-1v-1h-2v-1h-1v-1h-2v-1h-1v-1h-2v-1h-1v-1h-2v-1h-2v-1h-1v-1h-2v-1
								h-1v-1h-2v-1h-1v-1h-2v-1h-1v-1h-2v-1h-1v-1h-2v-1h-2v-1h-1v-1h-2v-1h-2v-1h-2v-1h-1v-1h-2v-1h-2v-1h-2v-1h-2v-1h-1v-1h-2v-1
								h-2v-1h-2v-1h-1v-1h-2v-1h-2v-1h-2v-1h-1v-1h-2v-1h-2v-1h-2v-1h-1v-1h-2v-1h-2v-1h-2v-1h-2v-1h-1v-1h-2v-1h-2v-1h-2v-1h-1v-1
								h-2v-1h-2v-1h-2v-1h-1v-1h-2v-1h-2v-1h-2v-1h-3v-1h-2v-1h-2v-1h-2v-1h-2v-1h-2v-1h-2v-1h-2v-1h-2v-1h-2v-1h-2v-1h-2v-1h-2v-1
								h-2v-1h-2v-1h-2v-1h-2v-1h-2v-1h-2v-1h-2v-1h-2v-1h-2v-1h-2v-1h-2v-1h-2v-1h-2v-1h-2v-1h-2v-1h-2v-1h-3v-1h-2v-1h-2v-1h-3v-1
								h-2v-1h-2v-1h-3v-1h-2v-1h-3v-1h-2v-1h-2v-1h-3v-1h-2v-1h-2v-1h-3v-1h-2v-1h-3v-1h-2v-1h-2v-1h-3v-1h-2v-1h-2v-1h-3v-1h-2v-1
								h-2v-1h-3v-1h-2v-1h-3v-1h-2v-1h-3v-1h-3v-1h-2v-1h-3v-1h-3v-1h-3v-1h-3v-1h-2v-1h-3v-1h-3v-1h-3v-1h-3v-1h-2v-1h-3v-1h-3v-1
								h-3v-1h-3v-1h-2v-1h-3v-1h-3v-1h-3v-1h-3v-1h-2v-1h-3v-1h-3v-1h-3v-1h-4v-1h-3v-1h-4v-1h-3v-1h-3v-1h-4v-1h-3v-1h-4v-1h-3v-1
								h-3v-1h-4v-1h-3v-1h-4v-1h-3v-1h-3v-1h-4v-1h-3v-1h-4v-1h-3v-1h-3v-1h-4v-1h-4v-1h-4v-1h-5v-1h-4v-1h-4v-1h-4v-1h-5v-1h-4v-1
								h-4v-1h-4v-1h-5v-1h-4v-1h-4v-1h-4v-1h-5v-1h-4v-1h-4v-1h-5v-1h-5v-1h-6v-1h-6v-1h-5v-1h-6v-1h-5v-1h-6v-1h-6v-1h-5v-1h-6v-1
								h-5v-1h-6v-1h-6v-1h-5v-1h-8v-1h-8v-1h-9v-1h-8v-1h-7v-1h-8v-1h-9v-1h-8v-1h-8v-1h-8v-1h-13v-1h-13v-1h-14v-1h-13v-1h-14v-1
								h-14v-1h-26v-1h-31v-1"/>
						</g>
					</g>
				</g>
			</g>
		</g>
		<g id="g188">
			<g>
				<defs>
					<path id="SVGID_21_" d="M2219.4,25653.1c509.5,59.1,1240.2,80.4,2030.3-100.5c-260.3-1359.7-221-2776.8,80-4244.3H2101.4
						c-355.3,0-658.2,258.1-713.6,609c-111.1,703.4-246.8,1885.6-102.1,2835.2C1358.4,25229,1740.6,25597.5,2219.4,25653.1
						L2219.4,25653.1z"/>
				</defs>
				<clipPath id="SVGID_22_">
					<use xlink:href="#SVGID_21_"  style="overflow:visible;"/>
				</clipPath>
				<g id="g190" class="st23">
					
						<linearGradient id="path202_1_" gradientUnits="userSpaceOnUse" x1="11775.627" y1="20168.9375" x2="11776.627" y2="20168.9375" gradientTransform="matrix(-272.2986 -526.444 -526.444 272.2986 13832304 740366.625)">
						<stop  offset="0" style="stop-color:#132C33"/>
						<stop  offset="1" style="stop-color:#263D43"/>
					</linearGradient>
					<path id="path202" class="st24" d="M2219.4,25653.1c509.5,59.1,1240.2,80.4,2030.3-100.5c-260.3-1359.7-221-2776.8,80-4244.3
						H2101.4c-355.3,0-658.2,258.1-713.6,609c-111.1,703.4-246.8,1885.6-102.1,2835.2C1358.4,25229,1740.6,25597.5,2219.4,25653.1"
						/>
				</g>
			</g>
		</g>
		<path id="path204" class="st8" d="M3556.7,24611.7H1820.6c-58.9,0-110.9,30.9-139.1,82.7c-28.1,51.7-25.9,112.2,6.2,161.7
			c13.4,20.7,41,26.5,61.7,13.2c20.7-13.4,26.6-41.1,13.2-61.8c-14-21.5-15-47.9-2.7-70.5c12.3-22.5,35-36,60.7-36h1736.1
			c38.1,0,69,31,69,69v123.6c0,38.1-31,69-69,69h-1749c-24.7,0-44.6,20-44.6,44.7c0,24.6,20,44.6,44.6,44.6h1749
			c87.3,0,158.3-71,158.3-158.3V24770C3715.1,24682.8,3644,24611.7,3556.7,24611.7"/>
		<path id="path206" class="st8" d="M3401.9,23842.8H1665.8c-58.9,0-110.9,30.9-139.1,82.7c-28.1,51.8-25.9,112.2,6.2,161.7
			c13.4,20.6,41.1,26.5,61.7,13.2c20.7-13.4,26.6-41,13.2-61.8c-14-21.5-15-47.9-2.7-70.4c12.3-22.6,35-36.1,60.7-36.1h1736.1
			c38.1,0,69,31,69,69v123.6c0,38-31,69-69,69H1653c-24.7,0-44.6,20-44.6,44.7c0,24.6,20,44.6,44.6,44.6h1749
			c87.3,0,158.3-71,158.3-158.3v-123.6C3560.3,23913.9,3489.2,23842.8,3401.9,23842.8"/>
		<path id="path208" class="st11" d="M5540.4,25709.7c-18.9,0-36.5,12.1-42.5,31.1c-7.5,23.5,5.5,48.6,29,56.1l8203.9,2610.6
			c23.5,7.5,48.6-5.5,56.1-29s-5.5-48.6-29-56.1L5554,25711.8C5549.5,25710.3,5544.9,25709.7,5540.4,25709.7"/>
		<path id="path210" class="st11" d="M4431,25256.2c-17.6,0-34.3,10.4-41.3,27.7c-9.3,22.8,1.6,48.9,24.4,58.2l422.2,172.6
			c22.8,9.4,48.9-1.6,58.2-24.4s-1.6-48.9-24.4-58.2l-422.2-172.6C4442.3,25257.2,4436.6,25256.2,4431,25256.2"/>
		<path id="path212" class="st8" d="M3556.7,22942.3H1820.6c-58.9,0-110.9,30.9-139.1,82.7c-28.2,51.8-25.9,112.2,6.1,161.7
			c13.4,20.7,41,26.6,61.7,13.2c20.7-13.4,26.6-41,13.2-61.7c-14-21.6-15-48-2.7-70.5c12.3-22.6,35-36.1,60.6-36.1h1736.1
			c38.1,0,69,31,69,69.1v123.5c0,38.1-31,69-69,69h-1749c-24.7,0-44.6,20-44.6,44.7c0,24.6,20,44.6,44.6,44.6h1749
			c87.3,0,158.3-71,158.3-158.3v-123.5C3715.1,23013.4,3644,22942.3,3556.7,22942.3"/>
		<path id="path214" class="st8" d="M3719.3,21942.8H1983.2c-58.9,0-110.9,30.9-139.1,82.7c-28.2,51.8-25.9,112.2,6.1,161.7
			c13.4,20.7,41,26.5,61.7,13.2c20.7-13.4,26.6-41,13.2-61.7c-14-21.6-15-48-2.7-70.5c12.3-22.6,35-36.1,60.6-36.1h1736.1
			c38.1,0,69,31,69,69.1v123.5c0,38.1-31,69-69,69h-1749c-24.7,0-44.6,20-44.6,44.7c0,24.6,20,44.6,44.6,44.6h1749
			c87.3,0,158.3-71,158.3-158.3v-123.5C3877.6,22013.9,3806.6,21942.8,3719.3,21942.8"/>
		<path id="path216" class="st8" d="M5269.9,16508.5c-80,0-160.8,8.6-241.5,26.2c-353,76.9-640.3,309.7-788.4,638.6l-1387.1,3081.5
			c-10.1,22.4-0.1,48.9,22.4,59s48.9,0.1,59-22.4l1387.1-3081.5c136.3-302.8,400.9-517.1,726-587.9c319.5-69.7,642.7,13,886.9,226.7
			c13.1,11.5,26.2,23.3,39.5,35.3c18.1,16.6,46.4,15.4,63-2.8c16.7-18.2,15.4-46.5-2.8-63.1c-13.7-12.5-27.3-24.7-40.9-36.6
			C5789.1,16603,5534.4,16508.5,5269.9,16508.5"/>
		<path id="path218" class="st8" d="M2688.6,20684.1c-17,0-33.3,9.8-40.7,26.3l-154.7,343.8c-10.1,22.4-0.1,48.8,22.4,59
			c22.5,10.1,48.9,0,59-22.4l154.7-343.7c10.1-22.5,0.1-49-22.4-59.1C2700.9,20685.3,2694.7,20684.1,2688.6,20684.1"/>
		<path id="path220" class="st11" d="M15999.7,24193.7c-23.2,0-42.8,18-44.5,41.5c-30.8,434.8-181.6,759-447.9,963.5
			c-460.7,353.7-1118,232.2-1124.6,230.9c-24.4-4.7-47.6,11.1-52.3,35.3c-4.7,24.2,11.2,47.7,35.4,52.3
			c28.5,5.5,703.7,130.2,1195.8-247.6c287.6-220.8,449.9-566.7,482.7-1028.1c1.7-24.6-16.8-45.9-41.4-47.7
			C16001.8,24193.8,16000.7,24193.7,15999.7,24193.7"/>
		<g id="g222">
			<g>
				<defs>
					<path id="SVGID_23_" d="M10787.9,31265.8v-617.6h206.9c85.5,0,149.2,26.2,191,78.5s62.7,133.4,62.7,243.1
						c0,197.3-86.6,296-259.8,296H10787.9z M10787.9,31608.6h188.8c86.5,0,147.4,23.1,182.7,69.4c35.2,46.3,52.8,115.3,52.8,206.9
						s-20.1,157.3-60.4,197c-40.2,39.8-103.7,59.7-190.2,59.7h-173.7V31608.6z M10401.3,32496.4h563.3
						c229.5,0,396.6-44.5,501.3-133.6s157-230.8,157-425.1c0-127.8-27.6-234.8-83-320.8c-55.4-86.1-130.9-138.2-226.5-156.3v-15.1
						c124.8-31.2,214.9-89.6,270.3-175.2c55.3-85.5,83-199.3,83-341.2c0-200.4-53.6-357.2-160.8-470.4
						c-107.2-113.3-253.9-169.9-440.2-169.9h-664.4L10401.3,32496.4z"/>
				</defs>
				<clipPath id="SVGID_24_">
					<use xlink:href="#SVGID_23_"  style="overflow:visible;"/>
				</clipPath>
				<g id="g224" class="st25">
					
						<linearGradient id="path236_1_" gradientUnits="userSpaceOnUse" x1="11795.8867" y1="20119.7871" x2="11796.8867" y2="20119.7871" gradientTransform="matrix(172.456 1406.8799 1406.8799 -172.456 -30329298 -13093417)">
						<stop  offset="0" style="stop-color:#126E82"/>
						<stop  offset="1" style="stop-color:#2A7D8F"/>
					</linearGradient>
					<path id="path236" class="st26" d="M10787.9,31265.8v-617.6h206.9c85.5,0,149.2,26.2,191,78.5s62.7,133.4,62.7,243.1
						c0,197.3-86.6,296-259.8,296H10787.9z M10787.9,31608.6h188.8c86.5,0,147.4,23.1,182.7,69.4c35.2,46.3,52.8,115.3,52.8,206.9
						s-20.1,157.3-60.4,197c-40.2,39.8-103.7,59.7-190.2,59.7h-173.7V31608.6z M10401.3,32496.4h563.3
						c229.5,0,396.6-44.5,501.3-133.6s157-230.8,157-425.1c0-127.8-27.6-234.8-83-320.8c-55.4-86.1-130.9-138.2-226.5-156.3v-15.1
						c124.8-31.2,214.9-89.6,270.3-175.2c55.3-85.5,83-199.3,83-341.2c0-200.4-53.6-357.2-160.8-470.4
						c-107.2-113.3-253.9-169.9-440.2-169.9h-664.4L10401.3,32496.4"/>
				</g>
			</g>
		</g>
		<g id="g238">
			<g>
				<defs>
					<polygon id="SVGID_25_" points="11968.7,30288.8 11968.7,32496.4 12379.5,32496.4 12379.5,30648.2 12948.7,30648.2 
						12948.7,30288.8 					"/>
				</defs>
				<clipPath id="SVGID_26_">
					<use xlink:href="#SVGID_25_"  style="overflow:visible;"/>
				</clipPath>
				<g id="g240" class="st27">
					
						<linearGradient id="path252_1_" gradientUnits="userSpaceOnUse" x1="11795.8867" y1="20119.7871" x2="11796.8867" y2="20119.7871" gradientTransform="matrix(172.456 1406.8799 1406.8799 -172.456 -30327860 -13093594)">
						<stop  offset="0" style="stop-color:#126E82"/>
						<stop  offset="1" style="stop-color:#2A7D8F"/>
					</linearGradient>
					<path id="path252" class="st28" d="M11968.7,30288.8v2207.6h410.8v-1848.2h569.2v-359.4H11968.7"/>
				</g>
			</g>
		</g>
		<g id="g254">
			<g>
				<defs>
					<path id="SVGID_27_" d="M13563.3,31395.7c0-251.7,31.7-443.5,95.2-575.4c63.4-131.9,156.5-197.8,279.3-197.8
						c247.7,0,371.5,257.7,371.5,773.2c0,515.4-122.9,773.1-368.5,773.1c-124.8,0-218.9-65.7-282.3-197.1
						C13595,31840.4,13563.3,31648.3,13563.3,31395.7L13563.3,31395.7z M14730.6,31395.7c0-365.5-68.5-646.3-205.4-842.6
						c-136.9-196.3-332.7-294.5-587.4-294.5c-255.7,0-452,97.9-588.9,293.7c-136.9,195.8-205.4,477.9-205.4,846.4
						c0,365.4,68.5,645.5,205.4,840.3s334.2,292.2,591.9,292.2c254.7,0,450-97.9,585.9-293.7
						C14662.6,32041.7,14730.6,31761.1,14730.6,31395.7z"/>
				</defs>
				<clipPath id="SVGID_28_">
					<use xlink:href="#SVGID_27_"  style="overflow:visible;"/>
				</clipPath>
				<g id="g256" class="st29">
					
						<linearGradient id="path268_1_" gradientUnits="userSpaceOnUse" x1="11795.8867" y1="20119.7871" x2="11796.8867" y2="20119.7871" gradientTransform="matrix(172.456 1406.8799 1406.8799 -172.456 -30326404 -13093772)">
						<stop  offset="0" style="stop-color:#126E82"/>
						<stop  offset="1" style="stop-color:#2A7D8F"/>
					</linearGradient>
					<path id="path268" class="st30" d="M13563.3,31395.7c0-251.7,31.7-443.5,95.2-575.4c63.4-131.9,156.5-197.8,279.3-197.8
						c247.7,0,371.5,257.7,371.5,773.2c0,515.4-122.9,773.1-368.5,773.1c-124.8,0-218.9-65.7-282.3-197.1
						C13595,31840.4,13563.3,31648.3,13563.3,31395.7L13563.3,31395.7z M14730.6,31395.7c0-365.5-68.5-646.3-205.4-842.6
						c-136.9-196.3-332.7-294.5-587.4-294.5c-255.7,0-452,97.9-588.9,293.7c-136.9,195.8-205.4,477.9-205.4,846.4
						c0,365.4,68.5,645.5,205.4,840.3s334.2,292.2,591.9,292.2c254.7,0,450-97.9,585.9-293.7
						C14662.6,32041.7,14730.6,31761.1,14730.6,31395.7"/>
				</g>
			</g>
		</g>
		<g id="g270">
			<g>
				<defs>
					<path id="SVGID_29_" d="M15719.6,31513.4h675v-1132.5c-191.3-81.5-394.6-122.3-610-122.3c-256.8,0-454.3,97.6-592.7,293
						c-138.4,195.2-207.7,476.6-207.7,844.1c0,354.3,79.3,631.6,237.9,832c158.5,200.3,380.2,300.5,665.1,300.5
						c176.2,0,344.3-45.3,504.4-135.9l-129.9-335.3c-124.8,72.5-241.6,108.8-350.3,108.8c-156.1,0-279.6-69.8-370.7-209.2
						c-91.1-139.4-136.7-329.4-136.7-570c0-247.7,33-437.4,98.9-569.3c66-131.9,161.8-197.8,287.7-197.8
						c66.4,0,133.9,8.5,202.3,25.7v505.8h-273.3L15719.6,31513.4z"/>
				</defs>
				<clipPath id="SVGID_30_">
					<use xlink:href="#SVGID_29_"  style="overflow:visible;"/>
				</clipPath>
				<g id="g272" class="st31">
					
						<linearGradient id="path284_1_" gradientUnits="userSpaceOnUse" x1="11795.8867" y1="20119.7871" x2="11796.8867" y2="20119.7871" gradientTransform="matrix(172.456 1406.8799 1406.8799 -172.456 -30324624 -13093990)">
						<stop  offset="0" style="stop-color:#126E82"/>
						<stop  offset="1" style="stop-color:#2A7D8F"/>
					</linearGradient>
					<path id="path284" class="st32" d="M15719.6,31513.4h675v-1132.5c-191.3-81.5-394.6-122.3-610-122.3
						c-256.8,0-454.3,97.6-592.7,293c-138.4,195.2-207.7,476.6-207.7,844.1c0,354.3,79.3,631.6,237.9,832
						c158.5,200.3,380.2,300.5,665.1,300.5c176.2,0,344.3-45.3,504.4-135.9l-129.9-335.3c-124.8,72.5-241.6,108.8-350.3,108.8
						c-156.1,0-279.6-69.8-370.7-209.2c-91.1-139.4-136.7-329.4-136.7-570c0-247.7,33-437.4,98.9-569.3
						c66-131.9,161.8-197.8,287.7-197.8c66.4,0,133.9,8.5,202.3,25.7v505.8h-273.3L15719.6,31513.4"/>
				</g>
			</g>
		</g>
		<path id="path286" class="st17" d="M20375.3,26836.9l-2618.8-148.7c-219.2-12.4-407.8,153.4-423.5,372.4l-218.5,3037.9
			c-16.7,232.7,167.6,430.7,400.8,430.7h2837.2c222,0,401.9-179.9,401.9-401.8v-2889.3C20754.4,27025,20588,26849,20375.3,26836.9"
			/>
		<path id="path288" class="st33" d="M18933.9,30017c-561.2,0-1017.7-416.2-1017.7-927.6c0-265.7,300.6-914.8,824.8-1780.8
			c41.2-68.1,113.3-108.8,192.9-108.8s151.7,40.7,192.9,108.8c524.2,866,824.9,1515.1,824.9,1780.8
			C19951.7,29600.8,19495.1,30017,18933.9,30017L18933.9,30017z M18933.9,27050.5L18933.9,27050.5c-132.3,0-252.1,67.5-320.7,180.7
			c-386.1,638-846.4,1478.2-846.4,1858.2c0,593.8,523.6,1076.9,1167.1,1076.9c643.6,0,1167.1-483.1,1167.1-1076.9
			c0-380-460.3-1220.2-846.4-1858.2C19186.1,27118,19066.2,27050.5,18933.9,27050.5"/>
		<path id="path290" class="st33" d="M18843.5,28337.5c-399,0-723.6,324.6-723.6,723.6c0,41.3,33.4,74.7,74.6,74.7
			c41.3,0,74.7-33.4,74.7-74.7c0-316.7,257.6-574.3,574.3-574.3c316.6,0,574.3,257.6,574.3,574.3c0,316.7-257.7,574.3-574.3,574.3
			c-183.1,0-351-84.3-460.7-231.3c-24.6-33.1-71.4-39.9-104.5-15.2c-33,24.6-39.8,71.4-15.2,104.5
			c136.1,182.4,353.1,291.3,580.4,291.3c399,0,723.6-324.6,723.6-723.6S19242.5,28337.5,18843.5,28337.5"/>
		<path id="path292" class="st17" d="M26492.7,24869.4l-3194,52.5c-229.2,3.8-408.8,198.3-394.4,427.2l210.1,3328.3
			c12.1,191.5,158,347.8,348.3,373l3596.3,476.4c266.5,35.3,491.8-195.9,449.7-461.4l-612.5-3857.3
			C26864.8,25010.5,26692.8,24866.1,26492.7,24869.4"/>
		<path id="path294" class="st34" d="M25035.4,25757.8c-692.7,0-1256.2,563.5-1256.2,1256.1c0,692.7,563.5,1256.2,1256.2,1256.2
			c692.6,0,1256.1-563.5,1256.1-1256.2C26291.5,26321.3,25728,25757.8,25035.4,25757.8 M25035.4,28059.6
			c-576.6,0-1045.7-469.1-1045.7-1045.7s469.1-1045.6,1045.7-1045.6s1045.6,469,1045.6,1045.6S25612,28059.6,25035.4,28059.6"/>
		<path id="path296" class="st34" d="M24766.6,26405.5c-65,0-124.7,51.9-124.7,124.7v903c0,72.8,59.7,124.7,124.7,124.7
			c21.2,0,42.9-5.5,63.3-17.6l761-451.5c81.3-48.3,81.3-165.9,0-214.2l-761-451.5C24809.5,26411,24787.8,26405.5,24766.6,26405.5"/>
		<path id="path298" class="st17" d="M18917.5,20078.8l-1918.4-202.1c-237.3-25-444,161.1-444,399.6v2214.4
			c0,199.8,146.8,369.2,344.6,397.7l1918.4,276.2c242.2,34.9,459.1-153,459.1-397.7v-2288.5
			C19277.2,20272.8,19122,20100.3,18917.5,20078.8"/>
		<path id="path300" class="st33" d="M17761.6,20813.2c-215.8,0-440.1,93.3-506.5,232.2c-76,159,75.4,272.2,123.6,303.1
			c146.3,93.8,276.4,126,386.6,95.7c114.7-31.5,161.3-118.7,166.2-128.5l-148.9-74.6l0.9-1.7c-0.8,1.3-19.6,33.7-65.5,45
			c-43,10.7-121.2,6.1-249.4-76.1c-54.2-34.8-75.5-65.4-63.2-91c42.9-89.8,307.2-181,502.2-116c64.8,21.6,121.2,210.7,66.6,672.4
			c-39.9,337.5-120.4,665.9-121.2,669.1c-7.5,30.4,2.7,62.5,26.4,82.9c23.7,20.5,56.8,26,85.8,14.2c19.8-8,485.8-200.9,612.5-565.1
			c57.5-165.4,36.8-337.2-61.6-510.8c-22.6-40.1-73.5-54.1-113.5-31.4c-40,22.6-54.1,73.5-31.4,113.5
			c74.7,131.7,90.8,253.9,49.4,373.5c-61.5,177.3-236.8,310.1-366.6,387.7c27.2-130.7,62.5-319.3,85.6-514
			c61.4-518.6,4.4-788.7-179.4-850C17898.5,20822.7,17830.5,20813.2,17761.6,20813.2"/>
		<path id="path302" class="st17" d="M25044.2,30023.6h-2901.9c-221.9,0-401.8,180-401.8,401.9v2909.7
			c0,209.4,160.7,383.7,369.4,400.6l3091.8,250.2c243.6,19.7,448.2-180.7,433.6-424.6l-189.9-3160
			C25432.6,30189.2,25256.8,30023.6,25044.2,30023.6"/>
		<path id="path304" class="st33" d="M24359.8,32705c-211.9,208.2-542.3,145.6-769.8-45.4c-32.6-27.4-79.8-27.7-112.9-0.9
			c-230.5,187-560.6,243.9-768.8,32.1c-226.1-230-222.9-599.7,7.1-825.8l769.5-756.5c35-34.3,91.2-33.8,125.6,1.1l756.4,769.6
			C24593,32109.2,24589.8,32478.9,24359.8,32705"/>
		<path id="path306" class="st17" d="M22725.6,24869.3c0-827.4-670.8-1498.2-1498.2-1498.2c-827.4,0-1498.2,670.8-1498.2,1498.2
			c0,827.4,670.8,1498.2,1498.2,1498.2C22054.8,26367.5,22725.6,25696.7,22725.6,24869.3"/>
		<path id="path308" class="st33" d="M20864.1,25367.1c0,38.6-31.3,69.9-69.9,69.9h-253.7c-38.7,0-69.9-31.3-69.9-69.9v-1106.4
			c0-38.6,31.2-70,69.9-70h253.7c38.6,0,69.9,31.4,69.9,70V25367.1"/>
		<path id="path310" class="st33" d="M21723,25437h-246.7v298.4c0,96.9-57.2,160.7-154.1,160.7h-6.2c-97,0-175.6-71.2-175.6-168.1
			l-86.7-299.2c-38.6,0-102.1-27.6-102.1-66.2v-1146.9c0-38.6,95.8-90.5,134.4-90.5h54.4h582.6c145,0,256.2,138.2,256.2,283.2v761.4
			C21979.2,25314.9,21868,25437,21723,25437"/>
		<g id="g312">
			<g>
				<defs>
					<path id="SVGID_31_" d="M24509.7,9897.8c0,0,50.9-272.4,77.1-542.4c10.2-105.5-70.3-197.9-176.2-203.4
						c-359.6-18.4-1129-54.9-1405.2-45.2c-41.6,1.5-69.1,43.7-54.1,82.5c12.5,32.5,37.1,58.9,68.6,73.7l1265.7,596.4L24509.7,9897.8
						z"/>
				</defs>
				<clipPath id="SVGID_32_">
					<use xlink:href="#SVGID_31_"  style="overflow:visible;"/>
				</clipPath>
				<g id="g314" class="st35">
					
						<linearGradient id="path326_1_" gradientUnits="userSpaceOnUse" x1="11761.8623" y1="20131.1895" x2="11762.8623" y2="20131.1895" gradientTransform="matrix(627.092 -669.228 669.228 627.092 -20825090 -4742478.5)">
						<stop  offset="0" style="stop-color:#132C33"/>
						<stop  offset="1" style="stop-color:#263D43"/>
					</linearGradient>
					<path id="path326" class="st36" d="M24509.7,9897.8c0,0,50.9-272.4,77.1-542.4c10.2-105.5-70.3-197.9-176.2-203.4
						c-359.6-18.4-1129-54.9-1405.2-45.2c-41.6,1.5-69.1,43.7-54.1,82.5c12.5,32.5,37.1,58.9,68.6,73.7l1265.7,596.4L24509.7,9897.8
						"/>
				</g>
			</g>
		</g>
		<g id="g328">
			<g>
				<defs>
					<path id="SVGID_33_" d="M24547.7,10058.6l-35.6-326.8c0,0-221.7-105.8-374.9,9.4l88.7,364.7L24547.7,10058.6z"/>
				</defs>
				<clipPath id="SVGID_34_">
					<use xlink:href="#SVGID_33_"  style="overflow:visible;"/>
				</clipPath>
				<g id="g330" class="st37">
					
						<linearGradient id="path342_1_" gradientUnits="userSpaceOnUse" x1="12078.458" y1="19847.1797" x2="12079.458" y2="19847.1797" gradientTransform="matrix(-55.1315 -0.5237 0.5237 -55.1315 680057.3125 1110429.375)">
						<stop  offset="0" style="stop-color:#E1BC63"/>
						<stop  offset="1" style="stop-color:#CF9508"/>
					</linearGradient>
					<path id="path342" class="st38" d="M24547.7,10058.6l-35.6-326.8c0,0-221.7-105.8-374.9,9.4l88.7,364.7L24547.7,10058.6"/>
				</g>
			</g>
		</g>
		<g id="g344">
			<g>
				<defs>
					<path id="SVGID_35_" d="M24460,16195.9c17.6-85.1,130.4-4253.5-297.4-6126.1c-7-30.5,8.8-61.8,37.9-73.4
						c68.6-27.3,203-66.4,363.7-70.3c49.7-1.2,94,31.6,107.6,79.4c123.2,434.7,712.9,2612.4,772.7,4687.9
						c66.9,2319.1-0.7,78.9-0.7,78.9l-65.9,1432.5L24460,16195.9z"/>
				</defs>
				<clipPath id="SVGID_36_">
					<use xlink:href="#SVGID_35_"  style="overflow:visible;"/>
				</clipPath>
				<g id="g346" class="st39">
					
						<linearGradient id="path358_1_" gradientUnits="userSpaceOnUse" x1="11814.5059" y1="20136.084" x2="11815.5059" y2="20136.084" gradientTransform="matrix(-499.216 617.2133 -617.2133 -499.216 18211086 2946311.75)">
						<stop  offset="0" style="stop-color:#132C33"/>
						<stop  offset="1" style="stop-color:#263D43"/>
					</linearGradient>
					<path id="path358" class="st40" d="M24460,16195.9c17.6-85.1,130.4-4253.5-297.4-6126.1c-7-30.5,8.8-61.8,37.9-73.4
						c68.6-27.3,203-66.4,363.7-70.3c49.7-1.2,94,31.6,107.6,79.4c123.2,434.7,712.9,2612.4,772.7,4687.9
						c66.9,2319.1-0.7,78.9-0.7,78.9l-65.9,1432.5L24460,16195.9"/>
				</g>
			</g>
		</g>
		<g id="g360">
			<g>
				<defs>
					<path id="SVGID_37_" d="M25973.5,9769.4c0,0,78-137,155.8-502.5c14-66-31.6-129.7-98.6-136.9c-118.7-12.8-301.5-29.6-448-30
						c-67.5-0.2-120.8,58.1-113.3,125.2c14.9,133.8,63.4,353.6,218,526L25973.5,9769.4z"/>
				</defs>
				<clipPath id="SVGID_38_">
					<use xlink:href="#SVGID_37_"  style="overflow:visible;"/>
				</clipPath>
				<g id="g362" class="st41">
					
						<linearGradient id="path374_1_" gradientUnits="userSpaceOnUse" x1="11761.8633" y1="20131.1895" x2="11762.8633" y2="20131.1895" gradientTransform="matrix(627.1187 -669.2573 669.2573 627.1187 -20824960 -4741699.5)">
						<stop  offset="0" style="stop-color:#132C33"/>
						<stop  offset="1" style="stop-color:#263D43"/>
					</linearGradient>
					<path id="path374" class="st42" d="M25973.5,9769.4c0,0,78-137,155.8-502.5c14-66-31.6-129.7-98.6-136.9
						c-118.7-12.8-301.5-29.6-448-30c-67.5-0.2-120.8,58.1-113.3,125.2c14.9,133.8,63.4,353.6,218,526L25973.5,9769.4"/>
				</g>
			</g>
		</g>
		<g id="g376">
			<g>
				<defs>
					<path id="SVGID_39_" d="M26036.8,10190l-85.8-494.6c0,0-88.8-67.4-266.3-20.9l38.1,531.6L26036.8,10190z"/>
				</defs>
				<clipPath id="SVGID_40_">
					<use xlink:href="#SVGID_39_"  style="overflow:visible;"/>
				</clipPath>
				<g id="g378" class="st43">
					
						<linearGradient id="path390_1_" gradientUnits="userSpaceOnUse" x1="12124.6699" y1="19802.0391" x2="12125.6699" y2="19802.0391" gradientTransform="matrix(-47.6007 -0.4522 0.4522 -47.6007 594226.9375 958007.875)">
						<stop  offset="0" style="stop-color:#E1BC63"/>
						<stop  offset="1" style="stop-color:#CF9508"/>
					</linearGradient>
					<path id="path390" class="st44" d="M26036.8,10190l-85.8-494.6c0,0-88.8-67.4-266.3-20.9l38.1,531.6L26036.8,10190"/>
				</g>
			</g>
		</g>
		<g id="g392">
			<g>
				<defs>
					<path id="SVGID_41_" d="M26225.1,16084.8c385.5-2196.2-27.2-5437.4-170.7-6072.4c-8.8-38.9-39.8-68.9-79.1-75.8
						c-66.6-11.7-176.5-21.7-285.2,8.7c-37.4,10.5-64,43.9-65.8,82.8c-25,512-18.9,3656.8-370.3,4896.3
						c-17.9,62.8-56.8,117.3-110.4,154.7l-663.6,462.3l-57.8,757L26225.1,16084.8z"/>
				</defs>
				<clipPath id="SVGID_42_">
					<use xlink:href="#SVGID_41_"  style="overflow:visible;"/>
				</clipPath>
				<g id="g394" class="st45">
					
						<linearGradient id="path406_1_" gradientUnits="userSpaceOnUse" x1="11814.5059" y1="20136.084" x2="11815.5059" y2="20136.084" gradientTransform="matrix(-499.2133 617.2093 -617.2093 -499.2133 18211634 2946840.5)">
						<stop  offset="0" style="stop-color:#132C33"/>
						<stop  offset="1" style="stop-color:#263D43"/>
					</linearGradient>
					<path id="path406" class="st46" d="M26225.1,16084.8c385.5-2196.2-27.2-5437.4-170.7-6072.4c-8.8-38.9-39.8-68.9-79.1-75.8
						c-66.6-11.7-176.5-21.7-285.2,8.7c-37.4,10.5-64,43.9-65.8,82.8c-25,512-18.9,3656.8-370.3,4896.3
						c-17.9,62.8-56.8,117.3-110.4,154.7l-663.6,462.3l-57.8,757L26225.1,16084.8"/>
				</g>
			</g>
		</g>
		<g id="g408">
			<g>
				<defs>
					<path id="SVGID_43_" d="M23862.9,20230.6c1092.1,28.4,2300.2-264.9,2300.2-264.9c343.7-1896.7,96-4090.5,96-4090.5
						c-843.5-229.8-1800.8,118.4-1800.8,118.4c-148.1,792.7-825.2,3021.2-825.2,3021.2c-534.3,61.2-975.4,210.9-1339.4,411.1
						c273.1,322.7,399.4,731.3,453.6,972.6C23134.7,20282.2,23526.1,20221.8,23862.9,20230.6L23862.9,20230.6z"/>
				</defs>
				<clipPath id="SVGID_44_">
					<use xlink:href="#SVGID_43_"  style="overflow:visible;"/>
				</clipPath>
				<g id="g410" class="st47">
					
						<linearGradient id="path422_1_" gradientUnits="userSpaceOnUse" x1="11772.0527" y1="20127.2227" x2="11773.0527" y2="20127.2227" gradientTransform="matrix(645.6786 -1325.9453 1325.9453 645.6786 -34267448 2639476.5)">
						<stop  offset="0" style="stop-color:#126E82"/>
						<stop  offset="1" style="stop-color:#2A7D8F"/>
					</linearGradient>
					<path id="path422" class="st48" d="M23862.9,20230.6c1092.1,28.4,2300.2-264.9,2300.2-264.9c343.7-1896.7,96-4090.5,96-4090.5
						c-843.5-229.8-1800.8,118.4-1800.8,118.4c-148.1,792.7-825.2,3021.2-825.2,3021.2c-534.3,61.2-975.4,210.9-1339.4,411.1
						c273.1,322.7,399.4,731.3,453.6,972.6C23134.7,20282.2,23526.1,20221.8,23862.9,20230.6"/>
				</g>
			</g>
		</g>
		<g id="g424">
			<g>
				<defs>
					<path id="SVGID_45_" d="M20621.2,21808.6c106,130.7,242.4,70.7,242.4,70.7c167.2-677.5,1015.3-1220,1883.7-1480.8
						c-54.2-241.3-180.5-649.9-453.6-972.6C20849,20220.1,20621.2,21808.6,20621.2,21808.6z"/>
				</defs>
				<clipPath id="SVGID_46_">
					<use xlink:href="#SVGID_45_"  style="overflow:visible;"/>
				</clipPath>
				<g id="g426" class="st49">
					
						<linearGradient id="path438_1_" gradientUnits="userSpaceOnUse" x1="11843.542" y1="20076.6602" x2="11844.542" y2="20076.6602" gradientTransform="matrix(-281.676 -2.6759 2.6759 -281.676 3305062.75 5707476.5)">
						<stop  offset="0" style="stop-color:#E1BC63"/>
						<stop  offset="1" style="stop-color:#CF9508"/>
					</linearGradient>
					<path id="path438" class="st50" d="M20621.2,21808.6c106,130.7,242.4,70.7,242.4,70.7c167.2-677.5,1015.3-1220,1883.7-1480.8
						c-54.2-241.3-180.5-649.9-453.6-972.6C20849,20220.1,20621.2,21808.6,20621.2,21808.6"/>
				</g>
			</g>
		</g>
		<g id="g440">
			<g>
				<defs>
					<path id="SVGID_47_" d="M20647.5,21775.9c-10.9-35.8,119.7-88.9,194.8,57.8c2,70,41.7,370.2-0.6,426.8
						c-225.6,301.4-660.9,677.8-660.9,677.8c-72.3-72.7-11.5-142.9-11.5-142.9l211.5-216.1c-43-79.6-95.8-146.9-119.9-242.9
						c-18.3-72.7-6-150,31.3-215.7c37.4-65.8,88.3-151.5,136.4-218.4C20519.6,21775.7,20647.5,21775.9,20647.5,21775.9
						L20647.5,21775.9z"/>
				</defs>
				<clipPath id="SVGID_48_">
					<use xlink:href="#SVGID_47_"  style="overflow:visible;"/>
				</clipPath>
				<g id="g442" class="st51">
					
						<linearGradient id="path454_1_" gradientUnits="userSpaceOnUse" x1="11875.377" y1="20099.8652" x2="11876.377" y2="20099.8652" gradientTransform="matrix(-104.3817 213.3013 213.3013 104.3817 -3026711.75 -4609876)">
						<stop  offset="0" style="stop-color:#E1BC63"/>
						<stop  offset="1" style="stop-color:#CF9508"/>
					</linearGradient>
					<path id="path454" class="st52" d="M20647.5,21775.9c-10.9-35.8,119.7-88.9,194.8,57.8c2,70,41.7,370.2-0.6,426.8
						c-225.6,301.4-660.9,677.8-660.9,677.8c-72.3-72.7-11.5-142.9-11.5-142.9l211.5-216.1c-43-79.6-95.8-146.9-119.9-242.9
						c-18.3-72.7-6-150,31.3-215.7c37.4-65.8,88.3-151.5,136.4-218.4C20519.6,21775.7,20647.5,21775.9,20647.5,21775.9"/>
				</g>
			</g>
		</g>
		<g id="g456">
			<g>
				<defs>
					<path id="SVGID_49_" d="M20473.8,22438.6l192.3-159.9l61.5-160.5l-168.3-190.4c0,0-60.3,319-103.5,387.8
						S20434.4,22418,20473.8,22438.6z"/>
				</defs>
				<clipPath id="SVGID_50_">
					<use xlink:href="#SVGID_49_"  style="overflow:visible;"/>
				</clipPath>
				<g id="g458" class="st53">
					
						<linearGradient id="path470_1_" gradientUnits="userSpaceOnUse" x1="11938.2354" y1="20166.5352" x2="11939.2354" y2="20166.5352" gradientTransform="matrix(-80.0181 120.5076 -120.5076 -80.0181 3406124.75 197119.4844)">
						<stop  offset="0" style="stop-color:#E1BC63"/>
						<stop  offset="1" style="stop-color:#CF9508"/>
					</linearGradient>
					<path id="path470" class="st54" d="M20473.8,22438.6l192.3-159.9l61.5-160.5l-168.3-190.4c0,0-60.3,319-103.5,387.8
						S20434.4,22418,20473.8,22438.6"/>
				</g>
			</g>
		</g>
		<g id="g472">
			<g>
				<defs>
					<path id="SVGID_51_" d="M25754.3,18904l408.8,1061.7c0,0,1026.9-683.5,1203-1560.8c-192.6-16-542.9-69.5-884.6-246.2
						C26402.1,18573,25754.3,18904,25754.3,18904L25754.3,18904z"/>
				</defs>
				<clipPath id="SVGID_52_">
					<use xlink:href="#SVGID_51_"  style="overflow:visible;"/>
				</clipPath>
				<g id="g474" class="st55">
					
						<linearGradient id="path486_1_" gradientUnits="userSpaceOnUse" x1="11772.0527" y1="20127.2227" x2="11773.0527" y2="20127.2227" gradientTransform="matrix(645.6773 -1325.9426 1325.9426 645.6773 -34265880 2640201)">
						<stop  offset="0" style="stop-color:#126E82"/>
						<stop  offset="1" style="stop-color:#2A7D8F"/>
					</linearGradient>
					<path id="path486" class="st56" d="M25754.3,18904l408.8,1061.7c0,0,1026.9-683.5,1203-1560.8
						c-192.6-16-542.9-69.5-884.6-246.2C26402.1,18573,25754.3,18904,25754.3,18904"/>
				</g>
			</g>
		</g>
		<g id="g488">
			<g>
				<defs>
					<path id="SVGID_53_" d="M24872.2,17900.3c0,0,1151.6-636.4,1532.9-79.9c79.1,115.5,97.2,229.8,76.4,338.3
						c341.7,176.7,692,230.2,884.6,246.2c53.2-264.5,29.1-546.6-123.9-832.9c-665.2-1244.9-2518.9,44.5-2518.9,44.5L24872.2,17900.3
						z"/>
				</defs>
				<clipPath id="SVGID_54_">
					<use xlink:href="#SVGID_53_"  style="overflow:visible;"/>
				</clipPath>
				<g id="g490" class="st57">
					
						<linearGradient id="path502_1_" gradientUnits="userSpaceOnUse" x1="11831.5498" y1="20088.375" x2="11832.5498" y2="20088.375" gradientTransform="matrix(-356.4533 -3.3863 3.3863 -356.4533 4176765.5 7218356)">
						<stop  offset="0" style="stop-color:#E1BC63"/>
						<stop  offset="1" style="stop-color:#CF9508"/>
					</linearGradient>
					<path id="path502" class="st58" d="M24872.2,17900.3c0,0,1151.6-636.4,1532.9-79.9c79.1,115.5,97.2,229.8,76.4,338.3
						c341.7,176.7,692,230.2,884.6,246.2c53.2-264.5,29.1-546.6-123.9-832.9c-665.2-1244.9-2518.9,44.5-2518.9,44.5L24872.2,17900.3
						"/>
				</g>
			</g>
		</g>
		<g id="g504">
			<g>
				<defs>
					<path id="SVGID_55_" d="M24960.8,21127.9l357.2-1001.8c5.9-16.6-0.8-35.1-16.1-43.8c-94.3-53.2-434.1-207.9-848,49
						c-43.1,26.7-72.7,70.8-79.6,121l-120.9,868.8L24960.8,21127.9z"/>
				</defs>
				<clipPath id="SVGID_56_">
					<use xlink:href="#SVGID_55_"  style="overflow:visible;"/>
				</clipPath>
				<g id="g506" class="st59">
					
						<linearGradient id="path518_1_" gradientUnits="userSpaceOnUse" x1="11857.1221" y1="20107.7813" x2="11858.1221" y2="20107.7813" gradientTransform="matrix(-136.1493 267.76 267.76 136.1493 -3744248.75 -5893424.5)">
						<stop  offset="0" style="stop-color:#E1BC63"/>
						<stop  offset="1" style="stop-color:#CF9508"/>
					</linearGradient>
					<path id="path518" class="st60" d="M24960.8,21127.9l357.2-1001.8c5.9-16.6-0.8-35.1-16.1-43.8c-94.3-53.2-434.1-207.9-848,49
						c-43.1,26.7-72.7,70.8-79.6,121l-120.9,868.8L24960.8,21127.9"/>
				</g>
			</g>
		</g>
		<g id="g520">
			<g>
				<defs>
					<path id="SVGID_57_" d="M24195.7,22051.4c0,0-374.7-722-323.1-1011.8c51.7-289.7,524.5-264.4,935.3-24.7l281.2,778.4
						L24195.7,22051.4z"/>
				</defs>
				<clipPath id="SVGID_58_">
					<use xlink:href="#SVGID_57_"  style="overflow:visible;"/>
				</clipPath>
				<g id="g522" class="st61">
					
						<linearGradient id="path534_1_" gradientUnits="userSpaceOnUse" x1="11836.5889" y1="20207.4941" x2="11837.5889" y2="20207.4941" gradientTransform="matrix(43.2185 245.676 -245.676 43.2185 4497574 -3645231.75)">
						<stop  offset="0" style="stop-color:#E1BC63"/>
						<stop  offset="1" style="stop-color:#CF9508"/>
					</linearGradient>
					<path id="path534" class="st62" d="M24195.7,22051.4c0,0-374.7-722-323.1-1011.8c51.7-289.7,524.5-264.4,935.3-24.7
						l281.2,778.4L24195.7,22051.4"/>
				</g>
			</g>
		</g>
		<g id="g536">
			<g>
				<defs>
					<path id="SVGID_59_" d="M24786,21395.6c-16.9,7.3-23.2,27.8-13.3,43.3c30.1,47,86.5,142.8,104,226.4c0,0,68.2,44.6-175.6,100.5
						c-243.8,55.9-607.4,142.8-685.6,349.1c-76.2,201.1,114.2,710.6,429.7,309.1c12-15.2,35.2-15.4,46.9,0.2
						c50.4,66.9,183.4,206.2,370.6,124.3c175.3-76.6,196.1-204.3,194.4-268.7c-0.6-19,16.5-33.6,35.1-29.8
						c88.1,17.6,299.6,34.1,400.5-182.1c83.1-178.1,31.2-279.9-16.5-329.8c-15.5-16.2-8.4-42.6,13.1-48.9
						c58.1-17.2,133.4-65.7,127.2-201.6c-8.5-187.9-218.6-173.3-278.5-165.3c-9.8,1.3-19.6-2.2-26.2-9.6
						c-50.7-57.2-279.3-300.2-529-331.6c-21.6-2.7-38.6,18.5-31.7,39.1l105.2,315.5c4.9,14.6-2.3,30.6-16.4,36.7L24786,21395.6z"/>
				</defs>
				<clipPath id="SVGID_60_">
					<use xlink:href="#SVGID_59_"  style="overflow:visible;"/>
				</clipPath>
				<g id="g538" class="st63">
					
						<linearGradient id="path550_1_" gradientUnits="userSpaceOnUse" x1="11797.6914" y1="20044.9863" x2="11798.6914" y2="20044.9863" gradientTransform="matrix(-198.6786 -160.008 160.008 -198.6786 -837644.1875 5892930)">
						<stop  offset="0" style="stop-color:#132C33"/>
						<stop  offset="1" style="stop-color:#263D43"/>
					</linearGradient>
					<path id="path550" class="st64" d="M24786,21395.6c-16.9,7.3-23.2,27.8-13.3,43.3c30.1,47,86.5,142.8,104,226.4
						c0,0,68.2,44.6-175.6,100.5c-243.8,55.9-607.4,142.8-685.6,349.1c-76.2,201.1,114.2,710.6,429.7,309.1
						c12-15.2,35.2-15.4,46.9,0.2c50.4,66.9,183.4,206.2,370.6,124.3c175.3-76.6,196.1-204.3,194.4-268.7
						c-0.6-19,16.5-33.6,35.1-29.8c88.1,17.6,299.6,34.1,400.5-182.1c83.1-178.1,31.2-279.9-16.5-329.8
						c-15.5-16.2-8.4-42.6,13.1-48.9c58.1-17.2,133.4-65.7,127.2-201.6c-8.5-187.9-218.6-173.3-278.5-165.3
						c-9.8,1.3-19.6-2.2-26.2-9.6c-50.7-57.2-279.3-300.2-529-331.6c-21.6-2.7-38.6,18.5-31.7,39.1l105.2,315.5
						c4.9,14.6-2.3,30.6-16.4,36.7L24786,21395.6"/>
				</g>
			</g>
		</g>
		<g id="g552">
			<g>
				<defs>
					<path id="SVGID_61_" d="M24743,21350.6c0,0,269.9,189,291.3,32.2c21.3-156.8-242.6-229.7-374.2-172.4L24743,21350.6z"/>
				</defs>
				<clipPath id="SVGID_62_">
					<use xlink:href="#SVGID_61_"  style="overflow:visible;"/>
				</clipPath>
				<g id="g554" class="st65">
					
						<linearGradient id="path566_1_" gradientUnits="userSpaceOnUse" x1="11836.5889" y1="20207.4941" x2="11837.5889" y2="20207.4941" gradientTransform="matrix(43.2187 245.676 -245.676 43.2187 4497963.5 -3645303.5)">
						<stop  offset="0" style="stop-color:#E1BC63"/>
						<stop  offset="1" style="stop-color:#CF9508"/>
					</linearGradient>
					<path id="path566" class="st66" d="M24743,21350.6c0,0,269.9,189,291.3,32.2c21.3-156.8-242.6-229.7-374.2-172.4L24743,21350.6
						"/>
				</g>
			</g>
		</g>
		<g id="g568">
			<g>
				<defs>
					<path id="SVGID_63_" d="M25107.5,16894.5l-627.3,2190.9c-7.1,24.8-28.4,43-54.1,46c-113.6,13.2-443,50.5-823.3,82.6
						c-458,38.8-990,70.2-1307.8,43.5c-45.2-3.8-72.5-51.6-52.4-92.3c180.7-365.7,924.3-1853.3,1296.6-2340.6
						c12.3-16.1,31.4-25.6,51.7-25.4l1455.6,13.6C25088.9,16813.2,25119.2,16853.8,25107.5,16894.5L25107.5,16894.5z"/>
				</defs>
				<clipPath id="SVGID_64_">
					<use xlink:href="#SVGID_63_"  style="overflow:visible;"/>
				</clipPath>
				<g id="g570" class="st67">
					
						<linearGradient id="path582_1_" gradientUnits="userSpaceOnUse" x1="11772.9014" y1="20109.4414" x2="11773.9014" y2="20109.4414" gradientTransform="matrix(-196.6893 -819.5426 819.5426 -196.6893 -14140934 13623128)">
						<stop  offset="0" style="stop-color:#132C33"/>
						<stop  offset="1" style="stop-color:#263D43"/>
					</linearGradient>
					<path id="path582" class="st68" d="M25107.5,16894.5l-627.3,2190.9c-7.1,24.8-28.4,43-54.1,46c-113.6,13.2-443,50.5-823.3,82.6
						c-458,38.8-990,70.2-1307.8,43.5c-45.2-3.8-72.5-51.6-52.4-92.3c180.7-365.7,924.3-1853.3,1296.6-2340.6
						c12.3-16.1,31.4-25.6,51.7-25.4l1455.6,13.6C25088.9,16813.2,25119.2,16853.8,25107.5,16894.5"/>
				</g>
			</g>
		</g>
		<g id="g584">
			<g>
				<defs>
					<path id="SVGID_65_" d="M24956,17423.8c0,0,87.4,359.4,52.1,486.9c-35.3,127.4-103.6,291.4-331.2,254.9
						c-227.7-36.4-496.2-132.3-496.2-132.3s13.5-166.1,186.6-112.5l-107.3-83c0,0,15.3-133,161.4-61.9l-99.7-110.1
						c0,0,62.7-109.2,170.3-39.2C24599.5,17696.7,24651,17380.5,24956,17423.8L24956,17423.8z"/>
				</defs>
				<clipPath id="SVGID_66_">
					<use xlink:href="#SVGID_65_"  style="overflow:visible;"/>
				</clipPath>
				<g id="g586" class="st69">
					
						<linearGradient id="path598_1_" gradientUnits="userSpaceOnUse" x1="11932.2148" y1="19992.7227" x2="11933.2148" y2="19992.7227" gradientTransform="matrix(-111.44 0 0 -111.44 1354742.375 2245784.25)">
						<stop  offset="0" style="stop-color:#E1BC63"/>
						<stop  offset="1" style="stop-color:#CF9508"/>
					</linearGradient>
					<path id="path598" class="st70" d="M24956,17423.8c0,0,87.4,359.4,52.1,486.9c-35.3,127.4-103.6,291.4-331.2,254.9
						c-227.7-36.4-496.2-132.3-496.2-132.3s13.5-166.1,186.6-112.5l-107.3-83c0,0,15.3-133,161.4-61.9l-99.7-110.1
						c0,0,62.7-109.2,170.3-39.2C24599.5,17696.7,24651,17380.5,24956,17423.8"/>
				</g>
			</g>
		</g>
		<path id="path600" class="st17" d="M23644.7,18560c0-101.7-82.5-184.1-184.2-184.1s-184.1,82.4-184.1,184.1
			c0,101.7,82.4,184.2,184.1,184.2S23644.7,18661.7,23644.7,18560"/>
		<path id="path602" class="st8" d="M24409.4,18438.7l46.6,13.7l-127.8,433.3c-20.7,70.5-77.6,123.5-148.4,138.2
			c-404.9,84.5-1471.2,101.8-1516.4,102.5l-0.7-48.6c11-0.2,1106.8-17.9,1507.1-101.5c53.3-11.1,96.1-51.1,111.8-104.4
			L24409.4,18438.7"/>
	</g>
</g>
</svg>
