<?xml version="1.0" encoding="utf-8"?>
<!-- Generator: Adobe Illustrator 24.1.3, SVG Export Plug-In . SVG Version: 6.00 Build 0)  -->
<svg version="1.1" xmlns="http://www.w3.org/2000/svg" xmlns:xlink="http://www.w3.org/1999/xlink" x="0px" y="0px"
	 viewBox="0 0 2230.5 1307.6" style="enable-background:new 0 0 2230.5 1307.6;" xml:space="preserve">
<style type="text/css">
	.st0{fill:url(#SVGID_1_);}
	.st1{fill:#E1E9ED;}
	.st2{fill:#EDF2F4;}
	.st3{fill:#D8E3E7;}
	.st4{fill:url(#SVGID_2_);}
	.st5{fill:url(#SVGID_3_);}
	.st6{fill:url(#SVGID_4_);}
	.st7{fill:url(#SVGID_5_);}
	.st8{fill:url(#SVGID_6_);}
	.st9{fill:url(#SVGID_7_);}
	.st10{fill:url(#SVGID_8_);}
	.st11{fill:url(#SVGID_9_);}
	.st12{fill:url(#SVGID_10_);}
	.st13{fill:url(#SVGID_11_);}
	.st14{fill:url(#SVGID_12_);}
	.st15{fill:url(#SVGID_13_);}
	.st16{fill:url(#SVGID_14_);}
	.st17{fill:url(#SVGID_15_);}
	.st18{fill:url(#SVGID_16_);}
	.st19{fill:url(#SVGID_17_);}
	.st20{fill:url(#SVGID_18_);}
	.st21{fill:url(#SVGID_19_);}
	.st22{fill:url(#SVGID_20_);}
	.st23{fill:url(#SVGID_21_);}
	.st24{fill:url(#SVGID_22_);}
	.st25{fill:url(#SVGID_23_);}
	.st26{fill:url(#SVGID_24_);}
	.st27{fill:url(#SVGID_25_);}
	.st28{fill:url(#SVGID_26_);}
	.st29{fill:url(#SVGID_27_);}
	.st30{fill:url(#SVGID_28_);}
	.st31{fill:url(#SVGID_29_);}
	.st32{fill:url(#SVGID_30_);}
	.st33{fill:url(#SVGID_31_);}
	.st34{fill:url(#SVGID_32_);}
	.st35{fill:url(#SVGID_33_);}
	.st36{fill:url(#SVGID_34_);}
	.st37{fill:url(#SVGID_35_);}
	.st38{fill:url(#SVGID_36_);}
	.st39{fill:url(#SVGID_37_);}
	.st40{fill:url(#SVGID_38_);}
	.st41{fill:url(#SVGID_39_);}
	.st42{fill:url(#SVGID_40_);}
	.st43{fill:url(#SVGID_41_);}
	.st44{fill:url(#SVGID_42_);}
	.st45{fill:url(#SVGID_43_);}
	.st46{fill:url(#SVGID_44_);}
	.st47{fill:url(#SVGID_45_);}
	.st48{fill:url(#SVGID_46_);}
	.st49{fill:url(#SVGID_47_);}
	.st50{fill:url(#SVGID_48_);}
	.st51{fill:url(#SVGID_49_);}
	.st52{fill:url(#SVGID_50_);}
	.st53{fill:url(#SVGID_51_);}
	.st54{fill:url(#SVGID_52_);}
	.st55{fill:url(#SVGID_53_);}
	.st56{fill:url(#SVGID_54_);}
	.st57{fill:url(#SVGID_55_);}
	.st58{fill:url(#SVGID_56_);}
	.st59{fill:url(#SVGID_57_);}
	.st60{fill:url(#SVGID_58_);}
	.st61{fill:url(#SVGID_59_);}
	.st62{fill:url(#SVGID_60_);}
	.st63{fill:url(#SVGID_61_);}
	.st64{fill:url(#SVGID_62_);}
	.st65{fill:url(#SVGID_63_);}
	.st66{fill:url(#SVGID_64_);}
	.st67{fill:url(#SVGID_65_);}
	.st68{fill:url(#SVGID_66_);}
	.st69{opacity:0.7;}
	.st70{fill:#FFFFFF;}
	.st71{opacity:0.6;fill:#FFFFFF;}
</style>
<g id="Background">
</g>
<g id="Illustration">
	<g>
		
			<linearGradient id="SVGID_1_" gradientUnits="userSpaceOnUse" x1="-1753.8159" y1="594.2653" x2="430.6767" y2="594.2653" gradientTransform="matrix(-1 0 0 1 476.6789 0)">
			<stop  offset="0" style="stop-color:#F4F7F9"/>
			<stop  offset="1" style="stop-color:#F9FBFB"/>
		</linearGradient>
		<path class="st0" d="M1157.2,1182.6c0,0,741.7,7.4,948.3-158.1c206.6-165.5,128.8-330.5-29.4-377.2
			c-158.2-46.7-185.2-95.3-100.1-160.9c85.1-65.6,193.2-200.2,13.7-335.4c-179.5-135.3-384.3,59-544.8,33.2
			c-160.4-25.8-96.9-112.7-307.9-52.7c-211,60-164.5-114.7-334.1-130.5C633.5-14.9,650.9,182.6,476.4,108
			C302,33.5,159.3,43.8,84.2,162.2c-75,118.4-42.4,277.9,122.1,373c164.6,95.1,146.9,88.6,85.4,182
			c-61.5,93.4-116.6,400.6,163.3,444.4C735,1205.4,1157.2,1182.6,1157.2,1182.6z"/>
		<path class="st1" d="M1991.1,756.5c0,0,105.7-185.5,72.9-213.1c-32.8-27.6-33.4,52.6-46.6,41.3c-13.3-11.4,8.4-78.4,2.5-124.9
			c-5.9-46.6-18.7-108.8-35.2-46.3c-16.5,62.6-14.5,124.3-21.6,92.4c-7.2-31.9-31.9-198.1-63.6-148.5
			c-31.8,49.6-38.4,114.2-6.4,151.8c32,37.6,75,79.6,22.2,51.9c-52.9-27.7-88.9-15.4-32.3,34.9c0,0,85,70.4,48.1,67.1
			c-36.9-3.3-95.7,35.7-35.1,63.8C1895.7,726.8,1981.7,739.3,1991.1,756.5z"/>
		<path class="st2" d="M1947.1,925.6c0,0-206-9.8-196.9-57.5c9.1-47.7,76.4-15.8,106.3-12.7c29.9,3,12.4-17.4-48.6-60.3
			c-60.9-42.9-94.5-105.7-29.9-76.4c64.5,29.3,90.3,84.3,86,45.5c-4.4-38.8-87.3-148.1-17.2-103.3c70.2,44.7,65.4,86.1,67.5,118.8
			c2.1,32.7,11.5-63.2,33.4-48.9c21.9,14.3,9.5,29,1.6,66.9c-7.9,38,14.1,7.4,21.4-5.1c7.3-12.5,25.1,17.4,7.6,58.7
			C1960.9,892.4,1947.1,925.6,1947.1,925.6z"/>
		<path class="st3" d="M1988.2,1142.8c-0.1,0.1-0.2,0.3-0.3,0.4c0,0,0,0.3,0,0.1l0-0.6l0.1-2.3l0.2-4.8l0.3-9.7l0.5-19.4l0.7-38.9
			c0.3-25.9,0.4-51.9,0.4-77.8c-0.2-51.9-1.1-103.8-3.1-155.6c-1-25.9-2.3-51.8-4-77.7c-1.7-25.9-3.8-51.7-6.4-77.5
			c-2.7-25.8-6-51.4-10.5-76.9c-4.6-25.4-10.1-50.7-19.2-74.4l0-0.1c-0.9-2.3,0.3-5,2.6-5.8c2.3-0.9,4.9,0.3,5.8,2.5
			c9.9,24.7,15.8,50.4,20.8,76c4.9,25.7,8.6,51.6,11.6,77.5c3,25.9,5.5,51.9,7.5,77.8c2,26,3.7,52,5.1,78c2.7,52,4.3,104,5.2,156.1
			c0.4,26,0.7,52.1,0.7,78.1l-0.1,39.1l-0.2,19.6l-0.2,9.8l-0.1,5l-0.1,2.5l0,0.6c0,0.2-0.1,0.9-0.1,1.3c-0.1,1-0.3,1.9-0.5,2.8
			c-1.5,4.6-6.5,7.1-11.1,5.6C1989.1,1152.4,1986.6,1147.4,1988.2,1142.8z"/>
		<path class="st3" d="M1987,1152.8c-0.1,0.2-0.1,0.5-0.1,0.7c0,0.1,0,0.4,0,0.2l-0.1-0.4l-0.2-1.5l-0.5-3l-1-6.1l-2-12.3l-4.3-24.6
			c-2.9-16.4-5.9-32.8-9.1-49.2c-6.3-32.8-13-65.4-20.3-98c-7.3-32.5-15.2-64.9-24.4-96.9c-4.6-16-9.5-31.8-15.1-47.4
			c-5.6-15.5-11.7-31-19.7-45.1l-0.1-0.1c-1.2-2.2-0.5-4.9,1.7-6.2c2.1-1.2,4.9-0.5,6.1,1.6c8.8,14.8,15.4,30.5,21.4,46.2
			c6,15.8,11.3,31.7,16.3,47.8c9.9,32.1,18.5,64.5,26.6,97c8,32.5,15.5,65.2,22.5,97.9c3.5,16.4,6.9,32.8,10.2,49.2l4.8,24.7
			l2.3,12.4l1.1,6.2l0.5,3.2l0.3,1.6l0.1,0.4l0.1,1c0.1,0.8,0.1,1.5,0.1,2.3c-0.5,4.8-4.8,8.4-9.6,7.9
			C1990.1,1161.9,1986.6,1157.6,1987,1152.8z"/>
		<path class="st1" d="M2031.2,793.9c0,0,208.9-33.3,188.9-77.6c-19.9-44.3-77.9,2.4-106.3,12.2c-28.4,9.9-32.5,5,16.9-50.9
			c49.3-55.9,53.9-113.8-2-70.4c-56,43.5-36.6,83.8-41.4,45c-4.7-38.8,70.1-186.8,12.2-127c-57.9,59.8-65,110.7-59.4,142.9
			c5.5,32.3-25.8-58.8-43.8-39.9c-18,19-2.5,30.4,13.9,65.5c16.4,35.1-12,10.4-22,0c-10-10.4-20.4,22.8,6.2,58.8
			C2020.9,788.8,2031.2,793.9,2031.2,793.9z"/>
		<path class="st3" d="M2015.5,1148.4c-0.2-0.8-0.3-1.7-0.4-2.5c0-0.4-0.1-1-0.1-1.1l0-0.5l-0.1-1.9l-0.1-3.7l-0.1-7.4l-0.1-14.6
			l0-29.2c0.1-19.5,0.3-39,0.7-58.4c0.7-38.9,2.1-77.9,4.2-116.8c2.2-38.9,5.1-77.8,9.7-116.6c2.3-19.4,5.2-38.7,8.9-58
			c3.8-19.2,8.2-38.4,15.7-57.1c0.9-2.3,3.6-3.4,5.9-2.5c2.3,0.9,3.4,3.5,2.5,5.8l-0.1,0.1c-6.7,17.6-10.8,36.5-14.1,55.5
			c-3.3,19-5.7,38.2-7.7,57.4c-3.9,38.5-6.1,77.2-7.5,116c-1.4,38.7-2,77.5-2,116.3c0,19.4,0.1,38.8,0.4,58.2l0.6,29.1l0.4,14.5
			l0.3,7.2l0.2,3.6l0.1,1.7l0,0.4c0,0.2,0-0.2,0-0.2c0-0.3-0.1-0.5-0.3-0.7c1.5,4.6-1,9.6-5.6,11.1
			C2022,1155.5,2017,1153,2015.5,1148.4z"/>
		<g>
			<linearGradient id="SVGID_2_" gradientUnits="userSpaceOnUse" x1="1939.3901" y1="1425.6503" x2="1995.8635" y2="1149.5569">
				<stop  offset="0" style="stop-color:#146F83"/>
				<stop  offset="1" style="stop-color:#2C7E90"/>
			</linearGradient>
			<path class="st4" d="M1915.5,1108.1h172.9c11.3,0,19.7,10.5,17.2,21.6c-11.1,47.9-24.3,96.6-51.5,146c-5,9.1-14.6,14.8-25,14.8
				h-56.4c-10.2,0-19.7-5.6-24.5-14.7c-21.7-40.4-42.7-88.6-53-143.2C1892.8,1119.9,1902.5,1108.1,1915.5,1108.1z"/>
		</g>
		<path class="st1" d="M270.3,758.5c0,0,118.7-177.4,88-207.3c-30.7-29.9-37.1,50.1-49.5,37.8c-12.4-12.3,14-77.6,11.4-124.4
			c-2.5-46.9-10.8-109.9-31.8-48.7c-21,61.2-23.4,122.9-28.2,90.6c-4.9-32.3-17.6-199.9-52.8-152.7C172.2,401,160.9,465,190.1,504.8
			c29.2,39.8,69.1,84.8,18.4,53.4c-50.7-31.5-87.5-21.7-34.8,32.5c0,0,79.7,76.3,43.2,70.3c-36.6-5.9-98,28.7-39.6,61.1
			C177.3,722.1,262.2,740.7,270.3,758.5z"/>
		<path class="st3" d="M239.7,1143.7c-0.1,0.1-0.2,0.2-0.3,0.4c0,0,0,0.3,0,0.1l0.1-0.6l0.3-2.3l0.5-4.8l1-9.6l1.9-19.3l3.5-38.7
			c2.2-25.9,4.2-51.7,6-77.6c3.6-51.8,6.4-103.6,8.1-155.5c0.8-25.9,1.4-51.9,1.6-77.8c0.1-25.9-0.1-51.8-0.9-77.7
			c-0.8-25.9-2.3-51.7-4.9-77.4c-2.7-25.6-6.4-51.3-13.8-75.6l0-0.1c-0.7-2.4,0.6-4.9,3-5.6c2.4-0.7,4.9,0.6,5.6,3
			c8.1,25.4,12.1,51.4,15.2,77.3c3,26,4.9,52,6.1,78.1c1.1,26.1,1.7,52.1,1.9,78.2c0.1,26.1-0.1,52.1-0.6,78.1
			c-1,52.1-3.1,104.1-6,156.1c-1.4,26-3.1,52-4.9,77.9l-2.9,39l-1.6,19.5l-0.9,9.8l-0.5,4.9l-0.3,2.5l-0.1,0.6
			c0,0.2-0.1,0.9-0.2,1.3c-0.2,0.9-0.4,1.9-0.7,2.8c-1.9,4.5-7,6.6-11.5,4.7C240,1153.3,237.8,1148.1,239.7,1143.7z"/>
		<path class="st1" d="M319.5,925.6c0,0,206-9.8,196.9-57.5c-9.1-47.7-76.4-15.8-106.3-12.7c-29.9,3-12.4-17.4,48.6-60.3
			c60.9-42.9,94.5-105.7,29.9-76.4c-64.5,29.3-90.3,84.3-86,45.5c4.4-38.8,87.3-148.1,17.2-103.3c-70.2,44.7-65.4,86.1-67.5,118.8
			c-2.1,32.7-11.5-63.2-33.4-48.9c-21.9,14.3-9.5,29-1.6,66.9c7.9,38-14.1,7.4-21.4-5.1c-7.3-12.5-25.1,17.4-7.6,58.7
			C305.8,892.4,319.5,925.6,319.5,925.6z"/>
		<path class="st3" d="M279.6,1152.8c0.1,0.2,0.1,0.5,0.1,0.7c0,0.1,0,0.4,0,0.2l0.1-0.4l0.2-1.5l0.5-3l1-6.1l2-12.3l4.3-24.6
			c2.9-16.4,5.9-32.8,9.1-49.2c6.3-32.8,13-65.4,20.3-98c7.3-32.5,15.2-64.9,24.4-96.9c4.6-16,9.5-31.8,15.1-47.4
			c5.6-15.5,11.7-31,19.7-45.1l0.1-0.1c1.2-2.2,0.5-4.9-1.7-6.2c-2.1-1.2-4.9-0.5-6.1,1.6c-8.8,14.8-15.4,30.5-21.4,46.2
			c-6,15.8-11.3,31.7-16.3,47.8c-9.9,32.1-18.5,64.5-26.6,97c-8,32.5-15.5,65.2-22.5,97.9c-3.5,16.4-6.9,32.8-10.2,49.2l-4.8,24.7
			l-2.3,12.4l-1.1,6.2l-0.5,3.2l-0.3,1.6l-0.1,0.4l-0.1,1c-0.1,0.8-0.1,1.5-0.1,2.3c0.5,4.8,4.8,8.4,9.6,7.9
			C276.5,1161.9,280.1,1157.6,279.6,1152.8z"/>
		<path class="st2" d="M196.9,840.6c0,0-211.2-11-196.1-57.1c15.1-46.2,77.7-5.9,107,0.9c29.3,6.8,32.8,1.5-22.2-48.8
			c-55-50.3-65.7-107.5-5.4-70.2c60.3,37.3,45.3,79.4,45.9,40.4c0.6-39-89.5-178.3-25.6-125c63.9,53.3,76.3,103.2,74.3,135.8
			c-2.1,32.7,19.4-61.2,39.4-44.3c19.9,17,5.7,29.9-6.9,66.6c-12.6,36.7,13.1,9.1,21.9-2.3c8.8-11.4,22.7,20.5,0.1,59.2
			C206.6,834.4,196.9,840.6,196.9,840.6z"/>
		<path class="st3" d="M250.1,1191.4c0.1-0.8,0.2-1.7,0.2-2.6c0-0.4,0-1,0-1.1l0-0.5l-0.1-1.9l-0.3-3.7l-0.7-7.3l-1.4-14.6
			l-3.1-29.1c-2.1-19.4-4.4-38.7-6.8-58c-4.9-38.6-10.3-77.2-16.5-115.7c-6.3-38.5-13.3-76.8-22-114.9c-4.4-19-9.2-38-15-56.7
			c-5.8-18.7-12.3-37.4-21.7-55.1c-1.2-2.2-3.9-3-6.1-1.9c-2.2,1.2-3,3.8-1.9,6l0.1,0.1c8.5,16.8,14.6,35.2,19.9,53.6
			c5.3,18.5,9.8,37.3,13.7,56.3c7.9,37.9,14.2,76.1,19.8,114.5c5.5,38.4,10.2,76.9,14.3,115.5c2.1,19.3,4,38.6,5.8,57.9l2.5,29
			l1.1,14.5l0.5,7.2l0.2,3.6l0.1,1.7l0,0.4c0,0.2,0-0.2,0-0.2c0-0.3,0.1-0.5,0.2-0.7c-1,4.7,2,9.4,6.7,10.5
			C244.4,1199.1,249.1,1196.1,250.1,1191.4z"/>
		<g>
			<linearGradient id="SVGID_3_" gradientUnits="userSpaceOnUse" x1="201.198" y1="1425.6503" x2="257.6715" y2="1149.5569">
				<stop  offset="0" style="stop-color:#146F83"/>
				<stop  offset="1" style="stop-color:#2C7E90"/>
			</linearGradient>
			<path class="st5" d="M177.3,1108.1h172.9c11.3,0,19.7,10.5,17.2,21.6c-11.1,47.9-24.3,96.6-51.5,146c-5,9.1-14.6,14.8-25,14.8
				h-56.4c-10.2,0-19.7-5.6-24.5-14.7c-21.7-40.4-42.7-88.6-53-143.2C154.7,1119.9,164.3,1108.1,177.3,1108.1z"/>
		</g>
		
			<linearGradient id="SVGID_4_" gradientUnits="userSpaceOnUse" x1="1016.0938" y1="581.6519" x2="1149.1986" y2="326.6274" gradientTransform="matrix(1 0 0 1 300.6978 0)">
			<stop  offset="0" style="stop-color:#132C33"/>
			<stop  offset="1" style="stop-color:#263D43"/>
		</linearGradient>
		<path class="st6" d="M1327.8,634.5c0,0,19.6-49.9-38.3-42.3c-57.9,7.6-48.1,41.7-52.6,58.8c-4.6,17.1-28.9,36.4-96.5,62.8
			c-67.6,26.4-47.6,98.2-17.2,122.1c30.4,23.8,46.9,8,54,49.2c7.1,41.2,35.2,74.6,70.4,39.7c35.1-34.9,75.1-76.2,63.9-130.3
			c-11.2-54.1,1.5-43.9,23.3-68.7C1356.6,700.9,1310.4,676.9,1327.8,634.5z"/>
		<g>
			<rect x="942.8" y="1102" class="st3" width="16.7" height="180.7"/>
			<path class="st3" d="M1024.4,1286.2H878l0,0c0-6,4.9-10.9,10.9-10.9h124.6C1019.5,1275.3,1024.4,1280.2,1024.4,1286.2
				L1024.4,1286.2z"/>
			<path class="st3" d="M1046.1,1095.7c0,9.9-8.1,18-18,18H880c-9.9,0-18-8.1-18-18v-16.3c0-9.9,8.1-18,18-18h148.1
				c9.9,0,18,8.1,18,18V1095.7z"/>
		</g>
		<g>
			
				<linearGradient id="SVGID_5_" gradientUnits="userSpaceOnUse" x1="-1377.9658" y1="262.713" x2="-1317.3999" y2="432.4961" gradientTransform="matrix(-0.9756 -0.2194 -0.2194 0.9756 -392.2803 -79.6649)">
				<stop  offset="0" style="stop-color:#132C33"/>
				<stop  offset="1" style="stop-color:#263D43"/>
			</linearGradient>
			<path class="st7" d="M857.2,509.1c0,0,16.2-40.3-33.7-46.9c-49.9-6.6-69.1,35.3-88.8,90.4c-16.1,45.1-70.6,70-105.9,97.7
				c-44.4,34.9-65.1,88.3-48.8,144.7c13.3,46.1,63.8,61.6,107,59.8c132.3-5.4,165.2-2.5,173.2-86.2S857.2,509.1,857.2,509.1z"/>
			
				<linearGradient id="SVGID_6_" gradientUnits="userSpaceOnUse" x1="5804.9165" y1="588.7563" x2="5633.5088" y2="799.478" gradientTransform="matrix(0.9922 -0.1247 0.1247 0.9922 -4813.9565 610.2059)">
				<stop  offset="0" style="stop-color:#CF9508"/>
				<stop  offset="1" style="stop-color:#DDB552"/>
			</linearGradient>
			<path class="st8" d="M1002.8,530.2c-1.1-2.1-4.3-1.8-4.9,0.5c-2.4,8.6-8.2,23.6-20.3,28.9c-0.6,0.3-1.2,0.5-1.7,0.8
				c-0.6-1.6-0.6-3.6,0.8-5.6c3.8-5.8-3-13.6-3-13.6s-0.4,6.9-5.7,11.3c-4.5,3.8-6.7,12.1-3.6,19c6.6,25.5,16.4,59.2-21.9,83.8
				c-38.2,24.6-92.1-46.4-92.1-46.4l26.7,84.8c0,0,41.3,30.5,89.3-12.4c48-42.8,16.2-105.1,16.2-105.1S1019,561.3,1002.8,530.2z"/>
			
				<linearGradient id="SVGID_7_" gradientUnits="userSpaceOnUse" x1="2120.4358" y1="3605.3013" x2="1650.4349" y2="3987.3013" gradientTransform="matrix(0.9922 -0.1247 0.1247 0.9922 -4813.9565 610.2059)">
				<stop  offset="0" style="stop-color:#A48A4E"/>
				<stop  offset="1" style="stop-color:#CF9508"/>
			</linearGradient>
			<path class="st9" d="M846.7,599.5c-11.4-3.4-44.8-9.8-76.4,19.5c-5.4,5-7.6,12.5-5.7,19.6c8.5,31.3,31,123.9,11.3,164
				c0,0,34.7,38.2,72.5,7.4c0,0,17-74,39.2-106.5c15.4-22.4-24.5-84.2-34.6-99.2C851.5,601.9,849.3,600.2,846.7,599.5z"/>
			
				<linearGradient id="SVGID_8_" gradientUnits="userSpaceOnUse" x1="-7390.7642" y1="1803.8365" x2="-7381.6069" y2="1738.8181" gradientTransform="matrix(-0.9602 0.2794 0.2794 0.9602 -6758.6035 962.8471)">
				<stop  offset="0" style="stop-color:#CF9508"/>
				<stop  offset="1" style="stop-color:#DDB552"/>
			</linearGradient>
			<path class="st10" d="M815.1,537.2c0,0-16.9,47.9-18.2,69c0,0,18.7,8.5,36.3-5.8c0,0,1.8-47.8,4.5-56.4L815.1,537.2z"/>
			
				<linearGradient id="SVGID_9_" gradientUnits="userSpaceOnUse" x1="-7891.3188" y1="1610.547" x2="-7805.6929" y2="1708.994" gradientTransform="matrix(-0.9981 6.190000e-02 6.190000e-02 0.9981 -7120.4048 -606.1219)">
				<stop  offset="0" style="stop-color:#CF9508"/>
				<stop  offset="1" style="stop-color:#DDB552"/>
			</linearGradient>
			<path class="st11" d="M853.7,499.7c0,0,29.6,70.1-0.2,81.9c-29.8,11.7-50.8-38.1-50.8-38.1s-2.6-35.3,10.4-44.2
				C826.1,490.4,853.7,499.7,853.7,499.7z"/>
			
				<linearGradient id="SVGID_10_" gradientUnits="userSpaceOnUse" x1="-1332.9215" y1="246.6452" x2="-1272.3557" y2="416.428" gradientTransform="matrix(-0.9756 -0.2194 -0.2194 0.9756 -392.2803 -79.6649)">
				<stop  offset="0" style="stop-color:#132C33"/>
				<stop  offset="1" style="stop-color:#263D43"/>
			</linearGradient>
			<path class="st12" d="M836.9,480.8c0,0,18.8,9.2,19.5,18.8c0.8,9.6-32,11-40.8,9.4l-15.1,34.6c0,0-13-38.7-0.4-56.5
				C812.8,469.2,836.9,480.8,836.9,480.8z"/>
			
				<linearGradient id="SVGID_11_" gradientUnits="userSpaceOnUse" x1="-7869.9268" y1="1591.9371" x2="-7784.3013" y2="1690.3833" gradientTransform="matrix(-0.9981 6.190000e-02 6.190000e-02 0.9981 -7120.4048 -606.1219)">
				<stop  offset="0" style="stop-color:#CF9508"/>
				<stop  offset="1" style="stop-color:#DDB552"/>
			</linearGradient>
			<path class="st13" d="M812,540.9c0,0-12.4-23.2-22-12.1c-9.5,11.2,10.1,25.6,19.1,21.1L812,540.9z"/>
			<linearGradient id="SVGID_12_" gradientUnits="userSpaceOnUse" x1="807.5762" y1="1139.1971" x2="467.5766" y2="1301.1968">
				<stop  offset="0" style="stop-color:#CF9508"/>
				<stop  offset="1" style="stop-color:#DDB552"/>
			</linearGradient>
			<path class="st14" d="M892.6,965.3c-0.1,3.4,5.8,30,9,44.2c1.3,5.7,0.4,11.7-2.5,16.8l-111.2,187.2c-1.3,2.3-2.3,4.7-2.9,7.3
				c-2,8.8-6.3,30.3-4.1,49.9l5.8,11.9l-24.9-5.6l-5.4-66.8l7-4.3c6.1-3.7,10.8-9.3,13.5-15.8c10.1-24.4,35-86.6,41.5-116.9
				c7.3-34.4,45.6-62.4,45.6-62.4l-6.7-15.9L892.6,965.3z"/>
			
				<linearGradient id="SVGID_13_" gradientUnits="userSpaceOnUse" x1="5415.9653" y1="1249.3816" x2="5475.6772" y2="1249.3816" gradientTransform="matrix(1 -9.500000e-03 9.500000e-03 1 -4693.7935 49.6613)">
				<stop  offset="0" style="stop-color:#132C33"/>
				<stop  offset="1" style="stop-color:#263D43"/>
			</linearGradient>
			<path class="st15" d="M734.1,1253.9c0,0,13.4-21.3,15-29.6c1.6-8.3,6-22.9,14.3-18.5c0,0,3.9,40.3,2.6,56
				c-1.3,15.7,17.8,15.2,17.8,15.2s5.3,0.7,9.1,4.6c2.7,2.7,0.8,7.3-3,7.5c-6.3,0.4-16.2,0.5-26.7-1.5c-3.7-0.7-6.4-3.8-6.6-7.5
				l-2.8-46.4l-16.9,21.4L734.1,1253.9z"/>
			<linearGradient id="SVGID_14_" gradientUnits="userSpaceOnUse" x1="989.2899" y1="953.0115" x2="831.2893" y2="1127.0122">
				<stop  offset="0" style="stop-color:#CF9508"/>
				<stop  offset="1" style="stop-color:#DDB552"/>
			</linearGradient>
			<path class="st16" d="M826.2,995.1c0,0-3.9,167.4-4.5,191.2c-0.5,23.8,3.8,76.5,27.6,92.2l-10.4,7.7c0,0-13-11-25.6-32.2
				c-14.2-23.8-18.5-28.2-18.5-28.2l4.7-9.7c2.1-4.2,2.7-9,1.7-13.6c-5.1-24.9-22.3-107.8-27-125.7c-5.5-21.1-5.9-49.2,13.3-72.8
				C806.8,980.4,826.2,995.1,826.2,995.1z"/>
			
				<linearGradient id="SVGID_15_" gradientUnits="userSpaceOnUse" x1="5471.3257" y1="1260.166" x2="5542.5083" y2="1260.166" gradientTransform="matrix(1 -9.500000e-03 9.500000e-03 1 -4693.7935 49.6613)">
				<stop  offset="0" style="stop-color:#132C33"/>
				<stop  offset="1" style="stop-color:#263D43"/>
			</linearGradient>
			<path class="st17" d="M804.2,1293.7c-0.7,0-1.4-0.5-1.5-1.3c-0.8-5.6-4.1-28-6.8-33.8c-3.1-6.6-13.2-34.6,0-36.9
				c0,0,32.8,48,39.1,54.5c6.3,6.5,14.3,2.3,14.3,2.3s6.1,1.8,10.8,7.7c2.2,2.8,0.2,7-3.4,7l-22.1,0.2c-6.4,0.1-12.2-3.8-14.6-9.8
				c-3.9-9.7-10.6-24-18.4-30.3l4.1,38.8C805.7,1293,805,1293.7,804.2,1293.7L804.2,1293.7z"/>
			
				<linearGradient id="SVGID_16_" gradientUnits="userSpaceOnUse" x1="2658.9666" y1="3225.2517" x2="2188.9661" y2="3607.2515" gradientTransform="matrix(1 -9.500000e-03 9.500000e-03 1 -4693.7935 49.6613)">
				<stop  offset="0" style="stop-color:#A48A4E"/>
				<stop  offset="1" style="stop-color:#CF9508"/>
			</linearGradient>
			<path class="st18" d="M853.6,791.8c0,0-5,15.9,2.7,42.1l47.5,165.9c0.7,2.6-0.7,5.3-3.2,6.3c-14.2,5.1-60.9,19.5-124.7,15.1
				c-3.2-0.2-5.9-2.5-6.6-5.6c-4.2-18.9-18.5-83.4-21.5-96.7c-11.2-50.5-23.8-105,31.4-138C804.7,791.8,828.5,798.2,853.6,791.8z"/>
			
				<linearGradient id="SVGID_17_" gradientUnits="userSpaceOnUse" x1="5455.1348" y1="893.1987" x2="5794.0127" y2="505.5718" gradientTransform="matrix(0.9922 -0.1247 0.1247 0.9922 -4813.9565 610.2059)">
				<stop  offset="0" style="stop-color:#CF9508"/>
				<stop  offset="1" style="stop-color:#DDB552"/>
			</linearGradient>
			<path class="st19" d="M765.7,625.2c0,0-54.1,44.9-67.5,106.3c-13.4,61.4,79,67.9,79,67.9s12.5-14,27.4-9
				c14.9,5,1.2-24.4-16.3-24.4c-17.4,0.1-9.4,13.9-34,2.7c-24-10.9-38.9-44.5,22.4-95.5c3.6-3,6.4-6.7,8.1-11
				C796.8,632.2,787.3,612.6,765.7,625.2z"/>
			<path class="st3" d="M651.8,834.5C651.8,834.5,651.8,834.5,651.8,834.5c-11.8-0.7-25.7-5.5-34.6-12c-9.7-7.1-18.5-23.5-23.5-36.5
				c-10.6-27.4-7.8-54.8,8.2-81.3c11.9-19.8,31.3-39.5,59.3-60.2c12.2-9,25.2-18,38.8-26.7c0.3-0.2,0.6-0.1,0.8,0.2
				c0.2,0.3,0.1,0.6-0.2,0.8c-13.6,8.7-26.6,17.6-38.8,26.7c-27.8,20.6-47.1,40.2-59,59.9c-15.8,26.2-18.6,53.2-8.1,80.3
				c5,12.9,13.7,29.1,23.1,36c8.7,6.4,22.4,11.1,34,11.8c0.3,0,0.5,0.3,0.5,0.6C652.4,834.3,652.1,834.5,651.8,834.5z"/>
			<path class="st3" d="M852.3,492.2c-0.3,0-0.5-0.2-0.5-0.4c0-0.1-3-14-20-17.8c-0.3-0.1-0.5-0.4-0.4-0.7c0.1-0.3,0.4-0.5,0.7-0.4
				c17.7,4,20.8,18.6,20.8,18.7c0.1,0.3-0.1,0.6-0.4,0.7C852.4,492.2,852.3,492.2,852.3,492.2z"/>
		</g>
		<g>
			<g>
				
					<linearGradient id="SVGID_18_" gradientUnits="userSpaceOnUse" x1="-442.1773" y1="920.7806" x2="-406.8835" y2="920.7806" gradientTransform="matrix(-1 0 0 1 344.5995 0)">
					<stop  offset="0" style="stop-color:#132C33"/>
					<stop  offset="1" style="stop-color:#263D43"/>
				</linearGradient>
				<path class="st20" d="M781.4,947.3c0.8,0,1.5,0,2.3-0.1l-0.6-9.6c-7,0.4-12.7-1.7-16.7-6.1c-4.4-4.9-6.2-12.5-4.8-20.3
					c0.4-2.4,1.5-6.6,3.7-7.3c3.5-1.1,10.7,3.7,14.7,7.6l6.8-6.8c-2.3-2.2-14.1-13.2-24.4-10c-5.4,1.7-8.9,6.7-10.3,14.8
					c-1.9,10.8,0.7,21.2,7.1,28.4C764.7,944.1,772.5,947.3,781.4,947.3z"/>
			</g>
			
				<linearGradient id="SVGID_19_" gradientUnits="userSpaceOnUse" x1="-499.9643" y1="923.0416" x2="-435.0897" y2="923.0416" gradientTransform="matrix(-1 0 0 1 344.5995 0)">
				<stop  offset="0" style="stop-color:#132C33"/>
				<stop  offset="1" style="stop-color:#263D43"/>
			</linearGradient>
			<path class="st21" d="M781.7,890.6h61.6c1.1,0,1.3,1.1,1.3,2.2v46.7c0,9.3-6.8,15.9-16.1,15.9h-31.9c-9.3,0-16.9-6.7-16.9-15.9
				v-46.7C779.7,891.7,780.7,890.6,781.7,890.6z"/>
		</g>
		<g>
			<path class="st3" d="M428.3,1080.1c-4.4,6.5-21.7,152.6-24.4,206.6c-0.2,3.7,2.7,6.7,6.4,6.7l0,0c3.2,0,5.8-2.3,6.3-5.4
				l31.7-203.2L428.3,1080.1z"/>
			<path class="st3" d="M567.7,1080.1c4.4,6.5,21.7,152.6,24.4,206.6c0.2,3.7-2.7,6.7-6.4,6.7l0,0c-3.2,0-5.8-2.3-6.3-5.4
				l-31.7-203.2L567.7,1080.1z"/>
			<path class="st3" d="M402,1068.7l0,1.6c-0.1,11.5,9.8,20.9,22.1,21.1l146.6,2.5c12.2,0.2,22.4-8.6,22.9-19.9l0.1-1.5
				c0.6-11.8-9.4-21.7-22.1-21.9L425,1048C412.5,1047.8,402.2,1057.1,402,1068.7z"/>
		</g>
		<g>
			<path class="st3" d="M1708.9,1080.1c-4.4,6.5-21.7,152.6-24.4,206.6c-0.2,3.7,2.7,6.7,6.4,6.7l0,0c3.2,0,5.8-2.3,6.3-5.4
				l31.7-203.2L1708.9,1080.1z"/>
			<path class="st3" d="M1848.3,1080.1c4.4,6.5,21.7,152.6,24.4,206.6c0.2,3.7-2.7,6.7-6.4,6.7l0,0c-3.2,0-5.8-2.3-6.3-5.4
				l-31.7-203.2L1848.3,1080.1z"/>
			<path class="st3" d="M1682.7,1068.7l0,1.6c-0.1,11.5,9.8,20.9,22.1,21.1l146.6,2.5c12.2,0.2,22.4-8.6,22.9-19.9l0.1-1.5
				c0.6-11.8-9.4-21.7-22.1-21.9l-146.7-2.6C1693.1,1047.8,1682.8,1057.1,1682.7,1068.7z"/>
		</g>
		<g>
			<linearGradient id="SVGID_20_" gradientUnits="userSpaceOnUse" x1="766.1285" y1="946.3963" x2="845.4395" y2="946.3963">
				<stop  offset="0" style="stop-color:#CF9508"/>
				<stop  offset="1" style="stop-color:#DDB552"/>
			</linearGradient>
			<path class="st22" d="M766.1,947.2l10.3-2.7l31.2-7.2c3.8-0.9,7.7-0.2,11,1.8l26.8,16.9l-74.1-0.1L766.1,947.2z"/>
			<g>
				<path class="st3" d="M710.8,1281.4c-26.1,0-37.6-2.2-42.7-4.3c1,4.3,4.8,7.7,9.6,7.7h92.2c3.1,0,5.1-3,4.3-5.7
					C763.7,1280,741.4,1281.4,710.8,1281.4z"/>
				<linearGradient id="SVGID_21_" gradientUnits="userSpaceOnUse" x1="749.9951" y1="1076.575" x2="720.9528" y2="1277.2321">
					<stop  offset="0" style="stop-color:#146F83"/>
					<stop  offset="1" style="stop-color:#2C7E90"/>
				</linearGradient>
				<path class="st23" d="M774.2,1279.1c-0.1-0.5-0.4-1.1-0.8-1.6c-7-9-21.1-23-40.3-22.8c-28.1,0.4-37.9,3.4-59.8,0.2l-5.2,17.1
					c-0.5,1.7-0.5,3.5-0.2,5.1c5.2,2,16.7,4.3,42.7,4.3C741.4,1281.4,763.7,1280,774.2,1279.1z"/>
			</g>
			<linearGradient id="SVGID_22_" gradientUnits="userSpaceOnUse" x1="673.4088" y1="1248.9338" x2="702.1691" y2="1248.9338">
				<stop  offset="0" style="stop-color:#CF9508"/>
				<stop  offset="1" style="stop-color:#DDB552"/>
			</linearGradient>
			<path class="st24" d="M679.7,1236.6l-6.3,21.5c0,0,14,6.4,26.3,1.3l2.4-18.6L679.7,1236.6z"/>
			<g>
				<path class="st3" d="M870.8,1267.9c-20.3,16.3-30.7,21.8-36,23.5c3.4,2.7,8.5,2.9,12.3-0.1l71.9-57.7c2.4-1.9,2.1-5.5-0.2-7.1
					C911.1,1233.6,894.6,1248.7,870.8,1267.9z"/>
				<linearGradient id="SVGID_23_" gradientUnits="userSpaceOnUse" x1="893.8494" y1="1097.3947" x2="864.8068" y2="1298.0525">
					<stop  offset="0" style="stop-color:#146F83"/>
					<stop  offset="1" style="stop-color:#2C7E90"/>
				</linearGradient>
				<path class="st25" d="M918.8,1226.4c-0.5-0.3-1-0.6-1.6-0.7c-11.1-2.6-30.8-4.6-45.6,7.6c-21.7,17.9-27.4,26.4-46.5,37.6
					l6.6,16.5c0.7,1.7,1.8,3,3.1,4.1c5.3-1.6,15.7-7.1,36-23.5C894.6,1248.7,911.1,1233.6,918.8,1226.4z"/>
			</g>
			<linearGradient id="SVGID_24_" gradientUnits="userSpaceOnUse" x1="689.8046" y1="981.975" x2="569.8099" y2="1214.4642">
				<stop  offset="0" style="stop-color:#132C33"/>
				<stop  offset="1" style="stop-color:#263D43"/>
			</linearGradient>
			<path class="st26" d="M544.4,991.4c0,0,156,12.7,188,27.8c32,15.1-26.1,226.2-26.1,226.2s-8.7,4.2-28.1-1.8
				c0,0,19.9-155.8,5.1-189.6l-168.9-27.6L544.4,991.4z"/>
			<linearGradient id="SVGID_25_" gradientUnits="userSpaceOnUse" x1="809.6307" y1="1251.3544" x2="843.9662" y2="1251.3544">
				<stop  offset="0" style="stop-color:#CF9508"/>
				<stop  offset="1" style="stop-color:#DDB552"/>
			</linearGradient>
			<path class="st27" d="M809.6,1241.1c1.4,1.3,15.5,29.7,15.5,29.7s15.6-3.4,18.8-13.3l-14.1-25.6L809.6,1241.1z"/>
			<linearGradient id="SVGID_26_" gradientUnits="userSpaceOnUse" x1="681.1623" y1="894.1031" x2="663.1631" y2="994.598">
				<stop  offset="0" style="stop-color:#132C33"/>
				<stop  offset="1" style="stop-color:#263D43"/>
			</linearGradient>
			<path class="st28" d="M450.5,990.1c0,0-5.1,12.2-4.9,28.5c0.3,22.5,18.4,40.7,40.8,41.8l184.4,8.4c3.9,0.2,7.2,2.9,8.2,6.6
				c4.3,16.8,25.5,68.2,129.1,171c2.8,2.7,7,3.2,10.3,1.1l14.7-9.3c1.5-1,2-3,1.1-4.6l-107.4-183.4c-5.6-9.3-14.7-16-25.3-18.7
				l-157.2-40.2L450.5,990.1z"/>
			<linearGradient id="SVGID_27_" gradientUnits="userSpaceOnUse" x1="658.6554" y1="712.3038" x2="555.1605" y2="829.2979">
				<stop  offset="0" style="stop-color:#CF9508"/>
				<stop  offset="1" style="stop-color:#DDB552"/>
			</linearGradient>
			<path class="st29" d="M632.2,703.7c0,0-19.8,34.9-39.9,51.9l41.6,23.2c0,0,9.4-37,30.8-47.8L632.2,703.7z"/>
			<linearGradient id="SVGID_28_" gradientUnits="userSpaceOnUse" x1="585.6087" y1="924.8058" x2="772.051" y2="1230.8824">
				<stop  offset="0" style="stop-color:#A48A4E"/>
				<stop  offset="1" style="stop-color:#CF9508"/>
			</linearGradient>
			<path class="st30" d="M447.1,991.4c0,0,49.8,12.1,97.3,0c0,0,66.5-89.4,92.2-113.7c0,0,41,64.8,132.4,73.9l5.1-11.4
				c0,0-72.7-33.5-95.1-85c-22.4-51.5-31.4-73.5-51.7-86.9c-12.7-8.4-20.3-14.1-24.2-17.2c-2.1-1.7-5.1-1.9-7.5-0.5
				C574,763.8,472.3,833.5,447.1,991.4z"/>
			<linearGradient id="SVGID_29_" gradientUnits="userSpaceOnUse" x1="604.3162" y1="844.1732" x2="629.5688" y2="844.1732">
				<stop  offset="0" style="stop-color:#825F0C"/>
				<stop  offset="1" style="stop-color:#957730"/>
			</linearGradient>
			<path class="st31" d="M625.9,863.7c-1.1,0-2.2-0.5-2.9-1.4c-11.7-15.2-18.2-32-18.4-32.7c-0.7-1.9,0.2-4,2.1-4.7
				c1.9-0.7,4,0.2,4.7,2.1c0.1,0.2,6.4,16.5,17.4,30.9c1.2,1.6,0.9,3.9-0.7,5.1C627.5,863.5,626.7,863.7,625.9,863.7z"/>
			<g>
				
					<linearGradient id="SVGID_30_" gradientUnits="userSpaceOnUse" x1="2295.3286" y1="206.0039" x2="2325.3271" y2="321.4983" gradientTransform="matrix(0.9914 -0.1306 0.1306 0.9914 -2044.6971 -172.1031)">
					<stop  offset="0" style="stop-color:#CF9508"/>
					<stop  offset="1" style="stop-color:#DDB552"/>
				</linearGradient>
				<path class="st32" d="M663.6,651.3c0,0,19.2,31.9,22.5,49.6c3.3,17.6,8.7,28.7-11.4,35c-20.1,6.3-38.7-1.7-50.4-18.1
					c0,0-18.3-25.3-16.5-36.9C609.6,669.1,663.6,651.3,663.6,651.3z"/>
				<linearGradient id="SVGID_31_" gradientUnits="userSpaceOnUse" x1="614.4404" y1="627.5531" x2="701.5413" y2="739.6954">
					<stop  offset="0" style="stop-color:#825F0C"/>
					<stop  offset="1" style="stop-color:#957730"/>
				</linearGradient>
				<path class="st33" d="M631.2,675.8c0,0,60.7-20.2,55.3-48.6c-5.4-28.5-32.3-30.1-46.3-6c-14,24.1-53.7,27.8-46.2,50.3
					c3.1,13.6-23.8,26.4,34.4,52.4c-6.8-20.9-1.6-21.2,1-21.2c2.6,0,3.4,0,3.4,0S615.3,677.9,631.2,675.8z"/>
				
					<linearGradient id="SVGID_32_" gradientUnits="userSpaceOnUse" x1="2267.6382" y1="213.1893" x2="2297.6367" y2="328.6837" gradientTransform="matrix(0.9914 -0.1306 0.1306 0.9914 -2044.6971 -172.1031)">
					<stop  offset="0" style="stop-color:#CF9508"/>
					<stop  offset="1" style="stop-color:#DDB552"/>
				</linearGradient>
				<path class="st34" d="M630.7,707.2c0,0-8.5-20.9-17.4-13.5c-8.9,7.3,8.2,23.6,16.1,23.4L630.7,707.2z"/>
				<linearGradient id="SVGID_33_" gradientUnits="userSpaceOnUse" x1="662.3148" y1="628.9872" x2="677.9741" y2="628.9872">
					<stop  offset="0" style="stop-color:#CF9508"/>
					<stop  offset="1" style="stop-color:#DDB552"/>
				</linearGradient>
				<path class="st35" d="M670.1,647.1c-0.2,0-0.4-0.1-0.5-0.3c-0.1-0.3,0-0.6,0.3-0.7c0.3-0.1,6.9-3,6.9-15.1
					c0-12.2-14.1-18.8-14.2-18.9c-0.3-0.1-0.4-0.5-0.3-0.7c0.1-0.3,0.5-0.4,0.7-0.3c0.1,0.1,14.9,7,14.9,19.9
					c0,12.9-7.3,16-7.6,16.2C670.3,647.1,670.2,647.1,670.1,647.1z"/>
			</g>
		</g>
		<g>
			<rect x="1352.9" y="1102" class="st3" width="16.7" height="180.7"/>
			<path class="st3" d="M1434.4,1286.2H1288l0,0c0-6,4.9-10.9,10.9-10.9h124.6C1429.6,1275.3,1434.4,1280.2,1434.4,1286.2
				L1434.4,1286.2z"/>
			<path class="st3" d="M1456.2,1095.7c0,9.9-8.1,18-18,18h-148.1c-9.9,0-18-8.1-18-18v-16.3c0-9.9,8.1-18,18-18h148.1
				c9.9,0,18,8.1,18,18V1095.7z"/>
		</g>
		<g>
			<linearGradient id="SVGID_34_" gradientUnits="userSpaceOnUse" x1="1178.8435" y1="1129.7551" x2="1297.6799" y2="1129.7551">
				<stop  offset="0" style="stop-color:#CF9508"/>
				<stop  offset="1" style="stop-color:#DDB552"/>
			</linearGradient>
			<path class="st36" d="M1237.9,981.5c0,0-24.8,3.8-52.8,22.5c-4.4,2.9-6.8,8.1-6.1,13.3c3.3,26.5,17.1,112.2,62.4,195.9
				c2.4,4.4,3.1,9.6,2,14.5l-7.9,36.7l-14.6,13.7h37.6l25-67.8l-10.7-3.4c-8.3-2.6-14-10.3-14.2-19l-1.3-72.7
				c1.1-32.4-19.9-54.7-19.9-54.7l60.1-2.9L1237.9,981.5z"/>
			<linearGradient id="SVGID_35_" gradientUnits="userSpaceOnUse" x1="1251.5549" y1="1207.1891" x2="1234.0759" y2="1475.1996">
				<stop  offset="0" style="stop-color:#146F83"/>
				<stop  offset="1" style="stop-color:#2C7E90"/>
			</linearGradient>
			<path class="st37" d="M1206.2,1284.6c-3.4,4.5,36.9,10.4,57.2,0.6c0,0,28.2-49.1,28.2-74.4c0,0-2.2-5.2-18.8-4
				c0,0-9.5,58.1-19.5,64.7c-10,6.5-28,0.7-28,0.7S1211.3,1278,1206.2,1284.6z"/>
			<linearGradient id="SVGID_36_" gradientUnits="userSpaceOnUse" x1="1039.3099" y1="1137.8728" x2="1290.0785" y2="1137.8728">
				<stop  offset="0" style="stop-color:#CF9508"/>
				<stop  offset="1" style="stop-color:#DDB552"/>
			</linearGradient>
			<path class="st38" d="M1290.1,1061.5c-0.3-0.6-64.7-7.7-64.7-7.7s2.1,19.6-4.5,46.5c-6.6,26.9-101.1,143.7-101.1,143.7l9.9,31.4
				c-30.6,10.7-60.8,12.4-90.4,5.4l61.4-36.9c0,0,57.5-195.9,92.7-230.8l64.5-22.3L1290.1,1061.5z"/>
			<linearGradient id="SVGID_37_" gradientUnits="userSpaceOnUse" x1="1194.0427" y1="1007.0557" x2="1474.9757" y2="1007.0557">
				<stop  offset="0" style="stop-color:#146F83"/>
				<stop  offset="1" style="stop-color:#2C7E90"/>
			</linearGradient>
			<path class="st39" d="M1434.4,947.5c0,0,37.1,55.2,40.1,80.3c3,25.2-10.2,35.4-49.1,37.1c-38.9,1.7-142.8,1.7-142.8,1.7
				l-88.7-75.8c0,0,64.6-23.1,81.4-29.6C1292.2,954.7,1434.4,947.5,1434.4,947.5z"/>
			<linearGradient id="SVGID_38_" gradientUnits="userSpaceOnUse" x1="1082.8851" y1="1196.1891" x2="1065.4061" y2="1464.1995">
				<stop  offset="0" style="stop-color:#146F83"/>
				<stop  offset="1" style="stop-color:#2C7E90"/>
			</linearGradient>
			<path class="st40" d="M1126,1264.8c0,0,10.7,10.3,3.5,21.8c0,0-84.5,15-107.5,8.2c0,0,4.8-10.9,30.6-23.3l-1.9,1.5
				c-2.4,1.9-1,5.7,2,5.5C1069.8,1277.5,1105,1274.4,1126,1264.8z"/>
		</g>
		<linearGradient id="SVGID_39_" gradientUnits="userSpaceOnUse" x1="1380.4904" y1="910.96" x2="1513.7395" y2="1200.9724">
			<stop  offset="0" style="stop-color:#A48A4E"/>
			<stop  offset="1" style="stop-color:#CF9508"/>
		</linearGradient>
		<path class="st41" d="M1334.1,940.2c0,0-43.2-41.1-64.4-68.4c-11.5-14.7-15.1-34.1-9.8-52c9.7-32.7,27-66.6,28.5-71.8
			c2.4-8.1,50.8-7.7,50.8-7.7s95.3,61.8,132.7,166.6l-42,13.1c0,0-24.9-41.7-49.5-68.3c0,0,42.5,56.2,44,79.2L1334.1,940.2z"/>
		<linearGradient id="SVGID_40_" gradientUnits="userSpaceOnUse" x1="1323.474" y1="809.7295" x2="1306.5464" y2="701.111">
			<stop  offset="0" style="stop-color:#CF9508"/>
			<stop  offset="1" style="stop-color:#DDB552"/>
		</linearGradient>
		<path class="st42" d="M1282.6,702.9c0.5,1.7,13.1,43.6,14.1,44.4c1,0.9,27.7,2.3,40.3-6.3l-31.2-61L1282.6,702.9z"/>
		<g>
			
				<linearGradient id="SVGID_41_" gradientUnits="userSpaceOnUse" x1="2856.5435" y1="-2385.6067" x2="2989.6511" y2="-2640.6365" gradientTransform="matrix(-0.9996 -2.650000e-02 -2.650000e-02 0.9996 596.0992 -4015.4956)">
				<stop  offset="0" style="stop-color:#CF9508"/>
				<stop  offset="1" style="stop-color:#DDB552"/>
			</linearGradient>
			<path class="st43" d="M1302,626.8c0,0,22.6,10.2,37.2,43.6c14.6,33.4,2.6,48.3-12,50c-14.6,1.7-36.3,0.8-58.8-21.1
				C1246,677.4,1272.6,614.6,1302,626.8z"/>
			
				<linearGradient id="SVGID_42_" gradientUnits="userSpaceOnUse" x1="2861.6614" y1="-2382.8225" x2="2994.7673" y2="-2637.8494" gradientTransform="matrix(-0.9996 -2.650000e-02 -2.650000e-02 0.9996 596.0992 -4015.4956)">
				<stop  offset="0" style="stop-color:#132C33"/>
				<stop  offset="1" style="stop-color:#263D43"/>
			</linearGradient>
			<path class="st44" d="M1284.3,682.1c0,0-15.9-48.7,26.8-48.1l9.9,7.3c0,0,16.4-26.3-9-39.8c-25.4-13.4-55.8-3.7-67.7,30.7
				c-11.9,34.4-14.4,57.6,3.4,74.6c17.8,17.1,25.8-1.5,25.8-1.5s-9.5-15.8-5.3-24c4.3-8.2,13.3,2.1,13.3,2.1L1284.3,682.1z"/>
			
				<linearGradient id="SVGID_43_" gradientUnits="userSpaceOnUse" x1="2884.1787" y1="-2371.1697" x2="3017.2864" y2="-2626.1995" gradientTransform="matrix(-0.9996 -2.650000e-02 -2.650000e-02 0.9996 596.0992 -4015.4956)">
				<stop  offset="0" style="stop-color:#CF9508"/>
				<stop  offset="1" style="stop-color:#DDB552"/>
			</linearGradient>
			<path class="st45" d="M1279.4,687.4c0,0-8-25.1-19.9-15.5c-11.9,9.6,8.8,23.2,16.9,27.6L1279.4,687.4z"/>
		</g>
		<linearGradient id="SVGID_44_" gradientUnits="userSpaceOnUse" x1="1392.9845" y1="933.0576" x2="1628.5515" y2="933.0576">
			<stop  offset="0" style="stop-color:#CF9508"/>
			<stop  offset="1" style="stop-color:#DDB552"/>
		</linearGradient>
		<path class="st46" d="M1246.2,943.3l31.7-30.6l43.9,18.5c0,0,43.7,6.8,68.7,0c25-6.8,25-6.8,25-6.8l56.5-17.6l8.9,25.1
			c2.3,6.4,0,13.4-5.5,17.4c-4.9,3.5-10.6,7.3-14.3,8.9c-7.4,3.3-183.4-2.3-183.4-2.3L1246.2,943.3z"/>
		<g>
			<g>
				
					<linearGradient id="SVGID_45_" gradientUnits="userSpaceOnUse" x1="-9793.6963" y1="1427.1499" x2="-9792.2412" y2="1581.3871" gradientTransform="matrix(-1 0 0 1 -8252.6006 0)">
					<stop  offset="0" style="stop-color:#132C33"/>
					<stop  offset="1" style="stop-color:#263D43"/>
				</linearGradient>
				<path class="st47" d="M1587.9,1245.2c0,0,1.8,10,2.5,22c0.3,5.1-3.5,9.5-8.5,10c-17.6,1.7-57.8,4.9-83.4,1.2
					c-3.6-0.5-5-4.9-2.4-7.4c10.6-9.9,36.1-29,78.1-33.2L1587.9,1245.2z"/>
				
					<linearGradient id="SVGID_46_" gradientUnits="userSpaceOnUse" x1="-9830.875" y1="1254.9058" x2="-9838.8779" y2="1192.3385" gradientTransform="matrix(-1 0 0 1 -8252.6006 0)">
					<stop  offset="0" style="stop-color:#CF9508"/>
					<stop  offset="1" style="stop-color:#DDB552"/>
				</linearGradient>
				<path class="st48" d="M1596.7,1222.6l-8.9,21.9c-1.2,3-4.3,4.9-7.5,4.5c-2.2-0.2-4.8-0.6-7.3-1.4c-5-1.5-7.9-6.9-6.4-11.9
					l6.7-22.5L1596.7,1222.6z"/>
				
					<linearGradient id="SVGID_47_" gradientUnits="userSpaceOnUse" x1="-10002.0811" y1="1429.1145" x2="-10000.626" y2="1583.3506" gradientTransform="matrix(-1 0 0 1 -8252.6006 0)">
					<stop  offset="0" style="stop-color:#132C33"/>
					<stop  offset="1" style="stop-color:#263D43"/>
				</linearGradient>
				<path class="st49" d="M1749.2,1262.7c0,0-17.9,14.9-24.8,34.1c-1.9,5.3,2.1,10.8,7.7,10.8h36.8c5.4,0,9.5-4.8,8.6-10.1
					C1775.1,1284.2,1768.3,1262.7,1749.2,1262.7z"/>
				
					<linearGradient id="SVGID_48_" gradientUnits="userSpaceOnUse" x1="-10005.7881" y1="1276.3497" x2="-10013.5869" y2="1215.379" gradientTransform="matrix(-1 0 0 1 -8252.6006 0)">
					<stop  offset="0" style="stop-color:#CF9508"/>
					<stop  offset="1" style="stop-color:#DDB552"/>
				</linearGradient>
				<path class="st50" d="M1771.3,1243.2c0,0-3.6,16-6.4,26.5c-0.5,1.9-2.5,3-4.4,2.3c-5.6-2-10.1-2.9-13.4-2.4
					c-1.5,0.2-2.8-1.1-2.9-2.6l-0.3-26.5L1771.3,1243.2z"/>
				
					<linearGradient id="SVGID_49_" gradientUnits="userSpaceOnUse" x1="-10060.2871" y1="1044.672" x2="-9820.249" y2="1044.672" gradientTransform="matrix(-1 0 0 1 -8252.6006 0)">
					<stop  offset="0" style="stop-color:#132C33"/>
					<stop  offset="1" style="stop-color:#263D43"/>
				</linearGradient>
				<path class="st51" d="M1676.3,883.9l-108.6,331.5c0,0,20.8,13.6,30.8,13.1l129-266.4c0,0,22.6,164.1,11.6,282l37,2.8
					c0,0,60.1-301.1,14.6-404.3L1676.3,883.9z"/>
				
					<linearGradient id="SVGID_50_" gradientUnits="userSpaceOnUse" x1="-10010.498" y1="1007.8441" x2="-10001.7676" y2="990.3835" gradientTransform="matrix(-1 0 0 1 -8252.6006 0)">
					<stop  offset="0" style="stop-color:#51C4D3"/>
					<stop  offset="1" style="stop-color:#126E82"/>
				</linearGradient>
				<path class="st52" d="M1726.8,959.2c0,0,0.1,0,0.1,0c0.6-0.1,1-0.6,0.9-1.2l-4.2-33.5c-0.1-0.6-0.6-1-1.2-0.9
					c-0.6,0.1-1,0.6-0.9,1.2l4.2,33.5C1725.8,958.8,1726.2,959.2,1726.8,959.2z"/>
			</g>
			<linearGradient id="SVGID_51_" gradientUnits="userSpaceOnUse" x1="1575.2209" y1="858.8415" x2="1349.2201" y2="1080.842">
				<stop  offset="0" style="stop-color:#A48A4E"/>
				<stop  offset="1" style="stop-color:#CF9508"/>
			</linearGradient>
			<path class="st53" d="M1655.9,592.2c0,0,88,7.8,75.6,70.5c0,0,48.7,91.6,71.4,199.4c0.7,3.5-1.6,6.9-5.1,7.5l-146.6,25.1
				c-4,0.7-7.9-1.8-9-5.8l-35-135.4l-13.6,62.9l-43.4-11.3l36.5-184.9C1586.7,620.3,1591.8,593.4,1655.9,592.2z"/>
			
				<linearGradient id="SVGID_52_" gradientUnits="userSpaceOnUse" x1="-9832.9434" y1="739.7804" x2="-9779.833" y2="796.5279" gradientTransform="matrix(-1 0 0 1 -8252.6006 0)">
				<stop  offset="0" style="stop-color:#825F0C"/>
				<stop  offset="1" style="stop-color:#957730"/>
			</linearGradient>
			<path class="st54" d="M1606.4,747.6c0.1,0,0.2,0,0.2,0c0.6-0.1,1-0.7,0.8-1.3l-12.2-56.1c-0.1-0.6-0.7-1-1.3-0.8
				c-0.6,0.1-1,0.7-0.8,1.3l12.2,56.1C1605.5,747.2,1605.9,747.6,1606.4,747.6z"/>
			
				<linearGradient id="SVGID_53_" gradientUnits="userSpaceOnUse" x1="-9946.8467" y1="875.904" x2="-9837.5449" y2="875.904" gradientTransform="matrix(-1 0 0 1 -8252.6006 0)">
				<stop  offset="0" style="stop-color:#CF9508"/>
				<stop  offset="1" style="stop-color:#DDB552"/>
			</linearGradient>
			<path class="st55" d="M1615.3,914.5c4.6-2.5,10-3.2,15.1-2l10.2,2.5c2.2,0.5,4.3-1,4.6-3.2l10.6-93.9c13.2,6.3,32.2,5.5,38.5,5.1
				L1670,933.8h-85L1615.3,914.5z"/>
			
				<linearGradient id="SVGID_54_" gradientUnits="userSpaceOnUse" x1="-9846.123" y1="738.8889" x2="-9642.0088" y2="738.8889" gradientTransform="matrix(-1 0 0 1 -8252.6006 0)">
				<stop  offset="0" style="stop-color:#CF9508"/>
				<stop  offset="1" style="stop-color:#DDB552"/>
			</linearGradient>
			<path class="st56" d="M1389.4,710.8l2.6-8.5c1.5-4.9,5.1-8.9,9.9-10.8l46.5-18.7c0,0,0.7-6-9.8-10c-10.5-4.1-8.1-15.8-8.1-15.8
				s14.4,6.6,35.4,17c12,5.9,18.8,16.4,22.4,24.3l105.3,128.4l-12.4,8.5c-16.3,11.2-38.6,5.7-47.9-11.7l-57-109.4
				C1447.6,712.5,1418.6,714.2,1389.4,710.8z"/>
			<g>
				
					<linearGradient id="SVGID_55_" gradientUnits="userSpaceOnUse" x1="-9919.6074" y1="624.4083" x2="-9848.5703" y2="551.5267" gradientTransform="matrix(-1 0 0 1 -8252.6006 0)">
					<stop  offset="0" style="stop-color:#CF9508"/>
					<stop  offset="1" style="stop-color:#DDB552"/>
				</linearGradient>
				<path class="st57" d="M1627.4,532.3l27.1,75.8c0,0-24,18.7-41.5,12.4l-13.6-43.4C1599.4,577.1,1609.8,524,1627.4,532.3z"/>
				<g>
					
						<linearGradient id="SVGID_56_" gradientUnits="userSpaceOnUse" x1="-8108.48" y1="311.5284" x2="-8203.6709" y2="437.4579" gradientTransform="matrix(-0.8174 -0.576 -0.576 0.8174 -4849.0234 -4434.5786)">
						<stop  offset="0" style="stop-color:#CF9508"/>
						<stop  offset="1" style="stop-color:#DDB552"/>
					</linearGradient>
					<path class="st58" d="M1584.5,479.3c-0.7,1-22.8,81-22.8,81l45.9,11.6l32.2-72.7C1639.8,499.3,1596.6,462.2,1584.5,479.3z"/>
					
						<linearGradient id="SVGID_57_" gradientUnits="userSpaceOnUse" x1="-8181.1792" y1="341.9059" x2="-8067.4731" y2="341.9059" gradientTransform="matrix(-0.8174 -0.576 -0.576 0.8174 -4849.0234 -4434.5786)">
						<stop  offset="0" style="stop-color:#132C33"/>
						<stop  offset="1" style="stop-color:#263D43"/>
					</linearGradient>
					<path class="st59" d="M1622.5,510.3l-13.9,39.6c-0.2,0.5-0.4,1-0.7,1.4c-1.9,2.7-9.1,11.5-17.6,3.6
						c-7.8-7.2-14.9-13.6-21.6-14.8c-3-0.5-5.9,1.3-6.7,4.2c-2,7.3-6.2,23.7-7.7,38.6c-0.3,3,1.8,5.7,4.8,6.3c9,1.7,28,4.7,43.9,3.6
						c2.2-0.2,4-1.4,4.9-3.4c4.4-9.6,17.8-38.6,22.7-46.1c4.7-7,16.1-6.9,21-6.4c1.6,0.1,3.1-0.4,4.3-1.4
						c4.2-3.7,12.2-13.1,0.9-24.4c-2.4-2.4-2.3-6.2,0.1-8.5c4.8-4.6,10-12.6,1.9-22.6c-8.2-10.2-19-8.5-25.6-6.1
						c-2.7,1-5.6-0.2-7.1-2.6c-0.8-1.4-2.3-2.5-4.8-2.2c-3.4,0.3-6.2-2.5-6.2-5.9c0.1-6.5-2.2-14.8-13.5-18.3
						c-20.1-6.2-32.6,13.2-33.8,27.6c-1.2,14.5,20.9,20,33.9,19c9.9-0.7,17.3,9.1,20.2,13.8C1622.9,506.8,1623.1,508.7,1622.5,510.3
						z"/>
					
						<linearGradient id="SVGID_58_" gradientUnits="userSpaceOnUse" x1="-8247.8955" y1="411.2548" x2="-8171.5464" y2="332.9224" gradientTransform="matrix(-0.8174 -0.576 -0.576 0.8174 -4849.0234 -4434.5786)">
						<stop  offset="0" style="stop-color:#CF9508"/>
						<stop  offset="1" style="stop-color:#DDB552"/>
					</linearGradient>
					<path class="st60" d="M1625.3,557.7c0,0,3.2-25.1,13.7-26.3c10.4-1.2,20.6,7.3,10.2,21.4
						C1636.3,570.4,1625.3,557.7,1625.3,557.7z"/>
					<path class="st3" d="M1587.7,482.3C1587.7,482.3,1587.7,482.3,1587.7,482.3c-4.2-0.3-7.9-2.3-10.1-5.4c-2.1-3-2.7-7-1.7-10.8
						c1.9-6.6,6.8-13,13.1-17.3c0.3-0.2,0.6-0.1,0.8,0.2c0.2,0.3,0.1,0.6-0.2,0.8c-6.1,4.1-10.9,10.3-12.7,16.7
						c-1,3.5-0.5,7,1.5,9.8c2,2.9,5.3,4.7,9.2,5c0.3,0,0.5,0.3,0.5,0.6C1588.2,482.1,1588,482.3,1587.7,482.3z"/>
				</g>
			</g>
			
				<linearGradient id="SVGID_59_" gradientUnits="userSpaceOnUse" x1="-9954.7148" y1="782.384" x2="-9995.6387" y2="902.9722" gradientTransform="matrix(-1 0 0 1 -8252.6006 0)">
				<stop  offset="0" style="stop-color:#825F0C"/>
				<stop  offset="1" style="stop-color:#957730"/>
			</linearGradient>
			<path class="st61" d="M1685.7,824.5c6,0,10.3-0.5,10.8-0.5l0.8-0.1l32.1-149.4c0.1-0.6-0.2-1.2-0.8-1.3c-0.6-0.1-1.2,0.2-1.3,0.8
				l-31.7,147.9c-4.8,0.4-30.2,2.1-43.7-7.4l27.8-129.8l-5.8-10.9c-0.3-0.5-0.9-0.7-1.5-0.5c-0.5,0.3-0.7,0.9-0.5,1.5l5.4,10.2
				l-27.9,130.4l0.6,0.4C1659.6,823.1,1675.2,824.5,1685.7,824.5z"/>
		</g>
		<g>
			<path class="st3" d="M654.5,1300.6c-0.8,0-1.6-0.2-2.4-0.5c-3-1.4-4.4-5.2-3.1-8.6l125.1-317.3c1.3-3.3,4.8-4.8,7.8-3.4
				c3,1.4,4.4,5.2,3.1,8.6l-125.1,317.3C659,1299.2,656.8,1300.6,654.5,1300.6z"/>
			<path class="st3" d="M795.4,1300.6c-2.3,0-4.5-1.5-5.5-3.9L664.8,979.4c-1.3-3.3,0.1-7.1,3.1-8.6c3-1.4,6.5,0.1,7.8,3.4
				l125.1,317.3c1.3,3.3-0.1,7.1-3.1,8.6C796.9,1300.5,796.1,1300.6,795.4,1300.6z"/>
			<path class="st3" d="M1503.3,1300.6c-0.8,0-1.6-0.2-2.4-0.5c-3-1.4-4.4-5.2-3.1-8.6l125.1-317.3c1.3-3.3,4.8-4.8,7.8-3.4
				c3,1.4,4.4,5.2,3.1,8.6l-125.1,317.3C1507.8,1299.2,1505.6,1300.6,1503.3,1300.6z"/>
			<path class="st3" d="M1644.1,1300.6c-2.3,0-4.5-1.5-5.5-3.9l-125.1-317.3c-1.3-3.3,0.1-7.1,3.1-8.6c3-1.4,6.5,0.1,7.8,3.4
				l125.1,317.3c1.3,3.3-0.1,7.1-3.1,8.6C1645.7,1300.5,1644.9,1300.6,1644.1,1300.6z"/>
		</g>
		<g>
			<path class="st1" d="M1485.1,951.8h181.1v-18.7h-181.1C1489,933.1,1489,951.8,1485.1,951.8z"/>
			
				<linearGradient id="SVGID_60_" gradientUnits="userSpaceOnUse" x1="-6006.8379" y1="1045.6167" x2="-6007.6143" y2="999.0324" gradientTransform="matrix(-1 0 0 1 -4426.6011 0)">
				<stop  offset="0" style="stop-color:#A48A4E"/>
				<stop  offset="1" style="stop-color:#CF9508"/>
			</linearGradient>
			<path class="st62" d="M1665.2,951.8c0.5,0,1-0.5,1-1v-16.7c0-0.5-0.5-1-1-1h-184.7c-0.6,0-1-0.5-1-1v-2.2c0-0.6,0.4-1,1-1h196
				c4.3,0,7.8,3.5,7.8,7.8v11.9c0,4.1-3.3,7.4-7.4,7.4h-196.5c-0.6,0-1-0.5-1-1v-2.2c0-0.5,0.4-1,1-1H1665.2z"/>
		</g>
		<path class="st3" d="M1692.5,964.4c0.6-2.1-0.2-4.2-2.3-5.9c-2-1.6-5.1-2.6-8.3-2.6H596.6c-4.2,0-8.1,1.4-10.4,3.8
			c-2.3,2.4-2.6,5.3-0.8,7.9l11.8,16.9c2.7,3.9,8.5,6.3,15,6.3h1062.4c6,0,11.1-2.8,12.2-6.7L1692.5,964.4z"/>
		<g>
			<g>
				<linearGradient id="SVGID_61_" gradientUnits="userSpaceOnUse" x1="1250.6681" y1="920.7806" x2="1285.9615" y2="920.7806">
					<stop  offset="0" style="stop-color:#146F83"/>
					<stop  offset="1" style="stop-color:#2C7E90"/>
				</linearGradient>
				<path class="st63" d="M1256.1,947.3c-0.8,0-1.5,0-2.3-0.1l0.6-9.6c7,0.4,12.7-1.7,16.7-6.1c4.4-4.9,6.2-12.5,4.8-20.3
					c-0.4-2.4-1.5-6.6-3.7-7.3c-3.5-1.1-10.7,3.7-14.7,7.6l-6.8-6.8c2.3-2.2,14.1-13.2,24.4-10c5.4,1.7,8.9,6.7,10.3,14.8
					c1.9,10.8-0.7,21.2-7.1,28.4C1272.8,944.1,1265,947.3,1256.1,947.3z"/>
			</g>
			<linearGradient id="SVGID_62_" gradientUnits="userSpaceOnUse" x1="1191.3074" y1="923.0416" x2="1256.3472" y2="923.0416">
				<stop  offset="0" style="stop-color:#146F83"/>
				<stop  offset="1" style="stop-color:#2C7E90"/>
			</linearGradient>
			<path class="st64" d="M1255.7,890.6h-61.6c-1.1,0-2.8,1.1-2.8,2.2v46.7c0,9.3,8.4,15.9,17.7,15.9h31.9c9.3,0,15.3-6.7,15.3-15.9
				v-46.7C1256.2,891.7,1256.8,890.6,1255.7,890.6z"/>
		</g>
		<g>
			<g>
				<linearGradient id="SVGID_63_" gradientUnits="userSpaceOnUse" x1="955.0551" y1="920.7806" x2="990.3488" y2="920.7806">
					<stop  offset="0" style="stop-color:#146F83"/>
					<stop  offset="1" style="stop-color:#2C7E90"/>
				</linearGradient>
				<path class="st65" d="M985,947.3c0.8,0,1.5,0,2.3-0.1l-0.6-9.6c-7,0.4-12.7-1.7-16.7-6.1c-4.4-4.9-6.2-12.5-4.8-20.3
					c0.4-2.4,1.5-6.6,3.7-7.3c3.5-1.1,10.7,3.7,14.7,7.6l6.8-6.8c-2.3-2.2-14.1-13.2-24.4-10c-5.4,1.7-8.9,6.7-10.3,14.8
					c-1.9,10.8,0.7,21.2,7.1,28.4C968.2,944.1,976,947.3,985,947.3z"/>
			</g>
			<linearGradient id="SVGID_64_" gradientUnits="userSpaceOnUse" x1="983.2611" y1="923.0416" x2="1048.1359" y2="923.0416">
				<stop  offset="0" style="stop-color:#146F83"/>
				<stop  offset="1" style="stop-color:#2C7E90"/>
			</linearGradient>
			<path class="st66" d="M985.3,890.6h61.6c1.1,0,1.3,1.1,1.3,2.2v46.7c0,9.3-6.8,15.9-16.1,15.9h-31.9c-9.3,0-16.9-6.7-16.9-15.9
				v-46.7C983.3,891.7,984.2,890.6,985.3,890.6z"/>
		</g>
		<g>
			<g>
				<linearGradient id="SVGID_65_" gradientUnits="userSpaceOnUse" x1="1548.1964" y1="920.7806" x2="1583.4899" y2="920.7806">
					<stop  offset="0" style="stop-color:#132C33"/>
					<stop  offset="1" style="stop-color:#263D43"/>
				</linearGradient>
				<path class="st67" d="M1553.6,947.3c-0.8,0-1.5,0-2.3-0.1l0.6-9.6c7,0.4,12.7-1.7,16.7-6.1c4.4-4.9,6.2-12.5,4.8-20.3
					c-0.4-2.4-1.5-6.6-3.7-7.3c-3.5-1.1-10.7,3.7-14.7,7.6l-6.8-6.8c2.3-2.2,14.1-13.2,24.4-10c5.4,1.7,8.9,6.7,10.3,14.8
					c1.9,10.8-0.7,21.2-7.1,28.4C1570.3,944.1,1562.5,947.3,1553.6,947.3z"/>
			</g>
			<linearGradient id="SVGID_66_" gradientUnits="userSpaceOnUse" x1="1488.8357" y1="923.0416" x2="1553.8755" y2="923.0416">
				<stop  offset="0" style="stop-color:#132C33"/>
				<stop  offset="1" style="stop-color:#263D43"/>
			</linearGradient>
			<path class="st68" d="M1553.2,890.6h-61.6c-1.1,0-2.8,1.1-2.8,2.2v46.7c0,9.3,8.4,15.9,17.7,15.9h31.9c9.3,0,15.3-6.7,15.3-15.9
				v-46.7C1553.7,891.7,1554.3,890.6,1553.2,890.6z"/>
		</g>
		<g class="st69">
			<path class="st1" d="M1212.5,691.6c-0.2,0-0.4-0.1-0.5-0.4c-0.1-0.3,0.1-0.6,0.3-0.7c24.2-8.4,36.2-23.8,33.7-43.2
				c-2.6-20.4,10.2-23.8,10.3-23.8c0.3-0.1,0.6,0.1,0.6,0.4c0.1,0.3-0.1,0.6-0.4,0.6c-0.5,0.1-12.1,3.2-9.6,22.7
				c2.6,20-9.6,35.7-34.4,44.3C1212.6,691.5,1212.6,691.6,1212.5,691.6z"/>
			<path class="st1" d="M1161.7,843.9c-0.1,0-0.2,0-0.3-0.1c-27.8-15.4-44.1-34.1-48.6-55.4c-5.9-27.9,11.1-50.6,11.3-50.9
				c0.2-0.2,0.5-0.3,0.7-0.1c0.2,0.2,0.3,0.5,0.1,0.7c-0.2,0.2-16.9,22.6-11.1,50c4.4,21,20.6,39.4,48.1,54.7
				c0.3,0.1,0.3,0.5,0.2,0.7C1162.1,843.8,1161.9,843.9,1161.7,843.9z"/>
		</g>
		<g>
			<path class="st70" d="M801.3,885.5c-0.2,0-0.5-0.1-0.7-0.2c-0.4-0.3-9.5-7.5-10.4-15.9c-0.3-3.3,0.6-6.2,2.9-8.9
				c1.5-1.7,3.1-3.1,4.6-4.5c4.3-3.7,7.4-6.4,4.7-12.5c-1-2.3-2.2-4.3-3.3-6.3c-3.9-6.8-7.6-13.2,1.4-21.5c0.5-0.4,1.2-0.4,1.6,0.1
				c0.4,0.5,0.4,1.2-0.1,1.6c-7.7,7.1-4.9,12-1,18.8c1.2,2.1,2.4,4.2,3.4,6.6c3.3,7.6-1.1,11.4-5.3,15.1c-1.5,1.3-3.1,2.7-4.4,4.2
				c-1.8,2.1-2.6,4.5-2.4,7.2c0.7,7.4,9.5,14.3,9.5,14.3c0.5,0.4,0.6,1.1,0.2,1.6C802,885.4,801.7,885.5,801.3,885.5z"/>
			<path class="st70" d="M817,885.5c-0.2,0-0.5-0.1-0.7-0.2c-0.4-0.3-9.5-7.5-10.4-15.9c-0.3-3.3,0.6-6.2,2.9-8.9
				c1.5-1.7,3.1-3.1,4.6-4.5c4.3-3.7,7.4-6.4,4.7-12.5c-1-2.3-2.2-4.3-3.3-6.3c-3.9-6.8-7.6-13.2,1.4-21.5c0.5-0.4,1.2-0.4,1.6,0.1
				c0.4,0.5,0.4,1.2-0.1,1.6c-7.7,7.1-4.9,12-1,18.8c1.2,2.1,2.4,4.2,3.4,6.6c3.3,7.6-1.1,11.4-5.3,15.1c-1.5,1.3-3.1,2.7-4.4,4.2
				c-1.8,2.1-2.6,4.5-2.4,7.2c0.7,7.4,9.5,14.3,9.5,14.3c0.5,0.4,0.6,1.1,0.2,1.6C817.6,885.4,817.3,885.5,817,885.5z"/>
			<path class="st70" d="M832.6,885.5c-0.2,0-0.5-0.1-0.7-0.2c-0.4-0.3-9.5-7.5-10.4-15.9c-0.3-3.3,0.6-6.2,2.9-8.9
				c1.5-1.7,3.1-3.1,4.6-4.5c4.3-3.7,7.4-6.4,4.7-12.5c-1-2.3-2.2-4.3-3.3-6.3c-3.9-6.8-7.6-13.2,1.4-21.5c0.5-0.4,1.2-0.4,1.6,0.1
				c0.4,0.5,0.4,1.2-0.1,1.6c-7.7,7.1-4.9,12-1,18.8c1.2,2.1,2.4,4.2,3.4,6.6c3.3,7.6-1.1,11.4-5.3,15.1c-1.5,1.3-3.1,2.7-4.4,4.2
				c-1.8,2.1-2.6,4.5-2.4,7.2c0.7,7.4,9.5,14.3,9.5,14.3c0.5,0.4,0.6,1.1,0.2,1.6C833.3,885.4,833,885.5,832.6,885.5z"/>
		</g>
		<g>
			<path class="st70" d="M1000.4,885.5c-0.2,0-0.5-0.1-0.7-0.2c-0.4-0.3-9.5-7.5-10.4-15.9c-0.3-3.3,0.6-6.2,2.9-8.9
				c1.5-1.7,3.1-3.1,4.6-4.5c4.3-3.7,7.4-6.4,4.7-12.5c-1-2.3-2.2-4.3-3.3-6.3c-3.9-6.8-7.6-13.2,1.4-21.5c0.5-0.4,1.2-0.4,1.6,0.1
				c0.4,0.5,0.4,1.2-0.1,1.6c-7.7,7.1-4.9,12-1,18.8c1.2,2.1,2.4,4.2,3.4,6.6c3.3,7.6-1.1,11.4-5.3,15.1c-1.5,1.3-3.1,2.7-4.4,4.2
				c-1.8,2.1-2.6,4.5-2.4,7.2c0.7,7.4,9.5,14.3,9.5,14.3c0.5,0.4,0.6,1.1,0.2,1.6C1001.1,885.4,1000.8,885.5,1000.4,885.5z"/>
			<path class="st70" d="M1016.1,885.5c-0.2,0-0.5-0.1-0.7-0.2c-0.4-0.3-9.5-7.5-10.4-15.9c-0.3-3.3,0.6-6.2,2.9-8.9
				c1.5-1.7,3.1-3.1,4.6-4.5c4.3-3.7,7.4-6.4,4.7-12.5c-1-2.3-2.2-4.3-3.3-6.3c-3.9-6.8-7.6-13.2,1.4-21.5c0.5-0.4,1.2-0.4,1.6,0.1
				c0.4,0.5,0.4,1.2-0.1,1.6c-7.7,7.1-4.9,12-1,18.8c1.2,2.1,2.4,4.2,3.4,6.6c3.3,7.6-1.1,11.4-5.3,15.1c-1.5,1.3-3.1,2.7-4.4,4.2
				c-1.8,2.1-2.6,4.5-2.4,7.2c0.7,7.4,9.5,14.3,9.5,14.3c0.5,0.4,0.6,1.1,0.2,1.6C1016.7,885.4,1016.4,885.5,1016.1,885.5z"/>
			<path class="st70" d="M1031.7,885.5c-0.2,0-0.5-0.1-0.7-0.2c-0.4-0.3-9.5-7.5-10.4-15.9c-0.3-3.3,0.6-6.2,2.9-8.9
				c1.5-1.7,3.1-3.1,4.6-4.5c4.3-3.7,7.4-6.4,4.7-12.5c-1-2.3-2.2-4.3-3.3-6.3c-3.9-6.8-7.6-13.2,1.4-21.5c0.5-0.4,1.2-0.4,1.6,0.1
				c0.4,0.5,0.4,1.2-0.1,1.6c-7.7,7.1-4.9,12-1,18.8c1.2,2.1,2.4,4.2,3.4,6.6c3.3,7.6-1.1,11.4-5.3,15.1c-1.5,1.3-3.1,2.7-4.4,4.2
				c-1.8,2.1-2.6,4.5-2.4,7.2c0.7,7.4,9.5,14.3,9.5,14.3c0.5,0.4,0.6,1.1,0.2,1.6C1032.4,885.4,1032.1,885.5,1031.7,885.5z"/>
		</g>
		<g>
			<path class="st70" d="M1237.5,885.5c-0.3,0-0.7-0.1-0.9-0.4c-0.4-0.5-0.3-1.2,0.2-1.6c0.1-0.1,8.8-6.9,9.5-14.3
				c0.3-2.6-0.5-5-2.4-7.2c-1.3-1.6-2.9-2.9-4.4-4.2c-4.3-3.7-8.6-7.5-5.3-15.1c1-2.4,2.3-4.5,3.4-6.6c3.9-6.7,6.7-11.6-1-18.7
				c-0.5-0.4-0.5-1.1-0.1-1.6c0.4-0.5,1.1-0.5,1.6-0.1c9,8.3,5.3,14.7,1.4,21.5c-1.1,2-2.3,4.1-3.3,6.3c-2.7,6.1,0.4,8.8,4.7,12.5
				c1.6,1.4,3.2,2.8,4.6,4.5c2.2,2.6,3.2,5.6,2.9,8.9c-0.8,8.4-10,15.6-10.4,15.9C1238,885.4,1237.8,885.5,1237.5,885.5z"/>
			<path class="st70" d="M1221.9,885.5c-0.3,0-0.7-0.1-0.9-0.4c-0.4-0.5-0.3-1.2,0.2-1.6c0.1-0.1,8.8-6.9,9.5-14.3
				c0.3-2.6-0.5-5-2.4-7.2c-1.3-1.6-2.9-2.9-4.4-4.2c-4.3-3.7-8.6-7.5-5.3-15.1c1-2.4,2.3-4.5,3.4-6.6c3.9-6.7,6.7-11.6-1-18.7
				c-0.5-0.4-0.5-1.1-0.1-1.6c0.4-0.5,1.1-0.5,1.6-0.1c9,8.3,5.3,14.7,1.4,21.5c-1.1,2-2.3,4.1-3.3,6.3c-2.7,6.1,0.4,8.8,4.7,12.5
				c1.6,1.4,3.2,2.8,4.6,4.5c2.2,2.6,3.2,5.6,2.9,8.9c-0.8,8.4-10,15.6-10.4,15.9C1222.4,885.4,1222.1,885.5,1221.9,885.5z"/>
			<path class="st70" d="M1206.2,885.5c-0.3,0-0.7-0.1-0.9-0.4c-0.4-0.5-0.3-1.2,0.2-1.6c0.1-0.1,8.8-6.9,9.5-14.3
				c0.3-2.6-0.5-5-2.4-7.2c-1.3-1.6-2.9-2.9-4.4-4.2c-4.3-3.7-8.6-7.5-5.3-15.1c1-2.4,2.3-4.5,3.4-6.6c3.9-6.7,6.7-11.6-1-18.7
				c-0.5-0.4-0.5-1.1-0.1-1.6c0.4-0.5,1.1-0.5,1.6-0.1c9,8.3,5.3,14.7,1.4,21.5c-1.1,2-2.3,4.1-3.3,6.3c-2.7,6.1,0.4,8.8,4.7,12.5
				c1.6,1.4,3.2,2.8,4.6,4.5c2.2,2.6,3.2,5.6,2.9,8.9c-0.8,8.4-10,15.6-10.4,15.9C1206.7,885.4,1206.5,885.5,1206.2,885.5z"/>
		</g>
		<g>
			<path class="st70" d="M1535.1,885.5c-0.3,0-0.7-0.1-0.9-0.4c-0.4-0.5-0.3-1.2,0.2-1.6c0.1-0.1,8.8-6.9,9.5-14.3
				c0.3-2.6-0.5-5-2.4-7.2c-1.3-1.6-2.9-2.9-4.4-4.2c-4.3-3.7-8.6-7.5-5.3-15.1c1-2.4,2.3-4.5,3.4-6.6c3.9-6.7,6.7-11.6-1-18.7
				c-0.5-0.4-0.5-1.1-0.1-1.6c0.4-0.5,1.1-0.5,1.6-0.1c9,8.3,5.3,14.7,1.4,21.5c-1.1,2-2.3,4.1-3.3,6.3c-2.7,6.1,0.4,8.8,4.7,12.5
				c1.6,1.4,3.2,2.8,4.6,4.5c2.2,2.6,3.2,5.6,2.9,8.9c-0.8,8.4-10,15.6-10.4,15.9C1535.5,885.4,1535.3,885.5,1535.1,885.5z"/>
			<path class="st70" d="M1519.4,885.5c-0.3,0-0.7-0.1-0.9-0.4c-0.4-0.5-0.3-1.2,0.2-1.6c0.1-0.1,8.8-6.9,9.5-14.3
				c0.3-2.6-0.5-5-2.4-7.2c-1.3-1.6-2.9-2.9-4.4-4.2c-4.3-3.7-8.6-7.5-5.3-15.1c1-2.4,2.3-4.5,3.4-6.6c3.9-6.7,6.7-11.6-1-18.7
				c-0.5-0.4-0.5-1.1-0.1-1.6c0.4-0.5,1.1-0.5,1.6-0.1c9,8.3,5.3,14.7,1.4,21.5c-1.1,2-2.3,4.1-3.3,6.3c-2.7,6.1,0.4,8.8,4.7,12.5
				c1.6,1.4,3.2,2.8,4.6,4.5c2.2,2.6,3.2,5.6,2.9,8.9c-0.8,8.4-10,15.6-10.4,15.9C1519.9,885.4,1519.6,885.5,1519.4,885.5z"/>
			<path class="st70" d="M1503.7,885.5c-0.3,0-0.7-0.1-0.9-0.4c-0.4-0.5-0.3-1.2,0.2-1.6c0.1-0.1,8.8-6.9,9.5-14.3
				c0.3-2.6-0.5-5-2.4-7.2c-1.3-1.6-2.9-2.9-4.4-4.2c-4.3-3.7-8.6-7.5-5.3-15.1c1-2.4,2.3-4.5,3.4-6.6c3.9-6.7,6.7-11.6-1-18.7
				c-0.5-0.4-0.5-1.1-0.1-1.6c0.4-0.5,1.1-0.5,1.6-0.1c9,8.3,5.3,14.7,1.4,21.5c-1.1,2-2.3,4.1-3.3,6.3c-2.7,6.1,0.4,8.8,4.7,12.5
				c1.6,1.4,3.2,2.8,4.6,4.5c2.2,2.6,3.2,5.6,2.9,8.9c-0.8,8.4-10,15.6-10.4,15.9C1504.2,885.4,1504,885.5,1503.7,885.5z"/>
		</g>
		<path class="st1" d="M1424.3,205.3c-68.6,5.7-144.4,45.6-155.2,119.5c-9.1,62.9,56,99.6,96.7,117.4c11.4,5,20.5,13.9,25.7,25.1
			c12.5,26.9,42.1,74.1,91.8,61.2c3.6-0.9,3.5-6.1-0.1-7c-11.6-2.6-27.5-8.6-35.7-22.4c-11.2-18.7,1.1-42.8,22.8-45.5
			c41-5.1,121.7-27.4,137.5-122.6C1629.2,202.4,1424.3,205.3,1424.3,205.3z"/>
		<path class="st71" d="M1308.1,279.9c-1,0-1.9-0.3-2.8-0.9c-1.9-1.5-2.3-4.3-0.8-6.3c38-48.6,100.2-58.1,145.8-57.5
			c2.5,0,4.4,2.1,4.4,4.5c0,2.5-2.1,4.5-4.5,4.4c-43.5-0.6-102.9,8.4-138.6,54.1C1310.8,279.3,1309.5,279.9,1308.1,279.9z"/>
		<path class="st71" d="M1284,333.3c-0.2,0-0.4,0-0.5,0c-2.5-0.3-4.2-2.5-3.9-5c0-0.3,1-8.5,5.4-20.4c0.9-2.3,3.4-3.5,5.7-2.7
			c2.3,0.9,3.5,3.4,2.7,5.7c-4,10.8-4.9,18.2-4.9,18.3C1288.2,331.6,1286.2,333.3,1284,333.3z"/>
		<path class="st2" d="M1569.4,281.3c0,2.9-2.4,5.3-5.3,5.3H1351c-2.9,0-5.3-2.4-5.3-5.3v-0.6c0-2.9,2.4-5.3,5.3-5.3h213.1
			c2.9,0,5.3,2.4,5.3,5.3V281.3z"/>
		<path class="st2" d="M1553.7,391.5c0,2.8-0.5,4.7-3.2,4.7h-199.3c-2.7,0-5.6-1.9-5.6-4.7v-0.6c0-2.8,2.8-5.9,5.6-5.9h199.3
			c2.7,0,3.2,3.1,3.2,5.9V391.5z"/>
		<path class="st2" d="M1571.6,320.7c0,3.2-2,3.9-5.2,3.9H1332c-3.2,0-6.4-0.7-6.4-3.9v-0.7c0-3.2,3.2-6.6,6.4-6.6h234.4
			c3.2,0,5.2,3.5,5.2,6.6V320.7z"/>
		<path class="st2" d="M1571.6,354.3c0,3.2-2,3.9-5.2,3.9H1332c-3.2,0-6.4-0.7-6.4-3.9v-0.7c0-3.2,3.2-6.6,6.4-6.6h234.4
			c3.2,0,5.2,3.5,5.2,6.6V354.3z"/>
		<g>
			<path class="st70" d="M1883.7,1068.8l3.8-10.5c0.3-0.7,1-1.1,1.7-0.8c0.7,0.3,1.1,1,0.8,1.7l0,0l-3.9,10.5c-0.3,0.7-1,1-1.7,0.8
				C1883.8,1070.2,1883.5,1069.5,1883.7,1068.8z"/>
			<path class="st70" d="M1892.6,1041.3l2.4-10.9c0.2-0.8,1-1.3,1.8-1.2s1.3,1,1.2,1.8l0,0l-2.5,10.9c-0.2,0.8-1,1.3-1.7,1.1
				C1892.9,1042.9,1892.4,1042.1,1892.6,1041.3z"/>
			<path class="st70" d="M1897.1,1012.9l0.2-11.2c0-0.9,0.8-1.7,1.7-1.7c0.9,0,1.7,0.8,1.7,1.7l0,0l-0.3,11.2c0,0.9-0.8,1.6-1.7,1.6
				C1897.8,1014.6,1897.1,1013.8,1897.1,1012.9z"/>
			<path class="st70" d="M1895.2,984.5c0,0-0.7-2.7-1.4-5.4c-0.8-2.6-1.7-5.1-1.7-5.1l0-0.1c-0.3-1,0.2-2,1.2-2.3
				c1-0.3,2,0.2,2.3,1.2c0,0,0,0,0,0c0,0,0.9,2.8,1.7,5.5c0.7,2.7,1.3,5.4,1.3,5.4c0.2,1-0.4,1.9-1.3,2.1
				C1896.4,986,1895.4,985.4,1895.2,984.5z"/>
			<path class="st70" d="M1884.4,958.3c0,0-1.6-2.3-3.2-4.6c-1.7-2.1-3.4-4.2-3.4-4.2l-0.1-0.1c-0.7-0.9-0.5-2.1,0.3-2.8
				c0.9-0.7,2.1-0.5,2.8,0.3c0,0,0,0,0,0c0,0,1.8,2.3,3.6,4.6c1.6,2.3,3.1,4.6,3.1,4.6c0.6,0.9,0.4,2.1-0.5,2.7
				C1886.2,959.4,1885,959.2,1884.4,958.3z"/>
			<path class="st70" d="M1865.4,937.5l-9.1-6.5c-1-0.7-1.2-2-0.5-3c0.7-1,2-1.2,3-0.5l0,0l9,6.6c0.9,0.7,1.1,2,0.5,2.9
				C1867.6,937.9,1866.3,938.1,1865.4,937.5z"/>
			<path class="st70" d="M1841,922.6l-10.3-4.4c-1.2-0.5-1.7-1.9-1.2-3c0.5-1.2,1.9-1.7,3-1.2l0,0l10.2,4.5c1.1,0.5,1.6,1.8,1.1,3
				C1843.5,922.5,1842.1,923.1,1841,922.6z"/>
			<path class="st70" d="M1814.1,912.5l-10.8-2.9c-1.3-0.4-2.1-1.7-1.7-3c0.4-1.3,1.7-2.1,3-1.7l0,0l10.8,3c1.3,0.4,2,1.7,1.7,3
				C1816.7,912.1,1815.4,912.9,1814.1,912.5z"/>
			<path class="st70" d="M1786.1,906l-11-1.8c-1.4-0.2-2.4-1.6-2.2-3c0.2-1.4,1.6-2.4,3-2.2l0,0l11,1.9c1.4,0.2,2.3,1.6,2.1,3
				C1788.8,905.3,1787.4,906.2,1786.1,906z"/>
			<path class="st70" d="M1757.5,901.9l-11.1-1c-1.5-0.1-2.7-1.5-2.5-3c0.1-1.5,1.5-2.7,3-2.5l0,0l11.1,1.1c1.5,0.2,2.6,1.5,2.4,3
				C1760.3,901,1758.9,902.1,1757.5,901.9z"/>
			<path class="st70" d="M1728.6,899.8l-11.2-0.4c-1.6-0.1-2.9-1.4-2.8-3c0.1-1.6,1.4-2.9,3-2.8l0,0l11.2,0.5c1.6,0.1,2.8,1.4,2.7,3
				C1731.5,898.6,1730.2,899.8,1728.6,899.8z"/>
			<path class="st70" d="M1699.7,899l-11.2,0c-1.7,0-3-1.3-3-3c0-1.7,1.3-3,3-3h0l11.2,0c1.6,0,3,1.3,3,3
				C1702.7,897.7,1701.3,899,1699.7,899z"/>
			<path class="st70" d="M1670.7,899.4l-11.2,0.4c-1.7,0.1-3.1-1.3-3.2-3c-0.1-1.7,1.3-3.1,3-3.2l0,0l11.2-0.3
				c1.7-0.1,3.1,1.3,3.1,3C1673.7,897.9,1672.4,899.3,1670.7,899.4z"/>
			<path class="st70" d="M1641.8,900.7l-11.2,0.7c-1.8,0.1-3.3-1.2-3.4-3c-0.1-1.8,1.2-3.3,3-3.4l0,0l11.2-0.6
				c1.7-0.1,3.2,1.2,3.3,3C1644.8,899.1,1643.5,900.6,1641.8,900.7z"/>
			<path class="st70" d="M1612.8,902.7l-11.1,1c-1.8,0.2-3.4-1.2-3.5-3c-0.2-1.8,1.2-3.4,3-3.5l0,0l11.1-0.9c1.8-0.1,3.3,1.2,3.5,3
				C1615.9,901,1614.6,902.6,1612.8,902.7z"/>
			<path class="st70" d="M1583.9,905.4l-11.1,1.2c-1.8,0.2-3.5-1.1-3.7-3c-0.2-1.8,1.1-3.5,3-3.7l0,0l11.1-1.1
				c1.8-0.2,3.5,1.1,3.6,3C1587.1,903.6,1585.7,905.2,1583.9,905.4z"/>
			<path class="st70" d="M1555.1,908.6L1544,910c-1.9,0.2-3.6-1.1-3.8-3c-0.2-1.9,1.1-3.6,3-3.8l0,0l11.1-1.3c1.9-0.2,3.6,1.1,3.8,3
				C1558.3,906.7,1556.9,908.4,1555.1,908.6z"/>
			<path class="st70" d="M1526.2,912.2l-11.1,1.5c-1.9,0.3-3.7-1.1-4-3c-0.3-1.9,1.1-3.7,3-4l0,0l11.1-1.4c1.9-0.2,3.7,1.1,3.9,3
				C1529.5,910.2,1528.1,912,1526.2,912.2z"/>
			<path class="st70" d="M1497.4,916l-11.1,1.5c-2,0.3-3.8-1.1-4.1-3.1c-0.3-2,1.1-3.8,3.1-4.1l0,0l11.1-1.4c2-0.2,3.8,1.1,4,3.1
				C1500.7,914,1499.4,915.8,1497.4,916z"/>
			<path class="st70" d="M1468.5,919.7l-11.1,1.3c-2,0.2-3.9-1.2-4.1-3.3s1.2-3.9,3.3-4.1l0,0l11.1-1.2c2-0.2,3.8,1.2,4.1,3.3
				C1471.9,917.6,1470.5,919.5,1468.5,919.7z"/>
			<path class="st70" d="M1439.5,922.9l-11.1,1.1c-2.1,0.2-4-1.3-4.2-3.4c-0.2-2.1,1.3-4,3.4-4.2l0,0l11.1-1.1
				c2.1-0.2,3.9,1.3,4.1,3.4C1443.1,920.9,1441.6,922.7,1439.5,922.9z"/>
			<path class="st70" d="M1410.5,925.7l-11.1,1c-2.1,0.2-4-1.4-4.2-3.5c-0.2-2.1,1.4-4,3.5-4.2l0,0l11.1-0.9c2.1-0.2,4,1.4,4.1,3.5
				C1414.2,923.7,1412.6,925.5,1410.5,925.7z"/>
			<path class="st70" d="M1381.5,928.1l-11.2,0.8c-2.2,0.2-4.1-1.5-4.2-3.7c-0.2-2.2,1.5-4.1,3.7-4.2l0,0l11.2-0.7
				c2.2-0.1,4,1.5,4.2,3.7C1385.3,926.1,1383.7,927.9,1381.5,928.1z"/>
			<path class="st70" d="M1352.4,930l-11.2,0.6c-2.2,0.1-4.1-1.6-4.2-3.8c-0.1-2.2,1.6-4.1,3.8-4.2l0,0l11.2-0.6
				c2.2-0.1,4.1,1.6,4.2,3.8C1356.3,928,1354.6,929.9,1352.4,930z"/>
			<path class="st70" d="M1323.3,931.5l-11.2,0.5c-2.2,0.1-4.1-1.6-4.2-3.9c-0.1-2.2,1.6-4.1,3.9-4.2l0,0l11.2-0.4
				c2.2-0.1,4.1,1.6,4.2,3.9C1327.3,929.5,1325.5,931.4,1323.3,931.5z"/>
			<path class="st70" d="M1294.2,932.5l-11.2,0.3c-2.2,0.1-4.1-1.7-4.2-4c-0.1-2.2,1.7-4.1,4-4.2l0,0l11.2-0.3
				c2.2-0.1,4.1,1.7,4.2,4C1298.2,930.6,1296.4,932.4,1294.2,932.5z"/>
			<path class="st70" d="M1265.1,933.1l-11.2,0.1c-2.3,0-4.1-1.8-4.1-4c0-2.3,1.8-4.1,4-4.1h0l11.2-0.1c2.3,0,4.1,1.8,4.1,4
				C1269.1,931.3,1267.3,933.1,1265.1,933.1z"/>
			<path class="st70" d="M1235.9,933.4l-11.2,0c-2.3,0-4.1-1.9-4.1-4.1c0-2.3,1.9-4.1,4.1-4.1h0l11.2,0c2.3,0,4.1,1.9,4.1,4.1
				C1240,931.5,1238.2,933.4,1235.9,933.4z"/>
			<path class="st70" d="M1206.8,933.2l-11.2-0.2c-2.3,0-4.1-1.9-4.1-4.2c0-2.3,1.9-4.1,4.2-4.1h0l11.2,0.2c2.3,0,4.1,1.9,4.1,4.2
				C1211,931.4,1209.1,933.2,1206.8,933.2z"/>
			<path class="st70" d="M1177.7,932.6l-11.2-0.3c-2.3-0.1-4.1-2-4.1-4.3c0.1-2.3,2-4.1,4.3-4.1l0,0l11.2,0.4c2.3,0.1,4.1,2,4,4.3
				C1181.9,930.9,1180,932.7,1177.7,932.6z"/>
			<path class="st70" d="M1148.5,931.6l-11.2-0.5c-2.3-0.1-4.1-2.1-4-4.4c0.1-2.3,2.1-4.1,4.4-4l0,0l11.2,0.5c2.3,0.1,4.1,2.1,4,4.4
				C1152.8,929.9,1150.9,931.7,1148.5,931.6z"/>
			<path class="st70" d="M1119.4,930.2l-11.2-0.6c-2.3-0.1-4.1-2.1-4-4.5c0.1-2.3,2.1-4.1,4.5-4l0,0l11.2,0.7c2.3,0.1,4.1,2.1,4,4.5
				C1123.8,928.6,1121.8,930.4,1119.4,930.2z"/>
			<path class="st70" d="M1090.3,928.5l-11.2-0.8c-2.4-0.2-4.1-2.2-4-4.6c0.2-2.4,2.2-4.1,4.6-4l0,0l11.2,0.8
				c2.3,0.2,4.1,2.2,3.9,4.6C1094.7,926.9,1092.7,928.6,1090.3,928.5z"/>
			<path class="st70" d="M1061.3,926.3l-11.1-0.9c-2.4-0.2-4.1-2.3-3.9-4.6c0.2-2.4,2.3-4.1,4.6-3.9l0,0l11.1,1
				c2.4,0.2,4.1,2.3,3.9,4.6C1065.7,924.8,1063.6,926.5,1061.3,926.3z"/>
			<path class="st70" d="M1032.3,923.8l-11.1-1.1c-2.4-0.2-4.1-2.3-3.9-4.7c0.2-2.4,2.3-4.1,4.7-3.9l0,0l11.1,1.1
				c2.4,0.2,4.1,2.4,3.9,4.7C1036.7,922.3,1034.6,924,1032.3,923.8z"/>
			<path class="st70" d="M1003.3,920.8l-11.1-1.2c-2.4-0.3-4.1-2.4-3.8-4.8c0.3-2.4,2.4-4.1,4.8-3.8l0,0l11.1,1.3
				c2.4,0.3,4.1,2.4,3.8,4.8C1007.8,919.4,1005.7,921.1,1003.3,920.8z"/>
			<path class="st70" d="M974.3,917.5l-11.1-1.4c-2.4-0.3-4.1-2.5-3.8-4.9c0.3-2.4,2.5-4.1,4.9-3.8l0,0l11.1,1.4
				c2.4,0.3,4.1,2.5,3.8,4.9C978.9,916.1,976.7,917.8,974.3,917.5z"/>
			<path class="st70" d="M945.4,913.7l-11.1-1.5c-2.4-0.3-4.1-2.6-3.8-5c0.3-2.4,2.6-4.1,5-3.8l0,0l11.1,1.6c2.4,0.3,4.1,2.6,3.7,5
				C950,912.4,947.8,914.1,945.4,913.7z"/>
			<path class="st70" d="M916.6,909.6l-11.1-1.7c-2.4-0.4-4.1-2.6-3.7-5.1c0.4-2.4,2.6-4.1,5.1-3.7l0,0l11.1,1.7
				c2.4,0.4,4.1,2.6,3.7,5.1C921.2,908.3,919,910,916.6,909.6z"/>
			<path class="st70" d="M887.8,905.1l-11-1.8c-2.4-0.4-4.1-2.7-3.7-5.1c0.4-2.4,2.7-4.1,5.1-3.7l0,0l11,1.9
				c2.4,0.4,4.1,2.7,3.7,5.1C892.5,903.9,890.2,905.5,887.8,905.1z"/>
			<path class="st70" d="M859.1,900.1l-11-2c-2.4-0.4-4-2.8-3.6-5.2c0.4-2.4,2.7-4,5.2-3.6l11,2c2.4,0.4,4,2.8,3.6,5.2
				C863.8,899,861.5,900.6,859.1,900.1L859.1,900.1z"/>
			<path class="st70" d="M830.4,894.8l-11-2.2c-2.4-0.5-4-2.8-3.5-5.2c0.5-2.4,2.8-4,5.2-3.5l11,2.1c2.4,0.5,4,2.8,3.5,5.2
				C835.1,893.7,832.8,895.2,830.4,894.8L830.4,894.8z"/>
			<path class="st70" d="M801.8,889l-10.9-2.3c-2.4-0.5-3.9-2.8-3.4-5.2c0.5-2.4,2.8-3.9,5.2-3.4l10.9,2.3c2.4,0.5,3.9,2.8,3.4,5.2
				C806.6,888,804.2,889.5,801.8,889L801.8,889z"/>
			<path class="st70" d="M773.4,882.8l-10.9-2.5c-2.3-0.5-3.8-2.9-3.3-5.2c0.5-2.3,2.9-3.8,5.2-3.3l10.9,2.5
				c2.4,0.5,3.8,2.9,3.3,5.2C778.1,881.9,775.7,883.4,773.4,882.8L773.4,882.8z"/>
			<path class="st70" d="M745,876.3l-10.9-2.6c-2.3-0.6-3.8-2.9-3.2-5.2c0.6-2.3,2.9-3.8,5.2-3.2l10.9,2.6c2.3,0.5,3.8,2.9,3.2,5.2
				C749.7,875.4,747.3,876.8,745,876.3L745,876.3z"/>
			<path class="st70" d="M716.7,869.5l-10.9-2.7c-2.3-0.6-3.7-2.9-3.2-5.2c0.6-2.3,2.9-3.7,5.2-3.2l10.9,2.6
				c2.3,0.6,3.7,2.9,3.2,5.2C721.3,868.6,719,870.1,716.7,869.5L716.7,869.5z"/>
			<path class="st70" d="M688.4,862.5l-10.8-2.8c-2.3-0.6-3.7-2.9-3.1-5.2c0.6-2.3,2.9-3.7,5.2-3.1l10.8,2.7
				c2.3,0.6,3.7,2.9,3.1,5.2S690.7,863.1,688.4,862.5L688.4,862.5z"/>
			<path class="st70" d="M660.2,855.2l-10.8-2.9c-2.3-0.6-3.6-2.9-3-5.2c0.6-2.3,2.9-3.6,5.2-3l10.8,2.9c2.3,0.6,3.6,2.9,3,5.2
				C664.8,854.5,662.5,855.8,660.2,855.2L660.2,855.2z"/>
			<path class="st70" d="M632.1,847.7l-10.8-3c-2.2-0.6-3.6-3-2.9-5.2c0.6-2.2,2.9-3.6,5.2-2.9l10.8,3c2.2,0.6,3.6,3,2.9,5.2
				C636.7,847,634.3,848.3,632.1,847.7L632.1,847.7z"/>
			<path class="st70" d="M604,839.7l-10.7-3.2c-2.2-0.7-3.5-3-2.8-5.2c0.7-2.2,3-3.5,5.2-2.8l10.7,3.1c2.2,0.7,3.5,3,2.8,5.2
				C608.6,839.1,606.3,840.3,604,839.7L604,839.7z"/>
			<path class="st70" d="M576.1,831.3l-10.7-3.3c-2.2-0.7-3.4-3-2.7-5.2c0.7-2.2,3-3.4,5.2-2.7l10.7,3.3c2.2,0.7,3.4,3,2.7,5.2
				C580.7,830.8,578.3,832,576.1,831.3L576.1,831.3z"/>
			<path class="st70" d="M548.3,822.4l-10.6-3.5c-2.2-0.7-3.3-3.1-2.6-5.2c0.7-2.2,3.1-3.3,5.2-2.6l10.6,3.5
				c2.2,0.7,3.3,3.1,2.6,5.2C552.9,822,550.5,823.2,548.3,822.4L548.3,822.4z"/>
			<path class="st70" d="M520.7,813l-10.5-3.8c-2.1-0.8-3.2-3.1-2.5-5.2c0.8-2.1,3.1-3.2,5.2-2.5l10.5,3.7c2.1,0.8,3.3,3.1,2.5,5.3
				C525.2,812.7,522.9,813.8,520.7,813L520.7,813z"/>
			<path class="st70" d="M493.3,803l-10.4-4c-2.1-0.8-3.2-3.2-2.3-5.3c0.8-2.1,3.2-3.2,5.3-2.4l10.5,4c2.1,0.8,3.2,3.2,2.4,5.3
				C497.8,802.8,495.4,803.8,493.3,803L493.3,803z"/>
			<path class="st70" d="M466.1,792.4l-10.3-4.3c-2.1-0.9-3.1-3.2-2.2-5.3c0.9-2.1,3.2-3.1,5.3-2.2l10.4,4.2
				c2.1,0.8,3.1,3.2,2.2,5.3C470.6,792.2,468.2,793.2,466.1,792.4L466.1,792.4z"/>
			<path class="st70" d="M439.2,781.1l-10.2-4.5c-2-0.9-2.9-3.3-2-5.3c0.9-2,3.3-2.9,5.3-2l10.2,4.5c2,0.9,3,3.3,2.1,5.3
				C443.7,781,441.3,782,439.2,781.1L439.2,781.1z"/>
			<path class="st70" d="M412.7,769l-10.1-4.8c-2-1-2.8-3.3-1.9-5.3c1-2,3.3-2.8,5.3-1.9l10.1,4.8c2,1,2.8,3.3,1.9,5.3
				C417.1,769.1,414.7,769.9,412.7,769L412.7,769z"/>
			<path class="st70" d="M386.4,756.1l-9.9-5.2c-1.9-1-2.7-3.4-1.7-5.3c1-1.9,3.4-2.7,5.3-1.7l9.9,5.1c1.9,1,2.7,3.4,1.7,5.3
				C390.8,756.3,388.4,757.1,386.4,756.1L386.4,756.1z"/>
			<path class="st70" d="M360.7,742.3l-9.7-5.5c-1.8-1-2.5-3.4-1.4-5.2c1-1.8,3.4-2.5,5.2-1.5l9.8,5.4c1.9,1,2.5,3.4,1.5,5.3
				C364.9,742.7,362.6,743.3,360.7,742.3L360.7,742.3z"/>
			<path class="st70" d="M335.4,727.4l-9.3-6.2c-1.7-1.1-2.2-3.5-1.1-5.2c1.1-1.7,3.5-2.2,5.2-1.1l9.4,6.1c1.7,1.1,2.2,3.5,1.1,5.2
				C339.5,728.1,337.2,728.6,335.4,727.4L335.4,727.4z"/>
			<path class="st70" d="M311.3,710.4l-8.6-7.2c-1.6-1.3-1.8-3.6-0.5-5.2c1.3-1.5,3.6-1.8,5.1-0.5l8.6,7.1c1.6,1.3,1.8,3.6,0.5,5.2
				C315.2,711.5,312.9,711.7,311.3,710.4L311.3,710.4z"/>
			<path class="st70" d="M289.4,690.5l-7.5-8.3c-1.3-1.5-1.2-3.7,0.3-5c1.5-1.3,3.7-1.2,5,0.2l7.5,8.3c1.3,1.5,1.2,3.8-0.2,5.1
				C293,692.1,290.7,692,289.4,690.5L289.4,690.5z"/>
			<path class="st70" d="M270.7,667.4l-5.8-9.5c-1-1.6-0.5-3.8,1.2-4.8c1.6-1,3.8-0.5,4.8,1.1l5.9,9.5c1,1.7,0.5,3.8-1.1,4.8
				C273.9,669.6,271.8,669.1,270.7,667.4L270.7,667.4z"/>
			<path class="st70" d="M256.9,641l-3.6-10.6c-0.6-1.8,0.3-3.7,2.1-4.3c1.8-0.6,3.7,0.3,4.3,2.1l3.7,10.6c0.6,1.8-0.3,3.7-2.1,4.4
				C259.5,643.8,257.5,642.8,256.9,641L256.9,641z"/>
			<path class="st70" d="M249.4,612.2l-1-11.1c-0.2-1.8,1.2-3.4,3-3.6c1.8-0.2,3.4,1.2,3.6,3l1.1,11.1c0.2,1.8-1.2,3.5-3,3.7
				C251.3,615.4,249.6,614,249.4,612.2L249.4,612.2z"/>
			<path class="st70" d="M248.8,582.4l1.4-11.1c0.2-1.8,1.8-3,3.6-2.8c1.8,0.2,3,1.8,2.8,3.6l-1.3,11.1c-0.2,1.8-1.8,3.1-3.6,2.9
				C249.9,585.9,248.6,584.2,248.8,582.4L248.8,582.4z"/>
			<path class="st70" d="M254.2,553.3l3.3-10.7c0.5-1.7,2.3-2.6,3.9-2.1c1.7,0.5,2.6,2.3,2.1,3.9l-3.3,10.7c-0.5,1.7-2.3,2.6-4,2.1
				C254.6,556.8,253.7,555,254.2,553.3L254.2,553.3z"/>
			<path class="st70" d="M264.3,525.6l4.8-10.1c0.7-1.5,2.5-2.2,4.1-1.5c1.5,0.7,2.2,2.5,1.5,4.1l-4.7,10.1
				c-0.7,1.5-2.6,2.2-4.1,1.5C264.2,529,263.5,527.2,264.3,525.6L264.3,525.6z"/>
			<path class="st70" d="M277.7,499.5l5.8-9.6c0.9-1.4,2.7-1.9,4.1-1c1.4,0.8,1.8,2.7,1,4.1l-5.7,9.6c-0.9,1.4-2.7,1.9-4.1,1
				C277.3,502.7,276.8,500.9,277.7,499.5L277.7,499.5z"/>
			<path class="st70" d="M293.5,474.8l6.6-9c0.9-1.3,2.7-1.6,4-0.6c1.3,0.9,1.6,2.7,0.6,4l-6.5,9.1c-0.9,1.3-2.8,1.6-4.1,0.7
				C292.9,478,292.6,476.1,293.5,474.8L293.5,474.8z"/>
			<path class="st70" d="M311.3,451.5l7.2-8.6c1-1.2,2.7-1.3,3.8-0.3c1.1,1,1.3,2.7,0.4,3.8l-7.1,8.6c-1,1.2-2.7,1.4-3.9,0.4
				C310.5,454.5,310.3,452.8,311.3,451.5L311.3,451.5z"/>
			<path class="st70" d="M330.4,429.5l7.6-8.2c1-1,2.6-1.1,3.6-0.1c1,1,1.1,2.6,0.1,3.6l-7.6,8.2c-1,1.1-2.6,1.1-3.7,0.2
				C329.5,432.2,329.4,430.6,330.4,429.5L330.4,429.5z"/>
			<path class="st70" d="M350.7,408.5l8-7.8c1-0.9,2.5-0.9,3.4,0c0.9,1,0.9,2.5,0,3.4l-7.9,7.9c-1,1-2.5,1-3.5,0
				C349.7,411,349.7,409.5,350.7,408.5L350.7,408.5z"/>
			<path class="st70" d="M371.9,388.4l8.3-7.5c0.9-0.8,2.4-0.8,3.2,0.2c0.8,0.9,0.8,2.3-0.2,3.2l-8.2,7.6c-0.9,0.9-2.4,0.8-3.3-0.1
				C370.9,390.8,370.9,389.3,371.9,388.4L371.9,388.4z"/>
			<path class="st70" d="M393.8,369.2l8.6-7.2c0.9-0.7,2.2-0.6,3,0.3c0.7,0.9,0.6,2.2-0.3,3l-8.5,7.3c-0.9,0.8-2.3,0.7-3.1-0.2
				C392.8,371.3,392.9,370,393.8,369.2L393.8,369.2z"/>
			<path class="st70" d="M416.4,350.7l8.8-6.9c0.9-0.7,2.1-0.5,2.8,0.3c0.7,0.8,0.5,2.1-0.3,2.7l-8.8,7c-0.9,0.7-2.1,0.6-2.8-0.3
				C415.4,352.7,415.5,351.4,416.4,350.7L416.4,350.7z"/>
			<path class="st70" d="M439.6,333l9-6.6c0.8-0.6,1.9-0.4,2.5,0.4c0.6,0.8,0.4,1.9-0.4,2.5l-9,6.7c-0.8,0.6-2,0.4-2.6-0.4
				C438.6,334.8,438.7,333.7,439.6,333L439.6,333z"/>
			<path class="st70" d="M463.2,316l9.2-6.3c0.8-0.5,1.8-0.3,2.3,0.4c0.5,0.7,0.3,1.8-0.4,2.3l-9.2,6.4c-0.8,0.5-1.8,0.4-2.4-0.4
				C462.3,317.7,462.5,316.6,463.2,316L463.2,316z"/>
			<path class="st70" d="M487.4,299.8l9.4-6.1c0.7-0.4,1.6-0.2,2.1,0.5c0.4,0.7,0.2,1.6-0.4,2.1l-9.4,6.2c-0.7,0.5-1.7,0.3-2.2-0.4
				C486.5,301.2,486.7,300.2,487.4,299.8L487.4,299.8z"/>
			<path class="st70" d="M512.1,284.2l9.6-5.7c0.6-0.4,1.5-0.2,1.8,0.5c0.4,0.6,0.2,1.5-0.5,1.8l-9.5,5.8c-0.7,0.4-1.5,0.2-1.9-0.5
				C511.2,285.5,511.4,284.7,512.1,284.2L512.1,284.2z"/>
		</g>
		<g>
			<polygon class="st3" points="561.7,223.7 566.5,258.5 588,240.4 			"/>
			<path class="st1" d="M715.6,182.4l-82.8,95.3c-1.6,1.8-3.8,2.9-6.3,3c-2.4,0.1-4.8-0.7-6.5-2.4l-92.5-86.7
				c-1.1-1-1.4-2.5-0.9-3.9c0.5-1.4,1.8-2.3,3.3-2.3L715.6,182.4z"/>
			<polygon class="st3" points="561.7,223.7 715.6,182.4 576.6,237.8 577.5,247.5 			"/>
			<polygon class="st3" points="585.5,246 566.5,258.5 576.6,237.8 			"/>
		</g>
	</g>
</g>
</svg>
