<?xml version="1.0" encoding="utf-8"?>
<!-- Generator: Adobe Illustrator 24.1.3, SVG Export Plug-In . SVG Version: 6.00 Build 0)  -->
<svg version="1.1" id="Layer_3" xmlns="http://www.w3.org/2000/svg" x="0px"
     y="0px"
     viewBox="0 0 159.43 61.52" style="enable-background:new 0 0 159.43 61.52;" xml:space="preserve">
<style type="text/css">
	.st0{fill:#132C33;}
	.st1{fill:#CDBF9E;}
	.st2{fill:#AE9761;}
	.st3{fill:#A1ABAD;}
	.st4{fill:#718085;}
	.st5{fill:#1F373D;}
	.st6{fill:#394E54;}
	.st7{fill:#BEAC81;}
	.st8{fill:#825F0C;}
	.st9{fill:#907127;}
	.st10{fill:#FFFFFF;}
	.st11{fill:#D6CAAF;}
	.st12{fill:url(#SVGID_1_);}
	.st13{fill:#BFC6C8;}
	.st14{fill:#B3BBBE;}
	.st15{fill:#263D43;}
	.st16{fill:#9CA6A9;}
	.st17{fill:#866413;}
	.st18{fill:#9EA8AB;}
	.st19{fill:#8D6D22;}
	.st20{fill:#51C4D3;}
	.st21{fill:#64CAD8;}
	.st22{fill:#9AA4A7;}
	.st23{fill:#A08546;}
	.st24{fill:#ECEEEF;}
	.st25{opacity:0.7;fill:#909C9F;}
	.st26{fill:#B29C68;}
	.st27{fill:#909C9F;}
	.st28{fill:#808D91;}
	.st29{opacity:0.68;fill:#C6B58F;}
	.st30{fill:#C6B58F;}
	.st31{fill:#A8B1B4;}
	.st32{fill:#BDC4C6;}
	.st33{opacity:0.55;fill:#ECEEEF;}
	.st34{fill:#A5AFB1;}
	.st35{fill:#CEC1A0;}
	.st36{fill:url(#SVGID_2_);}
	.st37{fill:#A48A4E;}
	.st38{fill:#92742C;}
	.st39{fill:#8A691B;}
	.st40{fill:#E5E8E9;}
	.st41{fill:url(#SVGID_3_);}
	.st42{fill:url(#SVGID_4_);}
	.st43{opacity:0.3;fill:#FFFFFF;}
	.st44{opacity:0.35;fill:#FFFFFF;}
	.st45{fill:url(#SVGID_5_);}
	.st46{fill:url(#SVGID_6_);}
	.st47{fill:#B1B9BC;}
	.st48{fill:url(#SVGID_7_);}
	.st49{fill:url(#SVGID_8_);}
	.st50{fill:url(#SVGID_9_);}
	.st51{fill:#B8C0C2;}
	.st52{opacity:0.4;fill:url(#SVGID_10_);}
	.st53{fill:url(#SVGID_11_);}
	.st54{fill:url(#SVGID_12_);}
	.st55{fill:#D8CDB4;}
	.st56{fill:url(#SVGID_13_);}
	.st57{opacity:0.86;fill:#FFFFFF;}
	.st58{fill:#C9CED0;}
	.st59{fill:url(#SVGID_14_);}
	.st60{fill:url(#SVGID_15_);}
	.st61{fill:#D5C9AC;}
	.st62{fill:#C7B792;}
	.st63{fill:url(#SVGID_16_);}
	.st64{opacity:0.82;fill:url(#SVGID_17_);}
	.st65{fill:#D2D7D8;}
	.st66{opacity:0.55;fill:#FFFFFF;}
	.st67{fill:#CF9508;}
	.st68{fill:url(#SVGID_18_);}
	.st69{fill:url(#SVGID_19_);}
	.st70{opacity:0.37;fill:#FFFFFF;}
	.st71{fill:url(#SVGID_20_);}
	.st72{opacity:0.8;fill:#FFFFFF;}
	.st73{opacity:0.39;fill:#FFFFFF;}
	.st74{opacity:0.7;fill:#FFFFFF;}
	.st75{opacity:0.4;fill:url(#SVGID_21_);}
	.st76{fill:#DCDFE0;}
	.st77{opacity:0.4;fill:url(#SVGID_22_);}
	.st78{fill:#D5D9DA;}
	.st79{fill:#A18749;}
	.st80{fill:#967933;}
	.st81{fill:url(#SVGID_23_);}
	.st82{fill:url(#SVGID_24_);}
	.st83{fill:#E7EAEB;}
	.st84{fill:url(#SVGID_25_);}
	.st85{fill:#55676C;}
	.st86{fill:#3B5056;}
	.st87{fill:url(#SVGID_26_);}
	.st88{opacity:0.4;fill:#FFFFFF;}
	.st89{opacity:0.42;fill:#BFC6C8;}
	.st90{fill:#D9DDDE;}
	.st91{opacity:0.81;}
	.st92{fill:#CBD1D2;}
	.st93{opacity:0.8;}
	.st94{fill:url(#SVGID_27_);}
	.st95{fill:url(#SVGID_28_);}
	.st96{fill:#126E82;}
	.st97{fill:#D8E3E7;}
</style>
    <g>
	<g>
		<path class="st20" d="M154.56,41.95c2.97,3.56,4.07,7.15,3.36,9.13c-1.67,4.68-13.29,1.81-17.11,0.96
			c-3.82-0.85-5.2-5.48-6.53-8.8c-0.45-1.13,2.57,0.4,8.21,0.69c0.94,0.05,1.61-0.77,2.28-1.88
			C146.16,39.72,154.56,41.95,154.56,41.95z"/>
        <path class="st20" d="M131.51,40.86c-2.36,1.14-1.33,7.23,1.49,8.9c2.81,1.68,13.79,7.02,13.79,7.02l2.88-3.57
			c0,0-11.35-9.38-12.22-10.37C135.21,40.3,131.51,40.86,131.51,40.86z"/>
        <path class="st1" d="M149.15,51.69c1.91,0.69,3.78,1.68,4.26,2c0.48,0.32-2.61,1.15-3.66,1.03c-1.05-0.12-2.11-1.32-2.11-1.32
			s-0.91-1.55-1.44-1.64C145.68,51.67,149.15,51.69,149.15,51.69z"/>
        <path class="st11" d="M134.54,40.94c-0.4,0.44-0.64,0.33-1.24,0.56c-0.6,0.22-0.82,0.74-0.92,0.94c-0.1,0.2-0.26-0.49-0.05-0.79
			c0.21-0.3,0.4-0.62,0.4-0.62s-0.8,0.03-1,0.29c-0.2,0.26-0.41,0.46-0.46,0.65c-0.06,0.19-0.03,0.9-0.19,0.9
			c-0.16,0-0.23-0.87-0.23-0.99c0.01-0.12,0.34-0.78,0.34-0.78s-0.35,0.58-0.34,0.89c0,0.25,0.19,0.95,0.02,0.97
			c-0.18,0.02-0.43-0.71-0.44-0.99c-0.02-0.27,0.08-0.9,0.33-1.4c0.24-0.51,0.54-0.81,0.93-0.85c0.38-0.04,2.14-0.57,2.74-0.63
			c0.62-0.06,2.14-1.09,2.14-1.09l0.1,1.98L134.54,40.94z"/>
        <path class="st3" d="M134.97,38.73c-0.99-0.59,6.13-1.93,7.82-4.8c0.45-0.77,3.33,4.75,2.64,4.95c-0.69,0.2-7.68,4.85-8.57,4.55
			C135.96,43.14,134.97,38.73,134.97,38.73z"/>
        <g>
			<path class="st9" d="M150.53,9.96c1.4-0.8,4.64-2.71,6.09,2.56c0.88,3.19,0.46,16.44,0.46,16.44s-2.21,0.88-2.33-0.7
				c-0.46-5.93-1.17-14.69-2.44-14.69C150.71,13.57,150.53,9.96,150.53,9.96z"/>
            <path class="st11" d="M144.81,24.78c0.78-0.51,1.57-0.71,2.12-1.92c0.08-1.42-0.21-4.08-1.5-4.94c0,0,8-2.98,7.12-0.91
				c-1.81,4.27-0.61,5.36,0.61,5.88c2.68,1.16,1.32,1.96,1.85,2.89c0.84,1.47-9.45,5.68-9.56,5.61
				C144.95,31.06,143.82,25.45,144.81,24.78z"/>
            <g>
				<path class="st11" d="M151.6,14.8c0.33-3.38-1.78-4.82-4.47-5.08c-2.69-0.27-4.42,1.59-4.75,4.97
					c-0.06,0.64,0.41,0.98,0.44,1.58c-0.1,0.31-0.45,1.14-0.65,1.55c-0.04,0.27,0.44,0.66,0.82,0.75c0.45,1.7,0.85,3.19,2.72,2.81
					C148.36,20.84,151.27,18.18,151.6,14.8z"/>
                <path class="st9" d="M145.1,13.97l-2.15-1.81c-0.19-0.84,2.95-4.25,6.75-2.9c3.53,1.25,3.81,3.25,3.68,5.44
					c-0.13,2.19-1.24,5.29-1.24,5.29s-4.32-2.21-3.67-2.84c0.4-0.39,0.58-2.15-0.15-2.33c-0.36-0.09-0.79,0.34-0.79,0.34
					L145.1,13.97z"/>
			</g>
		</g>
        <path class="st13" d="M154.23,39.94c-0.63-1.13,0.63-5.03,0.99-8.57c0.33-3.3,2.71-4.62,0.79-7.25c0,0-3.8-1.86-3.83-1.7
			c-0.31,0.52-3.56,4.6-5.59,5.74c-2.17,1.21-0.79-3.58-0.25-4.7l-2.94,1.52c0,0-0.07,1.32-1.28,4.79c-1.25,3.6,0.65,4.92,0.65,4.92
			c0.77,0.44,0.64,1.75,0.68,3.6c0.1,4.35-2.12,4.99-2.03,5.48c0.09,0.49,3.65,2.36,5.27,1.52c0.78-0.41,0.89-0.79,2.18-1.11
			c-0.02,0.05-0.03,0.09-0.03,0.09s0.2-0.09,0.52-0.21c0.75-0.18,1.39-0.32,1.76-0.39c0.69-0.06,1.45,0.01,2.1,0.38
			c1.8,1.01,2.56-0.26,4.76,4.54C156.93,42.84,155.44,42.11,154.23,39.94z"/>
        <path class="st3" d="M154.75,24.04c-5.14,7.25-4.09,9.63-3.63,11.08c0.46,1.45-0.86,5.47-0.66,6.33c0.2,0.86,0.14,2.54,0.46,2.44
			c5.61-1.65,7.39,2.11,7.39,2.11s-1.25-2.44-1.58-3.17c-0.33-0.73-0.96-2.77-1.49-3.76c-0.53-0.99-1.42-7.52,1.95-11.74
			L154.75,24.04z"/>
        <path class="st13" d="M155.08,24.77c1.19-0.59,1.48-0.43,2.37,0.86c0.89,1.29,2.27,12.16,1.91,12.71
			c-0.36,0.55-3.92-0.34-3.92-0.34s-0.89-4.55-1.38-7.91C153.57,26.71,154.46,25.08,155.08,24.77z"/>
        <g>
			<g>
				<path class="st11" d="M151.08,49.19c-3.13,3.87-9.06,5.77-13.91,6.49l-4.76,1.42c0,0-6.72-1.76-2.21-4.08
					c1.06-0.55,4.11,0.42,6.02-0.55c1.92-0.98,9.89-5.21,9.89-5.21L151.08,49.19z"/>
			</g>
            <path class="st21" d="M155.94,43.14c-6.23-0.5-10.88,4.95-19.98,8.71c2.28,1.29,2.33,4.24,2.33,4.24s16.31-3.64,18.94-7.11
				C160,45.31,155.94,43.14,155.94,43.14z"/>
            <path class="st15" d="M132.76,52.82c-0.88,0.42-2.14,3.61,0.63,4.18c-2.92,0.29-4.09-0.04-4.79-0.83
				c-0.85-0.96-0.72-3.16,1.11-3.36C131.54,52.6,132.76,52.82,132.76,52.82z"/>
		</g>
        <g>
			<path class="st11" d="M149.74,42.53c-0.42-0.04-1.13,0.12-1.56,0.37c0,0,2.06,1.57,2.06,2.25c0,0.28,0.51-0.27,0.8-0.65
				c2.16,0.05,1.97-0.96,1.54-1.68C152.11,42.04,150.86,42.03,149.74,42.53z"/>
            <path class="st11" d="M148.07,42.97c-0.2,0.23-0.37,0.66-0.51,0.98c-0.14,0.33-0.52,1.38-0.33,1.48c0.19,0.1,0.43-0.56,0.79-1.1
				c0.37-0.58,0.41-0.55,0.58-0.59c0,0-0.3,0.45-0.56,0.87c-0.2,0.31-0.77,1.16-0.43,1.34c0.25,0.13,0.47-0.6,0.81-0.97
				c0.34-0.37,0.72-0.84,0.72-0.84s-0.27,0.41-0.52,0.85c-0.28,0.49-0.65,0.96-0.5,1.09c0.15,0.13,0.6-0.39,1.03-0.77
				c0.35-0.32,0.76-0.58,0.76-0.58s-1.44,1.51-1.02,1.52c0.43,0,1.41-0.94,1.89-1.56c0.24-0.3-0.41-0.95-1.05-1.45
				C148.65,42.4,148.07,42.97,148.07,42.97z"/>
		</g>
        <path class="st13" d="M159.37,38.33c-0.25,0.98-4.87,6.15-6.02,6.75c-1.21-0.92-2.38-2.56-1.79-3.72c0.58-1.16,4.74-4.9,4.74-4.9
			L159.37,38.33z"/>
        <g>
			<path class="st15" d="M143.86,54.84c-0.29-0.64,3.21-1.57,3.78-1.43c3.57,0.87,4.45,0.94,5.09-0.01
				c0.64-0.95,3.16,1.32,2.69,2.55C154.95,57.17,143.86,54.84,143.86,54.84z"/>
            <path class="st0" d="M154.55,54.48c-1.74-0.84-2.43,0.94-3.66,0.48c-1.23-0.47-2.17-1.52-5.53-1.1c-3.13,0.39-2.05,3.25,0.6,4.31
				c2.38,0.95,6.23-0.53,7.86-0.55C155.44,57.6,156.57,55.46,154.55,54.48z"/>
		</g>
	</g>
        <g>
		<g>
			<path class="st35" d="M48.48,23.79c0.92,0.03,3.87-1.79,3.75-2.02c-0.85-1.54-1.61-4.07-1.17-4.8l-4.62-5.04
				c-0.39,0.87-0.71,2.47-1.5,4.41c-0.7,1.71-1.39,3.09-1.39,3.09S41.39,23.51,48.48,23.79z"/>

            <linearGradient id="SVGID_1_" gradientUnits="userSpaceOnUse" x1="9.3336" y1="-33.7662" x2="5.0452"
                            y2="-38.0016" gradientTransform="matrix(-0.9998 -0.0169 -0.0169 0.9998 52.7675 55.8043)">
				<stop offset="0" style="stop-color:#FFFFFF"/>
                <stop offset="0.6017" style="stop-color:#E3DBC8"/>
                <stop offset="0.967" style="stop-color:#D1C4A5"/>
			</linearGradient>
            <path class="st12"
                  d="M51.53,19.85l-5.85,6.05l-1.83-6.97c0,0,1.19-2.41,1.36-3.77C45.32,14.28,51.53,19.85,51.53,19.85z"/>
		</g>
            <path class="st4" d="M40.13,45.26c0.78,5.32,13.06,5.34,15.92,1.53c2.86-3.81,1.9-6.19-0.57-7.05
			C53,38.87,39.08,38.11,40.13,45.26z"/>
            <path class="st13" d="M55.63,32.48c0.02-0.78,0.49-8.54,0.49-8.54s0.61-2,0.16-2.29c-2.29-1.51-5.24-2.36-5.24-2.36
			s0.47,3.6-2.29,3.6c-2.36,0-5.63-4.06-5.63-4.06s-1.83,0.72-6.68,3.54c-0.3,0.18,2.34,8.63,2.75,10.54
			c0.67,3.14-1.23,6.83-1.57,9.04c-0.2,1.27,10.84,2.22,10.84,2.22s8.14-1.64,8.15-2.65C56.65,39.8,55.5,36.96,55.63,32.48z"/>
            <g>
			<path class="st3" d="M55.51,47.31c1.34,1.1,4.6-0.21,6.1-0.26c1.51-0.05,3.09,0.82,2.79,2.31c0,0,0.75,2.86-2.15,2.97
				c-2.31,0.09-5.53-1.04-8.48-0.94C51.81,51.47,55.51,47.31,55.51,47.31z"/>
                <path class="st13" d="M60.21,47.22c1.75-0.27,4.17-0.17,4.56,1.58c0.39,1.75-0.42,2.56-0.99,3.08c-0.48,0.44-1.17,0.41-1.17,0.41
				s1.8-1.49,1.07-3.65C63.1,46.89,60.21,47.22,60.21,47.22z"/>
		</g>
            <path class="st4" d="M30.21,41.14c-1.29,2.05-0.63,4.03,1.57,6.07c3.58,3.33,23.37,6.08,26.78,5.49c0.8-0.02,2.34-1.79,1.27-6.4
			c-0.58-0.66-5.38-0.05-6.37,1.6c-0.44,0.73,0.39-0.75-0.51-1.04c-0.9-0.29,0.06-0.02-2.29-0.02c-0.95,0-14.2-6.67-15.83-7.31
			C33.2,38.91,30.21,41.14,30.21,41.14z"/>
            <g>
			<g>
				<path class="st3" d="M44.73,48.82c-1.34,1.34-5.04,0.27-6.68,0.37c-1.64,0.1-3.28,1.23-2.79,2.82c0,0-0.51,3.2,2.66,3.01
					c2.53-0.16,5.92-1.73,9.15-1.93C49.21,52.95,44.73,48.82,44.73,48.82z"/>
                <path class="st13" d="M39.58,49.23c-1.93-0.11-4.56,0.26-4.8,2.21c-0.23,1.95,0.74,2.74,1.42,3.25
					c0.57,0.43,1.32,0.33,1.32,0.33s-2.12-1.43-1.57-3.87C36.4,49.18,39.58,49.23,39.58,49.23z"/>
			</g>
                <path class="st27" d="M63.95,37.2c1.9,1.52,2.95,4.41,0.33,7.56c-1.92,2.31-13.23,9.43-19.91,11.07
				c-0.85-1.9-1.76-5.23-3.21-6.88c0.33-0.81,5.56-1.85,9.38-4.42c0.79-0.53,7.01-5.58,8.34-6.72C60.21,36.67,63.95,37.2,63.95,37.2
				z"/>
		</g>
            <path class="st3" d="M36.77,22.43c-1.57,0.1-2.4,4.25-2.75,5.43c-0.35,1.19-5.19,9.86-3.8,11.46c3.43,3.94,4.78,1.21,4.78,1.21
			l2.55-1.28c0,0-0.03-1.48-0.98-1.77c-1-0.3,1.92-3.26,1.96-4.98C38.65,28.31,36.77,22.43,36.77,22.43z"/>
            <path class="st3" d="M56.3,21.65c1.91-0.06,4.02,7.84,5.69,10.14c1.62,2.22,1.88,3.31,1.57,4.52c-0.25,1.02-1.88,2.23-2.72,2.55
			c-0.84,0.33-2.65-0.46-2.65-0.46s-0.5-2.38-0.52-2.55c-0.05-0.55-1.69-3.64-1.9-4.58C55.55,30.33,56.3,21.65,56.3,21.65z"/>
            <g>
			<g>
				<g>
					<g>
						<path class="st1" d="M50.99,12.89c-0.37,2.83-0.72,5.39-2.3,5.5c-0.47,0.03-1.49-0.07-2.21-0.43
							c-1.51-0.76-2.94-2.55-3.26-4.45c-0.47-2.81,1-5.24,3.73-5.28C49.94,8.18,51.29,10.49,50.99,12.89z"/>
                        <path class="st8" d="M49.4,8.86c-0.18,1.53-2.9,1.45-3.71,1.87c-0.8,0.43-1.12,1.27-1.18,1.53c-0.06,0.26-0.55-0.73-1-0.17
							c-0.45,0.56,0.06,2.08,0.39,2.18c0.2,0.06,0.38,2.48,0.17,3.08C43.88,17.87,41.36,17,41.36,17s1.13-1.73,0.47-4.92
							c-0.71-3.46,2.83-6.11,5.87-5.53C50.06,7,49.4,8.86,49.4,8.86z"/>
					</g>
                    <path class="st11" d="M51.76,10.11c0,0-0.37,1.8-0.37,3.05c0,2.34-0.24,4.39-0.98,4.73c-0.74,0.34-0.61,0.33-0.61,0.33
						s0.34,0.26-0.23-4.15c-0.49-3.78-0.69-5.72-0.69-5.72L51.76,10.11z"/>
                    <path class="st1" d="M49.3,11.99c0.48,2.04,1.04,2.48,0.94,2.75c-0.1,0.27-0.5,0.06-1.09,0.45
						C48.95,15.32,49.3,11.99,49.3,11.99z"/>
                    <path class="st9" d="M48.67,7.95c0.3,0.82,0.34,1.72,0.34,1.72c1.55-0.2,2.54,1.24,2.41,2.41c-0.08,0.66-0.06,1.54-0.06,1.54
						s0.34-1.31,0.41-1.64c0.08-0.33,0.57-1.8-0.07-2.7C51.39,8.82,51,5.91,47.95,6.57C47.75,6.61,48.38,7.17,48.67,7.95z"/>
				</g>
                <path class="st9" d="M49.78,15.17c0.63,0,1.21,0.26,1.41,0.76c0.21,0.5,0.05,1.18,0.05,1.18s-0.19-0.86-0.68-0.78
					c-0.37,0.06-0.63-0.14-0.63-0.14L49.78,15.17z"/>
                <path class="st8" d="M49.78,15.17c-0.36-0.01-1.25,0.51-1.51,0.86c-0.25,0.34,0.13,1.38,0.13,1.38s0.21-0.75,0.66-0.86
					c0.45-0.1,0.88-0.36,0.88-0.36L49.78,15.17z"/>
                <path class="st9" d="M49.63,17.07c0.51,0.07,1.3-0.7,1.44-1.18c0.14-0.48,0.42,3.12,0.29,3.51c-0.14,0.39-1.28,1.79-1.43,1.61
					C49.78,20.84,49.63,17.07,49.63,17.07z"/>
                <path class="st8" d="M43.79,14.42c0.04,0.86,0.3,2.86,0.39,3.34c0.09,0.47,1.95,2.19,2.54,2.58c0.58,0.4,3.33,0.73,3.33,0.73
					l-0.14-4.03c0,0-1.63,0.04-2.02-0.21c-0.39-0.24-2.12-1.01-2.73-1.86c-0.61-0.85-0.43-2.2-0.58-2.5
					c-0.16-0.3-0.46,0.52-0.28,1.33C44.37,14.16,43.79,14.42,43.79,14.42z"/>
			</g>
		</g>
            <path class="st13" d="M56.35,22.76c0.79,0.33,2.68,5.24,2.95,6.42c0.26,1.18,0.85,1.44,0.33,1.83c-0.52,0.39-1.64,3.54-1.05,2.23
			c0.59-1.31,0.92-1.77,1.38-1.57c0.46,0.2-1.7,3.01-1.18,2.42c0.52-0.59,1.05-1.9,2.03-1.31c0.98,0.59,1.31,1.05,1.11,2.1
			c-0.2,1.05,1.11,2.09,1.11,2.09s1.69-1.28-0.79-5.07c-2.49-3.8-1.59-3.47-2.9-6.48c-1.31-3.01-2.38-3.68-2.58-3.68
			C56.57,21.73,56.35,22.76,56.35,22.76z"/>
            <path class="st13" d="M37.07,25.11c-0.79,0.79-1.87,5.01-2.36,5.8c-0.49,0.79-2.55,4.22-1.96,4.42c0.59,0.2,3.04-0.29,3.24,0.49
			c0,0-0.1,0.39-1.08,0.39c-0.98,0-2.65-0.39-2.75,0c-0.1,0.39,1.38-0.29,1.87,0.39c0.49,0.69-0.49,0.1-1.67,0.69
			c-1.18,0.59-2.06,2.26-1.67-0.98c0.4-3.24,2.55-6.58,3.34-7.86c0.88-3.83,2.09-6.97,2.42-6.09
			C36.77,23.25,37.07,25.11,37.07,25.11z"/>
            <path class="st3" d="M37.69,21.78c0.92,0.65,3.4,6.35,3.67,8.58c0.26,2.23-0.52,4.32,0.66,4.19c1.18-0.13,5.37-0.33,5.37,0.33
			c0,0.65-5.5-0.33-5.76,1.77c-0.26,2.09-2.75,3.8,3.27,3.8c6.02,0,9.17-2.49,9.43-3.01c0.26-0.52,2.36,1.97-2.36,3.54
			c-4.71,1.57-9.95,0.52-9.95,0.52s10.35,1.05,13.36-0.39c3.01-1.44,1.97,1.18-2.75,2.36c-4.71,1.18-6.94,1.31-11.79-1.18
			c-4.85-2.49-1.83-2.36-2.1-5.5c-0.26-3.14-0.2-6.42-0.2-6.42l-1.9-8.12L37.69,21.78z"/>
            <g>
			<path class="st11" d="M35.9,38.29c0.46-0.05,1.23,0.14,1.71,0.4c0,0-2.24,1.73-2.25,2.47c0,0.3-0.56-0.3-0.88-0.72
				c-2.22-0.54-2.44-1.44-1.96-2.24C33.02,37.36,34.66,37.75,35.9,38.29z"/>
                <path class="st11" d="M37.73,38.77c0.22,0.26,0.4,0.72,0.56,1.07c0.16,0.36,0.58,1.51,0.38,1.62c-0.21,0.11-0.47-0.62-0.86-1.21
				c-0.42-0.63-0.45-0.59-0.64-0.64c0,0,0.33,0.49,0.62,0.95c0.21,0.34,0.84,1.27,0.47,1.46c-0.27,0.15-0.52-0.65-0.89-1.05
				c-0.37-0.4-0.79-0.92-0.79-0.92s0.3,0.44,0.58,0.94c0.31,0.54,0.71,1.05,0.56,1.19c-0.17,0.14-0.66-0.42-1.13-0.84
				c-0.39-0.35-0.84-0.63-0.84-0.63s1.59,1.65,1.13,1.65c-0.47,0.01-1.55-1.01-2.08-1.69c-0.26-0.33,0.44-1.05,1.14-1.6
				C37.09,38.15,37.73,38.77,37.73,38.77z"/>
		</g>
            <path class="st11" d="M54.14,40.11c0.97-0.46,2.05-0.28,2.64-0.92l0.01,0.01c1.54-1.77,2.88-4.51,3.99-4.84
			c0.82-0.24,1.63,0.09,1.97,0.36c0.46,0.37,0.37,1,0.14,1.65c-0.6,1.73-2.75,3.85-4.66,4.67c-0.38,0.22-1.01,0.63-1.31,1
			c-1.34,1.65-1.96,1.78-1.96,1.78s-0.43,0.27-0.64,0.24c-0.2-0.03-0.16-0.16-0.07-0.29c-0.13,0.13-0.31,0.25-0.47,0.21
			c-0.12-0.02-0.06-0.3,0.02-0.52c-0.11,0.25-0.3,0.53-0.53,0.36c-0.17-0.13,0.08-0.7,0.17-0.91c-0.11,0.21-0.42,0.79-0.69,0.63
			c-0.14-0.08,0.08-0.96,0.17-1.2c0.09-0.25,0.97-1.29,0.97-1.29s-0.47,0.43-0.87,0.61c-0.3,0.14-0.52-0.12-0.39-0.24
			C53.39,40.75,53.66,40.33,54.14,40.11z"/>
	</g>
        <g>
		<path class="st38"
              d="M18.03,45.91c2.45,1.01,12.66,5.54,13.38,8.13c0.72,2.6-0.87,3.9-0.87,3.9l-6.01,0.72L18.03,45.91z"/>
            <g>
			<path class="st61" d="M16.98,58.56c-2.67-0.59-10.09-2.97-11.06-2.66c-0.49,0.15-0.58,0.9-0.54,1.95
				c0.04,0.88,0.65,2.13-0.47,1.99c-1.11-0.14-2.49-1.72-2.51-2.98c-0.03-1.48,0.44-1.95,0.33-2.93c-0.11-0.97-0.04-2.2,0.66-2.35
				c0.49-0.1,1.22,0.33,1.87,0.81c1.09,0.8,11.06,2.4,11.06,2.4S18.51,58.9,16.98,58.56z"/>
                <path class="st13" d="M4.97,52.04c-0.4,0.08-0.86-0.02-1.05,1.34c-0.19,1.36-0.68,3.46-0.18,4.22c0.51,0.76,1.71,1.08,1.73,0.72
				c0.01-0.35,0.51,1.31,0.27,1.98c-0.24,0.66-3.48-0.75-3.78-2.32c-0.31-1.58,0.44-2.33,0.41-3.63c-0.03-1.3,0.1-2.79,1.26-2.89
				C4.55,51.38,4.97,52.04,4.97,52.04z"/>
		</g>
            <g>
			<path class="st11" d="M16.77,59.4c-2.97-0.66-11.21-3.3-12.28-2.96c-0.54,0.17-0.65,1.01-0.6,2.17c0.04,0.98,0.72,2.37-0.52,2.21
				c-1.24-0.16-2.76-1.92-2.78-3.31c-0.03-1.64,0.49-2.17,0.37-3.25c-0.13-1.08-0.05-2.45,0.73-2.62c0.54-0.11,1.36,0.37,2.07,0.9
				c1.21,0.88,12.27,2.66,12.27,2.66S18.47,59.77,16.77,59.4z"/>
                <path class="st13" d="M3.44,52.16c-0.45,0.09-0.96-0.02-1.17,1.49c-0.21,1.51-0.76,3.84-0.2,4.69c0.56,0.85,1.9,1.2,1.91,0.8
				c0.01-0.4,0.56,1.46,0.3,2.2c-0.27,0.74-3.86-0.84-4.2-2.58c-0.34-1.75,0.49-2.58,0.45-4.03c-0.03-1.44,0.11-3.1,1.4-3.21
				C2.97,51.43,3.44,52.16,3.44,52.16z"/>
		</g>
            <path class="st38" d="M13.78,44.9c2.24,1.14,15.67,8.43,16.34,10.26c0.36,0.98,0.48,2.95-0.6,4.02c-0.98,0.98-1.75,1.09-2.48,1.09
			c-1.57,0-20.39,1.13-20.39,1.13s-1.85-4.65-1.17-7.62C6.41,49.7,13.78,44.9,13.78,44.9z"/>
            <path class="st38" d="M5.26,48.68c0,2.06-1.03,4.38,1.25,6.11c2.27,1.73,3.46,0.97,5.08,0.97c1.62,0,0.97-7.36,0.97-7.36
			L5.26,48.68z"/>
            <path class="st37"
                  d="M17.66,53.4c-2.7-0.87-10.17-0.65-11.57-0.43c-1.4,0.21-0.43,1.08-0.43,1.08L17.66,53.4z"/>
            <path class="st37" d="M15.1,47.92c1.73,0.32,12.52,5.88,13.39,7.07c-0.18-0.72,1.5-0.13,1.64-0.36
			c0.43-0.76-11.93-8.33-12.69-8.44C16.68,46.08,15.1,47.92,15.1,47.92z"/>
            <path class="st11" d="M10.75,32.82c0.98-1.84,4.64-0.46,4.64-0.46s1.67,9.86,2.34,10.31c0.61,0.42,4.35,4.08,5.33,5.04
			c0.31,0.12,0.67,0.23,0.94,0.24c0.33,0.02,1.13,0.29,1.46,0.38c0.69,0.2,1.23,0.54,1.58,0.8c0.17,0.13,0.45,0.19,0.23,0.32
			c-0.22,0.13-0.86-0.32-1.31-0.39c-0.42-0.07,0.92,0.7,1.2,0.84c0.24,0.12,1.24,0.9,1.12,1.05c-0.21,0.29-1.6-0.88-1.66-0.74
			c-0.05,0.11,1.79,0.93,1.62,1.07c-0.36,0.31-1.5-0.77-1.78-0.68c0,0,0.33,0.14,0.68,0.38c0.32,0.22,0.68,0.36,0.69,0.47
			c0.07,0.71-2.08-0.85-1.88-0.6c0.08,0.1,1.32,0.54,1.08,0.73c-0.11,0.1-1.62-0.51-1.62-0.51s-1.99-0.92-2.62-1.41
			c-0.22-0.18-0.83-0.59-1.29-0.9c-1.64-0.9-5.05-2.84-6.22-4C14.54,44.04,9.77,34.66,10.75,32.82z"/>
            <g>
			<path class="st35" d="M18.61,23.39c-1.76,0.75-2.96,1.66-3.57,4.04c-0.27,1.05,0.26,3.68,0.39,5.02c0.13,1.3-2.58-0.64-4.25-2
				c-1.48-1.2-0.79-1.51-1.83-2.03c0.94-0.68,2.54-6.88,2.55-9.63C11.91,16.04,18.61,23.39,18.61,23.39z"/>
                <g>
				<path class="st35" d="M14.79,13.55c-3.11,0.3-5.28,1.03-4.91,4.93c0.37,3.91,4.58,7.23,7.7,7.24c1.48,0,2.02-0.72,2.31-2.95
					c0.44-0.12,0.85-0.31,0.79-0.63c-0.33-0.61-0.54-1.1-0.67-1.52c-0.01-0.49,0.29-1.87,0.23-2.38
					C19.87,14.33,17.9,13.25,14.79,13.55z"/>
                    <path class="st0" d="M9.7,16.5c1.05-3.42,5.02-4.23,8.26-2.86c0.73,0.31,1.1,0.81,1.28,1.24c1.6,1.08,1.07,1.96,0.26,2.26
					c-0.82,0.3-4.05,2.4-4.18,2.69c-0.12,0.3-0.61-1.14-1.1-0.54c-0.66,0.82-0.04,2.32-0.04,2.32l-2.56,2.62
					C11.63,24.22,8.24,21.29,9.7,16.5z"/>
			</g>
		</g>
            <path class="st32" d="M15.96,30.37c0.3,1.62,2.47,4.33,2.36,6.81c-0.05,1.14-0.37,1.89-1.11,2.55c-1.06,0.95,0.01,3.33,0.65,4.78
			c1.06,2.41,1.47,2.51,1.47,2.51s0.58-0.29-5.7,2.66c-3.19,1.5-4.44,1.49-4.22,0.7c4.52-16.45,0.01-23.88,0.98-25.1
			C10.36,25.65,15.96,30.37,15.96,30.37z"/>
            <path class="st31" d="M10,25.39c-1.6,4.06-2.86,5.75-2.95,7.86C6.56,45.1,3.91,46.55,4.33,51.68c0.03,0.38,7.64-0.18,11.56-3.07
			c-2.81-4.98-3.64-11.13-3.21-16.8c0.13-1.7-1.24-2.95-1.11-4.48C11.68,26.03,9.96,25.76,10,25.39z"/>
            <path class="st1" d="M28.05,51.04c0.37-0.08-0.49-0.92-0.64-1.1c-0.1-0.12-0.84-0.72-1.04-0.77c-0.37-0.09-1.83-0.33-2.62-0.57
			c-1.04-0.73-6.76-5.1-6.94-5.56c-0.2-0.49-1.18-7.56-2.26-9.63c0,0-4.6-1.42-5.19,1.97c-0.29,1.67,3.91,9.43,4.89,10.41
			c0.93,0.93,7.3,4.39,7.98,4.75c0.77,0.77,2.06,0.83,2.61,1c0.59,0.19,1.88,0.42,1.75,0.16c-0.13-0.27-1.51-0.62-1.51-0.62
			s0.5,0.03,0.91,0.21c0.41,0.18,1.11,0.6,1.23,0.52c0.26-0.18-0.57-0.71-0.78-0.91c-0.13-0.12-0.94-0.41-0.94-0.41l1.24,0.39
			c0,0,0.72,0.91,1.11,0.8c0.39-0.11-0.62-1.1-0.88-1.32c-0.21-0.17-0.94-0.46-0.94-0.46s0.53,0.12,0.98,0.41
			C27.37,50.54,27.83,51.09,28.05,51.04z"/>
            <g>
			<path class="st0" d="M13.04,30.12c-0.09-0.69-0.95-1.84-1.19-2.02c-0.06-0.24-0.21-0.54-0.26-0.69c-0.1-0.29-0.58-2.01-0.84-2.92
				c0.3-0.07,0.56-0.41,0.68-0.85c0.2-0.74-0.74-1.69-0.74-1.69c-0.19,0.22-0.8,0.99-0.81,1.52c-0.37,0.77-1.52,2.53-0.35,3.86
				c0.05,0.59,0.54,1.98,1.59,2.79c-0.01,0.01-0.02,0.01-0.02,0.01c0.42,0.62,1.23,1.65,2.43,1.79
				C14.59,32.03,13.88,30.74,13.04,30.12z"/>
                <path class="st15" d="M11.64,23.56c-0.01,0.55,0.61,2.7-0.01,3.46c0.52,0.44,0.93,0.64,0.59,1.57c0.81,0.11,1.29,0.76,1.07,1.71
				c0.27,0.16,1.63,0.64,1.23,1.45c1.01,0.29,3.32,2.13,3.71,3.8c-0.13,0.21-1.24-1.1-1.24-1.1l-1.32-1.43c0,0,1.22,1.9,1.23,2.03
				c0.02,0.13-1.06-1-1.06-1l1.07,1.38l-1.67-0.83c0,0-1.65-2.95-2.58-3.92c-0.93-0.97-2.75-4.65-2.18-6.03
				c0.58-1.38,0.66-1.39,0.79-1.36C11.39,23.3,11.64,23.56,11.64,23.56z"/>
                <path class="st0" d="M13.36,31.89c0.1,0.74,1.05,3.15,2.38,3.69c1.33,0.55,2.16,0.69,2.16,0.69l-1.4-1.04l1.38,0.78l-0.76-0.94
				l0.98,0.69c0,0-1.73-2.24-2.81-3.03c-1.07-0.78-1.88-1.77-2.27-1.85c-0.39-0.07-0.71-1.84-1.19-2.03
				c-0.49-0.19-0.67-1.76-1.02-1.92c-0.36-0.16,0.07-2.68,0.22-3.2c0.12-0.4-0.61-0.51-0.85,0.28c-0.23,0.79-0.26,2.95,0.17,3.98
				C10.78,29.03,13.36,31.89,13.36,31.89z"/>
		</g>
	</g>
        <g>
		<g>
			<g>
				<path class="st7" d="M74.23,32.9c0-14.74,10.7-26.69,23.9-26.69c13.2,0,23.9,11.95,23.9,26.69c0,14.74-10.7,10.48-23.9,10.48
					C84.93,43.37,74.23,47.64,74.23,32.9z"/>
                <path class="st62"
                      d="M118.97,36.5c0.84-0.11,3.1-2.09,3.07-3.61C122,31.38,122,31.38,122,31.38l-3.1,3.72L118.97,36.5z"/>
                <path class="st62"
                      d="M118.87,31.09c0.81-0.25,2.73-2.79,2.58-4.29c-0.13-1.31-0.29-1.27-0.29-1.27l-2.44,4.6L118.87,31.09z"/>
                <path class="st62"
                      d="M117.68,26.44c0.78-0.36,2.5-3.46,2.1-4.92c-0.34-1.24-0.52-1.14-0.52-1.14l-1.61,4.8L117.68,26.44z"/>
                <path class="st62"
                      d="M116.37,21.89c0.66-0.57,1.55-3.71,0.89-5.04c-0.58-1.16-0.72-1.05-0.72-1.05l-0.54,5.11L116.37,21.89z"/>
                <path class="st62"
                      d="M113.84,18.19c0.59-0.66,1.08-4.01,0.34-5.1c-0.71-1.04-0.88-0.84-0.88-0.84l-0.23,4.55L113.84,18.19z"/>
                <path class="st62"
                      d="M110.99,15.55c0.55-0.7,0.84-4.08,0.04-5.11c-0.77-0.98-0.93-0.77-0.93-0.77l0.04,4.55L110.99,15.55z"/>
                <path class="st62"
                      d="M108.41,13.1c0.42-0.69,0.3-3.73-0.53-4.54c-0.79-0.77-0.91-0.56-0.91-0.56l0.55,4.04L108.41,13.1z"/>
                <path class="st62"
                      d="M105.77,11.73c0.39-0.7,0.16-3.69-0.68-4.46c-0.8-0.73-0.92-0.52-0.92-0.52l0.68,3.96L105.77,11.73z"/>
                <path class="st62"
                      d="M92.87,10.42c-0.47-0.76-3.44-2.54-4.66-1.82c-1.23,0.72-1.23,0.72-1.23,0.72l4.45,1.34L92.87,10.42z"/>
                <path class="st62"
                      d="M96.98,9.79c-0.28-0.87-2.75-3.4-4.1-3.04c-1.35,0.36-1.35,0.36-1.35,0.36l4,2.51L96.98,9.79z"/>
                <path class="st62"
                      d="M88.57,12.04c-0.57-0.68-3.51-1.4-4.68-0.57c-1.01,0.72-0.91,0.86-0.91,0.86l4.87,0.29L88.57,12.04z"/>
                <path class="st62"
                      d="M84.96,15.25c-0.65-0.59-3.97-0.87-4.97,0.18c-0.86,0.89-0.7,1.02-0.7,1.02l4.66-0.6L84.96,15.25z"/>
                <path class="st62"
                      d="M81.68,18.65c-0.77-0.39-3.74,0.16-4.53,1.41c-0.69,1.09-0.54,1.17-0.54,1.17l4.43-1.78L81.68,18.65z"/>
                <path class="st62"
                      d="M79.65,22.44c-0.8-0.28-3.63,0.6-4.19,1.82c-0.53,1.16-0.26,1.37-0.26,1.37l3.66-1.82L79.65,22.44z"/>
                <path class="st62"
                      d="M78.81,26.63c-0.82-0.22-3.72,1.02-4.2,2.27c-0.46,1.19-0.21,1.25-0.21,1.25l3.71-2.1L78.81,26.63z"/>
                <path class="st62"
                      d="M77.83,30.36c-0.75-0.09-3.19,1.4-3.48,2.57c-0.28,1.12-0.05,1.14-0.05,1.14l3.06-2.35L77.83,30.36z"/>
                <path class="st62"
                      d="M78.04,33.97c-0.74-0.06-3.09,1.51-3.34,2.68c-0.24,1.11-0.01,1.13-0.01,1.13l2.93-2.45L78.04,33.97z"/>
			</g>
            <path class="st38" d="M77.09,33.79c0-13.49,9.42-24.42,21.04-24.42s21.04,10.94,21.04,24.42c0,13.49-9.42,9.59-21.04,9.59
				S77.09,47.28,77.09,33.79z"/>
		</g>
            <linearGradient id="SVGID_2_" gradientUnits="userSpaceOnUse" x1="77.4776" y1="19.2413" x2="91.2276"
                            y2="27.4914">
			<stop offset="0" style="stop-color:#FFFFFF"/>
                <stop offset="1" style="stop-color:#A48A4E"/>
		</linearGradient>
            <path class="st36" d="M94.93,6.5L78.08,18.66c0,0-3.13,4.85-3.71,11.47c-0.3,3.39-0.11,7.39,1.87,11.13
			c2.42,4.58,17.88-0.27,18.53-2.19c0.66-1.91,3.68-22.81,3.42-24.86C97.93,12.17,94.93,6.5,94.93,6.5z"/>
            <path class="st38" d="M122.87,46.74c0,3.39-2.51,6.14-5.6,6.14H77.12c-3.09,0-5.6-2.75-5.6-6.14l0,0c0-3.39,2.51-6.14,5.6-6.14
			h40.15C120.36,40.6,122.87,43.35,122.87,46.74L122.87,46.74z"/>
            <path class="st20" d="M105.37,33.01c0.87,0.91,1.73,3.29,2.08,4.01c0.35,0.73,2.77,2.01,3.63,2.56c0.81,0.51-8.03,3.73-11.88,5.35
			c-0.36,0.65-0.86,0.95-1.51,0.66c-3.29-1.46-14.04-5.46-13.18-6c0.86-0.55,3.29-2.37,3.63-3.1c0.35-0.73,1.21-2.56,2.08-3.47
			c0,0,3.39,1.11,8.23,1C103.28,33.91,105.37,33.01,105.37,33.01z"/>
            <path class="st1" d="M86.4,38.56c0.68-0.37,12.47,4.67,14.58,4.29c0.65-0.12-0.14-1.95,1.52-2.41c1.66-0.46,2.67,1.59,3.92,1.54
			c1.07-0.05,3.9,0.42,5.49,1.46c0.57,0.37,0.83,0.85,0.94,1.31c0.04,0.2,0.57,0.71,0.71,0.99c0.11,0.13,0.21,0.27,0.28,0.43
			c0.15,0.33-0.13,1.14-0.45,0.87c-0.24-0.2-0.75-0.65-1.2-0.97c-2.2-0.97-5.91,0.12-7.27,0.17c-6,0.23-18.16-0.49-18.93-1.1
			C85.23,44.54,85.72,38.93,86.4,38.56z"/>
            <g>
			<path class="st11" d="M109.24,18.07c-0.64-1.07-3.59-2.18-6.43-4.14c-0.22-0.08,0.31-4.71,0.31-4.71L96.28,8.9
				c0,0-0.37,4.26-0.98,4.92c-1.91,1.64-6.3,2.84-7.07,4.12C89.79,20.56,107.66,20.68,109.24,18.07z"/>
                <linearGradient id="SVGID_3_" gradientUnits="userSpaceOnUse" x1="97.1103" y1="17.9004" x2="99.8733"
                                y2="2.0041">
				<stop offset="0.1209" style="stop-color:#FFFFFF"/>
                    <stop offset="0.6429" style="stop-color:#132C33"/>
			</linearGradient>
                <path style="opacity:0.82;fill:url(#SVGID_3_);" d="M96.13,9.89c0.33-1.11,4.11,4.04,7.04,2.54L98,21.15
				c-0.68-0.7-5.29-5.14-5.6-5.51C96.18,14.7,95.65,11.52,96.13,9.89z"/>
		</g>
            <g>
			<g>
				<g>
					<g>
						<path class="st11" d="M95.84,8.06c0.3,1.93,0.25,3.4,1.03,4.47c0.47,0.64,1.7,1.62,2.89,1.71c1.82,0.14,2.35-0.56,2.98-1.21
							c0.48-0.49,0.93-1.84,1.37-3.38c0.05-0.18,0.12-0.84,0.17-1.03c0.07-0.23,0.22-0.76,0.3-0.99c0.92-2.81,0-5.14-3.62-5.56
							C95.41,1.45,95.39,5.17,95.84,8.06z"/>
					</g>
				</g>
                <path class="st11" d="M96.21,6.88c-0.45-0.1-0.92-0.48-1.02,0.14c-0.1,0.62,0.26,2.45,0.74,2.56
					C96.76,9.76,96.21,6.88,96.21,6.88z"/>
                <path class="st11" d="M104.34,7.5c0.74-0.53,0.67,0,0.35,1.12c-0.26,0.9-1.01,2.09-1.15,1.8C103.39,10.13,104.34,7.5,104.34,7.5
					z"/>
                <g>
					<path class="st65" d="M102.78,5.06c2.31-0.22,2.31,1.17,1.88,2.31c0.47-0.07,0.22,0.03,0.22,0.03s0.18-0.09,0.65-1.61
						c0.52-1.7-0.81-5.94-3.66-4.87C99.41,1.85,102.78,5.06,102.78,5.06z"/>
                    <path class="st20" d="M103.44,4.8c-0.59,0.54-3.29,1.05-3.96,0.48c-1.13-0.97-2.24,0.55-2.38,0.99
						c-0.15,0.44-0.22,1.1-0.22,1.1l-0.72-0.94c0,0-0.7,0.03-1.11,0.65c-0.22,0.33-0.16-1.18-0.07-3.34
						c0.09-2.35,5.22-4.38,6.58-3.55c0.99,0.61,1.6,0.73,1.87,1.82C104.03,4.46,103.44,4.8,103.44,4.8z"/>
                    <path class="st65" d="M101.82,5.28c-1.42-0.01-0.57-0.42-2.34-0.84c-1.07-0.25-1.77,0.72-1.77,0.72s1.21-1.74,2.62-0.91
						c1.41,0.84,1.73,0.33,1.73,0.33s-2.59-1.4-3.73-0.35c0.54-0.89,1.97-1.4,3.18-0.6c0.27,0-1.16-0.8-1.42-0.68
						c0.41-0.51,2.72-0.81,3.35,0.37c0.63,1.18,0.13,1.33-0.26,1.53C102.78,5.04,101.82,5.28,101.82,5.28z"/>
				</g>
			</g>
                <g>
				<path class="st3" d="M100.98,7.92c0.11-0.33,0.76-0.38,1.06-0.05c0.02,0.22-0.06,0.32-0.06,0.32s-0.45-0.5-0.99-0.06
					C100.98,7.92,100.98,7.92,100.98,7.92z"/>
                    <g>
					<path class="st66" d="M101.96,7.84c0.02,0.72-0.07,1.69,0.6,1.96c0.68,0.27,2.07,0.51,2.39-1.01c0.17-0.89-0.01-0.76-0.87-0.95
						C103.22,7.66,101.96,7.84,101.96,7.84z"/>
                        <path class="st3" d="M101.96,7.84c0.25-0.15,2.06-0.55,3.14,0.3l-0.15,0.65l-0.26-0.08c0,0,0.13-0.42-0.22-0.63
						c-0.16-0.09-2.34-0.3-2.51,0.16L101.96,7.84z"/>
				</g>
                    <g>
					<path class="st66" d="M101.09,7.71c-0.16,0.7-0.26,1.68-1.06,1.81c-0.8,0.13-2.37,0.08-2.42-1.47
						c-0.01-0.91,0.15-0.75,1.14-0.76C99.75,7.28,101.09,7.71,101.09,7.71z"/>
                        <path class="st3" d="M101.09,7.71c-0.24-0.19-2.15-0.95-3.51-0.34l0.04,0.68l0.29-0.03c0,0-0.05-0.45,0.38-0.57
						c0.19-0.05,2.63,0.17,2.72,0.66L101.09,7.71z"/>
				</g>
			</g>
                <path class="st3" d="M97.75,8.06c-0.11-0.14-1.9-1.39-2.34-1.36c0.08-0.14,0.13-0.2,0.23-0.22c0.53-0.08,2.21,0.94,2.21,0.94
				L97.75,8.06z"/>
		</g>
            <g>
			<path class="st10" d="M93.38,48.53c-1.86-0.35-13.95-4.72-15.97-6.26c-2.03-1.54-1.19-6.58,0.55-8.03
				c1.74-1.45,12.2,1.53,15.55,3.85l5.4,5.78c0,0,0.09-1.43-0.86-1.3C97.1,42.71,93.38,48.53,93.38,48.53z"/>
                <path class="st18" d="M83.69,35.89c2.98,0.81,10.89,5.77,11.97,6.88c1.09,1.11-0.98,1.22-0.98,1.22s-7.14-4.88-8.23-5.68
				C85.34,37.51,83.69,35.89,83.69,35.89z"/>
		</g>
            <path class="st18" d="M77.96,34.25c-0.32,0.85-1.67,2.96,0.06,5.26c1.73,2.3,2.5,1.34,3.17,1.34c0.67,0,13.92,5.06,13.92,5.06
			l-1.73,2.62c0,0-13.25-4.42-14.69-5.38c-1.44-0.96-2.69-2.69-2.59-4.89C76.19,36.05,77.96,34.25,77.96,34.25z"/>
            <path class="st11" d="M108.1,38.7c-0.62-0.21-8.57,4.63-10.4,4.63c-0.56,0-0.04-1.03-1.5-1.17c-1.45-0.14-1.99,1.74-3.05,1.88
			c-0.9,0.12-2.99-0.03-4.17,1.08c-0.42,0.4-0.57,0.84-0.58,1.24c-0.01,0.18-0.37,0.68-0.45,0.94c-0.07,0.13-0.14,0.26-0.17,0.4
			c-0.07,0.3,0.28,0.93,0.5,0.66c0.17-0.21,0.53-0.66,0.86-0.99c1.69-1.15,6.02-0.81,7.18-0.81c4.47,0.01,11.77-3.26,12.33-3.88
			C109.21,42.06,108.73,38.9,108.1,38.7z"/>
            <path class="st10" d="M102.4,46.71c9.22-2.11,11.18-2.91,13.53-3.94c3.74-1.63,3.5-6.71,1-8.33c-1.91-1.24-13.88,2.66-17.17,5.12
			l-5.42,2.55l1.06,6.43L102.4,46.71z"/>
            <path class="st30" d="M108.9,16.93c0.33,0.14,0.97,0.87,1.31,1.56c0.35,0.69,3.46,7.48,4.47,8.17c1.73,1.17,0.14,5.18-0.35,5.53
			c-0.49,0.34-1.93-0.14-2.97-0.62c-1.04-0.48-4.21-4.35-4.63-6.08C106.33,23.75,108.9,16.93,108.9,16.93z"/>
            <path class="st30" d="M94.52,13.51c-2.49,0.83-4.36,1.58-6.22,2.69c0,0,0.95,11.05,0.67,13.26c-0.27,2.21-1.5,5.89-1.5,5.89
			s6.63,5.28,9.95,5.56c3.31,0.28,13.74-5.11,12.64-5.39c-1.11-0.28-3.25-3.21-2.69-5.97c0.55-2.76,0.55-5.25,0.55-5.25
			s0.69-5.41,1.59-6.91c0.21-0.9-5.63-3.04-5.63-3.04s-0.38,1.66-3.7,2.28C96.87,17.26,94.52,13.51,94.52,13.51z"/>
            <path class="st30" d="M89.75,24.34c0-1.04-0.77-8.45-0.77-8.45c-1.81-0.21-3.51,3.89-3.58,4.51c-0.07,0.62-2.56,7.18-2.63,8.56
			c-0.07,1.38,1.87,4.09,2.7,3.53c0.03-0.02,0.06-0.05,0.09-0.08c0.41,0.14,1.6,0.32,1.87,0.21c0.93-0.42,2.49-3.52,2.49-3.52
			s-1.11-0.54-1.9-0.81C88.92,26.64,89.75,24.88,89.75,24.34z"/>
            <path class="st67" d="M100.69,17.5c0,0.78,0.15,0.98,0.15,0.98s0.57,4.25,0.62,6.37l-2.12-0.05c0,0-0.47-6.75-0.67-7.06
			c-0.21-0.31-4.2-1.75-4.56-4.02c0.47-0.36,0.47-0.36,0.47-0.36s2.54,3.88,5.28,3.26c2.74-0.62,3.73-2.38,3.73-2.59
			c0-0.21,0.47,0.36,0.47,0.36s0.14,0.86-0.93,1.73C101.36,17.54,100.69,17.5,100.69,17.5z"/>
            <path class="st67" d="M109.24,17.24c0.69-0.05,0.96,1.61,1.52,2.44c0.55,0.83,3.18,5.87,3.73,6.28c0.55,0.41,0.76,0.9,0.55,1.1
			c-0.21,0.21-0.14-0.76-1.93-0.27c-1.79,0.48-0.48-1.11,0.14-1.11c0.62,0-1.3-0.01-2.07,0.55c-0.77,0.56,0.69-1.31,0.69-1.66
			c0-0.34-1.45-3.04-2.07-3.38c-0.62-0.34-0.69-1.45-0.76-2.28C108.96,18.09,109.24,17.24,109.24,17.24z"/>
            <path class="st67" d="M89.62,18.09c0.35,0.76,0.6,4.57,0.13,6.25c-0.47,1.69-1.03,4.24-1.3,4.31c-0.28,0.07-2.69-1.11-3.8-0.28
			c-1.11,0.83,0.48-1.04,2-1.04c-0.35-0.48-1.31-0.42-1.31-0.42s0.21-0.35,1.52-1.11c1.31-0.76,2.31-2.45,2.38-5.21
			c0.07-2.76-0.14-4.11-0.14-4.11L89.62,18.09z"/>
            <g>
			<path class="st55" d="M112.21,25.33c-0.51-0.16-1.33-0.43-1.58-0.78c-0.25-0.34-0.57-0.45-0.5-0.16c0.07,0.29,0.45,1.4,1.02,1.46
				C111.73,25.91,112.21,25.33,112.21,25.33z"/>
                <path class="st55" d="M111.44,25.27c-0.37,0.15-0.88,0.54-1.25,0.82c-0.37,0.28-1.13,1.14-0.98,1.36
				c0.15,0.22,0.76-0.26,1.37-0.66c0.31-0.2,0.57-0.24,0.8-0.39c0,0-0.47,0.26-1,0.62c-0.44,0.3-1.25,0.82-0.97,1.23
				c0.2,0.3,0.97-0.4,1.33-0.52c0.61-0.21,1.09-0.36,1.09-0.36s-0.29,0.19-0.85,0.54c-0.62,0.39-1.1,0.33-1,0.55
				c0.2,0.46,0.68,0.32,1.4,0.14c0.6-0.15,1-0.41,1-0.41s-0.28,0.16-0.7,0.38c-0.41,0.22-0.85,0.15-0.73,0.44
				c0.09,0.22,0.67,0.26,0.98,0.2c0.45-0.08,0.85-0.17,1.27-0.35c0.45-0.2,0.62-1.42,0.2-2.38
				C112.69,24.89,111.44,25.27,111.44,25.27z"/>
		</g>
            <path class="st18" d="M94.63,44.6c1.44-2.59,16.69-7.56,17.75-7.66c1.06-0.09,3.74-1.12,2.69-1.31c-1.06-0.19-3.44,0.88-3.44,0.88
			s3.11-1.13,2.25-1.13c-0.86,0-5.38,1.69-5.38,1.69c-2.69,0.48-14.38,4.75-14.38,4.75L94.63,44.6z"/>
            <g>
			<polygon class="st38" points="89.47,32.32 89.26,31.69 97.38,31.66 97.55,32.21 			"/>
                <polygon class="st37" points="98.55,31.59 105.79,31.62 105.39,32.07 98.48,32.14 			"/>
                <path class="st37" d="M97.39,31.65c0.16,0.21,0.59,0.39,1.13-0.01c0.31-0.23,0.08,0.48,0.08,0.48s-0.67,0.13-1.11,0.08
				C97.04,32.15,97.39,31.65,97.39,31.65z"/>
                <path class="st10" d="M98.34,31.35l6.15-2.52l0.07,0.28l-2.73,0.97l3.35-1v0.21l-4.56,1.52l5.01-0.66c0,0,0.17,1.24-0.1,1.49
				c-1.45,0.03-7.32,0-7.32,0L98.34,31.35z"/>
                <path class="st10" d="M97.93,31.31c0,0-3.3-2.85-5.75-3.37c-0.05,0.05-0.02,0.03-0.08,0.08c-0.04,0.04,0,0.12-0.04,0.15
				c-0.5,0.43-1.09,0.9-1.09,0.9l6.65,2.32L97.93,31.31z"/>
                <path class="st10" d="M89.65,29.57l8.26,1.79l-0.13,0.36l-8.29,0.02v-0.26l1.17-0.1l-1.19-0.03l0.05-0.26h1.09l-1.06-0.42
				l0.03-0.36c0,0,2.15,0.29,2.82,0.44c-0.75-0.29-2.8-0.78-2.8-0.78L89.65,29.57z"/>
                <polygon class="st65" points="105.18,29.28 103.71,30.37 99.36,31.19 			"/>
                <path class="st65" d="M92.1,28.03c0.16,0,4.68,2.44,5.59,3.23c-0.53-0.28-5.48-3.16-5.61-3.09C92.04,28.19,92.1,28.03,92.1,28.03
				z"/>
                <path class="st65" d="M97.46,31.25c-0.27-0.1-5.85-2.2-6.75-2.47l0.7,1.17L97.46,31.25z"/>
                <path class="st10" d="M97.37,31.69c0.54,0.5,1.23-0.05,1.23-0.05s0.05-0.57-0.23-0.32c-0.52,0.45-0.49,0.04-0.45-0.08
				L97.37,31.69z"/>
		</g>
            <path class="st55" d="M90.79,27.51c0.3,0.31,0.64,0.93,0.88,1.38c0.24,0.44,0.62,1.65,0.37,1.8c-0.25,0.16-0.63-0.6-1.07-1.27
			c-0.22-0.34-0.46-0.5-0.62-0.75c0,0,0.35,0.47,0.72,1.07c0.31,0.5,0.88,1.38,0.42,1.66c-0.34,0.21-0.79-0.83-1.09-1.11
			c-0.51-0.49-0.92-0.85-0.92-0.85s0.2,0.31,0.6,0.92c0.44,0.67,0.96,0.82,0.75,1c-0.41,0.37-0.83,0.01-1.46-0.49
			c-0.53-0.42-0.82-0.86-0.82-0.86s0.21,0.28,0.53,0.69c0.31,0.4,0.78,0.53,0.53,0.77c-0.19,0.17-0.79-0.04-1.07-0.24
			c-0.41-0.28-0.78-0.55-1.11-0.92c-0.36-0.4,0.02-1.69,0.86-2.47C89.71,26.56,90.79,27.51,90.79,27.51z"/>
            <g>
			<g>
				<path class="st8" d="M88.8,37.83c0.04,0.11,0.29,0.2,0.78,0.2l16.26,0c0.28,0,0.64-0.09,0.7-0.2l1.1-0.67
					c0.07-0.12-0.16-0.28-0.67-0.28h-18.5c-0.51,0-0.98,0.14-0.93,0.26L88.8,37.83z"/>
			</g>
                <g>
				<rect x="90.1" y="33.61" class="st8" width="1.37" height="20.14"/>
                    <rect x="104.12" y="33.82" class="st8" width="1.43" height="20.14"/>
			</g>
                <g>
				<g>
					<path class="st8" d="M112.99,33.16c0.39-0.33,0.27-0.91-0.24-0.91l-29.49,0.17c-0.51,0-0.59,0.24-0.2,0.66l1.99,2.68
						c0.22,0.33,0.53,0.52,1.05,0.52h24.02c0.51,0,0.51-0.27,0.9-0.6L112.99,33.16z"/>
				</g>
                    <path class="st7" d="M82.79,32.58c0,0.09,0.08,0.17,0.17,0.17h30.12c0.09,0,0.17-0.08,0.17-0.17v-0.34
					c0-0.09-0.07-0.17-0.17-0.17H82.96c-0.09,0-0.17,0.08-0.17,0.17V32.58z"/>
			</g>
                <g>
				<path class="st9" d="M87.44,36.89c0,0.39,0.42,0.29,0.92,0.29h18.5c0.51,0,0.92,0.1,0.92-0.29v-2.45c0-0.39-0.41-0.71-0.92-0.71
					h-18.5c-0.5,0-0.92,0.32-0.92,0.71V36.89z"/>
			</g>
		</g>
	</g>
</g>
</svg>
