<?xml version="1.0" encoding="utf-8"?>
<!-- Generator: Adobe Illustrator 24.1.3, SVG Export Plug-In . SVG Version: 6.00 Build 0)  -->
<svg version="1.1" id="Layer_1" xmlns="http://www.w3.org/2000/svg" xmlns:xlink="http://www.w3.org/1999/xlink" x="0px"
     y="0px"
     viewBox="0 0 88.93 87.31" style="enable-background:new 0 0 88.93 87.31;" xml:space="preserve">
<style type="text/css">
	.st0{opacity:0.2;}
	.st1{opacity:0.1;fill:#FFFFFF;}
	.st2{opacity:0.25;fill:#FFFFFF;}
	.st3{opacity:0.4;fill:#FFFFFF;}
	.st4{opacity:0.55;fill:#FFFFFF;}
	.st5{opacity:0.7;fill:#FFFFFF;}
	.st6{opacity:0.85;fill:#FFFFFF;}
	.st7{fill:#FFFFFF;}
	.st8{opacity:0.8;}
	.st9{opacity:0;fill:#FFFFFF;}
	.st10{opacity:0.05;fill:#FFFFFF;}
	.st11{opacity:0.15;fill:#FFFFFF;}
	.st12{opacity:0.2;fill:#FFFFFF;}
	.st13{opacity:0.3;fill:#FFFFFF;}
	.st14{opacity:0.1;}
	.st15{fill:#132C33;}
	.st16{fill:#825F0C;}
	.st17{fill:#CF9508;}
	.st18{fill:#D8E3E7;}
	.st19{enable-background:new    ;}
	.st20{opacity:0.8333;}
	.st21{opacity:0.6667;}
	.st22{opacity:0.5;}
	.st23{opacity:0.3333;}
	.st24{opacity:0.1667;}
	.st25{opacity:0;}
	.st26{opacity:0.8;fill:#FFFFFF;}
	.st27{opacity:0.6667;fill:#FFFFFF;}
	.st28{opacity:0.5333;fill:#FFFFFF;}
	.st29{opacity:0.2667;fill:#FFFFFF;}
	.st30{opacity:0.1333;fill:#FFFFFF;}
	.st31{clip-path:url(#SVGID_2_);enable-background:new    ;}
	.st32{fill:#51C4D3;}
	.st33{opacity:0.1;fill:#132C33;}
	.st34{clip-path:url(#SVGID_4_);}
	.st35{fill:#126E82;}
	.st36{opacity:0.3;fill:#D8E3E7;}
	.st37{clip-path:url(#SVGID_6_);enable-background:new    ;}
	.st38{clip-path:url(#SVGID_8_);enable-background:new    ;}
	.st39{clip-path:url(#SVGID_10_);enable-background:new    ;}
	.st40{clip-path:url(#SVGID_12_);enable-background:new    ;}
	.st41{opacity:0.2;fill:#132C33;}
	.st42{clip-path:url(#SVGID_14_);}
	.st43{opacity:0.6;fill:#FFFFFF;}
	.st44{opacity:0.7333;fill:#FFFFFF;}
	.st45{opacity:0.8667;fill:#FFFFFF;}
	.st46{opacity:0.9333;fill:#FFFFFF;}
	.st47{opacity:0.7;fill:#51C4D3;}
	.st48{opacity:0.4;fill:#51C4D3;}
	.st49{opacity:0.5;fill:#51C4D3;}
	.st50{opacity:0.3;fill:#51C4D3;}
	.st51{opacity:0.7;}
	.st52{opacity:0.8833;fill:#FFFFFF;}
	.st53{opacity:0.7667;fill:#FFFFFF;}
	.st54{opacity:0.65;fill:#FFFFFF;}
	.st55{opacity:0.4167;fill:#FFFFFF;}
	.st56{clip-path:url(#SVGID_16_);enable-background:new    ;}
	.st57{clip-path:url(#SVGID_18_);enable-background:new    ;}
	.st58{clip-path:url(#SVGID_20_);enable-background:new    ;}
	.st59{clip-path:url(#SVGID_22_);enable-background:new    ;}
	.st60{clip-path:url(#SVGID_24_);enable-background:new    ;}
	.st61{opacity:0.3;}
	.st62{opacity:0.4;}
	.st63{clip-path:url(#SVGID_26_);enable-background:new    ;}
	.st64{clip-path:url(#SVGID_28_);enable-background:new    ;}
	.st65{clip-path:url(#SVGID_30_);enable-background:new    ;}
</style>
    <g>
	<g class="st14">
		<polygon class="st15" points="5.38,74.46 26.34,87.31 88.78,48.21 68.9,36.66 		"/>
	</g>
        <g>
		<path class="st18" d="M86.66,21.65c0.03-0.25,0.05-0.5,0.07-0.75c0.01-0.11,0.03-0.23,0.03-0.35c0.03-0.38,0.04-0.75,0.04-1.12
			c-0.01-3.64-1.32-6.22-3.42-7.44L72.85,5.86c2.1,1.22,3.41,3.8,3.42,7.44c0,0.37-0.01,0.75-0.04,1.13
			c-0.01,0.09-0.02,0.19-0.03,0.29c-0.02,0.28-0.05,0.57-0.09,0.85c-0.06,0.48-0.15,0.97-0.25,1.46c-0.03,0.17-0.07,0.34-0.11,0.5
			c-0.06,0.25-0.12,0.49-0.18,0.74c-0.05,0.2-0.11,0.39-0.17,0.59c-0.06,0.19-0.12,0.38-0.18,0.57c-0.07,0.22-0.15,0.45-0.23,0.67
			c-0.06,0.16-0.11,0.32-0.17,0.47c-0.09,0.25-0.19,0.5-0.3,0.75c-0.05,0.13-0.1,0.25-0.15,0.37c-0.15,0.34-0.3,0.68-0.46,1.02
			c-0.01,0.03-0.03,0.06-0.04,0.09c-0.18,0.37-0.37,0.74-0.56,1.11c-0.05,0.1-0.11,0.2-0.17,0.3C73,24.48,72.85,24.74,72.7,25
			c-0.08,0.14-0.16,0.27-0.25,0.4c-0.14,0.22-0.28,0.44-0.42,0.66c-0.1,0.15-0.2,0.3-0.31,0.46c-0.13,0.19-0.27,0.38-0.4,0.57
			c-0.13,0.18-0.26,0.35-0.39,0.53c-0.13,0.17-0.26,0.33-0.39,0.5c-0.18,0.22-0.36,0.44-0.54,0.66c-0.11,0.13-0.22,0.26-0.33,0.39
			c-0.38,0.43-0.76,0.84-1.16,1.24c-0.29,0.29-0.58,0.57-0.88,0.84l10.54,6.13c0.29-0.26,0.57-0.52,0.85-0.8
			c0.01-0.01,0.02-0.03,0.04-0.04c0.4-0.39,0.78-0.81,1.16-1.23c0.04-0.04,0.08-0.08,0.12-0.12c0.08-0.09,0.16-0.19,0.23-0.29
			c0.18-0.21,0.36-0.43,0.53-0.65c0.06-0.08,0.12-0.14,0.18-0.22c0.07-0.1,0.14-0.19,0.21-0.29c0.13-0.17,0.26-0.34,0.38-0.52
			c0.06-0.09,0.13-0.17,0.19-0.26c0.07-0.11,0.14-0.21,0.22-0.32c0.1-0.15,0.21-0.31,0.31-0.47c0.05-0.08,0.11-0.15,0.16-0.23
			c0.08-0.13,0.16-0.27,0.25-0.4c0.09-0.14,0.17-0.28,0.26-0.42c0.03-0.06,0.07-0.11,0.1-0.17c0.11-0.19,0.21-0.38,0.32-0.57
			c0.06-0.12,0.13-0.23,0.19-0.35c0.01-0.02,0.03-0.05,0.04-0.07c0.17-0.33,0.34-0.66,0.5-0.99c0-0.01,0.01-0.01,0.01-0.02
			c0.03-0.07,0.06-0.13,0.09-0.2c0.13-0.26,0.25-0.53,0.36-0.8c0.02-0.04,0.03-0.08,0.05-0.12c0.06-0.14,0.12-0.29,0.18-0.43
			c0.07-0.17,0.14-0.33,0.21-0.5c0.03-0.07,0.05-0.13,0.07-0.2c0.06-0.17,0.12-0.34,0.18-0.51c0.05-0.13,0.1-0.26,0.14-0.4
			c0.03-0.08,0.05-0.16,0.08-0.25c0.06-0.19,0.12-0.39,0.18-0.58c0.04-0.12,0.08-0.24,0.11-0.37c0.02-0.08,0.04-0.16,0.06-0.24
			c0.06-0.24,0.12-0.48,0.18-0.72c0.03-0.12,0.06-0.25,0.09-0.37c0.01-0.05,0.02-0.1,0.03-0.15c0.1-0.49,0.19-0.98,0.25-1.46
			C86.66,21.68,86.66,21.66,86.66,21.65z"/>
            <path class="st32" d="M77.47,9.22c0.34-0.13,0.68-0.24,1.01-0.34c0.03-0.01,0.07-0.02,0.1-0.03c0.16-0.04,0.31-0.07,0.47-0.1
			c0.25-0.06,0.5-0.12,0.74-0.16c0.37-0.06,0.73-0.09,1.08-0.11c0.06,0,0.13,0,0.19,0c0.28-0.01,0.56,0,0.83,0.02
			c0.1,0.01,0.2,0.02,0.3,0.04c0.22,0.03,0.45,0.06,0.66,0.11c0.1,0.02,0.2,0.04,0.3,0.07c0.23,0.06,0.45,0.13,0.66,0.21
			c0.07,0.03,0.15,0.05,0.22,0.08c0.29,0.12,0.58,0.25,0.85,0.41c-3.51-2.04-7.03-4.08-10.54-6.13c-0.03-0.01-0.05-0.03-0.08-0.04
			C74.04,3.11,73.81,3,73.57,2.9c-0.02-0.01-0.05-0.01-0.07-0.02c-0.07-0.03-0.15-0.05-0.22-0.08c-0.15-0.05-0.29-0.11-0.45-0.16
			c-0.07-0.02-0.15-0.03-0.22-0.05c-0.1-0.03-0.2-0.05-0.3-0.07c-0.09-0.02-0.17-0.05-0.26-0.06c-0.13-0.02-0.27-0.03-0.41-0.05
			c-0.1-0.01-0.2-0.03-0.3-0.04c-0.04,0-0.08-0.01-0.13-0.02c-0.24-0.01-0.49-0.01-0.74-0.01c-0.05,0-0.1,0-0.15,0
			c-0.01,0-0.02,0-0.03,0c-0.33,0.01-0.68,0.05-1.03,0.1c-0.01,0-0.02,0.01-0.04,0.01c-0.23,0.04-0.47,0.1-0.71,0.15
			c-0.16,0.04-0.31,0.06-0.47,0.1c-0.01,0-0.02,0-0.03,0.01C68,2.73,67.97,2.74,67.94,2.75c-0.34,0.09-0.68,0.21-1.02,0.34
			c-0.08,0.03-0.16,0.06-0.24,0.09c-0.06,0.02-0.13,0.04-0.19,0.07c-0.33,0.14-0.65,0.28-0.98,0.45l10.54,6.13
			c0.39-0.2,0.78-0.37,1.17-0.52C77.3,9.28,77.38,9.25,77.47,9.22z"/>
            <path class="st16" d="M74.44,12.49c-0.69-1.2-1.58-2.1-2.63-2.71C68.3,7.74,64.79,5.7,61.27,3.66c1.05,0.61,1.94,1.51,2.63,2.71
			l0.29,0.5l10.54,6.13L74.44,12.49z"/>
            <g>
			<polygon class="st16" points="59.48,12.43 48.94,6.3 48.56,6.02 59.1,12.14 			"/>
		</g>
            <path class="st32" d="M63.22,7.65c0.28-0.14,0.57-0.27,0.85-0.39c0.06-0.03,0.13-0.06,0.19-0.08c0.3-0.12,0.59-0.23,0.89-0.34
			c0.03-0.01,0.06-0.02,0.09-0.03c0.26-0.09,0.52-0.17,0.78-0.24c0.13-0.03,0.26-0.07,0.38-0.1c0.11-0.03,0.22-0.06,0.33-0.08
			c0.14-0.03,0.29-0.06,0.43-0.08c0.1-0.02,0.2-0.04,0.3-0.05c0.05-0.01,0.09-0.01,0.14-0.02c0.33-0.05,0.66-0.08,0.98-0.1
			c0.06,0,0.12-0.01,0.18-0.01c0.31-0.01,0.62-0.01,0.92,0.01c0.07,0,0.13,0.01,0.2,0.02c0.23,0.02,0.46,0.05,0.68,0.08
			c0.07,0.01,0.14,0.02,0.22,0.03c0.27,0.05,0.53,0.11,0.79,0.18c0.04,0.01,0.08,0.02,0.11,0.04c0.22,0.07,0.43,0.14,0.64,0.23
			c0.08,0.03,0.15,0.06,0.22,0.09c0.19,0.08,0.37,0.17,0.55,0.27c0.07,0.04,0.14,0.07,0.21,0.11c-3.51-2.04-7.03-4.08-10.54-6.13
			c-0.03-0.02-0.06-0.03-0.09-0.05c-0.03-0.02-0.07-0.03-0.1-0.05C62.4,0.86,62.2,0.77,62,0.68c-0.04-0.02-0.07-0.04-0.11-0.05
			c-0.03-0.01-0.07-0.02-0.11-0.04c-0.2-0.08-0.41-0.16-0.63-0.22c-0.03-0.01-0.07-0.03-0.1-0.04c-0.01,0-0.02,0-0.03-0.01
			c-0.26-0.07-0.52-0.13-0.79-0.18c-0.02-0.01-0.05-0.01-0.07-0.02c-0.04-0.01-0.09-0.01-0.14-0.02c-0.22-0.03-0.45-0.06-0.68-0.08
			c-0.05,0-0.09-0.01-0.14-0.02c-0.02,0-0.05,0-0.08,0c-0.3-0.02-0.6-0.02-0.91-0.01c-0.02,0-0.04,0-0.06,0
			c-0.04,0-0.08,0.01-0.11,0.01c-0.33,0.02-0.66,0.05-0.99,0.1c-0.03,0-0.06,0-0.09,0.01c-0.02,0-0.03,0.01-0.05,0.01
			c-0.1,0.02-0.2,0.04-0.31,0.06c-0.14,0.03-0.28,0.05-0.42,0.08c-0.1,0.02-0.2,0.05-0.3,0.07c-0.11,0.03-0.22,0.05-0.33,0.08
			c-0.03,0.01-0.06,0.02-0.09,0.03c-0.24,0.07-0.48,0.14-0.73,0.22c-0.04,0.01-0.09,0.03-0.13,0.04c-0.29,0.1-0.59,0.21-0.89,0.34
			c-0.02,0.01-0.03,0.01-0.05,0.02c-0.04,0.02-0.09,0.04-0.13,0.06c-0.28,0.12-0.56,0.25-0.85,0.39c-0.09,0.04-0.18,0.09-0.27,0.13
			c-0.34,0.17-0.68,0.35-1.03,0.55c-0.52,0.3-1.05,0.64-1.59,1.01l10.54,6.13c0.54-0.37,1.07-0.71,1.59-1.01
			c0.35-0.2,0.69-0.38,1.04-0.56C63.04,7.74,63.13,7.7,63.22,7.65z"/>
            <g class="st19">
			<defs>
				<path id="SVGID_25_" class="st19" d="M47.73,5.47c3.51,2.04,7.03,4.09,10.54,6.13c0.29,0.17,0.56,0.35,0.82,0.55L48.56,6.02
					C48.29,5.82,48.02,5.63,47.73,5.47z"/>
			</defs>
                <clipPath id="SVGID_2_">
				<use xlink:href="#SVGID_25_" style="overflow:visible;"/>
			</clipPath>
                <g class="st31">
				<path class="st16" d="M59.1,12.14L48.56,6.02c-0.26-0.2-0.54-0.38-0.82-0.55l10.54,6.13C58.56,11.76,58.84,11.94,59.1,12.14
					L59.1,12.14z"/>
			</g>
		</g>
            <path class="st18" d="M67.63,31.25c-0.29,0.29-0.59,0.59-0.9,0.88c-0.21,0.2-0.41,0.4-0.63,0.6c-0.21,0.2-0.43,0.4-0.65,0.59
			c-0.22,0.2-0.44,0.4-0.66,0.59c-0.23,0.2-0.46,0.4-0.7,0.6c-0.23,0.19-0.46,0.39-0.7,0.58c-0.25,0.2-0.5,0.41-0.75,0.61
			c-0.24,0.19-0.48,0.38-0.72,0.57c-0.26,0.21-0.53,0.41-0.79,0.61c-0.25,0.19-0.5,0.38-0.75,0.57c-0.28,0.21-0.56,0.41-0.84,0.62
			c-0.25,0.18-0.5,0.37-0.76,0.56c-0.29,0.21-0.58,0.42-0.88,0.62c-0.26,0.18-0.51,0.36-0.77,0.54c-0.3,0.21-0.61,0.42-0.92,0.63
			c-0.26,0.18-0.52,0.36-0.78,0.53c-0.32,0.21-0.64,0.42-0.96,0.63c-0.26,0.17-0.52,0.34-0.78,0.51c-0.33,0.22-0.67,0.43-1,0.65
			c-0.25,0.16-0.51,0.33-0.76,0.49c-0.35,0.22-0.69,0.44-1.04,0.66c-0.25,0.16-0.5,0.31-0.75,0.47c-0.36,0.23-0.72,0.45-1.09,0.67
			c-0.24,0.14-0.48,0.29-0.71,0.44c-0.38,0.23-0.77,0.47-1.16,0.7c-0.22,0.13-0.44,0.26-0.65,0.39c-0.41,0.24-0.81,0.48-1.21,0.72
			c-0.2,0.12-0.4,0.24-0.6,0.35c-0.45,0.26-0.9,0.53-1.35,0.79c-0.15,0.09-0.3,0.17-0.45,0.26c-0.6,0.35-1.19,0.69-1.79,1.04
			c-0.49,0.28-0.97,0.56-1.44,0.83c-0.17,0.1-0.34,0.2-0.51,0.29c-0.29,0.17-0.58,0.34-0.87,0.5c-0.21,0.12-0.42,0.24-0.63,0.36
			c-0.25,0.14-0.5,0.29-0.75,0.43c-0.2,0.12-0.4,0.23-0.6,0.35c-0.25,0.14-0.49,0.28-0.73,0.42c-0.2,0.11-0.39,0.22-0.58,0.33
			c-0.23,0.13-0.47,0.27-0.7,0.4c-0.19,0.11-0.38,0.21-0.57,0.32c-0.23,0.13-0.45,0.26-0.68,0.38c-0.19,0.11-0.38,0.21-0.57,0.32
			c-0.21,0.12-0.42,0.24-0.63,0.35c-0.19,0.1-0.37,0.21-0.56,0.31c-0.21,0.12-0.42,0.23-0.63,0.35c-0.18,0.1-0.36,0.2-0.54,0.29
			c-0.21,0.11-0.41,0.22-0.61,0.33c-0.17,0.09-0.34,0.18-0.51,0.28c-0.21,0.11-0.42,0.22-0.62,0.33c-0.16,0.08-0.32,0.17-0.47,0.25
			c-0.22,0.12-0.44,0.23-0.66,0.34c-0.14,0.07-0.27,0.14-0.41,0.21c-0.31,0.16-0.61,0.31-0.92,0.46c-0.04,0.02-0.08,0.04-0.12,0.06
			c-0.34,0.17-0.67,0.33-1,0.49c-0.11,0.05-0.21,0.1-0.31,0.15c-0.23,0.11-0.45,0.21-0.68,0.32c-0.12,0.06-0.24,0.11-0.36,0.16
			c-0.2,0.09-0.41,0.18-0.61,0.27c-0.12,0.05-0.25,0.11-0.37,0.16c-0.2,0.08-0.39,0.17-0.58,0.25c-0.1,0.04-0.2,0.08-0.3,0.12
			c-0.29,0.12-0.58,0.24-0.87,0.35c-0.09,0.04-0.18,0.07-0.27,0.11c-0.36,0.14-0.72,0.27-1.07,0.39c-0.05,0.02-0.09,0.03-0.14,0.05
			c-0.31,0.11-0.61,0.21-0.92,0.3c-0.1,0.03-0.2,0.06-0.3,0.09c-0.28,0.09-0.56,0.17-0.84,0.24c-0.07,0.02-0.13,0.04-0.2,0.06
			c-0.47,0.13-0.94,0.24-1.4,0.34c-0.06,0.01-0.12,0.03-0.18,0.04c-0.45,0.1-0.9,0.18-1.35,0.25c-0.08,0.01-0.15,0.02-0.23,0.04
			c-0.39,0.06-0.78,0.11-1.17,0.15c-0.07,0.01-0.14,0.01-0.21,0.02c-0.38,0.04-0.77,0.06-1.16,0.08c-0.03,0-0.06,0-0.08,0
			c-0.56,0.02-1.12,0.03-1.68,0.02c-0.27,0.02-0.54,0.01-0.8-0.01c-0.06-0.01-0.12-0.01-0.19-0.02c-0.19-0.02-0.38-0.05-0.56-0.09
			c-0.07-0.02-0.15-0.03-0.22-0.05c-0.2-0.05-0.39-0.11-0.58-0.19c-0.04-0.02-0.09-0.03-0.13-0.05c-0.24-0.1-0.48-0.22-0.71-0.35
			c3.52,2.04,7.03,4.08,10.54,6.13c0.02,0.01,0.04,0.03,0.06,0.04c0.2,0.11,0.4,0.21,0.61,0.3c0.01,0.01,0.03,0.01,0.04,0.01
			c0.05,0.02,0.1,0.03,0.14,0.05c0.14,0.05,0.27,0.1,0.42,0.15c0.05,0.01,0.1,0.02,0.15,0.04c0.07,0.02,0.14,0.03,0.22,0.05
			c0.08,0.02,0.15,0.04,0.23,0.05c0.11,0.02,0.23,0.03,0.34,0.04c0.06,0.01,0.12,0.02,0.18,0.02c0.02,0,0.05,0.01,0.07,0.01
			c0.2,0.01,0.41,0.02,0.62,0.01c0.03,0,0.07,0,0.1-0.01c0.57,0.01,1.13,0.01,1.69-0.02c0.01,0,0.01,0,0.02,0c0.02,0,0.04,0,0.06,0
			c0.39-0.02,0.78-0.04,1.16-0.08c0.07,0,0.14-0.01,0.21-0.02c0.39-0.04,0.78-0.09,1.17-0.15c0.03,0,0.07-0.01,0.1-0.01
			c0.04-0.01,0.08-0.02,0.12-0.02c0.45-0.07,0.91-0.15,1.37-0.25c0.05-0.01,0.1-0.02,0.16-0.04c0.47-0.1,0.95-0.22,1.42-0.34
			c0.01,0,0.02,0,0.03-0.01c0.04-0.01,0.09-0.03,0.13-0.04c0.29-0.08,0.59-0.17,0.89-0.26c0.09-0.03,0.18-0.05,0.26-0.08
			c0.32-0.1,0.65-0.21,0.98-0.32c0.03-0.01,0.06-0.02,0.09-0.03c0.36-0.13,0.73-0.26,1.1-0.4c0.08-0.03,0.16-0.06,0.24-0.09
			c0.3-0.12,0.61-0.24,0.91-0.36c0.05-0.02,0.1-0.04,0.15-0.06c0.04-0.02,0.08-0.03,0.11-0.05c0.21-0.09,0.42-0.18,0.63-0.27
			c0.11-0.05,0.22-0.09,0.33-0.14c0.22-0.1,0.44-0.2,0.67-0.3c0.1-0.04,0.2-0.09,0.3-0.13c0.25-0.12,0.51-0.24,0.76-0.36
			c0.08-0.04,0.15-0.07,0.23-0.11c0.67-0.32,1.36-0.66,2.06-1.02c0.11-0.06,0.22-0.12,0.33-0.17c0.24-0.12,0.48-0.25,0.73-0.38
			c0.14-0.08,0.29-0.15,0.44-0.23c0.22-0.11,0.43-0.23,0.65-0.34c0.16-0.09,0.33-0.18,0.49-0.26c0.21-0.11,0.42-0.23,0.63-0.34
			c0.17-0.09,0.35-0.19,0.53-0.29c0.21-0.12,0.42-0.23,0.63-0.35c0.18-0.1,0.37-0.2,0.55-0.31c0.21-0.12,0.43-0.23,0.64-0.35
			c0.19-0.11,0.38-0.21,0.57-0.32c0.22-0.12,0.44-0.25,0.67-0.38c0.19-0.11,0.38-0.22,0.57-0.33c0.23-0.13,0.46-0.26,0.7-0.4
			c0.2-0.11,0.39-0.22,0.59-0.34c0.24-0.13,0.48-0.28,0.73-0.41c0.2-0.11,0.39-0.23,0.59-0.34c0.27-0.15,0.54-0.31,0.81-0.47
			c0.18-0.11,0.37-0.21,0.56-0.32c0.28-0.16,0.57-0.33,0.86-0.49c0.19-0.11,0.38-0.22,0.57-0.33c0.46-0.27,0.93-0.54,1.41-0.81
			c0.59-0.34,1.19-0.69,1.79-1.03c0.14-0.08,0.27-0.16,0.41-0.24c0.46-0.27,0.93-0.54,1.39-0.82c0.17-0.1,0.35-0.21,0.52-0.31
			c0.43-0.25,0.86-0.51,1.29-0.77c0.2-0.12,0.4-0.24,0.6-0.36c0.4-0.24,0.8-0.48,1.2-0.73c0.23-0.14,0.45-0.28,0.67-0.42
			c0.38-0.23,0.75-0.46,1.13-0.69c0.24-0.15,0.47-0.29,0.71-0.44c0.36-0.23,0.73-0.45,1.09-0.68c0.24-0.15,0.47-0.3,0.71-0.46
			c0.35-0.23,0.7-0.45,1.05-0.68c0.25-0.16,0.49-0.32,0.73-0.48c0.34-0.22,0.67-0.45,1.01-0.67c0.24-0.16,0.49-0.33,0.73-0.49
			c0.33-0.22,0.65-0.44,0.97-0.67c0.24-0.17,0.48-0.34,0.72-0.51c0.31-0.22,0.62-0.44,0.93-0.66c0.24-0.17,0.48-0.35,0.72-0.52
			c0.3-0.22,0.59-0.43,0.88-0.65c0.24-0.18,0.47-0.36,0.7-0.53c0.28-0.21,0.56-0.43,0.84-0.64c0.23-0.18,0.46-0.36,0.69-0.54
			c0.27-0.21,0.53-0.43,0.79-0.64c0.22-0.18,0.44-0.37,0.66-0.55c0.25-0.21,0.5-0.42,0.74-0.64c0.21-0.19,0.42-0.37,0.63-0.56
			c0.23-0.21,0.46-0.42,0.69-0.63c0.2-0.19,0.4-0.38,0.59-0.56c0.12-0.11,0.24-0.23,0.36-0.34c0.19-0.19,0.38-0.38,0.56-0.57
			L67.63,31.25z"/>
            <path class="st18" d="M29.92,30.23c0.11-0.27,0.22-0.55,0.33-0.82c0.14-0.32,0.28-0.63,0.42-0.95c0.11-0.25,0.22-0.5,0.34-0.75
			c0.16-0.33,0.33-0.66,0.49-0.99c0.11-0.22,0.22-0.45,0.34-0.67c0.18-0.34,0.37-0.68,0.56-1.02c0.11-0.2,0.22-0.41,0.34-0.61
			c0.18-0.31,0.36-0.6,0.55-0.91c0.15-0.24,0.29-0.48,0.44-0.71c0.14-0.22,0.29-0.43,0.43-0.65c0.21-0.32,0.42-0.64,0.64-0.95
			c0.12-0.17,0.25-0.34,0.38-0.52c0.27-0.37,0.54-0.74,0.82-1.1c0.14-0.18,0.28-0.35,0.42-0.53c0.33-0.41,0.66-0.82,0.99-1.21
			c0.18-0.22,0.37-0.43,0.56-0.65c0.14-0.16,0.28-0.32,0.43-0.47c0.25-0.28,0.51-0.55,0.77-0.82c0.13-0.13,0.26-0.27,0.39-0.4
			c0.17-0.17,0.34-0.33,0.51-0.49c0.32-0.31,0.64-0.61,0.96-0.9c0.18-0.16,0.37-0.32,0.55-0.48c0.32-0.27,0.63-0.53,0.95-0.79
			c0.19-0.15,0.38-0.3,0.56-0.44c0.34-0.26,0.69-0.51,1.03-0.75c0.17-0.12,0.33-0.24,0.5-0.35c0.51-0.34,1.03-0.67,1.55-0.97
			c0.4-0.23,0.81-0.44,1.21-0.65c0.11-0.05,0.22-0.11,0.33-0.16c0.33-0.16,0.66-0.31,0.98-0.45c0.08-0.03,0.16-0.07,0.24-0.1
			c0.35-0.14,0.7-0.28,1.05-0.4c0.03-0.01,0.06-0.02,0.09-0.03c0.31-0.11,0.62-0.2,0.93-0.29c0.16-0.04,0.31-0.08,0.47-0.12
			c0.13-0.03,0.26-0.07,0.39-0.1c0.17-0.04,0.34-0.07,0.5-0.1c0.12-0.02,0.24-0.05,0.36-0.07c0.06-0.01,0.11-0.01,0.17-0.02
			c0.4-0.06,0.8-0.1,1.2-0.12c0.06,0,0.13-0.01,0.19-0.01c0.38-0.02,0.75-0.01,1.12,0.01c0.08,0.01,0.16,0.01,0.24,0.02
			c0.28,0.02,0.56,0.06,0.84,0.1c0.08,0.01,0.16,0.02,0.24,0.04c0.32,0.06,0.64,0.13,0.96,0.22c0.05,0.01,0.09,0.03,0.14,0.04
			c0.26,0.08,0.52,0.17,0.78,0.28c0.08,0.03,0.16,0.07,0.24,0.1c0.24,0.11,0.48,0.22,0.71,0.35c0.08,0.04,0.16,0.08,0.23,0.12
			c-3.51-2.04-7.03-4.09-10.54-6.13c-0.04-0.02-0.07-0.04-0.11-0.06C49.09,2.8,49.05,2.78,49,2.76c-0.23-0.12-0.46-0.24-0.69-0.34
			c-0.04-0.02-0.09-0.05-0.13-0.07c-0.04-0.02-0.09-0.03-0.13-0.04c-0.25-0.1-0.5-0.19-0.76-0.27C47.25,2.03,47.21,2.01,47.17,2
			c-0.01,0-0.02,0-0.03-0.01c-0.31-0.09-0.63-0.16-0.96-0.22c-0.03,0-0.05-0.01-0.08-0.02c-0.05-0.01-0.11-0.01-0.16-0.02
			c-0.27-0.04-0.54-0.08-0.82-0.1C45.06,1.63,45,1.62,44.95,1.62c-0.03,0-0.07,0-0.09,0c-0.36-0.02-0.73-0.02-1.1-0.01
			c-0.03,0-0.05,0-0.07,0c-0.05,0-0.1,0.01-0.14,0.02c-0.39,0.02-0.78,0.06-1.18,0.12c-0.04,0.01-0.07,0.01-0.11,0.01
			c-0.02,0-0.04,0.01-0.06,0.01c-0.12,0.02-0.24,0.04-0.36,0.07c-0.17,0.03-0.33,0.06-0.5,0.1c-0.13,0.03-0.26,0.06-0.39,0.09
			c-0.12,0.03-0.25,0.06-0.37,0.09c-0.03,0.01-0.06,0.02-0.1,0.03c-0.3,0.08-0.6,0.18-0.91,0.28c-0.04,0.01-0.08,0.02-0.12,0.04
			c-0.35,0.12-0.7,0.25-1.05,0.4c-0.02,0.01-0.04,0.01-0.07,0.03c-0.05,0.02-0.11,0.05-0.16,0.08c-0.33,0.14-0.66,0.29-0.99,0.45
			c-0.11,0.05-0.22,0.11-0.33,0.16c-0.4,0.2-0.8,0.42-1.21,0.65c-0.52,0.3-1.04,0.63-1.56,0.97c-0.16,0.11-0.32,0.23-0.49,0.34
			c-0.35,0.25-0.7,0.5-1.05,0.76C32.36,6.43,32.18,6.57,32,6.72c-0.32,0.26-0.64,0.52-0.96,0.8c-0.18,0.16-0.36,0.31-0.54,0.47
			c-0.33,0.29-0.65,0.6-0.97,0.91c-0.12,0.11-0.23,0.21-0.35,0.32c-0.05,0.05-0.1,0.11-0.16,0.16c-0.14,0.14-0.27,0.28-0.41,0.42
			c-0.25,0.26-0.51,0.53-0.76,0.8c-0.14,0.16-0.28,0.31-0.43,0.47c-0.11,0.12-0.22,0.23-0.32,0.36c-0.09,0.1-0.16,0.21-0.25,0.3
			c-0.34,0.39-0.66,0.8-0.99,1.2c-0.09,0.11-0.19,0.22-0.28,0.34h0c-0.04,0.06-0.08,0.12-0.13,0.17c-0.29,0.37-0.57,0.76-0.84,1.14
			c-0.1,0.13-0.2,0.26-0.29,0.4c-0.02,0.03-0.04,0.06-0.06,0.09c-0.23,0.33-0.45,0.66-0.67,1c-0.12,0.18-0.25,0.36-0.36,0.54
			c-0.01,0.02-0.03,0.04-0.04,0.06c-0.17,0.26-0.32,0.53-0.49,0.8c-0.15,0.25-0.3,0.49-0.45,0.73c-0.01,0.03-0.03,0.05-0.04,0.08
			c-0.14,0.24-0.27,0.48-0.4,0.71c-0.15,0.27-0.3,0.53-0.45,0.8c-0.02,0.04-0.04,0.08-0.06,0.12c-0.13,0.24-0.25,0.49-0.37,0.73
			c-0.13,0.25-0.26,0.5-0.38,0.76c-0.03,0.05-0.05,0.11-0.07,0.16c-0.13,0.26-0.24,0.52-0.36,0.78c-0.11,0.23-0.22,0.47-0.32,0.7
			c-0.03,0.07-0.06,0.14-0.09,0.21c-0.12,0.28-0.23,0.56-0.34,0.84c-0.09,0.22-0.19,0.44-0.27,0.67c-0.03,0.08-0.05,0.15-0.08,0.23
			c-0.12,0.32-0.23,0.64-0.34,0.95c-0.08,0.22-0.16,0.43-0.23,0.64c-0.05,0.15-0.1,0.29-0.14,0.44l10.54,6.13
			c0.12-0.36,0.25-0.73,0.38-1.09c0.11-0.31,0.22-0.63,0.34-0.94C29.67,30.84,29.79,30.54,29.92,30.23z"/>
            <path class="st18" d="M10.66,57.84c0.04-0.42,0.09-0.85,0.16-1.28c0.01-0.08,0.02-0.16,0.04-0.24c0.08-0.49,0.18-0.99,0.29-1.49
			c0.05-0.25,0.12-0.49,0.18-0.74c0.09-0.35,0.18-0.7,0.28-1.05c0.06-0.2,0.12-0.4,0.18-0.6c0.12-0.38,0.25-0.77,0.39-1.16
			c0.06-0.17,0.12-0.33,0.18-0.49c0.2-0.54,0.41-1.07,0.64-1.59c0.03-0.07,0.06-0.13,0.09-0.2c0.21-0.47,0.43-0.94,0.66-1.4
			c0.07-0.14,0.15-0.29,0.22-0.44c0.22-0.44,0.46-0.87,0.7-1.3c0.05-0.09,0.1-0.18,0.15-0.27c0.29-0.5,0.6-1,0.91-1.48
			c0.1-0.15,0.2-0.29,0.3-0.44c0.23-0.35,0.46-0.69,0.7-1.02c0.14-0.19,0.28-0.38,0.42-0.57c0.21-0.28,0.43-0.55,0.65-0.83
			c0.19-0.24,0.38-0.47,0.57-0.7c0.18-0.21,0.37-0.42,0.56-0.63c0.32-0.35,0.64-0.7,0.97-1.03c0.21-0.21,0.41-0.42,0.62-0.62
			c0.16-0.15,0.32-0.3,0.48-0.45c0.27-0.25,0.55-0.49,0.83-0.73c0.16-0.14,0.33-0.27,0.49-0.4c0.3-0.24,0.62-0.47,0.93-0.7
			c0.14-0.1,0.28-0.21,0.43-0.31c0.46-0.31,0.92-0.61,1.39-0.88c0.33-0.19,0.66-0.37,0.99-0.53c0.12-0.06,0.24-0.11,0.35-0.17
			c0.21-0.1,0.43-0.2,0.64-0.29c0.21-0.09,0.42-0.17,0.63-0.24c0.09-0.03,0.17-0.07,0.26-0.1c0.3-0.1,0.6-0.2,0.89-0.28l-10.54-6.13
			c-0.01,0-0.01,0-0.02,0.01c-0.29,0.08-0.58,0.17-0.87,0.27c-0.09,0.03-0.19,0.07-0.28,0.11c-0.17,0.06-0.34,0.12-0.52,0.2
			c-0.03,0.01-0.05,0.02-0.08,0.04c-0.23,0.1-0.46,0.2-0.69,0.31c-0.1,0.05-0.2,0.09-0.3,0.14c-0.33,0.17-0.66,0.34-1,0.54
			c-0.47,0.27-0.93,0.57-1.39,0.88c-0.15,0.1-0.29,0.22-0.44,0.32c-0.31,0.22-0.61,0.45-0.91,0.69c-0.17,0.14-0.33,0.27-0.5,0.42
			c-0.28,0.23-0.55,0.47-0.82,0.72c-0.17,0.15-0.33,0.3-0.5,0.46c-0.1,0.1-0.2,0.18-0.3,0.28c-0.11,0.1-0.21,0.22-0.31,0.33
			c-0.33,0.34-0.66,0.68-0.97,1.04c-0.1,0.11-0.21,0.21-0.31,0.33c-0.08,0.1-0.16,0.2-0.25,0.3c-0.19,0.23-0.38,0.46-0.56,0.69
			c-0.12,0.15-0.25,0.3-0.37,0.45c-0.1,0.13-0.2,0.27-0.29,0.4c-0.13,0.18-0.27,0.36-0.4,0.54c-0.09,0.13-0.19,0.25-0.28,0.38
			c-0.16,0.22-0.3,0.45-0.45,0.68c-0.09,0.14-0.18,0.27-0.27,0.41c-0.04,0.06-0.08,0.12-0.12,0.18c-0.26,0.41-0.51,0.82-0.75,1.24
			c-0.02,0.03-0.03,0.06-0.05,0.09c-0.05,0.08-0.09,0.16-0.13,0.24c-0.17,0.3-0.34,0.6-0.51,0.9c-0.07,0.14-0.14,0.28-0.21,0.42
			c-0.08,0.14-0.15,0.29-0.22,0.44c-0.06,0.13-0.13,0.25-0.19,0.38c-0.16,0.34-0.32,0.68-0.47,1.03c-0.03,0.06-0.06,0.12-0.09,0.19
			c-0.01,0.02-0.02,0.04-0.03,0.06C2.24,43.56,2.06,44,1.89,44.44c-0.03,0.08-0.06,0.16-0.08,0.24c-0.06,0.16-0.11,0.31-0.17,0.47
			c-0.08,0.22-0.16,0.44-0.24,0.67c-0.06,0.17-0.1,0.34-0.16,0.51c-0.06,0.2-0.12,0.39-0.18,0.59c-0.04,0.13-0.08,0.25-0.12,0.38
			c-0.06,0.22-0.11,0.44-0.16,0.67c-0.06,0.25-0.13,0.49-0.18,0.74c-0.02,0.09-0.05,0.18-0.07,0.26c-0.09,0.41-0.16,0.81-0.23,1.22
			c-0.01,0.08-0.03,0.16-0.04,0.25c-0.03,0.18-0.06,0.37-0.08,0.55c-0.03,0.24-0.05,0.48-0.07,0.73c-0.02,0.17-0.04,0.34-0.05,0.51
			C0.02,52.77,0,53.31,0,53.84c0.01,5.02,1.9,8.93,4.81,10.63c3.51,2.04,7.03,4.08,10.54,6.13c-2.91-1.69-4.8-5.61-4.81-10.63
			c0-0.53,0.02-1.07,0.06-1.61C10.62,58.18,10.64,58.01,10.66,57.84z"/>
            <g>
			<path class="st18" d="M76.05,9.83c7.13-3.56,12.85,0.08,12.88,8.37c0.02,7.08-4.1,15.73-10.03,21.05
				c-6.57,6.71-16.96,13.11-27.21,19.03c-14.98,8.65-23.23,13.42-32.5,13.2c-4.99,0.29-8.62-4.55-8.64-11.53
				c-0.03-9.24,6.49-20.53,14.53-25.17c1.27-0.73,2.53-1.28,3.76-1.6c3.09-9.62,9.79-18.49,17.34-22.85
				c5.39-3.11,10.51-3.46,14.15-0.98c0.54-0.37,1.07-0.71,1.59-1.01C67.86,4.91,73.22,5.5,76.05,9.83z M78.18,37.37
				c5.14-4.59,8.65-11.94,8.63-17.95c-0.02-7.22-5.15-10.27-11.43-6.8l-0.65,0.36l-0.29-0.5c-2.39-4.14-7.18-4.79-12.51-1.71
				c-0.61,0.35-1.24,0.76-1.88,1.23l-0.57,0.42l-0.38-0.29c-3.25-2.46-7.96-2.23-12.91,0.63c-7,4.04-13.19,12.46-15.76,21.43
				l-0.37,1.29l-0.96,0.18c-1.3,0.24-2.65,0.76-4.02,1.55c-6.87,3.97-12.44,13.62-12.42,21.51c0.02,5.98,3.21,10.29,7.41,10.03
				c8.87,0.21,16.47-4.18,31.6-12.91C61.27,50.32,71.91,43.79,78.18,37.37L78.18,37.37z"/>
		</g>
	</g>
        <g>
		<g>
			<g class="st19">
				<g>
					<polygon class="st17" points="72.08,48.17 77.05,45.28 77.12,21.52 72.15,24.4 					"/>
				</g>
                <g>
					<polygon class="st17" points="72.15,24.4 77.12,21.52 61.34,12.41 60.6,12.84 60.6,13.25 57.53,15.06 57.15,14.85 56.38,15.3 
											"/>
				</g>
                <g>
					<polygon class="st17" points="56.38,15.3 56.31,39.06 72.08,48.17 72.15,24.4 					"/>
				</g>
			</g>
		</g>
            <polygon class="st18" points="57.53,15.06 72.15,23.46 75.6,21.52 60.6,13.25 		"/>
            <polygon class="st17" points="60.6,12.84 60.6,13.25 75.18,21.75 75.6,21.52 		"/>
	</g>
        <g>
		<g>
			<g class="st19">
				<g>
					<polygon class="st15" points="65.7,51.17 70.67,48.28 70.74,24.52 65.77,27.4 					"/>
				</g>
                <g>
					<polygon class="st16" points="65.77,27.4 70.74,24.52 54.97,15.41 54.22,15.84 54.22,16.25 51.15,18.06 50.77,17.85 50,18.3 
											"/>
				</g>
                <g>
					<polygon class="st15" points="50,18.3 49.93,42.06 65.7,51.17 65.77,27.4 					"/>
				</g>
			</g>
		</g>
            <polygon class="st18" points="51.15,18.06 65.77,26.46 69.22,24.52 54.22,16.25 		"/>
            <polygon class="st15" points="54.22,15.84 54.22,16.25 68.8,24.76 69.22,24.52 		"/>
	</g>
        <g>
		<g>
			<g class="st19">
				<g>
					<polygon class="st17" points="57.88,56.15 62.84,53.26 62.91,29.5 57.94,32.38 					"/>
				</g>
                <g>
					<polygon class="st17" points="57.94,32.38 62.91,29.5 47.14,20.39 46.39,20.82 46.39,21.23 43.32,23.04 42.95,22.83 
						42.17,23.28 					"/>
				</g>
                <g>
					<polygon class="st17" points="42.17,23.28 42.1,47.04 57.88,56.15 57.94,32.38 					"/>
				</g>
			</g>
		</g>
            <polygon class="st18" points="43.32,23.04 57.94,31.44 61.39,29.5 46.39,21.23 		"/>
            <polygon class="st17" points="46.39,20.82 46.39,21.23 60.97,29.74 61.39,29.5 		"/>
	</g>
        <g>
		<g class="st14">
			<path class="st15" d="M47.04,72.22c-3.71,2.14-3.73,5.62-0.04,7.76c3.68,2.14,9.68,2.14,13.39,0c3.71-2.14,3.73-5.61,0.04-7.75
				C56.75,70.08,50.75,70.08,47.04,72.22z"/>
		</g>
            <g>
			<path class="st15" d="M54.67,71.3c0,0,0.11,1.39,0.7,2.14c0.6,0.75,3.36,2.5,3.15,3.25c-0.21,0.76-2.21,0.8-3.44-0.48
				c-1.24-1.28-1.57-1.48-2.1-1.6c-0.53-0.12-1.28-0.8-0.71-1.97C52.26,72.64,53.97,72.18,54.67,71.3z"/>
                <path class="st15" d="M50.89,73.59c0,0,0.22,1.54,0.93,2.34c0.72,0.79,3.93,2.54,3.75,3.41c-0.18,0.86-2.41,1.05-3.88-0.29
				c-1.48-1.34-1.86-1.54-2.46-1.64c-0.6-0.1-1.49-0.8-0.94-2.14C48.29,75.27,50.17,74.63,50.89,73.59z"/>
                <path class="st15" d="M43.12,51.49c0,0,10.64,5.96,11.28,7.84c0.93,2.7,0.75,4.53,0.31,11.21l0.03,1.58c0,0-1.36,1.11-2.86,0.35
				c-0.46-0.24,0.01-4.63-0.73-7.08c0,0-0.23-2.91,0-3.68c0,0-8.59-2.98-10.59-4.82C38.55,55.05,43.12,51.49,43.12,51.49z"/>
                <path class="st15" d="M34.06,53.36c0,0-1.69,3.83,2.81,6.15c4.78,2.47,9.84,5.45,9.84,5.45s-0.13,3.02,0.25,4.85
				c0.51,2.47,1.25,5.68,1.25,5.68s2.05,0.83,3.21-0.3c0,0,0.11-11.85-1.28-13.19c-1.39-1.34-8.36-6.63-8.36-6.63l1.34-3.9
				L34.06,53.36z"/>
                <path class="st15" d="M36.88,59.52c4.78,2.47,9.84,5.45,9.84,5.45s-0.13,3.02,0.25,4.85c0.51,2.47,0.87,5.57,0.87,5.57
				s0.75,0.24,1.25,0.26c-0.71-3.18-1.03-10.27-1.35-11.57c-0.4-1.61-5.44-3.34-9.03-5.24c-3.59-1.89-3.75-5.66-3.75-5.66
				l-0.88,0.19C34.06,53.36,32.37,57.19,36.88,59.52z"/>
                <path class="st15" d="M55.07,70.33c0.45-6.69,0.26-8.3-0.67-11c-0.64-1.88-11.28-7.84-11.28-7.84s-0.59,0.46-1.24,1.13
				c2.87,1.42,9.75,4.99,11.03,7.4c1.47,2.77,0.37,10.47,0.52,12.68c0.66-0.05,1.55-0.39,1.55-0.39L55.07,70.33z"/>
		</g>
            <g>
			<g>
				<g class="st19">
					<g>
						<polygon class="st18"
                                 points="39.37,55.6 39.35,55.92 44.09,59.3 44.11,58.98 						"/>
					</g>
                    <g>
						<polygon class="st16"
                                 points="44.11,58.98 44.09,59.3 52.94,55.24 52.97,54.91 						"/>
					</g>
                    <g>
						<polygon class="st18"
                                 points="39.37,55.6 44.11,58.98 52.97,54.91 48.23,51.53 						"/>
					</g>
				</g>
			</g>
                <g>
				<g class="st19">
					<g>
						<polygon class="st18"
                                 points="45.54,53.36 45.19,53.03 43.71,58.96 44.06,59.29 						"/>
					</g>
                    <g>
						<polygon class="st18"
                                 points="54.8,49.11 54.44,48.78 45.19,53.03 45.54,53.36 						"/>
					</g>
                    <g>
						<polygon class="st18"
                                 points="45.54,53.36 44.06,59.29 53.32,55.03 54.8,49.11 						"/>
					</g>
                    <g>
						<polygon class="st18"
                                 points="45.54,53.36 45.54,53.36 53.32,55.03 54.8,49.11 						"/>
					</g>
				</g>
			</g>
		</g>
            <g>
			<g>
				<path class="st18" d="M50.88,45.49c0,0,1.54-0.26,2.2,0.29c0.66,0.55,1.53,1.09,1.82,1.66c0.29,0.57,0.21,0.81-0.3,0.79
					c-0.51-0.03-1.96-0.6-2.73-1.08c-0.78-0.48-0.9-0.37-1.15-0.41C50.46,46.71,50.14,45.97,50.88,45.49z"/>
                <path class="st17" d="M50.55,46.93c0.25,0.04,0.54-0.25,1.32,0.23c0.78,0.48,2.23,1.05,2.73,1.08c0.07,0,0.14,0,0.19-0.01
					c-0.46-0.33-1.25-0.88-1.94-1.35c-0.87-0.59-2.06-0.64-2.42-0.64C50.43,46.51,50.41,46.91,50.55,46.93z"/>
                <path class="st17" d="M40.39,36.52c0.69-0.31,1.96-0.29,2.54,1.62c0.58,1.91,2.14,7.25,2.14,7.25s5.18,0.01,5.8,0.09
					c0,0-0.7,0.42-0.11,1.36c0,0-5.58,2.16-7.05,1.14C42.25,46.97,37.59,37.81,40.39,36.52z"/>
                <path class="st18" d="M50.88,45.49c-0.62-0.08-5.8-0.09-5.8-0.09s-1.57-5.35-2.14-7.25c-0.58-1.91-1.86-1.93-2.54-1.62
					c-0.18,0.08-0.33,0.2-0.46,0.35l-0.02,0.09c0,0,1.91,0.42,2.87,3.93c0.95,3.51,0.03,5.88,3.06,5.6c1.81-0.17,3.6-0.14,4.75-0.25
					C50.68,45.78,50.88,45.49,50.88,45.49z"/>
                <path class="st18"
                      d="M40.54,43.08c0,0,2.75-0.01,3.71-1.18c0,0-0.62-6.27-3.5-5.77C40.76,36.12,37.68,36.86,40.54,43.08z"/>
			</g>
                <path class="st18" d="M32.68,40.22c0,0,1.79-3.09,8.88-4.1c0,0,1.13-0.47,1.03,3.2c-0.02,0.53,0.53,1.44,0.91,1.92
				c0.37,0.48,1.36,2.32-0.8,4.52c0,0-0.84,3.27,0.16,5.39c0.89,1.89-3.77,3.74-7.75,3.35c-0.49-0.05-1.57-0.37-1.15-2.07
				c0.43-1.71,1.44-4.69,0.64-7.83C33.79,41.44,32.15,41.82,32.68,40.22z"/>
                <path class="st18" d="M32.68,40.22c-0.53,1.6,1.12,1.22,1.92,4.37c0.8,3.14-0.21,6.13-0.64,7.83c-0.43,1.7,0.66,2.02,1.15,2.07
				c0.66,0.06,1.33,0.06,1.99,0.02c-1.39-3.05,0.39-8.58,0.48-11.64c0.09-3.24-2.84-4.5-2.84-4.5
				C33.19,39.34,32.68,40.22,32.68,40.22z"/>
                <g>
				<path class="st18" d="M40.72,51.25c0,0,1.52,0.35,1.92,1.11c0.4,0.76,1,1.58,1.05,2.23c0.05,0.64-0.11,0.83-0.58,0.62
					c-0.46-0.21-1.59-1.3-2.12-2.03c-0.54-0.74-0.69-0.68-0.91-0.81C39.87,52.22,39.86,51.41,40.72,51.25z"/>
                    <path class="st17" d="M39.86,52.46c0.22,0.14,0.59-0.02,1.13,0.71c0.54,0.74,1.66,1.82,2.12,2.03c0.07,0.03,0.13,0.05,0.18,0.06
					c-0.3-0.48-0.82-1.29-1.28-1.98c-0.58-0.88-1.66-1.38-2-1.52C39.92,52.02,39.75,52.38,39.86,52.46z"/>
                    <path class="st17" d="M34.42,38.97c0.75-0.03,1.92,0.48,1.74,2.46c-0.19,1.98-0.78,7.52-0.78,7.52s4.79,1.98,5.33,2.29
					c0,0-0.81,0.12-0.62,1.21c0,0-5.99-0.12-6.95-1.62C32.18,49.34,31.34,39.1,34.42,38.97z"/>
                    <path class="st18" d="M40.72,51.25c-0.55-0.31-5.33-2.29-5.33-2.29s0.59-5.54,0.78-7.52c0.19-1.99-0.99-2.5-1.74-2.46
					c-0.2,0.01-0.38,0.06-0.55,0.15l-0.06,0.07c0,0,1.6,1.11,1.16,4.72c-0.45,3.61-2.21,5.45,0.71,6.35
					c1.74,0.53,3.39,1.24,4.5,1.58C40.43,51.45,40.72,51.25,40.72,51.25z"/>
                    <path class="st18"
                          d="M32.08,45.09c0,0,2.55,1.04,3.88,0.32c0,0,1.81-6.04-1.04-6.67C34.91,38.74,31.79,38.25,32.08,45.09z"/>
			</g>
                <g>
				<path class="st15" d="M41.59,36.35c0.18,0.45,0.44,0.85,0.19,1.34c-0.16,0.32-0.45,0.53-0.76,0.68c-0.24,0.12-0.5,0.21-0.76,0.3
					c-0.44,0.08-0.9,0.08-1.37,0.06c0,0,0,0-0.01,0c-0.03-0.43-3.55-1.5-3.56-1.93c-0.02-0.99,3.56-1.36,3.98-2.25
					c0.37-0.8,1-1.51,1.13-2.39c0.06-0.4-0.03-0.76-0.07-1.15c-0.02-0.24,0.08-0.35,0.33-0.33c0.58,0.04,0.93,0.92,1.06,1.4
					c0.1,0.38,0.13,0.77,0.07,1.15c-0.13,0.85-0.65,1.68-0.42,2.51C41.44,35.94,41.51,36.15,41.59,36.35z"/>
                    <g>
					<g>
						<path class="st17" d="M40.73,35.07c0,0-1.15,1.34-0.62,2.79c0.14,0.4,0.5,2.03-1.96,1.35c0,0-2.56-1.31-1.79-2.08
							c0.52-0.51,1.01-1.25,0.27-3.91L40.73,35.07z"/>
					</g>
                        <g>
						<path class="st17" d="M36.36,37.12c-0.08,0.09-0.12,0.17-0.13,0.26c2.36,0.48,3.98-1.18,3.98-1.18l-3.05-2.71l0,0
							c0,0-0.15,0.1-0.39,0.28C37.3,35.98,36.84,36.65,36.36,37.12z"/>
					</g>
				</g>
                    <g>
					<path class="st18" d="M40.34,30.36c0,0,0.66,0.23,0.68,2.2c0.01,0.22,0.35,0.5,0.44,1.05c0.09,0.55,0.2,2.74-1.07,2.97
						c-0.92,0.16-3.19-0.42-3.95-2.63C35.68,31.74,37.58,28.9,40.34,30.36z"/>
				</g>
                    <path class="st15" d="M38.7,32.2c0.71-0.22,1.67-0.43,2.03-1.16c0.07-0.14,0.12-0.3,0.15-0.47c-0.36-0.81-0.71-0.8-1.97-1.35
					c-0.85-0.36-1.56-0.69-2.1,0.36c-0.09,0.18-0.35,0.3-0.2,0.33c1.04,1.6-1.32,3.41,0.3,3.92C36.99,33.03,38.02,32.42,38.7,32.2z"
                    />
                    <path class="st15" d="M34.93,38.16c0.14-0.44,0.28-0.71,0.14-1.15c-0.14-0.42-0.15-0.75-0.36-1.13
					c-0.25-0.44-0.33-0.95-0.39-1.46c-0.14-1.27-0.66-3.16,1.55-4.76c1.18-0.86,2.51,0.28,2.12,1.27c-0.22,0.56-0.32,1.26-0.33,2.03
					c0.01,0.02,0.02,0.03,0.03,0.05c0.31,0.63,0.51,1.31,0.32,2.02c-0.18,0.7-0.94,1.17-0.84,1.95c0.04,0.32,0.21,0.58,0.38,0.84
					c0.01,0.02,0.03,0.05,0.04,0.07c0.14,0.44,0.14,0.88-0.26,1.29c-0.59,0.6-1.15,1.27-1.8,0.79c-0.6-0.44-1.35-1.05-1.37-1.12
					C34.15,38.58,34.85,38.42,34.93,38.16z"/>
                    <g>
					<path class="st18" d="M38.11,34.75c0,0-0.51-1.02-1.08-0.6c-0.18,0.14-0.36,0.39,0.03,0.9c0.38,0.51,1.07,0.92,1.55,0.78
						L38.11,34.75z"/>
				</g>
			</g>
		</g>
	</g>
        <g class="st22">
		<path class="st26" d="M42.53,81.71c5.68,3.27,14.85,3.27,20.49,0c5.64-3.28,5.61-8.59-0.07-11.87c-5.68-3.27-14.85-3.27-20.49,0
			C36.82,73.11,36.86,78.43,42.53,81.71"/>
            <path class="st27" d="M40.74,76.56c6.67,3.69,17.46,3.69,24.09,0c6.63-3.69,6.59-9.68-0.08-13.37c-6.68-3.69-17.46-3.69-24.09,0
			C34.03,66.88,34.07,72.87,40.74,76.56"/>
            <path class="st28" d="M38.95,71.42c7.67,4.1,20.06,4.1,27.69,0c7.62-4.11,7.58-10.77-0.09-14.87c-7.67-4.1-20.07-4.1-27.69,0
			C31.23,60.65,31.28,67.31,38.95,71.42"/>
            <path class="st3" d="M37.15,66.28c8.67,4.52,22.67,4.52,31.29,0c8.61-4.52,8.56-11.85-0.1-16.37c-8.67-4.52-22.67-4.52-31.29,0
			C28.44,54.42,28.49,61.75,37.15,66.28"/>
            <path class="st29" d="M35.36,61.14c9.67,4.93,25.28,4.93,34.88,0c9.6-4.94,9.55-12.94-0.11-17.88c-9.67-4.93-25.28-4.93-34.88,0
			C25.64,48.19,25.7,56.2,35.36,61.14"/>
            <path class="st30" d="M33.56,55.99c10.67,5.35,27.89,5.35,38.48,0c10.59-5.35,10.54-14.03-0.12-19.38
			c-10.66-5.35-27.89-5.35-38.48,0C22.85,41.96,22.91,50.64,33.56,55.99"/>
            <path class="st9" d="M31.77,50.85c11.66,5.76,30.5,5.76,42.08,0c11.58-5.77,11.52-15.12-0.14-20.88c-11.66-5.76-30.5-5.76-42.08,0
			C20.05,35.73,20.12,45.08,31.77,50.85"/>
	</g>
</g>
</svg>
