<?xml version="1.0" encoding="UTF-8" standalone="no"?>
<svg
   xmlns:dc="http://purl.org/dc/elements/1.1/"
   xmlns:cc="http://creativecommons.org/ns#"
   xmlns:rdf="http://www.w3.org/1999/02/22-rdf-syntax-ns#"
   xmlns:svg="http://www.w3.org/2000/svg"
   xmlns="http://www.w3.org/2000/svg"
   xmlns:sodipodi="http://sodipodi.sourceforge.net/DTD/sodipodi-0.dtd"
   xmlns:inkscape="http://www.inkscape.org/namespaces/inkscape"
   version="1.1"
   id="svg2"
   xml:space="preserve"
   width="4946.6665"
   height="4946.6665"
   viewBox="0 0 4946.6665 4946.6665"
   sodipodi:docname="20943483.eps"><metadata
     id="metadata8"><rdf:RDF><cc:Work
         rdf:about=""><dc:format>image/svg+xml</dc:format><dc:type
           rdf:resource="http://purl.org/dc/dcmitype/StillImage" /></cc:Work></rdf:RDF></metadata><defs
     id="defs6"><clipPath
       clipPathUnits="userSpaceOnUse"
       id="clipPath22"><path
         d="m 18146.9,4550 c -1874.6,0 -3378.1,198.8 -4060.1,325.7 -2686.5,500 -4072.9,692.3 -5964.48,2302 H 28138.7 c -54.8,-37.3 -113.4,-76.5 -177.6,-119.4 C 24936.2,5038.6 21085.7,4550 18146.9,4550 M 6176.05,9414.8 c -2880.63,4582.6 -2289.92,11752.6 777.75,16439.7 19.95,30.5 46.74,70.6 80.33,119.7 l 150.43,-3106.6 -139.39,3.6 c -9.77,0.3 -19.56,0.4 -29.3,0.4 -299.11,0 -586.5,-118.4 -798.8,-330 -219.21,-218.5 -339.16,-517.3 -331.85,-826.6 L 6176.05,9414.8 m 25250.05,1847.6 149.2,10303.8 c 0,237.7 -270,693.5 -766.3,693.5 -18.4,0 -37.2,-0.6 -56.3,-1.9 l -570.5,14.7 c 490.1,958.2 783.4,1873.7 943.3,2717.3 2055.6,-4187.5 2276,-9595.7 300.6,-13727.4 M 28511,25860.6 c -11.9,1183.4 -174.9,2260.8 -387.4,3172.2 414.2,-379.8 912.5,-886.7 1424.1,-1532.6 -310.5,-496.3 -666,-1045.2 -1036.7,-1639.6 m -3699.9,110.7 -2659.6,2938.1 -12404.08,75.9 c 1636.58,1432 3938.78,2883 6793.98,3256.2 44.9,5.9 762,100.5 1861.6,100.5 2034.1,0 5377.2,-323.5 8199.2,-2131.6 -322.8,-973.3 -868.9,-2364 -1791.1,-4239.1"
         id="path20" /></clipPath><linearGradient
       x1="0"
       y1="0"
       x2="1"
       y2="0"
       gradientUnits="userSpaceOnUse"
       gradientTransform="matrix(-22005.3,19740.1,19740.1,22005.3,36699,1439)"
       spreadMethod="pad"
       id="linearGradient28"><stop
         style="stop-opacity:1;stop-color:#dae3fe"
         offset="0"
         id="stop24" /><stop
         style="stop-opacity:1;stop-color:#e9effd"
         offset="1"
         id="stop26" /></linearGradient><clipPath
       clipPathUnits="userSpaceOnUse"
       id="clipPath44"><path
         d="m 25167,22402.3 -187.7,4.9 c 350.8,1533.7 851.4,3194 1564.8,4753.4 15.6,33.8 49,53.8 84,53.8 12.8,0 25.8,-2.7 38.2,-8.4 46.3,-21.2 66.7,-75.8 45.5,-122.2 -702.3,-1534.9 -1196.9,-3169 -1544.8,-4681.5"
         id="path42" /></clipPath><linearGradient
       x1="0"
       y1="0"
       x2="1"
       y2="0"
       gradientUnits="userSpaceOnUse"
       gradientTransform="matrix(2553.37,0,0,-2553.37,24166.8,21825.4)"
       spreadMethod="pad"
       id="linearGradient50"><stop
         style="stop-opacity:1;stop-color:#dae3fe"
         offset="0"
         id="stop46" /><stop
         style="stop-opacity:1;stop-color:#e9effd"
         offset="1"
         id="stop48" /></linearGradient><clipPath
       clipPathUnits="userSpaceOnUse"
       id="clipPath60"><path
         d="M 30924.8,7177.7 H 6666.94 c -246.71,0 -448.59,201.7 -448.59,448.2 l -42.3,1788.9 -290.83,12300.2 c -7.31,309.3 112.64,608.1 331.85,826.6 212.3,211.6 499.69,330 798.8,330 9.74,0 19.53,-0.1 29.3,-0.4 l 139.39,-3.6 25.66,-529.8 -71.81,1.9 c -7.1,0.2 -14.23,0.3 -21.31,0.3 -209.88,0 -411.48,-83.3 -560.49,-231.9 -154.04,-153.6 -238.75,-363.9 -233.3,-581.4 L 6661.23,8055.9 c 0,-233.5 190.97,-424.4 424.4,-424.4 H 30339.8 c 233.5,0 424.4,190.9 424.4,424.4 l 190.5,12655.1 c -21.8,740.5 -653.7,1019.8 -1060.7,1019.8 -11.6,0 -22.9,-0.2 -34.1,-0.7 l -5231.6,140.4 26.5,545.1 324.5,-8.4 187.7,-4.9 2902.8,-75.1 248.6,-6.4 240.2,-6.3 1623.6,-42 570.5,-14.7 c 19.1,1.3 37.9,1.9 56.3,1.9 496.3,0 766.3,-455.8 766.3,-693.5 l -149.2,-10303.8 -52.7,-3636.5 c 0,-246.5 -201.8,-448.2 -448.6,-448.2"
         id="path58" /></clipPath><linearGradient
       x1="0"
       y1="0"
       x2="1"
       y2="0"
       gradientUnits="userSpaceOnUse"
       gradientTransform="matrix(-5729.19,17187.6,-17187.6,-5729.19,21011.6,8249.4)"
       spreadMethod="pad"
       id="linearGradient66"><stop
         style="stop-opacity:1;stop-color:#09005d"
         offset="0"
         id="stop62" /><stop
         style="stop-opacity:1;stop-color:#1a0f91"
         offset="1"
         id="stop64" /></linearGradient><clipPath
       clipPathUnits="userSpaceOnUse"
       id="clipPath76"><path
         d="M 30339.8,7631.5 H 7085.63 c -233.43,0 -424.4,190.9 -424.4,424.4 l -337.92,13470.8 c -5.45,217.5 79.26,427.8 233.3,581.4 149.01,148.6 350.61,231.9 560.49,231.9 7.08,0 14.21,-0.1 21.31,-0.3 l 71.81,-1.9 709.65,-14655.4 H 23937.7 l 672.5,13817 5037.2,-135.1 c 1.9,0.1 8.9,0.3 20.2,0.3 88.2,0 437.5,-14.9 667.1,-234.9 138.8,-132.9 209.6,-319.3 210.7,-552.8 l -57.7,-3930.8 c -0.5,-34.4 26.9,-62.7 61.3,-63.2 h 0.9 c 33.9,0 61.6,27.3 62.2,61.3 l 57.7,3932.1 c -1.3,269.6 -85,486.1 -249,643.2 -258.3,247.5 -631.5,269.8 -744.5,269.8 -14.5,0 -24.7,-0.4 -29.9,-0.7 l -5030.1,135 12,246.9 5231.6,-140.4 c 11.2,0.5 22.5,0.7 34.1,0.7 407,0 1038.9,-279.3 1060.7,-1019.8 L 30764.2,8055.9 c 0,-233.5 -190.9,-424.4 -424.4,-424.4 m 188.2,7587.2 c -33.9,0 -61.7,-27.3 -62.2,-61.3 l -15,-1026.3 c -0.6,-34.4 26.9,-62.7 61.2,-63.2 h 1 c 33.9,0 61.6,27.3 62.1,61.3 l 15.1,1026.3 c 0.5,34.4 -26.9,62.7 -61.3,63.2 h -0.9"
         id="path74" /></clipPath><linearGradient
       x1="0"
       y1="0"
       x2="1"
       y2="0"
       gradientUnits="userSpaceOnUse"
       gradientTransform="matrix(25547.8,13864.4,13864.4,-25547.8,5954.74,8079.2)"
       spreadMethod="pad"
       id="linearGradient82"><stop
         style="stop-opacity:1;stop-color:#ff928e"
         offset="0"
         id="stop78" /><stop
         style="stop-opacity:1;stop-color:#fe7062"
         offset="1"
         id="stop80" /></linearGradient><clipPath
       clipPathUnits="userSpaceOnUse"
       id="clipPath92"><path
         d="m 30513,14067.9 h -1 c -34.3,0.5 -61.8,28.8 -61.2,63.2 l 15,1026.3 c 0.5,34 28.3,61.3 62.2,61.3 h 0.9 c 34.4,-0.5 61.8,-28.8 61.3,-63.2 l -15.1,-1026.3 c -0.5,-34 -28.2,-61.3 -62.1,-61.3"
         id="path90" /></clipPath><linearGradient
       x1="0"
       y1="0"
       x2="1"
       y2="0"
       gradientUnits="userSpaceOnUse"
       gradientTransform="matrix(25547.8,13864.4,13864.4,-25547.8,5954.74,8079.2)"
       spreadMethod="pad"
       id="linearGradient98"><stop
         style="stop-opacity:1;stop-color:#ffd3d2"
         offset="0"
         id="stop94" /><stop
         style="stop-opacity:1;stop-color:#ffc6c0"
         offset="1"
         id="stop96" /></linearGradient><clipPath
       clipPathUnits="userSpaceOnUse"
       id="clipPath108"><path
         d="m 30549.9,16582.9 h -0.9 c -34.4,0.5 -61.8,28.8 -61.3,63.2 l 57.7,3930.8 c -1.1,233.5 -71.9,419.9 -210.7,552.8 -229.6,220 -578.9,234.9 -667.1,234.9 -11.3,0 -18.3,-0.2 -20.2,-0.3 l -5037.2,135.1 6.1,124.2 5030.1,-135 c 5.2,0.3 15.4,0.7 29.9,0.7 113,0 486.2,-22.3 744.5,-269.8 164,-157.1 247.7,-373.6 249,-643.2 l -57.7,-3932.1 c -0.6,-34 -28.3,-61.3 -62.2,-61.3"
         id="path106" /></clipPath><linearGradient
       x1="0"
       y1="0"
       x2="1"
       y2="0"
       gradientUnits="userSpaceOnUse"
       gradientTransform="matrix(25547.8,13864.4,13864.4,-25547.8,5954.74,8079.2)"
       spreadMethod="pad"
       id="linearGradient114"><stop
         style="stop-opacity:1;stop-color:#ffd3d2"
         offset="0"
         id="stop110" /><stop
         style="stop-opacity:1;stop-color:#ffc6c0"
         offset="1"
         id="stop112" /></linearGradient><clipPath
       clipPathUnits="userSpaceOnUse"
       id="clipPath124"><path
         d="M 4306.99,6020.5 H 32793 c 31.1,0 56.6,25.5 56.6,56.6 v 1111.7 c 0,31.1 -25.5,56.6 -56.6,56.6 H 4306.99 c -31.1,0 -56.54,-25.5 -56.54,-56.6 V 6077.1 c 0,-31.1 25.44,-56.6 56.54,-56.6 z"
         id="path122" /></clipPath><linearGradient
       x1="0"
       y1="0"
       x2="1"
       y2="0"
       gradientUnits="userSpaceOnUse"
       gradientTransform="matrix(25522.8,-6208.24,6208.24,25522.8,7676.07,9277.9)"
       spreadMethod="pad"
       id="linearGradient130"><stop
         style="stop-opacity:1;stop-color:#09005d"
         offset="0"
         id="stop126" /><stop
         style="stop-opacity:1;stop-color:#1a0f91"
         offset="1"
         id="stop128" /></linearGradient><clipPath
       clipPathUnits="userSpaceOnUse"
       id="clipPath142"><path
         d="m 22750,26041.3 c -468.8,16.5 -829.3,420.6 -792.3,888.3 l 154.3,1952.8 2717.9,-2916.7 z"
         id="path140" /></clipPath><linearGradient
       x1="0"
       y1="0"
       x2="1"
       y2="0"
       gradientUnits="userSpaceOnUse"
       gradientTransform="matrix(6023.46,6490.81,6490.81,-6023.46,26122.6,30281.5)"
       spreadMethod="pad"
       id="linearGradient148"><stop
         style="stop-opacity:1;stop-color:#4f52ff"
         offset="0"
         id="stop144" /><stop
         style="stop-opacity:1;stop-color:#4042e2"
         offset="1"
         id="stop146" /></linearGradient><clipPath
       clipPathUnits="userSpaceOnUse"
       id="clipPath180"><path
         d="m 24659.6,7757.7 c 285.4,-24.7 780.8,-64.8 1171.3,-81.9 234.7,-10.4 369.8,12.6 447.7,43.8 -0.2,-8.8 -0.4,-17.1 -0.7,-24.8 -1.9,-41.1 -35.3,-74 -76.8,-76.3 -737.9,-41.2 -1324.7,-14.2 -1533.6,-1.5 -43.2,2.6 -68.9,49.6 -46.8,86.4 11,18.4 24.4,36.4 38.9,54.3 z"
         id="path178" /></clipPath><linearGradient
       x1="0"
       y1="0"
       x2="1"
       y2="0"
       gradientUnits="userSpaceOnUse"
       gradientTransform="matrix(-1665.99,0,0,-1665.99,26278.6,7677.1)"
       spreadMethod="pad"
       id="linearGradient186"><stop
         style="stop-opacity:1;stop-color:#4f52ff"
         offset="0"
         id="stop182" /><stop
         style="stop-opacity:1;stop-color:#4042e2"
         offset="1"
         id="stop184" /></linearGradient><clipPath
       clipPathUnits="userSpaceOnUse"
       id="clipPath196"><path
         d="m 25830.9,7675.8 c -390.5,17.1 -885.9,57.2 -1171.3,81.9 280.6,344.2 1171.3,576.3 1171.3,576.3 h 251.5 c 173,-249.4 198.1,-486.8 196.2,-614.4 -77.9,-31.2 -213,-54.2 -447.7,-43.8 z"
         id="path194" /></clipPath><linearGradient
       x1="0"
       y1="0"
       x2="1"
       y2="0"
       gradientUnits="userSpaceOnUse"
       gradientTransform="matrix(-1619.04,0,0,-1619.04,26278.7,8003.6)"
       spreadMethod="pad"
       id="linearGradient202"><stop
         style="stop-opacity:1;stop-color:#09005d"
         offset="0"
         id="stop198" /><stop
         style="stop-opacity:1;stop-color:#1a0f91"
         offset="1"
         id="stop200" /></linearGradient><clipPath
       clipPathUnits="userSpaceOnUse"
       id="clipPath212"><path
         d="m 26124.8,8744.6 -23.6,-465.8 c -2.5,-50.4 -40.3,-92.8 -90.8,-100 -50.3,-7.2 -117.6,-8.1 -189,15.6 -43.9,14.6 -76.5,51.6 -84.6,96.8 l -81.3,453.4 z"
         id="path210" /></clipPath><linearGradient
       x1="0"
       y1="0"
       x2="1"
       y2="0"
       gradientUnits="userSpaceOnUse"
       gradientTransform="matrix(3063.81,2319.5,2319.5,-3063.81,26345,8841.1)"
       spreadMethod="pad"
       id="linearGradient218"><stop
         style="stop-opacity:1;stop-color:#febbba"
         offset="0"
         id="stop214" /><stop
         style="stop-opacity:1;stop-color:#ff928e"
         offset="1"
         id="stop216" /></linearGradient><clipPath
       clipPathUnits="userSpaceOnUse"
       id="clipPath228"><path
         d="m 29392,7679.2 c 123.7,17.3 179.7,81.6 203.2,150.3 l 0.5,-1.8 c 18.2,-72.5 -24,-147.7 -108.4,-183.4 -102,-43.2 -213.5,-50.6 -300.1,-47 -92.9,3.8 -178.2,42.3 -225.1,103.8 l -0.7,0.9 c 93.3,-46.1 224.2,-51.5 430.6,-22.8 z"
         id="path226" /></clipPath><linearGradient
       x1="0"
       y1="0"
       x2="1"
       y2="0"
       gradientUnits="userSpaceOnUse"
       gradientTransform="matrix(-638.435,0,0,-638.435,29599.9,7713)"
       spreadMethod="pad"
       id="linearGradient234"><stop
         style="stop-opacity:1;stop-color:#4f52ff"
         offset="0"
         id="stop230" /><stop
         style="stop-opacity:1;stop-color:#4042e2"
         offset="1"
         id="stop232" /></linearGradient><clipPath
       clipPathUnits="userSpaceOnUse"
       id="clipPath244"><path
         d="m 28808.4,8747.6 h 207.5 c 315.9,6.5 514.4,-660 579.3,-918.1 -23.5,-68.7 -79.5,-133 -203.2,-150.3 -206.4,-28.7 -337.3,-23.3 -430.6,22.8 -170.7,224.7 -255.3,553.7 -296,745.7 -46.3,218.4 143,299.9 143,299.9 z"
         id="path242" /></clipPath><linearGradient
       x1="0"
       y1="0"
       x2="1"
       y2="0"
       gradientUnits="userSpaceOnUse"
       gradientTransform="matrix(-937.096,0,0,-937.096,29595.2,8204.6)"
       spreadMethod="pad"
       id="linearGradient250"><stop
         style="stop-opacity:1;stop-color:#09005d"
         offset="0"
         id="stop246" /><stop
         style="stop-opacity:1;stop-color:#1a0f91"
         offset="1"
         id="stop248" /></linearGradient><clipPath
       clipPathUnits="userSpaceOnUse"
       id="clipPath260"><path
         d="m 28989.2,9180 115.2,-458.2 c 14.1,-56.1 -12.8,-114.3 -64.7,-140.9 -64.4,-33.1 -155.2,-67.8 -238.5,-57.8 -39.3,4.8 -71.8,32.4 -84.8,69.3 l -169.1,482 z"
         id="path258" /></clipPath><linearGradient
       x1="0"
       y1="0"
       x2="1"
       y2="0"
       gradientUnits="userSpaceOnUse"
       gradientTransform="matrix(2752.23,2007.92,2007.92,-2752.23,29072.2,9030)"
       spreadMethod="pad"
       id="linearGradient266"><stop
         style="stop-opacity:1;stop-color:#febbba"
         offset="0"
         id="stop262" /><stop
         style="stop-opacity:1;stop-color:#ff928e"
         offset="1"
         id="stop264" /></linearGradient><clipPath
       clipPathUnits="userSpaceOnUse"
       id="clipPath276"><path
         d="m 29126.6,9047.5 c -143.3,-127.1 -609.5,-143.9 -609.5,-143.9 -1679.1,4030.2 -2366,4602.7 -2366,4602.7 242.5,-1521.2 39.1,-4888.8 39.1,-4888.8 -277.1,-122.3 -634.3,0 -634.3,0 -22.5,2490.3 -405.3,4662.1 -857.5,6374.3 1134.9,25.6 1738.4,413.9 1935.5,569.8 946,-1525.2 2492.7,-6514.1 2492.7,-6514.1 z"
         id="path274" /></clipPath><linearGradient
       x1="0"
       y1="0"
       x2="1"
       y2="0"
       gradientUnits="userSpaceOnUse"
       gradientTransform="matrix(-4309.88,-8256.28,-8256.28,4309.88,32117.3,21990.3)"
       spreadMethod="pad"
       id="linearGradient282"><stop
         style="stop-opacity:1;stop-color:#4f52ff"
         offset="0"
         id="stop278" /><stop
         style="stop-opacity:1;stop-color:#4042e2"
         offset="1"
         id="stop280" /></linearGradient><clipPath
       clipPathUnits="userSpaceOnUse"
       id="clipPath292"><path
         d="m 26345.7,20196.2 c 214.8,-1071.5 137.8,-2989.2 87.2,-3864 -14.2,-245.8 157.5,-586.7 296.2,-819.2 21.7,-36.5 8.3,-83.2 -29.5,-102.6 -232.2,-119.4 -1019.1,-489.3 -1931,-535.3 -60.8,-3.1 -115.1,38.3 -130.8,97.1 -676.5,2525.8 -1462.2,4139.8 -1462.2,4139.8 867.4,1385.2 3170.1,1084.2 3170.1,1084.2 z"
         id="path290" /></clipPath><linearGradient
       x1="0"
       y1="0"
       x2="1"
       y2="0"
       gradientUnits="userSpaceOnUse"
       gradientTransform="matrix(12856.9,-11182.2,11182.2,12856.9,22055.2,20558.1)"
       spreadMethod="pad"
       id="linearGradient298"><stop
         style="stop-opacity:1;stop-color:#4f52ff"
         offset="0"
         id="stop294" /><stop
         style="stop-opacity:1;stop-color:#4042e2"
         offset="1"
         id="stop296" /></linearGradient><clipPath
       clipPathUnits="userSpaceOnUse"
       id="clipPath308"><path
         d="m 26036.5,13601.7 c 9.6,0 19.2,2.6 28,7.9 25.3,15.5 33.3,48.5 17.9,73.8 -9,14.9 -226.2,366 -665.7,578 -26.7,12.8 -58.9,1.8 -71.9,-25 -12.9,-26.8 -1.6,-59 25.1,-71.8 409.8,-197.7 618.6,-533.8 620.7,-537.1 10.1,-16.6 27.8,-25.8 45.9,-25.8 z"
         id="path306" /></clipPath><linearGradient
       x1="0"
       y1="0"
       x2="1"
       y2="0"
       gradientUnits="userSpaceOnUse"
       gradientTransform="matrix(-268.736,537.47,-537.47,-268.736,27218.2,10927.6)"
       spreadMethod="pad"
       id="linearGradient314"><stop
         style="stop-opacity:1;stop-color:#53d8ff"
         offset="0"
         id="stop310" /><stop
         style="stop-opacity:1;stop-color:#3840f7"
         offset="1"
         id="stop312" /></linearGradient><clipPath
       clipPathUnits="userSpaceOnUse"
       id="clipPath324"><path
         d="m 27693.1,17121.1 c -69,-499.2 -272.9,-1043.6 -680.7,-1621.9 l -155,126.3 c 0,0 178.9,726.1 77.2,1550.2 251.6,49 548.7,-1.5 758.5,-54.6 z"
         id="path322" /></clipPath><linearGradient
       x1="0"
       y1="0"
       x2="1"
       y2="0"
       gradientUnits="userSpaceOnUse"
       gradientTransform="matrix(1996.46,-1767.91,1767.91,1996.46,28324.7,15443.9)"
       spreadMethod="pad"
       id="linearGradient330"><stop
         style="stop-opacity:1;stop-color:#febbba"
         offset="0"
         id="stop326" /><stop
         style="stop-opacity:1;stop-color:#ff928e"
         offset="1"
         id="stop328" /></linearGradient><clipPath
       clipPathUnits="userSpaceOnUse"
       id="clipPath340"><path
         d="m 26105.8,18874.2 239.9,1322 c 0,0 1603.1,-1225.4 1347.4,-3075.1 -209.8,53.1 -506.9,103.6 -758.5,54.6 -73.3,593.6 -292.2,1238 -828.8,1698.5 z"
         id="path338" /></clipPath><linearGradient
       x1="0"
       y1="0"
       x2="1"
       y2="0"
       gradientUnits="userSpaceOnUse"
       gradientTransform="matrix(12798.9,-11131.8,11131.8,12798.9,23127.1,21743.1)"
       spreadMethod="pad"
       id="linearGradient346"><stop
         style="stop-opacity:1;stop-color:#4f52ff"
         offset="0"
         id="stop342" /><stop
         style="stop-opacity:1;stop-color:#4042e2"
         offset="1"
         id="stop344" /></linearGradient><clipPath
       clipPathUnits="userSpaceOnUse"
       id="clipPath356"><path
         d="m 23175.6,19112 618.8,-1332.7 c -100.1,-804.5 -532.3,-1152.4 -998.3,-1285.8 -29,366.6 -121.8,662.9 -207.8,867.8 595.5,614.8 587.3,1750.7 587.3,1750.7 z"
         id="path354" /></clipPath><linearGradient
       x1="0"
       y1="0"
       x2="1"
       y2="0"
       gradientUnits="userSpaceOnUse"
       gradientTransform="matrix(12798.9,-11131.8,11131.8,12798.9,21115.1,19429.8)"
       spreadMethod="pad"
       id="linearGradient362"><stop
         style="stop-opacity:1;stop-color:#4f52ff"
         offset="0"
         id="stop358" /><stop
         style="stop-opacity:1;stop-color:#4042e2"
         offset="1"
         id="stop360" /></linearGradient><clipPath
       clipPathUnits="userSpaceOnUse"
       id="clipPath372"><path
         d="m 22588.3,17361.3 c 86,-204.9 178.8,-501.2 207.8,-867.8 -1243.3,-482.4 -1572.3,453.1 -1572.3,453.1 l 229.8,40.5 c 518.9,-54.6 881.4,112.7 1134.7,374.2 z"
         id="path370" /></clipPath><linearGradient
       x1="0"
       y1="0"
       x2="1"
       y2="0"
       gradientUnits="userSpaceOnUse"
       gradientTransform="matrix(-1572.3,0,0,-1572.3,22796.1,16858.3)"
       spreadMethod="pad"
       id="linearGradient378"><stop
         style="stop-opacity:1;stop-color:#febbba"
         offset="0"
         id="stop374" /><stop
         style="stop-opacity:1;stop-color:#ff928e"
         offset="1"
         id="stop376" /></linearGradient><clipPath
       clipPathUnits="userSpaceOnUse"
       id="clipPath388"><path
         d="m 23745.7,20757.3 298.7,-1098.2 c 33.6,-123.4 167,-189.6 285.8,-142.2 128.1,51.2 290.6,121.1 430.5,196.7 149.4,80.6 196.1,272.7 101.6,413.7 l -621.1,926.1 z"
         id="path386" /></clipPath><linearGradient
       x1="0"
       y1="0"
       x2="1"
       y2="0"
       gradientUnits="userSpaceOnUse"
       gradientTransform="matrix(17.1725,-2936.15,2936.15,17.1725,24324.4,21060)"
       spreadMethod="pad"
       id="linearGradient394"><stop
         style="stop-opacity:1;stop-color:#febbba"
         offset="0"
         id="stop390" /><stop
         style="stop-opacity:1;stop-color:#ff928e"
         offset="1"
         id="stop392" /></linearGradient><clipPath
       clipPathUnits="userSpaceOnUse"
       id="clipPath404"><path
         d="m 23092.2,21591.6 c -2.8,-18.9 249.1,-1253.2 249.1,-1253.2 l 701.7,158.8 -64.9,1205.4 c 0,0 -840.4,204.7 -885.9,-111 z"
         id="path402" /></clipPath><linearGradient
       x1="0"
       y1="0"
       x2="1"
       y2="0"
       gradientUnits="userSpaceOnUse"
       gradientTransform="matrix(1157.38,-2098.72,2098.72,1157.38,23371.7,21542.8)"
       spreadMethod="pad"
       id="linearGradient410"><stop
         style="stop-opacity:1;stop-color:#febbba"
         offset="0"
         id="stop406" /><stop
         style="stop-opacity:1;stop-color:#ff928e"
         offset="1"
         id="stop408" /></linearGradient><clipPath
       clipPathUnits="userSpaceOnUse"
       id="clipPath420"><path
         d="m 23820.3,21434 83.9,-631.9 c 1,-8.1 1,-16.1 -0.1,-24.2 -7.1,-49.5 -44,-218.1 -214.2,-169.9 -154.4,43.8 -296,81.4 -393.8,51.5 -43.9,-13.5 -70.4,-58 -61.2,-103 22.9,-112.1 79.2,-363.8 161.5,-575.1 16.7,-42.9 63.6,-65.4 107.8,-52.5 133.1,38.8 411.5,128.5 618.5,253.1 28.1,16.9 44.8,47.4 43.4,80.1 -6.7,159.5 -25.3,644.4 -9.7,780.3 14.8,127.6 171.4,204 239.4,231.4 22.3,9 39.8,26.6 48.7,48.9 31.5,79 74.9,261.6 -155.3,336.5 -48.2,15.7 -73.6,67.6 -56.4,115.3 34.1,94.9 48.4,239.8 -129.7,319.6 -181,81.1 -316.1,-15.4 -389.1,-93.8 -29.6,-31.7 -76.9,-36.6 -113.5,-13.4 -20.9,13.1 -47.7,17.5 -80.2,-2.7 -43.7,-27.3 -101.6,-8.7 -124.2,37.6 -43.3,89 -131.7,184.3 -308.9,153.9 -314.4,-53.8 -350.1,-402.3 -267.1,-606.5 83,-204.2 420.6,-126.4 589.9,-23.5 128.8,78.3 295.8,-3.7 368.5,-47.6 23,-13.8 38.3,-37.5 41.8,-64.1 z"
         id="path418" /></clipPath><linearGradient
       x1="0"
       y1="0"
       x2="1"
       y2="0"
       gradientUnits="userSpaceOnUse"
       gradientTransform="matrix(-1708.66,246.535,-246.535,-1708.66,24398.2,20928.7)"
       spreadMethod="pad"
       id="linearGradient426"><stop
         style="stop-opacity:1;stop-color:#09005d"
         offset="0"
         id="stop422" /><stop
         style="stop-opacity:1;stop-color:#1a0f91"
         offset="1"
         id="stop424" /></linearGradient><clipPath
       clipPathUnits="userSpaceOnUse"
       id="clipPath436"><path
         d="m 24184.7,20812.1 c 0,0 -129.3,362 3.5,450.6 132.9,88.7 329.6,42.6 286.3,-219.6 -53.9,-326.2 -289.8,-231 -289.8,-231 z"
         id="path434" /></clipPath><linearGradient
       x1="0"
       y1="0"
       x2="1"
       y2="0"
       gradientUnits="userSpaceOnUse"
       gradientTransform="matrix(-977.47,1342.65,-1342.65,-977.47,25250.4,19742)"
       spreadMethod="pad"
       id="linearGradient442"><stop
         style="stop-opacity:1;stop-color:#febbba"
         offset="0"
         id="stop438" /><stop
         style="stop-opacity:1;stop-color:#ff928e"
         offset="1"
         id="stop440" /></linearGradient><clipPath
       clipPathUnits="userSpaceOnUse"
       id="clipPath452"><path
         d="m 21316,16775.4 c -62.6,-48.9 -277,53.2 -408.2,123.8 -64,34.4 -94.9,109.1 -73,178.4 31.6,99.5 84.2,228.1 149,244.3 107.6,26.8 590.1,-345 332.2,-546.5 z"
         id="path450" /></clipPath><linearGradient
       x1="0"
       y1="0"
       x2="1"
       y2="0"
       gradientUnits="userSpaceOnUse"
       gradientTransform="matrix(-563.052,0,0,-563.052,21390.9,17042.9)"
       spreadMethod="pad"
       id="linearGradient458"><stop
         style="stop-opacity:1;stop-color:#febbba"
         offset="0"
         id="stop454" /><stop
         style="stop-opacity:1;stop-color:#ff928e"
         offset="1"
         id="stop456" /></linearGradient><clipPath
       clipPathUnits="userSpaceOnUse"
       id="clipPath468"><path
         d="M 31873.2,13751.5 15500.3,19574.6 14634,17168.4 31001.3,11182.6 c 347.6,-127.1 735.6,13.9 921.9,333.7 191.3,328.6 374.1,842 385.2,1610.9 4,279.6 -171.8,530.6 -435.2,624.3 z"
         id="path466" /></clipPath><linearGradient
       x1="0"
       y1="0"
       x2="1"
       y2="0"
       gradientUnits="userSpaceOnUse"
       gradientTransform="matrix(23748.3,-17324,17324,23748.3,15116.2,21412.8)"
       spreadMethod="pad"
       id="linearGradient474"><stop
         style="stop-opacity:1;stop-color:#09005d"
         offset="0"
         id="stop470" /><stop
         style="stop-opacity:1;stop-color:#1a0f91"
         offset="1"
         id="stop472" /></linearGradient><clipPath
       clipPathUnits="userSpaceOnUse"
       id="clipPath484"><path
         d="m 10435,20196.5 2261.6,-277.7 c -2.4,-311.3 -104.3,-714 -449.3,-1176 l -1888.8,1246 c -100.3,66.1 -42.8,222.3 76.5,207.7 z"
         id="path482" /></clipPath><linearGradient
       x1="0"
       y1="0"
       x2="1"
       y2="0"
       gradientUnits="userSpaceOnUse"
       gradientTransform="matrix(-3128.1,2719.04,-2719.04,-3128.1,14283.6,17557.4)"
       spreadMethod="pad"
       id="linearGradient490"><stop
         style="stop-opacity:1;stop-color:#09005d"
         offset="0"
         id="stop486" /><stop
         style="stop-opacity:1;stop-color:#1a0f91"
         offset="1"
         id="stop488" /></linearGradient><clipPath
       clipPathUnits="userSpaceOnUse"
       id="clipPath500"><path
         d="m 15500.3,19574.6 c 103.6,-1508 -866.3,-2406.2 -866.3,-2406.2 l -2386.7,1574.4 c 345,462 446.9,864.7 449.3,1176 z"
         id="path498" /></clipPath><linearGradient
       x1="0"
       y1="0"
       x2="1"
       y2="0"
       gradientUnits="userSpaceOnUse"
       gradientTransform="matrix(11582,-11902.8,11902.8,11582,11548.7,21548.2)"
       spreadMethod="pad"
       id="linearGradient506"><stop
         style="stop-opacity:1;stop-color:#ff928e"
         offset="0"
         id="stop502" /><stop
         style="stop-opacity:1;stop-color:#fe7062"
         offset="1"
         id="stop504" /></linearGradient><clipPath
       clipPathUnits="userSpaceOnUse"
       id="clipPath516"><path
         d="m 31670.1,13013.6 c 19.8,0 38.4,12.3 45.3,32.1 8.9,25.1 -4.2,52.6 -29.3,61.4 l -15664.5,5536 c -25.2,8.8 -52.6,-4.3 -61.4,-29.4 -8.9,-25 4.3,-52.5 29.3,-61.3 l 15664.6,-5536 c 5.3,-1.9 10.7,-2.8 16,-2.8 z"
         id="path514" /></clipPath><linearGradient
       x1="0"
       y1="0"
       x2="1"
       y2="0"
       gradientUnits="userSpaceOnUse"
       gradientTransform="matrix(10452.4,-10741.9,10741.9,10452.4,18611.6,21200.7)"
       spreadMethod="pad"
       id="linearGradient522"><stop
         style="stop-opacity:1;stop-color:#4f52ff"
         offset="0"
         id="stop518" /><stop
         style="stop-opacity:1;stop-color:#4042e2"
         offset="1"
         id="stop520" /></linearGradient><clipPath
       clipPathUnits="userSpaceOnUse"
       id="clipPath532"><path
         d="m 31399.9,12069.6 c 19.8,0 38.4,12.3 45.3,32.1 8.9,25 -4.3,52.5 -29.3,61.4 l -15664.5,5536 c -25.2,8.8 -52.6,-4.2 -61.4,-29.3 -8.9,-25.1 4.3,-52.6 29.3,-61.4 l 15664.5,-5536 c 5.4,-1.9 10.8,-2.8 16.1,-2.8 z"
         id="path530" /></clipPath><linearGradient
       x1="0"
       y1="0"
       x2="1"
       y2="0"
       gradientUnits="userSpaceOnUse"
       gradientTransform="matrix(10452.4,-10742,10742,10452.4,18341.4,20256.7)"
       spreadMethod="pad"
       id="linearGradient538"><stop
         style="stop-opacity:1;stop-color:#4f52ff"
         offset="0"
         id="stop534" /><stop
         style="stop-opacity:1;stop-color:#4042e2"
         offset="1"
         id="stop536" /></linearGradient><clipPath
       clipPathUnits="userSpaceOnUse"
       id="clipPath548"><path
         d="m 26921.3,15647.5 -723.6,59 -313.4,-288.9 c 0,0 74.1,-102.5 305.9,-43.6 231.8,58.9 549.3,73.4 549.3,73.4 0,0 320,-144.3 323.9,125.7 z"
         id="path546" /></clipPath><linearGradient
       x1="0"
       y1="0"
       x2="1"
       y2="0"
       gradientUnits="userSpaceOnUse"
       gradientTransform="matrix(1996.46,-1767.91,1767.91,1996.46,25750.3,16135.2)"
       spreadMethod="pad"
       id="linearGradient554"><stop
         style="stop-opacity:1;stop-color:#febbba"
         offset="0"
         id="stop550" /><stop
         style="stop-opacity:1;stop-color:#ff928e"
         offset="1"
         id="stop552" /></linearGradient></defs><sodipodi:namedview
     pagecolor="#ffffff"
     bordercolor="#666666"
     borderopacity="1"
     objecttolerance="10"
     gridtolerance="10"
     guidetolerance="10"
     inkscape:pageopacity="0"
     inkscape:pageshadow="2"
     inkscape:window-width="640"
     inkscape:window-height="480"
     id="namedview4" /><g
     id="g10"
     inkscape:groupmode="layer"
     inkscape:label="ink_ext_XXXXXX"
     transform="matrix(1.3333333,0,0,-1.3333333,0,4946.6667)"><g
       id="g12"
       transform="scale(0.1)"><path
         d="M 0,0 H 37100 V 37100 H 0 Z"
         style="fill:#ffffff;fill-opacity:1;fill-rule:nonzero;stroke:none"
         id="path14" /><g
         id="g16"><g
           id="g18"
           clip-path="url(#clipPath22)"><path
             d="m 18146.9,4550 c -1874.6,0 -3378.1,198.8 -4060.1,325.7 -2686.5,500 -4072.9,692.3 -5964.48,2302 H 28138.7 c -54.8,-37.3 -113.4,-76.5 -177.6,-119.4 C 24936.2,5038.6 21085.7,4550 18146.9,4550 M 6176.05,9414.8 c -2880.63,4582.6 -2289.92,11752.6 777.75,16439.7 19.95,30.5 46.74,70.6 80.33,119.7 l 150.43,-3106.6 -139.39,3.6 c -9.77,0.3 -19.56,0.4 -29.3,0.4 -299.11,0 -586.5,-118.4 -798.8,-330 -219.21,-218.5 -339.16,-517.3 -331.85,-826.6 L 6176.05,9414.8 m 25250.05,1847.6 149.2,10303.8 c 0,237.7 -270,693.5 -766.3,693.5 -18.4,0 -37.2,-0.6 -56.3,-1.9 l -570.5,14.7 c 490.1,958.2 783.4,1873.7 943.3,2717.3 2055.6,-4187.5 2276,-9595.7 300.6,-13727.4 M 28511,25860.6 c -11.9,1183.4 -174.9,2260.8 -387.4,3172.2 414.2,-379.8 912.5,-886.7 1424.1,-1532.6 -310.5,-496.3 -666,-1045.2 -1036.7,-1639.6 m -3699.9,110.7 -2659.6,2938.1 -12404.08,75.9 c 1636.58,1432 3938.78,2883 6793.98,3256.2 44.9,5.9 762,100.5 1861.6,100.5 2034.1,0 5377.2,-323.5 8199.2,-2131.6 -322.8,-973.3 -868.9,-2364 -1791.1,-4239.1"
             style="fill:url(#linearGradient28);fill-opacity:1;fill-rule:nonzero;stroke:none"
             id="path30" /></g></g><path
         d="m 30582.3,29478.1 c 35.3,123.2 209.1,126.9 251.5,6 430.6,-1227.8 1222.1,-4645.3 -1431.9,-8518.6 -3329.8,-4859.6 -3233.4,-7314.7 -2488.6,-9169 0,0 -1565.1,1503.7 -1728.7,4029.1 -401.5,6200.5 4769.6,11462.8 5397.7,13652.5"
         style="fill:#91b3fa;fill-opacity:1;fill-rule:nonzero;stroke:none"
         id="path32" /><path
         d="m 30380.1,27524.7 c -195.1,-632.4 -402.5,-1260.5 -632.6,-1880.2 -226.8,-620.7 -472.3,-1234.3 -736.6,-1839.4 -266.5,-604 -544.4,-1202.9 -847.3,-1789.1 -300.2,-587.6 -625.4,-1161.6 -953.8,-1736.7 -325.1,-576.7 -655.8,-1155.8 -928.3,-1770.5 -272.5,-613.1 -476.1,-1268.7 -554,-1942 -19.2,-167.9 -35.4,-336.8 -41.6,-504.9 -9.2,-168.2 -11,-336.7 -9.8,-505.3 4,-337.1 30.5,-674.6 81.9,-1008.5 104.5,-667.8 310.6,-1319.1 594.5,-1927.3 29.9,-64 106,-91.7 170,-61.8 62.9,29.4 90.7,103.3 63.4,166.6 l -0.2,0.4 c -64.9,149.9 -127.9,300.3 -184.1,453 -29.3,76 -55.2,153 -82.5,229.6 -24.4,77.5 -51.8,154 -73.7,232.2 -93.1,311.1 -164.2,628.3 -211.6,949.2 -97.7,640.7 -100.1,1299.3 -26.9,1942.6 40.2,321.4 104.1,639.2 192.2,951.1 88.4,311.7 200.8,617.2 330.8,916.5 260,599 582.6,1174.8 903.5,1753.8 320.2,579.5 638,1164 931.3,1760.7 147.4,298 289.5,598.5 426.1,901.4 69.1,151.1 135.3,303.5 201.8,455.7 65.1,152.9 129.2,306.1 192.1,459.8 250.6,615.3 482.2,1237.9 693.9,1867 208.6,630.1 400.4,1265.5 567.5,1907.3 4.7,18.3 -6.3,37.1 -24.6,41.8 -17.8,4.7 -36,-5.7 -41.4,-23"
         style="fill:#bdd0fb;fill-opacity:1;fill-rule:nonzero;stroke:none"
         id="path34" /><path
         d="m 24567,16309.2 c -163.8,-170 -448,-117.4 -543,98.7 -524.2,1192.5 -1701.2,4698.1 352.3,8698.6 1734.1,3378.2 2353.4,5374.8 2571.7,6300.6 46.2,195.8 315.4,218.8 394.6,33.9 873,-2040.3 3160.9,-8972.8 -2775.6,-15131.8"
         style="fill:#bdd0fb;fill-opacity:1;fill-rule:nonzero;stroke:none"
         id="path36" /><g
         id="g38"><g
           id="g40"
           clip-path="url(#clipPath44)"><path
             d="m 25167,22402.3 -187.7,4.9 c 350.8,1533.7 851.4,3194 1564.8,4753.4 15.6,33.8 49,53.8 84,53.8 12.8,0 25.8,-2.7 38.2,-8.4 46.3,-21.2 66.7,-75.8 45.5,-122.2 -702.3,-1534.9 -1196.9,-3169 -1544.8,-4681.5"
             style="fill:url(#linearGradient50);fill-opacity:1;fill-rule:nonzero;stroke:none"
             id="path52" /></g></g><g
         id="g54"><g
           id="g56"
           clip-path="url(#clipPath60)"><path
             d="M 30924.8,7177.7 H 6666.94 c -246.71,0 -448.59,201.7 -448.59,448.2 l -42.3,1788.9 -290.83,12300.2 c -7.31,309.3 112.64,608.1 331.85,826.6 212.3,211.6 499.69,330 798.8,330 9.74,0 19.53,-0.1 29.3,-0.4 l 139.39,-3.6 25.66,-529.8 -71.81,1.9 c -7.1,0.2 -14.23,0.3 -21.31,0.3 -209.88,0 -411.48,-83.3 -560.49,-231.9 -154.04,-153.6 -238.75,-363.9 -233.3,-581.4 L 6661.23,8055.9 c 0,-233.5 190.97,-424.4 424.4,-424.4 H 30339.8 c 233.5,0 424.4,190.9 424.4,424.4 l 190.5,12655.1 c -21.8,740.5 -653.7,1019.8 -1060.7,1019.8 -11.6,0 -22.9,-0.2 -34.1,-0.7 l -5231.6,140.4 26.5,545.1 324.5,-8.4 187.7,-4.9 2902.8,-75.1 248.6,-6.4 240.2,-6.3 1623.6,-42 570.5,-14.7 c 19.1,1.3 37.9,1.9 56.3,1.9 496.3,0 766.3,-455.8 766.3,-693.5 l -149.2,-10303.8 -52.7,-3636.5 c 0,-246.5 -201.8,-448.2 -448.6,-448.2"
             style="fill:url(#linearGradient66);fill-opacity:1;fill-rule:nonzero;stroke:none"
             id="path68" /></g></g><g
         id="g70"><g
           id="g72"
           clip-path="url(#clipPath76)"><path
             d="M 30339.8,7631.5 H 7085.63 c -233.43,0 -424.4,190.9 -424.4,424.4 l -337.92,13470.8 c -5.45,217.5 79.26,427.8 233.3,581.4 149.01,148.6 350.61,231.9 560.49,231.9 7.08,0 14.21,-0.1 21.31,-0.3 l 71.81,-1.9 709.65,-14655.4 H 23937.7 l 672.5,13817 5037.2,-135.1 c 1.9,0.1 8.9,0.3 20.2,0.3 88.2,0 437.5,-14.9 667.1,-234.9 138.8,-132.9 209.6,-319.3 210.7,-552.8 l -57.7,-3930.8 c -0.5,-34.4 26.9,-62.7 61.3,-63.2 h 0.9 c 33.9,0 61.6,27.3 62.2,61.3 l 57.7,3932.1 c -1.3,269.6 -85,486.1 -249,643.2 -258.3,247.5 -631.5,269.8 -744.5,269.8 -14.5,0 -24.7,-0.4 -29.9,-0.7 l -5030.1,135 12,246.9 5231.6,-140.4 c 11.2,0.5 22.5,0.7 34.1,0.7 407,0 1038.9,-279.3 1060.7,-1019.8 L 30764.2,8055.9 c 0,-233.5 -190.9,-424.4 -424.4,-424.4 m 188.2,7587.2 c -33.9,0 -61.7,-27.3 -62.2,-61.3 l -15,-1026.3 c -0.6,-34.4 26.9,-62.7 61.2,-63.2 h 1 c 33.9,0 61.6,27.3 62.1,61.3 l 15.1,1026.3 c 0.5,34.4 -26.9,62.7 -61.3,63.2 h -0.9"
             style="fill:url(#linearGradient82);fill-opacity:1;fill-rule:nonzero;stroke:none"
             id="path84" /></g></g><g
         id="g86"><g
           id="g88"
           clip-path="url(#clipPath92)"><path
             d="m 30513,14067.9 h -1 c -34.3,0.5 -61.8,28.8 -61.2,63.2 l 15,1026.3 c 0.5,34 28.3,61.3 62.2,61.3 h 0.9 c 34.4,-0.5 61.8,-28.8 61.3,-63.2 l -15.1,-1026.3 c -0.5,-34 -28.2,-61.3 -62.1,-61.3"
             style="fill:url(#linearGradient98);fill-opacity:1;fill-rule:nonzero;stroke:none"
             id="path100" /></g></g><g
         id="g102"><g
           id="g104"
           clip-path="url(#clipPath108)"><path
             d="m 30549.9,16582.9 h -0.9 c -34.4,0.5 -61.8,28.8 -61.3,63.2 l 57.7,3930.8 c -1.1,233.5 -71.9,419.9 -210.7,552.8 -229.6,220 -578.9,234.9 -667.1,234.9 -11.3,0 -18.3,-0.2 -20.2,-0.3 l -5037.2,135.1 6.1,124.2 5030.1,-135 c 5.2,0.3 15.4,0.7 29.9,0.7 113,0 486.2,-22.3 744.5,-269.8 164,-157.1 247.7,-373.6 249,-643.2 l -57.7,-3932.1 c -0.6,-34 -28.3,-61.3 -62.2,-61.3"
             style="fill:url(#linearGradient114);fill-opacity:1;fill-rule:nonzero;stroke:none"
             id="path116" /></g></g><g
         id="g118"><g
           id="g120"
           clip-path="url(#clipPath124)"><path
             d="M 4306.99,6020.5 H 32793 c 31.1,0 56.6,25.5 56.6,56.6 v 1111.7 c 0,31.1 -25.5,56.6 -56.6,56.6 H 4306.99 c -31.1,0 -56.54,-25.5 -56.54,-56.6 V 6077.1 c 0,-31.1 25.44,-56.6 56.54,-56.6"
             style="fill:url(#linearGradient130);fill-opacity:1;fill-rule:nonzero;stroke:none"
             id="path132" /></g></g><path
         d="m 22151.5,28909.4 -14393.93,88.1 c -473.06,2.9 -851.39,-392.2 -827.96,-864.7 L 7919.87,7682.4 H 23937.7 l 889.3,18271.3 -2675.5,2955.7"
         style="fill:#91b3fa;fill-opacity:1;fill-rule:nonzero;stroke:none"
         id="path134" /><g
         id="g136"><g
           id="g138"
           clip-path="url(#clipPath142)"><path
             d="m 22750,26041.3 c -468.8,16.5 -829.3,420.6 -792.3,888.3 l 154.3,1952.8 2717.9,-2916.7 -2079.9,75.6"
             style="fill:url(#linearGradient148);fill-opacity:1;fill-rule:nonzero;stroke:none"
             id="path150" /></g></g><path
         d="m 14522.2,24317.3 c -143.5,0 -262.8,125.8 -275.6,291.2 l -3.3,42.1 c -14.7,190 115.5,354.9 280.7,355.2 1292.1,2 6252.6,17.8 7505.1,21.8 0.3,0 0.6,0 0.8,0 157.7,0 282.6,-150.5 276.4,-332.8 -6,-173.7 -129.8,-312.3 -280.2,-313.6 l -7501.8,-63.9 c -0.7,0 -1.4,0 -2.1,0"
         style="fill:#e7eefe;fill-opacity:1;fill-rule:nonzero;stroke:none"
         id="path152" /><path
         d="m 14463.3,22882.9 c -143.5,0 -262.8,125.8 -275.7,291.2 l -3.2,42 c -14.7,190 115.4,355 280.7,355.2 1292.1,2 6252.5,17.9 7505.1,21.9 0.3,0 0.6,0 0.8,0 157.6,0 282.6,-150.6 276.4,-332.8 -6,-173.8 -129.8,-312.3 -280.2,-313.6 l -7501.8,-63.9 c -0.7,0 -1.4,0 -2.1,0"
         style="fill:#e7eefe;fill-opacity:1;fill-rule:nonzero;stroke:none"
         id="path154" /><path
         d="m 10002.5,20838.3 c -222.16,0 -410.59,126.3 -435.23,292.1 l -6.25,42 c -28.26,190.1 167.76,354.7 422.74,354.7 0.14,0 0.27,0 0.41,0 400.33,-0.3 1028.93,-0.4 1793.33,-0.4 3045.8,0 8251.1,1.8 9797.5,2.4 0,0 0.1,0 0.2,0 243.9,0 441.8,-151.1 437.5,-333.7 -4.2,-173.8 -191.3,-312.1 -423.6,-313 l -11584.3,-44.1 c -0.8,0 -1.5,0 -2.3,0"
         style="fill:#e7eefe;fill-opacity:1;fill-rule:nonzero;stroke:none"
         id="path156" /><path
         d="m 9899.66,19333 c -172.12,0 -316.98,125.2 -334.95,290.3 l -4.58,42 c -20.69,190 133.2,355.4 331.83,356.3 1553.34,6.7 7516.44,40.7 9022.24,49.3 0.7,0 1.4,0 2.1,0 189,0 341,-149.9 336.3,-331.8 -4.4,-173.8 -151,-312.8 -331.8,-314.7 L 9903.25,19333 c -1.19,0 -2.39,0 -3.59,0"
         style="fill:#e7eefe;fill-opacity:1;fill-rule:nonzero;stroke:none"
         id="path158" /><path
         d="m 9982.88,17361.7 c -222.16,0 -410.6,126.3 -435.24,292.1 l -6.25,42 c -28.25,190.1 167.76,354.7 422.72,354.7 0.16,0 0.28,0 0.43,0 399.26,-0.3 1025.96,-0.4 1787.46,-0.4 3044.9,0 8255.9,1.8 9803.3,2.4 244,0.1 442.1,-151.1 437.7,-333.7 -4.1,-173.8 -191.3,-312.1 -423.5,-313 l -11584.35,-44.1 c -0.75,0 -1.52,0 -2.27,0"
         style="fill:#e7eefe;fill-opacity:1;fill-rule:nonzero;stroke:none"
         id="path160" /><path
         d="m 9796.77,15831.3 c -173.91,0 -319.84,126.5 -336.99,292.3 l -4.35,42.1 c -19.65,189.9 135.59,354.2 334.83,354.2 0.23,0 0.43,0 0.66,0 1560.68,-2.8 7552.08,-5.6 9064.98,-6.3 190.8,-0.1 343.8,-151.4 338,-333.9 -5.5,-173.8 -153.6,-311.9 -335.3,-312.7 l -9060.4,-35.7 c -0.47,0 -0.96,0 -1.43,0"
         style="fill:#e7eefe;fill-opacity:1;fill-rule:nonzero;stroke:none"
         id="path162" /><path
         d="m 9884.49,13814.2 c -222.16,0 -410.6,126.3 -435.23,292 l -6.26,42.1 c -28.26,190 167.77,354.6 422.74,354.6 0.14,0 0.27,0 0.41,0 399.35,-0.3 1026.35,-0.4 1788.25,-0.4 3045,0 8255.2,1.9 9802.5,2.4 0.1,0 0.2,0 0.3,0 243.9,0 441.8,-151.1 437.4,-333.6 -4.1,-173.9 -191.3,-312.1 -423.5,-313 l -11584.34,-44.1 c -0.75,0 -1.52,0 -2.27,0"
         style="fill:#e7eefe;fill-opacity:1;fill-rule:nonzero;stroke:none"
         id="path164" /><path
         d="m 9751.48,12301.9 c -173.89,0 -319.83,126.4 -336.99,292.3 l -4.34,42 c -19.65,190 135.59,354.3 334.83,354.3 0.23,0 0.42,0 0.65,0 1560.67,-2.9 7552.07,-5.7 9064.97,-6.4 190.8,0 343.8,-151.3 338,-333.9 -5.5,-173.8 -153.6,-311.9 -335.2,-312.6 l -9060.48,-35.7 c -0.47,0 -0.97,0 -1.44,0"
         style="fill:#e7eefe;fill-opacity:1;fill-rule:nonzero;stroke:none"
         id="path166" /><path
         d="m 10002.5,10307.8 c -222.16,0 -410.59,126.3 -435.23,292.1 l -6.25,42 c -28.26,190.1 167.76,354.7 422.74,354.7 0.14,0 0.27,0 0.41,0 399.53,-0.3 1026.73,-0.4 1788.93,-0.4 3045.1,0 8254.7,1.8 9801.9,2.4 0,0 0.1,0 0.2,0 243.9,0 441.8,-151.1 437.5,-333.7 -4.2,-173.8 -191.3,-312.1 -423.6,-313 l -11584.3,-44.1 c -0.8,0 -1.5,0 -2.3,0"
         style="fill:#e7eefe;fill-opacity:1;fill-rule:nonzero;stroke:none"
         id="path168" /><path
         d="m 9877.11,8631.7 c -171.43,0 -315.33,126.1 -332.4,291.7 l -4.34,42.1 c -19.62,190.1 133.85,354.8 330.88,354.8 0.01,0 0,0 0.02,0 8.18,0 16.56,0 24.98,0 1578.75,0 7439.55,7.7 8925.45,9.7 0.2,0 0.3,0 0.5,0 188.2,0 339.1,-150.9 333.6,-333.3 -5.2,-173.8 -151.4,-312.2 -330.7,-313.2 l -8945.96,-51.8 c -0.67,0 -1.36,0 -2.03,0"
         style="fill:#e7eefe;fill-opacity:1;fill-rule:nonzero;stroke:none"
         id="path170" /><path
         d="m 12569.1,22897.5 -209,3.6 -940.3,3015.3 -811.2,-2986 -219.4,3.7 -1431.07,3663.4 c -65.52,172.9 -132.2,276.2 -199.96,309.9 -67.89,33.6 -252.93,56 -556.01,66.8 v 56.3 l 2225.84,-80.4 v -55.7 c -75.8,2.7 -145,4.1 -207.4,4.1 -154.2,0 -267.44,-8.3 -339.75,-24.9 -101.8,-23.4 -152.7,-74.4 -152.7,-153.2 0,-41.5 13.02,-91.9 39.02,-150.8 l 1015.43,-2628.8 585.8,2131.2 -136.3,445.6 c -51.8,167.5 -114.3,269.1 -187.7,304.9 -73.4,35.8 -261.5,59.1 -565,70 v 55.7 l 2188.3,-79.1 v -55.1 c -73.1,2.6 -139.7,3.9 -200,3.9 -151.4,0 -262.5,-8.2 -333.4,-24.7 -99.2,-23.2 -148.8,-77.9 -148.8,-164 0,-45.1 8.4,-90.6 25.4,-136.3 l 817.2,-2602.6 692.6,1885.1 c 70.3,197.2 105.6,359 105.6,485.2 0,346 -250.8,528 -754.1,546.1 v 55 l 1614.3,-58.3 v -54.7 c -10.2,0.4 -20.5,0.6 -30.6,0.6 -278.9,0 -486.8,-140.6 -623.3,-422.1 -20.9,-44 -97.9,-240.7 -231.4,-590.4 l -1032.1,-2839.3"
         style="fill:#e7eefe;fill-opacity:1;fill-rule:nonzero;stroke:none"
         id="path172" /><g
         id="g174"><g
           id="g176"
           clip-path="url(#clipPath180)"><path
             d="m 24659.6,7757.7 c 285.4,-24.7 780.8,-64.8 1171.3,-81.9 234.7,-10.4 369.8,12.6 447.7,43.8 -0.2,-8.8 -0.4,-17.1 -0.7,-24.8 -1.9,-41.1 -35.3,-74 -76.8,-76.3 -737.9,-41.2 -1324.7,-14.2 -1533.6,-1.5 -43.2,2.6 -68.9,49.6 -46.8,86.4 11,18.4 24.4,36.4 38.9,54.3"
             style="fill:url(#linearGradient186);fill-opacity:1;fill-rule:nonzero;stroke:none"
             id="path188" /></g></g><g
         id="g190"><g
           id="g192"
           clip-path="url(#clipPath196)"><path
             d="m 25830.9,7675.8 c -390.5,17.1 -885.9,57.2 -1171.3,81.9 280.6,344.2 1171.3,576.3 1171.3,576.3 h 251.5 c 173,-249.4 198.1,-486.8 196.2,-614.4 -77.9,-31.2 -213,-54.2 -447.7,-43.8"
             style="fill:url(#linearGradient202);fill-opacity:1;fill-rule:nonzero;stroke:none"
             id="path204" /></g></g><g
         id="g206"><g
           id="g208"
           clip-path="url(#clipPath212)"><path
             d="m 26124.8,8744.6 -23.6,-465.8 c -2.5,-50.4 -40.3,-92.8 -90.8,-100 -50.3,-7.2 -117.6,-8.1 -189,15.6 -43.9,14.6 -76.5,51.6 -84.6,96.8 l -81.3,453.4 h 469.3"
             style="fill:url(#linearGradient218);fill-opacity:1;fill-rule:nonzero;stroke:none"
             id="path220" /></g></g><g
         id="g222"><g
           id="g224"
           clip-path="url(#clipPath228)"><path
             d="m 29392,7679.2 c 123.7,17.3 179.7,81.6 203.2,150.3 l 0.5,-1.8 c 18.2,-72.5 -24,-147.7 -108.4,-183.4 -102,-43.2 -213.5,-50.6 -300.1,-47 -92.9,3.8 -178.2,42.3 -225.1,103.8 l -0.7,0.9 c 93.3,-46.1 224.2,-51.5 430.6,-22.8"
             style="fill:url(#linearGradient234);fill-opacity:1;fill-rule:nonzero;stroke:none"
             id="path236" /></g></g><g
         id="g238"><g
           id="g240"
           clip-path="url(#clipPath244)"><path
             d="m 28808.4,8747.6 h 207.5 c 315.9,6.5 514.4,-660 579.3,-918.1 -23.5,-68.7 -79.5,-133 -203.2,-150.3 -206.4,-28.7 -337.3,-23.3 -430.6,22.8 -170.7,224.7 -255.3,553.7 -296,745.7 -46.3,218.4 143,299.9 143,299.9"
             style="fill:url(#linearGradient250);fill-opacity:1;fill-rule:nonzero;stroke:none"
             id="path252" /></g></g><g
         id="g254"><g
           id="g256"
           clip-path="url(#clipPath260)"><path
             d="m 28989.2,9180 115.2,-458.2 c 14.1,-56.1 -12.8,-114.3 -64.7,-140.9 -64.4,-33.1 -155.2,-67.8 -238.5,-57.8 -39.3,4.8 -71.8,32.4 -84.8,69.3 l -169.1,482 441.9,105.6"
             style="fill:url(#linearGradient266);fill-opacity:1;fill-rule:nonzero;stroke:none"
             id="path268" /></g></g><g
         id="g270"><g
           id="g272"
           clip-path="url(#clipPath276)"><path
             d="m 29126.6,9047.5 c -143.3,-127.1 -609.5,-143.9 -609.5,-143.9 -1679.1,4030.2 -2366,4602.7 -2366,4602.7 242.5,-1521.2 39.1,-4888.8 39.1,-4888.8 -277.1,-122.3 -634.3,0 -634.3,0 -22.5,2490.3 -405.3,4662.1 -857.5,6374.3 1134.9,25.6 1738.4,413.9 1935.5,569.8 946,-1525.2 2492.7,-6514.1 2492.7,-6514.1"
             style="fill:url(#linearGradient282);fill-opacity:1;fill-rule:nonzero;stroke:none"
             id="path284" /></g></g><g
         id="g286"><g
           id="g288"
           clip-path="url(#clipPath292)"><path
             d="m 26345.7,20196.2 c 214.8,-1071.5 137.8,-2989.2 87.2,-3864 -14.2,-245.8 157.5,-586.7 296.2,-819.2 21.7,-36.5 8.3,-83.2 -29.5,-102.6 -232.2,-119.4 -1019.1,-489.3 -1931,-535.3 -60.8,-3.1 -115.1,38.3 -130.8,97.1 -676.5,2525.8 -1462.2,4139.8 -1462.2,4139.8 867.4,1385.2 3170.1,1084.2 3170.1,1084.2"
             style="fill:url(#linearGradient298);fill-opacity:1;fill-rule:nonzero;stroke:none"
             id="path300" /></g></g><g
         id="g302"><g
           id="g304"
           clip-path="url(#clipPath308)"><path
             d="m 26036.5,13601.7 c 9.6,0 19.2,2.6 28,7.9 25.3,15.5 33.3,48.5 17.9,73.8 -9,14.9 -226.2,366 -665.7,578 -26.7,12.8 -58.9,1.8 -71.9,-25 -12.9,-26.8 -1.6,-59 25.1,-71.8 409.8,-197.7 618.6,-533.8 620.7,-537.1 10.1,-16.6 27.8,-25.8 45.9,-25.8"
             style="fill:url(#linearGradient314);fill-opacity:1;fill-rule:nonzero;stroke:none"
             id="path316" /></g></g><g
         id="g318"><g
           id="g320"
           clip-path="url(#clipPath324)"><path
             d="m 27693.1,17121.1 c -69,-499.2 -272.9,-1043.6 -680.7,-1621.9 l -155,126.3 c 0,0 178.9,726.1 77.2,1550.2 251.6,49 548.7,-1.5 758.5,-54.6"
             style="fill:url(#linearGradient330);fill-opacity:1;fill-rule:nonzero;stroke:none"
             id="path332" /></g></g><g
         id="g334"><g
           id="g336"
           clip-path="url(#clipPath340)"><path
             d="m 26105.8,18874.2 239.9,1322 c 0,0 1603.1,-1225.4 1347.4,-3075.1 -209.8,53.1 -506.9,103.6 -758.5,54.6 -73.3,593.6 -292.2,1238 -828.8,1698.5"
             style="fill:url(#linearGradient346);fill-opacity:1;fill-rule:nonzero;stroke:none"
             id="path348" /></g></g><g
         id="g350"><g
           id="g352"
           clip-path="url(#clipPath356)"><path
             d="m 23175.6,19112 618.8,-1332.7 c -100.1,-804.5 -532.3,-1152.4 -998.3,-1285.8 -29,366.6 -121.8,662.9 -207.8,867.8 595.5,614.8 587.3,1750.7 587.3,1750.7"
             style="fill:url(#linearGradient362);fill-opacity:1;fill-rule:nonzero;stroke:none"
             id="path364" /></g></g><g
         id="g366"><g
           id="g368"
           clip-path="url(#clipPath372)"><path
             d="m 22588.3,17361.3 c 86,-204.9 178.8,-501.2 207.8,-867.8 -1243.3,-482.4 -1572.3,453.1 -1572.3,453.1 l 229.8,40.5 c 518.9,-54.6 881.4,112.7 1134.7,374.2"
             style="fill:url(#linearGradient378);fill-opacity:1;fill-rule:nonzero;stroke:none"
             id="path380" /></g></g><g
         id="g382"><g
           id="g384"
           clip-path="url(#clipPath388)"><path
             d="m 23745.7,20757.3 298.7,-1098.2 c 33.6,-123.4 167,-189.6 285.8,-142.2 128.1,51.2 290.6,121.1 430.5,196.7 149.4,80.6 196.1,272.7 101.6,413.7 l -621.1,926.1 -495.5,-296.1"
             style="fill:url(#linearGradient394);fill-opacity:1;fill-rule:nonzero;stroke:none"
             id="path396" /></g></g><g
         id="g398"><g
           id="g400"
           clip-path="url(#clipPath404)"><path
             d="m 23092.2,21591.6 c -2.8,-18.9 249.1,-1253.2 249.1,-1253.2 l 701.7,158.8 -64.9,1205.4 c 0,0 -840.4,204.7 -885.9,-111"
             style="fill:url(#linearGradient410);fill-opacity:1;fill-rule:nonzero;stroke:none"
             id="path412" /></g></g><g
         id="g414"><g
           id="g416"
           clip-path="url(#clipPath420)"><path
             d="m 23820.3,21434 83.9,-631.9 c 1,-8.1 1,-16.1 -0.1,-24.2 -7.1,-49.5 -44,-218.1 -214.2,-169.9 -154.4,43.8 -296,81.4 -393.8,51.5 -43.9,-13.5 -70.4,-58 -61.2,-103 22.9,-112.1 79.2,-363.8 161.5,-575.1 16.7,-42.9 63.6,-65.4 107.8,-52.5 133.1,38.8 411.5,128.5 618.5,253.1 28.1,16.9 44.8,47.4 43.4,80.1 -6.7,159.5 -25.3,644.4 -9.7,780.3 14.8,127.6 171.4,204 239.4,231.4 22.3,9 39.8,26.6 48.7,48.9 31.5,79 74.9,261.6 -155.3,336.5 -48.2,15.7 -73.6,67.6 -56.4,115.3 34.1,94.9 48.4,239.8 -129.7,319.6 -181,81.1 -316.1,-15.4 -389.1,-93.8 -29.6,-31.7 -76.9,-36.6 -113.5,-13.4 -20.9,13.1 -47.7,17.5 -80.2,-2.7 -43.7,-27.3 -101.6,-8.7 -124.2,37.6 -43.3,89 -131.7,184.3 -308.9,153.9 -314.4,-53.8 -350.1,-402.3 -267.1,-606.5 83,-204.2 420.6,-126.4 589.9,-23.5 128.8,78.3 295.8,-3.7 368.5,-47.6 23,-13.8 38.3,-37.5 41.8,-64.1"
             style="fill:url(#linearGradient426);fill-opacity:1;fill-rule:nonzero;stroke:none"
             id="path428" /></g></g><g
         id="g430"><g
           id="g432"
           clip-path="url(#clipPath436)"><path
             d="m 24184.7,20812.1 c 0,0 -129.3,362 3.5,450.6 132.9,88.7 329.6,42.6 286.3,-219.6 -53.9,-326.2 -289.8,-231 -289.8,-231"
             style="fill:url(#linearGradient442);fill-opacity:1;fill-rule:nonzero;stroke:none"
             id="path444" /></g></g><g
         id="g446"><g
           id="g448"
           clip-path="url(#clipPath452)"><path
             d="m 21316,16775.4 c -62.6,-48.9 -277,53.2 -408.2,123.8 -64,34.4 -94.9,109.1 -73,178.4 31.6,99.5 84.2,228.1 149,244.3 107.6,26.8 590.1,-345 332.2,-546.5"
             style="fill:url(#linearGradient458);fill-opacity:1;fill-rule:nonzero;stroke:none"
             id="path460" /></g></g><g
         id="g462"><g
           id="g464"
           clip-path="url(#clipPath468)"><path
             d="M 31873.2,13751.5 15500.3,19574.6 14634,17168.4 31001.3,11182.6 c 347.6,-127.1 735.6,13.9 921.9,333.7 191.3,328.6 374.1,842 385.2,1610.9 4,279.6 -171.8,530.6 -435.2,624.3"
             style="fill:url(#linearGradient474);fill-opacity:1;fill-rule:nonzero;stroke:none"
             id="path476" /></g></g><g
         id="g478"><g
           id="g480"
           clip-path="url(#clipPath484)"><path
             d="m 10435,20196.5 2261.6,-277.7 c -2.4,-311.3 -104.3,-714 -449.3,-1176 l -1888.8,1246 c -100.3,66.1 -42.8,222.3 76.5,207.7"
             style="fill:url(#linearGradient490);fill-opacity:1;fill-rule:nonzero;stroke:none"
             id="path492" /></g></g><g
         id="g494"><g
           id="g496"
           clip-path="url(#clipPath500)"><path
             d="m 15500.3,19574.6 c 103.6,-1508 -866.3,-2406.2 -866.3,-2406.2 l -2386.7,1574.4 c 345,462 446.9,864.7 449.3,1176 l 2803.7,-344.2"
             style="fill:url(#linearGradient506);fill-opacity:1;fill-rule:nonzero;stroke:none"
             id="path508" /></g></g><g
         id="g510"><g
           id="g512"
           clip-path="url(#clipPath516)"><path
             d="m 31670.1,13013.6 c 19.8,0 38.4,12.3 45.3,32.1 8.9,25.1 -4.2,52.6 -29.3,61.4 l -15664.5,5536 c -25.2,8.8 -52.6,-4.3 -61.4,-29.4 -8.9,-25 4.3,-52.5 29.3,-61.3 l 15664.6,-5536 c 5.3,-1.9 10.7,-2.8 16,-2.8"
             style="fill:url(#linearGradient522);fill-opacity:1;fill-rule:nonzero;stroke:none"
             id="path524" /></g></g><g
         id="g526"><g
           id="g528"
           clip-path="url(#clipPath532)"><path
             d="m 31399.9,12069.6 c 19.8,0 38.4,12.3 45.3,32.1 8.9,25 -4.3,52.5 -29.3,61.4 l -15664.5,5536 c -25.2,8.8 -52.6,-4.2 -61.4,-29.3 -8.9,-25.1 4.3,-52.6 29.3,-61.4 l 15664.5,-5536 c 5.4,-1.9 10.8,-2.8 16.1,-2.8"
             style="fill:url(#linearGradient538);fill-opacity:1;fill-rule:nonzero;stroke:none"
             id="path540" /></g></g><g
         id="g542"><g
           id="g544"
           clip-path="url(#clipPath548)"><path
             d="m 26921.3,15647.5 -723.6,59 -313.4,-288.9 c 0,0 74.1,-102.5 305.9,-43.6 231.8,58.9 549.3,73.4 549.3,73.4 0,0 320,-144.3 323.9,125.7 l -142.1,74.4"
             style="fill:url(#linearGradient554);fill-opacity:1;fill-rule:nonzero;stroke:none"
             id="path556" /></g></g></g></g></svg>
