<?xml version="1.0" encoding="utf-8"?>
<!-- Generator: Adobe Illustrator 24.1.3, SVG Export Plug-In . SVG Version: 6.00 Build 0)  -->
<svg version="1.1" xmlns="http://www.w3.org/2000/svg" xmlns:xlink="http://www.w3.org/1999/xlink" x="0px" y="0px"
	 viewBox="0 0 193.78 193.78" style="enable-background:new 0 0 193.78 193.78;" xml:space="preserve">
<style type="text/css">
	.st0{fill:#FFFFFF;}
</style>
<g id="Layer_2">
	<path d="M193.78,96.89C193.78,43.38,150.4,0,96.89,0S0,43.38,0,96.89c0,11.42,1.98,22.37,5.61,32.54c-1.28,2.49-2.05,5.44-2.3,8.99
		c-0.24,3.25,0.18,6.5,0.59,9.64l0.08,0.63c0.41,3.17,2.73,5.43,6.07,5.9c3.55,0.5,6.74,0.82,9.76,0.99
		c17.7,23.22,45.64,38.2,77.09,38.2c31.05,0,58.68-14.6,76.41-37.31c2.72-0.14,5.33-0.8,7.85-1.43c1.23-0.31,2.4-0.6,3.58-0.84
		c3.05-0.62,5.27-2.98,5.52-5.88c0.46-5.33,0.4-11.36-2.81-16.91C191.53,120.68,193.78,109.05,193.78,96.89z M83.9,74.52
		c1.63,3.28,3.58,6.93,1.07,10.8c-0.04,0.06-0.23,0.02-0.34,0.03c-0.27-0.14-0.54-0.31-0.82-0.41c-0.1-0.03-0.26,0.12-0.69,0.35
		c0.04,7.08,7.36,9.25,10.21,14.72c-3.34,0-6.56,0-9.92,0c-2.03-3.74-3.83-7.09-5.66-10.42c-1.65-3-2.41-6.03-1.69-9.55
		c0.66-3.23,0.56-6.61,0.93-9.92c0.49-4.45,1.11-8.88,1.83-13.35C79.68,62.94,81.09,68.88,83.9,74.52z M83.01,48.86
		c2.75-4.95,6.6-7.86,11.97-8.76c2.02-0.34,4.51-0.4,6.25,0.48c5.36,2.71,10.32,6.08,12.98,11.84c0.47,1.03,0.76,2.15,1.04,2.95
		c-0.62,3.62-0.84,7-1.83,10.12c-1.45,4.56-3.14,9.1-5.32,13.34c-2.18,4.22-5.36,7.87-10.78,7.62c-5.64-0.27-8.61-4.52-10.42-8.94
		c-2.41-5.92-5.31-11.68-5.89-18.38C80.66,55.22,81.11,52.27,83.01,48.86z M85.35,88.9c0.92-2.16,1.69-3.97,2.54-5.98
		c2.9,2.64,5.78,5.73,10.02,5.54c3.96-0.17,6.97-2.75,9.94-5.72c0.59,2.15,1.09,3.98,1.62,5.96c-3.93,4.09-7.68,8-11.51,11.98
		C92.43,97.5,89.62,92.43,85.35,88.9z M108.09,92.49c2.76-2.77,5.06-5.41,1.79-9.39c-0.56-0.69-0.27-2.24-0.08-3.34
		c0.19-1.12,0.65-2.23,1.15-3.27c2.74-5.79,5.02-11.73,6.32-18.2c0.38,1.74,0.72,3.49,1.14,5.22c1.5,6.18,1.97,12.46,1.69,18.79
		c-0.07,1.44-0.28,3.09-1.06,4.23c-3.26,4.79-6.05,10.01-11.59,13.63c-1.73,0-3.55,0-6.34,0C103.74,97.25,105.82,94.78,108.09,92.49
		z M75.77,47.95c2.51-9.97,7.78-18.24,16.75-23.77c4.19-2.58,6.86-2.33,10.84,0.83c1.95,1.55,3.9,3.11,5.98,4.48
		c5.89,3.87,10.75,12.66,10.77,19.72c0.01,3.49,0,6.98,0,10.9c-2.05-3.84-3.72-7.27-5.65-10.55c-2.89-4.89-7.49-8.02-12.33-10.55
		c-4.65-2.43-13.65,0.18-17.41,4.38c-2.31,2.58-7.37,11.85-8.35,15.64C74.88,55.02,74.93,51.28,75.77,47.95z M50.29,135.44
		c0.01,0,0.02-0.01,0.03-0.01c0,0.01,0,0.01,0,0.02c0.85-0.36,1.7-0.72,2.48-1.05c0,6.53,0,13.08,0,20.2
		c-2.61-0.85-4.76-1.56-6.92-2.27c-1.24-6.07-1.05-11.45,4.13-15.55c0.28-0.22,0.22-0.88,0.31-1.34c-0.01,0-0.02,0.01-0.03,0.01
		C50.29,135.46,50.29,135.45,50.29,135.44c-1.15,0.53-2.3,1.06-4.2,1.94c-6.67-3.52-13.81-7.28-20.96-11.04
		c1.91,2.86,4.15,5.07,7.48,5.89c1.26,0.31,2.45,1.01,3.59,1.67c2.99,1.71,5.94,3.5,9.14,5.4c-2.22,5.27-4.23,10.9,1.27,15.84
		c-1.16,1.74-2.34,0.8-3.61,0.51c-2.39-0.54-4.82-0.99-7.26-1.18c-2.97-0.23-5.79-0.71-8.71-1.55c-4.24-1.21-8.87-1.02-13.32-1.57
		c-1.89-0.23-3.74-0.8-5.09-1.09c-3.38-6.4-1.63-12.05-0.26-17.66c0.3-1.22,1.21-2.32,1.97-3.38c3.67-5.11,7.39-10.2,11.08-15.3
		c0.29-0.4,0.4-0.98,0.76-1.28c5.41-4.5,7.85-11.03,11.42-16.76C38,88.78,44.03,83.37,50.6,78.53c2.04-1.5,4.84-2.61,7.35-2.72
		c5.72-0.26,10.66-2.3,15.43-5.12c0.42-0.25,0.93-0.34,1.87-0.67c-0.23,2.66-0.28,5.12-0.7,7.51c-0.86,4.91-0.66,9.53,2.23,13.88
		c1.71,2.58,2.96,5.46,4.71,8.76c-8.97,0-17.26,0-24.8,0c-3.25,1.52-3.65,3.66-3.62,6.17c0.08,6.16-0.07,12.33,0.06,18.49
		c0.07,3.42-0.11,6.64-2.7,9.25C50.2,134.32,50.33,134.97,50.29,135.44z M139.09,152.14c0.01,2.92-1.35,4.34-4.2,4.35
		c-25.28,0.07-50.56,0.15-75.83,0.18c-3.1,0-4.59-1.72-4.58-4.86c0.03-15.08,0.03-30.16,0-45.24c-0.01-3.3,1.33-4.71,4.83-4.66
		c12.53,0.16,25.05,0.06,37.58,0.06c0-0.05,0-0.1,0-0.15c12.53,0,25.06,0.07,37.59-0.05c3.28-0.03,4.63,1.21,4.62,4.47
		C139.04,121.54,139.05,136.84,139.09,152.14z M146.02,150.18c-1.79-1.18-3.43-2.6-5.35-4.08c0-5.61,0-10.9,0-16.41
		c2.85,0.47,4.33,2.61,6.33,3.97c2.02,1.37,4.41,2.19,6.81,3.33c2.17,2.35,2.85,5.35,2.35,8.62
		C155.4,150.63,150.24,152.96,146.02,150.18z M185.98,149.44c-6.26,2.86-25.45,4.4-31.44,2.48c4.55-4.96,4.95-10.26,0.97-15.7
		c6.88-1.82,9.63-3.78,12.12-9.13c-1.25,0.98-1.9,1.32-2.3,1.84c-3.01,3.87-7.27,5.1-11.83,5.25c-1.7,0.06-3.64-0.62-5.09-1.55
		c-2.64-1.68-4.99-3.8-7.91-6.09c0-6.35-0.03-13.17,0.02-19.98c0.02-2.43-0.13-4.71-3.16-6.22c-8.28,0-17.09,0-26.37,0
		c2.59-3.41,4.78-6.57,7.24-9.5c3.23-3.85,4.14-8.21,3.56-13.04c-0.1-0.82-0.1-1.64-0.18-2.98c1.58,0.63,2.87,1.12,4.14,1.66
		c4.56,1.95,8.96,4.09,14.11,4.57c2.9,0.27,5.64,2.2,8.45,3.4c0.24,0.57,0.33,1.32,0.76,1.66c4.29,3.4,6.76,8.11,9.58,12.64
		c3.23,5.21,6.93,10.13,10.48,15.14c2.4,3.39,4.82,6.76,7.36,10.04c1.42,1.83,2.99,3.58,4.69,5.16c4.93,4.62,5.66,10.68,5.87,16.89
		C187.06,147.19,186.3,148.45,185.98,149.44z"/>
</g>
<g id="Text">
</g>
<g id="Layer_1">
</g>
</svg>
