<?xml version="1.0" encoding="utf-8"?>
<!-- Generator: Adobe Illustrator 24.1.3, SVG Export Plug-In . SVG Version: 6.00 Build 0)  -->
<svg version="1.1" id="Layer_1" xmlns="http://www.w3.org/2000/svg" xmlns:xlink="http://www.w3.org/1999/xlink" x="0px" y="0px"
	 viewBox="0 0 220 220" style="enable-background:new 0 0 220 220;" xml:space="preserve">
<style type="text/css">
	.st0{fill:#FFFFFF;}
</style>
<path d="M158.21,90.42c3.64,1.42,6.14,4.2,7.92,7.46c4.41,8.12,9.65,15.63,15.54,22.73c3.38,4.07,6.59,8.27,9.97,12.34
	c4.23,5.08,4.63,11.07,4.1,17.22c-0.17,2.02-1.78,3.46-3.68,3.84c-5.12,1.03-10.14,3.17-15.58,1.52c-1.24-0.38-2.79-0.03-4.13,0.26
	c-3.12,0.68-6.17,0.81-9.17-0.49c-0.57-0.25-1.22-0.75-1.72-0.63c-3.69,0.84-6.26-1.16-8.84-3.26c-0.33-0.27-0.82-0.35-1.5-0.63
	c-0.08,1.06-0.15,1.94-0.22,2.83c-0.32,4.22-1.53,5.44-5.85,5.46c-15.78,0.07-31.56,0.09-47.34,0.12
	c-7.03,0.01-14.06,0.03-21.09-0.01c-2.31-0.01-4.54,0.07-6.72-1.39c-1.61-1.07-3.89-1.27-5.68,0.24c-1.83,1.55-3.7,1.24-5.69,0.46
	c-1.73-0.68-3.47-0.76-5.39-0.66c-2.57,0.14-5.34-0.31-7.73-1.26c-2.42-0.96-4.78-1.15-7.28-1.28c-3.1-0.16-6.2-0.49-9.28-0.93
	c-2.2-0.31-3.81-1.66-4.09-3.92c-0.39-3.07-0.84-6.2-0.62-9.25c0.34-4.74,1.71-9.19,5.8-12.27c0.61-0.46,1.12-1.11,1.52-1.77
	c4.94-8.25,11.54-15.36,16.11-23.87C51.78,95.43,57.97,89.37,65,84.01c3.15-2.4,6.79-3.41,10.42-3.67c5.28-0.38,9.44-2.88,14.2-5.69
	c-0.19-1.94-0.28-4.09-0.63-6.19c-1.07-6.42-1.15-12.79,1.63-18.8c3.54-7.66,8.57-14.07,16.24-18.11c3.33-1.76,6.24-1.31,9.11,0.95
	c2.69,2.12,5.53,4.05,8.18,6.22c5.32,4.35,8.32,10.12,8.84,16.86c0.43,5.59,0.03,11.24,0,16.87c-0.01,2.18,0,4.36,0,6.78
	c5.93,2.66,11.31,6.08,17.96,6.48c3.11,0.18,6.07,1.33,7.3,4.75c-2.65-1.12-5.23-2.95-7.95-3.2c-4.83-0.44-8.96-2.45-13.23-4.28
	c-1.19-0.51-2.39-0.96-3.88-1.55c0.07,1.25,0.07,2.03,0.17,2.79c0.54,4.53-0.31,8.62-3.33,12.23c-2.31,2.75-4.37,5.71-6.79,8.91
	c8.7,0,16.97,0,24.73,0c2.84,1.42,2.98,3.56,2.96,5.83c-0.04,6.39-0.01,12.79-0.01,18.74c2.73,2.14,4.94,4.13,7.42,5.71
	c1.37,0.87,3.19,1.5,4.78,1.45c4.28-0.14,8.27-1.29,11.1-4.92c0.38-0.49,0.99-0.81,2.16-1.73c-2.34,5.02-4.92,6.86-11.37,8.56
	c3.73,5.1,3.36,10.07-0.91,14.72c5.62,1.8,23.62,0.36,29.49-2.32c0.3-0.93,1.02-2.11,0.98-3.26c-0.19-5.82-0.87-11.5-5.5-15.84
	c-1.59-1.49-3.06-3.12-4.39-4.84c-2.38-3.08-4.66-6.24-6.91-9.42c-3.33-4.7-6.8-9.31-9.83-14.2c-2.64-4.25-4.96-8.66-8.98-11.85
	C158.52,91.68,158.44,90.96,158.21,90.42z M66.32,138.26c-0.09,0.43-0.02,1.06-0.29,1.27c-4.86,3.84-5.04,8.89-3.87,14.58
	c2.02,0.66,4.04,1.32,6.49,2.13c0-6.68,0-12.83,0-18.95c-0.74,0.31-1.55,0.66-2.35,1c0.04-0.45-0.09-1.07,0.16-1.31
	c2.43-2.45,2.59-5.47,2.53-8.68c-0.12-5.78,0.02-11.56-0.06-17.34c-0.03-2.35,0.34-4.36,3.4-5.79c7.07,0,14.85,0,23.26,0
	c-1.64-3.09-2.81-5.8-4.42-8.21c-2.72-4.08-2.9-8.41-2.09-13.02c0.39-2.24,0.43-4.55,0.65-7.04c-0.88,0.31-1.36,0.4-1.76,0.63
	c-4.48,2.64-9.11,4.55-14.48,4.8c-2.35,0.11-4.98,1.14-6.89,2.56c-6.16,4.54-11.82,9.62-15.96,16.26
	c-3.35,5.38-5.64,11.51-10.71,15.72c-0.34,0.28-0.44,0.82-0.71,1.2c-3.46,4.78-6.95,9.55-10.39,14.35
	c-0.71,0.99-1.57,2.03-1.85,3.17c-1.28,5.26-2.92,10.56,0.25,16.57c1.27,0.28,3,0.81,4.78,1.03c4.17,0.51,8.51,0.33,12.49,1.47
	c2.74,0.78,5.38,1.23,8.17,1.45c2.29,0.18,4.57,0.6,6.81,1.11c1.19,0.27,2.3,1.16,3.38-0.48c-5.16-4.63-3.26-9.91-1.19-14.85
	c-3-1.78-5.77-3.46-8.57-5.06c-1.07-0.62-2.19-1.27-3.37-1.56c-3.12-0.77-5.22-2.84-7.01-5.53c6.7,3.53,13.4,7.06,19.65,10.36
	C64.15,139.26,65.23,138.76,66.32,138.26z M127.21,63.17c-0.26-0.76-0.53-1.8-0.98-2.77c-2.49-5.4-7.15-8.56-12.17-11.1
	c-1.63-0.82-3.96-0.77-5.86-0.45c-5.03,0.84-8.65,3.57-11.22,8.22c-1.77,3.2-2.21,5.97-1.88,9.64c0.55,6.28,3.26,11.69,5.53,17.24
	c1.69,4.15,4.48,8.13,9.77,8.39c5.08,0.24,8.07-3.19,10.11-7.14c2.05-3.98,3.63-8.24,4.99-12.51
	C126.43,69.73,126.63,66.57,127.21,63.17z M131.78,67.61c0-3.68,0.01-6.95,0-10.23c-0.02-6.63-4.58-14.86-10.11-18.5
	c-1.95-1.28-3.78-2.75-5.61-4.2c-3.73-2.96-6.24-3.2-10.17-0.77c-8.41,5.19-13.35,12.95-15.71,22.3c-0.79,3.12-0.84,6.63,0.56,10.39
	c0.92-3.55,5.67-12.24,7.83-14.67c3.52-3.94,11.96-6.38,16.33-4.11c4.54,2.37,8.85,5.31,11.56,9.89
	C128.29,60.79,129.86,64.01,131.78,67.61z M119.91,105.17c5.2-3.39,7.81-8.29,10.87-12.78c0.72-1.06,0.93-2.62,0.99-3.96
	c0.27-5.94-0.17-11.83-1.58-17.62c-0.39-1.62-0.72-3.26-1.07-4.89c-1.23,6.07-3.36,11.64-5.93,17.07c-0.46,0.98-0.9,2.01-1.08,3.07
	c-0.18,1.03-0.45,2.49,0.08,3.13c3.07,3.73,0.91,6.21-1.68,8.81c-2.13,2.14-4.08,4.46-6.55,7.18
	C116.57,105.17,118.28,105.17,119.91,105.17z M97.35,105.05c3.15,0,6.18,0,9.31,0c-2.67-5.14-9.54-7.17-9.58-13.81
	c0.41-0.21,0.56-0.36,0.65-0.33C98,91,98.25,91.16,98.5,91.29c0.11-0.01,0.29,0.03,0.32-0.03c2.35-3.63,0.52-7.05-1.01-10.13
	c-2.63-5.29-3.95-10.86-4.79-16.64c-0.67,4.19-1.25,8.35-1.72,12.52c-0.34,3.1-0.25,6.27-0.87,9.3c-0.67,3.3,0.04,6.15,1.59,8.96
	C93.76,98.4,95.45,101.55,97.35,105.05z M151.07,148.27c1.8,1.39,3.33,2.73,5.02,3.83c3.96,2.6,8.79,0.41,9.52-4.29
	c0.47-3.07-0.17-5.88-2.2-8.08c-2.26-1.07-4.5-1.84-6.39-3.13c-1.87-1.27-3.26-3.28-5.94-3.72
	C151.07,138.04,151.07,143,151.07,148.27z M99.18,94.61c4.01,3.31,6.64,8.07,11.83,11.05c3.59-3.74,7.11-7.4,10.79-11.24
	c-0.51-1.85-0.97-3.57-1.52-5.59c-2.78,2.79-5.61,5.2-9.32,5.36c-3.97,0.17-6.67-2.72-9.39-5.2
	C100.76,90.89,100.04,92.58,99.18,94.61z"/>
<g>
	<g>
		<path class="st0" d="M78.67,140.18v-2.98h-2.98v-17.9h5.97v11.93h2.98V119.3h2.98v11.93h2.98V119.3h5.97v17.9h-2.98v2.98H90.6
			v-2.98h-2.98v-2.98h-2.98v2.98h-2.98v2.98H78.67z"/>
	</g>
	<g>
		<path class="st0" d="M99.56,140.18V119.3h17.9v2.98h2.98v8.95h-2.98v2.98h-11.94v5.97H99.56z M105.52,131.23h8.95v-8.95h-8.95
			V131.23z"/>
	</g>
	<g>
		<path class="st0" d="M126.41,140.18v-2.98h-2.98v-2.98h5.97v2.98h8.95v-5.97h-11.94v-2.98h-2.98v-5.97h2.98v-2.98h14.92v2.98h2.98
			v2.98h-5.97v-2.98h-8.95v5.97h11.93v2.98h2.98v5.97h-2.98v2.98H126.41z"/>
	</g>
</g>
<g>
	<path class="st0" d="M75.62,144.74c0.06-0.18,0.14-0.33,0.25-0.47c0.11-0.13,0.24-0.24,0.4-0.32c0.16-0.08,0.34-0.12,0.54-0.12
		s0.38,0.04,0.54,0.12c0.16,0.08,0.29,0.19,0.4,0.32c0.11,0.13,0.19,0.29,0.25,0.47c0.06,0.18,0.09,0.36,0.09,0.55v0.11
		c0,0.19-0.03,0.37-0.09,0.54c-0.06,0.18-0.14,0.33-0.25,0.47c-0.11,0.13-0.24,0.24-0.4,0.32c-0.16,0.08-0.34,0.12-0.54,0.12
		s-0.38-0.04-0.54-0.12c-0.16-0.08-0.29-0.19-0.4-0.32c-0.11-0.14-0.19-0.29-0.25-0.47c-0.06-0.18-0.09-0.36-0.09-0.55v-0.11
		C75.54,145.09,75.57,144.91,75.62,144.74z M75.76,145.88c0.05,0.16,0.13,0.3,0.22,0.42c0.1,0.12,0.21,0.22,0.35,0.3
		c0.14,0.08,0.3,0.11,0.48,0.11c0.18,0,0.34-0.04,0.48-0.11c0.14-0.07,0.26-0.17,0.35-0.3c0.1-0.12,0.17-0.26,0.22-0.42
		c0.05-0.16,0.08-0.32,0.08-0.48v-0.11c0-0.16-0.03-0.32-0.08-0.48c-0.05-0.16-0.12-0.3-0.22-0.42c-0.1-0.12-0.22-0.22-0.36-0.3
		c-0.14-0.08-0.3-0.11-0.48-0.11s-0.34,0.04-0.48,0.11c-0.14,0.08-0.26,0.17-0.35,0.3c-0.1,0.12-0.17,0.26-0.22,0.42
		c-0.05,0.16-0.08,0.32-0.08,0.48v0.11C75.68,145.56,75.71,145.72,75.76,145.88z"/>
	<path class="st0" d="M79.07,143.88h0.15v0.49c0.05-0.08,0.11-0.16,0.18-0.22c0.07-0.07,0.14-0.12,0.23-0.17s0.17-0.08,0.26-0.11
		c0.09-0.03,0.18-0.04,0.28-0.04c0.19,0,0.36,0.04,0.49,0.11c0.14,0.07,0.25,0.17,0.35,0.29c0.11,0.15,0.19,0.31,0.24,0.51
		c0.05,0.19,0.07,0.38,0.08,0.58v0.06c0,0.17-0.02,0.35-0.07,0.53c-0.05,0.18-0.11,0.34-0.2,0.48c-0.09,0.14-0.2,0.25-0.35,0.34
		c-0.15,0.09-0.32,0.14-0.53,0.14c-0.09,0-0.18-0.01-0.27-0.03c-0.09-0.02-0.18-0.05-0.26-0.1c-0.08-0.04-0.16-0.09-0.23-0.15
		c-0.07-0.06-0.13-0.13-0.18-0.2v1.55h-0.15V143.88z M81.09,144.8c-0.04-0.17-0.11-0.33-0.21-0.47c-0.08-0.11-0.18-0.19-0.3-0.26
		s-0.26-0.1-0.44-0.1c-0.11,0-0.21,0.02-0.31,0.05c-0.1,0.03-0.19,0.08-0.27,0.14c-0.08,0.06-0.15,0.13-0.22,0.22
		c-0.06,0.09-0.11,0.18-0.14,0.29v1.44c0.04,0.1,0.09,0.18,0.16,0.26c0.07,0.08,0.14,0.14,0.23,0.19c0.08,0.05,0.18,0.09,0.27,0.11
		c0.1,0.03,0.19,0.04,0.29,0.04c0.18,0,0.34-0.04,0.46-0.12s0.22-0.18,0.3-0.3c0.08-0.13,0.14-0.28,0.18-0.44
		c0.04-0.17,0.05-0.33,0.06-0.49v-0.06C81.16,145.14,81.14,144.97,81.09,144.8z"/>
	<path class="st0" d="M83.02,146.73c-0.16-0.08-0.3-0.19-0.42-0.32c-0.12-0.13-0.21-0.29-0.27-0.46c-0.06-0.17-0.1-0.36-0.1-0.55
		v-0.12c0-0.18,0.03-0.36,0.09-0.53c0.06-0.17,0.14-0.33,0.25-0.47c0.11-0.14,0.24-0.25,0.4-0.33c0.16-0.08,0.33-0.13,0.53-0.13
		c0.18,0,0.34,0.03,0.48,0.1c0.14,0.07,0.26,0.16,0.36,0.27c0.1,0.12,0.18,0.25,0.23,0.4s0.08,0.31,0.08,0.48v0.17h-2.29v0.16
		c0,0.17,0.03,0.33,0.09,0.49s0.14,0.3,0.24,0.42c0.1,0.12,0.23,0.22,0.37,0.29c0.14,0.07,0.31,0.11,0.48,0.11
		c0.18,0,0.35-0.03,0.5-0.09c0.15-0.07,0.29-0.17,0.4-0.31l0.11,0.07c-0.12,0.16-0.27,0.28-0.45,0.36
		c-0.17,0.08-0.36,0.11-0.56,0.11C83.37,146.85,83.19,146.81,83.02,146.73z M83.07,144.06c-0.13,0.06-0.24,0.15-0.34,0.25
		c-0.1,0.1-0.17,0.22-0.23,0.36c-0.06,0.14-0.1,0.28-0.11,0.42h2.13v-0.03c0-0.14-0.02-0.28-0.07-0.41
		c-0.05-0.13-0.12-0.25-0.21-0.35c-0.09-0.1-0.19-0.18-0.32-0.24c-0.12-0.06-0.26-0.09-0.41-0.09
		C83.35,143.97,83.2,144,83.07,144.06z"/>
	<path class="st0" d="M85.68,143.88h0.15v0.7c0.05-0.11,0.11-0.21,0.18-0.3c0.07-0.09,0.15-0.17,0.25-0.24
		c0.09-0.07,0.19-0.12,0.31-0.16c0.11-0.04,0.23-0.06,0.36-0.06c0.17,0,0.31,0.03,0.43,0.08c0.12,0.05,0.22,0.13,0.3,0.22
		c0.08,0.1,0.14,0.21,0.18,0.35c0.04,0.13,0.06,0.28,0.06,0.43l0,1.89h-0.15v-1.89c0-0.14-0.02-0.26-0.05-0.38
		c-0.03-0.12-0.08-0.22-0.15-0.3c-0.07-0.08-0.15-0.15-0.26-0.2c-0.1-0.05-0.23-0.07-0.38-0.07c-0.13,0-0.26,0.03-0.38,0.08
		s-0.23,0.12-0.32,0.2c-0.1,0.08-0.18,0.18-0.24,0.3c-0.07,0.11-0.11,0.23-0.14,0.36v1.9h-0.15V143.88z"/>
	<path class="st0" d="M94.37,145.8c-0.06-0.08-0.13-0.14-0.21-0.2c-0.1-0.06-0.21-0.11-0.34-0.15c-0.13-0.04-0.24-0.07-0.34-0.09
		c-0.13-0.03-0.25-0.06-0.36-0.09c-0.11-0.03-0.23-0.08-0.35-0.13c-0.1-0.05-0.19-0.13-0.26-0.22c-0.07-0.09-0.11-0.21-0.11-0.36
		c0-0.13,0.03-0.25,0.1-0.34c0.07-0.09,0.16-0.17,0.27-0.23c0.1-0.05,0.21-0.09,0.33-0.12c0.13-0.03,0.24-0.04,0.36-0.04
		c0.14,0,0.27,0.01,0.4,0.05c0.13,0.03,0.25,0.08,0.36,0.15c0.1,0.07,0.19,0.15,0.26,0.26c0.07,0.1,0.11,0.23,0.12,0.38h-0.15
		c0-0.12-0.04-0.23-0.1-0.32c-0.06-0.09-0.14-0.16-0.24-0.21c-0.1-0.05-0.2-0.09-0.32-0.12c-0.11-0.02-0.22-0.04-0.33-0.04
		c-0.09,0-0.19,0.01-0.29,0.03c-0.11,0.02-0.2,0.05-0.3,0.1c-0.09,0.05-0.17,0.1-0.23,0.18c-0.06,0.07-0.09,0.17-0.09,0.28
		c0,0.11,0.03,0.21,0.09,0.29c0.06,0.08,0.13,0.14,0.23,0.19c0.1,0.05,0.21,0.1,0.33,0.13c0.12,0.03,0.23,0.06,0.33,0.08
		c0.12,0.02,0.24,0.06,0.36,0.09c0.13,0.04,0.24,0.09,0.35,0.15c0.11,0.06,0.19,0.14,0.26,0.24s0.1,0.22,0.1,0.36
		c0,0.12-0.03,0.23-0.09,0.32c-0.06,0.09-0.12,0.16-0.2,0.22c-0.12,0.08-0.25,0.14-0.4,0.18c-0.15,0.03-0.29,0.05-0.42,0.05
		c-0.13,0-0.27-0.02-0.41-0.05c-0.14-0.03-0.26-0.08-0.38-0.14c-0.11-0.06-0.21-0.14-0.28-0.25c-0.07-0.1-0.11-0.22-0.12-0.37h0.15
		c0.01,0.13,0.06,0.23,0.13,0.32c0.07,0.08,0.15,0.15,0.25,0.2c0.1,0.05,0.2,0.09,0.32,0.1c0.12,0.02,0.23,0.03,0.34,0.03
		c0.12,0,0.25-0.02,0.38-0.05c0.13-0.03,0.25-0.08,0.35-0.15c0.07-0.05,0.13-0.11,0.17-0.18c0.04-0.07,0.06-0.15,0.06-0.24
		C94.46,145.97,94.43,145.88,94.37,145.8z"/>
	<path class="st0" d="M95.54,144.74c0.06-0.18,0.14-0.33,0.25-0.47c0.11-0.13,0.24-0.24,0.4-0.32c0.16-0.08,0.34-0.12,0.54-0.12
		c0.2,0,0.38,0.04,0.54,0.12c0.16,0.08,0.29,0.19,0.4,0.32c0.11,0.13,0.19,0.29,0.25,0.47c0.06,0.18,0.09,0.36,0.09,0.55v0.11
		c0,0.19-0.03,0.37-0.09,0.54c-0.06,0.18-0.14,0.33-0.25,0.47c-0.11,0.13-0.24,0.24-0.4,0.32c-0.16,0.08-0.34,0.12-0.54,0.12
		c-0.2,0-0.38-0.04-0.54-0.12c-0.16-0.08-0.29-0.19-0.4-0.32c-0.11-0.14-0.19-0.29-0.25-0.47c-0.06-0.18-0.09-0.36-0.09-0.55v-0.11
		C95.45,145.09,95.48,144.91,95.54,144.74z M95.67,145.88c0.05,0.16,0.13,0.3,0.22,0.42c0.1,0.12,0.21,0.22,0.35,0.3
		c0.14,0.08,0.3,0.11,0.48,0.11c0.18,0,0.34-0.04,0.48-0.11c0.14-0.07,0.26-0.17,0.35-0.3c0.1-0.12,0.17-0.26,0.22-0.42
		c0.05-0.16,0.08-0.32,0.08-0.48v-0.11c0-0.16-0.03-0.32-0.08-0.48c-0.05-0.16-0.12-0.3-0.22-0.42c-0.1-0.12-0.22-0.22-0.36-0.3
		c-0.14-0.08-0.3-0.11-0.48-0.11s-0.34,0.04-0.48,0.11c-0.14,0.08-0.26,0.17-0.35,0.3c-0.1,0.12-0.17,0.26-0.22,0.42
		c-0.05,0.16-0.08,0.32-0.08,0.48v0.11C95.59,145.56,95.62,145.72,95.67,145.88z"/>
	<path class="st0" d="M100.99,146.28c-0.09,0.18-0.23,0.32-0.4,0.42c-0.17,0.1-0.39,0.15-0.64,0.15c-0.17,0-0.32-0.03-0.44-0.09
		c-0.12-0.06-0.22-0.14-0.3-0.24c-0.08-0.1-0.14-0.22-0.18-0.35c-0.04-0.14-0.06-0.28-0.06-0.44v-1.86h0.15v1.86
		c0,0.14,0.02,0.26,0.05,0.38c0.03,0.12,0.08,0.22,0.15,0.31c0.07,0.09,0.15,0.16,0.26,0.21s0.23,0.08,0.38,0.08
		c0.14,0,0.27-0.02,0.39-0.06c0.12-0.04,0.22-0.09,0.31-0.16c0.09-0.07,0.16-0.15,0.22-0.25c0.06-0.1,0.1-0.21,0.13-0.34l0-2.02
		h0.15v2.92h-0.15L100.99,146.28z"/>
	<path class="st0" d="M104.42,143.83c0.06,0.01,0.13,0.02,0.19,0.03l-0.02,0.14c-0.05-0.01-0.11-0.02-0.17-0.02
		c-0.06-0.01-0.13-0.01-0.19-0.01c-0.15,0-0.3,0.02-0.44,0.05c-0.14,0.03-0.27,0.09-0.38,0.16c-0.12,0.08-0.22,0.18-0.3,0.3
		c-0.09,0.12-0.15,0.27-0.19,0.45l0.01,1.87h-0.17v-2.92h0.14l0.02,0.51v0.19c0.11-0.24,0.27-0.42,0.5-0.55
		c0.22-0.13,0.5-0.2,0.81-0.19C104.29,143.82,104.36,143.83,104.42,143.83z"/>
	<path class="st0" d="M107.08,146.65c0.11-0.03,0.21-0.09,0.3-0.15c0.08-0.07,0.15-0.15,0.21-0.25s0.09-0.21,0.1-0.34h0.15
		c-0.01,0.15-0.05,0.28-0.12,0.39c-0.06,0.12-0.14,0.21-0.24,0.3c-0.1,0.08-0.21,0.14-0.34,0.19c-0.13,0.04-0.26,0.07-0.41,0.07
		c-0.2,0-0.38-0.04-0.54-0.12c-0.15-0.08-0.28-0.19-0.38-0.33c-0.1-0.13-0.18-0.29-0.23-0.46c-0.05-0.17-0.08-0.35-0.08-0.54v-0.11
		c0-0.18,0.03-0.36,0.08-0.54c0.05-0.18,0.12-0.33,0.23-0.47c0.1-0.13,0.22-0.24,0.38-0.33c0.15-0.08,0.33-0.12,0.53-0.12
		c0.15,0,0.3,0.02,0.43,0.07c0.13,0.05,0.24,0.12,0.34,0.21c0.1,0.09,0.18,0.2,0.24,0.32c0.06,0.12,0.1,0.26,0.11,0.42h-0.15
		c-0.01-0.13-0.04-0.25-0.09-0.36c-0.05-0.11-0.12-0.2-0.2-0.28c-0.09-0.08-0.19-0.13-0.3-0.18c-0.11-0.04-0.23-0.06-0.37-0.06
		c-0.19,0-0.34,0.04-0.48,0.11c-0.13,0.08-0.24,0.17-0.33,0.3c-0.09,0.12-0.15,0.27-0.19,0.42c-0.04,0.16-0.06,0.32-0.06,0.48v0.11
		c0,0.17,0.02,0.33,0.06,0.49c0.04,0.16,0.11,0.3,0.19,0.42c0.09,0.12,0.2,0.22,0.33,0.3c0.13,0.08,0.29,0.11,0.48,0.11
		C106.85,146.71,106.97,146.69,107.08,146.65z"/>
	<path class="st0" d="M109.58,146.73c-0.16-0.08-0.3-0.19-0.42-0.32c-0.12-0.13-0.21-0.29-0.27-0.46c-0.06-0.17-0.1-0.36-0.1-0.55
		v-0.12c0-0.18,0.03-0.36,0.09-0.53c0.06-0.17,0.14-0.33,0.25-0.47c0.11-0.14,0.24-0.25,0.4-0.33c0.16-0.08,0.33-0.13,0.53-0.13
		c0.18,0,0.34,0.03,0.48,0.1c0.14,0.07,0.26,0.16,0.36,0.27c0.1,0.12,0.18,0.25,0.23,0.4s0.08,0.31,0.08,0.48v0.17h-2.29v0.16
		c0,0.17,0.03,0.33,0.09,0.49s0.14,0.3,0.24,0.42c0.1,0.12,0.23,0.22,0.37,0.29c0.14,0.07,0.31,0.11,0.48,0.11
		c0.18,0,0.35-0.03,0.5-0.09c0.15-0.07,0.29-0.17,0.4-0.31l0.11,0.07c-0.12,0.16-0.27,0.28-0.45,0.36
		c-0.17,0.08-0.36,0.11-0.56,0.11C109.92,146.85,109.74,146.81,109.58,146.73z M109.63,144.06c-0.13,0.06-0.24,0.15-0.34,0.25
		c-0.1,0.1-0.17,0.22-0.23,0.36c-0.06,0.14-0.1,0.28-0.11,0.42h2.13v-0.03c0-0.14-0.02-0.28-0.07-0.41
		c-0.05-0.13-0.12-0.25-0.21-0.35c-0.09-0.1-0.19-0.18-0.32-0.24c-0.12-0.06-0.26-0.09-0.41-0.09
		C109.9,143.97,109.76,144,109.63,144.06z"/>
	<path class="st0" d="M116.21,146.73c-0.16-0.08-0.3-0.19-0.42-0.32c-0.12-0.13-0.21-0.29-0.27-0.46c-0.06-0.17-0.1-0.36-0.1-0.55
		v-0.12c0-0.18,0.03-0.36,0.09-0.53c0.06-0.17,0.14-0.33,0.25-0.47c0.11-0.14,0.24-0.25,0.4-0.33c0.16-0.08,0.33-0.13,0.53-0.13
		c0.18,0,0.34,0.03,0.48,0.1c0.14,0.07,0.26,0.16,0.36,0.27c0.1,0.12,0.18,0.25,0.23,0.4s0.08,0.31,0.08,0.48v0.17h-2.29v0.16
		c0,0.17,0.03,0.33,0.09,0.49s0.14,0.3,0.24,0.42c0.1,0.12,0.23,0.22,0.37,0.29c0.14,0.07,0.31,0.11,0.48,0.11
		c0.18,0,0.35-0.03,0.5-0.09c0.15-0.07,0.29-0.17,0.4-0.31l0.11,0.07c-0.12,0.16-0.27,0.28-0.45,0.36
		c-0.17,0.08-0.36,0.11-0.56,0.11C116.56,146.85,116.38,146.81,116.21,146.73z M116.26,144.06c-0.13,0.06-0.24,0.15-0.34,0.25
		c-0.1,0.1-0.17,0.22-0.23,0.36c-0.06,0.14-0.1,0.28-0.11,0.42h2.13v-0.03c0-0.14-0.02-0.28-0.07-0.41
		c-0.05-0.13-0.12-0.25-0.21-0.35c-0.09-0.1-0.19-0.18-0.32-0.24c-0.12-0.06-0.26-0.09-0.41-0.09
		C116.54,143.97,116.39,144,116.26,144.06z"/>
	<path class="st0" d="M118.84,144.8c0.04-0.17,0.1-0.33,0.18-0.46c0.09-0.15,0.21-0.27,0.36-0.37c0.15-0.1,0.33-0.14,0.55-0.14
		c0.19,0,0.37,0.05,0.54,0.15c0.17,0.1,0.3,0.24,0.4,0.41v-1.73h0.15v4.15h-0.15v-0.44c-0.1,0.16-0.24,0.28-0.42,0.37
		c-0.18,0.08-0.35,0.13-0.52,0.13c-0.21,0-0.39-0.05-0.54-0.14c-0.15-0.09-0.27-0.21-0.36-0.36c-0.09-0.14-0.15-0.3-0.19-0.48
		c-0.04-0.18-0.06-0.35-0.06-0.52v-0.06C118.77,145.14,118.79,144.97,118.84,144.8z M118.98,145.82c0.03,0.16,0.09,0.3,0.16,0.43
		c0.08,0.13,0.18,0.24,0.31,0.33c0.13,0.09,0.29,0.13,0.48,0.13c0.19,0,0.38-0.05,0.56-0.16c0.18-0.1,0.31-0.25,0.39-0.44v-1.44
		c-0.07-0.21-0.19-0.38-0.36-0.51c-0.17-0.13-0.37-0.19-0.58-0.19c-0.2,0-0.36,0.04-0.49,0.13c-0.13,0.09-0.23,0.2-0.31,0.33
		c-0.07,0.13-0.13,0.27-0.16,0.43c-0.03,0.16-0.05,0.31-0.05,0.45v0.06C118.93,145.51,118.94,145.66,118.98,145.82z"/>
	<path class="st0" d="M124.22,146.28c-0.09,0.18-0.23,0.32-0.4,0.42c-0.17,0.1-0.39,0.15-0.64,0.15c-0.17,0-0.31-0.03-0.44-0.09
		c-0.12-0.06-0.22-0.14-0.3-0.24c-0.08-0.1-0.14-0.22-0.18-0.35s-0.06-0.28-0.06-0.44v-1.86h0.15v1.86c0,0.14,0.02,0.26,0.05,0.38
		c0.03,0.12,0.08,0.22,0.15,0.31c0.07,0.09,0.15,0.16,0.26,0.21c0.1,0.05,0.23,0.08,0.38,0.08c0.14,0,0.27-0.02,0.39-0.06
		c0.12-0.04,0.22-0.09,0.31-0.16c0.09-0.07,0.16-0.15,0.22-0.25c0.06-0.1,0.1-0.21,0.13-0.34l0-2.02h0.15v2.92h-0.15L124.22,146.28z
		"/>
	<path class="st0" d="M126.99,146.65c0.11-0.03,0.21-0.09,0.3-0.15c0.08-0.07,0.15-0.15,0.21-0.25c0.05-0.1,0.09-0.21,0.1-0.34h0.15
		c-0.01,0.15-0.05,0.28-0.12,0.39c-0.06,0.12-0.14,0.21-0.24,0.3c-0.1,0.08-0.21,0.14-0.34,0.19c-0.13,0.04-0.26,0.07-0.41,0.07
		c-0.2,0-0.38-0.04-0.54-0.12c-0.15-0.08-0.28-0.19-0.38-0.33c-0.1-0.13-0.18-0.29-0.23-0.46c-0.05-0.17-0.08-0.35-0.08-0.54v-0.11
		c0-0.18,0.03-0.36,0.08-0.54c0.05-0.18,0.12-0.33,0.23-0.47c0.1-0.13,0.22-0.24,0.38-0.33c0.15-0.08,0.33-0.12,0.53-0.12
		c0.15,0,0.29,0.02,0.42,0.07s0.24,0.12,0.34,0.21c0.1,0.09,0.18,0.2,0.23,0.32c0.06,0.12,0.1,0.26,0.11,0.42h-0.15
		c-0.01-0.13-0.04-0.25-0.09-0.36c-0.05-0.11-0.12-0.2-0.21-0.28c-0.09-0.08-0.19-0.13-0.3-0.18c-0.11-0.04-0.23-0.06-0.37-0.06
		c-0.19,0-0.35,0.04-0.48,0.11c-0.13,0.08-0.24,0.17-0.33,0.3c-0.09,0.12-0.15,0.27-0.19,0.42c-0.04,0.16-0.06,0.32-0.07,0.48v0.11
		c0,0.17,0.02,0.33,0.07,0.49c0.04,0.16,0.11,0.3,0.19,0.42c0.09,0.12,0.2,0.22,0.33,0.3c0.13,0.08,0.3,0.11,0.48,0.11
		C126.76,146.71,126.88,146.69,126.99,146.65z"/>
	<path class="st0" d="M130.88,146.53c-0.01-0.09-0.01-0.18-0.01-0.27c-0.06,0.1-0.14,0.19-0.23,0.26c-0.09,0.08-0.18,0.14-0.29,0.19
		c-0.1,0.05-0.21,0.09-0.33,0.11c-0.11,0.03-0.23,0.04-0.35,0.04c-0.12,0-0.23-0.02-0.34-0.05c-0.11-0.03-0.21-0.09-0.3-0.15
		c-0.09-0.07-0.16-0.15-0.21-0.25c-0.05-0.1-0.08-0.21-0.08-0.34c0-0.18,0.04-0.32,0.13-0.43c0.08-0.11,0.19-0.21,0.33-0.27
		c0.13-0.07,0.28-0.11,0.45-0.14c0.17-0.03,0.33-0.04,0.49-0.04h0.72v-0.43c0-0.13-0.03-0.25-0.08-0.34
		c-0.05-0.1-0.12-0.18-0.2-0.24c-0.08-0.06-0.18-0.11-0.29-0.14c-0.11-0.03-0.23-0.05-0.35-0.05c-0.11,0-0.22,0.01-0.33,0.04
		c-0.11,0.03-0.21,0.07-0.31,0.13c-0.09,0.06-0.17,0.13-0.23,0.22s-0.1,0.19-0.1,0.32l-0.15,0c0.01-0.14,0.04-0.27,0.11-0.37
		s0.16-0.2,0.26-0.27c0.1-0.07,0.22-0.12,0.35-0.16c0.13-0.04,0.26-0.05,0.38-0.05c0.14,0,0.28,0.02,0.41,0.06s0.24,0.1,0.34,0.17
		c0.1,0.08,0.17,0.17,0.23,0.29c0.06,0.12,0.09,0.25,0.09,0.4v1.46c0,0.1,0.01,0.19,0.03,0.28c0.02,0.09,0.03,0.18,0.05,0.28l0,0.02
		h-0.17C130.9,146.71,130.89,146.61,130.88,146.53z M130.05,146.67c0.12-0.03,0.23-0.07,0.34-0.13c0.1-0.06,0.2-0.13,0.28-0.22
		c0.08-0.09,0.15-0.19,0.2-0.31v-0.69h-0.71c-0.15,0-0.3,0.02-0.46,0.04s-0.3,0.07-0.43,0.13c-0.11,0.06-0.2,0.14-0.27,0.23
		c-0.07,0.09-0.1,0.21-0.1,0.35c0,0.1,0.02,0.19,0.07,0.27c0.05,0.08,0.11,0.15,0.18,0.2c0.07,0.05,0.16,0.1,0.25,0.12
		c0.09,0.03,0.18,0.04,0.28,0.04C129.81,146.71,129.93,146.7,130.05,146.67z"/>
	<path class="st0" d="M133.12,143.88h1.05v0.15h-1.05v2.07c0,0.11,0.02,0.21,0.06,0.28c0.04,0.08,0.09,0.14,0.15,0.19
		c0.07,0.05,0.14,0.08,0.23,0.11c0.09,0.02,0.18,0.03,0.29,0.03c0.05,0,0.1,0,0.14,0c0.05,0,0.09,0,0.14-0.01
		c0.02,0,0.05,0,0.07-0.01c0.03,0,0.05,0,0.07-0.01l0.03,0.14c-0.03,0-0.05,0.01-0.08,0.01c-0.02,0-0.05,0.01-0.08,0.01
		c-0.05,0-0.1,0.01-0.15,0.01s-0.1,0-0.15,0c-0.13,0-0.25-0.01-0.36-0.04s-0.2-0.07-0.28-0.13c-0.08-0.06-0.14-0.14-0.19-0.23
		c-0.04-0.1-0.07-0.21-0.07-0.35v-2.07h-0.86v-0.15h0.86v-0.79h0.16L133.12,143.88z"/>
	<path class="st0" d="M136.76,143.88v2.78h1.04v0.15h-2.25v-0.15h1.07v-2.63h-1.07v-0.15H136.76z M136.49,142.97
		c0.01-0.02,0.02-0.05,0.03-0.07c0.01-0.02,0.03-0.03,0.06-0.04c0.02-0.01,0.06-0.02,0.09-0.02c0.04,0,0.07,0,0.09,0.02
		c0.02,0.01,0.04,0.02,0.06,0.04c0.01,0.02,0.02,0.04,0.03,0.07c0.01,0.02,0.01,0.05,0.01,0.07c0,0.05-0.01,0.09-0.04,0.13
		s-0.08,0.06-0.15,0.06c-0.07,0-0.12-0.02-0.15-0.06c-0.03-0.04-0.04-0.08-0.04-0.13C136.49,143.02,136.49,142.99,136.49,142.97z"/>
	<path class="st0" d="M138.68,144.74c0.06-0.18,0.14-0.33,0.25-0.47c0.11-0.13,0.24-0.24,0.4-0.32c0.16-0.08,0.34-0.12,0.54-0.12
		c0.2,0,0.38,0.04,0.54,0.12c0.16,0.08,0.29,0.19,0.4,0.32c0.11,0.13,0.19,0.29,0.25,0.47c0.06,0.18,0.09,0.36,0.09,0.55v0.11
		c0,0.19-0.03,0.37-0.09,0.54c-0.06,0.18-0.14,0.33-0.25,0.47c-0.11,0.13-0.24,0.24-0.4,0.32c-0.16,0.08-0.34,0.12-0.54,0.12
		c-0.2,0-0.38-0.04-0.54-0.12c-0.16-0.08-0.29-0.19-0.4-0.32c-0.11-0.14-0.19-0.29-0.25-0.47c-0.06-0.18-0.09-0.36-0.09-0.55v-0.11
		C138.59,145.09,138.62,144.91,138.68,144.74z M138.82,145.88c0.05,0.16,0.13,0.3,0.22,0.42c0.1,0.12,0.21,0.22,0.35,0.3
		c0.14,0.08,0.3,0.11,0.48,0.11s0.34-0.04,0.48-0.11c0.14-0.07,0.26-0.17,0.35-0.3c0.1-0.12,0.17-0.26,0.22-0.42
		s0.08-0.32,0.08-0.48v-0.11c0-0.16-0.03-0.32-0.08-0.48c-0.05-0.16-0.12-0.3-0.22-0.42c-0.1-0.12-0.22-0.22-0.36-0.3
		c-0.14-0.08-0.3-0.11-0.48-0.11c-0.18,0-0.34,0.04-0.48,0.11c-0.14,0.08-0.26,0.17-0.35,0.3c-0.1,0.12-0.17,0.26-0.22,0.42
		c-0.05,0.16-0.08,0.32-0.08,0.48v0.11C138.74,145.56,138.77,145.72,138.82,145.88z"/>
	<path class="st0" d="M142.1,143.88h0.15v0.7c0.05-0.11,0.11-0.21,0.18-0.3c0.07-0.09,0.15-0.17,0.25-0.24
		c0.09-0.07,0.19-0.12,0.3-0.16c0.11-0.04,0.23-0.06,0.36-0.06c0.17,0,0.31,0.03,0.43,0.08c0.12,0.05,0.22,0.13,0.3,0.22
		c0.08,0.1,0.14,0.21,0.18,0.35c0.04,0.13,0.06,0.28,0.06,0.43l0,1.89h-0.15v-1.89c0-0.14-0.02-0.26-0.05-0.38
		c-0.03-0.12-0.08-0.22-0.15-0.3c-0.07-0.08-0.15-0.15-0.26-0.2c-0.1-0.05-0.23-0.07-0.38-0.07c-0.13,0-0.26,0.03-0.38,0.08
		c-0.12,0.05-0.23,0.12-0.32,0.2c-0.1,0.08-0.18,0.18-0.24,0.3c-0.07,0.11-0.11,0.23-0.14,0.36v1.9h-0.15V143.88z"/>
</g>
</svg>
