<?xml version="1.0" encoding="utf-8"?>
<!-- Generator: Adobe Illustrator 24.1.3, SVG Export Plug-In . SVG Version: 6.00 Build 0)  -->
<svg version="1.1" xmlns="http://www.w3.org/2000/svg" xmlns:xlink="http://www.w3.org/1999/xlink" x="0px" y="0px"
	 viewBox="0 0 612 235.11" style="enable-background:new 0 0 612 235.11;" xml:space="preserve">
<style type="text/css">
	.st0{fill:#FFFFFF;}
</style>
<g id="Layer_2">
</g>
<g id="Text">
</g>
<g id="Layer_1">
	<path d="M337.9,200.3c-0.13,0.04-0.24,0.09-0.32,0.15c-0.08,0.07-0.15,0.15-0.19,0.23c-0.04,0.09-0.06,0.19-0.06,0.29
		c0,0.08,0.02,0.16,0.04,0.23c0.03,0.07,0.07,0.13,0.13,0.18c0.06,0.05,0.13,0.08,0.21,0.11c0.08,0.03,0.18,0.04,0.29,0.04
		c0.12,0,0.23-0.01,0.33-0.04c0.1-0.03,0.2-0.07,0.28-0.11c0.08-0.05,0.16-0.1,0.22-0.16c0.06-0.06,0.11-0.12,0.14-0.18v-0.8h-0.61
		C338.19,200.25,338.03,200.27,337.9,200.3z"/>
	<path d="M317.92,198.87c-0.08-0.08-0.18-0.14-0.29-0.19c-0.12-0.05-0.25-0.07-0.4-0.07c-0.13,0-0.26,0.02-0.37,0.07
		c-0.11,0.05-0.21,0.12-0.29,0.2c-0.09,0.09-0.16,0.2-0.22,0.32c-0.06,0.12-0.1,0.26-0.13,0.41h1.96v-0.09
		c0-0.13-0.02-0.24-0.07-0.36S318,198.95,317.92,198.87z"/>
	<path d="M322.4,198.61c-0.17,0-0.31,0.04-0.43,0.11s-0.22,0.17-0.29,0.3c-0.07,0.13-0.13,0.28-0.16,0.45
		c-0.03,0.17-0.05,0.35-0.05,0.55v0.09c0,0.2,0.02,0.38,0.05,0.54c0.03,0.17,0.09,0.31,0.16,0.44c0.07,0.13,0.17,0.23,0.29,0.3
		c0.12,0.07,0.26,0.11,0.43,0.11c0.21,0,0.38-0.04,0.51-0.13c0.14-0.09,0.24-0.21,0.32-0.37v-1.88c-0.08-0.16-0.19-0.28-0.32-0.37
		C322.77,198.66,322.6,198.61,322.4,198.61z"/>
	<path d="M265.06,198.87c-0.08-0.08-0.18-0.14-0.29-0.19c-0.12-0.05-0.25-0.07-0.4-0.07c-0.13,0-0.26,0.02-0.37,0.07
		c-0.11,0.05-0.21,0.12-0.29,0.2c-0.09,0.09-0.16,0.2-0.22,0.32c-0.06,0.12-0.1,0.26-0.13,0.41h1.96v-0.09
		c0-0.13-0.02-0.24-0.07-0.36S265.14,198.95,265.06,198.87z"/>
	<path d="M286.19,199.02c-0.08-0.13-0.18-0.23-0.31-0.3c-0.13-0.08-0.28-0.11-0.46-0.11c-0.18,0-0.33,0.04-0.46,0.11
		c-0.13,0.07-0.23,0.18-0.31,0.3c-0.08,0.13-0.14,0.28-0.18,0.45c-0.04,0.17-0.06,0.35-0.06,0.54v0.09c0,0.19,0.02,0.38,0.06,0.55
		c0.04,0.17,0.1,0.32,0.18,0.44c0.08,0.13,0.18,0.23,0.31,0.31c0.13,0.07,0.28,0.11,0.46,0.11c0.17,0,0.32-0.04,0.45-0.11
		c0.13-0.07,0.23-0.18,0.31-0.31c0.08-0.13,0.13-0.27,0.17-0.44c0.04-0.17,0.06-0.35,0.06-0.55v-0.09c0-0.19-0.02-0.37-0.06-0.54
		C286.32,199.3,286.27,199.15,286.19,199.02z"/>
	<path d="M439.97,52.25c0.22-0.21,0.43-0.42,0.65-0.63C440.36,51.75,440.14,51.96,439.97,52.25z"/>
	<path d="M354.9,199.02c-0.08-0.13-0.18-0.23-0.31-0.3c-0.13-0.08-0.28-0.11-0.46-0.11c-0.18,0-0.33,0.04-0.46,0.11
		c-0.13,0.07-0.23,0.18-0.31,0.3c-0.08,0.13-0.14,0.28-0.18,0.45c-0.04,0.17-0.06,0.35-0.06,0.54v0.09c0,0.19,0.02,0.38,0.06,0.55
		c0.04,0.17,0.1,0.32,0.18,0.44c0.08,0.13,0.18,0.23,0.31,0.31c0.13,0.07,0.28,0.11,0.46,0.11c0.17,0,0.32-0.04,0.45-0.11
		c0.13-0.07,0.23-0.18,0.31-0.31c0.08-0.13,0.13-0.27,0.17-0.44c0.04-0.17,0.06-0.35,0.06-0.55v-0.09c0-0.19-0.02-0.37-0.06-0.54
		C355.04,199.3,354.98,199.15,354.9,199.02z"/>
	<path d="M589.05,114.15c-21.07,1.75-42.17,3.31-63.27,4.69c-12.09,0.79-12.06,0.57-14.71,12.26c-2.89,12.75-5.88,25.48-8.75,37.9
		c-9.19-0.9-14.09-5.69-15.13-14.17c-0.26-2.1,0.88-4.45,0.39-6.44c-2.47-9.98-5.83-19.76-7.79-29.83
		c-2.11-10.85-8.29-16.26-18.82-18.13c-4.85-0.86-9.49-2.93-14.69-4.6C462,83.29,458.7,64.55,465.45,49.8
		c1.14,1.24,2.51,2.74,3.58,3.9c1.69-2.5,3.11-4.61,4.04-5.98c-0.65-3.32-1.47-6.35-1.81-9.44c-0.67-6.08-1.67-12.42-8.41-14.2
		c-9.07-2.39-18.46-3.58-27.7-5.36c-1.95-0.38-3.83-1.11-6.46-1.88c-0.26,0.22-1.28,1.91-2.46,2.04
		c-9.92,1.03-12.71,10.05-15.02,16.5c-3.34,9.31-3.47,19.95-3.79,30.06c-0.09,2.94,3.26,7.55,6.11,8.69
		c5.42,2.16,4.65,5.97,2.64,8.47c-4.19,5.19-9.06,10.1-14.47,13.97c-4.85,3.46-10.8,5.38-15.46,7.6c-4.67-1.87-9.41-3.9-14.25-5.66
		c-8.37-3.05-16.85-5.81-25.17-9.01c-1.25-0.48-2.61-2.64-2.63-4.04c-0.15-10.97,0.3-21.96-0.07-32.92
		c-0.15-4.49-1.67-8.99-2.92-13.38c-4.02-14.2-16.98-19.89-27.44-27.68c-2.49-1.85-8.3-1.18-11.63,0.37
		c-18.35,8.51-34.47,35.09-28.94,56.34c0.83,3.18,0.92,6.61,0.9,9.92c-0.01,1.38-0.85,3.41-1.93,4c-4.94,2.7-9.92,6.43-15.23,7.13
		c-10.82,1.41-20.9,3.55-28.1,11.93c-3.14-2.49-5.45-5.14-8.35-6.41c-3.41-1.49-3.59-3.14-2.28-6.05c3.65-8.11,6.6-16.28,4.28-25.52
		c-0.73-2.89-0.28-6.18,0.09-9.23c1.33-10.8-4.42-17.87-14.93-18.09c-3.72-9.45-17.74-18.83-28.71-18.92
		c-3.77-0.03-8.47-0.67-11.12,1.23c-6.25,4.49-12.61,9.62-16.74,15.92c-2.19,3.34,0.19,9.68,0.5,14.66c0.03,0.5-0.02,1.01,0.05,1.5
		c2.05,14.46,4.93,28.6,15.83,40.85c-5.44,1.75-10.34,3.85-15.45,4.82c-5.39,1.02-11.85,7.72-12.92,13.16
		c-2.62,13.25-5.87,26.38-8.78,39.58c-2.2,9.95-9.75,12.92-18.9,14.51c-3.06-13.4-6.47-26.76-9.06-40.27
		c-1.31-6.83-4.56-9.38-11.36-9.75c-21.61-1.18-43.2-2.89-64.79-4.38c-7.68-0.53-8.53,0.34-6.87,7.99
		c4.62,21.28,9.08,42.61,14.27,63.75c1.32,5.39,4.78,10.24,11.63,11.15c14.18,1.89,28.29,4.3,42.46,6.27
		c10.52,1.47,21.13,3.89,31.62,3.55c14.92-0.48,29.79-2.93,44.64-4.91c3.59-0.48,5.27-0.02,5.64,3.77c0.61,6.2,4.72,8.65,10.44,9.47
		c15.92,2.26,31.82,4.7,47.75,6.89c1.65,0.23,4.17-0.13,5.07-1.22c3.66-4.42,7.3-1.33,10.94-0.47c2.06,0.49,4.04,1.82,6.06,1.82
		c38.16,0.08,76.31,0.05,114.47-0.03c5.62-0.01,8.54-3.09,8.79-8.7c0.07-1.59,0.14-3.17,0.23-5.18c11.25,8.3,23.47,9.79,36.45,8.04
		c2.25-0.3,4.64,0.6,6.92,0.41c9.96-0.81,20.79,1.25,28.29-8.24c0.52-0.65,2.04-0.83,3.05-0.73c6.46,0.64,12.89,1.52,19.35,2.15
		c11.25,1.1,22.69,3.84,33.73,2.73c22.81-2.29,45.37-6.92,68.11-10c6.43-0.87,9.54-5.62,10.58-9.7
		c5.65-22.22,10.29-44.71,15.18-67.12C595.93,115.84,594.3,113.71,589.05,114.15z M515.08,123.98c0.43,0.1,0.85,0.2,1.28,0.29
		c-3.57,15.04-7.13,30.07-10.73,45.1c-0.02,0.09-0.4,0.09-0.71,0.11C508.28,154.3,511.68,139.14,515.08,123.98z M439.24,21.15
		c-12.76,6.08-18.24,15.42-20.04,27.31c-0.13,0.85-1.15,1.56-1.76,2.34c-0.66-0.55-1.75-1-1.92-1.68
		C412.35,36.86,424.65,21.18,439.24,21.15z M413.85,33.57c0.53,0.21,1.05,0.42,1.58,0.63c-1.18,6.3-2.36,12.61-3.54,18.91
		c-0.87-0.23-1.74-0.45-2.61-0.68C410.8,46.14,412.32,39.85,413.85,33.57z M416.73,70.89c-2.75-0.8-6.03-5.3-6.1-8.2
		c-0.06-2.58,3.72-7.09,6.28-7.47c4.41-0.65,8.13,2.26,7.62,7.9C424.22,68.02,422.24,72.49,416.73,70.89z M418.64,83.66
		c0.23-5.58,2.56-9.74,7.01-13.17c1.44-1.11,1.96-3.83,2.27-5.91c1.47-9.89,2.41-10.62,11.79-7.79c-0.36-2.37-0.21-3.76,0.26-4.54
		c-0.75,0.73-1.5,1.46-2.25,2.19c-1.04-0.89-2.09-1.78-3.13-2.68c-0.3-1.4-0.6-2.81-1.19-5.59c-1.59,2.48-2.32,4.07-3.46,5.29
		c-1.22,1.31-2.82,2.26-4.25,3.37c-1.3-2.05-3.84-4.2-3.69-6.13c1.53-19.31,17.29-30.08,35.36-23.59c3.43,1.23,8.52,4.96,6.64,11.38
		c-0.46,1.58,1.34,3.78,1.97,5.74c0.56,1.74,0.94,3.54,1.33,5.05c-2.99-0.91-6.08-1.85-9.18-2.79c-0.09,0.37-0.19,0.74-0.28,1.11
		c-5.23,0.39-10.46,0.78-15.68,1.17c0.84,0.31,1.68,0.62,2.52,0.92c-1.35,1.31-2.69,2.61-4.04,3.92c1.89-1,5.72,1.71,7.72,0.89
		c3.96-1.63,8.72-1.33,14.66-2.04c-3.71,12.2-6.42,24.34-11.14,35.64c-3.78,9.05-12.76,8.24-20.2-0.82
		c-0.56,0.51-1.12,1.03-1.68,1.54c2.33,1.98,4.63,3.99,7.01,5.91c2.29,1.85,5.7,3.21,6.6,5.56c0.53,1.4-2.49,5.67-4.52,6.17
		c-2.89,0.72-7.21,0.18-9.37-1.65c-4.63-3.91-8.46-8.85-12.14-13.73C416.81,88.13,418.57,85.53,418.64,83.66z M400.49,99.76
		c4.79-3.02,9.22-6.63,13.85-10.01c3.07,3.7,6.38,8.31,10.32,12.29c9.09,9.19,16.21,8.01,22.29-3.45c7.82,2.71,15.66,4.5,22.49,8.17
		c3.47,1.86,6.13,6.8,7.39,10.89c3.23,10.42,5.47,21.15,8.23,32.25c-3.42,1.36-7.03,2.8-11.27,4.48c0-3.18,0-5.8,0-8.42
		c-0.47-0.07-0.95-0.13-1.42-0.2c-0.38,2.43-0.6,4.91-1.18,7.29c-1.55,6.41-3.24,12.79-4.89,19.18c-0.12,0.47-0.25,1.01-0.55,1.36
		c-2.66,3.08-25.31,3.74-27.76,0.53c-11.77-15.4-23.47-30.86-34.96-46.47c-4.87-6.63-9.15-13.69-14.49-21.74
		C392.12,104.09,396.52,102.26,400.49,99.76z M279.57,38.71c5.26-9.81,11.94-18.77,22.27-24.32c5.24-2.81,9.63-2.76,14.14,1.18
		c8.63,7.55,20.27,12.52,23.12,25.07c1.97,8.68,2.74,17.63,4.05,26.46c-0.75,0.12-1.5,0.25-2.25,0.37
		c-6.85-15.32-15.16-30.78-33.94-30.86c-18.95-0.08-24.87,16.35-31.04,31.51C273.18,57.68,274.76,47.69,279.57,38.71z M322.69,99.4
		c-9.13,15.03-23.13,13.56-30.14-2.67c-4.22-9.77-6.81-20.34-9.35-30.74c-2.61-10.68,4.6-17.39,11.82-23.12
		c3.42-2.71,8.49-3.35,10.7-4.15c16.09,0.02,31.13,17.02,27.92,30.09C331.06,79.31,328.21,90.31,322.69,99.4z M311.15,128.06
		c-1.33,1.04-4.63,1.27-5.94,0.35c-12.56-8.88-15.47-15.28-11.58-24.83c11.03,11.34,17.81,11.33,29.8,0.25
		C327.14,112.56,324.8,117.43,311.15,128.06z M291.02,100.64c0.42,1.31-2.72,3.44-3.21,5.43c-0.59,2.4-1.09,5.74,0.1,7.48
		c2.98,4.35,6.94,8.04,10.52,11.98c1.08,1.19,2.19,2.35,3.33,3.58c-10.67,3.13-16.7-0.26-21.11-10.28
		c-3.47-7.89-6.14-14.96-4.6-23.74c1.68-9.57,2.1-19.37,3.02-28.65C283.11,77.76,287.33,89.11,291.02,100.64z M289.84,148.44h28.89
		v4.81h4.82v14.45h-4.82v4.82h-19.26v9.63h-9.63V148.44z M313.77,129.3c4.21-4.43,8.32-8.46,12.08-12.79
		c2.99-3.44,5.66-7.02,1.27-11.68c-1.09-1.16-1.01-4.21-0.39-6.04c3.59-10.72,7.5-21.34,11.3-31.99c0.46-0.22,0.91-0.44,1.37-0.66
		c0.91,13.28,3.03,26.63,2.39,39.84C341.2,118.07,324.63,130.88,313.77,129.3z M208.29,59.6c0.1-5.77,0.49-11.54,0.9-17.3
		c0.09-1.28,0.45-3.39,1.16-3.61c1.35-0.42,3.91-0.29,4.43,0.55c2.21,3.59,3.92,7.5,5.65,11.37c0.28,0.63-0.13,2.29-0.37,2.32
		c-6.65,0.85-2.42,4.73-1.63,6.89c3.7,10.09,3.06,17.83-3.59,28.57c-0.34-4.51-0.31-7.95-0.94-11.27c-0.68-3.59,2.19-8.9-4.64-10.09
		C208.51,66.9,208.24,62.19,208.29,59.6z M213.85,90.21c-0.66,0.55-1.32,1.1-1.98,1.65c-4.19-3.96-9.57-7.25-12.29-12.05
		c-3.53-6.24,0.38-11.97,5.47-17.08C208.07,72.18,210.96,81.2,213.85,90.21z M155.18,32.05c2.81-2.79,5.34-6.2,8.71-8.03
		c4.27-2.32,9.55-5.19,13.87-4.51c9.98,1.55,20.94,3.68,26.04,13.89c5.08,10.16,5.61,20.82-2.43,29.46
		c-2.71-3.13-5.22-6.03-8.28-9.57c-1.39,4.42-2.48,7.93-3.07,9.79c-5.4-5.23-10.94-10.74-16.71-16c-0.69-0.63-2.6,0.06-3.78,0.65
		c-4.48-0.49-8.95-0.97-13.43-1.46C150.71,43.4,150.38,36.81,155.18,32.05z M162.73,80.51c-3.75-8.76-6.33-18.02-9.31-26.71
		c2.08-0.96,3.96-1.25,4.22-2.05c1.58-4.98,3.33-2.93,6.31-1c4.51,2.91,9.66,4.8,16.01,7.83c-2.23-3.05-3.66-5.01-5.5-7.53
		c6.48,3.54,6.48,3.54,16.79,28.57c0-3.57-0.48-7.22,0.14-10.67c0.56-3.08,2.34-5.94,3.58-8.9c0.89,0.31,1.78,0.63,2.67,0.94
		c0,8.03,0,16.07,0,21.24c-3.29,4.67-5.21,9.63-8.82,11.93c-4.1,2.6-9.68,3.4-14.69,3.67c-1.53,0.08-3.29-4.19-4.45-5.8
		c5.55-3.36,9.89-5.99,14.22-8.61c-0.46-0.72-0.91-1.43-1.37-2.15c-0.79,0.66-1.63,1.28-2.36,1.99
		C173.41,89.83,166.39,89.06,162.73,80.51z M141.9,108.82c1.21-4.03,6.11-7.64,10.18-9.94c4.49-2.54,9.95-3.35,15.2-4.98
		c6.73,9.8,17.12,9.7,25.59-0.51c2.26-2.72,5.63-4.52,7.94-6.31c9.2,5.15,17.32,9.7,24.16,13.53
		c-8.97,13.75-17.02,26.62-25.62,39.11c-6.92,10.06-14.38,19.77-21.94,29.37c-1.15,1.45-4.11,1.8-6.3,2.01
		c-2.1,0.21-4.28-0.45-6.44-0.68c-4.06-0.43-11.18,0.16-11.68-1.39c-2.37-7.39-3.32-15.33-4-23.14c-0.36-4.14,0.85-8.42,1.35-12.64
		c-0.65-0.08-1.31-0.16-1.96-0.24c-0.84,5.54-1.68,11.08-2.55,16.81c-4.34-2.45-8.42-4.75-11.25-6.35
		C136.96,131.59,138.56,119.94,141.9,108.82z M150.22,169.47c-2.35-0.32-4.04-0.54-6.25-0.84c1.04-2.58,1.92-4.76,3.49-8.64
		C148.63,163.99,149.33,166.4,150.22,169.47z M112.6,178.49c-0.5,0.11-0.99,0.22-1.49,0.34c-1.5-7.84-3-15.68-4.49-23.53
		C108.61,163.03,110.6,170.76,112.6,178.49z M99.21,119.76c2.21,10.73,4.42,21.46,6.64,32.19c-2.76-10.6-5.52-21.21-8.28-31.81
		C98.12,120.01,98.66,119.88,99.21,119.76z M60.81,191.48c-4.27-0.65-8.53-1.38-12.82-1.91c-7.58-0.92-11.33-5.57-12.88-12.65
		c-4.41-20.12-8.91-40.22-13.35-60.33c-0.35-1.6-0.51-3.24-0.9-5.75c6.5,0.4,12.54,0.7,18.56,1.14c16.92,1.24,33.85,2.45,50.75,3.92
		c1.72,0.15,4.45,1.7,4.78,3.06c6.32,26.45,12.35,52.97,18.68,80.51C95.26,196.69,78.04,194.09,60.81,191.48z M118.4,163.82
		c7.97-1.2,11.78-6.69,13.88-13.76c1.07-3.61,2.93-3.69,5.9-2.16c7.95,4.1,9.72,12.7,3.71,19.05c-0.47,0.5-1.61,0.97-2.11,0.75
		c-8.38-3.77-15.07-0.09-21.62,4.62c-1.03,0.75-2.4,1.03-3.84,1.63C111.15,168.27,111.96,164.79,118.4,163.82z M165.2,193.91
		c-15.16,1.8-30.33,3.55-45.52,5.11c-1.49,0.15-3.12-1.06-4.69-1.64c0.3-0.72,0.59-1.44,0.89-2.16c17.57-1.5,35.14-3,52.72-4.49
		c0.14,0.56,0.28,1.11,0.41,1.67C167.74,192.91,166.51,193.75,165.2,193.91z M118.62,185.3c4.32-1.08,8.78-1.73,13.23-2.16
		c2.43-0.23,5.16,0.97,7.35,0.27c7.76-2.47,13.69,1.32,21.27,5.55c-14.26,1.22-26.98,2.37-39.72,3.27
		c-1.07,0.08-3.01-1.38-3.22-2.41C117.24,188.39,117.87,185.49,118.62,185.3z M164.31,187.57c-2.3-0.16-4.55-1.84-6.71-3.06
		c-5.56-3.14-11-4.9-17.84-3.82c-7.52,1.18-15.38,0.27-24.51,0.27c-1.1-2.09-0.13-3.71,3.64-6.62c8.72-6.75,17.22-5.04,26.67-3.13
		c8.69,1.76,17.72,1.81,26.51,2.6c-0.77,3.96-0.98,7.68-2.36,10.9C169.06,186.23,166.11,187.7,164.31,187.57z M240.8,212.62
		c-4.21-2.21-9.33-3.18-10.99-6.12c-4.05-7.15,0.46-16.32,10.99-25.11C240.8,191.37,240.8,201.09,240.8,212.62z M249.62,129.88
		c-6.03-0.12-8.52,2.73-8.53,8.41c-0.01,10.82,0.79,21.73-0.36,32.43c-0.53,4.96-3.97,10.61-7.86,13.76
		c-1.88,1.52-8.12-1.47-11.91-3.36c-6.88-3.44-13.38-7.64-20.1-11.41c-0.86-0.48-2.07-0.32-3.76,1.04
		c10.71,5.92,21.42,11.83,32.55,17.98c-3.55,7.75-6.01,16.29,2.51,24.81c-1.94,0.26-3.25,0.72-4.48,0.54
		c-14.79-2.08-29.55-4.43-44.37-6.35c-9.74-1.26-12.53-3.78-12.09-13.77c0.39-8.96,1.59-17.47,9.07-24.38
		c4.99-4.61,7.56-11.73,12.08-16.98c14.51-16.85,21.35-39.81,41.25-52.26c5.19-3.25,11.08-5.55,16.89-7.58
		c7.7-2.69,15.65-4.68,24.49-7.27c-4.31,15.55-1.81,30.43,10.46,44.44C271.82,129.94,260.72,130.1,249.62,129.88z M255.9,200.1
		c0,0.34-0.05,0.66-0.15,0.94c-0.1,0.29-0.24,0.54-0.43,0.75c-0.19,0.21-0.42,0.38-0.69,0.5c-0.27,0.12-0.58,0.18-0.93,0.18
		c-0.35,0-0.66-0.06-0.94-0.18c-0.27-0.12-0.5-0.28-0.69-0.5c-0.19-0.21-0.33-0.46-0.43-0.75c-0.1-0.29-0.15-0.6-0.15-0.94v-0.09
		c0-0.34,0.05-0.65,0.15-0.94c0.1-0.29,0.24-0.54,0.43-0.75c0.19-0.21,0.41-0.38,0.69-0.5c0.27-0.12,0.58-0.18,0.93-0.18
		c0.35,0,0.66,0.06,0.93,0.18c0.27,0.12,0.5,0.29,0.69,0.5c0.19,0.21,0.33,0.46,0.43,0.75c0.1,0.29,0.15,0.6,0.15,0.94V200.1z
		 M251.31,177.33v-28.89h9.63v19.26h4.81v-19.26h4.82v19.26h4.82v-19.26h9.63v28.89h-4.82v4.82h-4.82v-4.82h-4.82v-4.81h-4.82v4.81
		h-4.81v4.82h-4.82v-4.82H251.31z M261.14,200.1c0,0.34-0.04,0.65-0.12,0.94c-0.08,0.29-0.19,0.54-0.35,0.75
		c-0.15,0.21-0.35,0.38-0.57,0.5c-0.23,0.12-0.49,0.18-0.78,0.18c-0.15,0-0.3-0.02-0.43-0.05c-0.13-0.03-0.25-0.08-0.36-0.14
		c-0.07-0.04-0.13-0.09-0.19-0.13c-0.06-0.05-0.12-0.1-0.17-0.16v2.19h-1.2v-6.44h1.11l0.04,0.46c0.06-0.08,0.13-0.15,0.21-0.21
		c0.07-0.06,0.15-0.12,0.24-0.16c0.1-0.06,0.22-0.1,0.34-0.13c0.12-0.03,0.26-0.04,0.4-0.04c0.3,0,0.56,0.06,0.78,0.17
		c0.23,0.11,0.42,0.27,0.57,0.48c0.15,0.21,0.27,0.46,0.35,0.75s0.12,0.61,0.12,0.97V200.1z M266.49,200.44h-3.16v0.01
		c0.04,0.19,0.09,0.34,0.16,0.45c0.06,0.11,0.15,0.22,0.25,0.31c0.11,0.09,0.23,0.17,0.37,0.22c0.14,0.05,0.29,0.08,0.46,0.08
		c0.23,0,0.46-0.04,0.68-0.13c0.22-0.09,0.4-0.22,0.54-0.4l0.6,0.64c-0.15,0.21-0.39,0.41-0.72,0.58c-0.33,0.17-0.72,0.26-1.17,0.26
		c-0.36,0-0.68-0.06-0.98-0.18c-0.29-0.12-0.54-0.28-0.75-0.48c-0.21-0.2-0.37-0.44-0.48-0.71c-0.11-0.27-0.17-0.57-0.17-0.88v-0.17
		c0-0.35,0.06-0.68,0.17-0.97c0.11-0.29,0.27-0.55,0.47-0.76c0.2-0.21,0.44-0.38,0.71-0.49c0.28-0.12,0.57-0.18,0.9-0.18
		c0.33,0,0.63,0.06,0.9,0.17c0.26,0.11,0.48,0.27,0.67,0.47c0.18,0.2,0.32,0.44,0.41,0.72c0.09,0.28,0.14,0.59,0.14,0.93V200.44z
		 M271.69,202.38h-1.2v-2.85c0-0.18-0.02-0.33-0.06-0.45c-0.04-0.12-0.1-0.21-0.18-0.28c-0.08-0.07-0.17-0.12-0.28-0.14
		c-0.11-0.03-0.23-0.04-0.37-0.04c-0.12,0-0.22,0.01-0.32,0.04c-0.1,0.03-0.18,0.06-0.26,0.12c-0.06,0.04-0.12,0.08-0.16,0.13
		c-0.05,0.05-0.09,0.11-0.13,0.17v3.31h-1.2v-4.65h1.08l0.07,0.65c0.06-0.09,0.13-0.17,0.2-0.24c0.07-0.07,0.15-0.14,0.23-0.19
		c0.14-0.1,0.29-0.17,0.45-0.22s0.34-0.08,0.52-0.08c0.24,0,0.45,0.03,0.65,0.1c0.2,0.07,0.36,0.18,0.51,0.33
		c0.14,0.15,0.25,0.35,0.33,0.58c0.08,0.24,0.12,0.52,0.12,0.86V202.38z M277.01,200.1h-3.58v-0.97h3.58V200.1z M282.12,201.62
		c-0.1,0.17-0.24,0.32-0.42,0.45c-0.18,0.13-0.4,0.22-0.66,0.29c-0.26,0.07-0.55,0.11-0.86,0.11c-0.35,0-0.66-0.05-0.93-0.14
		c-0.27-0.09-0.49-0.21-0.67-0.36c-0.18-0.15-0.32-0.31-0.41-0.5c-0.09-0.19-0.14-0.38-0.14-0.57h1.14c0.01,0.13,0.04,0.23,0.1,0.32
		c0.06,0.09,0.14,0.16,0.23,0.22c0.09,0.06,0.2,0.1,0.32,0.12c0.12,0.03,0.25,0.04,0.38,0.04c0.15,0,0.29-0.01,0.41-0.04
		c0.12-0.03,0.21-0.06,0.29-0.11c0.07-0.05,0.13-0.1,0.16-0.16c0.04-0.06,0.05-0.13,0.05-0.2c0-0.07-0.02-0.14-0.05-0.19
		c-0.03-0.05-0.09-0.11-0.17-0.15c-0.09-0.05-0.2-0.09-0.34-0.13c-0.14-0.04-0.32-0.08-0.53-0.12c-0.27-0.06-0.52-0.12-0.75-0.2
		c-0.22-0.08-0.42-0.18-0.58-0.3c-0.16-0.12-0.29-0.25-0.38-0.4c-0.09-0.15-0.14-0.33-0.14-0.52c0-0.19,0.05-0.38,0.14-0.55
		c0.09-0.17,0.22-0.33,0.4-0.46c0.17-0.13,0.38-0.24,0.63-0.32c0.25-0.08,0.52-0.12,0.83-0.12c0.32,0,0.62,0.04,0.87,0.11
		c0.26,0.08,0.48,0.18,0.66,0.31c0.18,0.13,0.31,0.29,0.41,0.48c0.09,0.18,0.14,0.38,0.14,0.6h-1.2c0-0.08-0.01-0.15-0.04-0.22
		c-0.03-0.07-0.06-0.13-0.12-0.18c-0.07-0.07-0.17-0.13-0.29-0.17c-0.12-0.04-0.27-0.06-0.44-0.06c-0.15,0-0.27,0.01-0.38,0.04
		c-0.11,0.03-0.2,0.07-0.27,0.12c-0.06,0.05-0.11,0.1-0.14,0.16s-0.05,0.13-0.05,0.2c0,0.07,0.01,0.13,0.04,0.19
		s0.08,0.11,0.16,0.16c0.07,0.05,0.17,0.09,0.3,0.13c0.13,0.04,0.29,0.07,0.48,0.1c0.28,0.05,0.54,0.1,0.78,0.18
		c0.24,0.07,0.45,0.16,0.62,0.27c0.17,0.12,0.31,0.25,0.41,0.42c0.1,0.16,0.15,0.35,0.15,0.58
		C282.27,201.26,282.22,201.45,282.12,201.62z M287.62,200.1c0,0.34-0.05,0.66-0.15,0.94c-0.1,0.29-0.24,0.54-0.43,0.75
		c-0.19,0.21-0.42,0.38-0.69,0.5c-0.27,0.12-0.58,0.18-0.93,0.18c-0.35,0-0.66-0.06-0.94-0.18c-0.27-0.12-0.5-0.28-0.69-0.5
		c-0.19-0.21-0.33-0.46-0.43-0.75c-0.1-0.29-0.15-0.6-0.15-0.94v-0.09c0-0.34,0.05-0.65,0.15-0.94c0.1-0.29,0.24-0.54,0.43-0.75
		c0.19-0.21,0.41-0.38,0.69-0.5c0.27-0.12,0.58-0.18,0.93-0.18c0.35,0,0.66,0.06,0.93,0.18c0.27,0.12,0.5,0.29,0.69,0.5
		c0.19,0.21,0.33,0.46,0.43,0.75c0.1,0.29,0.15,0.6,0.15,0.94V200.1z M292.79,202.38h-1.08l-0.07-0.65
		c-0.16,0.23-0.35,0.41-0.57,0.55c-0.22,0.13-0.46,0.2-0.73,0.2c-0.24,0-0.46-0.04-0.66-0.11c-0.2-0.07-0.37-0.19-0.52-0.36
		c-0.14-0.16-0.25-0.37-0.33-0.62c-0.08-0.25-0.12-0.55-0.12-0.9v-2.75h1.2v2.76c0,0.19,0.01,0.35,0.04,0.48
		c0.03,0.13,0.07,0.23,0.13,0.31c0.06,0.08,0.14,0.14,0.24,0.17c0.1,0.03,0.22,0.05,0.36,0.05c0.13,0,0.24-0.01,0.34-0.04
		c0.1-0.03,0.19-0.06,0.27-0.11c0.07-0.04,0.13-0.09,0.18-0.15c0.05-0.06,0.1-0.13,0.13-0.2v-3.27h1.2V202.38z M298,198.95
		c-0.16-0.04-0.32-0.06-0.48-0.08c-0.16-0.02-0.32-0.03-0.47-0.03c-0.16,0-0.29,0.01-0.42,0.04c-0.13,0.03-0.24,0.07-0.33,0.12
		c-0.12,0.06-0.22,0.14-0.3,0.24c-0.08,0.1-0.15,0.21-0.21,0.34v2.8h-1.2v-4.65h1.11l0.05,0.66l0.01,0.1
		c0.19-0.26,0.42-0.47,0.68-0.62c0.26-0.15,0.55-0.23,0.86-0.23c0.18,0,0.35,0.01,0.5,0.04c0.15,0.02,0.28,0.05,0.37,0.08
		L298,198.95z M300.38,200.64c0.03,0.17,0.08,0.32,0.16,0.44c0.07,0.13,0.17,0.23,0.29,0.31c0.12,0.08,0.28,0.12,0.48,0.12
		c0.12,0,0.23-0.02,0.34-0.05c0.11-0.03,0.2-0.08,0.28-0.15s0.14-0.14,0.19-0.23c0.04-0.09,0.06-0.19,0.06-0.3h1.13
		c0.01,0.24-0.04,0.46-0.15,0.67c-0.1,0.21-0.25,0.38-0.43,0.53c-0.18,0.15-0.39,0.27-0.63,0.35c-0.24,0.08-0.49,0.13-0.76,0.13
		c-0.36,0-0.68-0.06-0.95-0.18c-0.27-0.12-0.5-0.29-0.68-0.5c-0.18-0.21-0.32-0.46-0.42-0.75c-0.09-0.29-0.14-0.59-0.14-0.92v-0.13
		c0-0.33,0.05-0.63,0.14-0.92c0.09-0.29,0.23-0.53,0.41-0.75c0.18-0.21,0.41-0.38,0.68-0.5c0.27-0.12,0.59-0.18,0.94-0.18
		c0.29,0,0.55,0.04,0.8,0.13c0.24,0.09,0.45,0.21,0.63,0.36c0.17,0.16,0.31,0.35,0.41,0.57c0.1,0.22,0.14,0.47,0.14,0.75h-1.13
		c0.01-0.12-0.01-0.22-0.05-0.33c-0.04-0.1-0.1-0.19-0.18-0.27c-0.08-0.07-0.17-0.13-0.28-0.18c-0.11-0.04-0.23-0.07-0.36-0.07
		c-0.19,0-0.35,0.04-0.47,0.12c-0.12,0.08-0.22,0.18-0.29,0.31c-0.07,0.13-0.13,0.28-0.16,0.44c-0.03,0.17-0.04,0.34-0.04,0.52v0.13
		C300.34,200.3,300.35,200.48,300.38,200.64z M308.78,200.44h-3.16v0.01c0.04,0.19,0.09,0.34,0.16,0.45
		c0.06,0.11,0.15,0.22,0.25,0.31c0.11,0.09,0.23,0.17,0.37,0.22c0.14,0.05,0.29,0.08,0.46,0.08c0.23,0,0.46-0.04,0.68-0.13
		c0.22-0.09,0.4-0.22,0.54-0.4l0.6,0.64c-0.15,0.21-0.39,0.41-0.72,0.58c-0.33,0.17-0.72,0.26-1.17,0.26
		c-0.36,0-0.68-0.06-0.98-0.18c-0.29-0.12-0.54-0.28-0.75-0.48c-0.21-0.2-0.37-0.44-0.48-0.71c-0.11-0.27-0.17-0.57-0.17-0.88v-0.17
		c0-0.35,0.06-0.68,0.17-0.97c0.11-0.29,0.27-0.55,0.47-0.76c0.2-0.21,0.44-0.38,0.71-0.49c0.28-0.12,0.57-0.18,0.9-0.18
		c0.33,0,0.63,0.06,0.9,0.17c0.26,0.11,0.48,0.27,0.67,0.47c0.18,0.2,0.32,0.44,0.41,0.72s0.14,0.59,0.14,0.93V200.44z
		 M319.35,200.44h-3.16v0.01c0.04,0.19,0.09,0.34,0.16,0.45c0.06,0.11,0.15,0.22,0.25,0.31c0.11,0.09,0.23,0.17,0.37,0.22
		c0.14,0.05,0.29,0.08,0.46,0.08c0.23,0,0.46-0.04,0.68-0.13c0.22-0.09,0.4-0.22,0.54-0.4l0.6,0.64c-0.15,0.21-0.39,0.41-0.72,0.58
		c-0.33,0.17-0.72,0.26-1.17,0.26c-0.36,0-0.68-0.06-0.98-0.18c-0.29-0.12-0.54-0.28-0.75-0.48c-0.21-0.2-0.37-0.44-0.48-0.71
		c-0.11-0.27-0.17-0.57-0.17-0.88v-0.17c0-0.35,0.06-0.68,0.17-0.97c0.11-0.29,0.27-0.55,0.47-0.76c0.2-0.21,0.44-0.38,0.71-0.49
		c0.28-0.12,0.57-0.18,0.9-0.18c0.33,0,0.63,0.06,0.9,0.17c0.26,0.11,0.48,0.27,0.67,0.47c0.18,0.2,0.32,0.44,0.41,0.72
		c0.09,0.28,0.14,0.59,0.14,0.93V200.44z M324.43,202.38h-1.08l-0.06-0.49c-0.15,0.18-0.32,0.32-0.52,0.42s-0.43,0.15-0.69,0.15
		c-0.28,0-0.54-0.06-0.76-0.18c-0.23-0.12-0.42-0.28-0.57-0.49c-0.16-0.21-0.28-0.46-0.36-0.75c-0.08-0.29-0.13-0.6-0.13-0.94v-0.09
		c0-0.35,0.04-0.68,0.12-0.97c0.08-0.29,0.2-0.54,0.36-0.75c0.16-0.21,0.35-0.37,0.57-0.49c0.23-0.12,0.48-0.17,0.77-0.17
		c0.24,0,0.46,0.04,0.64,0.13c0.18,0.09,0.35,0.21,0.49,0.37v-2.37h1.2V202.38z M329.8,202.38h-1.08l-0.07-0.65
		c-0.16,0.23-0.35,0.41-0.57,0.55c-0.22,0.13-0.46,0.2-0.73,0.2c-0.24,0-0.46-0.04-0.66-0.11c-0.2-0.07-0.37-0.19-0.52-0.36
		c-0.14-0.16-0.25-0.37-0.33-0.62c-0.08-0.25-0.12-0.55-0.12-0.9v-2.75h1.2v2.76c0,0.19,0.01,0.35,0.04,0.48
		c0.03,0.13,0.07,0.23,0.13,0.31c0.06,0.08,0.14,0.14,0.24,0.17c0.1,0.03,0.22,0.05,0.36,0.05c0.13,0,0.24-0.01,0.34-0.04
		c0.1-0.03,0.19-0.06,0.27-0.11c0.07-0.04,0.13-0.09,0.18-0.15c0.05-0.06,0.1-0.13,0.13-0.2v-3.27h1.2V202.38z M332.1,200.64
		c0.03,0.17,0.08,0.32,0.16,0.44c0.07,0.13,0.17,0.23,0.29,0.31c0.12,0.08,0.28,0.12,0.48,0.12c0.12,0,0.23-0.02,0.34-0.05
		c0.11-0.03,0.2-0.08,0.28-0.15s0.14-0.14,0.19-0.23c0.04-0.09,0.06-0.19,0.06-0.3h1.13c0.01,0.24-0.04,0.46-0.15,0.67
		c-0.1,0.21-0.25,0.38-0.43,0.53c-0.18,0.15-0.39,0.27-0.63,0.35c-0.24,0.08-0.49,0.13-0.76,0.13c-0.36,0-0.68-0.06-0.95-0.18
		c-0.27-0.12-0.5-0.29-0.68-0.5c-0.18-0.21-0.32-0.46-0.42-0.75c-0.09-0.29-0.14-0.59-0.14-0.92v-0.13c0-0.33,0.05-0.63,0.14-0.92
		c0.09-0.29,0.23-0.53,0.41-0.75c0.18-0.21,0.41-0.38,0.68-0.5c0.27-0.12,0.59-0.18,0.94-0.18c0.29,0,0.55,0.04,0.8,0.13
		c0.24,0.09,0.45,0.21,0.63,0.36c0.17,0.16,0.31,0.35,0.41,0.57c0.1,0.22,0.14,0.47,0.14,0.75h-1.13c0.01-0.12-0.01-0.22-0.05-0.33
		c-0.04-0.1-0.1-0.19-0.18-0.27c-0.08-0.07-0.17-0.13-0.28-0.18c-0.11-0.04-0.23-0.07-0.36-0.07c-0.19,0-0.35,0.04-0.47,0.12
		c-0.12,0.08-0.22,0.18-0.29,0.31c-0.07,0.13-0.13,0.28-0.16,0.44c-0.03,0.17-0.04,0.34-0.04,0.52v0.13
		C332.05,200.3,332.07,200.48,332.1,200.64z M340.37,202.38h-1.21c-0.03-0.06-0.05-0.12-0.07-0.2c-0.02-0.07-0.04-0.15-0.05-0.24
		c-0.07,0.07-0.14,0.14-0.23,0.2c-0.09,0.06-0.18,0.12-0.28,0.16c-0.11,0.05-0.22,0.09-0.35,0.12c-0.13,0.03-0.26,0.04-0.41,0.04
		c-0.24,0-0.46-0.03-0.66-0.1c-0.2-0.07-0.37-0.17-0.51-0.29s-0.26-0.27-0.34-0.44c-0.08-0.17-0.12-0.36-0.12-0.56
		c0-0.26,0.05-0.49,0.15-0.69c0.1-0.2,0.25-0.36,0.45-0.49c0.18-0.12,0.4-0.21,0.67-0.27c0.27-0.06,0.57-0.09,0.91-0.09h0.67v-0.27
		c0-0.11-0.02-0.21-0.05-0.29c-0.03-0.09-0.09-0.16-0.16-0.23c-0.07-0.06-0.16-0.12-0.27-0.15c-0.11-0.03-0.23-0.05-0.38-0.05
		c-0.13,0-0.24,0.02-0.33,0.05c-0.09,0.03-0.17,0.07-0.22,0.13c-0.05,0.05-0.09,0.11-0.11,0.17c-0.02,0.07-0.04,0.14-0.04,0.23h-1.2
		c0-0.2,0.04-0.39,0.13-0.56c0.09-0.18,0.22-0.33,0.39-0.47c0.17-0.13,0.37-0.24,0.61-0.32c0.24-0.08,0.52-0.12,0.83-0.12
		c0.28,0,0.54,0.03,0.78,0.1c0.24,0.07,0.45,0.17,0.63,0.31c0.18,0.14,0.32,0.3,0.42,0.51c0.1,0.2,0.15,0.44,0.15,0.71v2
		c0,0.25,0.02,0.46,0.05,0.62c0.03,0.16,0.08,0.3,0.14,0.42V202.38z M345.37,202.31c-0.11,0.04-0.23,0.06-0.36,0.09
		c-0.13,0.02-0.26,0.04-0.39,0.05c-0.14,0.01-0.27,0.02-0.4,0.02c-0.26,0-0.49-0.03-0.7-0.1c-0.21-0.07-0.38-0.17-0.53-0.32
		c-0.15-0.14-0.26-0.32-0.34-0.54c-0.08-0.22-0.12-0.48-0.12-0.79v-2.12h-1.06v-0.88h1.06v-1.14h1.2v1.14h1.74v0.88h-1.74v2
		c0,0.17,0.02,0.31,0.06,0.42c0.04,0.11,0.09,0.2,0.17,0.27c0.07,0.07,0.16,0.12,0.26,0.15c0.1,0.03,0.22,0.04,0.34,0.04
		c0.09,0,0.19,0,0.28-0.01c0.1-0.01,0.19-0.02,0.28-0.03c0.09-0.01,0.17-0.02,0.24-0.04c0.08-0.02,0.14-0.03,0.2-0.04l0.12,0.82
		C345.58,202.23,345.48,202.27,345.37,202.31z M350.93,202.38h-3.79v-0.97h1.32v-2.7h-1.32v-0.98h2.53v3.68h1.26V202.38z
		 M348.37,196.53c0-0.09,0.02-0.18,0.05-0.26c0.03-0.08,0.08-0.15,0.14-0.2c0.06-0.05,0.13-0.1,0.22-0.13
		c0.08-0.03,0.18-0.05,0.28-0.05c0.21,0,0.38,0.06,0.51,0.18c0.12,0.12,0.19,0.27,0.19,0.46c0,0.19-0.06,0.34-0.19,0.46
		c-0.12,0.12-0.29,0.18-0.51,0.18c-0.1,0-0.2-0.02-0.28-0.05c-0.08-0.03-0.16-0.08-0.22-0.13c-0.06-0.06-0.11-0.12-0.14-0.2
		C348.39,196.71,348.37,196.63,348.37,196.53z M356.33,200.1c0,0.34-0.05,0.66-0.15,0.94c-0.1,0.29-0.24,0.54-0.43,0.75
		c-0.19,0.21-0.42,0.38-0.69,0.5c-0.27,0.12-0.58,0.18-0.93,0.18c-0.35,0-0.66-0.06-0.94-0.18c-0.27-0.12-0.5-0.28-0.69-0.5
		c-0.19-0.21-0.33-0.46-0.43-0.75c-0.1-0.29-0.15-0.6-0.15-0.94v-0.09c0-0.34,0.05-0.65,0.15-0.94c0.1-0.29,0.24-0.54,0.43-0.75
		c0.19-0.21,0.41-0.38,0.69-0.5c0.27-0.12,0.58-0.18,0.93-0.18c0.35,0,0.66,0.06,0.93,0.18c0.27,0.12,0.5,0.29,0.69,0.5
		c0.19,0.21,0.33,0.46,0.43,0.75c0.1,0.29,0.15,0.6,0.15,0.94V200.1z M361.54,202.38h-1.2v-2.85c0-0.18-0.02-0.33-0.06-0.45
		c-0.04-0.12-0.1-0.21-0.18-0.28c-0.08-0.07-0.17-0.12-0.28-0.14c-0.11-0.03-0.23-0.04-0.37-0.04c-0.12,0-0.22,0.01-0.32,0.04
		c-0.1,0.03-0.18,0.06-0.26,0.12c-0.06,0.04-0.12,0.08-0.16,0.13c-0.05,0.05-0.09,0.11-0.13,0.17v3.31h-1.2v-4.65h1.08l0.07,0.65
		c0.06-0.09,0.13-0.17,0.2-0.24c0.07-0.07,0.15-0.14,0.23-0.19c0.14-0.1,0.29-0.17,0.45-0.22c0.16-0.05,0.34-0.08,0.52-0.08
		c0.24,0,0.45,0.03,0.65,0.1c0.2,0.07,0.36,0.18,0.51,0.33c0.14,0.15,0.25,0.35,0.33,0.58c0.08,0.24,0.12,0.52,0.12,0.86V202.38z
		 M362.07,158.07h-9.63v-4.82h-14.45v9.63h19.26v4.81h4.82v9.63h-4.82v4.82h-24.08v-4.82h-4.81v-4.81h9.63v4.81h14.45v-9.63h-19.26
		v-4.81h-4.81v-9.63h4.81v-4.81h24.08v4.81h4.82V158.07z M378.98,203.77c-4.73-3.07-6.64-6.54-6.05-12.17
		c0.57-5.42,0.16-10.94,0.2-16.41c0-0.27,0.25-0.54,0.37-0.78c6.51,3.66,13.33,6.85,19.41,11.09c5.41,3.77,5.6,12.82,1.27,17.99
		C390.04,208.45,385.75,208.16,378.98,203.77z M442.72,199.84c-0.1,2.23-3.34,5.8-5.6,6.21c-7.76,1.41-15.71,1.77-23.6,2.37
		c-6.35,0.48-12.71,0.73-21.29,1.21c9.19-9.26,8.69-17.64,2.79-26.21c10.07-0.93,18.19-6.69,18.54-13.3
		c-2.59,2.46-4.73,4.95-7.31,6.84c-8.66,6.35-15.68,4.8-24.71-0.47c-8.46-4.94-9.01-11.28-8.57-19.27
		c0.35-6.31,0.16-12.66,0.03-18.99c-0.11-5.52-2.51-8.55-8.62-8.42c-11.79,0.25-23.58,0.07-36.07,0.07
		c9.14-11.54,20.29-21.23,15.69-38.28c2.12,0.68,3.27,1.05,4.41,1.42c8.48,2.7,17.67,4.15,25.26,8.43
		c7.96,4.49,16.45,10.42,21.08,17.96c12.24,19.92,26.01,38.54,41.21,56.16C442.15,182.72,443.1,191.19,442.72,199.84z M494.2,204.88
		c-15.57-1.56-31.12-3.28-46.66-5.06c-0.85-0.1-1.6-0.99-2.4-1.51c0.19-0.57,0.38-1.14,0.57-1.71c10.9,0.88,21.8,1.73,32.7,2.65
		c5.31,0.45,10.62,0.9,15.89,1.65c1.34,0.19,2.52,1.52,3.77,2.32C496.78,203.81,495.43,205,494.2,204.88z M448.25,191.95
		c16.34-1.57,32.67-3.15,49.77-4.79c-2.71,13.68-0.83,11.05-11.6,10.42c-12.7-0.74-25.36-2.2-38.04-3.35
		C448.33,193.47,448.29,192.71,448.25,191.95z M497.56,185.25c-1.44,0.88-3.48,0.88-5.29,1.04c-13.61,1.26-27.31,1.91-40.8,3.97
		c-5.58,0.85-7.6,0.01-7.9-5.39c-0.09-1.69-0.64-3.36-0.93-4.79c12.55-1.96,24.65-4.92,36.84-5.32c6.26-0.2,12.69,4.12,18.95,6.63
		C498.67,181.49,498.38,184.75,497.56,185.25z M486.67,173.51c-1.8-0.77-3.84-1.62-5.69-1.46c-4.56,0.4-8.17-0.55-8.74-5.61
		c-0.57-5,0.31-9.63,6.21-11.33c1.73-0.5,3.39-1.22,5.36-1.95c0.74,2.04,1.6,3.84,2.05,5.74c1.34,5.71,3.99,9.95,10.35,11.05
		c5.28,0.92,6.34,4,3.05,9.38C495,177.35,490.88,175.32,486.67,173.51z M504.43,171.58c-0.99,6.39-1.99,12.78-2.98,19.17
		c-0.49-0.09-0.97-0.18-1.46-0.27C501.47,184.17,502.95,177.87,504.43,171.58z M585.92,150.38c-2.27,10.39-4.62,20.77-6.94,31.15
		c-2.03,9.07-5.34,12.47-14.52,13.93c-20.37,3.24-40.77,6.27-61.16,9.36c-0.79,0.12-1.62,0.02-3.07,0.02
		c6.08-26.57,11.99-52.67,18.15-78.7c0.42-1.76,2.68-4.25,4.25-4.38c22.9-1.85,45.82-3.35,68.74-4.91c0.27-0.02,0.56,0.28,1.57,0.81
		C590.64,128.42,588.32,139.41,585.92,150.38z"/>
	<path d="M307.34,198.87c-0.08-0.08-0.18-0.14-0.29-0.19c-0.12-0.05-0.25-0.07-0.4-0.07c-0.13,0-0.26,0.02-0.37,0.07
		c-0.11,0.05-0.21,0.12-0.29,0.2c-0.09,0.09-0.16,0.2-0.22,0.32c-0.06,0.12-0.1,0.26-0.13,0.41h1.96v-0.09
		c0-0.13-0.02-0.24-0.07-0.36S307.42,198.95,307.34,198.87z"/>
	<path d="M259.73,199.01c-0.08-0.12-0.18-0.22-0.29-0.29c-0.12-0.07-0.26-0.11-0.43-0.11c-0.1,0-0.19,0.01-0.27,0.03
		s-0.15,0.05-0.22,0.08c-0.07,0.04-0.14,0.09-0.2,0.15c-0.06,0.06-0.1,0.13-0.14,0.21v1.94c0.04,0.08,0.08,0.14,0.14,0.2
		c0.05,0.06,0.11,0.11,0.18,0.15c0.07,0.04,0.14,0.07,0.23,0.09c0.09,0.02,0.18,0.03,0.29,0.03c0.17,0,0.31-0.04,0.43-0.11
		c0.12-0.07,0.22-0.18,0.29-0.31c0.07-0.13,0.13-0.28,0.16-0.45c0.03-0.17,0.05-0.35,0.05-0.54v-0.09c0-0.2-0.02-0.38-0.05-0.55
		C259.86,199.29,259.8,199.14,259.73,199.01z"/>
	<path d="M254.47,199.02c-0.08-0.13-0.18-0.23-0.31-0.3c-0.13-0.08-0.28-0.11-0.46-0.11c-0.18,0-0.33,0.04-0.46,0.11
		c-0.13,0.07-0.23,0.18-0.31,0.3c-0.08,0.13-0.14,0.28-0.18,0.45c-0.04,0.17-0.06,0.35-0.06,0.54v0.09c0,0.19,0.02,0.38,0.06,0.55
		c0.04,0.17,0.1,0.32,0.18,0.44c0.08,0.13,0.18,0.23,0.31,0.31c0.13,0.07,0.28,0.11,0.46,0.11c0.17,0,0.32-0.04,0.45-0.11
		c0.13-0.07,0.23-0.18,0.31-0.31c0.08-0.13,0.13-0.27,0.17-0.44c0.04-0.17,0.06-0.35,0.06-0.55v-0.09c0-0.19-0.02-0.37-0.06-0.54
		C254.61,199.3,254.55,199.15,254.47,199.02z"/>
	<rect x="299.47" y="153.25" width="14.45" height="14.45"/>
	<g>
		<g>
			<g>
				<path class="st0" d="M256.13,182.15v-4.82h-4.82v-28.89h9.63v19.26h4.81v-19.26h4.82v19.26h4.82v-19.26h9.63v28.89h-4.82v4.82
					h-4.82v-4.82h-4.82v-4.81h-4.82v4.81h-4.81v4.82H256.13z"/>
			</g>
			<g>
				<path class="st0" d="M289.84,182.15v-33.71h28.89v4.81h4.82v14.45h-4.82v4.82h-19.26v9.63H289.84z M299.47,167.7h14.45v-14.45
					h-14.45V167.7z"/>
			</g>
			<g>
				<path class="st0" d="M333.18,182.15v-4.82h-4.81v-4.81h9.63v4.81h14.45v-9.63h-19.26v-4.81h-4.81v-9.63h4.81v-4.81h24.08v4.81
					h4.82v4.82h-9.63v-4.82h-14.45v9.63h19.26v4.81h4.82v9.63h-4.82v4.82H333.18z"/>
			</g>
		</g>
		<g>
			<path class="st0" d="M251.66,199.07c0.1-0.29,0.24-0.54,0.43-0.75c0.19-0.21,0.41-0.38,0.69-0.5c0.27-0.12,0.58-0.18,0.93-0.18
				s0.66,0.06,0.93,0.18c0.27,0.12,0.5,0.29,0.69,0.5c0.19,0.21,0.33,0.46,0.43,0.75c0.1,0.29,0.15,0.6,0.15,0.94v0.09
				c0,0.34-0.05,0.66-0.15,0.94c-0.1,0.29-0.24,0.54-0.43,0.75c-0.19,0.21-0.42,0.38-0.69,0.5c-0.27,0.12-0.58,0.18-0.93,0.18
				c-0.35,0-0.66-0.06-0.94-0.18c-0.27-0.12-0.5-0.28-0.69-0.5c-0.19-0.21-0.33-0.46-0.43-0.75c-0.1-0.29-0.15-0.6-0.15-0.94v-0.09
				C251.51,199.67,251.56,199.36,251.66,199.07z M252.76,200.65c0.04,0.17,0.1,0.32,0.18,0.44c0.08,0.13,0.18,0.23,0.31,0.31
				c0.13,0.07,0.28,0.11,0.46,0.11c0.17,0,0.32-0.04,0.45-0.11c0.13-0.07,0.23-0.18,0.31-0.31c0.08-0.13,0.13-0.27,0.17-0.44
				c0.04-0.17,0.06-0.35,0.06-0.55v-0.09c0-0.19-0.02-0.37-0.06-0.54c-0.04-0.17-0.09-0.32-0.17-0.45c-0.08-0.13-0.18-0.23-0.31-0.3
				c-0.13-0.08-0.28-0.11-0.46-0.11c-0.18,0-0.33,0.04-0.46,0.11c-0.13,0.07-0.23,0.18-0.31,0.3c-0.08,0.13-0.14,0.28-0.18,0.45
				c-0.04,0.17-0.06,0.35-0.06,0.54v0.09C252.71,200.29,252.73,200.48,252.76,200.65z"/>
			<path class="st0" d="M256.98,197.73h1.11l0.04,0.46c0.06-0.08,0.13-0.15,0.21-0.21c0.07-0.06,0.15-0.12,0.24-0.16
				c0.1-0.06,0.22-0.1,0.34-0.13c0.12-0.03,0.26-0.04,0.4-0.04c0.3,0,0.56,0.06,0.78,0.17c0.23,0.11,0.42,0.27,0.57,0.48
				c0.15,0.21,0.27,0.46,0.35,0.75s0.12,0.61,0.12,0.97v0.09c0,0.34-0.04,0.65-0.12,0.94c-0.08,0.29-0.19,0.54-0.35,0.75
				c-0.15,0.21-0.35,0.38-0.57,0.5c-0.23,0.12-0.49,0.18-0.78,0.18c-0.15,0-0.3-0.02-0.43-0.05c-0.13-0.03-0.25-0.08-0.36-0.14
				c-0.07-0.04-0.13-0.09-0.19-0.13c-0.06-0.05-0.12-0.1-0.17-0.16v2.19h-1.2V197.73z M259.89,199.46
				c-0.04-0.17-0.09-0.32-0.17-0.45c-0.08-0.12-0.18-0.22-0.29-0.29c-0.12-0.07-0.26-0.11-0.43-0.11c-0.1,0-0.19,0.01-0.27,0.03
				c-0.08,0.02-0.15,0.05-0.22,0.08c-0.07,0.04-0.14,0.09-0.2,0.15c-0.06,0.06-0.1,0.13-0.14,0.21v1.94
				c0.04,0.08,0.08,0.14,0.14,0.2c0.05,0.06,0.11,0.11,0.18,0.15c0.07,0.04,0.14,0.07,0.23,0.09c0.09,0.02,0.18,0.03,0.29,0.03
				c0.17,0,0.31-0.04,0.43-0.11c0.12-0.07,0.22-0.18,0.29-0.31c0.07-0.13,0.13-0.28,0.16-0.45c0.03-0.17,0.05-0.35,0.05-0.54v-0.09
				C259.94,199.81,259.93,199.63,259.89,199.46z"/>
			<path class="st0" d="M263.53,202.29c-0.29-0.12-0.54-0.28-0.75-0.48c-0.21-0.2-0.37-0.44-0.48-0.71
				c-0.11-0.27-0.17-0.57-0.17-0.88v-0.17c0-0.35,0.06-0.68,0.17-0.97c0.11-0.29,0.27-0.55,0.47-0.76c0.2-0.21,0.44-0.38,0.71-0.49
				c0.28-0.12,0.57-0.18,0.9-0.18c0.33,0,0.63,0.06,0.9,0.17c0.26,0.11,0.48,0.27,0.67,0.47c0.18,0.2,0.32,0.44,0.41,0.72
				c0.09,0.28,0.14,0.59,0.14,0.93v0.51h-3.16v0.01c0.04,0.19,0.09,0.34,0.16,0.45c0.06,0.11,0.15,0.22,0.25,0.31
				c0.11,0.09,0.23,0.17,0.37,0.22c0.14,0.05,0.29,0.08,0.46,0.08c0.23,0,0.46-0.04,0.68-0.13c0.22-0.09,0.4-0.22,0.54-0.4l0.6,0.64
				c-0.15,0.21-0.39,0.41-0.72,0.58c-0.33,0.17-0.72,0.26-1.17,0.26C264.15,202.47,263.82,202.41,263.53,202.29z M263.99,198.68
				c-0.11,0.05-0.21,0.12-0.29,0.2c-0.09,0.09-0.16,0.2-0.22,0.32c-0.06,0.12-0.1,0.26-0.13,0.41h1.96v-0.09
				c0-0.13-0.02-0.24-0.07-0.36c-0.05-0.11-0.11-0.21-0.19-0.29c-0.08-0.08-0.18-0.14-0.29-0.19c-0.12-0.05-0.25-0.07-0.4-0.07
				C264.23,198.61,264.1,198.63,263.99,198.68z"/>
			<path class="st0" d="M267.53,197.73h1.08l0.07,0.65c0.06-0.09,0.13-0.17,0.2-0.24c0.07-0.07,0.15-0.14,0.23-0.19
				c0.14-0.1,0.29-0.17,0.45-0.22c0.16-0.05,0.34-0.08,0.52-0.08c0.24,0,0.45,0.03,0.65,0.1c0.2,0.07,0.36,0.18,0.51,0.33
				c0.14,0.15,0.25,0.35,0.33,0.58c0.08,0.24,0.12,0.52,0.12,0.86v2.86h-1.2v-2.85c0-0.18-0.02-0.33-0.06-0.45
				c-0.04-0.12-0.1-0.21-0.18-0.28c-0.08-0.07-0.17-0.12-0.28-0.15c-0.11-0.03-0.23-0.04-0.37-0.04c-0.12,0-0.22,0.01-0.32,0.04
				c-0.1,0.03-0.18,0.06-0.26,0.12c-0.06,0.04-0.12,0.08-0.16,0.13c-0.05,0.05-0.09,0.11-0.13,0.17v3.31h-1.2V197.73z"/>
			<path class="st0" d="M273.42,200.1v-0.97h3.58v0.97H273.42z"/>
			<path class="st0" d="M281.06,200.91c-0.03-0.05-0.09-0.11-0.17-0.15c-0.09-0.05-0.2-0.09-0.34-0.13
				c-0.14-0.04-0.32-0.08-0.53-0.12c-0.27-0.06-0.52-0.12-0.75-0.2c-0.22-0.08-0.42-0.18-0.58-0.3c-0.16-0.12-0.29-0.25-0.38-0.4
				c-0.09-0.15-0.14-0.33-0.14-0.52c0-0.19,0.05-0.38,0.14-0.55c0.09-0.17,0.22-0.33,0.4-0.46c0.17-0.13,0.38-0.24,0.63-0.32
				c0.25-0.08,0.52-0.12,0.83-0.12c0.32,0,0.62,0.04,0.87,0.11c0.26,0.08,0.48,0.18,0.66,0.31c0.18,0.13,0.31,0.29,0.41,0.48
				c0.09,0.18,0.14,0.38,0.14,0.6h-1.2c0-0.08-0.01-0.15-0.04-0.22c-0.03-0.07-0.06-0.13-0.12-0.18c-0.07-0.07-0.17-0.13-0.29-0.17
				c-0.12-0.04-0.27-0.06-0.44-0.06c-0.15,0-0.27,0.01-0.38,0.04c-0.11,0.03-0.2,0.07-0.27,0.12c-0.06,0.05-0.11,0.1-0.14,0.16
				c-0.03,0.06-0.05,0.13-0.05,0.2c0,0.07,0.01,0.13,0.04,0.19c0.03,0.06,0.08,0.11,0.16,0.16c0.07,0.05,0.17,0.09,0.3,0.13
				c0.13,0.04,0.29,0.07,0.48,0.1c0.28,0.05,0.54,0.1,0.78,0.18c0.24,0.07,0.45,0.16,0.62,0.27c0.17,0.12,0.31,0.25,0.41,0.42
				c0.1,0.16,0.15,0.35,0.15,0.58c0,0.21-0.05,0.4-0.15,0.57c-0.1,0.17-0.24,0.32-0.42,0.45c-0.18,0.13-0.4,0.22-0.66,0.29
				c-0.26,0.07-0.55,0.11-0.86,0.11c-0.35,0-0.66-0.05-0.93-0.14c-0.27-0.09-0.49-0.21-0.67-0.36c-0.18-0.15-0.32-0.31-0.41-0.5
				s-0.14-0.38-0.14-0.57h1.14c0.01,0.13,0.04,0.23,0.1,0.32c0.06,0.09,0.14,0.16,0.23,0.22c0.09,0.06,0.2,0.1,0.32,0.12
				c0.12,0.03,0.25,0.04,0.38,0.04c0.15,0,0.29-0.01,0.41-0.04c0.12-0.03,0.21-0.06,0.29-0.11c0.07-0.05,0.13-0.1,0.16-0.16
				c0.04-0.06,0.05-0.13,0.05-0.2C281.1,201.03,281.09,200.97,281.06,200.91z"/>
			<path class="st0" d="M283.37,199.07c0.1-0.29,0.24-0.54,0.43-0.75c0.19-0.21,0.41-0.38,0.69-0.5c0.27-0.12,0.58-0.18,0.93-0.18
				c0.35,0,0.66,0.06,0.93,0.18c0.27,0.12,0.5,0.29,0.69,0.5c0.19,0.21,0.33,0.46,0.43,0.75c0.1,0.29,0.15,0.6,0.15,0.94v0.09
				c0,0.34-0.05,0.66-0.15,0.94c-0.1,0.29-0.24,0.54-0.43,0.75c-0.19,0.21-0.42,0.38-0.69,0.5c-0.27,0.12-0.58,0.18-0.93,0.18
				c-0.35,0-0.66-0.06-0.94-0.18c-0.27-0.12-0.5-0.28-0.69-0.5c-0.19-0.21-0.33-0.46-0.43-0.75c-0.1-0.29-0.15-0.6-0.15-0.94v-0.09
				C283.23,199.67,283.27,199.36,283.37,199.07z M284.48,200.65c0.04,0.17,0.1,0.32,0.18,0.44c0.08,0.13,0.18,0.23,0.31,0.31
				c0.13,0.07,0.28,0.11,0.46,0.11c0.17,0,0.32-0.04,0.45-0.11c0.13-0.07,0.23-0.18,0.31-0.31c0.08-0.13,0.13-0.27,0.17-0.44
				c0.04-0.17,0.06-0.35,0.06-0.55v-0.09c0-0.19-0.02-0.37-0.06-0.54c-0.04-0.17-0.09-0.32-0.17-0.45c-0.08-0.13-0.18-0.23-0.31-0.3
				c-0.13-0.08-0.28-0.11-0.46-0.11c-0.18,0-0.33,0.04-0.46,0.11c-0.13,0.07-0.23,0.18-0.31,0.3c-0.08,0.13-0.14,0.28-0.18,0.45
				c-0.04,0.17-0.06,0.35-0.06,0.54v0.09C284.42,200.29,284.44,200.48,284.48,200.65z"/>
			<path class="st0" d="M291.64,201.73c-0.16,0.23-0.35,0.41-0.57,0.55c-0.22,0.13-0.46,0.2-0.73,0.2c-0.24,0-0.46-0.04-0.66-0.11
				c-0.2-0.07-0.37-0.19-0.52-0.36c-0.14-0.16-0.25-0.37-0.33-0.62c-0.08-0.25-0.12-0.55-0.12-0.9v-2.75h1.2v2.76
				c0,0.19,0.01,0.35,0.04,0.48c0.03,0.13,0.07,0.23,0.13,0.31c0.06,0.08,0.14,0.14,0.24,0.17c0.1,0.03,0.22,0.05,0.36,0.05
				c0.13,0,0.24-0.01,0.34-0.04s0.19-0.06,0.27-0.11c0.07-0.04,0.13-0.09,0.18-0.15c0.05-0.06,0.1-0.13,0.13-0.2v-3.27h1.2v4.65
				h-1.08L291.64,201.73z"/>
			<path class="st0" d="M297.8,197.68c0.15,0.02,0.28,0.05,0.37,0.08l-0.18,1.19c-0.16-0.04-0.32-0.06-0.48-0.08
				c-0.16-0.02-0.32-0.03-0.47-0.03c-0.16,0-0.29,0.01-0.42,0.04c-0.13,0.03-0.24,0.07-0.33,0.12c-0.12,0.06-0.22,0.14-0.3,0.24
				c-0.08,0.1-0.15,0.21-0.21,0.34v2.8h-1.2v-4.65h1.11l0.05,0.66l0.01,0.1c0.19-0.26,0.42-0.47,0.68-0.62
				c0.26-0.15,0.55-0.23,0.86-0.23C297.48,197.64,297.65,197.65,297.8,197.68z"/>
			<path class="st0" d="M301.64,201.46c0.11-0.03,0.2-0.08,0.28-0.15c0.08-0.06,0.14-0.14,0.19-0.23c0.04-0.09,0.06-0.19,0.06-0.3
				h1.13c0.01,0.24-0.04,0.46-0.15,0.67s-0.25,0.38-0.43,0.53c-0.18,0.15-0.39,0.27-0.63,0.35c-0.24,0.08-0.49,0.13-0.76,0.13
				c-0.36,0-0.68-0.06-0.95-0.18c-0.27-0.12-0.5-0.29-0.68-0.5c-0.18-0.21-0.32-0.46-0.42-0.75c-0.09-0.29-0.14-0.59-0.14-0.92
				v-0.13c0-0.33,0.05-0.63,0.14-0.92c0.09-0.29,0.23-0.53,0.41-0.75c0.18-0.21,0.41-0.38,0.68-0.5c0.27-0.12,0.59-0.18,0.94-0.18
				c0.29,0,0.55,0.04,0.8,0.13c0.24,0.09,0.45,0.21,0.63,0.36c0.17,0.16,0.31,0.35,0.41,0.57c0.1,0.22,0.14,0.47,0.14,0.75h-1.13
				c0.01-0.12-0.01-0.22-0.05-0.33c-0.04-0.1-0.1-0.19-0.18-0.27c-0.08-0.07-0.17-0.13-0.28-0.18c-0.11-0.04-0.23-0.07-0.36-0.07
				c-0.19,0-0.35,0.04-0.47,0.12c-0.12,0.08-0.22,0.18-0.29,0.31c-0.07,0.13-0.13,0.28-0.16,0.44c-0.03,0.17-0.04,0.34-0.04,0.52
				v0.13c0,0.18,0.01,0.35,0.04,0.52c0.03,0.17,0.08,0.32,0.16,0.44c0.07,0.13,0.17,0.23,0.29,0.31c0.12,0.08,0.28,0.12,0.48,0.12
				C301.42,201.51,301.54,201.49,301.64,201.46z"/>
			<path class="st0" d="M305.81,202.29c-0.29-0.12-0.54-0.28-0.75-0.48c-0.21-0.2-0.37-0.44-0.48-0.71
				c-0.11-0.27-0.17-0.57-0.17-0.88v-0.17c0-0.35,0.06-0.68,0.17-0.97c0.11-0.29,0.27-0.55,0.47-0.76c0.2-0.21,0.44-0.38,0.71-0.49
				c0.28-0.12,0.57-0.18,0.9-0.18c0.33,0,0.63,0.06,0.9,0.17s0.48,0.27,0.67,0.47c0.18,0.2,0.32,0.44,0.41,0.72
				c0.09,0.28,0.14,0.59,0.14,0.93v0.51h-3.16v0.01c0.04,0.19,0.09,0.34,0.16,0.45c0.06,0.11,0.15,0.22,0.25,0.31
				c0.11,0.09,0.23,0.17,0.37,0.22c0.14,0.05,0.29,0.08,0.46,0.08c0.23,0,0.46-0.04,0.68-0.13c0.22-0.09,0.4-0.22,0.54-0.4l0.6,0.64
				c-0.15,0.21-0.39,0.41-0.72,0.58c-0.33,0.17-0.72,0.26-1.17,0.26C306.43,202.47,306.11,202.41,305.81,202.29z M306.28,198.68
				c-0.11,0.05-0.21,0.12-0.29,0.2c-0.09,0.09-0.16,0.2-0.22,0.32c-0.06,0.12-0.1,0.26-0.13,0.41h1.96v-0.09
				c0-0.13-0.02-0.24-0.07-0.36c-0.05-0.11-0.11-0.21-0.19-0.29c-0.08-0.08-0.18-0.14-0.29-0.19c-0.12-0.05-0.25-0.07-0.4-0.07
				C306.51,198.61,306.39,198.63,306.28,198.68z"/>
			<path class="st0" d="M316.39,202.29c-0.29-0.12-0.54-0.28-0.75-0.48c-0.21-0.2-0.37-0.44-0.48-0.71
				c-0.11-0.27-0.17-0.57-0.17-0.88v-0.17c0-0.35,0.06-0.68,0.17-0.97c0.11-0.29,0.27-0.55,0.47-0.76c0.2-0.21,0.44-0.38,0.71-0.49
				c0.28-0.12,0.57-0.18,0.9-0.18c0.33,0,0.63,0.06,0.9,0.17c0.26,0.11,0.48,0.27,0.67,0.47c0.18,0.2,0.32,0.44,0.41,0.72
				c0.09,0.28,0.14,0.59,0.14,0.93v0.51h-3.16v0.01c0.04,0.19,0.09,0.34,0.16,0.45c0.06,0.11,0.15,0.22,0.25,0.31
				c0.11,0.09,0.23,0.17,0.37,0.22c0.14,0.05,0.29,0.08,0.46,0.08c0.23,0,0.46-0.04,0.68-0.13c0.22-0.09,0.4-0.22,0.54-0.4l0.6,0.64
				c-0.15,0.21-0.39,0.41-0.72,0.58c-0.33,0.17-0.72,0.26-1.17,0.26C317,202.47,316.68,202.41,316.39,202.29z M316.85,198.68
				c-0.11,0.05-0.21,0.12-0.29,0.2c-0.09,0.09-0.16,0.2-0.22,0.32c-0.06,0.12-0.1,0.26-0.13,0.41h1.96v-0.09
				c0-0.13-0.02-0.24-0.07-0.36c-0.05-0.11-0.11-0.21-0.19-0.29c-0.08-0.08-0.18-0.14-0.29-0.19c-0.12-0.05-0.25-0.07-0.4-0.07
				C317.09,198.61,316.96,198.63,316.85,198.68z"/>
			<path class="st0" d="M320.39,199.05c0.08-0.29,0.2-0.54,0.36-0.75c0.16-0.21,0.35-0.37,0.57-0.49s0.48-0.17,0.77-0.17
				c0.24,0,0.46,0.04,0.64,0.13c0.18,0.09,0.35,0.21,0.49,0.37v-2.37h1.2v6.61h-1.08l-0.06-0.49c-0.15,0.18-0.32,0.32-0.52,0.42
				c-0.2,0.1-0.43,0.15-0.69,0.15c-0.28,0-0.54-0.06-0.76-0.18c-0.23-0.12-0.42-0.28-0.57-0.49c-0.16-0.21-0.28-0.46-0.36-0.75
				c-0.08-0.29-0.13-0.6-0.13-0.94v-0.09C320.26,199.67,320.31,199.34,320.39,199.05z M321.51,200.65c0.03,0.17,0.09,0.31,0.16,0.44
				c0.07,0.13,0.17,0.23,0.29,0.3c0.12,0.07,0.26,0.11,0.43,0.11c0.21,0,0.38-0.04,0.51-0.13c0.14-0.09,0.24-0.21,0.32-0.37v-1.88
				c-0.08-0.16-0.19-0.28-0.32-0.37c-0.13-0.09-0.3-0.13-0.51-0.13c-0.17,0-0.31,0.04-0.43,0.11s-0.22,0.17-0.29,0.3
				c-0.07,0.13-0.13,0.28-0.16,0.45c-0.03,0.17-0.05,0.35-0.05,0.55v0.09C321.46,200.3,321.48,200.49,321.51,200.65z"/>
			<path class="st0" d="M328.64,201.73c-0.16,0.23-0.35,0.41-0.57,0.55c-0.22,0.13-0.46,0.2-0.73,0.2c-0.24,0-0.46-0.04-0.66-0.11
				c-0.2-0.07-0.37-0.19-0.52-0.36c-0.14-0.16-0.25-0.37-0.33-0.62c-0.08-0.25-0.12-0.55-0.12-0.9v-2.75h1.2v2.76
				c0,0.19,0.01,0.35,0.04,0.48c0.03,0.13,0.07,0.23,0.13,0.31c0.06,0.08,0.14,0.14,0.24,0.17c0.1,0.03,0.22,0.05,0.36,0.05
				c0.13,0,0.24-0.01,0.34-0.04s0.19-0.06,0.27-0.11c0.07-0.04,0.13-0.09,0.18-0.15c0.05-0.06,0.1-0.13,0.13-0.2v-3.27h1.2v4.65
				h-1.08L328.64,201.73z"/>
			<path class="st0" d="M333.36,201.46c0.11-0.03,0.2-0.08,0.28-0.15c0.08-0.06,0.14-0.14,0.19-0.23c0.04-0.09,0.06-0.19,0.06-0.3
				h1.13c0.01,0.24-0.04,0.46-0.15,0.67s-0.25,0.38-0.43,0.53c-0.18,0.15-0.39,0.27-0.63,0.35c-0.24,0.08-0.49,0.13-0.76,0.13
				c-0.36,0-0.68-0.06-0.95-0.18c-0.27-0.12-0.5-0.29-0.68-0.5c-0.18-0.21-0.32-0.46-0.42-0.75c-0.09-0.29-0.14-0.59-0.14-0.92
				v-0.13c0-0.33,0.05-0.63,0.14-0.92c0.09-0.29,0.23-0.53,0.41-0.75c0.18-0.21,0.41-0.38,0.68-0.5c0.27-0.12,0.59-0.18,0.94-0.18
				c0.29,0,0.55,0.04,0.8,0.13c0.24,0.09,0.45,0.21,0.63,0.36c0.17,0.16,0.31,0.35,0.41,0.57c0.1,0.22,0.14,0.47,0.14,0.75h-1.13
				c0.01-0.12-0.01-0.22-0.05-0.33c-0.04-0.1-0.1-0.19-0.18-0.27c-0.08-0.07-0.17-0.13-0.28-0.18c-0.11-0.04-0.23-0.07-0.36-0.07
				c-0.19,0-0.35,0.04-0.47,0.12c-0.12,0.08-0.22,0.18-0.29,0.31c-0.07,0.13-0.13,0.28-0.16,0.44c-0.03,0.17-0.04,0.34-0.04,0.52
				v0.13c0,0.18,0.01,0.35,0.04,0.52c0.03,0.17,0.08,0.32,0.16,0.44c0.07,0.13,0.17,0.23,0.29,0.31c0.12,0.08,0.28,0.12,0.48,0.12
				C333.14,201.51,333.25,201.49,333.36,201.46z"/>
			<path class="st0" d="M339.08,202.18c-0.02-0.07-0.04-0.15-0.05-0.24c-0.07,0.07-0.14,0.14-0.23,0.2
				c-0.09,0.06-0.18,0.12-0.28,0.16c-0.11,0.05-0.22,0.09-0.35,0.12c-0.13,0.03-0.26,0.04-0.41,0.04c-0.24,0-0.46-0.03-0.66-0.1
				s-0.37-0.17-0.51-0.29c-0.14-0.12-0.26-0.27-0.34-0.44c-0.08-0.17-0.12-0.36-0.12-0.56c0-0.26,0.05-0.49,0.15-0.69
				c0.1-0.2,0.25-0.36,0.45-0.49c0.18-0.12,0.4-0.21,0.67-0.27c0.27-0.06,0.57-0.09,0.91-0.09h0.67v-0.27
				c0-0.11-0.02-0.21-0.05-0.29c-0.03-0.09-0.09-0.16-0.16-0.23c-0.07-0.06-0.16-0.12-0.27-0.15c-0.11-0.03-0.23-0.05-0.38-0.05
				c-0.13,0-0.24,0.02-0.33,0.05c-0.09,0.03-0.17,0.07-0.22,0.13c-0.05,0.05-0.09,0.11-0.11,0.17c-0.02,0.07-0.04,0.15-0.04,0.23
				h-1.2c0-0.2,0.04-0.39,0.13-0.56c0.09-0.18,0.22-0.33,0.39-0.47c0.17-0.13,0.37-0.24,0.61-0.32c0.24-0.08,0.52-0.12,0.83-0.12
				c0.28,0,0.54,0.03,0.78,0.1c0.24,0.07,0.45,0.17,0.63,0.31c0.18,0.14,0.32,0.3,0.42,0.51c0.1,0.2,0.15,0.44,0.15,0.71v2
				c0,0.25,0.02,0.46,0.05,0.62s0.08,0.3,0.14,0.42v0.07h-1.21C339.13,202.32,339.1,202.26,339.08,202.18z M338.35,201.5
				c0.1-0.03,0.2-0.07,0.28-0.11c0.08-0.05,0.16-0.1,0.22-0.16c0.06-0.06,0.11-0.12,0.14-0.18v-0.8h-0.61
				c-0.19,0-0.35,0.02-0.48,0.05c-0.13,0.04-0.24,0.09-0.32,0.15c-0.08,0.07-0.14,0.15-0.19,0.23s-0.06,0.19-0.06,0.29
				c0,0.08,0.01,0.16,0.04,0.23c0.03,0.07,0.07,0.13,0.13,0.18c0.06,0.05,0.13,0.08,0.21,0.11c0.08,0.03,0.18,0.04,0.29,0.04
				C338.14,201.54,338.25,201.53,338.35,201.5z"/>
			<path class="st0" d="M343.73,197.73h1.74v0.88h-1.74v2c0,0.17,0.02,0.31,0.06,0.42c0.04,0.11,0.09,0.2,0.17,0.27
				c0.07,0.07,0.16,0.12,0.26,0.15s0.22,0.04,0.34,0.04c0.09,0,0.19,0,0.28-0.01c0.1-0.01,0.19-0.02,0.28-0.03
				c0.09-0.01,0.17-0.02,0.24-0.04c0.08-0.02,0.14-0.03,0.2-0.04l0.12,0.82c-0.08,0.05-0.18,0.09-0.29,0.13
				c-0.11,0.04-0.23,0.06-0.36,0.09c-0.13,0.02-0.26,0.04-0.39,0.05c-0.14,0.01-0.27,0.02-0.4,0.02c-0.26,0-0.49-0.03-0.7-0.1
				c-0.21-0.07-0.38-0.17-0.53-0.32c-0.15-0.14-0.26-0.32-0.34-0.54c-0.08-0.22-0.12-0.48-0.12-0.79v-2.12h-1.06v-0.88h1.06v-1.14
				h1.2V197.73z"/>
			<path class="st0" d="M349.67,197.73v3.68h1.26v0.97h-3.79v-0.97h1.32v-2.7h-1.32v-0.98H349.67z M348.42,196.28
				c0.03-0.08,0.08-0.15,0.14-0.2c0.06-0.05,0.13-0.1,0.22-0.13s0.18-0.05,0.28-0.05c0.21,0,0.38,0.06,0.51,0.18
				c0.12,0.12,0.19,0.27,0.19,0.46c0,0.19-0.06,0.34-0.19,0.46c-0.12,0.12-0.29,0.18-0.51,0.18c-0.1,0-0.2-0.02-0.28-0.05
				s-0.16-0.08-0.22-0.13c-0.06-0.06-0.11-0.12-0.14-0.2c-0.03-0.08-0.05-0.16-0.05-0.26C348.37,196.44,348.39,196.36,348.42,196.28
				z"/>
			<path class="st0" d="M352.09,199.07c0.1-0.29,0.24-0.54,0.43-0.75c0.19-0.21,0.41-0.38,0.69-0.5c0.27-0.12,0.58-0.18,0.93-0.18
				c0.35,0,0.66,0.06,0.93,0.18c0.27,0.12,0.5,0.29,0.69,0.5c0.19,0.21,0.33,0.46,0.43,0.75c0.1,0.29,0.15,0.6,0.15,0.94v0.09
				c0,0.34-0.05,0.66-0.15,0.94c-0.1,0.29-0.24,0.54-0.43,0.75c-0.19,0.21-0.42,0.38-0.69,0.5c-0.27,0.12-0.58,0.18-0.93,0.18
				c-0.35,0-0.66-0.06-0.94-0.18c-0.27-0.12-0.5-0.28-0.69-0.5c-0.19-0.21-0.33-0.46-0.43-0.75c-0.1-0.29-0.15-0.6-0.15-0.94v-0.09
				C351.94,199.67,351.99,199.36,352.09,199.07z M353.19,200.65c0.04,0.17,0.1,0.32,0.18,0.44c0.08,0.13,0.18,0.23,0.31,0.31
				c0.13,0.07,0.28,0.11,0.46,0.11c0.17,0,0.32-0.04,0.45-0.11c0.13-0.07,0.23-0.18,0.31-0.31c0.08-0.13,0.13-0.27,0.17-0.44
				c0.04-0.17,0.06-0.35,0.06-0.55v-0.09c0-0.19-0.02-0.37-0.06-0.54c-0.04-0.17-0.09-0.32-0.17-0.45c-0.08-0.13-0.18-0.23-0.31-0.3
				c-0.13-0.08-0.28-0.11-0.46-0.11c-0.18,0-0.33,0.04-0.46,0.11c-0.13,0.07-0.23,0.18-0.31,0.3c-0.08,0.13-0.14,0.28-0.18,0.45
				c-0.04,0.17-0.06,0.35-0.06,0.54v0.09C353.14,200.29,353.15,200.48,353.19,200.65z"/>
			<path class="st0" d="M357.39,197.73h1.08l0.07,0.65c0.06-0.09,0.13-0.17,0.2-0.24c0.07-0.07,0.15-0.14,0.23-0.19
				c0.14-0.1,0.29-0.17,0.45-0.22c0.16-0.05,0.34-0.08,0.52-0.08c0.24,0,0.45,0.03,0.65,0.1c0.2,0.07,0.36,0.18,0.51,0.33
				c0.14,0.15,0.25,0.35,0.33,0.58c0.08,0.24,0.12,0.52,0.12,0.86v2.86h-1.2v-2.85c0-0.18-0.02-0.33-0.06-0.45
				c-0.04-0.12-0.1-0.21-0.18-0.28c-0.08-0.07-0.17-0.12-0.28-0.15c-0.11-0.03-0.23-0.04-0.37-0.04c-0.12,0-0.22,0.01-0.32,0.04
				c-0.1,0.03-0.18,0.06-0.26,0.12c-0.06,0.04-0.12,0.08-0.16,0.13c-0.05,0.05-0.09,0.11-0.13,0.17v3.31h-1.2V197.73z"/>
		</g>
	</g>
</g>
</svg>
