<?xml version="1.0" encoding="utf-8"?>
<!-- Generator: Adobe Illustrator 24.1.3, SVG Export Plug-In . SVG Version: 6.00 Build 0)  -->
<svg version="1.1" xmlns="http://www.w3.org/2000/svg" xmlns:xlink="http://www.w3.org/1999/xlink" x="0px" y="0px"
	 viewBox="0 0 193.78 193.78" style="enable-background:new 0 0 193.78 193.78;" xml:space="preserve">
<style type="text/css">
	.st0{fill:#FFFFFF;}
</style>
<g id="Layer_2">
	<g>
		<path d="M181.16,126.51c-1.69-1.58-3.27-3.33-4.69-5.16c-2.54-3.28-4.97-6.66-7.36-10.04c-3.55-5.01-7.25-9.93-10.48-15.14
			c-2.81-4.53-5.29-9.24-9.58-12.64c-0.42-0.34-0.52-1.09-0.76-1.66c-2.81-1.19-5.56-3.13-8.45-3.4c-5.15-0.47-9.55-2.62-14.11-4.57
			c-1.26-0.54-2.55-1.02-4.14-1.66c0.08,1.33,0.08,2.16,0.18,2.98c0.58,4.83-0.33,9.19-3.56,13.04c-2.46,2.93-4.66,6.09-7.24,9.5
			c9.27,0,18.09,0,26.37,0c3.03,1.51,3.18,3.79,3.16,6.22c-0.04,6.82-0.02,13.63-0.02,19.98c2.91,2.28,5.27,4.41,7.91,6.09
			c1.46,0.93,3.4,1.6,5.09,1.55c4.56-0.15,8.82-1.37,11.83-5.25c0.41-0.52,1.06-0.86,2.3-1.84c-2.5,5.35-5.24,7.31-12.12,9.13
			c3.98,5.43,3.59,10.73-0.97,15.7c6,1.92,25.18,0.39,31.44-2.48c0.32-1,1.09-2.25,1.05-3.48
			C186.82,137.19,186.09,131.13,181.16,126.51z"/>
		<path d="M53.15,122.24c-0.13-6.16,0.02-12.33-0.06-18.49c-0.03-2.5,0.37-4.65,3.62-6.17c7.54,0,15.83,0,24.8,0
			c-1.75-3.3-3-6.18-4.71-8.76c-2.9-4.35-3.09-8.96-2.23-13.88c0.42-2.39,0.46-4.85,0.7-7.51c-0.94,0.33-1.45,0.43-1.87,0.67
			c-4.78,2.82-9.72,4.86-15.43,5.12c-2.51,0.12-5.31,1.22-7.35,2.72C44.03,80.8,38,86.22,33.59,93.3
			c-3.57,5.73-6.01,12.27-11.42,16.76c-0.36,0.3-0.47,0.88-0.76,1.28c-3.69,5.1-7.41,10.18-11.08,15.3
			c-0.76,1.06-1.68,2.16-1.97,3.38c-1.37,5.61-3.11,11.26,0.26,17.66c1.35,0.3,3.2,0.86,5.09,1.09c4.45,0.54,9.08,0.36,13.32,1.57
			c2.92,0.84,5.74,1.32,8.71,1.55c2.44,0.19,4.87,0.64,7.26,1.18c1.27,0.29,2.45,1.24,3.61-0.51c-5.5-4.93-3.48-10.57-1.27-15.84
			c-3.2-1.9-6.15-3.69-9.14-5.4c-1.14-0.66-2.33-1.36-3.59-1.67c-3.33-0.82-5.57-3.03-7.48-5.89c7.14,3.76,14.28,7.53,20.96,11.04
			c1.89-0.88,3.05-1.41,4.2-1.94c0.04-0.47-0.09-1.12,0.17-1.38C53.04,128.88,53.22,125.66,53.15,122.24z"/>
		<path d="M50.32,132.88c0-0.01,0-0.01,0-0.02c-0.01,0-0.02,0.01-0.03,0.01c0,0.01,0,0.01,0,0.02
			C50.3,132.89,50.31,132.88,50.32,132.88z"/>
		<path d="M45.88,149.76c2.16,0.71,4.31,1.41,6.92,2.27c0-7.12,0-13.67,0-20.2c-0.78,0.33-1.63,0.69-2.48,1.05
			c-0.09,0.46-0.03,1.12-0.31,1.34C44.83,138.31,44.64,143.69,45.88,149.76z"/>
		<path d="M97.3,83.88c5.42,0.26,8.6-3.4,10.78-7.62c2.19-4.24,3.87-8.79,5.32-13.34c0.99-3.13,1.21-6.5,1.83-10.12
			c-0.28-0.81-0.57-1.92-1.04-2.95c-2.66-5.76-7.62-9.13-12.98-11.84c-1.74-0.88-4.22-0.82-6.25-0.48
			c-5.37,0.9-9.22,3.81-11.97,8.76c-1.89,3.41-2.35,6.37-2.01,10.27c0.59,6.69,3.48,12.46,5.89,18.38
			C88.69,79.36,91.66,83.61,97.3,83.88z"/>
		<path d="M84.73,40.82c3.75-4.2,12.75-6.8,17.41-4.38c4.84,2.52,9.44,5.66,12.33,10.55c1.93,3.27,3.6,6.7,5.65,10.55
			c0-3.92,0.01-7.41,0-10.9c-0.02-7.07-4.88-15.85-10.77-19.72c-2.08-1.37-4.03-2.93-5.98-4.48c-3.98-3.15-6.65-3.41-10.84-0.83
			c-8.96,5.53-14.23,13.81-16.75,23.77c-0.84,3.33-0.89,7.06,0.6,11.08C77.36,52.67,82.42,43.4,84.73,40.82z"/>
		<path d="M119.04,83.95c0.77-1.13,0.99-2.79,1.06-4.23c0.29-6.33-0.19-12.61-1.69-18.79c-0.42-1.73-0.76-3.48-1.14-5.22
			c-1.31,6.48-3.59,12.41-6.32,18.2c-0.49,1.04-0.96,2.15-1.15,3.27c-0.19,1.1-0.48,2.65,0.08,3.34c3.27,3.98,0.97,6.62-1.79,9.39
			c-2.27,2.28-4.35,4.76-6.98,7.66c2.79,0,4.6,0,6.34,0C112.99,93.96,115.78,88.74,119.04,83.95z"/>
		<path d="M76.97,67.56c-0.37,3.3-0.27,6.68-0.93,9.92c-0.71,3.52,0.04,6.56,1.69,9.55c1.84,3.33,3.64,6.69,5.66,10.42
			c3.36,0,6.58,0,9.92,0c-2.85-5.48-10.17-7.64-10.21-14.72c0.43-0.23,0.59-0.38,0.69-0.35c0.29,0.1,0.55,0.27,0.82,0.41
			c0.12-0.01,0.31,0.03,0.34-0.03c2.51-3.87,0.56-7.52-1.07-10.8c-2.81-5.64-4.22-11.58-5.1-17.74
			C78.08,58.68,77.46,63.11,76.97,67.56z"/>
		<path d="M153.82,134.43c-2.41-1.15-4.8-1.97-6.81-3.33c-2-1.36-3.48-3.49-6.33-3.97c0,5.5,0,10.79,0,16.41
			c1.92,1.48,3.55,2.91,5.35,4.08c4.22,2.77,9.37,0.44,10.15-4.57C156.67,139.77,155.99,136.78,153.82,134.43z"/>
		<path d="M109.47,86.12c-0.54-1.98-1.04-3.81-1.62-5.96c-2.97,2.97-5.98,5.55-9.94,5.72c-4.23,0.18-7.12-2.9-10.02-5.54
			c-0.85,2.01-1.62,3.82-2.54,5.98c4.27,3.53,7.08,8.61,12.61,11.78C101.79,94.12,105.54,90.22,109.47,86.12z"/>
		<path d="M68.95,143.65c-0.05-0.05-0.12-0.1-0.2-0.13c-0.08-0.03-0.17-0.05-0.27-0.05c-0.09,0-0.17,0.02-0.25,0.05
			c-0.07,0.03-0.14,0.08-0.19,0.14c-0.06,0.06-0.1,0.13-0.14,0.21c-0.04,0.08-0.07,0.17-0.09,0.27h1.3v-0.06
			c0-0.08-0.02-0.16-0.05-0.24C69.05,143.77,69.01,143.71,68.95,143.65z"/>
		<path d="M61.91,143.76c-0.05-0.08-0.12-0.15-0.21-0.2c-0.08-0.05-0.19-0.07-0.31-0.07c-0.12,0-0.22,0.02-0.3,0.07
			c-0.08,0.05-0.15,0.12-0.21,0.2c-0.05,0.09-0.09,0.19-0.12,0.3c-0.02,0.11-0.04,0.23-0.04,0.36v0.06c0,0.13,0.01,0.25,0.04,0.36
			c0.03,0.11,0.06,0.21,0.12,0.3c0.05,0.09,0.12,0.15,0.21,0.2c0.08,0.05,0.19,0.07,0.31,0.07c0.12,0,0.22-0.03,0.3-0.07
			c0.08-0.05,0.15-0.12,0.21-0.2c0.05-0.08,0.09-0.18,0.11-0.3c0.02-0.11,0.04-0.24,0.04-0.36v-0.06c0-0.13-0.01-0.24-0.04-0.36
			C62,143.94,61.96,143.84,61.91,143.76z"/>
		<path d="M65.41,143.75c-0.05-0.08-0.12-0.15-0.2-0.19c-0.08-0.05-0.18-0.07-0.29-0.07c-0.07,0-0.12,0.01-0.18,0.02
			s-0.1,0.03-0.15,0.05c-0.05,0.03-0.09,0.06-0.13,0.1c-0.04,0.04-0.07,0.09-0.1,0.14v1.29c0.02,0.05,0.05,0.09,0.09,0.14
			c0.04,0.04,0.08,0.07,0.12,0.1c0.04,0.03,0.09,0.05,0.15,0.06c0.06,0.01,0.12,0.02,0.19,0.02c0.11,0,0.21-0.03,0.29-0.07
			c0.08-0.05,0.14-0.12,0.19-0.2c0.05-0.09,0.09-0.19,0.11-0.3c0.02-0.11,0.03-0.23,0.03-0.36v-0.06c0-0.13-0.01-0.25-0.04-0.36
			C65.49,143.93,65.46,143.83,65.41,143.75z"/>
		<rect x="91.85" y="113.3" width="9.61" height="9.61"/>
		<path d="M97.09,143.65c-0.05-0.05-0.12-0.1-0.2-0.13c-0.08-0.03-0.17-0.05-0.27-0.05c-0.09,0-0.17,0.02-0.25,0.05
			c-0.07,0.03-0.14,0.08-0.19,0.14c-0.06,0.06-0.1,0.13-0.14,0.21c-0.04,0.08-0.07,0.17-0.09,0.27h1.3v-0.06
			c0-0.08-0.02-0.16-0.05-0.24C97.18,143.77,97.14,143.71,97.09,143.65z"/>
		<path d="M107.1,143.48c-0.11,0-0.21,0.03-0.29,0.07c-0.08,0.05-0.14,0.12-0.19,0.2c-0.05,0.09-0.09,0.19-0.11,0.3
			c-0.02,0.11-0.03,0.23-0.03,0.36v0.06c0,0.13,0.01,0.25,0.03,0.36c0.02,0.11,0.06,0.21,0.11,0.29c0.05,0.08,0.11,0.15,0.19,0.2
			c0.08,0.05,0.17,0.07,0.29,0.07c0.14,0,0.25-0.03,0.34-0.09c0.09-0.06,0.16-0.14,0.22-0.24v-1.25c-0.05-0.1-0.13-0.19-0.21-0.24
			C107.35,143.51,107.24,143.48,107.1,143.48z"/>
		<path d="M104.12,143.65c-0.05-0.05-0.12-0.1-0.2-0.13c-0.08-0.03-0.17-0.05-0.27-0.05c-0.09,0-0.17,0.02-0.25,0.05
			c-0.07,0.03-0.14,0.08-0.19,0.14c-0.06,0.06-0.1,0.13-0.14,0.21c-0.04,0.08-0.07,0.17-0.09,0.27h1.3v-0.06
			c0-0.08-0.02-0.16-0.05-0.24C104.22,143.77,104.17,143.71,104.12,143.65z"/>
		<path d="M83.01,143.76c-0.05-0.08-0.12-0.15-0.21-0.2c-0.08-0.05-0.19-0.07-0.31-0.07c-0.12,0-0.22,0.02-0.3,0.07
			c-0.08,0.05-0.15,0.12-0.21,0.2c-0.05,0.09-0.09,0.19-0.12,0.3c-0.02,0.11-0.04,0.23-0.04,0.36v0.06c0,0.13,0.01,0.25,0.04,0.36
			c0.03,0.11,0.06,0.21,0.12,0.3c0.05,0.09,0.12,0.15,0.21,0.2c0.08,0.05,0.19,0.07,0.31,0.07c0.12,0,0.22-0.03,0.3-0.07
			c0.08-0.05,0.15-0.12,0.21-0.2c0.05-0.08,0.09-0.18,0.11-0.3c0.02-0.11,0.04-0.24,0.04-0.36v-0.06c0-0.13-0.01-0.24-0.04-0.36
			C83.1,143.94,83.06,143.84,83.01,143.76z"/>
		<path d="M134.48,99.19c-12.53,0.11-25.06,0.05-37.59,0.05c0,0.05,0,0.1,0,0.15c-12.53,0-25.06,0.09-37.58-0.06
			c-3.5-0.04-4.84,1.36-4.83,4.66c0.03,15.08,0.03,30.16,0,45.24c-0.01,3.14,1.48,4.86,4.58,4.86c25.28-0.03,50.56-0.1,75.83-0.18
			c2.85-0.01,4.21-1.42,4.2-4.35c-0.04-15.3-0.05-30.6,0.01-45.9C139.11,100.41,137.76,99.16,134.48,99.19z M85.44,110.1h19.22v3.2
			h3.2v9.61h-3.2v3.2H91.85v6.41h-6.41V110.1z M62.86,144.47c0,0.23-0.03,0.44-0.1,0.63s-0.16,0.36-0.28,0.5
			c-0.12,0.14-0.28,0.25-0.46,0.33c-0.18,0.08-0.39,0.12-0.62,0.12c-0.23,0-0.44-0.04-0.62-0.12c-0.18-0.08-0.34-0.19-0.46-0.33
			c-0.13-0.14-0.22-0.31-0.29-0.5c-0.07-0.19-0.1-0.4-0.1-0.63v-0.06c0-0.22,0.03-0.43,0.1-0.62c0.06-0.19,0.16-0.36,0.29-0.5
			c0.12-0.14,0.28-0.25,0.46-0.33c0.18-0.08,0.39-0.12,0.62-0.12s0.44,0.04,0.62,0.12c0.18,0.08,0.33,0.19,0.46,0.33
			c0.12,0.14,0.22,0.31,0.28,0.5s0.1,0.4,0.1,0.62V144.47z M59.81,129.32V110.1h6.41v12.81h3.2V110.1h3.2v12.81h3.2V110.1h6.41
			v19.22h-3.2v3.2h-3.2v-3.2h-3.2v-3.2h-3.2v3.2h-3.2v3.2h-3.2v-3.2H59.81z M66.35,144.47c0,0.23-0.03,0.43-0.08,0.63
			c-0.05,0.19-0.13,0.36-0.23,0.5c-0.1,0.14-0.23,0.25-0.38,0.33c-0.15,0.08-0.32,0.12-0.52,0.12c-0.1,0-0.2-0.01-0.28-0.03
			c-0.09-0.02-0.17-0.05-0.24-0.1c-0.04-0.03-0.09-0.06-0.13-0.09c-0.04-0.03-0.08-0.07-0.11-0.11v1.46h-0.8v-4.29h0.74l0.03,0.3
			c0.04-0.05,0.09-0.1,0.14-0.14c0.05-0.04,0.1-0.08,0.16-0.11c0.07-0.04,0.14-0.06,0.23-0.08c0.08-0.02,0.17-0.03,0.27-0.03
			c0.2,0,0.37,0.04,0.52,0.11c0.15,0.07,0.28,0.18,0.38,0.32c0.1,0.14,0.18,0.31,0.23,0.5c0.05,0.19,0.08,0.41,0.08,0.64V144.47z
			 M69.91,144.7h-2.1v0.01c0.03,0.12,0.06,0.22,0.1,0.3s0.1,0.14,0.17,0.2c0.07,0.06,0.16,0.11,0.25,0.15
			c0.09,0.03,0.2,0.05,0.31,0.05c0.16,0,0.31-0.03,0.45-0.09c0.15-0.06,0.27-0.15,0.36-0.27l0.4,0.43c-0.1,0.14-0.26,0.27-0.48,0.39
			c-0.22,0.12-0.48,0.18-0.78,0.18c-0.24,0-0.46-0.04-0.65-0.12c-0.19-0.08-0.36-0.19-0.5-0.32c-0.14-0.13-0.25-0.29-0.32-0.47
			c-0.08-0.18-0.11-0.38-0.11-0.59v-0.11c0-0.24,0.04-0.45,0.11-0.65c0.07-0.2,0.18-0.36,0.31-0.51c0.13-0.14,0.29-0.25,0.47-0.33
			c0.18-0.08,0.38-0.12,0.6-0.12c0.22,0,0.42,0.04,0.6,0.11c0.17,0.07,0.32,0.18,0.44,0.31c0.12,0.13,0.21,0.29,0.27,0.48
			c0.06,0.19,0.09,0.4,0.09,0.62V144.7z M73.36,145.99h-0.8v-1.89c0-0.12-0.01-0.22-0.04-0.3c-0.03-0.08-0.07-0.14-0.12-0.19
			c-0.05-0.05-0.11-0.08-0.19-0.1c-0.07-0.02-0.15-0.03-0.25-0.03c-0.08,0-0.15,0.01-0.21,0.03c-0.06,0.02-0.12,0.04-0.17,0.08
			c-0.04,0.02-0.08,0.05-0.11,0.09c-0.03,0.03-0.06,0.07-0.09,0.11v2.2h-0.8v-3.1h0.72l0.05,0.43c0.04-0.06,0.08-0.11,0.13-0.16
			c0.05-0.05,0.1-0.09,0.15-0.13c0.09-0.07,0.19-0.11,0.3-0.15c0.11-0.03,0.22-0.05,0.35-0.05c0.16,0,0.3,0.02,0.43,0.07
			c0.13,0.05,0.24,0.12,0.34,0.22c0.09,0.1,0.17,0.23,0.22,0.39c0.05,0.16,0.08,0.35,0.08,0.57V145.99z M76.9,144.47h-2.38v-0.64
			h2.38V144.47z M80.3,145.48c-0.07,0.12-0.16,0.21-0.28,0.3c-0.12,0.08-0.27,0.15-0.44,0.2c-0.17,0.05-0.36,0.07-0.58,0.07
			c-0.23,0-0.44-0.03-0.62-0.09c-0.18-0.06-0.33-0.14-0.45-0.24c-0.12-0.1-0.21-0.21-0.27-0.33c-0.06-0.12-0.09-0.25-0.09-0.38h0.76
			c0.01,0.08,0.03,0.16,0.07,0.22c0.04,0.06,0.09,0.11,0.15,0.14c0.06,0.04,0.13,0.07,0.22,0.08c0.08,0.02,0.16,0.03,0.25,0.03
			c0.1,0,0.19-0.01,0.27-0.03c0.08-0.02,0.14-0.04,0.19-0.07c0.05-0.03,0.08-0.07,0.11-0.11c0.02-0.04,0.04-0.08,0.04-0.13
			c0-0.05-0.01-0.09-0.03-0.13c-0.02-0.04-0.06-0.07-0.12-0.1c-0.06-0.03-0.13-0.06-0.23-0.09c-0.09-0.03-0.21-0.05-0.35-0.08
			c-0.18-0.04-0.35-0.08-0.5-0.14c-0.15-0.05-0.28-0.12-0.38-0.2c-0.11-0.08-0.19-0.17-0.25-0.27c-0.06-0.1-0.09-0.22-0.09-0.35
			c0-0.13,0.03-0.25,0.09-0.37c0.06-0.12,0.15-0.22,0.26-0.31c0.11-0.09,0.25-0.16,0.42-0.21c0.16-0.05,0.35-0.08,0.56-0.08
			c0.22,0,0.41,0.03,0.58,0.08c0.17,0.05,0.32,0.12,0.44,0.21c0.12,0.09,0.21,0.2,0.27,0.32c0.06,0.12,0.09,0.25,0.09,0.4h-0.8
			c0-0.05-0.01-0.1-0.03-0.14c-0.02-0.04-0.04-0.08-0.08-0.12c-0.05-0.05-0.11-0.09-0.19-0.11c-0.08-0.03-0.18-0.04-0.29-0.04
			c-0.1,0-0.18,0.01-0.25,0.03c-0.07,0.02-0.13,0.05-0.18,0.08c-0.04,0.03-0.07,0.07-0.1,0.11s-0.03,0.08-0.03,0.13
			c0,0.05,0.01,0.09,0.03,0.13c0.02,0.04,0.05,0.07,0.1,0.1c0.05,0.03,0.11,0.06,0.2,0.09c0.08,0.03,0.19,0.05,0.32,0.07
			c0.19,0.03,0.36,0.07,0.52,0.12c0.16,0.05,0.3,0.11,0.41,0.18c0.12,0.08,0.21,0.17,0.27,0.28c0.07,0.11,0.1,0.24,0.1,0.38
			C80.4,145.24,80.37,145.37,80.3,145.48z M83.96,144.47c0,0.23-0.03,0.44-0.1,0.63s-0.16,0.36-0.28,0.5
			c-0.12,0.14-0.28,0.25-0.46,0.33c-0.18,0.08-0.39,0.12-0.62,0.12c-0.23,0-0.44-0.04-0.62-0.12c-0.18-0.08-0.34-0.19-0.46-0.33
			c-0.13-0.14-0.22-0.31-0.29-0.5c-0.07-0.19-0.1-0.4-0.1-0.63v-0.06c0-0.22,0.03-0.43,0.1-0.62c0.06-0.19,0.16-0.36,0.29-0.5
			c0.12-0.14,0.28-0.25,0.46-0.33c0.18-0.08,0.39-0.12,0.62-0.12c0.23,0,0.44,0.04,0.62,0.12c0.18,0.08,0.34,0.19,0.46,0.33
			c0.12,0.14,0.22,0.31,0.28,0.5s0.1,0.4,0.1,0.62V144.47z M87.41,145.99h-0.72l-0.05-0.44c-0.1,0.16-0.23,0.28-0.38,0.36
			c-0.15,0.09-0.31,0.13-0.48,0.13c-0.16,0-0.31-0.02-0.44-0.07c-0.13-0.05-0.25-0.13-0.34-0.24c-0.1-0.11-0.17-0.24-0.22-0.41
			c-0.05-0.17-0.08-0.37-0.08-0.6v-1.83h0.8v1.84c0,0.13,0.01,0.23,0.03,0.32c0.02,0.09,0.05,0.16,0.09,0.21
			c0.04,0.05,0.09,0.09,0.16,0.11c0.07,0.02,0.14,0.03,0.24,0.03c0.08,0,0.16-0.01,0.23-0.03c0.07-0.02,0.13-0.04,0.18-0.07
			c0.04-0.03,0.08-0.06,0.12-0.1c0.03-0.04,0.06-0.08,0.09-0.13v-2.17h0.8V145.99z M90.87,143.7c-0.1-0.02-0.21-0.04-0.32-0.06
			c-0.11-0.01-0.21-0.02-0.31-0.02c-0.1,0-0.2,0.01-0.28,0.03c-0.08,0.02-0.16,0.05-0.22,0.08c-0.08,0.04-0.15,0.1-0.2,0.16
			c-0.06,0.07-0.1,0.14-0.14,0.23v1.86h-0.8v-3.1h0.74l0.03,0.44l0.01,0.07c0.13-0.18,0.28-0.31,0.45-0.41
			c0.18-0.1,0.37-0.15,0.58-0.15c0.12,0,0.23,0.01,0.33,0.02c0.1,0.02,0.18,0.03,0.25,0.05L90.87,143.7z M92.45,144.83
			c0.02,0.11,0.05,0.21,0.1,0.29c0.05,0.08,0.11,0.15,0.2,0.21c0.08,0.05,0.19,0.08,0.32,0.08c0.08,0,0.15-0.01,0.22-0.03
			c0.07-0.02,0.13-0.06,0.19-0.1c0.05-0.04,0.09-0.09,0.12-0.15c0.03-0.06,0.04-0.13,0.04-0.2h0.75c0,0.16-0.03,0.31-0.1,0.45
			c-0.07,0.14-0.16,0.26-0.28,0.35c-0.12,0.1-0.26,0.18-0.42,0.23c-0.16,0.06-0.33,0.08-0.5,0.08c-0.24,0-0.45-0.04-0.63-0.12
			c-0.18-0.08-0.33-0.19-0.45-0.33c-0.12-0.14-0.21-0.31-0.28-0.5c-0.06-0.19-0.09-0.39-0.09-0.61v-0.09c0-0.22,0.03-0.42,0.09-0.61
			c0.06-0.19,0.15-0.36,0.27-0.5c0.12-0.14,0.27-0.25,0.45-0.33c0.18-0.08,0.39-0.12,0.63-0.12c0.19,0,0.37,0.03,0.53,0.09
			c0.16,0.06,0.3,0.14,0.42,0.24c0.12,0.1,0.21,0.23,0.27,0.38c0.06,0.15,0.1,0.31,0.09,0.5h-0.75c0-0.08-0.01-0.15-0.03-0.22
			c-0.03-0.07-0.07-0.13-0.12-0.18c-0.05-0.05-0.11-0.09-0.19-0.12c-0.07-0.03-0.15-0.04-0.24-0.04c-0.13,0-0.23,0.03-0.31,0.08
			c-0.08,0.05-0.15,0.12-0.19,0.21c-0.05,0.09-0.08,0.18-0.1,0.29c-0.02,0.11-0.03,0.23-0.03,0.34v0.09
			C92.43,144.61,92.44,144.72,92.45,144.83z M98.04,144.7h-2.1v0.01c0.03,0.12,0.06,0.22,0.1,0.3c0.04,0.08,0.1,0.14,0.17,0.2
			c0.07,0.06,0.16,0.11,0.25,0.15c0.09,0.03,0.2,0.05,0.31,0.05c0.16,0,0.31-0.03,0.45-0.09c0.15-0.06,0.27-0.15,0.36-0.27l0.4,0.43
			c-0.1,0.14-0.26,0.27-0.48,0.39c-0.22,0.12-0.48,0.18-0.78,0.18c-0.24,0-0.46-0.04-0.65-0.12c-0.19-0.08-0.36-0.19-0.5-0.32
			c-0.14-0.13-0.25-0.29-0.32-0.47c-0.08-0.18-0.11-0.38-0.11-0.59v-0.11c0-0.24,0.04-0.45,0.11-0.65c0.07-0.2,0.18-0.36,0.31-0.51
			c0.13-0.14,0.29-0.25,0.48-0.33c0.18-0.08,0.38-0.12,0.6-0.12c0.22,0,0.42,0.04,0.6,0.11c0.17,0.07,0.32,0.18,0.44,0.31
			c0.12,0.13,0.21,0.29,0.27,0.48s0.09,0.4,0.09,0.62V144.7z M105.07,144.7h-2.1v0.01c0.03,0.12,0.06,0.22,0.1,0.3
			c0.04,0.08,0.1,0.14,0.17,0.2c0.07,0.06,0.16,0.11,0.25,0.15c0.09,0.03,0.2,0.05,0.31,0.05c0.16,0,0.31-0.03,0.45-0.09
			c0.15-0.06,0.27-0.15,0.36-0.27l0.4,0.43c-0.1,0.14-0.26,0.27-0.48,0.39c-0.22,0.12-0.48,0.18-0.78,0.18
			c-0.24,0-0.46-0.04-0.65-0.12c-0.19-0.08-0.36-0.19-0.5-0.32c-0.14-0.13-0.25-0.29-0.32-0.47c-0.08-0.18-0.11-0.38-0.11-0.59
			v-0.11c0-0.24,0.04-0.45,0.11-0.65c0.07-0.2,0.18-0.36,0.31-0.51c0.13-0.14,0.29-0.25,0.47-0.33c0.18-0.08,0.38-0.12,0.6-0.12
			c0.22,0,0.42,0.04,0.6,0.11c0.17,0.07,0.32,0.18,0.44,0.31c0.12,0.13,0.21,0.29,0.27,0.48c0.06,0.19,0.09,0.4,0.09,0.62V144.7z
			 M108.45,145.99h-0.72l-0.04-0.32c-0.1,0.12-0.21,0.21-0.34,0.28c-0.13,0.07-0.28,0.1-0.46,0.1c-0.19,0-0.36-0.04-0.51-0.12
			c-0.15-0.08-0.28-0.19-0.38-0.33c-0.1-0.14-0.19-0.31-0.24-0.5c-0.06-0.19-0.08-0.4-0.08-0.62v-0.06c0-0.23,0.03-0.45,0.08-0.64
			c0.05-0.2,0.13-0.36,0.24-0.5c0.1-0.14,0.23-0.25,0.38-0.32s0.32-0.11,0.51-0.11c0.16,0,0.3,0.03,0.43,0.09
			c0.12,0.06,0.23,0.14,0.33,0.25v-1.58h0.8V145.99z M112.02,145.99h-0.72l-0.05-0.44c-0.1,0.16-0.23,0.28-0.38,0.36
			c-0.15,0.09-0.31,0.13-0.48,0.13c-0.16,0-0.31-0.02-0.44-0.07c-0.13-0.05-0.25-0.13-0.34-0.24c-0.1-0.11-0.17-0.24-0.22-0.41
			c-0.05-0.17-0.08-0.37-0.08-0.6v-1.83h0.8v1.84c0,0.13,0.01,0.23,0.03,0.32c0.02,0.09,0.05,0.16,0.09,0.21
			c0.04,0.05,0.09,0.09,0.16,0.11c0.07,0.02,0.14,0.03,0.24,0.03c0.08,0,0.16-0.01,0.23-0.03c0.07-0.02,0.13-0.04,0.18-0.07
			c0.04-0.03,0.08-0.06,0.12-0.1c0.03-0.04,0.06-0.08,0.09-0.13v-2.17h0.8V145.99z M113.55,144.83c0.02,0.11,0.05,0.21,0.1,0.29
			c0.05,0.08,0.11,0.15,0.2,0.21c0.08,0.05,0.19,0.08,0.32,0.08c0.08,0,0.15-0.01,0.22-0.03c0.07-0.02,0.13-0.06,0.19-0.1
			c0.05-0.04,0.09-0.09,0.12-0.15c0.03-0.06,0.04-0.13,0.04-0.2h0.75c0,0.16-0.03,0.31-0.1,0.45s-0.16,0.26-0.28,0.35
			c-0.12,0.1-0.26,0.18-0.42,0.23c-0.16,0.06-0.33,0.08-0.5,0.08c-0.24,0-0.45-0.04-0.63-0.12c-0.18-0.08-0.33-0.19-0.45-0.33
			c-0.12-0.14-0.21-0.31-0.28-0.5c-0.06-0.19-0.09-0.39-0.09-0.61v-0.09c0-0.22,0.03-0.42,0.09-0.61c0.06-0.19,0.15-0.36,0.27-0.5
			c0.12-0.14,0.27-0.25,0.45-0.33s0.39-0.12,0.63-0.12c0.19,0,0.37,0.03,0.53,0.09c0.16,0.06,0.3,0.14,0.42,0.24
			c0.12,0.1,0.21,0.23,0.27,0.38c0.06,0.15,0.1,0.31,0.09,0.5h-0.75c0-0.08-0.01-0.15-0.03-0.22c-0.03-0.07-0.07-0.13-0.12-0.18
			c-0.05-0.05-0.11-0.09-0.19-0.12c-0.07-0.03-0.15-0.04-0.24-0.04c-0.13,0-0.23,0.03-0.31,0.08c-0.08,0.05-0.15,0.12-0.19,0.21
			c-0.05,0.09-0.08,0.18-0.1,0.29c-0.02,0.11-0.03,0.23-0.03,0.34v0.09C113.53,144.61,113.54,144.72,113.55,144.83z M119.06,145.99
			h-0.81c-0.02-0.04-0.04-0.08-0.05-0.13c-0.01-0.05-0.02-0.1-0.03-0.16c-0.04,0.05-0.09,0.09-0.15,0.14
			c-0.06,0.04-0.12,0.08-0.19,0.11c-0.07,0.03-0.15,0.06-0.23,0.08c-0.08,0.02-0.17,0.03-0.27,0.03c-0.16,0-0.3-0.02-0.44-0.07
			c-0.13-0.05-0.25-0.11-0.34-0.19s-0.17-0.18-0.22-0.29c-0.05-0.11-0.08-0.24-0.08-0.37c0-0.17,0.03-0.32,0.1-0.46
			c0.07-0.13,0.17-0.24,0.3-0.33c0.12-0.08,0.27-0.14,0.44-0.18c0.18-0.04,0.38-0.06,0.61-0.06h0.44v-0.18
			c0-0.07-0.01-0.14-0.03-0.2c-0.02-0.06-0.06-0.11-0.1-0.15c-0.05-0.04-0.11-0.08-0.18-0.1c-0.07-0.02-0.16-0.04-0.25-0.04
			c-0.08,0-0.16,0.01-0.22,0.03c-0.06,0.02-0.11,0.05-0.15,0.08c-0.03,0.03-0.06,0.07-0.08,0.12c-0.02,0.05-0.02,0.1-0.02,0.15h-0.8
			c0-0.13,0.03-0.26,0.09-0.37c0.06-0.12,0.14-0.22,0.26-0.31c0.11-0.09,0.25-0.16,0.41-0.21c0.16-0.05,0.35-0.08,0.55-0.08
			c0.19,0,0.36,0.02,0.52,0.07c0.16,0.05,0.3,0.11,0.42,0.2c0.12,0.09,0.21,0.2,0.28,0.34c0.07,0.14,0.1,0.29,0.1,0.47v1.33
			c0,0.17,0.01,0.3,0.03,0.41c0.02,0.11,0.05,0.2,0.09,0.28V145.99z M122.39,145.94c-0.07,0.02-0.15,0.04-0.24,0.06
			c-0.08,0.01-0.17,0.03-0.26,0.04c-0.09,0.01-0.18,0.01-0.27,0.01c-0.17,0-0.32-0.02-0.46-0.07c-0.14-0.05-0.26-0.11-0.35-0.21
			c-0.1-0.09-0.18-0.21-0.23-0.36c-0.05-0.15-0.08-0.32-0.08-0.53v-1.41h-0.71v-0.59h0.71v-0.76h0.8v0.76h1.16v0.59h-1.16v1.33
			c0,0.11,0.01,0.21,0.04,0.28c0.03,0.08,0.06,0.14,0.11,0.18c0.05,0.05,0.11,0.08,0.17,0.1c0.07,0.02,0.14,0.03,0.23,0.03
			c0.06,0,0.12,0,0.19-0.01c0.06-0.01,0.13-0.01,0.18-0.02c0.06-0.01,0.11-0.02,0.16-0.03c0.05-0.01,0.09-0.02,0.13-0.03l0.08,0.55
			C122.53,145.89,122.46,145.92,122.39,145.94z M126.08,145.99h-2.52v-0.65h0.88v-1.8h-0.88v-0.65h1.69v2.45h0.84V145.99z
			 M124.39,142.1c0-0.06,0.01-0.12,0.03-0.17c0.02-0.05,0.05-0.1,0.09-0.14c0.04-0.04,0.09-0.06,0.14-0.08s0.12-0.03,0.19-0.03
			c0.14,0,0.25,0.04,0.34,0.12c0.08,0.08,0.12,0.18,0.12,0.3c0,0.12-0.04,0.23-0.12,0.31c-0.08,0.08-0.2,0.12-0.34,0.12
			c-0.07,0-0.13-0.01-0.19-0.03c-0.06-0.02-0.1-0.05-0.14-0.09c-0.04-0.04-0.07-0.08-0.09-0.13
			C124.4,142.22,124.39,142.16,124.39,142.1z M129.68,144.47c0,0.23-0.03,0.44-0.1,0.63s-0.16,0.36-0.28,0.5
			c-0.12,0.14-0.28,0.25-0.46,0.33c-0.18,0.08-0.39,0.12-0.62,0.12c-0.23,0-0.44-0.04-0.62-0.12c-0.18-0.08-0.33-0.19-0.46-0.33
			c-0.13-0.14-0.22-0.31-0.29-0.5c-0.07-0.19-0.1-0.4-0.1-0.63v-0.06c0-0.22,0.03-0.43,0.1-0.62c0.06-0.19,0.16-0.36,0.29-0.5
			c0.12-0.14,0.28-0.25,0.46-0.33c0.18-0.08,0.39-0.12,0.62-0.12c0.23,0,0.44,0.04,0.62,0.12c0.18,0.08,0.34,0.19,0.46,0.33
			c0.12,0.14,0.22,0.31,0.28,0.5s0.1,0.4,0.1,0.62V144.47z M133.15,145.99h-0.8v-1.89c0-0.12-0.01-0.22-0.04-0.3
			c-0.03-0.08-0.07-0.14-0.12-0.19c-0.05-0.05-0.11-0.08-0.19-0.1c-0.07-0.02-0.15-0.03-0.25-0.03c-0.08,0-0.15,0.01-0.21,0.03
			c-0.06,0.02-0.12,0.04-0.17,0.08c-0.04,0.02-0.08,0.05-0.11,0.09c-0.03,0.03-0.06,0.07-0.09,0.11v2.2h-0.8v-3.1h0.72l0.05,0.43
			c0.04-0.06,0.08-0.11,0.13-0.16c0.05-0.05,0.1-0.09,0.15-0.13c0.09-0.07,0.19-0.11,0.3-0.15c0.11-0.03,0.22-0.05,0.35-0.05
			c0.16,0,0.3,0.02,0.43,0.07c0.13,0.05,0.24,0.12,0.34,0.22c0.09,0.1,0.17,0.23,0.22,0.39c0.05,0.16,0.08,0.35,0.08,0.57V145.99z
			 M133.5,116.51h-6.41v-3.2h-9.61v6.41h12.81v3.2h3.2v6.41h-3.2v3.2h-16.02v-3.2h-3.2v-3.2h6.41v3.2h9.61v-6.41h-12.82v-3.2h-3.2
			v-6.41h3.2v-3.2h16.02v3.2h3.2V116.51z"/>
		<path d="M128.73,143.76c-0.05-0.08-0.12-0.15-0.21-0.2c-0.08-0.05-0.19-0.07-0.31-0.07c-0.12,0-0.22,0.02-0.3,0.07
			c-0.08,0.05-0.15,0.12-0.21,0.2c-0.05,0.09-0.09,0.19-0.12,0.3c-0.02,0.11-0.04,0.23-0.04,0.36v0.06c0,0.13,0.01,0.25,0.04,0.36
			c0.03,0.11,0.06,0.21,0.12,0.3c0.05,0.09,0.12,0.15,0.21,0.2c0.08,0.05,0.19,0.07,0.31,0.07c0.12,0,0.22-0.03,0.3-0.07
			c0.08-0.05,0.15-0.12,0.21-0.2c0.05-0.08,0.09-0.18,0.11-0.3c0.02-0.11,0.04-0.24,0.04-0.36v-0.06c0-0.13-0.01-0.24-0.04-0.36
			C128.82,143.94,128.78,143.84,128.73,143.76z"/>
		<path d="M117.41,144.61c-0.09,0.02-0.16,0.06-0.21,0.1c-0.06,0.04-0.1,0.1-0.12,0.16c-0.03,0.06-0.04,0.13-0.04,0.2
			c0,0.06,0.01,0.11,0.03,0.15c0.02,0.05,0.05,0.09,0.09,0.12c0.04,0.03,0.08,0.06,0.14,0.07c0.06,0.02,0.12,0.03,0.2,0.03
			c0.08,0,0.15-0.01,0.22-0.03c0.07-0.02,0.13-0.04,0.19-0.07c0.06-0.03,0.1-0.07,0.14-0.1c0.04-0.04,0.07-0.08,0.09-0.12v-0.53
			h-0.41C117.61,144.57,117.5,144.58,117.41,144.61z"/>
	</g>
</g>
<g id="Text">
</g>
<g id="Layer_1">
</g>
</svg>
