<?xml version="1.0" encoding="utf-8"?>
<!-- Generator: Adobe Illustrator 24.1.3, SVG Export Plug-In . SVG Version: 6.00 Build 0)  -->
<svg version="1.1" id="Layer_1" xmlns="http://www.w3.org/2000/svg" xmlns:xlink="http://www.w3.org/1999/xlink" x="0px" y="0px"
	 viewBox="0 0 193.78 193.78" style="enable-background:new 0 0 193.78 193.78;" xml:space="preserve">
<style type="text/css">
	.st0{fill:#FFFFFF;}
</style>
<g>
	<g>
		<path d="M148.29,81.86c3.88,1.52,6.55,4.47,8.44,7.95c4.71,8.65,10.29,16.67,16.57,24.23c3.6,4.34,7.02,8.82,10.63,13.15
			c4.5,5.42,4.94,11.8,4.38,18.36c-0.18,2.15-1.9,3.69-3.93,4.09c-5.46,1.1-10.81,3.38-16.61,1.62c-1.32-0.4-2.97-0.03-4.41,0.28
			c-3.33,0.73-6.58,0.86-9.78-0.52c-0.61-0.26-1.3-0.8-1.84-0.68c-3.93,0.89-6.67-1.24-9.42-3.47c-0.36-0.29-0.88-0.38-1.6-0.67
			c-0.09,1.13-0.16,2.07-0.23,3.02c-0.34,4.5-1.63,5.8-6.24,5.82c-16.82,0.08-33.65,0.1-50.47,0.13c-7.5,0.01-14.99,0.03-22.49-0.02
			c-2.46-0.02-4.84,0.07-7.17-1.48c-1.71-1.14-4.15-1.36-6.05,0.25c-1.95,1.65-3.94,1.33-6.06,0.5c-1.85-0.72-3.7-0.81-5.75-0.7
			c-2.73,0.14-5.7-0.33-8.24-1.35c-2.58-1.03-5.1-1.23-7.76-1.37c-3.31-0.17-6.61-0.53-9.89-0.99c-2.35-0.33-4.06-1.77-4.36-4.18
			c-0.42-3.27-0.89-6.61-0.66-9.86c0.37-5.05,1.83-9.8,6.19-13.08c0.65-0.49,1.19-1.19,1.62-1.89c5.27-8.79,12.3-16.38,17.17-25.44
			c4.5-8.37,11.1-14.83,18.59-20.55c3.36-2.56,7.24-3.64,11.11-3.92c5.63-0.41,10.06-3.07,15.14-6.06c-0.2-2.07-0.3-4.36-0.67-6.6
			c-1.14-6.84-1.22-13.63,1.74-20.04c3.77-8.16,9.14-15,17.31-19.31c3.55-1.87,6.66-1.39,9.71,1.01c2.87,2.26,5.9,4.32,8.72,6.63
			c5.67,4.63,8.87,10.79,9.42,17.97c0.46,5.96,0.03,11.99,0,17.98c-0.01,2.32,0,4.65,0,7.23c6.32,2.84,12.06,6.49,19.15,6.91
			c3.32,0.2,6.47,1.42,7.78,5.07c-2.82-1.19-5.57-3.14-8.48-3.41c-5.15-0.47-9.55-2.62-14.11-4.57c-1.26-0.54-2.55-1.02-4.14-1.66
			c0.08,1.33,0.08,2.16,0.18,2.98c0.58,4.83-0.33,9.19-3.56,13.04c-2.46,2.93-4.66,6.09-7.24,9.5c9.27,0,18.09,0,26.37,0
			c3.03,1.51,3.18,3.79,3.16,6.22c-0.04,6.82-0.02,13.63-0.02,19.98c2.91,2.28,5.27,4.41,7.91,6.09c1.46,0.93,3.4,1.6,5.09,1.55
			c4.56-0.15,8.82-1.37,11.83-5.25c0.41-0.52,1.06-0.86,2.3-1.84c-2.5,5.35-5.24,7.31-12.12,9.13c3.98,5.43,3.59,10.73-0.97,15.7
			c6,1.92,25.18,0.39,31.44-2.48c0.32-1,1.09-2.25,1.05-3.48c-0.2-6.2-0.93-12.27-5.87-16.89c-1.69-1.58-3.27-3.33-4.69-5.16
			c-2.54-3.28-4.97-6.66-7.36-10.04c-3.55-5.01-7.25-9.93-10.48-15.14c-2.81-4.53-5.29-9.24-9.58-12.64
			C148.62,83.2,148.53,82.43,148.29,81.86z M50.32,132.86c-0.09,0.46-0.02,1.13-0.31,1.36c-5.18,4.1-5.37,9.48-4.13,15.55
			c2.16,0.71,4.31,1.41,6.92,2.27c0-7.12,0-13.67,0-20.2c-0.79,0.33-1.65,0.7-2.51,1.06c0.05-0.48-0.09-1.14,0.17-1.4
			c2.59-2.61,2.77-5.83,2.7-9.25c-0.13-6.16,0.02-12.33-0.06-18.49c-0.03-2.5,0.37-4.65,3.62-6.17c7.54,0,15.83,0,24.8,0
			c-1.75-3.3-3-6.18-4.71-8.76c-2.9-4.35-3.09-8.96-2.23-13.88c0.42-2.39,0.46-4.85,0.7-7.51c-0.94,0.33-1.45,0.43-1.87,0.67
			c-4.78,2.82-9.72,4.86-15.43,5.12c-2.51,0.12-5.31,1.22-7.35,2.72C44.03,80.8,38,86.22,33.59,93.3
			c-3.57,5.73-6.01,12.27-11.42,16.76c-0.36,0.3-0.47,0.88-0.76,1.28c-3.69,5.1-7.41,10.18-11.08,15.3
			c-0.76,1.06-1.68,2.16-1.97,3.38c-1.37,5.61-3.11,11.26,0.26,17.66c1.35,0.3,3.2,0.86,5.09,1.09c4.45,0.54,9.08,0.36,13.32,1.57
			c2.92,0.84,5.74,1.32,8.71,1.55c2.44,0.19,4.87,0.64,7.26,1.18c1.27,0.29,2.45,1.24,3.61-0.51c-5.5-4.93-3.48-10.57-1.26-15.84
			c-3.2-1.9-6.15-3.69-9.14-5.4c-1.14-0.66-2.33-1.36-3.59-1.67c-3.33-0.82-5.57-3.03-7.48-5.89c7.14,3.76,14.28,7.53,20.96,11.04
			C48,133.93,49.16,133.39,50.32,132.86z M56.99,99.19c-2.18,1.29-2.52,3.14-2.52,5.26c0.04,14.5-0.01,28.99,0.04,43.49
			c0.01,4.57,1.1,5.73,5.53,5.73c24.5,0.04,48.99,0.03,73.49-0.01c4.14-0.01,5.51-1.29,5.53-5.29c0.07-14.83,0.02-29.66,0.04-44.49
			c0-1.97-0.58-3.58-2.44-4.69C110.1,99.19,83.45,99.19,56.99,99.19z M115.24,52.8c-0.28-0.81-0.57-1.92-1.04-2.95
			c-2.66-5.76-7.62-9.13-12.98-11.84c-1.74-0.88-4.22-0.82-6.25-0.48c-5.37,0.9-9.22,3.81-11.97,8.76
			c-1.89,3.41-2.35,6.37-2.01,10.27c0.59,6.69,3.48,12.46,5.89,18.38c1.8,4.42,4.77,8.67,10.42,8.94c5.42,0.26,8.6-3.4,10.78-7.62
			c2.19-4.24,3.87-8.79,5.32-13.34C114.4,59.8,114.62,56.42,115.24,52.8z M120.11,57.54c0-3.92,0.01-7.41,0-10.9
			c-0.02-7.07-4.88-15.85-10.77-19.72c-2.08-1.37-4.03-2.93-5.98-4.48c-3.98-3.15-6.65-3.41-10.84-0.83
			c-8.96,5.53-14.23,13.81-16.75,23.77c-0.84,3.33-0.89,7.06,0.6,11.08c0.98-3.78,6.04-13.06,8.35-15.64
			c3.75-4.2,12.75-6.8,17.41-4.38c4.84,2.52,9.44,5.66,12.33,10.55C116.39,50.27,118.07,53.69,120.11,57.54z M107.45,97.58
			c5.54-3.62,8.33-8.84,11.59-13.63c0.77-1.13,0.99-2.79,1.06-4.23c0.29-6.33-0.19-12.61-1.69-18.79c-0.42-1.73-0.76-3.48-1.14-5.22
			c-1.31,6.48-3.59,12.41-6.32,18.2c-0.49,1.04-0.96,2.15-1.15,3.27c-0.19,1.1-0.48,2.65,0.08,3.34c3.27,3.98,0.97,6.62-1.79,9.39
			c-2.27,2.28-4.35,4.76-6.98,7.66C103.9,97.58,105.72,97.58,107.45,97.58z M83.4,97.45c3.36,0,6.58,0,9.92,0
			c-2.85-5.48-10.17-7.64-10.21-14.72c0.43-0.23,0.59-0.38,0.69-0.35c0.29,0.1,0.55,0.27,0.82,0.41c0.12-0.01,0.31,0.03,0.34-0.03
			c2.51-3.87,0.56-7.52-1.07-10.8c-2.81-5.64-4.22-11.58-5.1-17.74c-0.72,4.47-1.34,8.9-1.83,13.35c-0.37,3.3-0.27,6.68-0.93,9.92
			c-0.71,3.52,0.04,6.56,1.69,9.55C79.57,90.36,81.37,93.72,83.4,97.45z M140.67,143.53c1.92,1.48,3.55,2.91,5.35,4.08
			c4.22,2.77,9.37,0.44,10.15-4.57c0.5-3.27-0.18-6.27-2.35-8.62c-2.41-1.15-4.8-1.97-6.81-3.33c-2-1.36-3.48-3.49-6.33-3.97
			C140.67,132.63,140.67,137.92,140.67,143.53z M85.35,86.33c4.27,3.53,7.08,8.61,12.61,11.78c3.83-3.98,7.58-7.89,11.51-11.98
			c-0.54-1.98-1.04-3.81-1.62-5.96c-2.97,2.97-5.98,5.55-9.94,5.72c-4.23,0.18-7.12-2.9-10.02-5.54
			C87.04,82.36,86.27,84.16,85.35,86.33z"/>
		<g>
			<g>
				<path d="M83.62,110.76v17.4h-2.73h-0.25v0.25v2.73h-2.48v-2.73v-0.25H77.9h-2.73v-2.73v-0.25h-0.25h-2.98h-0.25v0.25v2.73h-2.73
					H68.7v0.25v2.73h-2.48v-2.73v-0.25h-0.25h-2.73v-17.4h5.47v11.68v0.25h0.25h2.98h0.25v-0.25v-11.68h2.48v11.68v0.25h0.25h2.98
					h0.25v-0.25v-11.68H83.62 M83.87,110.51H77.9v11.93h-2.98v-11.93h-2.98v11.93h-2.98v-11.93h-5.97v17.9h2.98v2.98h2.98v-2.98
					h2.98v-2.98h2.98v2.98h2.98v2.98h2.98v-2.98h2.98V110.51L83.87,110.51z"/>
			</g>
			<g>
				<path d="M104.51,110.76v2.73v0.25h0.25h2.73v8.45h-2.73h-0.25v0.25v2.73H92.82h-0.25v0.25v5.72h-5.47v-20.39H104.51
					 M92.57,122.7h0.25h8.95h0.25v-0.25v-8.95v-0.25h-0.25h-8.95h-0.25v0.25v8.95V122.7 M104.76,110.51h-17.9v20.89h5.97v-5.97
					h11.94v-2.98h2.98v-8.95h-2.98V110.51L104.76,110.51z M92.82,122.45v-8.95h8.95v8.95H92.82L92.82,122.45z"/>
			</g>
			<g>
				<path d="M128.38,110.76v2.73v0.25h0.25h2.73v2.48h-5.47v-2.73v-0.25h-0.25h-8.95h-0.25v0.25v5.97v0.25h0.25h11.68v2.73v0.25
					h0.25h2.73v5.47h-2.73h-0.25v0.25v2.73h-14.42v-2.73v-0.25h-0.25h-2.73v-2.48h5.47v2.73v0.25h0.25h8.95h0.25v-0.25v-5.97v-0.25
					h-0.25h-11.69v-2.73v-0.25h-0.25h-2.73v-5.47h2.73h0.25v-0.25v-2.73H128.38 M128.63,110.51h-14.92v2.98h-2.98v5.97h2.98v2.98
					h11.94v5.97h-8.95v-2.98h-5.97v2.98h2.98v2.98h14.92v-2.98h2.98v-5.97h-2.98v-2.98h-11.93v-5.97h8.95v2.98h5.97v-2.98h-2.98
					V110.51L128.63,110.51z"/>
			</g>
		</g>
		<g>
			<path d="M63.45,137.37c0.06-0.17,0.14-0.33,0.25-0.46c0.11-0.13,0.24-0.24,0.39-0.32c0.16-0.08,0.33-0.12,0.53-0.12
				s0.38,0.04,0.53,0.12c0.16,0.08,0.29,0.19,0.4,0.32c0.11,0.13,0.19,0.29,0.25,0.46s0.09,0.35,0.09,0.54v0.11
				c0,0.18-0.03,0.36-0.09,0.54c-0.06,0.17-0.14,0.33-0.24,0.46c-0.11,0.13-0.24,0.24-0.39,0.32c-0.16,0.08-0.33,0.12-0.53,0.12
				s-0.38-0.04-0.54-0.12c-0.16-0.08-0.29-0.19-0.39-0.32c-0.11-0.13-0.19-0.29-0.25-0.46s-0.09-0.35-0.09-0.54v-0.11
				C63.36,137.72,63.39,137.54,63.45,137.37z M63.58,138.49c0.05,0.16,0.12,0.29,0.22,0.41c0.09,0.12,0.21,0.22,0.35,0.29
				c0.14,0.07,0.3,0.11,0.47,0.11c0.18,0,0.33-0.04,0.47-0.11c0.14-0.07,0.25-0.17,0.35-0.29c0.09-0.12,0.17-0.26,0.22-0.41
				c0.05-0.15,0.08-0.31,0.08-0.48v-0.11c0-0.16-0.03-0.32-0.08-0.47c-0.05-0.16-0.12-0.29-0.22-0.41c-0.1-0.12-0.21-0.22-0.35-0.29
				c-0.14-0.08-0.3-0.11-0.47-0.11s-0.33,0.04-0.47,0.11c-0.14,0.07-0.25,0.17-0.35,0.29c-0.1,0.12-0.17,0.26-0.22,0.41
				c-0.05,0.16-0.08,0.31-0.08,0.47v0.11C63.51,138.18,63.53,138.34,63.58,138.49z"/>
			<path d="M66.84,136.52h0.14V137c0.05-0.08,0.11-0.16,0.17-0.22s0.14-0.12,0.22-0.17s0.16-0.08,0.25-0.11
				c0.09-0.03,0.18-0.04,0.27-0.04c0.19,0,0.35,0.04,0.49,0.11c0.13,0.07,0.25,0.17,0.34,0.29c0.11,0.14,0.19,0.31,0.23,0.5
				c0.05,0.19,0.07,0.38,0.08,0.57v0.06c0,0.17-0.02,0.34-0.07,0.52c-0.04,0.18-0.11,0.34-0.2,0.47c-0.09,0.14-0.2,0.25-0.35,0.34
				c-0.14,0.09-0.32,0.13-0.52,0.13c-0.09,0-0.17-0.01-0.26-0.03s-0.17-0.05-0.26-0.09c-0.08-0.04-0.16-0.09-0.23-0.15
				c-0.07-0.06-0.13-0.13-0.18-0.2v1.53h-0.14V136.52z M68.84,137.42c-0.04-0.17-0.11-0.32-0.2-0.46c-0.08-0.1-0.18-0.19-0.29-0.26
				s-0.26-0.1-0.43-0.1c-0.1,0-0.21,0.02-0.3,0.05c-0.1,0.03-0.19,0.08-0.27,0.14c-0.08,0.06-0.15,0.13-0.21,0.22
				c-0.06,0.08-0.11,0.18-0.14,0.28v1.42c0.04,0.1,0.09,0.18,0.15,0.25c0.07,0.07,0.14,0.14,0.23,0.19s0.17,0.09,0.27,0.11
				c0.1,0.03,0.19,0.04,0.28,0.04c0.18,0,0.33-0.04,0.45-0.12s0.22-0.17,0.3-0.29c0.08-0.13,0.14-0.27,0.18-0.44
				s0.05-0.32,0.06-0.48v-0.06C68.91,137.76,68.88,137.59,68.84,137.42z"/>
			<path d="M70.75,139.33c-0.16-0.08-0.3-0.18-0.41-0.32c-0.12-0.13-0.21-0.29-0.27-0.46c-0.06-0.17-0.1-0.35-0.1-0.54v-0.12
				c0-0.18,0.03-0.35,0.09-0.53c0.06-0.17,0.14-0.33,0.25-0.46c0.11-0.14,0.24-0.24,0.39-0.33c0.15-0.08,0.33-0.12,0.52-0.12
				c0.17,0,0.33,0.03,0.47,0.1c0.14,0.07,0.26,0.15,0.36,0.27c0.1,0.11,0.17,0.25,0.23,0.39s0.08,0.31,0.08,0.47v0.17h-2.26v0.16
				c0,0.17,0.03,0.33,0.09,0.48s0.14,0.29,0.24,0.41c0.1,0.12,0.22,0.22,0.37,0.29c0.14,0.07,0.3,0.11,0.48,0.11
				c0.18,0,0.34-0.03,0.49-0.09c0.15-0.06,0.28-0.17,0.4-0.3l0.1,0.07c-0.12,0.16-0.27,0.28-0.44,0.35
				c-0.17,0.08-0.36,0.11-0.56,0.11C71.09,139.45,70.91,139.41,70.75,139.33z M70.8,136.7c-0.13,0.06-0.24,0.14-0.33,0.25
				c-0.09,0.1-0.17,0.22-0.23,0.36c-0.06,0.13-0.1,0.27-0.11,0.42h2.1v-0.03c0-0.14-0.02-0.28-0.07-0.41
				c-0.05-0.13-0.12-0.24-0.2-0.34s-0.19-0.18-0.31-0.24s-0.26-0.09-0.4-0.09C71.07,136.61,70.92,136.64,70.8,136.7z"/>
			<path d="M73.37,136.52h0.15v0.69c0.05-0.11,0.1-0.21,0.17-0.3c0.07-0.09,0.15-0.17,0.24-0.24c0.09-0.07,0.19-0.12,0.3-0.16
				c0.11-0.04,0.23-0.06,0.35-0.06c0.17,0,0.31,0.03,0.43,0.08c0.12,0.05,0.22,0.13,0.3,0.22c0.08,0.1,0.14,0.21,0.17,0.34
				s0.06,0.27,0.06,0.43l0,1.86H75.4v-1.86c0-0.13-0.02-0.26-0.05-0.37s-0.08-0.21-0.15-0.3c-0.07-0.08-0.15-0.15-0.25-0.19
				c-0.1-0.05-0.23-0.07-0.37-0.07c-0.13,0-0.25,0.03-0.37,0.08s-0.22,0.12-0.32,0.2c-0.09,0.08-0.17,0.18-0.24,0.29
				c-0.07,0.11-0.11,0.23-0.14,0.35v1.87h-0.15V136.52z"/>
			<path d="M81.94,138.41c-0.06-0.08-0.13-0.14-0.21-0.19c-0.1-0.06-0.21-0.11-0.34-0.15c-0.13-0.04-0.24-0.07-0.34-0.09
				c-0.13-0.03-0.25-0.05-0.36-0.08c-0.11-0.03-0.22-0.07-0.34-0.13c-0.1-0.05-0.19-0.12-0.26-0.22c-0.07-0.09-0.1-0.21-0.1-0.36
				c0-0.13,0.03-0.24,0.1-0.34c0.07-0.09,0.16-0.17,0.26-0.23c0.1-0.05,0.21-0.09,0.33-0.12c0.12-0.03,0.24-0.04,0.35-0.04
				c0.14,0,0.27,0.01,0.4,0.04s0.25,0.08,0.35,0.14c0.1,0.07,0.19,0.15,0.26,0.25c0.07,0.1,0.11,0.23,0.12,0.38h-0.15
				c0-0.12-0.04-0.23-0.1-0.31c-0.06-0.09-0.14-0.16-0.23-0.21c-0.1-0.05-0.2-0.09-0.31-0.12c-0.11-0.02-0.22-0.04-0.33-0.04
				c-0.09,0-0.19,0.01-0.29,0.03c-0.1,0.02-0.2,0.05-0.29,0.09c-0.09,0.04-0.17,0.1-0.23,0.18c-0.06,0.07-0.09,0.17-0.09,0.28
				c0,0.11,0.03,0.2,0.08,0.28c0.06,0.08,0.13,0.14,0.23,0.19c0.1,0.05,0.21,0.1,0.33,0.13c0.12,0.03,0.23,0.05,0.32,0.07
				c0.11,0.02,0.23,0.06,0.36,0.09c0.13,0.04,0.24,0.09,0.35,0.15c0.1,0.06,0.19,0.14,0.26,0.24s0.1,0.22,0.1,0.36
				c0,0.12-0.03,0.23-0.08,0.32c-0.06,0.09-0.12,0.16-0.2,0.22c-0.12,0.08-0.25,0.14-0.4,0.17c-0.15,0.03-0.29,0.05-0.42,0.05
				c-0.13,0-0.27-0.02-0.4-0.05s-0.26-0.08-0.37-0.14c-0.11-0.06-0.2-0.14-0.27-0.24c-0.07-0.1-0.11-0.22-0.12-0.36h0.15
				c0.01,0.13,0.06,0.23,0.12,0.31c0.07,0.08,0.15,0.15,0.25,0.2c0.1,0.05,0.2,0.08,0.32,0.1c0.12,0.02,0.23,0.03,0.34,0.03
				c0.12,0,0.25-0.02,0.37-0.05c0.13-0.03,0.24-0.08,0.35-0.15c0.07-0.05,0.13-0.11,0.17-0.18c0.04-0.07,0.06-0.15,0.06-0.24
				C82.02,138.58,81.99,138.49,81.94,138.41z"/>
			<path d="M83.09,137.37c0.06-0.17,0.14-0.33,0.25-0.46c0.11-0.13,0.24-0.24,0.39-0.32s0.33-0.12,0.53-0.12s0.38,0.04,0.53,0.12
				c0.16,0.08,0.29,0.19,0.4,0.32c0.11,0.13,0.19,0.29,0.25,0.46s0.09,0.35,0.09,0.54v0.11c0,0.18-0.03,0.36-0.09,0.54
				c-0.06,0.17-0.14,0.33-0.24,0.46c-0.11,0.13-0.24,0.24-0.39,0.32c-0.16,0.08-0.33,0.12-0.53,0.12s-0.38-0.04-0.54-0.12
				s-0.29-0.19-0.39-0.32c-0.11-0.13-0.19-0.29-0.25-0.46S83,138.2,83,138.01v-0.11C83,137.72,83.03,137.54,83.09,137.37z
				 M83.22,138.49c0.05,0.16,0.12,0.29,0.22,0.41c0.09,0.12,0.21,0.22,0.35,0.29c0.14,0.07,0.3,0.11,0.47,0.11
				c0.18,0,0.33-0.04,0.47-0.11c0.14-0.07,0.25-0.17,0.35-0.29c0.09-0.12,0.17-0.26,0.22-0.41c0.05-0.15,0.08-0.31,0.08-0.48v-0.11
				c0-0.16-0.03-0.32-0.08-0.47c-0.05-0.16-0.12-0.29-0.22-0.41c-0.1-0.12-0.21-0.22-0.35-0.29c-0.14-0.08-0.3-0.11-0.47-0.11
				s-0.33,0.04-0.47,0.11c-0.14,0.07-0.25,0.17-0.35,0.29c-0.1,0.12-0.17,0.26-0.22,0.41c-0.05,0.16-0.08,0.31-0.08,0.47v0.11
				C83.14,138.18,83.17,138.34,83.22,138.49z"/>
			<path d="M88.47,138.88c-0.09,0.18-0.22,0.32-0.4,0.42c-0.17,0.1-0.38,0.15-0.63,0.15c-0.17,0-0.31-0.03-0.43-0.09
				c-0.12-0.06-0.22-0.13-0.3-0.23c-0.08-0.1-0.14-0.21-0.18-0.35c-0.04-0.13-0.06-0.28-0.06-0.44v-1.83h0.14v1.83
				c0,0.13,0.02,0.26,0.05,0.37c0.03,0.12,0.08,0.22,0.15,0.3c0.07,0.09,0.15,0.16,0.25,0.21s0.23,0.07,0.37,0.07
				c0.14,0,0.27-0.02,0.38-0.05c0.12-0.04,0.22-0.09,0.31-0.16c0.09-0.07,0.16-0.15,0.22-0.25c0.06-0.1,0.1-0.21,0.12-0.33l0-2h0.15
				v2.88h-0.15L88.47,138.88z"/>
			<path d="M91.85,136.48c0.06,0.01,0.13,0.02,0.18,0.03l-0.02,0.14c-0.05-0.01-0.11-0.02-0.17-0.02c-0.06-0.01-0.13-0.01-0.19-0.01
				c-0.15,0-0.29,0.02-0.43,0.05c-0.14,0.03-0.27,0.09-0.38,0.16c-0.12,0.08-0.22,0.17-0.3,0.3c-0.08,0.12-0.15,0.27-0.19,0.45
				l0.01,1.84h-0.17v-2.88h0.14l0.02,0.5v0.18c0.11-0.24,0.27-0.42,0.49-0.55c0.22-0.13,0.49-0.19,0.8-0.19
				C91.72,136.46,91.79,136.47,91.85,136.48z"/>
			<path d="M94.47,139.26c0.11-0.03,0.21-0.08,0.29-0.15c0.08-0.07,0.15-0.15,0.21-0.25s0.09-0.21,0.1-0.33h0.14
				c-0.01,0.14-0.05,0.27-0.11,0.39c-0.06,0.12-0.14,0.21-0.24,0.29c-0.1,0.08-0.21,0.14-0.34,0.18s-0.26,0.06-0.4,0.06
				c-0.2,0-0.38-0.04-0.53-0.12c-0.15-0.08-0.27-0.19-0.37-0.33c-0.1-0.13-0.17-0.29-0.22-0.46c-0.05-0.17-0.07-0.35-0.08-0.53
				v-0.11c0-0.18,0.03-0.36,0.08-0.53c0.05-0.17,0.12-0.33,0.22-0.46c0.1-0.13,0.22-0.24,0.37-0.32c0.15-0.08,0.33-0.12,0.53-0.12
				c0.15,0,0.29,0.02,0.42,0.07c0.13,0.05,0.24,0.12,0.34,0.2c0.1,0.09,0.17,0.19,0.23,0.32c0.06,0.12,0.09,0.26,0.11,0.41h-0.14
				c-0.01-0.13-0.04-0.25-0.09-0.35c-0.05-0.11-0.12-0.2-0.2-0.27c-0.09-0.07-0.18-0.13-0.29-0.17s-0.23-0.06-0.36-0.06
				c-0.18,0-0.34,0.04-0.47,0.11c-0.13,0.07-0.24,0.17-0.33,0.29c-0.09,0.12-0.15,0.26-0.19,0.42c-0.04,0.16-0.06,0.31-0.06,0.47
				v0.11c0,0.17,0.02,0.33,0.06,0.48c0.04,0.15,0.1,0.29,0.19,0.41c0.09,0.12,0.19,0.22,0.33,0.29c0.13,0.07,0.29,0.11,0.48,0.11
				C94.24,139.31,94.36,139.29,94.47,139.26z"/>
			<path d="M96.93,139.33c-0.16-0.08-0.3-0.18-0.41-0.32c-0.12-0.13-0.21-0.29-0.27-0.46c-0.06-0.17-0.1-0.35-0.1-0.54v-0.12
				c0-0.18,0.03-0.35,0.09-0.53c0.06-0.17,0.14-0.33,0.25-0.46c0.11-0.14,0.24-0.24,0.39-0.33c0.15-0.08,0.33-0.12,0.52-0.12
				c0.17,0,0.33,0.03,0.47,0.1c0.14,0.07,0.26,0.15,0.36,0.27c0.1,0.11,0.17,0.25,0.23,0.39s0.08,0.31,0.08,0.47v0.17H96.3v0.16
				c0,0.17,0.03,0.33,0.09,0.48s0.14,0.29,0.24,0.41c0.1,0.12,0.22,0.22,0.37,0.29c0.14,0.07,0.3,0.11,0.48,0.11
				c0.18,0,0.34-0.03,0.49-0.09c0.15-0.06,0.28-0.17,0.4-0.3l0.1,0.07c-0.12,0.16-0.27,0.28-0.44,0.35
				c-0.17,0.08-0.36,0.11-0.56,0.11C97.27,139.45,97.09,139.41,96.93,139.33z M96.98,136.7c-0.13,0.06-0.24,0.14-0.33,0.25
				c-0.09,0.1-0.17,0.22-0.23,0.36c-0.06,0.13-0.1,0.27-0.11,0.42h2.1v-0.03c0-0.14-0.02-0.28-0.07-0.41
				c-0.05-0.13-0.12-0.24-0.2-0.34s-0.19-0.18-0.31-0.24s-0.26-0.09-0.4-0.09C97.25,136.61,97.11,136.64,96.98,136.7z"/>
			<path d="M103.48,139.33c-0.16-0.08-0.3-0.18-0.41-0.32c-0.12-0.13-0.21-0.29-0.27-0.46c-0.06-0.17-0.1-0.35-0.1-0.54v-0.12
				c0-0.18,0.03-0.35,0.09-0.53c0.06-0.17,0.14-0.33,0.25-0.46c0.11-0.14,0.24-0.24,0.39-0.33c0.15-0.08,0.33-0.12,0.52-0.12
				c0.17,0,0.33,0.03,0.47,0.1c0.14,0.07,0.26,0.15,0.36,0.27c0.1,0.11,0.17,0.25,0.23,0.39s0.08,0.31,0.08,0.47v0.17h-2.26v0.16
				c0,0.17,0.03,0.33,0.09,0.48s0.14,0.29,0.24,0.41c0.1,0.12,0.22,0.22,0.37,0.29c0.14,0.07,0.3,0.11,0.48,0.11
				c0.18,0,0.34-0.03,0.49-0.09c0.15-0.06,0.28-0.17,0.4-0.3l0.1,0.07c-0.12,0.16-0.27,0.28-0.44,0.35
				c-0.17,0.08-0.36,0.11-0.56,0.11C103.82,139.45,103.64,139.41,103.48,139.33z M103.53,136.7c-0.13,0.06-0.24,0.14-0.33,0.25
				c-0.09,0.1-0.17,0.22-0.23,0.36c-0.06,0.13-0.1,0.27-0.11,0.42h2.1v-0.03c0-0.14-0.02-0.28-0.07-0.41
				c-0.05-0.13-0.12-0.24-0.2-0.34s-0.19-0.18-0.31-0.24s-0.26-0.09-0.4-0.09C103.8,136.61,103.65,136.64,103.53,136.7z"/>
			<path d="M106.06,137.42c0.04-0.17,0.1-0.32,0.18-0.46c0.09-0.15,0.21-0.27,0.35-0.36c0.15-0.09,0.33-0.14,0.55-0.14
				c0.19,0,0.37,0.05,0.53,0.15c0.17,0.1,0.3,0.23,0.39,0.4v-1.71h0.14v4.09h-0.14v-0.43c-0.1,0.16-0.24,0.28-0.41,0.36
				c-0.17,0.08-0.35,0.12-0.52,0.12c-0.21,0-0.38-0.05-0.53-0.14c-0.14-0.09-0.26-0.21-0.35-0.35c-0.09-0.14-0.15-0.3-0.19-0.47
				c-0.04-0.17-0.06-0.34-0.06-0.51v-0.06C106,137.76,106.02,137.6,106.06,137.42z M106.2,138.43c0.03,0.15,0.08,0.3,0.16,0.42
				c0.08,0.13,0.18,0.24,0.3,0.32c0.12,0.09,0.28,0.13,0.47,0.13c0.19,0,0.37-0.05,0.55-0.15c0.18-0.1,0.31-0.25,0.38-0.43v-1.42
				c-0.07-0.21-0.19-0.38-0.36-0.5c-0.17-0.13-0.36-0.19-0.57-0.19c-0.19,0-0.35,0.04-0.48,0.13c-0.13,0.08-0.23,0.19-0.3,0.33
				c-0.07,0.13-0.13,0.27-0.16,0.42c-0.03,0.15-0.05,0.3-0.05,0.45v0.06C106.15,138.13,106.17,138.28,106.2,138.43z"/>
			<path d="M111.38,138.88c-0.09,0.18-0.22,0.32-0.4,0.42c-0.17,0.1-0.38,0.15-0.63,0.15c-0.17,0-0.31-0.03-0.43-0.09
				c-0.12-0.06-0.22-0.13-0.3-0.23c-0.08-0.1-0.14-0.21-0.18-0.35s-0.06-0.28-0.06-0.44v-1.83h0.14v1.83c0,0.13,0.02,0.26,0.05,0.37
				s0.08,0.22,0.15,0.3c0.07,0.09,0.15,0.16,0.25,0.21c0.1,0.05,0.23,0.07,0.37,0.07c0.14,0,0.27-0.02,0.38-0.05
				c0.12-0.04,0.22-0.09,0.31-0.16c0.09-0.07,0.16-0.15,0.22-0.25s0.1-0.21,0.12-0.33l0-2h0.15v2.88h-0.15L111.38,138.88z"/>
			<path d="M114.11,139.26c0.11-0.03,0.21-0.08,0.29-0.15c0.08-0.07,0.15-0.15,0.21-0.25c0.05-0.1,0.09-0.21,0.1-0.33h0.14
				c-0.01,0.14-0.05,0.27-0.11,0.39c-0.06,0.12-0.14,0.21-0.24,0.29c-0.1,0.08-0.21,0.14-0.34,0.18s-0.26,0.06-0.4,0.06
				c-0.2,0-0.38-0.04-0.53-0.12c-0.15-0.08-0.28-0.19-0.37-0.33c-0.1-0.13-0.17-0.29-0.22-0.46c-0.05-0.17-0.07-0.35-0.08-0.53
				v-0.11c0-0.18,0.03-0.36,0.08-0.53c0.05-0.17,0.12-0.33,0.22-0.46c0.1-0.13,0.22-0.24,0.37-0.32c0.15-0.08,0.32-0.12,0.53-0.12
				c0.15,0,0.29,0.02,0.42,0.07s0.24,0.12,0.34,0.2c0.1,0.09,0.17,0.19,0.23,0.32c0.06,0.12,0.09,0.26,0.11,0.41h-0.14
				c-0.01-0.13-0.04-0.25-0.09-0.35c-0.05-0.11-0.12-0.2-0.2-0.27c-0.08-0.07-0.18-0.13-0.29-0.17s-0.23-0.06-0.36-0.06
				c-0.18,0-0.34,0.04-0.47,0.11c-0.13,0.07-0.24,0.17-0.33,0.29c-0.09,0.12-0.15,0.26-0.19,0.42s-0.06,0.31-0.06,0.47v0.11
				c0,0.17,0.02,0.33,0.06,0.48s0.1,0.29,0.19,0.41c0.08,0.12,0.19,0.22,0.33,0.29c0.13,0.07,0.29,0.11,0.48,0.11
				C113.88,139.31,114,139.29,114.11,139.26z"/>
			<path d="M117.94,139.13c-0.01-0.09-0.01-0.18-0.01-0.27c-0.06,0.1-0.14,0.18-0.22,0.26c-0.09,0.07-0.18,0.14-0.28,0.18
				c-0.1,0.05-0.21,0.09-0.32,0.11c-0.11,0.03-0.23,0.04-0.35,0.04c-0.12,0-0.23-0.02-0.34-0.05c-0.11-0.03-0.21-0.08-0.29-0.15
				c-0.08-0.07-0.15-0.15-0.21-0.25s-0.08-0.21-0.08-0.33c0-0.17,0.04-0.31,0.13-0.43c0.08-0.11,0.19-0.2,0.33-0.27
				c0.13-0.07,0.28-0.11,0.44-0.14c0.16-0.03,0.33-0.04,0.49-0.04h0.71v-0.42c0-0.13-0.03-0.24-0.08-0.34
				c-0.05-0.1-0.12-0.17-0.2-0.24c-0.08-0.06-0.18-0.11-0.29-0.14c-0.11-0.03-0.22-0.05-0.34-0.05c-0.11,0-0.21,0.01-0.33,0.04
				s-0.21,0.07-0.3,0.13c-0.09,0.06-0.17,0.13-0.23,0.22s-0.09,0.19-0.1,0.31l-0.14,0c0.01-0.14,0.04-0.26,0.11-0.37
				s0.16-0.19,0.26-0.26c0.1-0.07,0.22-0.12,0.35-0.16c0.13-0.04,0.25-0.05,0.38-0.05c0.14,0,0.28,0.02,0.4,0.06
				s0.24,0.09,0.33,0.17c0.1,0.08,0.17,0.17,0.23,0.29c0.06,0.11,0.08,0.25,0.09,0.4v1.44c0,0.1,0.01,0.19,0.03,0.28
				c0.02,0.09,0.03,0.18,0.05,0.28l0,0.02h-0.17C117.97,139.31,117.95,139.22,117.94,139.13z M117.12,139.27
				c0.12-0.03,0.23-0.07,0.33-0.13c0.1-0.06,0.19-0.13,0.27-0.22c0.08-0.09,0.15-0.19,0.2-0.3v-0.68h-0.7
				c-0.14,0-0.29,0.02-0.45,0.04s-0.3,0.07-0.42,0.13c-0.11,0.06-0.2,0.13-0.27,0.23c-0.07,0.09-0.1,0.21-0.1,0.35
				c0,0.1,0.02,0.19,0.07,0.27c0.05,0.08,0.11,0.15,0.18,0.2c0.07,0.05,0.16,0.09,0.25,0.12c0.09,0.03,0.18,0.04,0.27,0.04
				C116.88,139.31,117,139.3,117.12,139.27z"/>
			<path d="M120.15,136.52h1.04v0.15h-1.04v2.05c0,0.11,0.02,0.21,0.06,0.28c0.04,0.08,0.09,0.14,0.15,0.18
				c0.06,0.05,0.14,0.08,0.23,0.1c0.09,0.02,0.18,0.03,0.28,0.03c0.05,0,0.09,0,0.14,0c0.05,0,0.09,0,0.14-0.01
				c0.02,0,0.05,0,0.07-0.01c0.03,0,0.05,0,0.07-0.01l0.03,0.14c-0.03,0-0.05,0.01-0.08,0.01c-0.02,0-0.05,0.01-0.07,0.01
				c-0.05,0-0.1,0.01-0.14,0.01s-0.1,0-0.15,0c-0.13,0-0.25-0.01-0.35-0.04s-0.2-0.07-0.28-0.13s-0.14-0.13-0.18-0.23
				c-0.04-0.09-0.07-0.21-0.07-0.35v-2.05h-0.85v-0.15H120v-0.78h0.16L120.15,136.52z"/>
			<path d="M123.74,136.52v2.74h1.02v0.14h-2.22v-0.14h1.06v-2.59h-1.06v-0.14H123.74z M123.48,135.62
				c0.01-0.02,0.02-0.04,0.03-0.06c0.01-0.02,0.03-0.03,0.06-0.04c0.02-0.01,0.05-0.02,0.09-0.02c0.04,0,0.07,0,0.09,0.02
				c0.02,0.01,0.04,0.02,0.06,0.04c0.01,0.02,0.02,0.04,0.03,0.06c0.01,0.02,0.01,0.05,0.01,0.07c0,0.05-0.01,0.09-0.04,0.13
				s-0.08,0.06-0.15,0.06c-0.07,0-0.12-0.02-0.15-0.06c-0.03-0.04-0.04-0.08-0.04-0.13C123.47,135.67,123.47,135.65,123.48,135.62z"
				/>
			<path d="M125.64,137.37c0.06-0.17,0.14-0.33,0.24-0.46c0.11-0.13,0.24-0.24,0.39-0.32s0.33-0.12,0.53-0.12
				c0.2,0,0.38,0.04,0.53,0.12c0.16,0.08,0.29,0.19,0.4,0.32c0.11,0.13,0.19,0.29,0.25,0.46c0.06,0.17,0.09,0.35,0.09,0.54v0.11
				c0,0.18-0.03,0.36-0.09,0.54c-0.06,0.17-0.14,0.33-0.24,0.46c-0.11,0.13-0.24,0.24-0.39,0.32c-0.16,0.08-0.33,0.12-0.53,0.12
				c-0.2,0-0.38-0.04-0.54-0.12s-0.29-0.19-0.39-0.32c-0.11-0.13-0.19-0.29-0.25-0.46c-0.06-0.17-0.09-0.35-0.09-0.54v-0.11
				C125.55,137.72,125.58,137.54,125.64,137.37z M125.77,138.49c0.05,0.16,0.12,0.29,0.22,0.41c0.09,0.12,0.21,0.22,0.35,0.29
				c0.14,0.07,0.3,0.11,0.47,0.11s0.33-0.04,0.47-0.11c0.14-0.07,0.25-0.17,0.35-0.29c0.09-0.12,0.17-0.26,0.22-0.41
				s0.08-0.31,0.08-0.48v-0.11c0-0.16-0.03-0.32-0.08-0.47c-0.05-0.16-0.12-0.29-0.22-0.41c-0.1-0.12-0.21-0.22-0.35-0.29
				c-0.14-0.08-0.3-0.11-0.47-0.11s-0.33,0.04-0.47,0.11c-0.14,0.07-0.25,0.17-0.35,0.29c-0.1,0.12-0.17,0.26-0.22,0.41
				s-0.08,0.31-0.08,0.47v0.11C125.69,138.18,125.72,138.34,125.77,138.49z"/>
			<path d="M129.01,136.52h0.15v0.69c0.05-0.11,0.1-0.21,0.17-0.3c0.07-0.09,0.15-0.17,0.24-0.24c0.09-0.07,0.19-0.12,0.3-0.16
				c0.11-0.04,0.23-0.06,0.35-0.06c0.17,0,0.31,0.03,0.43,0.08c0.12,0.05,0.22,0.13,0.3,0.22c0.08,0.1,0.14,0.21,0.17,0.34
				c0.04,0.13,0.06,0.27,0.06,0.43l0,1.86h-0.15v-1.86c0-0.13-0.02-0.26-0.05-0.37c-0.03-0.11-0.08-0.21-0.14-0.3
				c-0.07-0.08-0.15-0.15-0.25-0.19c-0.1-0.05-0.23-0.07-0.37-0.07c-0.13,0-0.25,0.03-0.37,0.08s-0.22,0.12-0.32,0.2
				c-0.09,0.08-0.17,0.18-0.24,0.29c-0.07,0.11-0.11,0.23-0.14,0.35v1.87h-0.15V136.52z"/>
		</g>
	</g>
</g>
</svg>
