<?xml version="1.0" encoding="utf-8"?>
<!-- Generator: Adobe Illustrator 24.1.3, SVG Export Plug-In . SVG Version: 6.00 Build 0)  -->
<svg version="1.1" xmlns="http://www.w3.org/2000/svg" xmlns:xlink="http://www.w3.org/1999/xlink" x="0px" y="0px"
	 viewBox="0 0 220 220" style="enable-background:new 0 0 220 220;" xml:space="preserve">
<style type="text/css">
	.st0{fill:#FFFFFF;}
</style>
<g id="Layer_2">
	<g>
		<path d="M93.72,152.71c-0.12-0.07-0.25-0.14-0.41-0.18c-0.16-0.05-0.33-0.09-0.52-0.12c-0.13-0.02-0.24-0.04-0.32-0.07
			c-0.08-0.03-0.15-0.06-0.2-0.09c-0.05-0.03-0.08-0.07-0.1-0.1c-0.02-0.04-0.03-0.08-0.03-0.13c0-0.05,0.01-0.09,0.03-0.13
			c0.02-0.04,0.05-0.08,0.1-0.11c0.05-0.03,0.1-0.06,0.18-0.08c0.07-0.02,0.16-0.03,0.25-0.03c0.11,0,0.21,0.01,0.29,0.04
			c0.08,0.03,0.15,0.07,0.19,0.11c0.03,0.04,0.06,0.08,0.08,0.12c0.02,0.05,0.03,0.09,0.03,0.14h0.8c0-0.14-0.03-0.28-0.09-0.4
			c-0.06-0.12-0.15-0.23-0.27-0.32c-0.12-0.09-0.27-0.16-0.44-0.21c-0.17-0.05-0.37-0.08-0.58-0.08c-0.21,0-0.39,0.03-0.56,0.08
			c-0.16,0.05-0.3,0.12-0.42,0.21c-0.11,0.09-0.2,0.19-0.26,0.31c-0.06,0.12-0.09,0.24-0.09,0.37c0,0.13,0.03,0.25,0.09,0.35
			c0.06,0.1,0.14,0.19,0.25,0.27c0.11,0.08,0.24,0.14,0.38,0.2c0.15,0.05,0.32,0.1,0.5,0.14c0.14,0.03,0.26,0.05,0.35,0.08
			c0.09,0.03,0.17,0.06,0.23,0.09c0.06,0.03,0.09,0.07,0.12,0.1c0.02,0.04,0.03,0.08,0.03,0.13c0,0.05-0.01,0.09-0.04,0.13
			c-0.02,0.04-0.06,0.08-0.11,0.11c-0.05,0.03-0.11,0.05-0.19,0.07c-0.08,0.02-0.17,0.03-0.27,0.03c-0.09,0-0.17-0.01-0.25-0.03
			c-0.08-0.02-0.15-0.05-0.22-0.08c-0.06-0.04-0.11-0.08-0.15-0.14c-0.04-0.06-0.06-0.13-0.07-0.22h-0.76
			c0,0.13,0.03,0.25,0.09,0.38c0.06,0.12,0.15,0.24,0.27,0.33c0.12,0.1,0.27,0.18,0.45,0.24c0.18,0.06,0.38,0.09,0.62,0.09
			c0.21,0,0.4-0.02,0.58-0.07c0.17-0.05,0.32-0.11,0.44-0.2c0.12-0.08,0.21-0.18,0.28-0.3c0.07-0.12,0.1-0.24,0.1-0.38
			c0-0.15-0.03-0.28-0.1-0.38C93.92,152.88,93.83,152.79,93.72,152.71z"/>
		<path d="M97.27,151.56c-0.13-0.14-0.28-0.25-0.46-0.33c-0.18-0.08-0.39-0.12-0.62-0.12s-0.44,0.04-0.62,0.12
			c-0.18,0.08-0.33,0.19-0.46,0.33c-0.13,0.14-0.22,0.31-0.29,0.5c-0.07,0.19-0.1,0.4-0.1,0.62v0.06c0,0.23,0.03,0.44,0.1,0.63
			c0.06,0.19,0.16,0.36,0.29,0.5c0.12,0.14,0.28,0.25,0.46,0.33c0.18,0.08,0.39,0.12,0.62,0.12c0.23,0,0.44-0.04,0.62-0.12
			c0.18-0.08,0.33-0.19,0.46-0.33c0.12-0.14,0.22-0.31,0.28-0.5c0.07-0.19,0.1-0.4,0.1-0.63v-0.06c0-0.22-0.03-0.43-0.1-0.62
			C97.48,151.87,97.39,151.7,97.27,151.56z M96.85,152.74c0,0.13-0.01,0.25-0.04,0.36c-0.02,0.11-0.06,0.21-0.11,0.3
			c-0.05,0.09-0.12,0.15-0.21,0.2c-0.08,0.05-0.18,0.07-0.3,0.07c-0.12,0-0.22-0.03-0.31-0.07c-0.08-0.05-0.15-0.12-0.21-0.2
			c-0.05-0.08-0.09-0.18-0.12-0.3c-0.02-0.11-0.04-0.24-0.04-0.36v-0.06c0-0.13,0.01-0.24,0.04-0.36c0.03-0.11,0.06-0.21,0.12-0.3
			c0.05-0.08,0.12-0.15,0.21-0.2c0.08-0.05,0.19-0.07,0.3-0.07c0.12,0,0.22,0.02,0.31,0.07c0.08,0.05,0.15,0.12,0.21,0.2
			c0.05,0.09,0.09,0.19,0.11,0.3c0.02,0.11,0.04,0.23,0.04,0.36V152.74z"/>
		<path d="M121.34,151.44c-0.1-0.11-0.2-0.19-0.33-0.25c-0.12-0.06-0.27-0.09-0.43-0.09c-0.19,0-0.36,0.04-0.51,0.11
			c-0.15,0.08-0.28,0.18-0.38,0.32c-0.11,0.14-0.18,0.31-0.24,0.5c-0.05,0.19-0.08,0.41-0.08,0.64v0.06c0,0.23,0.03,0.43,0.08,0.62
			c0.06,0.19,0.14,0.36,0.24,0.5c0.1,0.14,0.23,0.25,0.38,0.33c0.15,0.08,0.32,0.12,0.51,0.12c0.17,0,0.33-0.03,0.46-0.1
			c0.13-0.07,0.25-0.16,0.34-0.28l0.04,0.32h0.72v-4.4h-0.8V151.44z M121.34,153.34c-0.05,0.1-0.13,0.18-0.22,0.24
			c-0.09,0.06-0.2,0.09-0.34,0.09c-0.11,0-0.21-0.02-0.29-0.07c-0.08-0.05-0.14-0.11-0.19-0.2c-0.05-0.08-0.09-0.18-0.11-0.29
			c-0.02-0.11-0.03-0.23-0.03-0.36v-0.06c0-0.13,0.01-0.25,0.03-0.36c0.02-0.11,0.06-0.21,0.11-0.3c0.05-0.08,0.11-0.15,0.19-0.2
			c0.08-0.05,0.18-0.07,0.29-0.07c0.14,0,0.25,0.03,0.34,0.09c0.09,0.06,0.16,0.14,0.21,0.24V153.34z"/>
		<path d="M100.29,153.34c-0.02,0.05-0.05,0.09-0.09,0.13c-0.03,0.04-0.07,0.07-0.12,0.1c-0.05,0.03-0.11,0.06-0.18,0.07
			c-0.07,0.02-0.14,0.03-0.23,0.03c-0.09,0-0.17-0.01-0.24-0.03c-0.06-0.02-0.12-0.06-0.16-0.11c-0.04-0.05-0.07-0.12-0.09-0.21
			c-0.02-0.09-0.03-0.19-0.03-0.32v-1.84h-0.8v1.83c0,0.23,0.03,0.44,0.08,0.6c0.05,0.17,0.13,0.3,0.22,0.41
			c0.1,0.11,0.21,0.19,0.34,0.24c0.13,0.05,0.28,0.07,0.44,0.07c0.18,0,0.34-0.04,0.48-0.13c0.15-0.09,0.27-0.21,0.38-0.36
			l0.05,0.44h0.72v-3.1h-0.8V153.34z"/>
		<path d="M118.39,151.53c-0.12-0.13-0.27-0.24-0.44-0.31c-0.17-0.07-0.37-0.11-0.6-0.11c-0.22,0-0.42,0.04-0.6,0.12
			c-0.18,0.08-0.34,0.19-0.47,0.33c-0.13,0.14-0.24,0.31-0.31,0.51c-0.07,0.2-0.11,0.41-0.11,0.65v0.11c0,0.21,0.04,0.4,0.11,0.59
			c0.08,0.18,0.18,0.34,0.32,0.47c0.14,0.14,0.31,0.24,0.5,0.32c0.19,0.08,0.41,0.12,0.65,0.12c0.3,0,0.56-0.06,0.78-0.18
			c0.22-0.12,0.38-0.25,0.48-0.39l-0.4-0.43c-0.09,0.12-0.21,0.21-0.36,0.27c-0.15,0.06-0.3,0.09-0.45,0.09
			c-0.11,0-0.21-0.02-0.31-0.05c-0.09-0.03-0.18-0.08-0.25-0.15c-0.07-0.06-0.13-0.13-0.17-0.2c-0.04-0.08-0.08-0.18-0.1-0.3v-0.01
			h2.1v-0.34c0-0.23-0.03-0.43-0.09-0.62C118.6,151.82,118.51,151.66,118.39,151.53z M117.98,152.42h-1.3
			c0.02-0.1,0.05-0.19,0.09-0.27c0.04-0.08,0.09-0.15,0.14-0.21c0.06-0.06,0.12-0.1,0.19-0.14c0.07-0.03,0.16-0.05,0.25-0.05
			c0.1,0,0.19,0.02,0.27,0.05c0.08,0.03,0.14,0.07,0.2,0.13c0.05,0.06,0.1,0.12,0.13,0.2c0.03,0.07,0.05,0.15,0.05,0.24V152.42z"/>
		<path d="M106.14,152.33c0.02-0.11,0.06-0.21,0.1-0.29c0.05-0.09,0.11-0.15,0.19-0.21c0.08-0.05,0.19-0.08,0.31-0.08
			c0.09,0,0.17,0.01,0.24,0.04c0.07,0.03,0.13,0.07,0.19,0.12c0.05,0.05,0.09,0.11,0.12,0.18c0.03,0.07,0.04,0.14,0.03,0.22h0.75
			c0-0.18-0.03-0.35-0.09-0.5c-0.07-0.15-0.16-0.27-0.27-0.38c-0.12-0.1-0.26-0.18-0.42-0.24c-0.16-0.06-0.34-0.09-0.53-0.09
			c-0.24,0-0.45,0.04-0.63,0.12s-0.33,0.19-0.45,0.33c-0.12,0.14-0.21,0.31-0.27,0.5c-0.06,0.19-0.09,0.39-0.09,0.61v0.09
			c0,0.22,0.03,0.42,0.09,0.61c0.06,0.19,0.15,0.36,0.28,0.5c0.12,0.14,0.27,0.25,0.45,0.33c0.18,0.08,0.39,0.12,0.63,0.12
			c0.18,0,0.35-0.03,0.5-0.08c0.16-0.06,0.3-0.13,0.42-0.23c0.12-0.1,0.21-0.22,0.28-0.35c0.07-0.14,0.1-0.29,0.1-0.45h-0.75
			c0,0.07-0.01,0.14-0.04,0.2c-0.03,0.06-0.07,0.11-0.12,0.15s-0.12,0.07-0.19,0.1c-0.07,0.02-0.15,0.03-0.22,0.03
			c-0.13,0-0.23-0.03-0.32-0.08c-0.08-0.05-0.15-0.12-0.2-0.21c-0.05-0.08-0.08-0.18-0.1-0.29c-0.02-0.11-0.03-0.23-0.03-0.35v-0.09
			C106.11,152.55,106.12,152.44,106.14,152.33z"/>
		<path d="M111.36,151.53c-0.12-0.13-0.27-0.24-0.44-0.31c-0.17-0.07-0.37-0.11-0.6-0.11c-0.22,0-0.42,0.04-0.6,0.12
			c-0.18,0.08-0.34,0.19-0.48,0.33c-0.13,0.14-0.24,0.31-0.31,0.51c-0.07,0.2-0.11,0.41-0.11,0.65v0.11c0,0.21,0.04,0.4,0.11,0.59
			c0.08,0.18,0.18,0.34,0.32,0.47c0.14,0.14,0.31,0.24,0.5,0.32c0.19,0.08,0.41,0.12,0.65,0.12c0.3,0,0.56-0.06,0.78-0.18
			c0.22-0.12,0.38-0.25,0.48-0.39l-0.4-0.43c-0.09,0.12-0.21,0.21-0.36,0.27c-0.15,0.06-0.3,0.09-0.45,0.09
			c-0.11,0-0.21-0.02-0.31-0.05c-0.09-0.03-0.18-0.08-0.25-0.15c-0.07-0.06-0.13-0.13-0.17-0.2c-0.04-0.08-0.08-0.18-0.1-0.3v-0.01
			h2.1v-0.34c0-0.23-0.03-0.43-0.09-0.62C111.57,151.82,111.48,151.66,111.36,151.53z M110.94,152.42h-1.3
			c0.02-0.1,0.05-0.19,0.09-0.27c0.04-0.08,0.09-0.15,0.14-0.21c0.06-0.06,0.12-0.1,0.19-0.14c0.07-0.03,0.16-0.05,0.25-0.05
			c0.1,0,0.19,0.02,0.27,0.05s0.14,0.07,0.2,0.13c0.05,0.06,0.1,0.12,0.13,0.2c0.03,0.07,0.05,0.15,0.05,0.24V152.42z"/>
		<path d="M104.09,151.11c-0.21,0-0.4,0.05-0.58,0.15c-0.18,0.1-0.33,0.24-0.45,0.41l-0.01-0.07l-0.03-0.44h-0.74v3.1h0.8v-1.86
			c0.04-0.09,0.08-0.16,0.14-0.23c0.06-0.07,0.12-0.12,0.2-0.16c0.06-0.04,0.14-0.06,0.22-0.08c0.08-0.02,0.18-0.03,0.28-0.03
			c0.1,0,0.2,0.01,0.31,0.02c0.11,0.01,0.22,0.03,0.32,0.06l0.12-0.79c-0.06-0.02-0.15-0.04-0.25-0.05
			C104.32,151.11,104.21,151.11,104.09,151.11z"/>
		<polygon points="79.9,140.8 79.9,137.59 83.1,137.59 83.1,134.39 86.31,134.39 86.31,137.59 89.51,137.59 89.51,140.8 
			92.72,140.8 92.72,137.59 95.92,137.59 95.92,118.37 89.51,118.37 89.51,131.19 86.31,131.19 86.31,118.37 83.1,118.37 
			83.1,131.19 79.9,131.19 79.9,118.37 73.49,118.37 73.49,137.59 76.7,137.59 76.7,140.8 		"/>
		<rect x="88.2" y="152.1" width="2.38" height="0.64"/>
		<path d="M79.72,151.54c-0.1-0.14-0.23-0.24-0.38-0.32c-0.15-0.08-0.32-0.11-0.52-0.11c-0.1,0-0.18,0.01-0.27,0.03
			c-0.08,0.02-0.16,0.05-0.23,0.08c-0.06,0.03-0.11,0.07-0.16,0.11c-0.05,0.04-0.1,0.09-0.14,0.14l-0.03-0.3h-0.74v4.29h0.8v-1.46
			c0.04,0.04,0.07,0.08,0.11,0.11c0.04,0.03,0.08,0.06,0.13,0.09c0.07,0.04,0.16,0.07,0.24,0.1c0.09,0.02,0.18,0.03,0.28,0.03
			c0.19,0,0.37-0.04,0.52-0.12c0.15-0.08,0.28-0.19,0.38-0.33c0.1-0.14,0.18-0.31,0.23-0.5c0.05-0.19,0.08-0.4,0.08-0.63v-0.06
			c0-0.23-0.03-0.45-0.08-0.64C79.9,151.84,79.82,151.68,79.72,151.54z M79.24,152.74c0,0.13-0.01,0.25-0.03,0.36
			c-0.02,0.11-0.06,0.21-0.11,0.3c-0.05,0.09-0.11,0.15-0.19,0.2c-0.08,0.05-0.18,0.07-0.29,0.07c-0.07,0-0.13-0.01-0.19-0.02
			c-0.06-0.01-0.11-0.04-0.15-0.06c-0.05-0.03-0.09-0.06-0.12-0.1c-0.04-0.04-0.07-0.08-0.09-0.14v-1.29
			c0.03-0.05,0.06-0.1,0.1-0.14c0.04-0.04,0.08-0.07,0.13-0.1c0.04-0.02,0.09-0.04,0.15-0.05c0.05-0.01,0.11-0.02,0.18-0.02
			c0.11,0,0.21,0.02,0.29,0.07c0.08,0.05,0.14,0.11,0.2,0.19c0.05,0.08,0.09,0.18,0.11,0.3c0.02,0.11,0.04,0.23,0.04,0.36V152.74z"
			/>
		<path d="M105.53,134.39h12.81v-3.2h3.2v-9.61h-3.2v-3.2H99.12v22.43h6.41V134.39z M105.53,121.58h9.61v9.61h-9.61V121.58z"/>
		<path d="M83.22,151.53c-0.12-0.13-0.27-0.24-0.44-0.31c-0.17-0.07-0.37-0.11-0.6-0.11c-0.22,0-0.42,0.04-0.6,0.12
			c-0.18,0.08-0.34,0.19-0.47,0.33c-0.13,0.14-0.24,0.31-0.31,0.51c-0.07,0.2-0.11,0.41-0.11,0.65v0.11c0,0.21,0.04,0.4,0.11,0.59
			c0.08,0.18,0.18,0.34,0.32,0.47c0.14,0.14,0.31,0.24,0.5,0.32c0.19,0.08,0.41,0.12,0.65,0.12c0.3,0,0.56-0.06,0.78-0.18
			c0.22-0.12,0.38-0.25,0.48-0.39l-0.4-0.43c-0.09,0.12-0.21,0.21-0.36,0.27c-0.15,0.06-0.3,0.09-0.45,0.09
			c-0.11,0-0.21-0.02-0.31-0.05c-0.09-0.03-0.18-0.08-0.25-0.15c-0.07-0.06-0.13-0.13-0.17-0.2c-0.04-0.08-0.08-0.18-0.1-0.3v-0.01
			h2.1v-0.34c0-0.23-0.03-0.43-0.09-0.62C83.43,151.82,83.34,151.66,83.22,151.53z M82.81,152.42h-1.3c0.02-0.1,0.05-0.19,0.09-0.27
			c0.04-0.08,0.09-0.15,0.14-0.21c0.06-0.06,0.12-0.1,0.19-0.14c0.07-0.03,0.16-0.05,0.25-0.05c0.1,0,0.19,0.02,0.27,0.05
			c0.08,0.03,0.14,0.07,0.2,0.13c0.05,0.06,0.1,0.12,0.13,0.2c0.03,0.07,0.05,0.15,0.05,0.24V152.42z"/>
		<path d="M86.75,151.39c-0.1-0.1-0.21-0.17-0.34-0.22c-0.13-0.05-0.27-0.07-0.43-0.07c-0.12,0-0.24,0.02-0.35,0.05
			s-0.21,0.08-0.3,0.15c-0.05,0.04-0.1,0.08-0.15,0.13c-0.05,0.05-0.09,0.1-0.13,0.16l-0.05-0.43h-0.72v3.1h0.8v-2.2
			c0.03-0.04,0.06-0.08,0.09-0.11c0.03-0.03,0.07-0.06,0.11-0.09c0.05-0.03,0.11-0.06,0.17-0.08c0.06-0.02,0.13-0.03,0.21-0.03
			c0.09,0,0.17,0.01,0.25,0.03c0.07,0.02,0.13,0.05,0.19,0.1c0.05,0.05,0.09,0.11,0.12,0.19c0.03,0.08,0.04,0.18,0.04,0.3v1.89h0.8
			v-1.91c0-0.23-0.03-0.42-0.08-0.57C86.92,151.62,86.84,151.49,86.75,151.39z"/>
		<path d="M76.17,151.56c-0.13-0.14-0.28-0.25-0.46-0.33c-0.18-0.08-0.39-0.12-0.62-0.12c-0.23,0-0.44,0.04-0.62,0.12
			c-0.18,0.08-0.33,0.19-0.46,0.33c-0.13,0.14-0.22,0.31-0.29,0.5c-0.07,0.19-0.1,0.4-0.1,0.62v0.06c0,0.23,0.03,0.44,0.1,0.63
			c0.06,0.19,0.16,0.36,0.29,0.5c0.12,0.14,0.28,0.25,0.46,0.33c0.18,0.08,0.39,0.12,0.62,0.12c0.23,0,0.44-0.04,0.62-0.12
			c0.18-0.08,0.33-0.19,0.46-0.33c0.12-0.14,0.22-0.31,0.28-0.5c0.07-0.19,0.1-0.4,0.1-0.63v-0.06c0-0.22-0.03-0.43-0.1-0.62
			C76.38,151.87,76.29,151.7,76.17,151.56z M75.75,152.74c0,0.13-0.01,0.25-0.04,0.36c-0.02,0.11-0.06,0.21-0.11,0.3
			c-0.05,0.09-0.12,0.15-0.21,0.2c-0.08,0.05-0.18,0.07-0.3,0.07c-0.12,0-0.22-0.03-0.31-0.07c-0.08-0.05-0.15-0.12-0.21-0.2
			c-0.05-0.08-0.09-0.18-0.12-0.3c-0.02-0.11-0.04-0.24-0.04-0.36v-0.06c0-0.13,0.01-0.24,0.04-0.36c0.03-0.11,0.06-0.21,0.12-0.3
			c0.05-0.08,0.12-0.15,0.21-0.2c0.08-0.05,0.19-0.07,0.3-0.07c0.12,0,0.22,0.02,0.31,0.07c0.08,0.05,0.15,0.12,0.21,0.2
			c0.05,0.09,0.09,0.19,0.11,0.3c0.02,0.11,0.04,0.23,0.04,0.36V152.74z"/>
		<path d="M124.91,153.34c-0.02,0.05-0.05,0.09-0.09,0.13c-0.03,0.04-0.07,0.07-0.12,0.1c-0.05,0.03-0.11,0.06-0.18,0.07
			c-0.07,0.02-0.14,0.03-0.23,0.03c-0.09,0-0.17-0.01-0.24-0.03c-0.06-0.02-0.12-0.06-0.16-0.11c-0.04-0.05-0.07-0.12-0.09-0.21
			c-0.02-0.09-0.03-0.19-0.03-0.32v-1.84h-0.8v1.83c0,0.23,0.03,0.44,0.08,0.6c0.05,0.17,0.13,0.3,0.22,0.41
			c0.1,0.11,0.21,0.19,0.34,0.24c0.13,0.05,0.28,0.07,0.44,0.07c0.18,0,0.34-0.04,0.48-0.13c0.15-0.09,0.27-0.21,0.38-0.36
			l0.05,0.44h0.72v-3.1h-0.8V153.34z"/>
		<path d="M138.34,150.76c0.06,0.02,0.12,0.03,0.19,0.03c0.14,0,0.25-0.04,0.34-0.12c0.08-0.08,0.12-0.18,0.12-0.31
			c0-0.12-0.04-0.23-0.12-0.3c-0.08-0.08-0.2-0.12-0.34-0.12c-0.07,0-0.13,0.01-0.19,0.03c-0.06,0.02-0.1,0.05-0.14,0.08
			c-0.04,0.04-0.07,0.08-0.09,0.14s-0.03,0.11-0.03,0.17c0,0.06,0.01,0.12,0.03,0.17s0.05,0.1,0.09,0.13
			C138.24,150.71,138.28,150.74,138.34,150.76z"/>
		<polygon points="138.93,151.16 137.25,151.16 137.25,151.81 138.13,151.81 138.13,153.61 137.25,153.61 137.25,154.26 
			139.77,154.26 139.77,153.61 138.93,153.61 		"/>
		<polygon points="143.98,118.37 127.96,118.37 127.96,121.58 124.75,121.58 124.75,127.98 127.96,127.98 127.96,131.19 
			140.77,131.19 140.77,137.59 131.16,137.59 131.16,134.39 124.75,134.39 124.75,137.59 127.96,137.59 127.96,140.8 143.98,140.8 
			143.98,137.59 147.18,137.59 147.18,131.19 143.98,131.19 143.98,127.98 131.16,127.98 131.16,121.58 140.77,121.58 
			140.77,124.78 147.18,124.78 147.18,121.58 143.98,121.58 		"/>
		<path d="M197.61,135.47c-3.6-4.33-7.02-8.82-10.63-13.15c-6.28-7.56-11.87-15.58-16.57-24.23c-1.89-3.47-4.55-6.42-8.42-7.94
			c-1.32-3.63-4.46-4.85-7.77-5.05c-7.09-0.42-12.83-4.07-19.15-6.91c0-2.58-0.01-4.9,0-7.23c0.03-6,0.46-12.02,0-17.98
			c-0.55-7.19-3.75-13.34-9.42-17.97c-2.83-2.31-5.86-4.37-8.72-6.63c-3.05-2.41-6.16-2.89-9.71-1.01
			c-8.17,4.31-13.53,11.14-17.31,19.31c-2.96,6.41-2.88,13.2-1.74,20.04c0.37,2.24,0.47,4.53,0.67,6.6c-5.08,3-9.52,5.66-15.14,6.06
			c-3.87,0.28-7.75,1.35-11.11,3.92C55.1,89.01,48.5,95.47,44,103.84c-4.87,9.06-11.91,16.65-17.17,25.44
			c-0.42,0.7-0.97,1.4-1.62,1.89c-4.36,3.29-5.82,8.03-6.19,13.08c-0.24,3.26,0.24,6.6,0.66,9.86c0.31,2.4,2.01,3.84,4.36,4.18
			c3.28,0.46,6.59,0.82,9.89,0.99c2.66,0.14,5.17,0.34,7.76,1.37c2.55,1.01,5.51,1.49,8.24,1.35c2.05-0.11,3.9-0.02,5.75,0.7
			c2.12,0.83,4.11,1.16,6.06-0.5c1.9-1.61,4.34-1.39,6.05-0.25c2.33,1.55,4.71,1.46,7.17,1.48c7.5,0.05,14.99,0.03,22.49,0.02
			c16.83-0.03,33.65-0.05,50.47-0.13c4.61-0.02,5.9-1.32,6.24-5.82c0.07-0.94,0.14-1.89,0.23-3.02c0.72,0.29,1.24,0.38,1.6,0.67
			c2.75,2.23,5.49,4.36,9.42,3.47c0.53-0.12,1.23,0.41,1.84,0.68c3.2,1.39,6.45,1.25,9.78,0.52c1.43-0.31,3.08-0.68,4.41-0.28
			c5.8,1.76,11.15-0.52,16.61-1.62c2.02-0.41,3.74-1.94,3.93-4.09C202.55,147.26,202.12,140.89,197.61,135.47z M97.59,80.23
			c1.63,3.28,3.58,6.93,1.07,10.8c-0.04,0.06-0.23,0.02-0.34,0.03c-0.27-0.14-0.54-0.31-0.82-0.41c-0.1-0.03-0.26,0.12-0.69,0.35
			c0.04,7.08,7.36,9.25,10.21,14.72c-3.34,0-6.56,0-9.92,0c-2.03-3.74-3.83-7.09-5.66-10.42c-1.65-3-2.41-6.03-1.69-9.55
			c0.66-3.23,0.56-6.61,0.93-9.92c0.49-4.45,1.11-8.88,1.83-13.35C93.37,68.64,94.78,74.58,97.59,80.23z M96.69,54.56
			c2.75-4.95,6.6-7.86,11.97-8.76c2.02-0.34,4.51-0.4,6.25,0.48c5.36,2.71,10.32,6.08,12.98,11.84c0.47,1.03,0.76,2.15,1.04,2.95
			c-0.62,3.62-0.84,7-1.83,10.12c-1.45,4.56-3.14,9.1-5.32,13.34c-2.18,4.22-5.36,7.87-10.78,7.62c-5.64-0.27-8.61-4.52-10.41-8.94
			c-2.41-5.92-5.31-11.68-5.89-18.38C94.34,60.93,94.8,57.97,96.69,54.56z M99.03,94.6c0.92-2.16,1.69-3.97,2.54-5.98
			c2.9,2.64,5.78,5.73,10.02,5.54c3.96-0.17,6.97-2.75,9.94-5.72c0.59,2.15,1.09,3.98,1.62,5.96c-3.93,4.09-7.68,8-11.51,11.98
			C106.11,103.21,103.31,98.13,99.03,94.6z M121.78,98.2c2.76-2.77,5.06-5.41,1.79-9.39c-0.56-0.69-0.27-2.24-0.08-3.34
			c0.19-1.12,0.65-2.23,1.15-3.27c2.74-5.79,5.02-11.73,6.32-18.2c0.38,1.74,0.72,3.49,1.14,5.22c1.5,6.18,1.97,12.46,1.69,18.79
			c-0.07,1.44-0.28,3.09-1.06,4.23c-3.26,4.79-6.05,10.01-11.59,13.63c-1.73,0-3.55,0-6.34,0
			C117.43,102.95,119.5,100.48,121.78,98.2z M89.46,53.66c2.51-9.97,7.78-18.24,16.75-23.77c4.19-2.58,6.86-2.33,10.84,0.83
			c1.95,1.55,3.9,3.11,5.98,4.48c5.89,3.87,10.75,12.66,10.77,19.72c0.01,3.49,0,6.98,0,10.9c-2.05-3.84-3.72-7.27-5.65-10.55
			c-2.89-4.89-7.49-8.02-12.33-10.55c-4.65-2.43-13.65,0.18-17.41,4.38c-2.31,2.58-7.37,11.85-8.35,15.64
			C88.56,60.72,88.62,56.98,89.46,53.66z M66.77,112.02c0.08,6.16-0.07,12.33,0.06,18.49c0.07,3.42-0.11,6.64-2.7,9.25
			c-0.26,0.26-0.13,0.91-0.17,1.38c0.01,0,0.02-0.01,0.03-0.01c0,0.01,0,0.01,0,0.02c0.85-0.36,1.7-0.72,2.48-1.05
			c0,6.53,0,13.08,0,20.2c-2.61-0.85-4.76-1.56-6.92-2.27c-1.24-6.07-1.05-11.45,4.13-15.55c0.28-0.22,0.22-0.88,0.31-1.34
			c-0.01,0-0.02,0.01-0.03,0.01c0-0.01,0-0.01,0-0.02c-1.15,0.53-2.3,1.06-4.2,1.94c-6.67-3.52-13.81-7.28-20.96-11.04
			c1.91,2.86,4.15,5.07,7.48,5.89c1.26,0.31,2.45,1.01,3.59,1.67c2.99,1.71,5.94,3.5,9.14,5.4c-2.22,5.27-4.23,10.9,1.27,15.84
			c-1.16,1.74-2.34,0.8-3.61,0.51c-2.39-0.54-4.82-0.99-7.26-1.18c-2.97-0.23-5.79-0.71-8.71-1.55c-4.24-1.21-8.87-1.02-13.32-1.57
			c-1.89-0.23-3.74-0.8-5.09-1.09c-3.38-6.4-1.63-12.05-0.26-17.66c0.3-1.22,1.21-2.32,1.97-3.38c3.67-5.11,7.39-10.2,11.08-15.3
			c0.29-0.4,0.4-0.98,0.76-1.28c5.41-4.5,7.85-11.03,11.42-16.76c4.41-7.08,10.45-12.5,17.02-17.34c2.04-1.5,4.84-2.61,7.35-2.72
			c5.72-0.26,10.66-2.3,15.43-5.12c0.42-0.25,0.93-0.34,1.87-0.67c-0.23,2.66-0.28,5.12-0.7,7.51c-0.86,4.91-0.66,9.53,2.23,13.88
			c1.71,2.58,2.96,5.46,4.71,8.76c-8.97,0-17.26,0-24.8,0C67.14,107.37,66.74,109.52,66.77,112.02z M152.78,157.84
			c0.01,2.92-1.35,4.34-4.2,4.35c-25.28,0.07-50.56,0.15-75.83,0.18c-3.1,0-4.59-1.72-4.58-4.86c0.03-15.08,0.03-30.16,0-45.24
			c-0.01-3.3,1.33-4.71,4.83-4.66c12.53,0.16,25.05,0.06,37.58,0.06c0-0.05,0-0.1,0-0.15c12.53,0,25.06,0.07,37.59-0.05
			c3.28-0.03,4.63,1.21,4.62,4.47C152.73,127.24,152.74,142.54,152.78,157.84z M159.71,155.89c-1.79-1.18-3.42-2.6-5.35-4.08
			c0-5.61,0-10.9,0-16.41c2.85,0.47,4.33,2.61,6.33,3.97c2.02,1.37,4.41,2.19,6.81,3.33c2.17,2.35,2.85,5.35,2.35,8.62
			C169.08,156.33,163.93,158.66,159.71,155.89z M199.66,155.15c-6.26,2.86-25.45,4.4-31.44,2.48c4.55-4.96,4.95-10.26,0.97-15.7
			c6.88-1.82,9.63-3.78,12.12-9.13c-1.25,0.98-1.9,1.32-2.3,1.84c-3.01,3.87-7.27,5.1-11.83,5.25c-1.7,0.06-3.64-0.62-5.09-1.55
			c-2.64-1.68-4.99-3.8-7.91-6.09c0-6.35-0.03-13.17,0.02-19.98c0.02-2.43-0.13-4.71-3.16-6.22c-8.28,0-17.09,0-26.37,0
			c2.59-3.41,4.78-6.57,7.24-9.5c3.23-3.85,4.14-8.21,3.56-13.04c-0.1-0.82-0.1-1.64-0.18-2.98c1.58,0.63,2.87,1.12,4.14,1.66
			c4.56,1.95,8.96,4.09,14.11,4.57c2.9,0.27,5.64,2.2,8.45,3.4c0.24,0.57,0.33,1.32,0.76,1.66c4.29,3.4,6.76,8.11,9.58,12.64
			c3.23,5.21,6.93,10.13,10.48,15.14c2.4,3.39,4.82,6.76,7.36,10.04c1.42,1.83,2.99,3.58,4.69,5.16c4.93,4.62,5.66,10.68,5.87,16.89
			C200.75,152.9,199.98,154.15,199.66,155.15z"/>
		<path d="M136.06,153.61c-0.05,0.01-0.1,0.02-0.16,0.03c-0.06,0.01-0.12,0.02-0.18,0.02c-0.06,0.01-0.13,0.01-0.19,0.01
			c-0.08,0-0.16-0.01-0.23-0.03c-0.07-0.02-0.13-0.05-0.17-0.1c-0.05-0.04-0.08-0.1-0.11-0.18c-0.03-0.07-0.04-0.17-0.04-0.28v-1.33
			h1.16v-0.59h-1.16v-0.76h-0.8v0.76h-0.71v0.59h0.71v1.41c0,0.2,0.03,0.38,0.08,0.53c0.05,0.15,0.13,0.27,0.23,0.36
			c0.1,0.1,0.21,0.16,0.35,0.21c0.14,0.05,0.29,0.07,0.46,0.07c0.09,0,0.18,0,0.27-0.01c0.09-0.01,0.18-0.02,0.26-0.04
			c0.08-0.02,0.16-0.03,0.24-0.06c0.07-0.02,0.14-0.05,0.19-0.08l-0.08-0.55C136.15,153.59,136.11,153.6,136.06,153.61z"/>
		<path d="M146.53,151.39c-0.1-0.1-0.21-0.17-0.34-0.22c-0.13-0.05-0.27-0.07-0.43-0.07c-0.12,0-0.24,0.02-0.35,0.05
			c-0.11,0.03-0.21,0.08-0.3,0.15c-0.05,0.04-0.1,0.08-0.15,0.13c-0.05,0.05-0.09,0.1-0.13,0.16l-0.05-0.43h-0.72v3.1h0.8v-2.2
			c0.03-0.04,0.06-0.08,0.09-0.11c0.03-0.03,0.07-0.06,0.11-0.09c0.05-0.03,0.11-0.06,0.17-0.08c0.06-0.02,0.13-0.03,0.21-0.03
			c0.09,0,0.17,0.01,0.25,0.03c0.07,0.02,0.13,0.05,0.19,0.1c0.05,0.05,0.09,0.11,0.12,0.19c0.03,0.08,0.04,0.18,0.04,0.3v1.89h0.8
			v-1.91c0-0.23-0.03-0.42-0.08-0.57C146.7,151.62,146.63,151.49,146.53,151.39z"/>
		<path d="M142.98,151.56c-0.13-0.14-0.28-0.25-0.46-0.33c-0.18-0.08-0.39-0.12-0.62-0.12c-0.23,0-0.44,0.04-0.62,0.12
			c-0.18,0.08-0.33,0.19-0.46,0.33c-0.13,0.14-0.22,0.31-0.29,0.5c-0.07,0.19-0.1,0.4-0.1,0.62v0.06c0,0.23,0.03,0.44,0.1,0.63
			c0.06,0.19,0.16,0.36,0.29,0.5c0.12,0.14,0.28,0.25,0.46,0.33c0.18,0.08,0.39,0.12,0.62,0.12c0.23,0,0.44-0.04,0.62-0.12
			c0.18-0.08,0.33-0.19,0.46-0.33c0.12-0.14,0.22-0.31,0.28-0.5c0.07-0.19,0.1-0.4,0.1-0.63v-0.06c0-0.22-0.03-0.43-0.1-0.62
			C143.2,151.87,143.11,151.7,142.98,151.56z M142.57,152.74c0,0.13-0.01,0.25-0.04,0.36c-0.02,0.11-0.06,0.21-0.11,0.3
			c-0.05,0.09-0.12,0.15-0.21,0.2c-0.08,0.05-0.18,0.07-0.3,0.07c-0.12,0-0.22-0.03-0.31-0.07c-0.08-0.05-0.15-0.12-0.21-0.2
			c-0.05-0.08-0.09-0.18-0.12-0.3c-0.02-0.11-0.04-0.24-0.04-0.36v-0.06c0-0.13,0.01-0.24,0.04-0.36c0.03-0.11,0.06-0.21,0.12-0.3
			c0.05-0.08,0.12-0.15,0.21-0.2c0.08-0.05,0.19-0.07,0.3-0.07c0.12,0,0.22,0.02,0.31,0.07c0.08,0.05,0.15,0.12,0.21,0.2
			c0.05,0.09,0.09,0.19,0.11,0.3c0.02,0.11,0.04,0.23,0.04,0.36V152.74z"/>
		<path d="M127.24,152.33c0.02-0.11,0.06-0.21,0.1-0.29c0.05-0.09,0.11-0.15,0.19-0.21c0.08-0.05,0.19-0.08,0.31-0.08
			c0.09,0,0.17,0.01,0.24,0.04c0.07,0.03,0.13,0.07,0.19,0.12c0.05,0.05,0.09,0.11,0.12,0.18c0.03,0.07,0.04,0.14,0.03,0.22h0.75
			c0-0.18-0.03-0.35-0.09-0.5c-0.07-0.15-0.16-0.27-0.27-0.38c-0.12-0.1-0.26-0.18-0.42-0.24c-0.16-0.06-0.34-0.09-0.53-0.09
			c-0.24,0-0.45,0.04-0.63,0.12c-0.18,0.08-0.33,0.19-0.45,0.33c-0.12,0.14-0.21,0.31-0.27,0.5c-0.06,0.19-0.09,0.39-0.09,0.61v0.09
			c0,0.22,0.03,0.42,0.09,0.61s0.15,0.36,0.28,0.5c0.12,0.14,0.27,0.25,0.45,0.33c0.18,0.08,0.39,0.12,0.63,0.12
			c0.18,0,0.35-0.03,0.5-0.08c0.16-0.06,0.3-0.13,0.42-0.23c0.12-0.1,0.21-0.22,0.28-0.35c0.07-0.14,0.1-0.29,0.1-0.45h-0.75
			c0,0.07-0.01,0.14-0.04,0.2c-0.03,0.06-0.07,0.11-0.12,0.15c-0.05,0.04-0.12,0.07-0.19,0.1c-0.07,0.02-0.15,0.03-0.22,0.03
			c-0.13,0-0.23-0.03-0.32-0.08c-0.08-0.05-0.15-0.12-0.2-0.21c-0.05-0.08-0.08-0.18-0.1-0.29c-0.02-0.11-0.03-0.23-0.03-0.35v-0.09
			C127.21,152.55,127.22,152.44,127.24,152.33z"/>
		<path d="M132.62,153.52v-1.33c0-0.18-0.03-0.34-0.1-0.47c-0.07-0.14-0.16-0.25-0.28-0.34c-0.12-0.09-0.26-0.16-0.42-0.2
			c-0.16-0.05-0.34-0.07-0.52-0.07c-0.21,0-0.39,0.03-0.55,0.08c-0.16,0.05-0.3,0.12-0.41,0.21c-0.11,0.09-0.2,0.19-0.26,0.31
			c-0.06,0.12-0.09,0.24-0.09,0.37h0.8c0-0.06,0.01-0.11,0.02-0.15c0.02-0.05,0.04-0.08,0.08-0.12c0.04-0.04,0.09-0.07,0.15-0.08
			c0.06-0.02,0.13-0.03,0.22-0.03c0.09,0,0.18,0.01,0.25,0.04c0.07,0.02,0.13,0.06,0.18,0.1c0.05,0.04,0.08,0.09,0.1,0.15
			c0.02,0.06,0.03,0.12,0.03,0.2v0.18h-0.44c-0.23,0-0.43,0.02-0.61,0.06c-0.18,0.04-0.32,0.1-0.44,0.18
			c-0.13,0.09-0.23,0.2-0.3,0.33c-0.07,0.13-0.1,0.28-0.1,0.46c0,0.13,0.03,0.26,0.08,0.37c0.05,0.11,0.13,0.21,0.22,0.29
			s0.21,0.15,0.34,0.19c0.13,0.05,0.28,0.07,0.44,0.07c0.1,0,0.19-0.01,0.27-0.03c0.08-0.02,0.16-0.04,0.23-0.08
			c0.07-0.03,0.13-0.07,0.19-0.11c0.06-0.04,0.11-0.09,0.15-0.14c0.01,0.06,0.02,0.11,0.03,0.16c0.01,0.05,0.03,0.09,0.05,0.13h0.81
			v-0.05c-0.04-0.08-0.07-0.17-0.09-0.28C132.63,153.82,132.62,153.68,132.62,153.52z M131.82,153.38
			c-0.02,0.04-0.05,0.08-0.09,0.12c-0.04,0.04-0.09,0.07-0.14,0.1c-0.06,0.03-0.12,0.05-0.19,0.07c-0.07,0.02-0.14,0.03-0.22,0.03
			c-0.07,0-0.14-0.01-0.2-0.03c-0.06-0.02-0.1-0.04-0.14-0.07c-0.04-0.03-0.07-0.07-0.09-0.12c-0.02-0.05-0.03-0.1-0.03-0.15
			c0-0.07,0.01-0.14,0.04-0.2s0.07-0.11,0.12-0.16c0.06-0.04,0.13-0.07,0.21-0.1c0.09-0.02,0.19-0.04,0.32-0.04h0.41V153.38z"/>
	</g>
</g>
<g id="Text">
</g>
<g id="Layer_1">
</g>
</svg>
