<?xml version="1.0" encoding="utf-8"?>
<!-- Generator: Adobe Illustrator 24.1.3, SVG Export Plug-In . SVG Version: 6.00 Build 0)  -->
<svg version="1.1" id="Layer_1" xmlns="http://www.w3.org/2000/svg" x="0px"
     y="0px"
     viewBox="0 0 220 220" style="enable-background:new 0 0 220 220;" xml:space="preserve">
<style type="text/css">
	.st0{fill:#FFFFFF;}
</style>
    <g>
	<path class="st0" d="M81.47,148.63c-0.05-0.08-0.11-0.14-0.18-0.18c-0.07-0.04-0.16-0.07-0.27-0.07c-0.06,0-0.12,0.01-0.17,0.02
		s-0.1,0.03-0.14,0.05c-0.05,0.02-0.09,0.06-0.12,0.09c-0.03,0.04-0.06,0.08-0.09,0.13v1.2c0.02,0.05,0.05,0.09,0.08,0.13
		c0.03,0.04,0.07,0.07,0.11,0.1c0.04,0.02,0.09,0.04,0.14,0.06c0.05,0.01,0.11,0.02,0.18,0.02c0.1,0,0.19-0.02,0.27-0.07
		s0.13-0.11,0.18-0.19c0.05-0.08,0.08-0.17,0.1-0.28c0.02-0.11,0.03-0.22,0.03-0.34v-0.06c0-0.12-0.01-0.23-0.03-0.34
		C81.55,148.8,81.52,148.71,81.47,148.63z"/>
        <path class="st0" d="M117.53,148.55c-0.05-0.05-0.11-0.09-0.18-0.12s-0.15-0.04-0.25-0.04c-0.08,0-0.16,0.01-0.23,0.04
		c-0.07,0.03-0.13,0.07-0.18,0.13c-0.05,0.06-0.1,0.12-0.13,0.2c-0.04,0.08-0.06,0.16-0.08,0.26h1.21v-0.06
		c0-0.08-0.01-0.15-0.04-0.22S117.58,148.6,117.53,148.55z"/>
        <path class="st0" d="M120.31,148.39c-0.1,0-0.19,0.02-0.27,0.07s-0.13,0.11-0.18,0.19c-0.05,0.08-0.08,0.17-0.1,0.28
		s-0.03,0.22-0.03,0.34v0.06c0,0.12,0.01,0.23,0.03,0.34c0.02,0.1,0.05,0.19,0.1,0.27c0.05,0.08,0.11,0.14,0.18,0.18
		c0.07,0.04,0.16,0.07,0.27,0.07c0.13,0,0.23-0.03,0.32-0.08c0.08-0.05,0.15-0.13,0.2-0.23v-1.17c-0.05-0.1-0.12-0.17-0.2-0.23
		C120.54,148.41,120.43,148.39,120.31,148.39z"/>
        <path class="st0" d="M78.22,148.64c-0.05-0.08-0.11-0.14-0.19-0.19c-0.08-0.05-0.17-0.07-0.29-0.07c-0.11,0-0.2,0.02-0.28,0.07
		c-0.08,0.05-0.14,0.11-0.19,0.19c-0.05,0.08-0.09,0.17-0.11,0.28c-0.02,0.11-0.03,0.22-0.03,0.33v0.06c0,0.12,0.01,0.23,0.03,0.34
		c0.02,0.11,0.06,0.2,0.11,0.28c0.05,0.08,0.11,0.14,0.19,0.19s0.17,0.07,0.29,0.07c0.11,0,0.2-0.02,0.28-0.07
		c0.08-0.05,0.14-0.11,0.19-0.19c0.05-0.08,0.08-0.17,0.11-0.28c0.02-0.11,0.03-0.22,0.03-0.34v-0.06c0-0.12-0.01-0.23-0.03-0.33
		C78.3,148.82,78.27,148.72,78.22,148.64z"/>
        <path class="st0" d="M84.78,148.55c-0.05-0.05-0.11-0.09-0.18-0.12s-0.15-0.04-0.25-0.04c-0.08,0-0.16,0.01-0.23,0.04
		c-0.07,0.03-0.13,0.07-0.18,0.13c-0.05,0.06-0.1,0.12-0.13,0.2c-0.04,0.08-0.06,0.16-0.08,0.26h1.21v-0.06
		c0-0.08-0.01-0.15-0.04-0.22S84.83,148.6,84.78,148.55z"/>
        <path class="st0" d="M140.45,148.64c-0.05-0.08-0.11-0.14-0.19-0.19c-0.08-0.05-0.17-0.07-0.29-0.07c-0.11,0-0.2,0.02-0.28,0.07
		c-0.08,0.05-0.14,0.11-0.19,0.19c-0.05,0.08-0.09,0.17-0.11,0.28c-0.02,0.11-0.03,0.22-0.03,0.33v0.06c0,0.12,0.01,0.23,0.03,0.34
		c0.02,0.11,0.06,0.2,0.11,0.28c0.05,0.08,0.11,0.14,0.19,0.19s0.17,0.07,0.29,0.07c0.11,0,0.2-0.02,0.28-0.07
		c0.08-0.05,0.14-0.11,0.19-0.19c0.05-0.08,0.08-0.17,0.11-0.28c0.02-0.11,0.03-0.22,0.03-0.34v-0.06c0-0.12-0.01-0.23-0.03-0.33
		C140.53,148.82,140.5,148.72,140.45,148.64z"/>
        <path class="st0" d="M110.98,148.55c-0.05-0.05-0.11-0.09-0.18-0.12s-0.15-0.04-0.25-0.04c-0.08,0-0.16,0.01-0.23,0.04
		c-0.07,0.03-0.13,0.07-0.18,0.13c-0.05,0.06-0.1,0.12-0.13,0.2c-0.04,0.08-0.06,0.16-0.08,0.26h1.21v-0.06
		c0-0.08-0.01-0.15-0.04-0.22S111.03,148.6,110.98,148.55z"/>
        <path class="st0" d="M129.91,149.44c-0.08,0.02-0.15,0.05-0.2,0.09c-0.05,0.04-0.09,0.09-0.11,0.15s-0.04,0.12-0.04,0.18
		c0,0.05,0.01,0.1,0.03,0.14c0.02,0.04,0.05,0.08,0.08,0.11c0.04,0.03,0.08,0.05,0.13,0.07c0.05,0.02,0.11,0.03,0.18,0.03
		c0.07,0,0.14-0.01,0.21-0.03c0.06-0.02,0.12-0.04,0.17-0.07c0.05-0.03,0.1-0.06,0.13-0.1s0.07-0.07,0.09-0.11v-0.5h-0.38
		C130.09,149.4,129.99,149.41,129.91,149.44z"/>
        <path class="st0" d="M192.21,132.94c-3.38-4.06-6.59-8.27-9.97-12.34c-5.89-7.09-11.13-14.61-15.54-22.73
		c-1.77-3.25-4.27-6.02-7.9-7.45c-1.24-3.4-4.18-4.55-7.29-4.73c-6.65-0.39-12.03-3.82-17.96-6.48c0-2.42-0.01-4.6,0-6.78
		c0.03-5.62,0.43-11.28,0-16.87c-0.52-6.74-3.51-12.51-8.84-16.86c-2.65-2.17-5.49-4.1-8.18-6.22c-2.86-2.26-5.77-2.71-9.11-0.95
		C99.77,35.59,94.74,42,91.2,49.66c-2.78,6.01-2.7,12.38-1.63,18.8c0.35,2.1,0.44,4.25,0.63,6.19c-4.77,2.81-8.93,5.31-14.2,5.69
		c-3.63,0.26-7.27,1.27-10.42,3.67c-7.03,5.36-13.22,11.42-17.44,19.28c-4.57,8.5-11.17,15.62-16.11,23.87
		c-0.4,0.66-0.91,1.31-1.52,1.77c-4.09,3.08-5.46,7.53-5.8,12.27c-0.22,3.06,0.22,6.19,0.62,9.25c0.29,2.25,1.89,3.61,4.09,3.92
		c3.08,0.44,6.18,0.77,9.28,0.93c2.5,0.13,4.85,0.32,7.28,1.28c2.39,0.95,5.17,1.4,7.73,1.26c1.92-0.1,3.66-0.02,5.39,0.66
		c1.99,0.78,3.86,1.09,5.69-0.46c1.78-1.51,4.07-1.31,5.68-0.24c2.18,1.45,4.42,1.37,6.72,1.39c7.03,0.04,14.06,0.03,21.09,0.01
		c15.78-0.03,31.56-0.04,47.34-0.12c4.32-0.02,5.54-1.24,5.85-5.46c0.07-0.88,0.14-1.77,0.22-2.83c0.68,0.28,1.16,0.36,1.5,0.63
		c2.58,2.09,5.15,4.09,8.84,3.26c0.5-0.11,1.15,0.39,1.72,0.63c3,1.3,6.05,1.17,9.17,0.49c1.34-0.29,2.89-0.64,4.13-0.26
		c5.44,1.65,10.46-0.49,15.58-1.52c1.9-0.38,3.51-1.82,3.68-3.84C196.84,144.01,196.44,138.03,192.21,132.94z M121.07,85.17
		c-2.04,3.96-5.03,7.39-10.11,7.14c-5.29-0.25-8.08-4.24-9.77-8.39c-2.26-5.55-4.98-10.96-5.53-17.24
		c-0.32-3.67,0.11-6.44,1.88-9.64c2.58-4.64,6.19-7.37,11.22-8.22c1.9-0.32,4.23-0.37,5.86,0.45c5.03,2.54,9.68,5.7,12.17,11.1
		c0.45,0.97,0.71,2.01,0.98,2.77c-0.59,3.4-0.79,6.56-1.72,9.49C124.71,76.94,123.13,81.2,121.07,85.17z M122.37,94.42
		c-3.69,3.84-7.2,7.5-10.79,11.24c-5.19-2.97-7.82-7.73-11.83-11.05c0.86-2.03,1.58-3.72,2.38-5.61c2.72,2.48,5.42,5.37,9.39,5.2
		c3.72-0.16,6.54-2.58,9.32-5.36C121.4,90.85,121.87,92.57,122.37,94.42z M98.39,81.13c1.53,3.08,3.36,6.5,1.01,10.13
		c-0.04,0.06-0.21,0.02-0.32,0.03c-0.26-0.13-0.5-0.29-0.77-0.38c-0.09-0.03-0.24,0.12-0.65,0.33c0.04,6.64,6.91,8.68,9.58,13.81
		c-3.13,0-6.16,0-9.31,0c-1.9-3.5-3.59-6.65-5.31-9.78c-1.55-2.81-2.26-5.66-1.59-8.96c0.61-3.03,0.52-6.2,0.87-9.3
		c0.46-4.17,1.04-8.33,1.72-12.52C94.44,70.27,95.76,75.84,98.39,81.13z M100.13,117.3h17.9v2.98h2.98v8.95h-2.98v2.98H106.1v5.97
		h-5.97V117.3z M120.48,105.17c-1.63,0-3.33,0-5.94,0c2.46-2.72,4.41-5.04,6.55-7.18c2.59-2.6,4.75-5.08,1.68-8.81
		c-0.53-0.65-0.25-2.1-0.08-3.13c0.18-1.05,0.61-2.09,1.08-3.07c2.57-5.43,4.7-11,5.93-17.07c0.36,1.63,0.68,3.27,1.07,4.89
		c1.41,5.8,1.85,11.69,1.58,17.62c-0.06,1.35-0.27,2.9-0.99,3.96C128.29,96.88,125.68,101.78,120.48,105.17z M90.77,56.21
		c2.36-9.35,7.3-17.11,15.71-22.3c3.93-2.42,6.43-2.18,10.17,0.77c1.83,1.45,3.66,2.92,5.61,4.2c5.53,3.63,10.08,11.87,10.11,18.5
		c0.01,3.28,0,6.55,0,10.23c-1.92-3.61-3.49-6.82-5.3-9.89c-2.71-4.59-7.03-7.53-11.56-9.89c-4.37-2.28-12.81,0.17-16.33,4.11
		C97,54.36,92.25,63.05,91.33,66.6C89.93,62.84,89.98,59.33,90.77,56.21z M69.22,156.24c-2.44-0.8-4.46-1.46-6.49-2.13
		c-1.16-5.69-0.98-10.74,3.87-14.58c0.26-0.21,0.2-0.82,0.29-1.26c0.8-0.34,1.6-0.68,2.33-0.99
		C69.22,143.41,69.22,149.56,69.22,156.24z M69.49,110.95c0.08,5.78-0.06,11.56,0.06,17.34c0.07,3.21-0.1,6.23-2.53,8.68
		c-0.24,0.24-0.12,0.85-0.16,1.3c-1.08,0.5-2.16,1-3.94,1.82c-6.26-3.3-12.96-6.83-19.65-10.36c1.79,2.69,3.89,4.76,7.01,5.53
		c1.18,0.29,2.3,0.95,3.37,1.56c2.8,1.61,5.57,3.28,8.57,5.06c-2.08,4.94-3.97,10.22,1.19,14.85c-1.09,1.63-2.2,0.75-3.38,0.48
		c-2.24-0.51-4.52-0.93-6.81-1.11c-2.79-0.22-5.43-0.67-8.17-1.45c-3.98-1.14-8.32-0.96-12.49-1.47c-1.77-0.22-3.51-0.75-4.78-1.03
		c-3.17-6-1.53-11.31-0.25-16.57c0.28-1.14,1.14-2.17,1.85-3.17c3.44-4.8,6.93-9.56,10.39-14.35c0.27-0.38,0.38-0.92,0.71-1.2
		c5.07-4.22,7.36-10.35,10.71-15.72c4.14-6.64,9.8-11.72,15.96-16.26c1.91-1.41,4.54-2.45,6.89-2.56c5.36-0.25,10-2.16,14.48-4.8
		c0.39-0.23,0.87-0.32,1.76-0.63c-0.22,2.49-0.26,4.8-0.65,7.04c-0.81,4.61-0.62,8.94,2.09,13.02c1.61,2.42,2.78,5.12,4.42,8.21
		c-8.41,0-16.18,0-23.26,0C69.84,106.6,69.46,108.61,69.49,110.95z M79.1,149.31c0,0.21-0.03,0.41-0.09,0.58s-0.15,0.33-0.26,0.46
		c-0.12,0.13-0.26,0.23-0.43,0.31c-0.17,0.07-0.36,0.11-0.58,0.11c-0.22,0-0.41-0.04-0.58-0.11c-0.17-0.07-0.31-0.18-0.43-0.31
		c-0.12-0.13-0.21-0.29-0.27-0.46c-0.06-0.18-0.09-0.37-0.09-0.58v-0.06c0-0.21,0.03-0.4,0.09-0.58c0.06-0.18,0.15-0.33,0.27-0.46
		c0.12-0.13,0.26-0.23,0.42-0.31c0.17-0.07,0.36-0.11,0.58-0.11s0.41,0.04,0.58,0.11c0.17,0.08,0.31,0.18,0.43,0.31
		c0.12,0.13,0.2,0.29,0.26,0.46s0.09,0.37,0.09,0.58V149.31z M76.26,135.2v-17.9h5.97v11.93h2.98V117.3h2.98v11.93h2.98V117.3h5.97
		v17.9h-2.98v2.98h-2.98v-2.98h-2.98v-2.98h-2.98v2.98h-2.98v2.98h-2.98v-2.98H76.26z M82.35,149.31c0,0.21-0.02,0.4-0.07,0.58
		c-0.05,0.18-0.12,0.33-0.21,0.46c-0.1,0.13-0.21,0.24-0.35,0.31c-0.14,0.07-0.3,0.11-0.48,0.11c-0.1,0-0.18-0.01-0.27-0.03
		c-0.08-0.02-0.16-0.05-0.23-0.09c-0.04-0.03-0.08-0.05-0.12-0.08s-0.07-0.06-0.11-0.1v1.36h-0.74v-3.99h0.69l0.03,0.28
		c0.04-0.05,0.08-0.09,0.13-0.13c0.05-0.04,0.1-0.07,0.15-0.1c0.06-0.03,0.13-0.06,0.21-0.08c0.08-0.02,0.16-0.03,0.25-0.03
		c0.18,0,0.34,0.04,0.49,0.11c0.14,0.07,0.26,0.17,0.35,0.3c0.1,0.13,0.17,0.28,0.22,0.46s0.07,0.38,0.07,0.6V149.31z M85.66,149.52
		h-1.96v0.01c0.02,0.12,0.06,0.21,0.1,0.28s0.09,0.13,0.16,0.19c0.07,0.06,0.14,0.1,0.23,0.14c0.09,0.03,0.18,0.05,0.29,0.05
		c0.15,0,0.29-0.03,0.42-0.08c0.14-0.05,0.25-0.14,0.33-0.25l0.37,0.4c-0.09,0.13-0.24,0.25-0.45,0.36
		c-0.2,0.11-0.45,0.16-0.72,0.16c-0.22,0-0.42-0.04-0.6-0.11c-0.18-0.07-0.34-0.17-0.47-0.3c-0.13-0.12-0.23-0.27-0.3-0.44
		c-0.07-0.17-0.11-0.35-0.11-0.54v-0.11c0-0.22,0.03-0.42,0.1-0.6c0.07-0.18,0.17-0.34,0.29-0.47c0.12-0.13,0.27-0.23,0.44-0.31
		c0.17-0.07,0.36-0.11,0.56-0.11c0.21,0,0.39,0.03,0.56,0.1s0.3,0.17,0.41,0.29c0.11,0.12,0.2,0.27,0.26,0.45s0.09,0.37,0.09,0.58
		V149.52z M88.88,150.72h-0.74v-1.76c0-0.11-0.01-0.21-0.04-0.28c-0.03-0.07-0.06-0.13-0.11-0.17c-0.05-0.04-0.11-0.07-0.17-0.09
		c-0.07-0.02-0.14-0.03-0.23-0.03c-0.07,0-0.14,0.01-0.2,0.02c-0.06,0.02-0.11,0.04-0.16,0.07c-0.04,0.02-0.07,0.05-0.1,0.08
		c-0.03,0.03-0.06,0.07-0.08,0.11v2.05h-0.74v-2.88h0.67l0.05,0.4c0.04-0.05,0.08-0.1,0.12-0.15c0.04-0.04,0.09-0.08,0.14-0.12
		c0.09-0.06,0.18-0.11,0.28-0.14s0.21-0.05,0.32-0.05c0.15,0,0.28,0.02,0.4,0.06c0.12,0.04,0.23,0.11,0.31,0.2
		c0.09,0.09,0.16,0.21,0.2,0.36s0.07,0.33,0.07,0.54V150.72z M92.18,149.31h-2.22v-0.6h2.22V149.31z M95.35,150.25
		c-0.06,0.11-0.15,0.2-0.26,0.28c-0.11,0.08-0.25,0.14-0.41,0.18c-0.16,0.04-0.34,0.07-0.54,0.07c-0.22,0-0.41-0.03-0.57-0.08
		c-0.17-0.06-0.31-0.13-0.42-0.22c-0.11-0.09-0.2-0.19-0.25-0.31s-0.09-0.23-0.09-0.35h0.71c0.01,0.08,0.03,0.15,0.06,0.2
		c0.04,0.06,0.09,0.1,0.14,0.13c0.06,0.04,0.13,0.06,0.2,0.08s0.15,0.02,0.23,0.02c0.1,0,0.18-0.01,0.25-0.03
		c0.07-0.02,0.13-0.04,0.18-0.07c0.04-0.03,0.08-0.06,0.1-0.1c0.02-0.04,0.03-0.08,0.03-0.12c0-0.04-0.01-0.08-0.03-0.12
		c-0.02-0.03-0.06-0.07-0.11-0.1c-0.05-0.03-0.12-0.05-0.21-0.08c-0.09-0.02-0.2-0.05-0.33-0.07c-0.17-0.03-0.32-0.08-0.46-0.13
		c-0.14-0.05-0.26-0.11-0.36-0.18c-0.1-0.07-0.18-0.15-0.23-0.25c-0.06-0.09-0.08-0.2-0.08-0.33c0-0.12,0.03-0.23,0.09-0.34
		c0.06-0.11,0.14-0.2,0.25-0.29c0.11-0.08,0.24-0.15,0.39-0.2c0.15-0.05,0.33-0.07,0.52-0.07c0.2,0,0.38,0.02,0.54,0.07
		c0.16,0.05,0.3,0.11,0.41,0.19c0.11,0.08,0.19,0.18,0.25,0.3c0.06,0.11,0.09,0.24,0.09,0.37h-0.74c0-0.05-0.01-0.09-0.02-0.13
		c-0.02-0.04-0.04-0.08-0.07-0.11c-0.04-0.04-0.1-0.08-0.18-0.11c-0.08-0.03-0.17-0.04-0.27-0.04c-0.09,0-0.17,0.01-0.24,0.03
		c-0.07,0.02-0.12,0.04-0.17,0.07c-0.04,0.03-0.07,0.06-0.09,0.1s-0.03,0.08-0.03,0.12c0,0.04,0.01,0.08,0.03,0.12
		s0.05,0.07,0.1,0.1c0.04,0.03,0.11,0.06,0.18,0.08c0.08,0.02,0.18,0.04,0.3,0.06c0.17,0.03,0.34,0.06,0.49,0.11
		c0.15,0.04,0.28,0.1,0.39,0.17c0.11,0.07,0.19,0.16,0.25,0.26c0.06,0.1,0.09,0.22,0.09,0.36
		C95.44,150.03,95.41,150.14,95.35,150.25z M98.75,149.31c0,0.21-0.03,0.41-0.09,0.58s-0.15,0.33-0.26,0.46
		c-0.12,0.13-0.26,0.23-0.43,0.31c-0.17,0.07-0.36,0.11-0.58,0.11c-0.22,0-0.41-0.04-0.58-0.11c-0.17-0.07-0.31-0.18-0.43-0.31
		c-0.12-0.13-0.21-0.29-0.27-0.46c-0.06-0.18-0.09-0.37-0.09-0.58v-0.06c0-0.21,0.03-0.4,0.09-0.58c0.06-0.18,0.15-0.33,0.27-0.46
		c0.12-0.13,0.26-0.23,0.42-0.31c0.17-0.07,0.36-0.11,0.58-0.11s0.41,0.04,0.58,0.11c0.17,0.08,0.31,0.18,0.43,0.31
		c0.12,0.13,0.2,0.29,0.26,0.46s0.09,0.37,0.09,0.58V149.31z M101.96,150.72h-0.67l-0.04-0.41c-0.1,0.14-0.22,0.26-0.35,0.34
		c-0.14,0.08-0.29,0.12-0.45,0.12c-0.15,0-0.29-0.02-0.41-0.07c-0.12-0.05-0.23-0.12-0.32-0.22c-0.09-0.1-0.16-0.23-0.21-0.38
		s-0.07-0.34-0.07-0.56v-1.71h0.74v1.71c0,0.12,0.01,0.22,0.03,0.3c0.02,0.08,0.04,0.14,0.08,0.19c0.04,0.05,0.09,0.08,0.15,0.11
		c0.06,0.02,0.13,0.03,0.22,0.03c0.08,0,0.15-0.01,0.21-0.02s0.12-0.04,0.17-0.07c0.04-0.03,0.08-0.06,0.11-0.1
		c0.03-0.04,0.06-0.08,0.08-0.13v-2.02h0.74V150.72z M105.19,148.59c-0.1-0.02-0.2-0.04-0.3-0.05c-0.1-0.01-0.2-0.02-0.29-0.02
		c-0.1,0-0.18,0.01-0.26,0.03c-0.08,0.02-0.15,0.04-0.21,0.08c-0.07,0.04-0.14,0.09-0.19,0.15c-0.05,0.06-0.09,0.13-0.13,0.21v1.73
		h-0.74v-2.88h0.69l0.03,0.41l0.01,0.06c0.12-0.16,0.26-0.29,0.42-0.38c0.16-0.09,0.34-0.14,0.54-0.14c0.11,0,0.22,0.01,0.31,0.02
		s0.17,0.03,0.23,0.05L105.19,148.59z M106.66,149.65c0.02,0.1,0.05,0.2,0.1,0.27c0.04,0.08,0.1,0.14,0.18,0.19
		c0.08,0.05,0.18,0.07,0.29,0.07c0.07,0,0.14-0.01,0.21-0.03c0.07-0.02,0.12-0.05,0.17-0.09s0.09-0.09,0.12-0.14
		c0.03-0.06,0.04-0.12,0.04-0.18h0.7c0,0.15-0.03,0.29-0.09,0.42s-0.15,0.24-0.27,0.33c-0.11,0.09-0.24,0.17-0.39,0.22
		c-0.15,0.05-0.3,0.08-0.47,0.08c-0.22,0-0.42-0.04-0.59-0.11c-0.17-0.08-0.31-0.18-0.42-0.31c-0.11-0.13-0.2-0.29-0.26-0.46
		s-0.09-0.37-0.09-0.57v-0.08c0-0.2,0.03-0.39,0.08-0.57c0.06-0.18,0.14-0.33,0.26-0.46c0.11-0.13,0.25-0.24,0.42-0.31
		s0.36-0.11,0.58-0.11c0.18,0,0.34,0.03,0.49,0.08c0.15,0.05,0.28,0.13,0.39,0.22c0.11,0.1,0.19,0.21,0.25,0.35
		c0.06,0.14,0.09,0.29,0.08,0.46h-0.7c0-0.07-0.01-0.14-0.03-0.2c-0.02-0.06-0.06-0.12-0.11-0.17c-0.05-0.05-0.11-0.08-0.17-0.11
		c-0.07-0.03-0.14-0.04-0.22-0.04c-0.12,0-0.21,0.02-0.29,0.07c-0.08,0.05-0.14,0.11-0.18,0.19c-0.05,0.08-0.08,0.17-0.1,0.27
		s-0.03,0.21-0.03,0.32v0.08C106.64,149.43,106.65,149.54,106.66,149.65z M111.87,149.52h-1.96v0.01c0.02,0.12,0.06,0.21,0.1,0.28
		s0.09,0.13,0.16,0.19c0.07,0.06,0.14,0.1,0.23,0.14c0.09,0.03,0.18,0.05,0.29,0.05c0.15,0,0.29-0.03,0.42-0.08
		c0.14-0.05,0.25-0.14,0.33-0.25l0.37,0.4c-0.09,0.13-0.24,0.25-0.45,0.36c-0.2,0.11-0.45,0.16-0.72,0.16
		c-0.22,0-0.42-0.04-0.6-0.11c-0.18-0.07-0.34-0.17-0.47-0.3c-0.13-0.12-0.23-0.27-0.3-0.44c-0.07-0.17-0.11-0.35-0.11-0.54v-0.11
		c0-0.22,0.03-0.42,0.1-0.6c0.07-0.18,0.17-0.34,0.29-0.47c0.12-0.13,0.27-0.23,0.44-0.31c0.17-0.07,0.36-0.11,0.56-0.11
		c0.21,0,0.39,0.03,0.56,0.1s0.3,0.17,0.41,0.29c0.11,0.12,0.2,0.27,0.26,0.45s0.09,0.37,0.09,0.58V149.52z M118.42,149.52h-1.96
		v0.01c0.02,0.12,0.06,0.21,0.1,0.28s0.09,0.13,0.16,0.19c0.07,0.06,0.14,0.1,0.23,0.14c0.09,0.03,0.18,0.05,0.29,0.05
		c0.15,0,0.29-0.03,0.42-0.08c0.14-0.05,0.25-0.14,0.33-0.25l0.37,0.4c-0.09,0.13-0.24,0.25-0.45,0.36
		c-0.2,0.11-0.45,0.16-0.72,0.16c-0.22,0-0.42-0.04-0.6-0.11c-0.18-0.07-0.34-0.17-0.47-0.3c-0.13-0.12-0.23-0.27-0.3-0.44
		c-0.07-0.17-0.11-0.35-0.11-0.54v-0.11c0-0.22,0.03-0.42,0.1-0.6c0.07-0.18,0.17-0.34,0.29-0.47c0.12-0.13,0.27-0.23,0.44-0.31
		c0.17-0.07,0.36-0.11,0.56-0.11c0.21,0,0.39,0.03,0.56,0.1s0.3,0.17,0.41,0.29c0.11,0.12,0.2,0.27,0.26,0.45s0.09,0.37,0.09,0.58
		V149.52z M121.56,150.72h-0.67l-0.04-0.3c-0.09,0.11-0.2,0.2-0.32,0.26s-0.26,0.09-0.43,0.09c-0.18,0-0.33-0.04-0.47-0.11
		c-0.14-0.07-0.26-0.17-0.35-0.3c-0.1-0.13-0.17-0.28-0.22-0.46c-0.05-0.18-0.08-0.37-0.08-0.58v-0.06c0-0.22,0.03-0.42,0.08-0.6
		c0.05-0.18,0.12-0.34,0.22-0.47c0.1-0.13,0.22-0.23,0.36-0.3s0.3-0.11,0.48-0.11c0.15,0,0.28,0.03,0.4,0.08
		c0.11,0.05,0.22,0.13,0.31,0.23v-1.47h0.74V150.72z M124.89,150.72h-0.67l-0.04-0.41c-0.1,0.14-0.22,0.26-0.35,0.34
		c-0.14,0.08-0.29,0.12-0.45,0.12c-0.15,0-0.29-0.02-0.41-0.07c-0.12-0.05-0.23-0.12-0.32-0.22c-0.09-0.1-0.16-0.23-0.21-0.38
		s-0.07-0.34-0.07-0.56v-1.71h0.74v1.71c0,0.12,0.01,0.22,0.03,0.3c0.02,0.08,0.04,0.14,0.08,0.19c0.04,0.05,0.09,0.08,0.15,0.11
		c0.06,0.02,0.13,0.03,0.22,0.03c0.08,0,0.15-0.01,0.21-0.02s0.12-0.04,0.17-0.07c0.04-0.03,0.08-0.06,0.11-0.1
		c0.03-0.04,0.06-0.08,0.08-0.13v-2.02h0.74V150.72z M126.31,149.65c0.02,0.1,0.05,0.2,0.1,0.27c0.04,0.08,0.1,0.14,0.18,0.19
		c0.08,0.05,0.18,0.07,0.29,0.07c0.07,0,0.14-0.01,0.21-0.03c0.07-0.02,0.12-0.05,0.17-0.09s0.09-0.09,0.12-0.14
		c0.03-0.06,0.04-0.12,0.04-0.18h0.7c0,0.15-0.03,0.29-0.09,0.42s-0.15,0.24-0.27,0.33c-0.11,0.09-0.24,0.17-0.39,0.22
		c-0.15,0.05-0.3,0.08-0.47,0.08c-0.22,0-0.42-0.04-0.59-0.11c-0.17-0.08-0.31-0.18-0.42-0.31c-0.11-0.13-0.2-0.29-0.26-0.46
		s-0.09-0.37-0.09-0.57v-0.08c0-0.2,0.03-0.39,0.08-0.57c0.06-0.18,0.14-0.33,0.26-0.46c0.11-0.13,0.25-0.24,0.42-0.31
		s0.36-0.11,0.58-0.11c0.18,0,0.34,0.03,0.49,0.08c0.15,0.05,0.28,0.13,0.39,0.22c0.11,0.1,0.19,0.21,0.25,0.35
		c0.06,0.14,0.09,0.29,0.08,0.46h-0.7c0-0.07-0.01-0.14-0.03-0.2c-0.02-0.06-0.06-0.12-0.11-0.17c-0.05-0.05-0.11-0.08-0.17-0.11
		c-0.07-0.03-0.14-0.04-0.22-0.04c-0.12,0-0.21,0.02-0.29,0.07c-0.08,0.05-0.14,0.11-0.18,0.19c-0.05,0.08-0.08,0.17-0.1,0.27
		s-0.03,0.21-0.03,0.32v0.08C126.29,149.43,126.3,149.54,126.31,149.65z M131.44,150.72h-0.75c-0.02-0.04-0.03-0.08-0.05-0.12
		c-0.01-0.05-0.02-0.09-0.03-0.15c-0.04,0.04-0.09,0.09-0.14,0.13c-0.05,0.04-0.11,0.07-0.18,0.1c-0.07,0.03-0.14,0.05-0.22,0.07
		c-0.08,0.02-0.16,0.03-0.25,0.03c-0.15,0-0.28-0.02-0.41-0.06s-0.23-0.1-0.32-0.18s-0.16-0.17-0.21-0.27
		c-0.05-0.11-0.07-0.22-0.07-0.35c0-0.16,0.03-0.3,0.09-0.42c0.06-0.12,0.16-0.23,0.28-0.31c0.11-0.07,0.25-0.13,0.41-0.17
		c0.16-0.04,0.35-0.06,0.57-0.06h0.41v-0.17c0-0.07-0.01-0.13-0.03-0.18c-0.02-0.05-0.05-0.1-0.1-0.14
		c-0.04-0.04-0.1-0.07-0.17-0.09c-0.07-0.02-0.14-0.03-0.23-0.03c-0.08,0-0.15,0.01-0.2,0.03c-0.06,0.02-0.1,0.04-0.14,0.08
		c-0.03,0.03-0.06,0.07-0.07,0.11c-0.02,0.04-0.02,0.09-0.02,0.14h-0.74c0-0.12,0.03-0.24,0.08-0.35c0.05-0.11,0.13-0.21,0.24-0.29
		c0.1-0.08,0.23-0.15,0.38-0.2c0.15-0.05,0.32-0.07,0.52-0.07c0.17,0,0.34,0.02,0.49,0.06c0.15,0.04,0.28,0.11,0.39,0.19
		c0.11,0.08,0.2,0.19,0.26,0.32c0.06,0.13,0.09,0.27,0.09,0.44v1.24c0,0.15,0.01,0.28,0.03,0.38s0.05,0.19,0.09,0.26V150.72z
		 M134.54,150.68c-0.07,0.02-0.14,0.04-0.22,0.05c-0.08,0.01-0.16,0.03-0.24,0.03s-0.17,0.01-0.25,0.01c-0.16,0-0.3-0.02-0.43-0.06
		s-0.24-0.11-0.33-0.2c-0.09-0.09-0.16-0.2-0.21-0.33c-0.05-0.14-0.07-0.3-0.07-0.49v-1.31h-0.66v-0.55h0.66v-0.71h0.74v0.71h1.08
		v0.55h-1.08v1.24c0,0.1,0.01,0.19,0.04,0.26c0.02,0.07,0.06,0.13,0.1,0.17c0.04,0.04,0.1,0.07,0.16,0.09s0.13,0.03,0.21,0.03
		c0.06,0,0.11,0,0.17-0.01c0.06-0.01,0.12-0.01,0.17-0.02c0.05-0.01,0.1-0.01,0.15-0.02c0.05-0.01,0.09-0.02,0.12-0.03l0.07,0.51
		C134.67,150.63,134.61,150.66,134.54,150.68z M137.98,150.72h-2.35v-0.6h0.82v-1.68h-0.82v-0.61h1.57v2.28h0.78V150.72z
		 M136.4,147.1c0-0.06,0.01-0.11,0.03-0.16s0.05-0.09,0.09-0.13c0.04-0.03,0.08-0.06,0.13-0.08s0.11-0.03,0.17-0.03
		c0.13,0,0.24,0.04,0.31,0.11c0.08,0.07,0.12,0.17,0.12,0.28c0,0.12-0.04,0.21-0.12,0.28c-0.08,0.07-0.18,0.11-0.31,0.11
		c-0.06,0-0.12-0.01-0.17-0.03s-0.1-0.05-0.13-0.08c-0.04-0.03-0.07-0.08-0.09-0.12S136.4,147.16,136.4,147.1z M141.33,149.31
		c0,0.21-0.03,0.41-0.09,0.58s-0.15,0.33-0.26,0.46c-0.12,0.13-0.26,0.23-0.43,0.31c-0.17,0.07-0.36,0.11-0.58,0.11
		c-0.22,0-0.41-0.04-0.58-0.11c-0.17-0.07-0.31-0.18-0.43-0.31c-0.12-0.13-0.21-0.29-0.27-0.46c-0.06-0.18-0.09-0.37-0.09-0.58
		v-0.06c0-0.21,0.03-0.4,0.09-0.58c0.06-0.18,0.15-0.33,0.27-0.46c0.12-0.13,0.26-0.23,0.42-0.31c0.17-0.07,0.36-0.11,0.58-0.11
		s0.41,0.04,0.58,0.11c0.17,0.08,0.31,0.18,0.43,0.31c0.12,0.13,0.2,0.29,0.26,0.46s0.09,0.37,0.09,0.58V149.31z M144.56,150.72
		h-0.74v-1.76c0-0.11-0.01-0.21-0.04-0.28c-0.03-0.07-0.06-0.13-0.11-0.17c-0.05-0.04-0.11-0.07-0.17-0.09
		c-0.07-0.02-0.14-0.03-0.23-0.03c-0.07,0-0.14,0.01-0.2,0.02c-0.06,0.02-0.11,0.04-0.16,0.07c-0.04,0.02-0.07,0.05-0.1,0.08
		c-0.03,0.03-0.06,0.07-0.08,0.11v2.05h-0.74v-2.88h0.67l0.05,0.4c0.04-0.05,0.08-0.1,0.12-0.15c0.04-0.04,0.09-0.08,0.14-0.12
		c0.09-0.06,0.18-0.11,0.28-0.14s0.21-0.05,0.32-0.05c0.15,0,0.28,0.02,0.4,0.06c0.12,0.04,0.23,0.11,0.31,0.2
		c0.09,0.09,0.16,0.21,0.2,0.36s0.07,0.33,0.07,0.54V150.72z M144.89,123.27h-5.97v-2.98h-8.95v5.97h11.93v2.98h2.98v5.97h-2.98
		v2.98h-14.92v-2.98H124v-2.98h5.97v2.98h8.95v-5.97h-11.94v-2.98H124v-5.97h2.98v-2.98h14.92v2.98h2.98V123.27z M156.66,152.1
		c-1.68-1.11-3.21-2.44-5.02-3.83c0-5.26,0-10.23,0-15.39c2.68,0.44,4.06,2.45,5.94,3.72c1.89,1.28,4.13,2.05,6.39,3.13
		c2.03,2.21,2.68,5.02,2.2,8.09C165.45,152.51,160.61,154.7,156.66,152.1z M194.13,151.4c-5.87,2.68-23.87,4.13-29.49,2.32
		c4.27-4.65,4.64-9.63,0.91-14.72c6.45-1.71,9.03-3.54,11.37-8.56c-1.17,0.92-1.78,1.23-2.16,1.73c-2.82,3.63-6.82,4.78-11.1,4.92
		c-1.59,0.05-3.41-0.58-4.78-1.45c-2.47-1.58-4.68-3.57-7.42-5.71c0-5.96-0.03-12.35,0.01-18.74c0.01-2.27-0.12-4.41-2.96-5.83
		c-7.77,0-16.03,0-24.73,0c2.42-3.2,4.48-6.16,6.79-8.91c3.03-3.61,3.88-7.7,3.33-12.23c-0.09-0.76-0.09-1.54-0.17-2.79
		c1.49,0.59,2.69,1.05,3.88,1.55c4.28,1.83,8.4,3.84,13.23,4.28c2.72,0.25,5.29,2.07,7.93,3.19c0.23,0.53,0.31,1.24,0.71,1.56
		c4.02,3.19,6.34,7.6,8.98,11.85c3.03,4.88,6.5,9.5,9.83,14.2c2.25,3.18,4.52,6.34,6.91,9.42c1.33,1.72,2.81,3.35,4.39,4.84
		c4.63,4.33,5.31,10.02,5.5,15.84C195.15,149.29,194.43,150.47,194.13,151.4z"/>
        <rect x="106.1" y="120.28" class="st0" width="8.95" height="8.95"/>
        <path class="st0" d="M97.87,148.64c-0.05-0.08-0.11-0.14-0.19-0.19c-0.08-0.05-0.17-0.07-0.29-0.07c-0.11,0-0.2,0.02-0.28,0.07
		c-0.08,0.05-0.14,0.11-0.19,0.19c-0.05,0.08-0.09,0.17-0.11,0.28c-0.02,0.11-0.03,0.22-0.03,0.33v0.06c0,0.12,0.01,0.23,0.03,0.34
		c0.02,0.11,0.06,0.2,0.11,0.28c0.05,0.08,0.11,0.14,0.19,0.19s0.17,0.07,0.29,0.07c0.11,0,0.2-0.02,0.28-0.07
		c0.08-0.05,0.14-0.11,0.19-0.19c0.05-0.08,0.08-0.17,0.11-0.28c0.02-0.11,0.03-0.22,0.03-0.34v-0.06c0-0.12-0.01-0.23-0.03-0.33
		C97.95,148.82,97.92,148.72,97.87,148.64z"/>
</g>
    <g>
	<g>
	</g>
</g>
</svg>
