<?xml version="1.0" encoding="utf-8"?>
<!-- Generator: Adobe Illustrator 24.1.3, SVG Export Plug-In . SVG Version: 6.00 Build 0)  -->
<svg version="1.1" xmlns="http://www.w3.org/2000/svg" xmlns:xlink="http://www.w3.org/1999/xlink" x="0px" y="0px"
	 viewBox="0 0 220 220" style="enable-background:new 0 0 220 220;" xml:space="preserve">
<style type="text/css">
	.st0{fill:#FFFFFF;}
</style>
<g id="Layer_2">
</g>
<g id="Text">
</g>
<g id="Layer_1">
	<g>
		<path d="M96.12,152.03c-0.05-0.08-0.12-0.15-0.21-0.2c-0.08-0.05-0.19-0.07-0.31-0.07c-0.12,0-0.22,0.02-0.3,0.07
			c-0.08,0.05-0.15,0.12-0.21,0.2c-0.05,0.09-0.09,0.19-0.12,0.3c-0.02,0.11-0.04,0.23-0.04,0.36v0.06c0,0.13,0.01,0.25,0.04,0.36
			c0.03,0.11,0.06,0.21,0.12,0.3c0.05,0.09,0.12,0.15,0.21,0.2c0.08,0.05,0.19,0.07,0.31,0.07c0.12,0,0.22-0.03,0.3-0.07
			c0.08-0.05,0.15-0.12,0.21-0.2c0.05-0.08,0.09-0.18,0.11-0.3c0.02-0.11,0.04-0.24,0.04-0.36v-0.06c0-0.13-0.01-0.24-0.04-0.36
			C96.21,152.21,96.18,152.11,96.12,152.03z"/>
		<path d="M110.2,151.92c-0.05-0.05-0.12-0.1-0.2-0.13s-0.17-0.05-0.27-0.05c-0.09,0-0.17,0.02-0.25,0.05
			c-0.07,0.03-0.14,0.08-0.19,0.14c-0.06,0.06-0.1,0.13-0.14,0.21c-0.04,0.08-0.07,0.17-0.09,0.27h1.3v-0.06
			c0-0.08-0.02-0.16-0.05-0.24C110.29,152.04,110.25,151.98,110.2,151.92z"/>
		<path d="M82.07,151.92c-0.05-0.05-0.12-0.1-0.2-0.13c-0.08-0.03-0.17-0.05-0.27-0.05c-0.09,0-0.17,0.02-0.25,0.05
			c-0.07,0.03-0.14,0.08-0.19,0.14c-0.06,0.06-0.1,0.13-0.14,0.21c-0.04,0.08-0.07,0.17-0.09,0.27h1.3v-0.06
			c0-0.08-0.02-0.16-0.05-0.24C82.16,152.04,82.12,151.98,82.07,151.92z"/>
		<rect x="104.96" y="121.58" width="9.61" height="9.61"/>
		<path d="M75.02,152.03c-0.05-0.08-0.12-0.15-0.21-0.2c-0.08-0.05-0.19-0.07-0.31-0.07c-0.12,0-0.22,0.02-0.3,0.07
			c-0.08,0.05-0.15,0.12-0.21,0.2c-0.05,0.09-0.09,0.19-0.12,0.3c-0.02,0.11-0.04,0.23-0.04,0.36v0.06c0,0.13,0.01,0.25,0.04,0.36
			c0.03,0.11,0.06,0.21,0.12,0.3c0.05,0.09,0.12,0.15,0.21,0.2c0.08,0.05,0.19,0.07,0.31,0.07c0.12,0,0.22-0.03,0.3-0.07
			c0.08-0.05,0.15-0.12,0.21-0.2c0.05-0.08,0.09-0.18,0.11-0.3c0.02-0.11,0.04-0.24,0.04-0.36v-0.06c0-0.13-0.01-0.24-0.04-0.36
			C75.11,152.21,75.08,152.11,75.02,152.03z"/>
		<path d="M78.52,152.02c-0.05-0.08-0.12-0.15-0.2-0.19c-0.08-0.05-0.18-0.07-0.29-0.07c-0.07,0-0.12,0.01-0.18,0.02
			c-0.05,0.01-0.1,0.03-0.15,0.05c-0.05,0.03-0.09,0.06-0.13,0.1c-0.04,0.04-0.07,0.09-0.1,0.14v1.29c0.02,0.05,0.05,0.09,0.09,0.14
			c0.04,0.04,0.08,0.07,0.12,0.1c0.04,0.03,0.09,0.05,0.15,0.06c0.06,0.01,0.12,0.02,0.19,0.02c0.11,0,0.21-0.03,0.29-0.07
			c0.08-0.05,0.14-0.12,0.19-0.2c0.05-0.09,0.09-0.19,0.11-0.3c0.02-0.11,0.03-0.23,0.03-0.36v-0.06c0-0.13-0.01-0.25-0.04-0.36
			C78.6,152.2,78.57,152.1,78.52,152.02z"/>
		<path d="M117.23,151.92c-0.05-0.05-0.12-0.1-0.2-0.13c-0.08-0.03-0.17-0.05-0.27-0.05c-0.09,0-0.17,0.02-0.25,0.05
			c-0.07,0.03-0.14,0.08-0.19,0.14c-0.06,0.06-0.1,0.13-0.14,0.21c-0.04,0.08-0.07,0.17-0.09,0.27h1.3v-0.06
			c0-0.08-0.02-0.16-0.05-0.24C117.33,152.04,117.29,151.98,117.23,151.92z"/>
		<path d="M120.21,151.75c-0.11,0-0.21,0.03-0.29,0.07c-0.08,0.05-0.14,0.12-0.19,0.2c-0.05,0.09-0.09,0.19-0.11,0.3
			c-0.02,0.11-0.03,0.23-0.03,0.36v0.06c0,0.13,0.01,0.25,0.03,0.36c0.02,0.11,0.06,0.21,0.11,0.29c0.05,0.08,0.11,0.15,0.19,0.2
			c0.08,0.05,0.17,0.07,0.29,0.07c0.14,0,0.25-0.03,0.34-0.09c0.09-0.06,0.16-0.14,0.22-0.24v-1.25c-0.05-0.1-0.13-0.19-0.21-0.24
			C120.46,151.78,120.35,151.75,120.21,151.75z"/>
		<path d="M141.84,152.03c-0.05-0.08-0.12-0.15-0.21-0.2c-0.08-0.05-0.19-0.07-0.31-0.07c-0.12,0-0.22,0.02-0.3,0.07
			c-0.08,0.05-0.15,0.12-0.21,0.2c-0.05,0.09-0.09,0.19-0.12,0.3c-0.02,0.11-0.04,0.23-0.04,0.36v0.06c0,0.13,0.01,0.25,0.04,0.36
			c0.03,0.11,0.06,0.21,0.12,0.3c0.05,0.09,0.12,0.15,0.21,0.2c0.08,0.05,0.19,0.07,0.31,0.07c0.12,0,0.22-0.03,0.3-0.07
			c0.08-0.05,0.15-0.12,0.21-0.2c0.05-0.08,0.09-0.18,0.11-0.3c0.02-0.11,0.04-0.24,0.04-0.36v-0.06c0-0.13-0.01-0.24-0.04-0.36
			C141.93,152.21,141.89,152.11,141.84,152.03z"/>
		<path d="M197.04,135.47c-3.6-4.33-7.02-8.82-10.63-13.15c-6.28-7.56-11.87-15.58-16.57-24.23c-1.89-3.47-4.55-6.42-8.42-7.94
			c-1.32-3.63-4.46-4.85-7.77-5.05c-7.09-0.42-12.83-4.07-19.15-6.91c0-2.58-0.01-4.9,0-7.23c0.03-6,0.46-12.02,0-17.98
			c-0.55-7.19-3.75-13.34-9.42-17.97c-2.83-2.31-5.86-4.37-8.72-6.63c-3.05-2.41-6.16-2.89-9.71-1.01
			c-8.17,4.31-13.53,11.14-17.31,19.31c-2.96,6.41-2.88,13.2-1.74,20.04c0.37,2.24,0.47,4.53,0.67,6.6c-5.08,3-9.52,5.66-15.14,6.06
			c-3.87,0.28-7.75,1.35-11.11,3.92c-7.49,5.72-14.09,12.18-18.59,20.55c-4.87,9.06-11.91,16.65-17.17,25.44
			c-0.42,0.7-0.97,1.4-1.62,1.89c-4.36,3.29-5.82,8.03-6.19,13.08c-0.24,3.26,0.24,6.6,0.66,9.86c0.31,2.4,2.01,3.84,4.36,4.18
			c3.28,0.46,6.59,0.82,9.89,0.99c2.66,0.14,5.17,0.34,7.76,1.37c2.55,1.01,5.51,1.49,8.24,1.35c2.05-0.11,3.9-0.02,5.75,0.7
			c2.12,0.83,4.11,1.16,6.06-0.5c1.9-1.61,4.34-1.39,6.05-0.25c2.33,1.55,4.71,1.46,7.17,1.48c7.5,0.05,14.99,0.03,22.49,0.02
			c16.83-0.03,33.65-0.05,50.47-0.13c4.61-0.02,5.9-1.32,6.24-5.82c0.07-0.94,0.14-1.89,0.23-3.02c0.72,0.29,1.24,0.38,1.6,0.67
			c2.75,2.23,5.49,4.36,9.42,3.47c0.53-0.12,1.23,0.41,1.84,0.68c3.2,1.39,6.45,1.25,9.78,0.52c1.43-0.31,3.08-0.68,4.41-0.28
			c5.8,1.76,11.15-0.52,16.61-1.62c2.02-0.41,3.74-1.94,3.93-4.09C201.98,147.26,201.55,140.89,197.04,135.47z M121.2,84.54
			c-2.18,4.22-5.36,7.87-10.78,7.62c-5.64-0.27-8.61-4.52-10.41-8.94c-2.41-5.92-5.31-11.68-5.89-18.38
			c-0.34-3.91,0.12-6.87,2.01-10.27c2.75-4.95,6.6-7.86,11.97-8.76c2.02-0.34,4.51-0.4,6.25,0.48c5.36,2.71,10.32,6.08,12.98,11.84
			c0.47,1.03,0.76,2.15,1.04,2.95c-0.62,3.62-0.84,7-1.83,10.12C125.07,75.75,123.38,80.3,121.2,84.54z M122.58,94.4
			c-3.93,4.09-7.68,8-11.51,11.98c-5.53-3.17-8.34-8.24-12.61-11.78c0.92-2.16,1.69-3.97,2.54-5.98c2.9,2.64,5.78,5.73,10.02,5.54
			c3.96-0.17,6.97-2.75,9.94-5.72C121.54,90.59,122.04,92.42,122.58,94.4z M97.01,80.23c1.63,3.28,3.58,6.93,1.07,10.8
			c-0.04,0.06-0.23,0.02-0.34,0.03c-0.27-0.14-0.54-0.31-0.82-0.41c-0.1-0.03-0.26,0.12-0.69,0.35c0.04,7.08,7.36,9.25,10.21,14.72
			c-3.34,0-6.56,0-9.92,0c-2.03-3.74-3.83-7.09-5.66-10.42c-1.65-3-2.41-6.03-1.69-9.55c0.66-3.23,0.56-6.61,0.93-9.92
			c0.49-4.45,1.11-8.88,1.83-13.35C92.8,68.64,94.21,74.58,97.01,80.23z M98.55,118.37h19.22v3.2h3.2v9.61h-3.2v3.2h-12.81v6.41
			h-6.41V118.37z M120.56,105.86c-1.73,0-3.55,0-6.34,0c2.63-2.9,4.71-5.38,6.98-7.66c2.76-2.77,5.06-5.41,1.79-9.39
			c-0.56-0.69-0.27-2.24-0.08-3.34c0.19-1.12,0.65-2.23,1.15-3.27c2.74-5.79,5.02-11.73,6.32-18.2c0.38,1.74,0.72,3.49,1.14,5.22
			c1.5,6.18,1.97,12.46,1.69,18.79c-0.07,1.44-0.28,3.09-1.06,4.23C128.89,97.02,126.1,102.24,120.56,105.86z M88.88,53.66
			c2.51-9.97,7.78-18.24,16.75-23.77c4.19-2.58,6.86-2.33,10.84,0.83c1.95,1.55,3.9,3.11,5.98,4.48
			c5.89,3.87,10.75,12.66,10.77,19.72c0.01,3.49,0,6.98,0,10.9c-2.05-3.84-3.72-7.27-5.65-10.55c-2.89-4.89-7.49-8.02-12.33-10.55
			c-4.65-2.43-13.65,0.18-17.41,4.38c-2.31,2.58-7.37,11.85-8.35,15.64C87.99,60.72,88.04,56.98,88.88,53.66z M66.2,112.02
			c0.08,6.16-0.07,12.33,0.06,18.49c0.07,3.42-0.11,6.64-2.7,9.25c-0.26,0.26-0.13,0.91-0.17,1.38c0.01,0,0.02-0.01,0.03-0.01
			c0,0.01,0,0.01,0,0.02c0.85-0.36,1.7-0.72,2.48-1.05c0,6.53,0,13.08,0,20.2c-2.61-0.85-4.76-1.56-6.92-2.27
			c-1.24-6.07-1.05-11.45,4.13-15.55c0.28-0.22,0.22-0.88,0.31-1.34c-0.01,0-0.02,0.01-0.03,0.01c0-0.01,0-0.01,0-0.02
			c-1.15,0.53-2.3,1.06-4.2,1.94c-6.67-3.52-13.81-7.28-20.96-11.04c1.91,2.86,4.15,5.07,7.48,5.89c1.26,0.31,2.45,1.01,3.59,1.67
			c2.99,1.71,5.94,3.5,9.14,5.4c-2.22,5.27-4.23,10.9,1.27,15.84c-1.16,1.74-2.34,0.8-3.61,0.51c-2.39-0.54-4.82-0.99-7.26-1.18
			c-2.97-0.23-5.79-0.71-8.71-1.55c-4.24-1.21-8.87-1.02-13.32-1.57c-1.89-0.23-3.74-0.8-5.09-1.09c-3.38-6.4-1.63-12.05-0.26-17.66
			c0.3-1.22,1.21-2.32,1.97-3.38c3.67-5.11,7.39-10.2,11.08-15.3c0.29-0.4,0.4-0.98,0.76-1.28c5.41-4.5,7.85-11.03,11.42-16.76
			c4.41-7.08,10.45-12.5,17.02-17.34c2.04-1.5,4.84-2.61,7.35-2.72c5.72-0.26,10.66-2.3,15.43-5.12c0.42-0.25,0.93-0.34,1.87-0.67
			c-0.23,2.66-0.28,5.12-0.7,7.51c-0.86,4.91-0.66,9.53,2.23,13.88c1.71,2.58,2.96,5.46,4.71,8.76c-8.97,0-17.26,0-24.8,0
			C66.57,107.37,66.17,109.52,66.2,112.02z M75.97,152.74c0,0.23-0.03,0.44-0.1,0.63c-0.07,0.19-0.16,0.36-0.28,0.5
			c-0.12,0.14-0.28,0.25-0.46,0.33c-0.18,0.08-0.39,0.12-0.62,0.12c-0.23,0-0.44-0.04-0.62-0.12c-0.18-0.08-0.33-0.19-0.46-0.33
			c-0.13-0.14-0.22-0.31-0.29-0.5c-0.07-0.19-0.1-0.4-0.1-0.63v-0.06c0-0.22,0.03-0.43,0.1-0.62c0.06-0.19,0.16-0.36,0.29-0.5
			c0.12-0.14,0.28-0.25,0.46-0.33c0.18-0.08,0.39-0.12,0.62-0.12c0.23,0,0.44,0.04,0.62,0.12c0.18,0.08,0.34,0.19,0.46,0.33
			c0.12,0.14,0.22,0.31,0.28,0.5c0.07,0.19,0.1,0.4,0.1,0.62V152.74z M72.92,137.59v-19.22h6.41v12.81h3.2v-12.81h3.2v12.81h3.2
			v-12.81h6.41v19.22h-3.2v3.2h-3.2v-3.2h-3.2v-3.2h-3.2v3.2h-3.2v3.2h-3.2v-3.2H72.92z M79.46,152.74c0,0.23-0.03,0.43-0.08,0.63
			c-0.05,0.19-0.13,0.36-0.23,0.5c-0.1,0.14-0.23,0.25-0.38,0.33c-0.15,0.08-0.32,0.12-0.52,0.12c-0.1,0-0.2-0.01-0.28-0.03
			c-0.09-0.02-0.17-0.05-0.24-0.1c-0.04-0.03-0.09-0.06-0.13-0.09c-0.04-0.03-0.08-0.07-0.11-0.11v1.46h-0.8v-4.29h0.74l0.03,0.3
			c0.04-0.05,0.09-0.1,0.14-0.14c0.05-0.04,0.1-0.08,0.16-0.11c0.07-0.04,0.14-0.06,0.23-0.08c0.08-0.02,0.17-0.03,0.27-0.03
			c0.2,0,0.37,0.04,0.52,0.11c0.15,0.07,0.28,0.18,0.38,0.32c0.1,0.14,0.18,0.31,0.23,0.5c0.05,0.19,0.08,0.41,0.08,0.64V152.74z
			 M83.02,152.97h-2.1v0.01c0.03,0.12,0.06,0.22,0.1,0.3c0.04,0.08,0.1,0.14,0.17,0.2c0.07,0.06,0.16,0.11,0.25,0.15
			c0.09,0.03,0.2,0.05,0.31,0.05c0.16,0,0.31-0.03,0.45-0.09c0.15-0.06,0.27-0.15,0.36-0.27l0.4,0.43c-0.1,0.14-0.26,0.27-0.48,0.39
			c-0.22,0.12-0.48,0.18-0.78,0.18c-0.24,0-0.46-0.04-0.65-0.12c-0.19-0.08-0.36-0.19-0.5-0.32c-0.14-0.13-0.25-0.29-0.32-0.47
			c-0.08-0.18-0.11-0.38-0.11-0.59v-0.11c0-0.24,0.04-0.45,0.11-0.65c0.07-0.2,0.18-0.36,0.31-0.51c0.13-0.14,0.29-0.25,0.47-0.33
			c0.18-0.08,0.38-0.12,0.6-0.12c0.22,0,0.42,0.04,0.6,0.11c0.17,0.07,0.32,0.18,0.44,0.31c0.12,0.13,0.21,0.29,0.27,0.48
			c0.06,0.19,0.09,0.4,0.09,0.62V152.97z M86.47,154.26h-0.8v-1.89c0-0.12-0.01-0.22-0.04-0.3c-0.03-0.08-0.07-0.14-0.12-0.19
			c-0.05-0.05-0.11-0.08-0.19-0.1c-0.07-0.02-0.15-0.03-0.25-0.03c-0.08,0-0.15,0.01-0.21,0.03c-0.06,0.02-0.12,0.04-0.17,0.08
			c-0.04,0.02-0.08,0.05-0.11,0.09c-0.03,0.03-0.06,0.07-0.09,0.11v2.2h-0.8v-3.1h0.72l0.05,0.43c0.04-0.06,0.08-0.11,0.13-0.16
			c0.05-0.05,0.1-0.09,0.15-0.13c0.09-0.07,0.19-0.11,0.3-0.15s0.22-0.05,0.35-0.05c0.16,0,0.3,0.02,0.43,0.07
			c0.13,0.05,0.24,0.12,0.34,0.22c0.09,0.1,0.17,0.23,0.22,0.39c0.05,0.16,0.08,0.35,0.08,0.57V154.26z M90.01,152.74h-2.38v-0.64
			h2.38V152.74z M93.41,153.75c-0.07,0.12-0.16,0.21-0.28,0.3c-0.12,0.08-0.27,0.15-0.44,0.2c-0.17,0.05-0.36,0.07-0.58,0.07
			c-0.23,0-0.44-0.03-0.62-0.09c-0.18-0.06-0.33-0.14-0.45-0.24c-0.12-0.1-0.21-0.21-0.27-0.33c-0.06-0.12-0.09-0.25-0.09-0.38h0.76
			c0.01,0.08,0.03,0.16,0.07,0.22c0.04,0.06,0.09,0.11,0.15,0.14c0.06,0.04,0.13,0.07,0.22,0.08c0.08,0.02,0.16,0.03,0.25,0.03
			c0.1,0,0.19-0.01,0.27-0.03c0.08-0.02,0.14-0.04,0.19-0.07c0.05-0.03,0.08-0.07,0.11-0.11c0.02-0.04,0.04-0.08,0.04-0.13
			c0-0.05-0.01-0.09-0.03-0.13c-0.02-0.04-0.06-0.07-0.12-0.1c-0.06-0.03-0.13-0.06-0.23-0.09c-0.09-0.03-0.21-0.05-0.35-0.08
			c-0.18-0.04-0.35-0.08-0.5-0.14c-0.15-0.05-0.28-0.12-0.38-0.2c-0.11-0.08-0.19-0.17-0.25-0.27c-0.06-0.1-0.09-0.22-0.09-0.35
			c0-0.13,0.03-0.25,0.09-0.37c0.06-0.12,0.15-0.22,0.26-0.31c0.11-0.09,0.25-0.16,0.42-0.21c0.16-0.05,0.35-0.08,0.56-0.08
			c0.22,0,0.41,0.03,0.58,0.08c0.17,0.05,0.32,0.12,0.44,0.21c0.12,0.09,0.21,0.2,0.27,0.32c0.06,0.12,0.09,0.25,0.09,0.4h-0.8
			c0-0.05-0.01-0.1-0.03-0.14c-0.02-0.04-0.04-0.08-0.08-0.12c-0.05-0.05-0.11-0.09-0.19-0.11c-0.08-0.03-0.18-0.04-0.29-0.04
			c-0.1,0-0.18,0.01-0.25,0.03c-0.07,0.02-0.13,0.05-0.18,0.08c-0.04,0.03-0.07,0.07-0.1,0.11c-0.02,0.04-0.03,0.08-0.03,0.13
			c0,0.05,0.01,0.09,0.03,0.13c0.02,0.04,0.05,0.07,0.1,0.1c0.05,0.03,0.11,0.06,0.2,0.09c0.08,0.03,0.19,0.05,0.32,0.07
			c0.19,0.03,0.36,0.07,0.52,0.12c0.16,0.05,0.3,0.11,0.41,0.18c0.12,0.08,0.21,0.17,0.27,0.28c0.07,0.11,0.1,0.24,0.1,0.38
			C93.51,153.51,93.48,153.64,93.41,153.75z M97.07,152.74c0,0.23-0.03,0.44-0.1,0.63c-0.07,0.19-0.16,0.36-0.28,0.5
			c-0.12,0.14-0.28,0.25-0.46,0.33c-0.18,0.08-0.39,0.12-0.62,0.12c-0.23,0-0.44-0.04-0.62-0.12c-0.18-0.08-0.34-0.19-0.46-0.33
			c-0.13-0.14-0.22-0.31-0.29-0.5c-0.07-0.19-0.1-0.4-0.1-0.63v-0.06c0-0.22,0.03-0.43,0.1-0.62c0.06-0.19,0.16-0.36,0.29-0.5
			c0.12-0.14,0.28-0.25,0.46-0.33c0.18-0.08,0.39-0.12,0.62-0.12s0.44,0.04,0.62,0.12c0.18,0.08,0.33,0.19,0.46,0.33
			c0.12,0.14,0.22,0.31,0.28,0.5c0.07,0.19,0.1,0.4,0.1,0.62V152.74z M100.52,154.26H99.8l-0.05-0.44c-0.1,0.16-0.23,0.28-0.38,0.36
			c-0.15,0.09-0.31,0.13-0.48,0.13c-0.16,0-0.31-0.02-0.44-0.07c-0.13-0.05-0.25-0.13-0.34-0.24c-0.1-0.11-0.17-0.24-0.22-0.41
			c-0.05-0.17-0.08-0.37-0.08-0.6v-1.83h0.8V153c0,0.13,0.01,0.23,0.03,0.32c0.02,0.09,0.05,0.16,0.09,0.21
			c0.04,0.05,0.09,0.09,0.16,0.11c0.07,0.02,0.14,0.03,0.24,0.03c0.08,0,0.16-0.01,0.23-0.03c0.07-0.02,0.13-0.04,0.18-0.07
			c0.04-0.03,0.08-0.06,0.12-0.1c0.03-0.04,0.06-0.08,0.09-0.13v-2.17h0.8V154.26z M103.98,151.98c-0.1-0.02-0.21-0.04-0.32-0.06
			c-0.11-0.01-0.21-0.02-0.31-0.02c-0.1,0-0.2,0.01-0.28,0.03c-0.08,0.02-0.16,0.05-0.22,0.08c-0.08,0.04-0.15,0.1-0.2,0.16
			c-0.06,0.07-0.1,0.14-0.14,0.23v1.86h-0.8v-3.1h0.74l0.03,0.44l0.01,0.07c0.13-0.18,0.28-0.31,0.45-0.41
			c0.18-0.1,0.37-0.15,0.58-0.15c0.12,0,0.23,0.01,0.33,0.02c0.1,0.02,0.18,0.03,0.25,0.05L103.98,151.98z M105.57,153.1
			c0.02,0.11,0.05,0.21,0.1,0.29c0.05,0.08,0.11,0.15,0.2,0.21c0.08,0.05,0.19,0.08,0.32,0.08c0.08,0,0.15-0.01,0.22-0.03
			c0.07-0.02,0.13-0.06,0.19-0.1s0.09-0.09,0.12-0.15c0.03-0.06,0.04-0.13,0.04-0.2h0.75c0,0.16-0.03,0.31-0.1,0.45
			c-0.07,0.14-0.16,0.26-0.28,0.35c-0.12,0.1-0.26,0.18-0.42,0.23c-0.16,0.06-0.33,0.08-0.5,0.08c-0.24,0-0.45-0.04-0.63-0.12
			c-0.18-0.08-0.33-0.19-0.45-0.33c-0.12-0.14-0.21-0.31-0.28-0.5c-0.06-0.19-0.09-0.39-0.09-0.61v-0.09c0-0.22,0.03-0.42,0.09-0.61
			c0.06-0.19,0.15-0.36,0.27-0.5c0.12-0.14,0.27-0.25,0.45-0.33s0.39-0.12,0.63-0.12c0.19,0,0.37,0.03,0.53,0.09
			c0.16,0.06,0.3,0.14,0.42,0.24c0.12,0.1,0.21,0.23,0.27,0.38c0.06,0.15,0.1,0.31,0.09,0.5h-0.75c0-0.08-0.01-0.15-0.03-0.22
			c-0.03-0.07-0.07-0.13-0.12-0.18c-0.05-0.05-0.11-0.09-0.19-0.12c-0.07-0.03-0.15-0.04-0.24-0.04c-0.13,0-0.23,0.03-0.31,0.08
			c-0.08,0.05-0.15,0.12-0.19,0.21c-0.05,0.09-0.08,0.18-0.1,0.29s-0.03,0.23-0.03,0.34v0.09
			C105.54,152.88,105.55,152.99,105.57,153.1z M111.15,152.97h-2.1v0.01c0.03,0.12,0.06,0.22,0.1,0.3c0.04,0.08,0.1,0.14,0.17,0.2
			c0.07,0.06,0.16,0.11,0.25,0.15c0.09,0.03,0.2,0.05,0.31,0.05c0.16,0,0.31-0.03,0.45-0.09c0.15-0.06,0.27-0.15,0.36-0.27l0.4,0.43
			c-0.1,0.14-0.26,0.27-0.48,0.39c-0.22,0.12-0.48,0.18-0.78,0.18c-0.24,0-0.46-0.04-0.65-0.12c-0.19-0.08-0.36-0.19-0.5-0.32
			c-0.14-0.13-0.25-0.29-0.32-0.47c-0.08-0.18-0.11-0.38-0.11-0.59v-0.11c0-0.24,0.04-0.45,0.11-0.65c0.07-0.2,0.18-0.36,0.31-0.51
			c0.13-0.14,0.29-0.25,0.48-0.33c0.18-0.08,0.38-0.12,0.6-0.12c0.22,0,0.42,0.04,0.6,0.11c0.17,0.07,0.32,0.18,0.44,0.31
			c0.12,0.13,0.21,0.29,0.27,0.48c0.06,0.19,0.09,0.4,0.09,0.62V152.97z M118.18,152.97h-2.1v0.01c0.03,0.12,0.06,0.22,0.1,0.3
			c0.04,0.08,0.1,0.14,0.17,0.2c0.07,0.06,0.16,0.11,0.25,0.15c0.09,0.03,0.2,0.05,0.31,0.05c0.16,0,0.31-0.03,0.45-0.09
			c0.15-0.06,0.27-0.15,0.36-0.27l0.4,0.43c-0.1,0.14-0.26,0.27-0.48,0.39c-0.22,0.12-0.48,0.18-0.78,0.18
			c-0.24,0-0.46-0.04-0.65-0.12c-0.19-0.08-0.36-0.19-0.5-0.32c-0.14-0.13-0.25-0.29-0.32-0.47c-0.08-0.18-0.11-0.38-0.11-0.59
			v-0.11c0-0.24,0.04-0.45,0.11-0.65c0.07-0.2,0.18-0.36,0.31-0.51c0.13-0.14,0.29-0.25,0.47-0.33c0.18-0.08,0.38-0.12,0.6-0.12
			c0.22,0,0.42,0.04,0.6,0.11c0.17,0.07,0.32,0.18,0.44,0.31c0.12,0.13,0.21,0.29,0.27,0.48c0.06,0.19,0.09,0.4,0.09,0.62V152.97z
			 M121.56,154.26h-0.72l-0.04-0.32c-0.1,0.12-0.21,0.21-0.34,0.28c-0.13,0.07-0.28,0.1-0.46,0.1c-0.19,0-0.36-0.04-0.51-0.12
			c-0.15-0.08-0.28-0.19-0.38-0.33c-0.1-0.14-0.19-0.31-0.24-0.5c-0.06-0.19-0.08-0.4-0.08-0.62v-0.06c0-0.23,0.03-0.45,0.08-0.64
			c0.05-0.2,0.13-0.36,0.24-0.5c0.1-0.14,0.23-0.25,0.38-0.32c0.15-0.08,0.32-0.11,0.51-0.11c0.16,0,0.3,0.03,0.43,0.09
			c0.12,0.06,0.23,0.14,0.33,0.25v-1.58h0.8V154.26z M125.14,154.26h-0.72l-0.05-0.44c-0.1,0.16-0.23,0.28-0.38,0.36
			c-0.15,0.09-0.31,0.13-0.48,0.13c-0.16,0-0.31-0.02-0.44-0.07c-0.13-0.05-0.25-0.13-0.34-0.24c-0.1-0.11-0.17-0.24-0.22-0.41
			c-0.05-0.17-0.08-0.37-0.08-0.6v-1.83h0.8V153c0,0.13,0.01,0.23,0.03,0.32c0.02,0.09,0.05,0.16,0.09,0.21
			c0.04,0.05,0.09,0.09,0.16,0.11c0.07,0.02,0.14,0.03,0.24,0.03c0.08,0,0.16-0.01,0.23-0.03c0.07-0.02,0.13-0.04,0.18-0.07
			c0.04-0.03,0.08-0.06,0.12-0.1c0.03-0.04,0.06-0.08,0.09-0.13v-2.17h0.8V154.26z M126.67,153.1c0.02,0.11,0.05,0.21,0.1,0.29
			c0.05,0.08,0.11,0.15,0.2,0.21c0.08,0.05,0.19,0.08,0.32,0.08c0.08,0,0.15-0.01,0.22-0.03c0.07-0.02,0.13-0.06,0.19-0.1
			c0.05-0.04,0.09-0.09,0.12-0.15c0.03-0.06,0.04-0.13,0.04-0.2h0.75c0,0.16-0.03,0.31-0.1,0.45c-0.07,0.14-0.16,0.26-0.28,0.35
			c-0.12,0.1-0.26,0.18-0.42,0.23c-0.16,0.06-0.33,0.08-0.5,0.08c-0.24,0-0.45-0.04-0.63-0.12c-0.18-0.08-0.33-0.19-0.45-0.33
			c-0.12-0.14-0.21-0.31-0.28-0.5s-0.09-0.39-0.09-0.61v-0.09c0-0.22,0.03-0.42,0.09-0.61c0.06-0.19,0.15-0.36,0.27-0.5
			c0.12-0.14,0.27-0.25,0.45-0.33c0.18-0.08,0.39-0.12,0.63-0.12c0.19,0,0.37,0.03,0.53,0.09c0.16,0.06,0.3,0.14,0.42,0.24
			c0.12,0.1,0.21,0.23,0.27,0.38c0.06,0.15,0.1,0.31,0.09,0.5h-0.75c0-0.08-0.01-0.15-0.03-0.22c-0.03-0.07-0.07-0.13-0.12-0.18
			c-0.05-0.05-0.11-0.09-0.19-0.12c-0.07-0.03-0.15-0.04-0.24-0.04c-0.13,0-0.23,0.03-0.31,0.08c-0.08,0.05-0.15,0.12-0.19,0.21
			c-0.05,0.09-0.08,0.18-0.1,0.29s-0.03,0.23-0.03,0.34v0.09C126.64,152.88,126.65,152.99,126.67,153.1z M132.17,154.26h-0.81
			c-0.02-0.04-0.04-0.08-0.05-0.13c-0.01-0.05-0.02-0.1-0.03-0.16c-0.04,0.05-0.09,0.09-0.15,0.14c-0.06,0.04-0.12,0.08-0.19,0.11
			c-0.07,0.03-0.15,0.06-0.23,0.08c-0.08,0.02-0.17,0.03-0.27,0.03c-0.16,0-0.3-0.02-0.44-0.07c-0.13-0.05-0.25-0.11-0.34-0.19
			s-0.17-0.18-0.22-0.29c-0.05-0.11-0.08-0.24-0.08-0.37c0-0.17,0.03-0.32,0.1-0.46c0.07-0.13,0.17-0.24,0.3-0.33
			c0.12-0.08,0.27-0.14,0.44-0.18c0.18-0.04,0.38-0.06,0.61-0.06h0.44v-0.18c0-0.07-0.01-0.14-0.03-0.2
			c-0.02-0.06-0.06-0.11-0.1-0.15c-0.05-0.04-0.11-0.08-0.18-0.1c-0.07-0.02-0.16-0.04-0.25-0.04c-0.08,0-0.16,0.01-0.22,0.03
			c-0.06,0.02-0.11,0.05-0.15,0.08c-0.03,0.03-0.06,0.07-0.08,0.12c-0.02,0.05-0.02,0.1-0.02,0.15h-0.8c0-0.13,0.03-0.26,0.09-0.37
			c0.06-0.12,0.14-0.22,0.26-0.31c0.11-0.09,0.25-0.16,0.41-0.21c0.16-0.05,0.35-0.08,0.55-0.08c0.19,0,0.36,0.02,0.52,0.07
			c0.16,0.05,0.3,0.11,0.42,0.2c0.12,0.09,0.21,0.2,0.28,0.34c0.07,0.14,0.1,0.29,0.1,0.47v1.33c0,0.17,0.01,0.3,0.03,0.41
			c0.02,0.11,0.05,0.2,0.09,0.28V154.26z M135.5,154.21c-0.07,0.02-0.15,0.04-0.24,0.06c-0.08,0.01-0.17,0.03-0.26,0.04
			c-0.09,0.01-0.18,0.01-0.27,0.01c-0.17,0-0.32-0.02-0.46-0.07c-0.14-0.05-0.26-0.11-0.35-0.21c-0.1-0.09-0.18-0.21-0.23-0.36
			c-0.05-0.15-0.08-0.32-0.08-0.53v-1.41h-0.71v-0.59h0.71v-0.76h0.8v0.76h1.16v0.59h-1.16v1.33c0,0.11,0.01,0.21,0.04,0.28
			c0.03,0.08,0.06,0.14,0.11,0.18c0.05,0.05,0.11,0.08,0.17,0.1c0.07,0.02,0.14,0.03,0.23,0.03c0.06,0,0.12,0,0.19-0.01
			c0.06-0.01,0.13-0.01,0.18-0.02c0.06-0.01,0.11-0.02,0.16-0.03c0.05-0.01,0.09-0.02,0.13-0.03l0.08,0.55
			C135.64,154.16,135.57,154.19,135.5,154.21z M139.2,154.26h-2.52v-0.65h0.88v-1.8h-0.88v-0.65h1.69v2.45h0.84V154.26z
			 M137.5,150.37c0-0.06,0.01-0.12,0.03-0.17s0.05-0.1,0.09-0.14c0.04-0.04,0.09-0.06,0.14-0.08c0.06-0.02,0.12-0.03,0.19-0.03
			c0.14,0,0.25,0.04,0.34,0.12c0.08,0.08,0.12,0.18,0.12,0.3c0,0.12-0.04,0.23-0.12,0.31c-0.08,0.08-0.2,0.12-0.34,0.12
			c-0.07,0-0.13-0.01-0.19-0.03s-0.1-0.05-0.14-0.09c-0.04-0.04-0.07-0.08-0.09-0.13S137.5,150.43,137.5,150.37z M142.79,152.74
			c0,0.23-0.03,0.44-0.1,0.63c-0.07,0.19-0.16,0.36-0.28,0.5c-0.12,0.14-0.28,0.25-0.46,0.33c-0.18,0.08-0.39,0.12-0.62,0.12
			c-0.23,0-0.44-0.04-0.62-0.12c-0.18-0.08-0.34-0.19-0.46-0.33c-0.13-0.14-0.22-0.31-0.29-0.5c-0.07-0.19-0.1-0.4-0.1-0.63v-0.06
			c0-0.22,0.03-0.43,0.1-0.62c0.06-0.19,0.16-0.36,0.29-0.5c0.12-0.14,0.28-0.25,0.46-0.33c0.18-0.08,0.39-0.12,0.62-0.12
			c0.23,0,0.44,0.04,0.62,0.12c0.18,0.08,0.34,0.19,0.46,0.33c0.12,0.14,0.22,0.31,0.28,0.5c0.07,0.19,0.1,0.4,0.1,0.62V152.74z
			 M146.26,154.26h-0.8v-1.89c0-0.12-0.01-0.22-0.04-0.3c-0.03-0.08-0.07-0.14-0.12-0.19c-0.05-0.05-0.11-0.08-0.19-0.1
			c-0.07-0.02-0.15-0.03-0.25-0.03c-0.08,0-0.15,0.01-0.21,0.03c-0.06,0.02-0.12,0.04-0.17,0.08c-0.04,0.02-0.08,0.05-0.11,0.09
			c-0.03,0.03-0.06,0.07-0.09,0.11v2.2h-0.8v-3.1h0.72l0.05,0.43c0.04-0.06,0.08-0.11,0.13-0.16c0.05-0.05,0.1-0.09,0.15-0.13
			c0.09-0.07,0.19-0.11,0.3-0.15c0.11-0.03,0.22-0.05,0.35-0.05c0.16,0,0.3,0.02,0.43,0.07c0.13,0.05,0.24,0.12,0.34,0.22
			c0.09,0.1,0.17,0.23,0.22,0.39c0.05,0.16,0.08,0.35,0.08,0.57V154.26z M146.61,124.78h-6.41v-3.2h-9.61v6.41h12.81v3.2h3.2v6.41
			h-3.2v3.2h-16.02v-3.2h-3.2v-3.2h6.41v3.2h9.61v-6.41h-12.82v-3.2h-3.2v-6.41h3.2v-3.2h16.02v3.2h3.2V124.78z M159.13,155.89
			c-1.79-1.18-3.42-2.6-5.35-4.08c0-5.61,0-10.9,0-16.41c2.85,0.47,4.33,2.61,6.33,3.97c2.02,1.37,4.41,2.19,6.81,3.33
			c2.17,2.35,2.85,5.35,2.35,8.62C168.51,156.33,163.35,158.66,159.13,155.89z M199.09,155.15c-6.26,2.86-25.45,4.4-31.44,2.48
			c4.55-4.96,4.95-10.26,0.97-15.7c6.88-1.82,9.63-3.78,12.12-9.13c-1.25,0.98-1.9,1.32-2.3,1.84c-3.01,3.87-7.27,5.1-11.83,5.25
			c-1.7,0.06-3.64-0.62-5.09-1.55c-2.64-1.68-4.99-3.8-7.91-6.09c0-6.35-0.03-13.17,0.02-19.98c0.02-2.43-0.13-4.71-3.16-6.22
			c-8.28,0-17.09,0-26.37,0c2.59-3.41,4.78-6.57,7.24-9.5c3.23-3.85,4.14-8.21,3.56-13.04c-0.1-0.82-0.1-1.64-0.18-2.98
			c1.58,0.63,2.87,1.12,4.14,1.66c4.56,1.95,8.96,4.09,14.11,4.57c2.9,0.27,5.64,2.2,8.45,3.4c0.24,0.57,0.33,1.32,0.76,1.66
			c4.29,3.4,6.76,8.11,9.58,12.64c3.23,5.21,6.93,10.13,10.48,15.14c2.4,3.39,4.82,6.76,7.36,10.04c1.42,1.83,2.99,3.58,4.69,5.16
			c4.93,4.62,5.66,10.68,5.87,16.89C200.18,152.9,199.41,154.15,199.09,155.15z"/>
		<path d="M130.53,152.88c-0.09,0.02-0.16,0.06-0.21,0.1c-0.06,0.04-0.1,0.1-0.12,0.16s-0.04,0.13-0.04,0.2
			c0,0.06,0.01,0.11,0.03,0.15c0.02,0.05,0.05,0.09,0.09,0.12c0.04,0.03,0.08,0.06,0.14,0.07c0.06,0.02,0.12,0.03,0.2,0.03
			c0.08,0,0.15-0.01,0.22-0.03c0.07-0.02,0.13-0.04,0.19-0.07c0.06-0.03,0.1-0.07,0.14-0.1c0.04-0.04,0.07-0.08,0.09-0.12v-0.53
			h-0.41C130.72,152.84,130.61,152.86,130.53,152.88z"/>
	</g>
</g>
</svg>
